<?xml version="1.0" encoding="utf-8"?>
<!-- Generator: Adobe Illustrator 20.1.0, SVG Export Plug-In . SVG Version: 6.00 Build 0)  -->
<svg version="1.1" id="Layer_1" xmlns="http://www.w3.org/2000/svg" xmlns:xlink="http://www.w3.org/1999/xlink" x="0px" y="0px"
	 viewBox="0 0 476.7 541" style="enable-background:new 0 0 476.7 541;" xml:space="preserve">
<style type="text/css">
	.st0{fill:#2BB673;}
	.st1{font-family:'Source Sans Pro';}
	.st2{font-size:9px;}
	.st3{font-size:7px;}
	.st4{fill:#FFFFFF;}
	.st5{enable-background:new    ;}
	.st6{fill:none;stroke:#000000;stroke-miterlimit:10;}
	.st7{font-size:12px;}
</style>
<g id="Layer_2">
	<rect id="CoonLab" x="297.2" y="167.2" class="st0" width="90" height="44"/>
	<polygon id="Floor3S" class="st0" points="113.5,49.4 171.5,49.4 171.5,19.4 113.5,19.4 56.5,19.4 56.5,49.4 	"/>
	<polygon id="Floor4S" class="st0" points="342.2,51.2 399.2,51.2 399.2,19.2 342.2,19.2 284.2,19.2 284.2,51.2 	"/>
	<rect id="Halverson" x="399.2" y="303.2" class="st0" width="37" height="43"/>
	<rect id="BeerCave" x="247.2" y="304.2" class="st0" width="37" height="41"/>
	<polygon id="Floor4AtriumS" class="st0" points="341.4,305.2 341.5,305.2 387.2,305.2 387.2,285.2 341.5,285.2 341.4,285.2
		295.7,285.2 295.7,305.2 	"/>
	<path id="Floor4AtriumN" class="st0" d="M313.1,342.2h15.4v-20h-15.4h-15.4v20H313.1z M370.8,342.2h15.5v-20h-15.5h-15.5v20H370.8z
		"/>
	<rect id="Jones" x="18.5" y="303.4" class="st0" width="38" height="42"/>
	<rect id="Reception" x="93.5" y="255.4" class="st0" width="66" height="43"/>
	<polygon id="DiningArea" class="st0" points="208.5,298.4 159,298.4 159,229 171.5,229 171.5,235.4 208.5,235.4 	"/>
	<polygon id="EvansS" class="st0" points="113.5,108.4 158.5,108.4 158.5,49.4 113.5,49.4 68.5,49.4 68.5,108.4 	"/>
	<polygon id="EvansN" class="st0" points="94.5,151.4 94.5,162.4 133.5,162.4 133.5,151.4 158.5,151.4 158.5,108.4 133.5,108.4
		94.5,108.4 68.5,108.4 68.5,151.4 	"/>
	<rect id="GenesOffice" x="171.2" y="394.3" class="st0" width="37.2" height="22.4"/>
	<rect id="YongsOffice" x="171.2" y="416.8" class="st0" width="37.2" height="33.5"/>
	<polygon id="Floor3AtriumC" class="st0" points="174,346.6 159,346.6 159,342.4 126.5,342.4 126.5,298.4 174,298.4 	"/>
	<polygon id="Floor3AtriumE" class="st0" points="102,342.4 56.5,342.4 56.5,303.4 73.8,303.4 73.8,298.4 102,298.4 	"/>
	<polygon id="Floor3N" class="st0" points="114.5,526.4 171.5,526.4 171.5,502.4 114.5,502.4 56.5,502.4 56.5,526.4 	"/>
	<polygon id="Floor4N" class="st0" points="342.2,526.2 399.2,526.2 399.2,502.2 342.2,502.2 284.2,502.2 284.2,526.2 	"/>
</g>
<g id="Layer_3">
	<path d="M246.3,19c0.4-0.1,0.8-0.1,1.2-0.2c0.8,0,1.6,0,2.4,0c44.3,0,88.6,0,132.9,0c16.9-0.4,33.7-0.1,50.6-0.2c0.8,0,1.6,0,2.4,0
		c0.3,0,0.6,0.2,0.9,0.3c0.1,0.4,0.2,0.7,0.2,1c0,0.6,0,1.3,0,1.9c0,167.3,0,334.5,0,501.8c0,1,0.1,2.1-0.2,3.2
		c-0.4,0.1-0.7,0.2-1.1,0.3c-0.7,0-1.4,0-2.2,0c-61.4,0-122.9,0-184.3,0c-0.9,0-1.9,0.1-2.7-0.1c-0.5-0.3-0.5-0.7-0.5-1.1
		c0-0.8,0-1.6,0-2.4c0-167,0-334,0-501.1c0-0.8,0-1.6,0-2.4C246.1,19.7,246.2,19.4,246.3,19z M247.9,344.7c1,0.4,1.9,0.2,2.7,0.2
		c10.2,0,20.5,0,30.7,0c0.7,0,1.4,0,2.2,0c0.4,0,0.7,0.2,1.2,0.3c0.2,1.1,0.1,2.1,0.1,3.2c0,57.7,0,115.3,0,173c0,0.9,0,1.8,0,2.6
		c0,0.4,0.2,0.8,0.2,1.1c1.1,0.4,2.2,0.2,3.2,0.2c35.5,0,71,0,106.5,0c0.7,0,1.4,0,2.2,0c0.4,0,0.7-0.2,1.1-0.3
		c0.2-1.1,0.2-2.2,0.2-3.2c0-166.1,0-332.1,0-498.2c0-0.7,0-1.4,0-2.2c0-0.4,0-0.8-0.5-1.3c-0.5-0.2-1.2-0.2-1.9-0.2
		c-4.1,0.1-8.2,0.2-12.2,0.2c-31.7,0-63.4,0-95,0c-0.8,0-1.6,0-2.4,0c-0.4,0-0.8,0-1.2,0.5c0,0.2-0.1,0.5-0.1,0.8c0,0.9,0,1.8,0,2.6
		c0,91.8,0,183.7,0,275.5c0,1.2,0,2.4,0,3.6c0,0.4-0.2,0.7-0.3,1c-1,0.3-1.9,0.2-2.7,0.2c-10.2,0-20.3,0-30.5,0c-0.7,0-1.4,0-2.2,0
		c-0.4,0-0.8,0.1-1.1,0.2c-0.4,0.9-0.3,1.8-0.3,2.7c0,6.7,0,13.4,0,20.2c0,4.9,0,9.8,0,14.6C247.6,343,247.4,343.9,247.9,344.7z
		 M282.9,395.7c0.1-0.4,0.3-0.7,0.3-0.9c0-15.7,0-31.3,0-47c0-0.3-0.1-0.6-0.1-0.9c-0.8-0.6-1.6-0.4-2.4-0.4c-4.7,0-9.4,0-14.1,0
		c-5.4,0-10.9,0-16.3,0c-0.8,0-1.6-0.2-2.4,0.3c-0.4,0.8-0.2,1.6-0.2,2.5c0,14.5,0,29.1,0,43.6c0,0.6,0,1.1,0,1.7
		c0,0.4,0.2,0.7,0.4,1c2.3,0.3,25,0.4,33.4,0.2C281.9,395.8,282.4,395.8,282.9,395.7z M400.1,145.5c0.9,0.3,1.8,0.2,2.7,0.2
		c9.9,0,19.8,0,29.7,0c0.6,0,1.1,0,1.7,0c0.4,0,0.7-0.2,1.2-0.3c0-0.7,0.1-1.3,0.1-2c0-1.6,0-3.2,0-4.8c0-12.7,0-25.4,0-38.1
		c0-0.6,0-1.3,0-1.9c0-0.4,0-0.8-0.6-1.2c-0.6-0.2-1.4-0.1-2.2-0.1c-10.1,0-20.1,0-30.2,0c-0.5,0-1,0-1.4,0s-0.7,0.2-1.1,0.3
		c-0.3,1-0.2,1.8-0.2,2.7c0,11.1,0,22.2,0,33.3c0,3.2,0,6.4,0,9.6C399.8,143.9,399.6,144.7,400.1,145.5z M399.8,20.6
		c0,0.9,0,1.7,0,2.5c0,12,0,24,0,35.9c0,0.5,0,1,0,1.4s0,0.8,0.5,1.2c0.7,0.3,1.5,0.2,2.4,0.2c10,0,20,0,30,0c0.6,0,1.1,0,1.7,0
		c0.4,0,0.7-0.2,1.1-0.4c0-0.9,0-1.8,0-2.7c0-11.8,0-23.6,0-35.5c0-0.6,0-1.1,0-1.7c0-0.4-0.1-0.8-0.2-1c-0.9-0.5-1.7-0.3-2.5-0.3
		c-10.1,0-20.3,0-30.4,0c-0.6,0-1.1,0-1.7,0.1C400.5,20.3,400.3,20.4,399.8,20.6z M247.9,20.5c-0.5,1.2-0.3,2.1-0.3,3.1
		c0,11.7,0,23.3,0,35c0,0.6,0,1.3,0,1.9c0,0.4,0,0.8,0.5,1.2c0.7,0.3,1.6,0.1,2.4,0.1c9.9,0,19.8,0,29.7,0c0.6,0,1.1,0,1.7,0
		c0.4,0,0.8-0.1,1.1-0.5c0.3-0.8,0.1-1.7,0.1-2.5c0-11.8,0-23.7,0-35.5c0-0.6,0-1.1,0-1.7c0-0.3-0.1-0.6-0.2-0.8
		c-0.2-0.1-0.4-0.3-0.5-0.3c-10.8,0-21.6-0.1-32.4-0.1C249.5,20.4,248.8,20.4,247.9,20.5z M400.1,304.3c-0.5,1-0.3,1.9-0.3,2.8
		c0,11.8,0,23.7,0,35.5c0,0.6,0,1.1,0,1.7c0,0.4,0.2,0.7,0.3,1.1c1,0.4,2,0.3,2.9,0.3c9.8,0,19.5,0,29.2,0c0.6,0,1.3,0,1.9,0
		c0.4,0,0.8,0,1.2-0.6c0.2-0.7,0.1-1.5,0.1-2.4c0-11.9,0-23.8,0-35.7c0-0.5,0-1,0-1.4s0-0.8-0.4-1.1c-0.1,0-0.4-0.2-0.6-0.2
		c-11.1,0-22.2,0-33.3,0C400.8,304.1,400.5,304.2,400.1,304.3z M283.1,525.2c0-0.8,0.1-1.5,0.1-2.3c0-11.6,0-23.2,0-34.7
		c0-0.5,0-1,0-1.4s-0.2-0.7-0.3-1.1c-1-0.4-1.8-0.3-2.7-0.3c-9.9,0-19.8,0-29.7,0c-0.6,0-1.1,0-1.7,0c-0.4,0-0.7,0.2-1.1,0.3
		c-0.3,0.9-0.2,1.7-0.2,2.5c0,11.5,0,23,0,34.5c0,0.5,0,1,0,1.4c0,0.4,0,0.8,0.5,1.2c0.2,0,0.5,0.1,0.8,0.1c11.1,0,22.2,0,33.3,0
		C282.4,525.5,282.7,525.3,283.1,525.2z M400,485.6c-0.4,1.1-0.3,2.1-0.3,3c0,11.2,0,22.4,0,33.6c0,0.6,0,1.3,0,1.9
		c0,0.4,0,0.8,0.5,1.2c0.7,0.2,1.6,0.1,2.4,0.1c9.9,0,19.8,0,29.8,0c0.6,0,1.1,0,1.7,0c0.4,0,0.8,0,1.2-0.5c0.3-0.7,0.1-1.6,0.1-2.4
		c0-11.4,0-22.9,0-34.3c0-0.5,0-1,0-1.4s0-0.8-0.4-1.1c-0.2,0-0.4-0.2-0.6-0.2c-11.1,0-22.2,0-33.4,0
		C400.8,485.5,400.5,485.6,400,485.6z M435.3,347.4c-1-0.4-1.9-0.3-2.7-0.3c-9.9,0-19.8,0-29.8,0c-0.6,0-1.1,0-1.7,0
		c-0.4,0-0.8,0-1.2,0.5c-0.3,0.7-0.1,1.6-0.2,2.5c0,9.5,0,19,0,28.6c0,0.6,0,1.1,0,1.7c0,0.4,0.2,0.7,0.2,1.1
		c0.9,0.4,1.8,0.2,2.7,0.2c9.9,0,19.8,0,29.8,0c0.6,0,1.3,0,1.9,0c0.3,0,0.6-0.2,1-0.3c0.1-0.6,0.1-1.1,0.2-1.7
		C435.7,366.5,435.6,349.8,435.3,347.4z M435.4,302c0.2-1.3,0.1-2.6,0.1-3.9c0-8.9,0-17.8,0-26.6c0-0.7,0-1.4,0-2.2
		c0-0.4-0.2-0.7-0.3-1.1c-0.9-0.3-1.7-0.2-2.5-0.2c-10.1,0-20.2,0-30.2,0c-0.5,0-1,0-1.4,0s-0.7,0.2-1,0.3c-0.4,0.9-0.3,1.7-0.3,2.5
		c0,9.6,0,19.2,0,28.8c0,0.5,0,1,0,1.4s0.2,0.7,0.3,1.2c0.8,0,1.5,0.1,2.2,0.1c2.9,0,5.8,0,8.6,0c7.2,0,14.4,0,21.6,0
		C433.4,302.3,434.3,302.5,435.4,302z M400.1,417.3c-0.4,0.9-0.3,1.7-0.3,2.5c0,9.2,0,18.4,0,27.6c0,0.5,0,1,0,1.4s0.1,0.8,0.5,1.1
		c0.8,0.3,1.7,0.1,2.6,0.1c9.8,0,19.7,0,29.5,0c0.6,0,1.3,0,1.9,0c0.3,0,0.6-0.1,0.9-0.2c0.4-0.9,0.3-1.8,0.3-2.6
		c0-9.1,0-18.2,0-27.4c0-0.5,0-1,0-1.4s0-0.8-0.4-1.1c-0.1,0-0.4-0.2-0.6-0.2c-11.2,0-22.4,0-33.6,0
		C400.6,417.1,400.4,417.2,400.1,417.3z M400,232.2c0.9,0.5,1.8,0.3,2.7,0.3c9.4,0,18.7,0,28.1,0c1.1,0,2.2,0,3.4,0
		c0.4,0,0.8-0.1,1-0.2c0.5-0.8,0.4-1.5,0.4-2.2c0-8.9,0-17.9,0-26.8c0-0.7,0-1.4,0-2.2c0-0.4-0.1-0.8-0.2-1.1
		c-0.8-0.5-1.7-0.4-2.4-0.4c-10.1,0-20.3,0-30.4,0c-0.5,0-1,0-1.4,0c-0.3,0-0.6,0.1-0.9,0.2c-0.5,0.9-0.3,1.8-0.3,2.6
		c0,8.6,0,17.3,0,25.9c0,0.9,0,1.8,0,2.6C399.8,231.4,399.9,231.8,400,232.2z M435,234c-0.8,0-1.7,0-2.6,0c-9.6,0-19.2,0-28.8,0
		c-0.8,0-1.6,0-2.4,0c-0.4,0-0.8,0-1.3,0.4c-0.3,0.7-0.2,1.5-0.2,2.4c0,8.9,0,17.7,0,26.6c0,0.6,0,1.1,0,1.7c0,0.4,0,0.8,0.5,1.2
		c0.7,0.3,1.6,0.2,2.4,0.2c9.9,0,19.8,0,29.7,0c0.6,0,1.3,0,1.9,0c0.3,0,0.6-0.2,1-0.3c0-0.7,0.1-1.3,0.1-1.9c0-5.9,0-11.8,0-17.7
		c0-3.4,0-6.9,0-10.3C435.5,235.5,435.6,234.9,435,234z M435.3,451.9c-0.3-0.1-0.5-0.3-0.8-0.3c-0.6-0.1-1.3,0-1.9,0
		c-9.9,0-19.8,0-29.7,0c-0.6,0-1.3,0-1.9,0c-0.3,0-0.6,0.2-0.8,0.2c-0.4,0.9-0.3,1.8-0.3,2.7c0,8.8,0,17.6,0,26.4c0,0.6,0,1.1,0,1.7
		c0,0.4,0,0.8,0.5,1.2c0.7,0.3,1.6,0.2,2.4,0.2c9.9,0,19.8,0,29.7,0c0.6,0,1.3,0,1.9,0c0.3,0,0.6-0.2,0.9-0.3
		c0.4-1.9,0.2-3.7,0.2-5.5C435.7,464,435.6,453.8,435.3,451.9z M400.1,415.4c0.9,0,1.7,0.1,2.5,0.1c10,0,20,0,30,0
		c0.6,0,1.1,0,1.7,0c0.4,0,0.7-0.2,1.1-0.3c0.1-0.4,0.1-0.7,0.1-1c0-9.8,0-19.7,0-29.5c0-0.4,0-0.8-0.5-1.2
		c-0.7-0.3-1.6-0.2-2.4-0.2c-9.9,0-19.8,0-29.8,0c-0.6,0-1.1,0-1.7,0c-0.4,0-0.7,0.2-1.1,0.3c-0.1,0.4-0.2,0.7-0.2,1
		c0,0.6,0,1.1,0,1.7c0,8.8,0,17.6,0,26.4C399.8,413.4,399.6,414.3,400.1,415.4z M283.1,63.7c-0.4-0.1-0.7-0.2-1-0.3
		c-0.6,0-1.3,0-1.9,0c-9.8,0-19.7,0-29.5,0c-0.6,0-1.1,0-1.7,0c-0.4,0-0.8,0-1.2,0.5c-0.2,0.7-0.1,1.5-0.1,2.4c0,8.9,0,17.7,0,26.6
		c0,0.6,0,1.1,0,1.7c0,0.4,0.2,0.7,0.3,1c1,0.3,1.9,0.2,2.7,0.2c9.8,0,19.7,0,29.5,0c0.6,0,1.3,0,1.9,0c0.3,0,0.6-0.2,0.9-0.2
		c0.1-0.4,0.2-0.7,0.2-1C283.4,91.4,283.3,65.6,283.1,63.7z M435,95.6c0.5-0.5,0.5-0.9,0.5-1.3c0-1.1,0-2.2,0-3.4c0-8,0-16,0-24
		c0-0.7,0-1.4,0-2.2c0-0.4-0.2-0.7-0.2-1.1c-1-0.5-1.8-0.3-2.7-0.3c-9.9,0-19.8,0-29.8,0c-0.6,0-1.1,0-1.7,0c-0.4,0-0.8,0-1.2,0.5
		c-0.3,0.7-0.2,1.6-0.2,2.5c0,8.8,0,17.6,0,26.4c0,0.6,0,1.1,0,1.7c0,0.4,0.1,0.8,0.6,1.1c0.4,0,1,0.1,1.5,0.1
		C414.5,95.9,432.6,95.9,435,95.6z M400,197.8c1.1,0.4,2,0.3,2.9,0.3c9.8,0,19.7,0,29.5,0c0.6,0,1.3,0,1.9,0c0.4,0,0.7-0.2,1-0.3
		c0.3-1,0.2-1.9,0.2-2.7c0-8.8,0-17.6,0-26.4c0-0.6,0-1.1,0-1.7c0-0.4-0.2-0.7-0.2-1.1c-1-0.4-2-0.3-2.9-0.3c-9.7,0-19.5,0-29.2,0
		c-0.6,0-1.3,0-1.9,0c-0.4,0-0.8,0-1.2,0.5c-0.2,0.7-0.1,1.5-0.1,2.4c0,7.8,0,15.7,0,23.5c0,1.4,0,2.9,0,4.3
		C399.8,196.9,399.9,197.3,400,197.8z M282.9,279.4c-0.6-0.1-1.1-0.1-1.6-0.1c-10.6,0-21.1,0-31.7,0c-0.4,0-0.8,0-1.2,0.1
		c-0.2,0-0.4,0.2-0.7,0.3c-0.1,0.3-0.2,0.6-0.2,0.9c0,7.2,0,14.4,0,21.6c0,0.2,0.1,0.4,0.2,0.7c0.8,0.5,1.7,0.3,2.6,0.3
		c10,0,20,0,30,0c0.5,0,1,0,1.4,0s0.8-0.2,1.1-0.2c0.1-0.3,0.2-0.6,0.2-0.8c0-7.3,0-14.5,0-21.8C283.2,280,283.1,279.8,282.9,279.4z
		 M283.1,440.5c-1-0.5-1.9-0.3-2.8-0.3c-9.9,0-19.8,0-29.7,0c-0.6,0-1.3,0-1.9,0c-0.3,0-0.6,0.2-0.9,0.2c-0.4,0.8-0.3,1.6-0.3,2.4
		c0,4.9,0,9.9,0,14.8c0,0.8,0,1.6,0,2.4c0,0.4,0,0.8,0.6,1.2c0.5,0,1.1,0.1,1.7,0.1c10.3,0,20.6,0,30.9,0c0.4,0,0.8,0,1.2,0
		c0.4-0.1,0.7-0.2,1.1-0.3c0.1-0.3,0.2-0.6,0.2-0.8c0-6.2,0-12.5,0-18.7C283.2,441.2,283.2,440.9,283.1,440.5z M283.1,211.3
		c-1.1-0.4-2-0.3-2.9-0.3c-9.8,0-19.7,0-29.5,0c-0.6,0-1.1,0-1.7,0c-0.4,0-0.8,0.1-1.1,0.2c-0.6,0.8-0.4,1.7-0.4,2.4
		c0,4.7,0,9.4,0,14.1c0,1.1,0,2.2,0,3.4c0,0.4,0.1,0.7,0.2,1.1c0.9,0.4,1.8,0.3,2.7,0.3c9.9,0,19.8,0,29.7,0c0.6,0,1.1,0,1.7,0
		c0.4,0,0.7-0.2,1.1-0.2c0.3-1.8,0.4-7.2,0.3-19C283.2,212.6,283.1,212,283.1,211.3z M248,438.5c0.9,0,1.8,0.1,2.6,0.1
		c9.8,0,19.6,0,29.5,0c0.6,0,1.3,0,1.9,0c0.4,0,0.7-0.2,1.1-0.4c0-0.5,0.1-0.9,0.1-1.3c0-6.2,0-12.5,0-18.7c0-0.2-0.1-0.5-0.2-0.8
		c-0.3-0.1-0.6-0.3-0.8-0.3c-0.6-0.1-1.3,0-1.9,0c-9.9,0-19.8,0-29.7,0c-0.6,0-1.1,0-1.7,0c-0.4,0-0.7,0.2-1.1,0.3
		c-0.1,0.5-0.2,0.9-0.2,1.3c0,6.4,0,12.8,0.1,19.2C247.7,438,247.8,438.1,248,438.5z M283.1,118.7c0-0.9,0.1-1.5,0.1-2.2
		c0-2,0-4,0-6c0-3.7,0-7.3,0-11c0-0.6,0.1-1.3-0.4-1.9c-0.7-0.3-1.6-0.2-2.5-0.2c-9.9,0-19.8,0-29.7,0c-0.6,0-1.1,0-1.7,0
		c-0.4,0-0.7,0.2-1.2,0.3c-0.1,0.7-0.1,1.3-0.1,1.9c0,5.7,0,11.3,0,17c0,0.3,0,0.6,0,1s0.1,0.8,0.5,1.1c0.8,0.3,1.7,0.1,2.5,0.1
		c8.1,0,16.1,0,24.2,0c2.2,0,4.3,0,6.5,0C281.9,118.9,282.4,118.8,283.1,118.7z M247.8,141.1c1.1,0.4,2,0.3,2.9,0.3
		c9.8,0,19.6,0,29.5,0c0.6,0,1.3,0,1.9,0c0.4,0,0.7-0.2,1.1-0.3c0-0.6,0.1-1,0.1-1.5c0-1.4,0-2.7,0-4.1c0-4.3,0-8.6,0-12.9
		c0-0.6,0.2-1.3-0.4-1.9c-0.7-0.3-1.6-0.2-2.5-0.2c-9.9,0-19.8,0-29.7,0c-0.6,0-1.1,0-1.7,0c-0.4,0-0.7,0.2-1.1,0.3
		c-0.4,1.9-0.4,7-0.3,18.5C247.6,139.8,247.7,140.4,247.8,141.1z M283.1,188.7c-0.8-0.6-1.7-0.4-2.4-0.4c-10.1,0-20.3,0-30.4,0
		c-0.4,0-0.8,0-1.2,0s-0.8,0-1.2,0.4c0,0.1-0.2,0.4-0.2,0.6c0,6.4,0,12.8,0,19.2c0,0.2,0.1,0.4,0.2,0.7c0.7,0.4,1.6,0.3,2.3,0.3
		c10.1,0,20.3,0,30.4,0c0.6,0,1.1,0,1.7-0.1c0.2,0,0.4-0.2,0.7-0.3c0.1-0.3,0.2-0.6,0.2-0.9C283.4,205.2,283.3,190.3,283.1,188.7z
		 M282.7,277.6c0.6-0.7,0.5-1.2,0.5-1.6c0.2-7.9,0.1-17-0.2-19c-0.3-0.1-0.5-0.2-0.8-0.3c-0.6-0.1-1.3,0-1.9,0c-9.9,0-19.8,0-29.7,0
		c-0.6,0-1.1,0-1.7,0c-0.4,0-0.7,0.2-1.1,0.3c-0.1,0.4-0.2,0.7-0.2,1c0,6.1,0,12.1,0,18.2c0,0.1,0,0.2,0,0.2c0.1,0.4,0.3,0.7,0.4,1
		c2.3,0.3,17.2,0.4,32.9,0.2C281.5,277.7,282.2,277.7,282.7,277.6z M247.8,483.6c0.8,0.5,1.7,0.3,2.6,0.3c10,0,20,0,29.9,0
		c0.6,0,1.1,0,1.7,0c0.4,0,0.8-0.1,1.1-0.6c0-0.6,0.1-1.3,0.1-2c0-2.7,0-5.4,0-8.1c0-2.8,0-5.6,0-8.4c0-0.5,0.1-1.1-0.4-1.6
		c-0.8-0.4-1.7-0.2-2.5-0.2c-9.9,0-19.8,0-29.7,0c-0.6,0-1.1,0-1.7,0c-0.4,0-0.7,0.2-1.1,0.3c-0.1,0.5-0.2,0.9-0.2,1.3
		c0,6.1,0,12.3,0,18.4C247.6,483.1,247.8,483.4,247.8,483.6z M283,234.2c-1-0.3-1.8-0.2-2.6-0.2c-10,0-20,0-30,0c-0.5,0-1,0-1.4,0
		s-0.8,0.1-1.1,0.2c-0.4,0.8-0.3,1.7-0.3,2.4c0,5.2,0,10.4,0,15.6c0,0.6,0,1.1,0,1.7c0,0.4,0.1,0.8,0.6,1.2c0.7,0.2,1.6,0.1,2.4,0.1
		c9.8,0,19.7,0,29.5,0c0.6,0,1.3,0,1.9,0c0.4,0,0.7-0.2,1-0.3c0.2-1.7,0.3-16.5,0.2-19.5C283.2,235,283.1,234.7,283,234.2z
		 M283.1,186.4c0-0.9,0.1-1.6,0.1-2.3c0-3,0-6.1,0-9.1c0-2.6,0-5.1,0-7.7c0-0.5-0.2-0.9-0.2-1.3c-1-0.5-1.8-0.3-2.7-0.3
		c-9.9,0-19.8,0-29.7,0c-0.6,0-1.1,0-1.7,0c-0.4,0-0.7,0.2-1,0.3c-0.4,0.9-0.2,1.7-0.2,2.5c0,4.4,0,8.8,0,13.2c0,1.2,0,2.4,0,3.6
		c0,0.4,0,0.8,0.5,1.2c0.7,0.3,1.6,0.2,2.4,0.2c9.9,0,19.8,0,29.7,0c0.6,0,1.1,0,1.7,0C282.3,186.6,282.6,186.5,283.1,186.4z
		 M283.1,163.8c0-0.9,0.1-1.6,0.1-2.3c0-3.4,0-6.7,0-10.1c0-2.2,0-4.5,0-6.7c0-0.5-0.2-0.9-0.3-1.3c-0.8-0.4-1.5-0.3-2.3-0.3
		c-10.2,0-20.5,0-30.7,0c-0.4,0-0.8,0-1.2,0c-0.4,0.1-0.7,0.2-1.1,0.3c-0.3,0.9-0.2,1.7-0.2,2.5c0,4.9,0,9.7,0,14.6
		c0,0.7,0,1.4,0,2.2c0,0.4,0.2,0.7,0.3,1c1,0.4,1.9,0.3,2.7,0.3c9.9,0,19.8,0,29.7,0c0.6,0,1.1,0,1.7,0
		C282.3,164.1,282.6,164,283.1,163.8z M247.8,397.7c-0.3,0.9-0.2,1.7-0.2,2.5c0,3.8,0,7.5,0,11.3c0,1,0,1.9,0,2.9
		c0,0.4,0.2,0.7,0.3,1c1,0.4,1.9,0.2,2.7,0.2c9.8,0,19.7,0,29.5,0c0.6,0,1.3,0,1.9,0c0.4,0,0.7-0.2,1-0.3c0.1-0.3,0.1-0.4,0.1-0.6
		c0-5.4,0-10.7,0-16.1c0-0.3-0.2-0.6-0.3-1c-0.6-0.1-1.2-0.2-1.7-0.2c-2.3,0-4.6,0-7,0c-7.9,0-15.8,0-23.7,0
		C249.7,397.4,248.8,397.2,247.8,397.7z M435.3,163.8c0.1-0.4,0.2-0.6,0.2-0.8c0-4.9,0-9.7,0-14.6c0-0.3-0.2-0.6-0.3-1
		c-0.6-0.1-1.2-0.1-1.7-0.1c-10.5,0-21.1,0-31.6,0c-0.4,0-0.8,0-1.2,0.1c-0.2,0-0.4,0.2-0.6,0.2c-0.4,0.6-0.3,1.3-0.3,1.9
		c0,3.4,0,6.9,0,10.3c0,1,0,2.1,0,3.1c0,0.4,0.2,0.7,0.3,1c0.9,0.3,1.7,0.2,2.5,0.2c4.2,0,8.3,0,12.5,0c5.8,0,11.7,0,17.5,0
		C433.4,164.1,434.3,164.2,435.3,163.8z"/>
	<path d="M17.8,18.8c0.3-0.1,0.6-0.2,0.9-0.2c0.5,0,1,0,1.4,0c0.7,0,1.4,0,2.2,0c60,0,120,0.1,180,0.1c1.7,0,3.4,0,5,0.1
		c0.5,0,0.9,0.1,1.5,0.2c0.1,0.5,0.2,0.8,0.2,1.2c0,0.7,0,1.4,0,2.2c0,167.3,0,334.5,0,501.8c0,1,0.2,2.1-0.1,2.9
		c-0.4,0.5-0.8,0.5-1.2,0.5c-0.7,0-1.4,0-2.2,0c-61.5,0-123,0-184.5,0c-1,0-2.1,0.1-2.9-0.1c-0.5-0.5-0.5-0.9-0.5-1.3
		c0-0.6,0-1.3,0-1.9c0-167.4,0-334.8,0-502.2C17.7,20.9,17.5,19.8,17.8,18.8z M207.2,299.3c-0.4-0.1-0.7-0.2-1.1-0.2
		c-1.3,0-2.6-0.1-3.8-0.1c-8.4,0-16.8,0-25.2,0c-0.8,0-1.6,0-2.4,0c-0.3,0-0.6-0.2-0.9-0.3c0-0.4,0.1-0.6,0.1-0.9
		c0.9-0.5,1.7-0.3,2.5-0.3c9.6,0,19.2,0,28.8,0c0.7,0,1.4,0.1,2.1-0.3c0.6-0.8,0.3-1.7,0.3-2.5c0-18.7,0-37.4,0-56.2
		c0-0.6,0-1.1,0-1.7c0-0.4-0.2-0.7-0.3-1.2c-0.7,0-1.3-0.1-2-0.1c-0.9,0-1.8,0-2.6,0c-9.8,0-19.5,0-29.3,0c-0.6,0-1.1,0-1.7,0
		c-0.4,0-0.8-0.1-1.1-0.6c-0.3-0.9-0.1-2-0.1-3c0-69.5,0-139,0-208.5c0-0.7,0-1.4,0-2.2c0-0.4-0.1-0.8-0.5-1.1
		c-0.9-0.3-1.9-0.1-3-0.1c-35.4,0-70.9,0-106.3,0c-0.7,0-1.4,0-2.2,0c-0.4,0-0.8,0-1.3,0.5c-0.3,0.8-0.1,1.9-0.1,2.9
		c0,79.8,0,159.7,0,239.5c0,0.7,0,1.4,0,2.2c0,0.4,0.2,0.7,0.2,1.1c1,0.5,1.8,0.3,2.7,0.3c10.3,0,20.6,0,31,0c0.7,0,1.4,0,2.2,0
		c0.4,0,0.7,0.2,1.1,0.4c0,1,0,1.8,0,2.7c0,8.2,0,16.5,0,24.7c0,0.6,0,1.3,0,1.9c0,0.4,0.2,0.7,0.4,1.2c1,0,1.8,0,2.7,0
		c5.8,0,11.5,0,17.3,0c0.7,0,1.4-0.2,2.1,0.3c0.1,0.2,0.2,0.3,0.2,0.4c0,0.1-0.1,0.3-0.1,0.5c-0.3,0.1-0.5,0.2-0.9,0.2
		c-0.8,0-1.6,0-2.4,0c-11.8,0-23.7,0-35.5,0c-0.7,0-1.4,0-2.2,0c-0.3,0-0.6,0.1-1,0.2c-0.1,0.4-0.2,0.8-0.2,1.2c0,0.8,0,1.6,0,2.4
		c0,0.4-0.2,0.7-0.2,1c-0.9,0.4-1.7,0.3-2.5,0.3c-4.2,0-8.5,0-12.7,0c-0.6,0-1.3-0.1-1.8,0.3c-0.1,0.1-0.2,0.3-0.2,0.4
		c0,73-0.1,146.1-0.1,219.1c0,0.5,0.1,0.9,0.1,1.5c0.3,0.1,0.6,0.3,0.9,0.3c0.7,0.1,1.4,0,2.2,0c35.7,0,71.4,0,107,0
		c0.6,0,1.3,0,1.9,0c0.4,0,0.8-0.1,1.1-0.6c0.2-0.9,0.1-1.9,0.1-2.9c0-57.6,0-115.2,0-172.8c0-0.8,0-1.6,0-2.4
		c0-0.3,0.1-0.6,0.2-0.9c0.9-0.5,1.8-0.3,2.6-0.3c10.2,0,20.5,0,30.7,0c0.7,0,1.4,0,2.2,0c0.4,0,0.8,0,1.1-0.3
		c0.4-0.5,0.3-1.1,0.3-1.6c0-14.2,0-28.5,0-42.7c0-0.4,0-0.8-0.1-1.2C207.5,299.8,207.4,299.6,207.2,299.3z M207.5,94.5
		c-0.6-0.1-1-0.2-1.4-0.2c-1.2,0-2.4-0.1-3.6-0.1c-9.2,0-18.4,0-27.6,0c-0.6,0-1.1,0-1.7,0c-0.4,0-0.8,0.1-1.1,0.6
		c-0.3,0.8-0.1,1.8-0.1,2.7c0,14.9,0,29.8,0,44.6c0,0.7,0,1.4,0,2.2c0,0.4,0.2,0.7,0.3,1c1,0.4,1.9,0.2,2.7,0.2c6.6,0,13.1,0,19.7,0
		c3.6,0,7.2,0.1,10.8,0.1c0.6,0,1.3,0.1,1.8-0.4c0.1-0.2,0.2-0.3,0.2-0.4c0-16.2,0.1-32.3,0.1-48.5
		C207.6,95.8,207.5,95.3,207.5,94.5z M55.6,396.3c0.1-0.4,0.3-0.7,0.3-1c0-0.6,0-1.3,0-1.9c0-14.5,0-28.9,0-43.4c0-0.7,0-1.4,0-2.2
		c0-0.4-0.1-0.8-0.2-1.1c-0.9-0.5-1.8-0.3-2.7-0.3c-10.2,0-20.5,0-30.7,0c-0.6,0-1.3,0-1.9,0c-0.3,0-0.6,0.2-0.9,0.2
		c-0.4,1-0.2,1.9-0.2,2.9c0,14.5,0,29.1,0,43.6c0,0.6,0,1.3,0,1.9c0,0.4,0.2,0.7,0.3,1.1c2.2,0.3,20,0.5,34.4,0.2
		C54.3,396.4,55,396.3,55.6,396.3z M19.6,302.3c0.9,0.4,1.8,0.2,2.7,0.2c10.5,0,21.1,0,31.6,0c0.8,0,1.6,0,2.4,0
		c5.1,0,10.2,0.1,15.3,0.1c0.4,0,0.8,0,1.3-0.5c0.2-0.6,0.1-1.5,0.1-2.4c0-9.5,0-19,0-28.5c0-0.6,0-1.1,0-1.7c0-0.4-0.2-0.7-0.2-1.1
		c-0.9-0.4-1.8-0.3-2.7-0.3c-7.7,0-15.3,0-23,0.1c-8.1,0-16.3,0-24.4,0c-0.7,0-1.4,0-2.2,0c-0.4,0-0.8,0.1-1.1,0.6
		c0,0.3-0.1,0.8-0.1,1.3c0,10.5,0,21.1,0.1,31.6C19.3,301.9,19.3,302,19.6,302.3z M19.3,20.3c-0.3,1.1-0.2,2-0.2,2.9
		c0,11.8,0,23.7,0,35.5c0,0.6,0,1.3,0,1.9c0,0.4,0.2,0.7,0.3,1c1,0.4,1.9,0.2,2.7,0.2c9.1,0,18.2,0,27.3,0c1.5,0,3,0,4.6,0
		c0.5,0,0.9-0.1,1.4-0.2c0.1-0.4,0.2-0.7,0.2-1c0-0.6,0-1.3,0-1.9c0-11.8,0-23.7,0-35.5c0-0.6,0-1.3,0-1.9c0-0.4-0.2-0.7-0.3-1
		c-1-0.4-1.9-0.2-2.7-0.2c-9.8,0-19.5,0-29.3,0c-1,0-1.9,0-2.9,0C20.3,20.1,19.8,20.2,19.3,20.3z M172.2,20.3
		c-0.5,1-0.3,1.9-0.3,2.8c0,11.9,0,23.8,0,35.7c0,0.6,0,1.1,0,1.7c0,0.4,0.2,0.7,0.3,1.1c0.6,0.1,1.2,0.1,1.7,0.1
		c10.6,0,21.3,0.1,31.9,0.1c0.5,0,1,0.1,1.5-0.5c0.2-0.7,0.1-1.7,0.1-2.7c0-11.8,0-23.5,0-35.3c0-0.6,0-1.3,0-1.9
		c0-0.4-0.2-0.7-0.3-1.1c-0.4-0.1-0.7-0.1-1-0.1c-11,0-21.9,0-32.9-0.1C173.1,20.2,172.7,20.3,172.2,20.3z M55.7,344.6
		c0.3-1,0.2-1.9,0.2-2.7c0-11.4,0-22.9,0-34.3c0-0.7,0-1.4,0-2.2c0-0.4,0-0.8-0.5-1.1c-0.8-0.3-1.7-0.2-2.5-0.2
		c-10.2,0-20.5,0-30.7,0c-0.6,0-1.3,0-1.9,0c-0.3,0-0.6,0.2-0.8,0.3c-0.3,0.8-0.2,1.7-0.2,2.4c0,11.7,0,23.5,0,35.2c0,0.5,0,1,0,1.4
		s0.2,0.7,0.3,1.1c0.4,0.1,0.7,0.2,1,0.2c11.4,0,22.8,0,34.3,0C55.1,344.8,55.3,344.7,55.7,344.6z M55.6,486.1
		c-0.9-0.4-1.8-0.3-2.7-0.3c-10.2,0-20.5,0-30.7,0c-0.6,0-1.1,0-1.7,0c-0.4,0-0.8,0-1.2,0.4c-0.4,0.6-0.2,1.3-0.2,2
		c0,11.7,0,23.5,0,35.2c0,0.3,0,0.6,0,1c0,0.4,0,0.8,0.5,1.2c0.7,0.3,1.5,0.1,2.4,0.1c10.3,0,20.6,0,30.9,0c0.5,0,1,0,1.4,0
		s0.8,0,1.2-0.5c0.3-0.7,0.1-1.6,0.1-2.4c0-11.3,0-22.5,0-33.8c0-0.7,0-1.4,0-2.2C55.8,486.7,55.7,486.4,55.6,486.1z M172.1,525.6
		c1.1,0.5,2,0.3,2.8,0.3c9.9,0,19.8,0,29.7,0c0.6,0,1.1,0,1.7,0c0.4,0,0.7-0.2,1.1-0.3c0.3-0.9,0.2-1.7,0.2-2.5
		c0-11.4,0-22.9,0-34.3c0-0.6,0-1.3,0-1.9c0-0.3-0.2-0.6-0.3-1c-0.7,0-1.5-0.1-2.2-0.1c-1.7,0-3.4,0-5,0c-8.2,0-16.3,0-24.5,0
		c-0.7,0-1.4,0-2.2,0c-0.4,0-0.8,0-1.1,0.3c-0.1,0.1-0.2,0.3-0.2,0.4c0,12.3-0.1,24.6-0.1,36.9C172,524.2,172,524.8,172.1,525.6z
		 M19.6,233.9c-0.6,0.8-0.3,1.7-0.3,2.5c0,9,0,18.1,0,27.1c0,0.6,0,1.3,0,1.9c0,0.3,0.2,0.6,0.2,0.8c0.9,0.5,1.8,0.4,2.7,0.4
		c10.3,0,20.6,0,30.9,0c0.5,0,1,0,1.4,0s0.8-0.2,1.1-0.2c0.5-0.9,0.3-1.8,0.3-2.7c0-9,0-18.1,0-27.1c0-0.6,0-1.1,0-1.7
		c0-0.4-0.2-0.7-0.3-1.1c-0.9-0.3-1.7-0.2-2.5-0.2c-4.5,0-9,0-13.4,0c-5.8,0-11.7,0-17.5,0C21.3,233.6,20.3,233.4,19.6,233.9z
		 M19.5,95.6c0.3,0.1,0.6,0.2,0.9,0.3c0.6,0,1.3,0,1.9,0c10.2,0,20.5,0,30.7,0c0.6,0,1.1,0,1.7,0c0.4,0,0.7-0.2,1.2-0.3
		c0-0.8,0.1-1.5,0.1-2.2c0-9,0-18.1,0-27.1c0-0.6,0-1.1,0-1.7c0-0.3-0.2-0.6-0.2-0.9c-0.9-0.5-1.8-0.3-2.6-0.3
		c-10.2,0-20.5,0-30.7,0c-0.6,0-1.1,0-1.7,0c-0.4,0-0.8,0-1.2,0.4c0,0.1-0.2,0.4-0.2,0.6c0,10.2,0,20.3,0,30.5
		C19.3,95,19.3,95.3,19.5,95.6z M19.5,166.1c-0.4,0.7-0.3,1.4-0.3,2.1c0,9.2,0,18.4,0,27.6c0,0.4,0,0.8,0,1.2c0,0.3,0.1,0.6,0.2,0.9
		c0.9,0.4,1.8,0.2,2.6,0.2c10.3,0,20.6,0,30.9,0c0.5,0,1,0,1.4,0s0.8,0,1.2-0.5c0.3-0.7,0.2-1.6,0.2-2.4c0-8.7,0-17.4,0-26.1
		c0-0.6,0-1.3,0-1.9c0-0.4,0-0.8-0.4-1.2c-0.5-0.4-1.2-0.2-1.8-0.2c-10.7,0-21.4,0-32.1,0c-0.5,0-1,0-1.4,0.1
		C19.8,165.9,19.7,166.1,19.5,166.1z M172.2,451.6c-0.4,1-0.3,1.8-0.3,2.6c0,9.1,0,18.2,0,27.3c0,0.5,0,1,0,1.4s0.2,0.7,0.3,1.1
		c0.6,0.1,1.2,0.1,1.7,0.1c10.6,0,21.2,0,31.9,0c0.5,0,0.9-0.1,1.4-0.2c0.4-0.9,0.3-1.8,0.3-2.7c0-9,0-18,0-27.1c0-0.6,0-1.3,0-1.9
		c0-0.3-0.2-0.6-0.3-0.9c-0.8-0.3-1.6-0.2-2.4-0.2c-9.8,0-19.6,0-29.5,0c-0.7,0-1.4,0-2.2,0C172.9,451.4,172.6,451.5,172.2,451.6z
		 M19.5,231.8c1.1,0.4,2.1,0.3,3,0.3c10,0,20,0,30,0c0.7,0,1.4,0,2.2,0c0.3,0,0.6-0.1,0.9-0.2c0.6-0.9,0.4-1.8,0.4-2.6
		c0-8.8,0-17.6,0-26.4c0-0.6,0-1.3,0-1.9c0-0.3-0.2-0.6-0.2-0.9c-0.9-0.4-1.8-0.2-2.7-0.2c-10.2,0-20.5,0-30.7,0c-0.6,0-1.1,0-1.7,0
		c-0.4,0-0.8,0-1.2,0.4c0,0.1-0.2,0.4-0.2,0.6c0,10.1,0,20.1,0,30.2C19.3,231.2,19.3,231.4,19.5,231.8z M207.4,417.8
		c-0.8-0.6-1.5-0.4-2.2-0.4c-9.9,0-19.8,0-29.8,0c-0.7,0-1.4,0-2.2,0c-0.4,0-0.8,0.1-1.1,0.5c-0.3,0.7-0.2,1.5-0.2,2.3
		c0,9,0,17.9,0,26.9c0,0.5,0,1,0,1.4c0,0.4,0.2,0.7,0.3,1.1c1,0.4,1.8,0.2,2.7,0.2c9.4,0,18.9,0,28.3,0c1,0,1.9,0,2.9,0
		c0.4,0,0.7-0.1,1.2-0.2c0.1-0.4,0.2-0.7,0.2-1C207.7,445.9,207.6,419.3,207.4,417.8z M172.2,92.4c0.2,0.1,0.5,0.2,0.7,0.2
		c11.2,0,22.4,0.1,33.6,0.1c0.2,0,0.4-0.1,0.6-0.2c0.5-0.8,0.4-1.6,0.4-2.4c0-8.1,0-16.2,0-24.2c0-0.4,0-0.8,0-1.2
		c-0.1-0.4-0.2-0.7-0.3-1.1c-0.9-0.3-1.7-0.2-2.5-0.2c-10,0-20,0-30,0c-0.5,0-1,0-1.4,0c-0.4,0-0.8,0.1-1.1,0.2
		c-0.4,0.7-0.3,1.4-0.3,2c0,8.2,0,16.5,0,24.7c0,0.5,0,1,0.1,1.4C172.1,92,172.2,92.2,172.2,92.4z M207.2,211.3
		c-0.2-0.1-0.3-0.2-0.5-0.2c-0.6,0-1.1-0.1-1.7-0.1c-1.7,0-3.4,0.1-5,0.1c-8.4,0-16.8,0-25.2,0c-0.9,0-1.8-0.2-2.6,0.2
		c-0.5,0.7-0.3,1.5-0.4,2.3c0,6,0,12,0,18c0,0.6,0,1.1,0.1,1.7c0,0.2,0.2,0.4,0.3,0.7c0.8,0.3,1.6,0.2,2.3,0.2c9.4,0,18.8,0,28.3,0
		c1.1,0,2.2,0,3.4-0.1c0.4,0,0.8-0.1,1.2-0.6c0-0.3,0.1-0.8,0.1-1.3c0-6.4,0-12.8,0-19.2c0-0.4,0-0.8-0.1-1.2
		C207.5,211.7,207.2,211.5,207.2,211.3z M172.4,370.4c0.2,0,0.5,0.2,0.8,0.2c11.1,0,22.2,0,33.3,0c0.2,0,0.4-0.1,0.6-0.2
		c0.5-0.7,0.4-1.4,0.4-2.1c0-3.6,0-7.2,0-10.8c0-2.6,0-5.3,0-7.9c0-0.6,0.1-1.3-0.4-2c-0.5,0-1.1-0.1-1.8-0.1c-2.2,0-4.5,0-6.7,0
		c-7.9,0-15.8,0-23.7,0c-0.9,0-1.8-0.2-2.6,0.2c-0.5,0.6-0.3,1.4-0.3,2.1c0,3.5,0,7,0,10.5c0,2.7,0,5.4,0,8.1
		C172,369.1,171.9,369.8,172.4,370.4z M19.6,164c0.7,0.4,1.6,0.2,2.5,0.2c9.8,0,19.7,0,29.5,0c1,0,1.9,0,2.9,0
		c0.4,0,0.8-0.1,1.1-0.2c0.5-0.7,0.4-1.3,0.4-2c0-2,0-4,0-6c0-3.8,0-7.5,0-11.3c0-0.7,0.1-1.4-0.4-2.1c-0.8-0.4-1.7-0.2-2.6-0.2
		c-10.2,0-20.5,0-30.7,0c-0.6,0-1.1,0-1.7,0c-0.4,0-0.8,0-1.2,0.5c0,0.2-0.1,0.5-0.1,0.8c0,6.6,0,13.1,0.1,19.7
		C19.3,163.7,19.5,163.8,19.6,164z M19.5,461.6c0.5,0.1,0.9,0.2,1.3,0.2c11.4,0,22.8,0,34.3-0.1c0.1,0,0.3-0.1,0.5-0.2
		c0.1-0.4,0.2-0.8,0.2-1.3c0-1.4,0-2.7,0-4.1c0-4.5,0-8.9,0-13.4c0-0.8,0.2-1.6-0.4-2.4c-0.5-0.1-1-0.2-1.6-0.2
		c-10.9,0-21.7,0-32.6,0c-0.4,0-0.8,0-1.2,0.1c-0.2,0-0.4,0.2-0.7,0.3c-0.1,0.2-0.2,0.5-0.2,0.7c0,6.5,0,13.1,0,19.6
		C19.3,460.9,19.3,461.2,19.5,461.6z M19.3,140.8c1.1,0.4,2,0.3,2.9,0.3c10.2,0,20.3,0,30.5,0c0.6,0,1.1,0,1.7,0
		c0.4,0,0.8,0,1.3-0.5c0.1-0.3,0.1-0.7,0.1-1.2c0-1.8,0-3.5,0-5.3c0-3.9,0-7.8,0-11.8c0-0.7,0.1-1.4-0.4-2.1
		c-0.8-0.3-1.7-0.2-2.6-0.2c-10.2,0-20.5,0-30.7,0c-0.6,0-1.1,0-1.7,0c-0.4,0-0.8,0-1.1,0.4c-0.3,1.8-0.4,13.4-0.2,19.2
		C19.3,140,19.3,140.3,19.3,140.8z M55.7,118.2c0.1-0.7,0.1-1.2,0.1-1.7c0-1.2,0-2.4,0-3.6c0-4.3,0-8.6,0-13c0-0.8,0.2-1.6-0.4-2.4
		c-0.8-0.3-1.7-0.2-2.5-0.2c-10.2,0-20.5,0-30.7,0c-0.6,0-1.1,0-1.7,0c-0.4,0-0.8,0-1.2,0.4c0,0.1-0.2,0.4-0.2,0.6
		c0,6.3,0,12.6,0,19c0,0.2,0.1,0.4,0.2,0.8c0.3,0.1,0.6,0.2,0.9,0.3c0.7,0,1.4,0,2.2,0c8.5,0,17,0,25.4,0c2,0,4,0,6,0
		C54.5,118.4,55,118.3,55.7,118.2z M19.5,484.1c1,0.4,1.9,0.2,2.8,0.2c9.4,0,18.9,0,28.3,0c1.2,0,2.4,0,3.6,0c0.5,0,0.9-0.1,1.5-0.2
		c0.1-0.5,0.2-1,0.2-1.5c0-5.9,0-11.8,0-17.8c0-0.5-0.1-0.9-0.2-1.4c-0.9-0.4-1.8-0.3-2.7-0.3c-10.2,0-20.5,0-30.7,0
		c-0.6,0-1.1,0-1.7,0c-0.4,0-0.8,0-1.1,0.5c0,0.1-0.2,0.4-0.2,0.6c0,6.3,0,12.6,0,19C19.3,483.5,19.3,483.7,19.5,484.1z
		 M172.2,415.6c0.8,0.4,1.7,0.3,2.6,0.3c9.6,0,19.2,0,28.8,0c0.8,0,1.6,0,2.4,0c0.4,0,0.8-0.1,1.2-0.2c0.1-0.5,0.2-1,0.2-1.4
		c0-1.4,0-2.9,0-4.3c0-4.3,0-8.6,0-13c0-0.6,0.1-1.3-0.3-1.8c-0.6-0.4-1.4-0.3-2.1-0.3c-9.9,0-19.8,0-29.8,0c-0.7,0-1.4,0-2.2,0
		c-0.4,0-0.7,0.2-1.1,0.3c0,0.6-0.1,1.2-0.1,1.7c0,1.6,0,3.2,0,4.8c0,3.9,0,7.8,0,11.8C172,414.2,171.8,414.9,172.2,415.6z
		 M55.5,438.3c0.5-0.9,0.4-1.6,0.4-2.3c0-5.4,0-10.7,0-16.1c0-0.4,0-0.8,0-1.2c0-0.4-0.1-0.8-0.5-1.2c-0.6-0.2-1.4-0.1-2.2-0.1
		c-4,0-8,0-12,0c-6.3,0-12.6,0-18.9,0c-0.9,0-1.8-0.2-2.7,0.3c-0.1,0.4-0.2,0.8-0.2,1.3c0,5.9,0,11.8,0,17.7c0,0.5,0.2,0.9,0.2,1.3
		c0.3,0.1,0.4,0.3,0.5,0.3c11.3,0,22.7,0.1,34,0.1C54.5,438.5,55,438.4,55.5,438.3z M207.4,372.4c-0.7-0.4-1.4-0.3-2-0.3
		c-5.4,0-10.9,0-16.3,0c-4.8,0-9.6,0-14.4,0c-0.8,0-1.6-0.2-2.4,0.3c-0.4,0.6-0.3,1.4-0.3,2.1c0,5.1,0,10.2,0,15.4
		c0,0.7,0,1.4,0,2.2c0,0.4,0.2,0.7,0.3,1.1c1,0.4,1.8,0.3,2.7,0.3c9.4,0,18.9,0,28.3,0c1,0,1.9,0,2.9,0c0.4,0,0.8-0.1,1.1-0.2
		c0.4-0.8,0.3-1.7,0.3-2.4c0-4.2,0-8.3,0-12.5c0-1.4,0-2.9,0-4.3C207.6,373.3,207.4,372.9,207.4,372.4z M172.2,209.3
		c0.9,0.4,1.8,0.3,2.7,0.3c9.3,0,18.5,0,27.8,0c1.1,0,2.2,0,3.4-0.1c0.4,0,0.8-0.1,1.1-0.2c0.5-0.7,0.4-1.5,0.4-2.2
		c0-5.4,0-10.9,0-16.3c0-0.4,0-0.8,0-1.2c-0.1-0.4-0.2-0.7-0.4-1.2c-0.9,0-1.7-0.1-2.5-0.1c-9.9,0-19.8,0-29.7,0c-0.6,0-1.1,0-1.7,0
		c-0.4,0-0.7,0.2-1,0.2c-0.4,0.9-0.3,1.7-0.3,2.5c0,5.1,0,10.2,0,15.3c0,0.6,0,1.3,0,1.9C172,208.7,172.2,209,172.2,209.3z
		 M207.4,186.7c0.1-0.8,0.2-1.5,0.2-2.1c0-2.9,0-5.8,0-8.6c0-2.8,0-5.6,0-8.4c0-0.5,0.1-1.1-0.4-1.6c-0.1-0.1-0.3-0.2-0.4-0.2
		c-0.5,0-1-0.1-1.4-0.1c-1.3,0-2.6,0-3.8,0c-8.7,0-17.4,0-26.1,0c-0.7,0-1.4,0-2.2,0c-0.4,0-0.7,0.2-1,0.3c-0.1,0.3-0.2,0.4-0.2,0.6
		c0,6.3,0,12.6,0,18.9c0,0.4,0.1,0.8,0.5,1c2.3,0.3,20.9,0.4,33,0.2C206.1,186.8,206.6,186.7,207.4,186.7z M19.5,398.1
		c-0.1,0.4-0.2,0.7-0.2,1c0,5.1,0,10.2,0,15.3c0,0.4,0.2,0.8,0.2,1c0.8,0.5,1.5,0.4,2.2,0.4c10.6,0,21.2,0,31.9,0c0.3,0,0.6,0,1,0
		c0.4-0.1,0.7-0.2,1.2-0.3c0.1-0.5,0.2-0.8,0.2-1.2c0-5,0-9.9,0-14.9c0-0.5-0.2-0.9-0.3-1.4c-0.5-0.1-1-0.2-1.5-0.2
		C45.2,397.7,21.8,397.8,19.5,398.1z M172.2,164.2c0.9,0,1.7,0.1,2.5,0.1c9.4,0,18.7,0,28.1,0c1.1,0,2.2,0,3.4-0.1
		c0.4,0,0.8,0,1.2-0.6c0-0.4,0.1-1.1,0.1-1.7c0-2.6,0-5.3,0-7.9c0-1.8,0-3.5,0-5.3c0-0.5,0-1-0.6-1.4c-1.4-0.1-3-0.2-4.6-0.2
		c-9.1,0-18.2,0-27.3,0c-0.6,0-1.1,0-1.7,0c-0.4,0-0.8,0.1-1.1,0.2c-0.1,0.3-0.2,0.6-0.2,0.8c0,5,0,10.1,0,15.1
		C172,163.5,172.2,163.7,172.2,164.2z M92.6,297.2c0-0.7,0.1-1.2,0.1-1.8c0-8.1,0-16.2,0-24.2c0-0.6,0-1.1,0-1.7
		c0-0.4-0.1-0.8-0.2-1c-0.8-0.5-1.5-0.4-2.2-0.4c-4.4,0-8.8,0-13.2,0c-0.4,0-0.8,0-1.2,0c-0.4,0.1-0.7,0.2-1.1,0.4
		c0,0.7-0.1,1.3-0.1,2c0,6.8,0.1,13.6,0.1,20.4c0,0.1,0.1,0.3,0.2,0.4c0.7,0.4,1.6-0.2,2.3,0.5c-0.1,0.2-0.1,0.4-0.3,0.5
		c-0.4,0.2-0.5,0.6-0.6,1c0,0.1-0.2,0.1-0.4,0.2c-0.4,0-0.7-0.5-1.2-0.1c-0.2,1.2-0.3,2.6,0.1,3.8c0.7,0.5,1.3,0.4,2,0.4
		C86.8,297.7,90.7,297.6,92.6,297.2z"/>
	<path d="M329.1,341.6c0.5,1.9,0,3.7,0.4,5.3c0.8,0.6,1.6,0.4,2.3,0.4c5,0,10.1,0,15.1,0c1.7,0,3.4,0,5,0c0.5,0,0.9-0.1,1.4-0.2
		c0.7-1.7,0-3.6,0.6-5.3c0.4-0.1,0.7-0.2,1.1-0.2c0.6,0,1.1,0,1.7,0c9.3,0,18.6,0,27.8,0c0.9,0,1.8-0.1,2.5,0.1
		c0.5,0.4,0.4,0.8,0.5,1.2c0,0.6,0,1.3,0,1.9c0,51.4,0,102.7,0,154.1c0,1,0,2.1,0,3.2c-0.4,0.1-0.8,0.3-1.2,0.4
		c-0.7,0.1-1.4,0-2.2,0c-22.6,0-45.1,0-67.7,0c-6.1,0-12.2-0.1-18.2-0.1c-0.5,0-1.1-0.1-1.5-0.1c-0.5-0.4-0.5-0.8-0.6-1.2
		c0-0.7,0-1.4,0-2.2c0-51.4,0-102.7,0-154.1c0-1-0.1-1.9,0.2-3c0.4-0.1,0.7-0.2,1.1-0.3c0.6-0.1,1.1,0,1.7,0c9.2,0,18.4,0,27.6,0
		C327.4,341.5,328.1,341.6,329.1,341.6z M297.9,419.5c-0.1,0.4-0.2,0.6-0.2,0.8c0,26.5,0,52.9,0,79.4c0,0.2,0.1,0.5,0.2,0.6
		c0.6,0.5,1.2,0.4,1.9,0.4c5.6,0.1,11.2,0.2,16.8,0.2c22.1,0,44.1,0,66.2,0c0.7,0,1.4,0,2.2,0c0.4,0,0.7-0.2,1-0.3
		c0.4-1,0.3-1.9,0.3-2.7c0-25.1,0-50.2,0-75.3c0-0.7,0-1.4,0-2.2c0-0.4-0.2-0.7-0.4-1.1c-0.9,0-1.7,0-2.5,0c-3.2,0-6.4,0-9.6,0
		c-1.4,0-2.9,0-4.3,0c-0.4,0-0.7,0.2-1.1,0.3c0,0.6-0.1,1.2-0.1,1.7c0,0.9,0,1.8,0,2.6c0,0.4-0.2,0.7-0.3,1.1c-1,0.4-2,0.3-3,0.3
		c-15.4,0-30.9,0-46.3,0c-0.6,0-1.3,0-1.9,0c-0.4,0-0.8-0.1-1.2-0.6c0-0.3-0.1-0.8-0.1-1.2c0-1,0-1.9,0-2.9c0-0.4-0.2-0.7-0.2-1.1
		c-0.3-0.1-0.6-0.2-0.8-0.2c-5.2,0-10.4,0-15.6,0C298.5,419.2,298.3,419.4,297.9,419.5z M329.6,372.6c-0.4,1-0.3,1.8-0.3,2.6
		c0,15.3,0,30.6,0,45.8c0,0.5,0,1,0,1.4s0.2,0.7,0.2,1c0.9,0.5,1.7,0.3,2.5,0.3c4.4,0,8.8,0,13.2,0c2.2,0,4.3,0,6.5,0
		c0.5,0,1.1-0.1,1.5-0.2c0.5-0.9,0.4-1.7,0.4-2.5c0-15.4,0-30.9,0-46.3c0-0.4,0-0.8,0-1.2c0-0.3-0.1-0.6-0.2-0.8
		c-0.2-0.1-0.4-0.3-0.5-0.3c-7.4,0-14.9-0.1-22.3-0.1C330.3,372.4,330,372.5,329.6,372.6z M355.4,343.5c-0.3,0.9-0.2,1.8-0.2,2.7
		c0,8.8,0,17.6,0,26.4c0,0.6,0,1.1,0,1.7c0,0.4,0,0.8,0.6,1.2c0.7,0.2,1.5,0.1,2.4,0.1c8.2,0,16.3,0,24.5,0c0.8,0,1.6,0,2.4,0
		c0.3,0,0.6-0.2,0.8-0.2c0.5-0.9,0.3-1.8,0.3-2.7c0-8.8,0-17.6,0-26.4c0-0.6,0-1.1,0-1.7c0-0.4,0-0.8-0.5-1.1
		c-0.7-0.4-1.5-0.2-2.3-0.2c-8.5,0-17,0-25.4,0c-0.6,0-1.1,0-1.7,0C356,343.2,355.7,343.4,355.4,343.5z M366.9,417.9
		c0.4-0.1,0.9-0.2,1.4-0.2c1.5,0,3,0,4.6,0c3.7,0,7.3,0,11,0c0.7,0,1.4,0.1,2.1-0.4c0.3-0.8,0.2-1.7,0.2-2.5c0-7.4,0-14.9,0-22.3
		c0-0.6,0-1.1,0-1.7c0-0.4,0-0.8-0.5-1.3c-0.7-0.3-1.5-0.2-2.4-0.2c-8.4,0-16.8,0-25.2,0c-0.6,0-1.1,0-1.7,0c-0.4,0-0.8,0.1-1.2,0.6
		c0,0.6-0.1,1.4-0.1,2.2c0,9.6,0,19.2,0,28.7c0,0.6,0,1.1,0,1.7c0,0.3,0.1,0.6,0.2,1c0.4,0.1,0.7,0.2,1,0.2c3,0,5.9,0,8.9,0
		c0.4,0,0.7-0.2,1-0.3c0.4-1,0.2-1.8,0.3-2.7C366.6,419.8,366.3,418.8,366.9,417.9z M298,389.5c-0.4,0.9-0.3,1.8-0.3,2.7
		c0,6.8,0,13.6,0,20.4c0,1.2,0,2.4,0,3.6c0,0.4,0.1,0.8,0.2,1.1c0.8,0.5,1.5,0.4,2.2,0.4c3.6,0,7.2,0,10.8,0c1.6,0,3.2,0,4.8,0.1
		c0.4,0,0.8,0.1,1.2,0.7c0,1.2,0,2.5,0.1,3.9c0,0.5,0.2,0.9,0.3,1.3c1.5,0.3,7.3,0.4,9.4,0.2c0.3,0,0.6-0.2,0.9-0.3
		c0.1-0.3,0.2-0.5,0.2-0.7c0-10.8,0-21.6,0-32.4c0-0.2-0.1-0.4-0.2-0.6c-0.7-0.6-1.4-0.4-2.1-0.4c-8.3,0-16.6-0.1-25-0.1
		c-0.6,0-1.1,0-1.7,0C298.5,389.3,298.2,389.4,298,389.5z M297.9,362.8c0.3,0.2,0.4,0.3,0.6,0.3c9.2,0,18.4,0.1,27.5,0.1
		c0.5,0,0.9-0.1,1.5-0.2c0.1-0.5,0.3-0.9,0.3-1.4c0-5.7,0-11.5,0-17.2c0-0.3-0.1-0.6-0.2-0.8c-0.7-0.5-1.5-0.4-2.2-0.4
		c-4.5-0.1-8.9,0-13.4-0.2c-4.1-0.2-8.3,0-12.5,0c-0.5,0-1.1-0.1-1.7,0.5c0,0.2-0.1,0.6-0.1,1C297.5,349.1,297.7,360.9,297.9,362.8z
		 M353.3,349c-0.7-0.4-1.5-0.2-2.3-0.2c-6.3,0-12.6,0-18.9,0c-0.5,0-1,0-1.4,0s-0.7,0.2-1.1,0.3c-0.3,0.9-0.2,1.7-0.2,2.5
		c0,5.2,0,10.4,0,15.6c0,0.8,0,1.6,0,2.4c0,0.4,0.2,0.7,0.3,1c0.9,0.4,1.7,0.2,2.5,0.2c4.6,0,9.3,0,13.9,0c2,0,4,0,6,0
		c0.5,0,1,0.1,1.5-0.5c0-0.3,0.1-0.8,0.1-1.3c0-1.2,0-2.4,0-3.6c0-4.8,0-9.6,0-14.4C353.6,350.4,353.8,349.7,353.3,349z
		 M297.9,375.1c0.8,0.6,1.7,0.4,2.5,0.4c5.4,0,10.9,0,16.3,0c3.1,0,6.2,0,9.4,0c0.5,0,1.1,0.1,1.6-0.5c0-0.2,0.2-0.4,0.2-0.6
		c0-2.9,0-5.8,0-8.6c0-0.3-0.2-0.6-0.3-1c-0.7-0.1-1.3-0.1-1.9-0.1c-8.6,0-17.1,0-25.7,0c-0.3,0-0.6,0-1,0c-0.4,0.1-0.7,0.2-1,0.3
		C297.6,367.1,297.6,373,297.9,375.1z M312.8,377.1c-0.7,0-1.4-0.1-2.2-0.1c-2.5,0-4.9,0-7.4,0c-1.4,0-2.9,0-4.3,0
		c-0.4,0-0.7,0.2-1,0.4c-0.2,1.6-0.2,7.9-0.1,9.4c0,0.2,0.2,0.4,0.3,0.7c0.4,0.1,0.8,0.1,1.1,0.2c0.9,0,1.8,0,2.6,0
		c3.2,0,6.4,0,9.6,0c0.6,0,1.1,0,1.6-0.5c0-0.4,0.2-0.8,0.2-1.3c0-2.7-0.1-5.4-0.1-8.1C313.1,377.6,313,377.5,312.8,377.1z
		 M371,377.2c-0.4,1.7-0.5,4.9-0.3,9.2c0,0.4,0.2,0.7,0.3,1.2c0.5,0.1,0.9,0.2,1.2,0.2c0.8,0,1.6,0,2.4,0c3.3,0,6.5,0,9.8,0
		c0.5,0,1.1,0.1,1.6-0.4c0.1-0.1,0.2-0.3,0.2-0.4c0-3,0-5.9,0-8.9c0-0.3-0.2-0.6-0.3-0.8C383.8,377,373.1,377,371,377.2z
		 M355.4,377.3c-0.1,0.3-0.2,0.4-0.2,0.5c0,3,0,5.9,0,8.9c0,0.3,0.2,0.6,0.3,0.8c0.3,0.1,0.4,0.2,0.6,0.2c4,0,8,0,12,0
		c0.3,0,0.6-0.2,0.9-0.3c0.1-0.4,0.2-0.7,0.2-1c0-2.7,0-5.4,0-8.2c0-0.4-0.2-0.7-0.3-1.1c-0.5-0.1-0.9-0.1-1.3-0.1
		c-3.8,0-7.7,0-11.5,0.1C355.9,377.1,355.7,377.2,355.4,377.3z M327.5,387.4c0.4-1.5,0.5-4,0.3-8.8c0-0.5-0.2-0.9-0.3-1.4
		c-0.5-0.1-0.9-0.2-1.2-0.2c-3.7,0-7.5,0.1-11.2,0.1c-0.1,0-0.3,0.2-0.4,0.2c-0.4,1.5-0.5,4.8-0.3,9c0,0.4,0,0.8,0.5,1.2
		c0.2,0,0.6,0.1,1,0.1c3.7,0,7.5-0.1,11.2-0.1C327.2,387.6,327.4,387.5,327.5,387.4z"/>
	<path d="M387.3,285.3c-0.5,0.1-0.8,0.2-1.1,0.2c-29.6,0-59.2,0-88.8-0.1c-0.2,0-0.5-0.1-0.8-0.2c-0.1-0.3-0.3-0.7-0.3-1
		c-0.1-0.6,0-1.3,0-1.9c0-76.1,0-152.3,0-228.4c0-0.9-0.1-1.9,0.1-2.7c0.4-0.5,0.8-0.5,1.2-0.5c0.6,0,1.3,0,1.9,0
		c28.2,0,56.5,0,84.7,0c1,0,1.9-0.1,3,0.2c0.1,0.3,0.2,0.7,0.3,1.1c0,0.6,0,1.3,0,1.9c0,76.1,0,152.1,0,228.2
		C387.4,283,387.5,284.1,387.3,285.3z M385.8,52.4c-0.2-0.1-0.5-0.2-0.8-0.2c-0.6,0-1.3,0-1.9,0c-27.4,0-54.9,0-82.3,0
		c-0.6,0-1.3,0-1.9,0c-0.4,0-0.7,0.2-1.1,0.3c0,0.5-0.1,0.9-0.1,1.3c0,32,0,64,0,96c0,0.2,0.1,0.5,0.1,0.6c0.5,0.5,1.1,0.5,1.6,0.5
		c4.8,0,9.6,0,14.4-0.1c2.4,0,4.8,0,7.2,0c0.5,0,1,0,1.4,0.6c0,0.2,0.1,0.6,0.1,1c0,0.9,0,1.8,0,2.6c0,3.4,0,6.7,0,10.1
		c0,0.5-0.1,1.1,0.5,1.6c0.9,0.3,1.9,0.1,2.8,0.1c18.9,0,37.7,0,56.6,0c0.7,0,1.4,0,2.2,0c0.4,0,0.8,0,1.3-0.4
		c0-0.2,0.2-0.4,0.2-0.7c0-0.6,0-1.3,0-1.9c0-33.3,0-66.7,0-100c0-3,0-6.1,0-9.1C386.2,53.9,386.3,53.2,385.8,52.4z M385.9,283.8
		c0.5-1.1,0.3-2,0.3-3c0-22,0-44,0-66c0-0.6,0-1.3,0-1.9c0-0.4-0.2-0.7-0.2-1.1c-1-0.4-2-0.2-2.9-0.2c-22.2,0-44.3,0-66.5,0
		c-1,0-2.1,0-3.1,0c-4.7,0-9.4,0-14.2,0c-0.5,0-1,0-1.4,0.5c-0.3,0.8-0.2,1.8-0.2,2.7c0,22,0,44,0,66c0,0.6,0,1.3,0,1.9
		c0,0.4,0.2,0.7,0.3,1c0.4,0.1,0.6,0.2,0.8,0.2c28.6,0,57.3,0.1,85.9,0.1C385,284,385.4,283.9,385.9,283.8z M385.8,168.5
		c-1-0.3-1.8-0.2-2.7-0.2c-27.4,0-54.7,0-82.1,0c-0.7,0-1.4,0-2.2,0c-0.4,0-0.7,0.2-1.2,0.4c0,0.9,0,1.8,0,2.7c0,11.8,0,23.5,0,35.3
		c0,0.6,0,1.3,0,1.9c0,0.4,0,0.8,0.5,1.2c0.5,0,1.1,0.1,1.7,0.1c5.4,0,10.7,0.1,16.1,0.1c22.2,0,44.5,0,66.7,0c0.7,0,1.4,0,2.2,0
		c0.4,0,0.7-0.2,1.1-0.3c0.3-0.9,0.2-1.8,0.2-2.7c0-7.4,0-14.9,0-22.3c0-4.6,0-9.1,0-13.7C386.2,170.2,386.3,169.4,385.8,168.5z
		 M297.8,166.3c0.3,0.2,0.5,0.3,0.6,0.3c6.9,0.1,13.7,0.1,20.6,0.2c0.5,0,1.1-0.1,1.6-0.1c0.2-0.2,0.3-0.3,0.3-0.5
		c0-4.2,0.1-8.5,0.1-12.7c0-0.3-0.1-0.6-0.2-0.8c-0.8-0.5-1.6-0.3-2.4-0.3c-6.2,0-12.3,0-18.5,0.1c-0.3,0-0.6,0-1,0
		c-0.4,0.1-0.7,0.2-1,0.3c-0.1,0.3-0.2,0.4-0.2,0.6c0,3.9,0,7.8,0,11.8C297.7,165.4,297.8,165.8,297.8,166.3z"/>
	<path d="M159.4,502.4c-0.9,0.5-1.7,0.3-2.5,0.3c-5.7,0-11.4,0-17,0c-22.8,0-45.6,0-68.4,0c-1,0-2.1,0.1-3.2-0.2
		c-0.1-0.3-0.3-0.7-0.3-1.1c-0.1-0.7,0-1.4,0-2.2c0-51.6,0-103.2,0-154.8c0-1-0.2-2.1,0.2-2.9c0.5-0.5,0.9-0.5,1.3-0.5
		c0.6,0,1.1,0,1.7,0c9.4,0,18.7,0,28.1,0c0.9,0,1.8-0.2,2.7,0.3c0.7,1.8-0.1,3.8,0.5,5.7c0.3,0.1,0.7,0.2,1.1,0.3
		c0.6,0.1,1.1,0,1.7,0c6.2,0,12.5,0,18.7,0c0.8,0,1.6,0.1,2.4-0.3c0.6-1.9-0.1-3.8,0.5-5.8c0.5-0.1,1-0.2,1.4-0.2c1.2,0,2.4,0,3.6,0
		c8.3,0,16.6,0,25,0c0.9,0,1.8-0.2,2.7,0.3c0.1,0.2,0.2,0.5,0.3,0.8c0,0.7,0,1.4,0,2.2c0,51.8,0,103.5,0,155.3
		C159.6,500.6,159.7,501.6,159.4,502.4z M139.7,425.3c-1,0.5-1.9,0.3-2.7,0.3c-15.4,0-30.9,0-46.3,0c-0.6,0-1.3,0-1.9,0
		c-0.3,0-0.6-0.2-0.9-0.3c-0.7-1.9,0.2-3.9-0.6-5.6c-0.8-0.4-1.7-0.3-2.4-0.3c-4.1,0-8.2,0-12.2,0c-0.6,0-1.3,0-1.9,0
		c-0.4,0-0.7,0.2-1,0.3c-0.3,1.1-0.2,2-0.2,3c0,25,0,50.1,0,75.1c0,0.6,0,1.3,0,1.9c0,0.4,0,0.8,0.5,1.3c0.7,0.3,1.7,0.1,2.6,0.1
		c27.4,0,54.9,0,82.3,0c0.6,0,1.1,0,1.7,0c0.4,0,0.8,0,1.1-0.3c0.4-0.4,0.3-0.9,0.3-1.4c0-2.1,0-4.2,0-6.2c0-23.4,0-46.9,0-70.3
		c0-0.7,0-1.4,0-2.2c0-0.4,0-0.8-0.5-1.2c-0.2,0-0.6-0.1-1-0.1c-5,0-10.1,0-15.1,0c-0.4,0-0.8,0.1-1.2,0.2
		C139.6,421.5,140.2,423.4,139.7,425.3z M126.1,373c-0.7-0.6-1.4-0.4-2.1-0.4c-6.5,0-13.1,0-19.6,0c-0.5,0-1,0-1.4,0.1
		c-0.2,0-0.4,0.2-0.6,0.3c-0.3,0.8-0.2,1.6-0.2,2.4c0,15.3,0,30.5,0,45.8c0,0.6,0,1.1,0,1.7c0,0.4,0.2,0.7,0.3,1.1
		c0.5,0.1,0.9,0.2,1.3,0.2c7,0,14.1,0,21.1,0c0.1,0,0.2,0,0.2,0c0.4,0,0.8-0.1,1.2-0.5c0.3-0.8,0.1-1.7,0.1-2.7c0-15,0-30,0-45
		c0-0.6,0-1.3,0-1.9C126.3,373.5,126.2,373.2,126.1,373z M128.2,375.4c0.8,0.6,1.7,0.3,2.6,0.3c8.2,0,16.3,0,24.5,0
		c0.6,0,1.1,0,1.7,0c0.3,0,0.6-0.2,1-0.3c0-0.7,0.1-1.3,0.1-1.9c0-9.1,0-18.2,0-27.3c0-0.7,0-1.4,0-2.2c0-0.4-0.1-0.8-0.5-1.1
		c-0.7-0.3-1.5-0.2-2.3-0.2c-8.2,0-16.3,0-24.5,0c-0.5,0-1,0-1.4,0c-0.4,0-0.7,0.2-1.2,0.3c-0.1,0.7-0.1,1.3-0.2,2c0,2,0,4,0,6
		c0,7.3,0,14.6,0,21.8C127.9,373.6,127.8,374.5,128.2,375.4z M100.3,389.9c-0.7-0.5-1.5-0.4-2.2-0.4c-8.8,0-17.6,0-26.4,0
		c-0.3,0-0.6,0-1,0c-0.4,0.1-0.7,0.2-1.1,0.3c-0.1,0.4-0.2,0.7-0.2,1c0,8.6,0,17.1,0,25.7c0,0.4,0.2,0.7,0.2,1.1
		c0.8,0.4,1.5,0.3,2.2,0.3c3.3,0,6.6,0,9.8,0c1.9,0,3.8,0,5.8,0c0.5,0,1,0,1.4,0.6c0.2,0.7,0.1,1.6,0.1,2.4c0,0.9-0.1,1.9,0.3,2.9
		c0.3,0.1,0.6,0.2,0.9,0.2c3,0,5.9,0,8.9,0c0.4,0,0.7-0.2,1-0.3c0.4-1,0.2-1.9,0.2-2.7c0-8.9,0-17.8,0-26.6c0-1.1,0-2.2,0-3.4
		C100.4,390.6,100.3,390.2,100.3,389.9z M138.5,418.3c1-0.5,1.8-0.4,2.6-0.4c4.6,0,9.1,0,13.7,0c0.7,0,1.4,0,2.2,0
		c0.3,0,0.6-0.2,0.9-0.3c0.3-0.9,0.2-1.8,0.2-2.7c0-7,0-13.9,0-20.9c0-1,0-2.1,0-3.1c0-0.4-0.1-0.8-0.2-1.2c-0.7-0.1-1.3-0.2-2-0.2
		c-2.4,0-4.8,0-7.2,0c-5.9,0-11.8,0-17.8,0c-0.9,0-1.8-0.2-2.6,0.3c-0.5,0.6-0.3,1.4-0.3,2.1c0,9.9,0,19.8,0,29.8c0,0.3,0,0.6,0,1
		c0,0.4,0,0.8,0.4,1.2c0.1,0.1,0.4,0.2,0.6,0.2c2.8,0,5.6,0,8.4,0c0.3,0,0.6-0.2,0.8-0.3C138.6,421.9,138.1,420.1,138.5,418.3z
		 M100.1,342.9c-1-0.2-1.9-0.2-2.8-0.2c-8.3,0-16.6,0-24.9,0c-0.6,0-1.1,0-1.7,0c-0.4,0-0.7,0.2-1.1,0.3c-0.3,0.8-0.2,1.5-0.3,2.2
		c0,2.6,0,5.3,0,7.9c0,2.8,0,5.6,0,8.4c0,0.5-0.1,1.1,0.5,1.7c0.7,0.2,1.6,0.1,2.4,0.1c8.2,0,16.3,0,24.5,0c0.7,0,1.4,0,2.2,0
		c0.4,0,0.8-0.1,1.1-0.2c0.1-0.3,0.3-0.5,0.3-0.8c0-6.2,0-12.5,0-18.7C100.4,343.5,100.3,343.2,100.1,342.9z M126.1,370.8
		c0.1-0.5,0.2-0.9,0.2-1.2c0-6.4,0-12.8,0-19.2c0-0.1,0-0.2,0-0.2c0-0.4-0.1-0.8-0.7-1.2c-0.6,0-1.4-0.1-2.2-0.1
		c-6.2,0-12.3,0-18.5,0c-0.6,0-1.1,0-1.7,0c-0.4,0-0.7,0.2-1,0.3c-0.4,0.9-0.3,1.7-0.3,2.5c0,4.8,0,9.6,0,14.4c0,1.2,0,2.4,0,3.6
		c0,0.4,0,0.8,0.6,1.2c0.2,0,0.6,0.1,1,0.1C109.3,371.2,124,371.1,126.1,370.8z M100.2,375.5c0.1-0.3,0.2-0.5,0.2-0.8
		c0-3,0-5.9,0-8.9c0-0.2-0.1-0.4-0.2-0.6c-0.7-0.5-1.4-0.3-2.1-0.3c-8.8,0-17.6,0-26.4,0c-0.3,0-0.6,0-1,0c-0.4,0.1-0.7,0.2-1.1,0.3
		c-0.3,1.5-0.4,7.6-0.2,9.7c0,0.2,0.2,0.4,0.3,0.7c0.8,0.3,1.7,0.2,2.6,0.2c7.4,0,14.7,0,22.1,0c1.4,0,2.9,0,4.3,0
		C99.3,375.7,99.7,375.6,100.2,375.5z M84.7,387.8c0.2-1.9,0.3-7.8,0.1-9.8c0-0.1-0.2-0.3-0.3-0.5c-0.2,0-0.5-0.2-0.8-0.2
		c-4.4,0-8.8,0-13.2,0c-0.3,0-0.6,0.2-0.9,0.2c-0.1,0.3-0.2,0.5-0.2,0.8c0,2.9,0,5.7,0,8.6c0,0.3,0.2,0.6,0.3,0.8
		c1.8,0.3,9.3,0.4,13.7,0.2C83.8,387.9,84.3,387.8,84.7,387.8z M142.7,377.5c-0.2,1.9-0.3,8-0.1,9.8c0,0.1,0.2,0.3,0.3,0.5
		c0.3,0,0.7,0.2,1.1,0.2c4.2,0,8.5,0,12.7,0c0.4,0,0.7-0.2,1.1-0.3c0.1-0.3,0.2-0.6,0.2-0.8c0-2.9,0-5.8,0-8.6
		c0-0.3-0.2-0.6-0.3-0.8c-1.7-0.2-10.8-0.4-14-0.2C143.4,377.3,143.1,377.4,142.7,377.5z M100.2,387.8c0.1-0.4,0.2-0.5,0.2-0.7
		c0-3,0-5.9,0-8.9c0-0.3-0.2-0.6-0.3-0.8c-1.8-0.2-8.2-0.3-12.1-0.2c-0.4,0-0.8,0.1-1.3,0.2c-0.1,0.5-0.2,0.9-0.3,1.4
		c-0.2,4.8-0.1,7.3,0.3,8.8c0.1,0.1,0.3,0.2,0.4,0.2c4,0,8,0.1,12,0.1C99.5,387.9,99.8,387.8,100.2,387.8z M128.3,387.8
		c0.5,0,0.8,0.1,1.2,0.1c3.4,0,6.9,0,10.3,0c0.2,0,0.5-0.1,0.8-0.2c0.1-0.3,0.3-0.6,0.3-0.9c0-2.9,0-5.8,0-8.6
		c0-0.3-0.2-0.6-0.3-0.8c-0.3-0.1-0.4-0.2-0.6-0.2c-3.7,0-7.4,0-11,0c-0.3,0-0.6,0.2-0.9,0.3c-0.1,0.5-0.2,0.8-0.2,1.2
		c0,2.8,0,5.6,0.1,8.4C128,387.3,128.2,387.5,128.3,387.8z"/>
	<path d="M68,48.7c0.5-0.1,0.7-0.3,0.9-0.3c29.8,0,59.5,0,89.3,0c0.3,0,0.6,0.1,1,0.2c0.1,0.4,0.2,0.8,0.3,1.1c0,0.7,0,1.4,0,2.2
		c0,58.5,0,116.9,0,175.4c0,0.7,0,1.4,0,2.2c0,0.3-0.2,0.6-0.3,0.9c-0.6,0.1-1.1,0.1-1.7,0.2c-1.5,0-3,0-4.6,0
		c-14.8,0-29.6,0-44.4,0c-0.8,0-1.6,0-2.4,0c-0.3,0-0.6,0.2-0.9,0.3c-0.1,0.3-0.2,0.5-0.2,0.8c0,7.2,0,14.4,0,21.6
		c0,0.2,0.1,0.5,0.2,0.8c0.3,0.1,0.7,0.2,1.1,0.3c0.7,0,1.4,0,2.2,0c7.5,0,15,0,22.6,0c0.9,0,1.8-0.1,2.6,0.1c0.5,0.4,0.5,0.8,0,1.2
		c-2.3,0.3-16.1,0.4-28,0.2c-0.6,0-1.1-0.1-1.8-0.1c-0.1-0.4-0.3-0.8-0.3-1.1c0-1,0-1.9,0-2.9c0-4.4,0-8.8,0-13.2
		c0-0.8,0.1-1.6-0.2-2.5c-0.3-0.1-0.7-0.2-1.1-0.3c-0.6-0.1-1.3,0-1.9,0c-9.3,0-18.6,0-27.8,0c-0.9,0-1.8-0.1-2.7,0.2
		c-0.1,0.3-0.3,0.7-0.3,1c-0.1,0.6,0,1.3,0,1.9c0,4.9,0,9.8,0,14.6c0,0.7,0.2,1.4-0.4,2.1c-0.3,0-0.5,0-0.9,0
		c-0.1-0.4-0.2-0.7-0.2-1c0-0.7,0-1.4,0-2.2c0-66.8,0-133.6,0-200.4C67.8,51,67.8,49.9,68,48.7z M69.8,50c-0.5,1.1-0.3,2.1-0.3,3
		c0,31.5,0,63,0,94.5c0,0.6,0,1.3,0,1.9c0,0.4,0.1,0.8,0.6,1.2c0.6,0,1.4,0.1,2.2,0.1c3.8,0,7.7,0,11.5,0c3,0,6.1,0,9.1,0
		c0.5,0,1.1-0.1,1.7,0.4c0.3,0.5,0.2,1.1,0.2,1.8c0,2.4,0,4.8,0,7.2c0,0.5,0,1,0.5,1.4c0.1,0,0.4,0.2,0.6,0.2c11.9,0,23.8,0,35.7,0
		c0.2,0,0.5-0.1,0.8-0.2c0.1-0.3,0.2-0.6,0.2-0.9c0-0.7,0-1.4,0-2.2c0-2.1,0-4.2,0-6.2c0-0.5,0-1,0.7-1.4c0.7,0,1.6,0,2.4,0
		c5.9,0,11.8,0,17.8,0c1,0,2.1,0,3.1,0c0.4,0,0.7-0.2,1.2-0.3c0.1-0.6,0.2-1,0.2-1.5c0-1.9,0-3.8,0-5.8c0-30.1,0-60.1,0-90.2
		c0-0.6,0-1.3,0-1.9c0-0.4-0.3-0.7-0.4-1c-2.1-0.2-58-0.3-85.5-0.2C71.3,50,70.7,50,69.8,50z M69.7,168.2c-0.3,1.1-0.2,2-0.2,3
		c0,19.9,0,39.8,0,59.7c0,0.6,0,1.3,0,1.9c0,0.4,0,0.8,0.5,1.2c0.7,0.2,1.5,0.1,2.4,0.1c9.4,0,18.9,0,28.3,0c0.5,0,1,0,1.4,0
		s0.8,0,1.3-0.4c0-0.2,0.1-0.6,0.2-1c0-0.8,0-1.6,0-2.4c0-0.4,0-0.8,0.5-1.2c0.8-0.3,1.7-0.1,2.7-0.1c15.8,0,31.7,0,47.5,0
		c0.8,0,1.6,0,2.4,0c0.4,0,0.7-0.2,1.1-0.3c0.1-0.6,0.1-1.2,0.1-1.7c0-2.2,0-4.3,0-6.5c0-16.4,0-32.8,0-49.2c0-0.7,0-1.4,0-2.2
		c0-0.4-0.2-0.7-0.3-1c-0.9-0.4-1.7-0.2-2.5-0.2c-3.7,0-7.4,0-11,0c-3.2,0-6.4,0-9.6,0c-0.5,0-1.1,0.1-1.7-0.4
		c-0.6-1.2,0.3-2.8-0.6-4.1c-0.9-0.3-1.8-0.2-2.7-0.2c-10.6,0-21.1,0-31.7,0c-0.6,0-1.3,0-1.9,0c-0.4,0-0.7,0.2-1,0.3
		c-0.4,1.1-0.2,2-0.2,3c0,0.4,0,0.8-0.5,1.2c-0.7,0.2-1.6,0.1-2.4,0.1c-6.5,0-13,0-19.4,0C71.5,167.9,70.6,167.7,69.7,168.2z
		 M69.7,152.5c-0.3,1.7-0.4,8.7-0.2,12.6c0,0.3,0.1,0.6,0.2,0.8c0.8,0.5,1.6,0.3,2.4,0.3c6.2,0,12.3,0,18.5,0c0.5,0,1,0,1.4,0
		c0.4-0.1,0.7-0.2,1-0.3c0.1-0.2,0.1-0.3,0.1-0.4c0-4.1,0.1-8.2,0.1-12.2c0-0.3-0.2-0.6-0.3-0.8c-0.3-0.1-0.6-0.2-0.8-0.2
		c-7.2,0-14.4,0-21.6,0C70.3,152.3,70.1,152.4,69.7,152.5z M134.4,166c1.1,0.5,2,0.3,2.9,0.3c5.9,0,11.8,0,17.7,0c0.6,0,1.1,0,1.7,0
		c0.4,0,0.8,0,1.1-0.4c0.3-1.6,0.4-8.1,0.2-12.2c0-0.4-0.1-0.8-0.2-1.2c-0.6-0.1-1.1-0.2-1.7-0.2c-2.5,0-5,0-7.4,0
		c-4.1,0-8.2,0-12.2,0c-0.6,0-1.3-0.1-1.8,0.3c-0.1,0.2-0.2,0.3-0.2,0.4c0,3.9-0.1,7.8-0.1,11.7C134.2,165.1,134.3,165.5,134.4,166z
		"/>
	<path d="M159.9,254.5c0.1,0.6,0.2,1,0.2,1.4c0,14.2-0.1,28.3-0.1,42.5c0,0.1-0.1,0.3-0.3,0.5c-0.4,0.1-0.8,0.2-1.3,0.2
		c-1.9,0-3.8,0-5.8,0c-6.6,0-13.1,0-19.7,0c-0.9,0-1.8,0.1-2.7-0.2c-0.1-0.3-0.1-0.6-0.2-0.8c0.2-0.2,0.3-0.3,0.4-0.3
		c0.9-0.1,1.8-0.1,2.6-0.1c7.6,0,15.2,0,22.8,0c0.8,0,1.6,0.2,2.3-0.4c0.1-0.2,0.2-0.4,0.2-0.7c0-13.2,0-26.4,0-39.6
		c0-0.2-0.1-0.4-0.2-0.6c-0.6-0.5-1.2-0.4-1.9-0.4c-3.9,0-7.8,0-11.8,0c-0.9,0-1.8,0-2.6,0c-0.4,0-0.8-0.1-1.2-0.1
		c-0.1-0.4-0.1-0.6-0.2-0.9c0.2-0.2,0.3-0.3,0.4-0.4c0.6-0.1,1.1-0.1,1.7-0.1c5,0,10.1,0,15.1,0
		C158.4,254.3,159.1,254.4,159.9,254.5z"/>
	<text transform="matrix(1 0 0 1 96.1111 15.0645)" class="st1 st2">3rd Floor</text>
	<text transform="matrix(1 0 0 1 314.3671 15.0643)" class="st1 st2">4th Floor</text>
	<text transform="matrix(1 0 0 1 182.912 510.6063)" class="st1 st3">3602</text>
	<text transform="matrix(1 0 0 1 182.912 470.016)" class="st1 st3">3608</text>
	<text transform="matrix(1 0 0 1 182.912 437.8129)" class="st4 st1 st3">3616</text>
	<text transform="matrix(1 0 0 1 182.912 408.9115)" class="st4 st1 st3">3622</text>
	<text transform="matrix(1 0 0 1 182.912 385.5142)" class="st1 st3">3626</text>
	<text transform="matrix(1 0 0 1 182.912 363.48)" class="st1 st3">3632</text>
	<text transform="matrix(1 0 0 1 182.912 266.2141)" class="st5"><tspan x="0" y="0" class="st4 st1 st3">3650</tspan><tspan x="0.4" y="8.4" class="st4 st1 st3">Café</tspan></text>
	<text transform="matrix(1 0 0 1 182.912 225.9806)" class="st1 st3">3658</text>
	<text transform="matrix(1 0 0 1 182.912 202.3413)" class="st1 st3">3662</text>
	<text transform="matrix(1 0 0 1 182.912 180.0643)" class="st1 st3">3666</text>
	<text transform="matrix(1 0 0 1 182.912 159.6151)" class="st1 st3">3670</text>
	<text transform="matrix(1 0 0 1 182.912 81.8383)" class="st1 st3">3686</text>
	<text transform="matrix(1 0 0 1 182.912 42.3998)" class="st1 st3">3692</text>
	<text transform="matrix(1 0 0 1 29.7452 509.6928)" class="st1 st3">3803</text>
	<text transform="matrix(1 0 0 1 29.7452 476.5669)" class="st1 st3">3809</text>
	<text transform="matrix(1 0 0 1 29.7452 452.7864)" class="st1 st3">3815</text>
	<text transform="matrix(1 0 0 1 29.7452 429.0587)" class="st1 st3">3819</text>
	<text transform="matrix(1 0 0 1 29.7452 408.912)" class="st1 st3">3823</text>
	<text transform="matrix(1 0 0 1 29.7452 313.9893)" class="st5"><tspan x="0" y="0" class="st4 st1 st3">3840</tspan><tspan x="-1.7" y="8.4" class="st4 st1 st3">Jones</tspan><tspan x="-9.8" y="16.8" class="st4 st1 st3">Conference</tspan><tspan x="-1.8" y="25.2" class="st4 st1 st3">Room</tspan></text>
	<text transform="matrix(1 0 0 1 75.8658 355.4802)" class="st1 st3">3828d</text>
	<text transform="matrix(1 0 0 1 133.8871 363.4799)" class="st1 st3">3627c</text>
	<text transform="matrix(1 0 0 1 107.0864 466.0666)" class="st5"><tspan x="0" y="0" class="st1 st3">3720</tspan><tspan x="-10.9" y="8.4" class="st1 st3">Student Lab</tspan></text>
	<text transform="matrix(1 0 0 1 76.2126 373.5303)" class="st1 st3">3828c</text>
	<text transform="matrix(1 0 0 1 37.7448 287.7304)" class="st1 st3">3850</text>
	<text transform="matrix(1 0 0 1 29.7452 254.4144)" class="st1 st3">3853</text>
	<text transform="matrix(1 0 0 1 29.7449 217.2956)" class="st1 st3">3859</text>
	<text transform="matrix(1 0 0 1 29.7452 186.8336)" class="st1 st3">3865</text>
	<text transform="matrix(1 0 0 1 29.7452 153.3304)" class="st1 st3">3871</text>
	<text transform="matrix(1 0 0 1 29.7452 132.5775)" class="st1 st3">3877</text>
	<text transform="matrix(1 0 0 1 29.7452 109.8719)" class="st1 st3">3883</text>
	<text transform="matrix(1 0 0 1 29.7452 80.7723)" class="st1 st3">3887</text>
	<text transform="matrix(1 0 0 1 29.7452 41.3995)" class="st1 st3">3893</text>
	<text transform="matrix(1 0 0 1 106.1448 88.5053)" class="st5"><tspan x="0" y="0" class="st4 st1 st3">3780</tspan><tspan x="-28.5" y="8.4" class="st4 st1 st3">Evans Conference Room</tspan></text>
	<text transform="matrix(1 0 0 1 74.9422 161.8106)" class="st1 st3">3872</text>
	<text transform="matrix(1 0 0 1 137.3945 161.8105)" class="st1 st3">3760a</text>
	<text transform="matrix(1 0 0 1 106.1446 195.9858)" class="st5"><tspan x="0" y="0" class="st1 st3">3760</tspan><tspan x="-10.9" y="8.4" class="st1 st3">Student Lab</tspan></text>
	<text transform="matrix(1 0 0 1 117.7418 274.9335)" class="st5"><tspan x="0" y="0" class="st4 st1 st3">3750</tspan><tspan x="-7.9" y="8.4" class="st4 st1 st3">Reception</tspan></text>
	<text transform="matrix(1 0 0 1 76.6543 286.3921)" class="st1 st3">3750</text>
	<text transform="matrix(1 0 0 1 76.1433 247.5234)" class="st1 st3">3750b</text>
	<text transform="matrix(1 0 0 1 121.2913 245.5233)" class="st1 st3">Kitchen</text>
	<text transform="matrix(1 0 0 1 410.2368 508.9301)" class="st1 st3">4602</text>
	<text transform="matrix(1 0 0 1 410.2368 473.4901)" class="st1 st3">4608</text>
	<text transform="matrix(1 0 0 1 410.2368 437.2867)" class="st1 st3">4616</text>
	<text transform="matrix(1 0 0 1 410.2368 401.8305)" class="st1 st3">4622</text>
	<text transform="matrix(1 0 0 1 410.2368 369.1835)" class="st1 st3">4628</text>
	<text transform="matrix(1 0 0 1 410.2363 314.9931)" class="st5"><tspan x="0" y="0" class="st4 st1 st3">4640</tspan><tspan x="-7.9" y="8.4" class="st4 st1 st3">Halvorsen</tspan><tspan x="-9.8" y="16.8" class="st4 st1 st3">Conference</tspan><tspan x="-1.8" y="25.2" class="st4 st1 st3">Room</tspan></text>
	<text transform="matrix(1 0 0 1 410.2368 291.0961)" class="st1 st3">4646</text>
	<text transform="matrix(1 0 0 1 410.2368 253.2298)" class="st1 st3">4652</text>
	<text transform="matrix(1 0 0 1 410.2368 218.8793)" class="st1 st3">4660</text>
	<text transform="matrix(1 0 0 1 410.2368 185.6493)" class="st1 st3">4666</text>
	<text transform="matrix(1 0 0 1 410.2368 158.115)" class="st1 st3">4672</text>
	<text transform="matrix(1 0 0 1 410.2368 79.588)" class="st1 st3">4686</text>
	<text transform="matrix(1 0 0 1 448.3925 465.8629)" class="st1 st3">South</text>
	<text transform="matrix(1 0 0 1 410.2368 42.3521)" class="st1 st3">4692</text>
	<text transform="matrix(1 0 0 1 258.0585 507.1354)" class="st1 st3">4803</text>
	<text transform="matrix(1 0 0 1 258.0585 475.3815)" class="st1 st3">4809</text>
	<text transform="matrix(1 0 0 1 258.0584 430.6003)" class="st1 st3">4819</text>
	<text transform="matrix(1 0 0 1 258.0585 454.7155)" class="st1 st3">4815</text>
	<text transform="matrix(1 0 0 1 258.0584 410.3815)" class="st1 st3">4823</text>
	<text transform="matrix(1 0 0 1 303.985 356.2954)" class="st1 st3">4828d</text>
	<text transform="matrix(1 0 0 1 362.8137 361.2953)" class="st1 st3">4627c</text>
	<text transform="matrix(1 0 0 1 334.0539 464.8815)" class="st5"><tspan x="0" y="0" class="st1 st3">4720</tspan><tspan x="-10.9" y="8.4" class="st1 st3">Student Lab</tspan></text>
	<text transform="matrix(1 0 0 1 304.0793 373.2954)" class="st1 st3">4828c</text>
	<text transform="matrix(1 0 0 1 443.412 45.7152)" class="st1 st3">Elevators</text>
	<text transform="matrix(1 0 0 1 448.6864 83.5058)" class="st1 st3">Stairs</text>
	<text transform="matrix(1 0 0 1 440.7618 139.7459)" class="st1 st3">Restrooms</text>
	<text transform="matrix(1 0 0 1 254.1175 326.8039)" class="st4 st1 st3">Lounge</text>
	<text transform="matrix(1 0 0 1 179.7974 323.1787)" class="st1 st3">Lounge</text>
	<text transform="matrix(1 0 0 1 258.0583 293.0964)" class="st1 st3">4847</text>
	<text transform="matrix(1 0 0 1 258.0583 249.4304)" class="st1 st3">4855</text>
	<text transform="matrix(1 0 0 1 258.0583 271.0964)" class="st1 st3">4851</text>
	<text transform="matrix(1 0 0 1 258.0583 225.7624)" class="st1 st3">4859</text>
	<text transform="matrix(1 0 0 1 258.0583 180.2956)" class="st1 st3">4867</text>
	<text transform="matrix(1 0 0 1 258.0583 202.9636)" class="st1 st3">4863</text>
	<text transform="matrix(1 0 0 1 258.0583 156.4304)" class="st1 st3">4871</text>
	<text transform="matrix(1 0 0 1 258.0583 134.4304)" class="st1 st3">4877</text>
	<text transform="matrix(1 0 0 1 258.0582 112.1765)" class="st1 st3">4883</text>
	<text transform="matrix(1 0 0 1 258.0582 82.0964)" class="st1 st3">4887</text>
	<text transform="matrix(1 0 0 1 258.0582 44.4304)" class="st1 st3">4893</text>
	<text transform="matrix(1 0 0 1 333.8593 104.4577)" class="st1 st3">4780</text>
	<text transform="matrix(1 0 0 1 302.4405 162.0963)" class="st1 st3">4872</text>
	<text transform="matrix(1 0 0 1 334.498 186.7954)" class="st5"><tspan x="0" y="0" class="st4 st1 st3">4760</tspan><tspan x="-6.9" y="8.4" class="st4 st1 st3">Coon Lab</tspan></text>
	<text transform="matrix(1 0 0 1 334.0539 248.4538)" class="st5"><tspan x="0" y="0" class="st1 st3">4750</tspan><tspan x="-10.9" y="8.4" class="st1 st3">Student Lab</tspan></text>
	<g>
		<g>
			<line class="st6" x1="457.1" y1="453.7" x2="457.1" y2="435.1"/>
			<g>
				<path d="M457.1,429.1c1.1,2.8,2.9,6.4,4.8,8.5l-4.8-1.7l-4.8,1.7C454.3,435.4,456.1,431.9,457.1,429.1z"/>
			</g>
		</g>
	</g>
	<text transform="matrix(1 0 0 1 448.6863 493.6188)" class="st1 st3">North</text>
	<g>
		<g>
			<line class="st6" x1="457.1" y1="502.3" x2="457.1" y2="520.8"/>
			<g>
				<path d="M457.1,526.9c-1.1-2.8-2.9-6.4-4.8-8.5l4.8,1.7l4.8-1.7C460,520.5,458.2,524,457.1,526.9z"/>
			</g>
		</g>
	</g>
	<path d="M341.2,356c1.7,0,3.3,0,5,0c0.8,0,1.5,0.2,2.1,0.7c0.4,0.4,0.9,0.8,1.1,1.4c0.2,0.5,0.4,1.1,0.3,1.7c0,1.3,0,2.7,0,4
		c0,0.6-0.2,1.2-0.5,1.8c0,0.1-0.1,0.2-0.2,0.2c-0.2,0.2-0.4,0.5-0.6,0.7c-0.3,0.3-0.7,0.5-1.1,0.7c-0.5,0.2-1,0.3-1.6,0.3
		c-3.1,0-6.2,0-9.2,0c-0.5,0-0.9-0.1-1.4-0.2c-0.5-0.1-0.8-0.4-1.2-0.7c-0.2-0.2-0.5-0.4-0.7-0.6c-0.2-0.2-0.3-0.6-0.4-0.9
		c-0.2-0.5-0.2-1.1-0.2-1.6c0-1.3,0-2.6,0-3.9c0-0.7,0.2-1.3,0.6-1.9c0.3-0.4,0.7-0.7,1.1-1c0.6-0.4,1.2-0.6,1.9-0.6
		C337.9,356,339.6,356,341.2,356z M341.2,366.1C341.2,366.1,341.2,366.1,341.2,366.1c1.7,0,3.3,0,5,0c0.4,0,0.8-0.1,1.2-0.4
		c0.7-0.5,1.1-1.1,1.1-2c0-1.3,0-2.6,0-4c0-0.3-0.1-0.6-0.2-0.9c-0.4-0.9-1.2-1.5-2.1-1.5c-3.3,0-6.5,0-9.8,0
		c-0.3,0-0.6,0.1-0.9,0.2c-0.5,0.1-0.8,0.5-1,0.9c-0.2,0.4-0.4,0.8-0.4,1.3c0,1.3,0,2.6,0,3.9c0,0.8,0.4,1.4,0.9,2
		c0.1,0.1,0.2,0.2,0.3,0.2c0.4,0.1,0.7,0.3,1.1,0.3C338,366.1,339.6,366.1,341.2,366.1z"/>
	<path d="M343.4,353.1c0-0.5,0-0.9,0-1.3c0-0.3,0-0.6,0-0.9c0-0.3,0.3-0.6,0.6-0.6c0.4,0,0.6,0.2,0.6,0.6c0,0.7,0,1.4,0,2.2
		c0.2-0.1,0.4-0.3,0.5-0.5c0.1-0.1,0.1-0.1,0.1-0.2c0.2-0.2,0.4-0.2,0.6-0.2c0.3,0.1,0.4,0.3,0.4,0.6c0,0.2,0,0.4-0.2,0.5
		c-0.2,0.2-0.5,0.4-0.7,0.6c-0.1,0.1-0.3,0.3-0.4,0.4c-0.2,0.2-0.4,0.4-0.6,0.6c-0.3,0.3-0.6,0.2-0.9,0c-0.2-0.2-0.4-0.4-0.6-0.6
		c-0.4-0.4-0.7-0.7-1.1-1.1c-0.3-0.3-0.2-0.6,0.1-0.9c0.2-0.2,0.5-0.2,0.7,0c0.1,0.1,0.1,0.1,0.2,0.2
		C343.1,352.7,343.2,352.9,343.4,353.1z"/>
	<path d="M339,352.4c0,0.7,0,1.4,0,2.1c0,0.1,0,0.3-0.1,0.4c-0.1,0.2-0.4,0.3-0.6,0.3c-0.2,0-0.4-0.3-0.4-0.5c0-0.6,0-1.2,0-1.8
		c0-0.2,0-0.3,0-0.5c-0.2,0.2-0.4,0.4-0.6,0.6c0,0-0.1,0.1-0.1,0.1c-0.3,0.3-0.5,0.3-0.8,0c-0.2-0.2-0.2-0.6,0-0.9
		c0.6-0.6,1.1-1.1,1.7-1.7c0.2-0.2,0.6-0.2,0.8,0c0.3,0.3,0.5,0.5,0.8,0.8c0.2,0.2,0.3,0.4,0.4,0.5c0.1,0.1,0.2,0.2,0.3,0.3
		c0.3,0.2,0.3,0.4,0.2,0.6c0,0.3-0.3,0.4-0.5,0.5c-0.1,0-0.3-0.1-0.4-0.2c-0.2-0.2-0.4-0.4-0.6-0.6
		C339.1,352.5,339.1,352.5,339,352.4z"/>
	<path d="M340.2,361.9c0,0-0.1,0-0.1,0.1c-0.2,0.1-0.3,0-0.3-0.2c0-0.2,0.1-0.5,0.1-0.7c0.1-0.3,0.2-0.6,0.3-0.9
		c0.1-0.3,0.3-0.4,0.6-0.4c0.3,0,0.6,0,0.9,0c0.3,0,0.5,0.1,0.6,0.4c0.2,0.5,0.4,1.1,0.5,1.6c0,0.1,0,0.2-0.1,0.2
		c-0.1,0.1-0.2,0.1-0.3,0c0,0,0-0.1-0.1-0.1c0,0,0,0.1,0,0.1c0.1,0.3,0.2,0.6,0.3,0.9c-0.2,0-0.4,0-0.6,0c-0.1,0-0.1,0.1-0.1,0.2
		c0,0.4,0,0.9,0,1.3c0,0.1-0.1,0.3-0.1,0.4c-0.1,0.1-0.2,0.1-0.3,0c-0.1-0.1-0.1-0.2-0.1-0.3c0-0.4,0-0.7,0-1.1c0-0.2,0-0.3,0-0.5
		c-0.1,0.3,0,0.6,0,0.9c0,0.3,0,0.5,0,0.8c0,0.2-0.2,0.3-0.3,0.3c-0.1,0-0.2-0.1-0.3-0.3c0-0.4,0-0.9,0-1.3c0-0.4,0-0.4-0.4-0.4
		c0,0-0.1,0-0.1,0c-0.2,0-0.2-0.1-0.2-0.2c0-0.1,0.1-0.3,0.1-0.4C340.2,362.1,340.2,362,340.2,361.9c0.1-0.2,0.2-0.4,0.2-0.7
		c0.1-0.1,0.2-0.3,0.2-0.6c-0.2,0.2-0.2,0.4-0.2,0.6C340.2,361.4,340.2,361.7,340.2,361.9z"/>
	<path d="M345.5,360.6c0,0.6,0,1.1,0,1.7c0,0.7,0,1.4,0,2c0,0.1,0,0.3-0.1,0.4c-0.1,0.1-0.2,0.1-0.3,0.1c-0.1,0-0.1-0.1-0.2-0.2
		c0-0.1,0-0.2,0-0.3c0-0.5,0-1.1,0-1.6c0-0.1,0-0.2,0-0.3c0,0,0,0-0.1,0c0,0-0.1,0-0.1,0c0,0.1,0,0.2,0,0.3c0,0.6,0,1.2,0,1.8
		c0,0.3-0.2,0.4-0.4,0.3c-0.1-0.1-0.2-0.2-0.3-0.3c0-0.1,0-0.2,0-0.3c0-1.1,0-2.2,0-3.2c0-0.1,0-0.2-0.1-0.4c0,0.1,0,0.2,0,0.3
		c0,0.4,0,0.7,0,1.1c0,0.2-0.1,0.3-0.3,0.3c-0.2,0-0.3-0.1-0.3-0.3c0-0.5,0-1.1,0-1.6c0-0.1,0-0.2,0.1-0.3c0.1-0.3,0.3-0.4,0.6-0.4
		c0.4,0,0.9,0,1.3,0c0.4,0,0.6,0.2,0.7,0.6c0,0.6,0,1.1,0,1.7c0,0.2-0.1,0.3-0.3,0.3c-0.2,0-0.3-0.1-0.3-0.2c0-0.1,0-0.2,0-0.3
		C345.6,361.4,345.6,361,345.5,360.6C345.5,360.6,345.5,360.6,345.5,360.6z"/>
	<path d="M336.8,360.6c0,0.4,0,0.7,0,1.1c0,0.1,0,0.2,0,0.3c0,0.2-0.1,0.3-0.3,0.3c-0.2,0-0.1-0.2-0.1-0.3c0-0.6,0-1.2,0-1.8
		c0-0.4,0.1-0.5,0.5-0.5c0.5,0,0.9,0,1.4,0c0.4,0,0.6,0.2,0.6,0.6c0,0.5,0,1.1,0,1.6c0,0.2-0.1,0.3-0.2,0.3c-0.2,0-0.3-0.1-0.3-0.3
		c0-0.4,0-0.7,0-1.1c0-0.1,0-0.2-0.1-0.3c0,0.1,0,0.2,0,0.3c0,1.1,0,2.2,0,3.3c0,0.1,0,0.3,0,0.4c0,0.1-0.1,0.3-0.3,0.3
		c-0.2,0-0.3-0.1-0.3-0.3c0-0.1,0-0.2,0-0.4c0-0.6,0-1.2-0.1-1.8c0,0.1,0,0.2,0,0.3c0,0.5,0,1.1,0,1.6c0,0.1,0,0.2-0.1,0.4
		c-0.1,0.2-0.2,0.3-0.3,0.2c-0.2,0-0.3-0.1-0.3-0.3c0-0.1,0-0.2,0-0.3c0-1.1,0-2.3,0-3.4C336.9,360.8,336.9,360.7,336.8,360.6
		C336.9,360.6,336.9,360.6,336.8,360.6z"/>
	<path d="M337.1,359.1c0-0.3,0.3-0.5,0.6-0.5c0.3,0,0.5,0.3,0.5,0.6c0,0.3-0.3,0.5-0.6,0.5C337.4,359.7,337.1,359.4,337.1,359.1z"/>
	<path d="M341.8,359.1c0,0.3-0.2,0.6-0.5,0.6c-0.2,0-0.6-0.3-0.6-0.5c0-0.2,0.3-0.6,0.6-0.6C341.5,358.6,341.7,358.8,341.8,359.1z"
		/>
	<path d="M344.8,358.6c0.2,0,0.5,0.3,0.5,0.5c0,0.3-0.2,0.6-0.5,0.6c-0.3,0-0.5-0.3-0.5-0.6C344.3,358.8,344.5,358.6,344.8,358.6z"
		/>
	<path d="M114.2,356.6c1.7,0,3.3,0,5,0c0.8,0,1.5,0.2,2.1,0.7c0.4,0.4,0.9,0.8,1.1,1.4c0.2,0.5,0.4,1.1,0.3,1.7c0,1.3,0,2.7,0,4
		c0,0.6-0.2,1.2-0.5,1.8c0,0.1-0.1,0.2-0.2,0.2c-0.2,0.2-0.4,0.5-0.6,0.7c-0.3,0.3-0.7,0.5-1.1,0.7c-0.5,0.2-1,0.3-1.6,0.3
		c-3.1,0-6.2,0-9.2,0c-0.5,0-0.9-0.1-1.4-0.2c-0.5-0.1-0.8-0.4-1.2-0.7c-0.2-0.2-0.5-0.4-0.7-0.6c-0.2-0.2-0.3-0.6-0.4-0.9
		c-0.2-0.5-0.2-1.1-0.2-1.6c0-1.3,0-2.6,0-3.9c0-0.7,0.2-1.3,0.6-1.9c0.3-0.4,0.7-0.7,1.1-1c0.6-0.4,1.2-0.6,1.9-0.6
		C110.9,356.6,112.6,356.6,114.2,356.6z M114.2,366.6C114.2,366.6,114.2,366.6,114.2,366.6c1.7,0,3.3,0,5,0c0.4,0,0.8-0.1,1.2-0.4
		c0.7-0.5,1.1-1.1,1.1-2c0-1.3,0-2.6,0-4c0-0.3-0.1-0.6-0.2-0.9c-0.4-0.9-1.2-1.5-2.1-1.5c-3.3,0-6.5,0-9.8,0
		c-0.3,0-0.6,0.1-0.9,0.2c-0.5,0.1-0.8,0.5-1,0.9c-0.2,0.4-0.4,0.8-0.4,1.3c0,1.3,0,2.6,0,3.9c0,0.8,0.4,1.4,0.9,2
		c0.1,0.1,0.2,0.2,0.3,0.2c0.4,0.1,0.7,0.3,1.1,0.3C111,366.6,112.6,366.6,114.2,366.6z"/>
	<path d="M116.5,353.7c0-0.5,0-0.9,0-1.3c0-0.3,0-0.6,0-0.9c0-0.3,0.3-0.6,0.6-0.6c0.4,0,0.6,0.2,0.6,0.6c0,0.7,0,1.4,0,2.2
		c0.2-0.1,0.4-0.3,0.5-0.5c0.1-0.1,0.1-0.1,0.1-0.2c0.2-0.2,0.4-0.2,0.6-0.2c0.3,0.1,0.4,0.3,0.4,0.6c0,0.2,0,0.4-0.2,0.5
		c-0.2,0.2-0.5,0.4-0.7,0.6c-0.1,0.1-0.3,0.3-0.4,0.4c-0.2,0.2-0.4,0.4-0.6,0.6c-0.3,0.3-0.6,0.2-0.9,0c-0.2-0.2-0.4-0.4-0.6-0.6
		c-0.4-0.4-0.7-0.7-1.1-1.1c-0.3-0.3-0.2-0.6,0.1-0.9c0.2-0.2,0.5-0.2,0.7,0c0.1,0.1,0.1,0.1,0.2,0.2
		C116.1,353.3,116.2,353.4,116.5,353.7z"/>
	<path d="M112,353c0,0.7,0,1.4,0,2.1c0,0.1,0,0.3-0.1,0.4c-0.1,0.2-0.4,0.3-0.6,0.3c-0.2,0-0.4-0.3-0.4-0.5c0-0.6,0-1.2,0-1.8
		c0-0.2,0-0.3,0-0.5c-0.2,0.2-0.4,0.4-0.6,0.6c0,0-0.1,0.1-0.1,0.1c-0.3,0.3-0.5,0.3-0.8,0c-0.2-0.2-0.2-0.6,0-0.9
		c0.6-0.6,1.1-1.1,1.7-1.7c0.2-0.2,0.6-0.2,0.8,0c0.3,0.3,0.5,0.5,0.8,0.8c0.2,0.2,0.3,0.4,0.4,0.5c0.1,0.1,0.2,0.2,0.3,0.3
		c0.3,0.2,0.3,0.4,0.2,0.6c0,0.3-0.3,0.4-0.5,0.5c-0.1,0-0.3-0.1-0.4-0.2c-0.2-0.2-0.4-0.4-0.6-0.6C112.2,353.1,112.1,353.1,112,353
		z"/>
	<path d="M113.2,362.5c0,0-0.1,0-0.1,0.1c-0.2,0.1-0.3,0-0.3-0.2c0-0.2,0.1-0.5,0.1-0.7c0.1-0.3,0.2-0.6,0.3-0.9
		c0.1-0.3,0.3-0.4,0.6-0.4c0.3,0,0.6,0,0.9,0c0.3,0,0.5,0.1,0.6,0.4c0.2,0.5,0.4,1.1,0.5,1.6c0,0.1,0,0.2-0.1,0.2
		c-0.1,0.1-0.2,0.1-0.3,0c0,0,0-0.1-0.1-0.1c0,0,0,0.1,0,0.1c0.1,0.3,0.2,0.6,0.3,0.9c-0.2,0-0.4,0-0.6,0c-0.1,0-0.1,0.1-0.1,0.2
		c0,0.4,0,0.9,0,1.3c0,0.1-0.1,0.3-0.1,0.4c-0.1,0.1-0.2,0.1-0.3,0c-0.1-0.1-0.1-0.2-0.1-0.3c0-0.4,0-0.7,0-1.1c0-0.2,0-0.3,0-0.5
		c-0.1,0.3,0,0.6,0,0.9c0,0.3,0,0.5,0,0.8c0,0.2-0.2,0.3-0.3,0.3c-0.1,0-0.2-0.1-0.3-0.3c0-0.4,0-0.9,0-1.3c0-0.4,0-0.4-0.4-0.4
		c0,0-0.1,0-0.1,0c-0.2,0-0.2-0.1-0.2-0.2c0-0.1,0.1-0.3,0.1-0.4C113.2,362.6,113.2,362.5,113.2,362.5c0.1-0.2,0.2-0.4,0.2-0.7
		c0.1-0.1,0.2-0.3,0.2-0.6c-0.2,0.2-0.2,0.4-0.2,0.6C113.2,362,113.2,362.2,113.2,362.5z"/>
	<path d="M118.5,361.2c0,0.6,0,1.1,0,1.7c0,0.7,0,1.4,0,2c0,0.1,0,0.3-0.1,0.4c-0.1,0.1-0.2,0.1-0.3,0.1c-0.1,0-0.1-0.1-0.2-0.2
		c0-0.1,0-0.2,0-0.3c0-0.5,0-1.1,0-1.6c0-0.1,0-0.2,0-0.3c0,0,0,0-0.1,0c0,0-0.1,0-0.1,0c0,0.1,0,0.2,0,0.3c0,0.6,0,1.2,0,1.8
		c0,0.3-0.2,0.4-0.4,0.3c-0.1-0.1-0.2-0.2-0.3-0.3c0-0.1,0-0.2,0-0.3c0-1.1,0-2.2,0-3.2c0-0.1,0-0.2-0.1-0.4c0,0.1,0,0.2,0,0.3
		c0,0.4,0,0.7,0,1.1c0,0.2-0.1,0.3-0.3,0.3c-0.2,0-0.3-0.1-0.3-0.3c0-0.5,0-1.1,0-1.6c0-0.1,0-0.2,0.1-0.3c0.1-0.3,0.3-0.4,0.6-0.4
		c0.4,0,0.9,0,1.3,0c0.4,0,0.6,0.2,0.7,0.6c0,0.6,0,1.1,0,1.7c0,0.2-0.1,0.3-0.3,0.3c-0.2,0-0.3-0.1-0.3-0.2c0-0.1,0-0.2,0-0.3
		C118.6,361.9,118.6,361.6,118.5,361.2C118.6,361.2,118.5,361.2,118.5,361.2z"/>
	<path d="M109.9,361.2c0,0.4,0,0.7,0,1.1c0,0.1,0,0.2,0,0.3c0,0.2-0.1,0.3-0.3,0.3c-0.2,0-0.1-0.2-0.1-0.3c0-0.6,0-1.2,0-1.8
		c0-0.4,0.1-0.5,0.5-0.5c0.5,0,0.9,0,1.4,0c0.4,0,0.6,0.2,0.6,0.6c0,0.5,0,1.1,0,1.6c0,0.2-0.1,0.3-0.2,0.3c-0.2,0-0.3-0.1-0.3-0.3
		c0-0.4,0-0.7,0-1.1c0-0.1,0-0.2-0.1-0.3c0,0.1,0,0.2,0,0.3c0,1.1,0,2.2,0,3.3c0,0.1,0,0.3,0,0.4c0,0.1-0.1,0.3-0.3,0.3
		c-0.2,0-0.3-0.1-0.3-0.3c0-0.1,0-0.2,0-0.4c0-0.6,0-1.2-0.1-1.8c0,0.1,0,0.2,0,0.3c0,0.5,0,1.1,0,1.6c0,0.1,0,0.2-0.1,0.4
		c-0.1,0.2-0.2,0.3-0.3,0.2c-0.2,0-0.3-0.1-0.3-0.3c0-0.1,0-0.2,0-0.3c0-1.1,0-2.3,0-3.4C109.9,361.3,109.9,361.3,109.9,361.2
		C109.9,361.2,109.9,361.2,109.9,361.2z"/>
	<path d="M110.1,359.6c0-0.3,0.3-0.5,0.6-0.5c0.3,0,0.5,0.3,0.5,0.6c0,0.3-0.3,0.5-0.6,0.5C110.4,360.2,110.1,359.9,110.1,359.6z"/>
	<path d="M114.8,359.6c0,0.3-0.2,0.6-0.5,0.6c-0.2,0-0.6-0.3-0.6-0.5c0-0.2,0.3-0.6,0.6-0.6C114.5,359.1,114.8,359.4,114.8,359.6z"
		/>
	<path d="M117.8,359.1c0.2,0,0.5,0.3,0.5,0.5c0,0.3-0.2,0.6-0.5,0.6c-0.3,0-0.5-0.3-0.5-0.6C117.3,359.4,117.5,359.1,117.8,359.1z"
		/>
	<path d="M457.1,24.3c1.7,0,3.3,0,5,0c0.8,0,1.5,0.2,2.1,0.7c0.4,0.4,0.9,0.8,1.1,1.4c0.2,0.5,0.4,1.1,0.3,1.7c0,1.3,0,2.7,0,4
		c0,0.6-0.2,1.2-0.5,1.8c0,0.1-0.1,0.2-0.2,0.2c-0.2,0.2-0.4,0.5-0.6,0.7c-0.3,0.3-0.7,0.5-1.1,0.7c-0.5,0.2-1,0.3-1.6,0.3
		c-3.1,0-6.2,0-9.2,0c-0.5,0-0.9-0.1-1.4-0.2c-0.5-0.1-0.8-0.4-1.2-0.7c-0.2-0.2-0.5-0.4-0.7-0.6c-0.2-0.2-0.3-0.6-0.4-0.9
		c-0.2-0.5-0.2-1.1-0.2-1.6c0-1.3,0-2.6,0-3.9c0-0.7,0.2-1.3,0.6-1.9c0.3-0.4,0.7-0.7,1.1-1c0.6-0.4,1.2-0.6,1.9-0.6
		C453.8,24.3,455.4,24.3,457.1,24.3z M457.1,34.3C457.1,34.3,457.1,34.3,457.1,34.3c1.7,0,3.3,0,5,0c0.4,0,0.8-0.1,1.2-0.4
		c0.7-0.5,1.1-1.1,1.1-2c0-1.3,0-2.6,0-4c0-0.3-0.1-0.6-0.2-0.9c-0.4-0.9-1.2-1.5-2.1-1.5c-3.3,0-6.5,0-9.8,0
		c-0.3,0-0.6,0.1-0.9,0.2c-0.5,0.1-0.8,0.5-1,0.9c-0.2,0.4-0.4,0.8-0.4,1.3c0,1.3,0,2.6,0,3.9c0,0.8,0.4,1.4,0.9,2
		c0.1,0.1,0.2,0.2,0.3,0.2c0.4,0.1,0.7,0.3,1.1,0.3C453.8,34.3,455.5,34.3,457.1,34.3z"/>
	<path d="M459.3,21.4c0-0.5,0-0.9,0-1.3c0-0.3,0-0.6,0-0.9c0-0.3,0.3-0.6,0.6-0.6c0.4,0,0.6,0.2,0.6,0.6c0,0.7,0,1.4,0,2.2
		c0.2-0.1,0.4-0.3,0.5-0.5c0.1-0.1,0.1-0.1,0.1-0.2c0.2-0.2,0.4-0.2,0.6-0.2c0.3,0.1,0.4,0.3,0.4,0.6c0,0.2,0,0.4-0.2,0.5
		c-0.2,0.2-0.5,0.4-0.7,0.6c-0.1,0.1-0.3,0.3-0.4,0.4c-0.2,0.2-0.4,0.4-0.6,0.6c-0.3,0.3-0.6,0.2-0.9,0c-0.2-0.2-0.4-0.4-0.6-0.6
		c-0.4-0.4-0.7-0.7-1.1-1.1c-0.3-0.3-0.2-0.6,0.1-0.9c0.2-0.2,0.5-0.2,0.7,0c0.1,0.1,0.1,0.1,0.2,0.2
		C458.9,21,459.1,21.1,459.3,21.4z"/>
	<path d="M454.9,20.6c0,0.7,0,1.4,0,2.1c0,0.1,0,0.3-0.1,0.4c-0.1,0.2-0.4,0.3-0.6,0.3c-0.2,0-0.4-0.3-0.4-0.5c0-0.6,0-1.2,0-1.8
		c0-0.2,0-0.3,0-0.5c-0.2,0.2-0.4,0.4-0.6,0.6c0,0-0.1,0.1-0.1,0.1c-0.3,0.3-0.5,0.3-0.8,0c-0.2-0.2-0.2-0.6,0-0.9
		c0.6-0.6,1.1-1.1,1.7-1.7c0.2-0.2,0.6-0.2,0.8,0c0.3,0.3,0.5,0.5,0.8,0.8c0.2,0.2,0.3,0.4,0.4,0.5c0.1,0.1,0.2,0.2,0.3,0.3
		c0.3,0.2,0.3,0.4,0.2,0.6c0,0.3-0.3,0.4-0.5,0.5c-0.1,0-0.3-0.1-0.4-0.2c-0.2-0.2-0.4-0.4-0.6-0.6C455,20.8,455,20.7,454.9,20.6z"
		/>
	<path d="M456.1,30.2c0,0-0.1,0-0.1,0.1c-0.2,0.1-0.3,0-0.3-0.2c0-0.2,0.1-0.5,0.1-0.7c0.1-0.3,0.2-0.6,0.3-0.9
		c0.1-0.3,0.3-0.4,0.6-0.4c0.3,0,0.6,0,0.9,0c0.3,0,0.5,0.1,0.6,0.4c0.2,0.5,0.4,1.1,0.5,1.6c0,0.1,0,0.2-0.1,0.2
		c-0.1,0.1-0.2,0.1-0.3,0c0,0,0-0.1-0.1-0.1c0,0,0,0.1,0,0.1c0.1,0.3,0.2,0.6,0.3,0.9c-0.2,0-0.4,0-0.6,0c-0.1,0-0.1,0.1-0.1,0.2
		c0,0.4,0,0.9,0,1.3c0,0.1-0.1,0.3-0.1,0.4c-0.1,0.1-0.2,0.1-0.3,0c-0.1-0.1-0.1-0.2-0.1-0.3c0-0.4,0-0.7,0-1.1c0-0.2,0-0.3,0-0.5
		c-0.1,0.3,0,0.6,0,0.9c0,0.3,0,0.5,0,0.8c0,0.2-0.2,0.3-0.3,0.3c-0.1,0-0.2-0.1-0.3-0.3c0-0.4,0-0.9,0-1.3c0-0.4,0-0.4-0.4-0.4
		c0,0-0.1,0-0.1,0c-0.2,0-0.2-0.1-0.2-0.2c0-0.1,0.1-0.3,0.1-0.4C456,30.3,456,30.2,456.1,30.2c0.1-0.2,0.2-0.4,0.2-0.7
		c0.1-0.1,0.2-0.3,0.2-0.6c-0.2,0.2-0.2,0.4-0.2,0.6C456.1,29.7,456,29.9,456.1,30.2z"/>
	<path d="M461.4,28.9c0,0.6,0,1.1,0,1.7c0,0.7,0,1.4,0,2c0,0.1,0,0.3-0.1,0.4c-0.1,0.1-0.2,0.1-0.3,0.1c-0.1,0-0.1-0.1-0.2-0.2
		c0-0.1,0-0.2,0-0.3c0-0.5,0-1.1,0-1.6c0-0.1,0-0.2,0-0.3c0,0,0,0-0.1,0c0,0-0.1,0-0.1,0c0,0.1,0,0.2,0,0.3c0,0.6,0,1.2,0,1.8
		c0,0.3-0.2,0.4-0.4,0.3c-0.1-0.1-0.2-0.2-0.3-0.3c0-0.1,0-0.2,0-0.3c0-1.1,0-2.2,0-3.2c0-0.1,0-0.2-0.1-0.4c0,0.1,0,0.2,0,0.3
		c0,0.4,0,0.7,0,1.1c0,0.2-0.1,0.3-0.3,0.3c-0.2,0-0.3-0.1-0.3-0.3c0-0.5,0-1.1,0-1.6c0-0.1,0-0.2,0.1-0.3c0.1-0.3,0.3-0.4,0.6-0.4
		c0.4,0,0.9,0,1.3,0c0.4,0,0.6,0.2,0.7,0.6c0,0.6,0,1.1,0,1.7c0,0.2-0.1,0.3-0.3,0.3c-0.2,0-0.3-0.1-0.3-0.2c0-0.1,0-0.2,0-0.3
		C461.4,29.6,461.4,29.2,461.4,28.9C461.4,28.9,461.4,28.9,461.4,28.9z"/>
	<path d="M452.7,28.9c0,0.4,0,0.7,0,1.1c0,0.1,0,0.2,0,0.3c0,0.2-0.1,0.3-0.3,0.3c-0.2,0-0.1-0.2-0.1-0.3c0-0.6,0-1.2,0-1.8
		c0-0.4,0.1-0.5,0.5-0.5c0.5,0,0.9,0,1.4,0c0.4,0,0.6,0.2,0.6,0.6c0,0.5,0,1.1,0,1.6c0,0.2-0.1,0.3-0.2,0.3c-0.2,0-0.3-0.1-0.3-0.3
		c0-0.4,0-0.7,0-1.1c0-0.1,0-0.2-0.1-0.3c0,0.1,0,0.2,0,0.3c0,1.1,0,2.2,0,3.3c0,0.1,0,0.3,0,0.4c0,0.1-0.1,0.3-0.3,0.3
		c-0.2,0-0.3-0.1-0.3-0.3c0-0.1,0-0.2,0-0.4c0-0.6,0-1.2-0.1-1.8c0,0.1,0,0.2,0,0.3c0,0.5,0,1.1,0,1.6c0,0.1,0,0.2-0.1,0.4
		c-0.1,0.2-0.2,0.3-0.3,0.2c-0.2,0-0.3-0.1-0.3-0.3c0-0.1,0-0.2,0-0.3c0-1.1,0-2.3,0-3.4C452.8,29,452.8,29,452.7,28.9
		C452.8,28.9,452.7,28.9,452.7,28.9z"/>
	<path d="M453,27.3c0-0.3,0.3-0.5,0.6-0.5c0.3,0,0.5,0.3,0.5,0.6c0,0.3-0.3,0.5-0.6,0.5C453.2,27.9,453,27.6,453,27.3z"/>
	<path d="M457.6,27.3c0,0.3-0.2,0.6-0.5,0.6c-0.2,0-0.6-0.3-0.6-0.5c0-0.2,0.3-0.6,0.6-0.6C457.4,26.8,457.6,27.1,457.6,27.3z"/>
	<path d="M460.7,26.8c0.2,0,0.5,0.3,0.5,0.5c0,0.3-0.2,0.6-0.5,0.6c-0.3,0-0.5-0.3-0.5-0.6C460.1,27.1,460.4,26.8,460.7,26.8z"/>
	<g>
		<path d="M314.1,400c0.2,0.5,0.3,1.1,0.5,1.6c0.1,0.3,0.2,0.5,0.2,0.8c0.1,0.6,0.4,1.2,0.5,1.8c0.1,0.4,0.2,0.7,0.3,1.1
			c0,0.2,0.1,0.3,0.1,0.5c0,0.1,0,0.1-0.1,0.1c-0.2,0-0.4,0-0.7,0c-0.2,0-0.5,0-0.7,0c-0.2,0-0.2,0-0.2,0.2c0,0,0,0.1,0,0.1
			c0,1.3,0,2.6,0,3.9c0,0.2,0,0.3-0.1,0.5c-0.2,0.3-0.7,0.3-0.9,0.1c0,0-0.1-0.1-0.1-0.1c-0.1-0.1-0.1-0.2-0.1-0.3
			c0-0.1,0-0.2,0-0.2c0-1.3,0-2.6,0-3.9c0-0.2,0-0.2-0.2-0.2c0,0-0.1,0.1-0.1,0.1c0,0.1,0,0.1,0,0.2c0,1.3,0,2.6,0,3.9
			c0,0.3-0.1,0.4-0.3,0.6c-0.2,0.1-0.4,0.1-0.6,0.1c-0.2-0.1-0.3-0.3-0.4-0.5c0-0.1,0-0.1,0-0.2c0-1.3,0-2.6,0-3.8
			c0-0.1,0-0.1,0-0.2c0-0.1,0-0.1-0.1-0.1c-0.4,0-0.8,0-1.2,0c-0.1,0-0.1,0-0.2,0c-0.1,0-0.1,0-0.1-0.1c0.1-0.5,0.3-1,0.4-1.5
			c0.1-0.4,0.3-0.9,0.4-1.3c0.2-0.8,0.4-1.5,0.7-2.3c0.1-0.2,0.1-0.5,0.2-0.7c0,0,0-0.1,0-0.1c-0.1,0-0.2,0-0.2,0.1
			c-0.1,0.5-0.3,1-0.4,1.5c0,0.1-0.1,0.3-0.1,0.4c-0.1,0.3-0.2,0.6-0.3,1c0,0.1-0.1,0.2-0.1,0.3c-0.1,0.4-0.6,0.6-0.9,0.3
			c-0.2-0.1-0.2-0.3-0.1-0.5c0.1-0.4,0.3-0.8,0.4-1.3c0.1-0.2,0.1-0.5,0.2-0.7c0.1-0.3,0.2-0.7,0.3-1c0.1-0.2,0.1-0.5,0.2-0.7
			c0-0.2,0.1-0.3,0.2-0.4c0-0.1,0.1-0.1,0.1-0.2c0.1-0.2,0.3-0.3,0.5-0.4c0.2-0.1,0.4-0.1,0.5-0.1c0.8,0,1.7,0,2.5,0
			c0.3,0,0.5,0.1,0.8,0.3c0.1,0.1,0.2,0.2,0.2,0.3c0.1,0.2,0.2,0.4,0.3,0.6c0.2,0.6,0.4,1.1,0.5,1.7c0.1,0.5,0.3,1,0.4,1.4
			c0,0.2,0.1,0.4,0.2,0.5c0,0.1,0,0.1,0,0.2c0,0.3-0.1,0.4-0.3,0.5c-0.3,0.1-0.5,0-0.6-0.1c0-0.1-0.1-0.1-0.1-0.2
			c-0.1-0.4-0.3-0.9-0.4-1.3c-0.1-0.3-0.1-0.6-0.3-0.9c-0.1-0.3-0.2-0.6-0.3-0.9C314.3,400,314.3,400,314.1,400z"/>
		<path d="M312.7,395.3c0.2,0,0.4,0.1,0.6,0.2c0.1,0,0.1,0.1,0.2,0.1c0.3,0.1,0.4,0.3,0.4,0.6c0,0.1,0.1,0.2,0.1,0.4
			c0,0.3,0,0.6-0.1,0.8c-0.1,0.2-0.3,0.4-0.6,0.5c-0.2,0.1-0.3,0.2-0.5,0.2c-0.2,0-0.4,0-0.6-0.1c-0.3-0.1-0.5-0.3-0.6-0.6
			c-0.1-0.1-0.1-0.3-0.1-0.4c0-0.2,0-0.5,0.1-0.7c0.1-0.3,0.2-0.5,0.5-0.6c0.2-0.1,0.3-0.2,0.5-0.2
			C312.5,395.3,312.6,395.3,312.7,395.3z"/>
	</g>
	<g>
		<path d="M372.3,405.2c0,1.6,0,3.2,0,4.8c0,0.3-0.2,0.6-0.4,0.7c-0.2,0.1-0.6,0.1-0.8-0.1c-0.2-0.2-0.3-0.4-0.3-0.7
			c0-1.8,0-3.5,0-5.3c0-0.2,0-0.3-0.3-0.2c-0.1,0-0.1,0-0.1,0.1c0,0.1,0,0.1,0,0.2c0,1.7,0,3.4,0,5.1c0,0.1,0,0.2,0,0.3
			c0,0.3-0.2,0.6-0.4,0.7c-0.3,0.1-0.5,0.1-0.8-0.1c-0.2-0.2-0.3-0.4-0.3-0.7c0-3.2,0-6.3,0-9.5c0,0,0,0,0,0c0-0.2,0-0.2-0.2-0.2
			c0,0-0.1,0-0.1,0.1c0,0.1,0,0.1,0,0.2c0,1.1,0,2.2,0,3.3c0,0.2,0,0.3-0.2,0.5c-0.1,0.1-0.1,0.1-0.2,0.1c-0.2,0-0.3,0-0.5,0
			c-0.1,0-0.2-0.1-0.2-0.2c0-0.1-0.1-0.2-0.1-0.3c0-1.4,0-2.8,0-4.1c0-0.6,0.3-1,0.8-1.2c0.2-0.1,0.3-0.1,0.5-0.1c1.2,0,2.4,0,3.6,0
			c0.3,0,0.5,0.1,0.7,0.2c0.2,0.1,0.4,0.3,0.5,0.6c0.1,0.1,0.1,0.3,0.1,0.5c0,0.7,0,1.4,0,2c0,0.7,0,1.5,0,2.2c0,0.1,0,0.2,0,0.2
			c0,0.2-0.2,0.3-0.3,0.3c0,0-0.1,0-0.1,0c-0.4,0-0.7-0.2-0.7-0.6c0-1.1,0-2.2,0-3.2c0-0.1,0-0.1,0-0.2c0-0.1,0-0.1-0.1-0.1
			c-0.2,0-0.2,0-0.2,0.2C372.3,401.9,372.3,403.5,372.3,405.2C372.3,405.2,372.3,405.2,372.3,405.2z"/>
		<path d="M369.3,396.6c0.1-0.3,0-0.6,0.2-0.8c0.1-0.1,0.2-0.2,0.3-0.2c0.1-0.1,0.2-0.1,0.3-0.2c0.3-0.2,0.6-0.2,0.9-0.1
			c0.5,0.2,0.9,0.6,0.9,1.1c0,0.3,0,0.7-0.3,0.9c-0.1,0.1-0.2,0.2-0.3,0.3c-0.2,0.2-0.5,0.3-0.8,0.3c-0.3,0-0.6-0.1-0.8-0.3
			c-0.1-0.1-0.3-0.3-0.4-0.4c0,0,0-0.1-0.1-0.1C369.3,397,369.3,396.8,369.3,396.6z"/>
	</g>
	<g>
		<path d="M85.8,401.4c0.2,0.5,0.3,1.1,0.5,1.6c0.1,0.3,0.2,0.5,0.2,0.8c0.1,0.6,0.4,1.2,0.5,1.8c0.1,0.4,0.2,0.7,0.3,1.1
			c0,0.2,0.1,0.3,0.1,0.5c0,0.1,0,0.1-0.1,0.1c-0.2,0-0.4,0-0.7,0c-0.2,0-0.5,0-0.7,0c-0.2,0-0.2,0-0.2,0.2c0,0,0,0.1,0,0.1
			c0,1.3,0,2.6,0,3.9c0,0.2,0,0.3-0.1,0.5c-0.2,0.3-0.7,0.3-0.9,0.1c0,0-0.1-0.1-0.1-0.1c-0.1-0.1-0.1-0.2-0.1-0.3
			c0-0.1,0-0.2,0-0.2c0-1.3,0-2.6,0-3.9c0-0.2,0-0.2-0.2-0.2c0,0-0.1,0.1-0.1,0.1c0,0.1,0,0.1,0,0.2c0,1.3,0,2.6,0,3.9
			c0,0.3-0.1,0.4-0.3,0.6c-0.2,0.1-0.4,0.1-0.6,0.1c-0.2-0.1-0.3-0.3-0.4-0.5c0-0.1,0-0.1,0-0.2c0-1.3,0-2.6,0-3.8
			c0-0.1,0-0.1,0-0.2c0-0.1,0-0.1-0.1-0.1c-0.4,0-0.8,0-1.2,0c-0.1,0-0.1,0-0.2,0c-0.1,0-0.1,0-0.1-0.1c0.1-0.5,0.3-1,0.4-1.5
			c0.1-0.4,0.3-0.9,0.4-1.3c0.2-0.8,0.4-1.5,0.7-2.3c0.1-0.2,0.1-0.5,0.2-0.7c0,0,0-0.1,0-0.1c-0.1,0-0.2,0-0.2,0.1
			c-0.1,0.5-0.3,1-0.4,1.5c0,0.1-0.1,0.3-0.1,0.4c-0.1,0.3-0.2,0.6-0.3,1c0,0.1-0.1,0.2-0.1,0.3c-0.1,0.4-0.6,0.6-0.9,0.3
			c-0.2-0.1-0.2-0.3-0.1-0.5c0.1-0.4,0.3-0.8,0.4-1.3c0.1-0.2,0.1-0.5,0.2-0.7c0.1-0.3,0.2-0.7,0.3-1c0.1-0.2,0.1-0.5,0.2-0.7
			c0-0.2,0.1-0.3,0.2-0.4c0-0.1,0.1-0.1,0.1-0.2c0.1-0.2,0.3-0.3,0.5-0.4c0.2-0.1,0.4-0.1,0.5-0.1c0.8,0,1.7,0,2.5,0
			c0.3,0,0.5,0.1,0.8,0.3c0.1,0.1,0.2,0.2,0.2,0.3c0.1,0.2,0.2,0.4,0.3,0.6c0.2,0.6,0.4,1.1,0.5,1.7c0.1,0.5,0.3,1,0.4,1.4
			c0,0.2,0.1,0.4,0.2,0.5c0,0.1,0,0.1,0,0.2c0,0.3-0.1,0.4-0.3,0.5c-0.3,0.1-0.5,0-0.6-0.1c0-0.1-0.1-0.1-0.1-0.2
			c-0.1-0.4-0.3-0.9-0.4-1.3c-0.1-0.3-0.1-0.6-0.3-0.9c-0.1-0.3-0.2-0.6-0.3-0.9C86,401.4,86,401.4,85.8,401.4z"/>
		<path d="M84.4,396.7c0.2,0,0.4,0.1,0.6,0.2c0.1,0,0.1,0.1,0.2,0.1c0.3,0.1,0.4,0.3,0.4,0.6c0,0.1,0.1,0.2,0.1,0.4
			c0,0.3,0,0.6-0.1,0.8c-0.1,0.2-0.3,0.4-0.6,0.5c-0.2,0.1-0.3,0.2-0.5,0.2c-0.2,0-0.4,0-0.6-0.1c-0.3-0.1-0.5-0.3-0.6-0.6
			c-0.1-0.1-0.1-0.3-0.1-0.4c0-0.2,0-0.5,0.1-0.7c0.1-0.3,0.2-0.5,0.5-0.6c0.2-0.1,0.3-0.2,0.5-0.2
			C84.2,396.8,84.3,396.7,84.4,396.7z"/>
	</g>
	<g>
		<path d="M144.1,406.6c0,1.6,0,3.2,0,4.8c0,0.3-0.2,0.6-0.4,0.7c-0.2,0.1-0.6,0.1-0.8-0.1c-0.2-0.2-0.3-0.4-0.3-0.7
			c0-1.8,0-3.5,0-5.3c0-0.2,0-0.3-0.3-0.2c-0.1,0-0.1,0-0.1,0.1c0,0.1,0,0.1,0,0.2c0,1.7,0,3.4,0,5.1c0,0.1,0,0.2,0,0.3
			c0,0.3-0.2,0.6-0.4,0.7c-0.3,0.1-0.5,0.1-0.8-0.1c-0.2-0.2-0.3-0.4-0.3-0.7c0-3.2,0-6.3,0-9.5c0,0,0,0,0,0c0-0.2,0-0.2-0.2-0.2
			c0,0-0.1,0-0.1,0.1c0,0.1,0,0.1,0,0.2c0,1.1,0,2.2,0,3.3c0,0.2,0,0.3-0.2,0.5c-0.1,0.1-0.1,0.1-0.2,0.1c-0.2,0-0.3,0-0.5,0
			c-0.1,0-0.2-0.1-0.2-0.2c0-0.1-0.1-0.2-0.1-0.3c0-1.4,0-2.8,0-4.1c0-0.6,0.3-1,0.8-1.2c0.2-0.1,0.3-0.1,0.5-0.1c1.2,0,2.4,0,3.6,0
			c0.3,0,0.5,0.1,0.7,0.2c0.2,0.1,0.4,0.3,0.5,0.6c0.1,0.1,0.1,0.3,0.1,0.5c0,0.7,0,1.4,0,2c0,0.7,0,1.5,0,2.2c0,0.1,0,0.2,0,0.2
			c0,0.2-0.2,0.3-0.3,0.3c0,0-0.1,0-0.1,0c-0.4,0-0.7-0.2-0.7-0.6c0-1.1,0-2.2,0-3.2c0-0.1,0-0.1,0-0.2c0-0.1,0-0.1-0.1-0.1
			c-0.2,0-0.2,0-0.2,0.2C144.1,403.4,144.1,405,144.1,406.6C144.1,406.6,144.1,406.6,144.1,406.6z"/>
		<path d="M141,398.1c0.1-0.3,0-0.6,0.2-0.8c0.1-0.1,0.2-0.2,0.3-0.2c0.1-0.1,0.2-0.1,0.3-0.2c0.3-0.2,0.6-0.2,0.9-0.1
			c0.5,0.2,0.9,0.6,0.9,1.1c0,0.3,0,0.7-0.3,0.9c-0.1,0.1-0.2,0.2-0.3,0.3c-0.2,0.2-0.5,0.3-0.8,0.3c-0.3,0-0.6-0.1-0.8-0.3
			c-0.1-0.1-0.3-0.3-0.4-0.4c0,0,0-0.1-0.1-0.1C141.1,398.5,141,398.3,141,398.1z"/>
	</g>
	<g>
		<path d="M458.5,98.8c0.2,0.5,0.3,1.1,0.5,1.6c0.1,0.3,0.2,0.5,0.2,0.8c0.1,0.6,0.4,1.2,0.5,1.8c0.1,0.4,0.2,0.7,0.3,1.1
			c0,0.2,0.1,0.3,0.1,0.5c0,0.1,0,0.1-0.1,0.1c-0.2,0-0.4,0-0.7,0c-0.2,0-0.5,0-0.7,0c-0.2,0-0.2,0-0.2,0.2c0,0,0,0.1,0,0.1
			c0,1.3,0,2.6,0,3.9c0,0.2,0,0.3-0.1,0.5c-0.2,0.3-0.7,0.3-0.9,0.1c0,0-0.1-0.1-0.1-0.1c-0.1-0.1-0.1-0.2-0.1-0.3
			c0-0.1,0-0.2,0-0.2c0-1.3,0-2.6,0-3.9c0-0.2,0-0.2-0.2-0.2c0,0-0.1,0.1-0.1,0.1c0,0.1,0,0.1,0,0.2c0,1.3,0,2.6,0,3.9
			c0,0.3-0.1,0.4-0.3,0.6c-0.2,0.1-0.4,0.1-0.6,0.1c-0.2-0.1-0.3-0.3-0.4-0.5c0-0.1,0-0.1,0-0.2c0-1.3,0-2.6,0-3.8
			c0-0.1,0-0.1,0-0.2c0-0.1,0-0.1-0.1-0.1c-0.4,0-0.8,0-1.2,0c-0.1,0-0.1,0-0.2,0c-0.1,0-0.1,0-0.1-0.1c0.1-0.5,0.3-1,0.4-1.5
			c0.1-0.4,0.3-0.9,0.4-1.3c0.2-0.8,0.4-1.5,0.7-2.3c0.1-0.2,0.1-0.5,0.2-0.7c0,0,0-0.1,0-0.1c-0.1,0-0.2,0-0.2,0.1
			c-0.1,0.5-0.3,1-0.4,1.5c0,0.1-0.1,0.3-0.1,0.4c-0.1,0.3-0.2,0.6-0.3,1c0,0.1-0.1,0.2-0.1,0.3c-0.1,0.4-0.6,0.6-0.9,0.3
			c-0.2-0.1-0.2-0.3-0.1-0.5c0.1-0.4,0.3-0.8,0.4-1.3c0.1-0.2,0.1-0.5,0.2-0.7c0.1-0.3,0.2-0.7,0.3-1c0.1-0.2,0.1-0.5,0.2-0.7
			c0-0.2,0.1-0.3,0.2-0.4c0-0.1,0.1-0.1,0.1-0.2c0.1-0.2,0.3-0.3,0.5-0.4c0.2-0.1,0.4-0.1,0.5-0.1c0.8,0,1.7,0,2.5,0
			c0.3,0,0.5,0.1,0.8,0.3c0.1,0.1,0.2,0.2,0.2,0.3c0.1,0.2,0.2,0.4,0.3,0.6c0.2,0.6,0.4,1.1,0.5,1.7c0.1,0.5,0.3,1,0.4,1.4
			c0,0.2,0.1,0.4,0.2,0.5c0,0.1,0,0.1,0,0.2c0,0.3-0.1,0.4-0.3,0.5c-0.3,0.1-0.5,0-0.6-0.1c0-0.1-0.1-0.1-0.1-0.2
			c-0.1-0.4-0.3-0.9-0.4-1.3c-0.1-0.3-0.1-0.6-0.3-0.9c-0.1-0.3-0.2-0.6-0.3-0.9C458.7,98.8,458.7,98.8,458.5,98.8z"/>
		<path d="M457.1,94.1c0.2,0,0.4,0.1,0.6,0.2c0.1,0,0.1,0.1,0.2,0.1c0.3,0.1,0.4,0.3,0.4,0.6c0,0.1,0.1,0.2,0.1,0.4
			c0,0.3,0,0.6-0.1,0.8c-0.1,0.2-0.3,0.4-0.6,0.5c-0.2,0.1-0.3,0.2-0.5,0.2c-0.2,0-0.4,0-0.6-0.1c-0.3-0.1-0.5-0.3-0.6-0.6
			c-0.1-0.1-0.1-0.3-0.1-0.4c0-0.2,0-0.5,0.1-0.7c0.1-0.3,0.2-0.5,0.5-0.6c0.2-0.1,0.3-0.2,0.5-0.2C456.9,94.2,457,94.1,457.1,94.1z
			"/>
	</g>
	<g>
		<path d="M458.8,124.2c0,1.6,0,3.2,0,4.8c0,0.3-0.2,0.6-0.4,0.7c-0.2,0.1-0.6,0.1-0.8-0.1c-0.2-0.2-0.3-0.4-0.3-0.7
			c0-1.8,0-3.5,0-5.3c0-0.2,0-0.3-0.3-0.2c-0.1,0-0.1,0-0.1,0.1c0,0.1,0,0.1,0,0.2c0,1.7,0,3.4,0,5.1c0,0.1,0,0.2,0,0.3
			c0,0.3-0.2,0.6-0.4,0.7c-0.3,0.1-0.5,0.1-0.8-0.1c-0.2-0.2-0.3-0.4-0.3-0.7c0-3.2,0-6.3,0-9.5c0,0,0,0,0,0c0-0.2,0-0.2-0.2-0.2
			c0,0-0.1,0-0.1,0.1c0,0.1,0,0.1,0,0.2c0,1.1,0,2.2,0,3.3c0,0.2,0,0.3-0.2,0.5c-0.1,0.1-0.1,0.1-0.2,0.1c-0.2,0-0.3,0-0.5,0
			c-0.1,0-0.2-0.1-0.2-0.2c0-0.1-0.1-0.2-0.1-0.3c0-1.4,0-2.8,0-4.1c0-0.6,0.3-1,0.8-1.2c0.2-0.1,0.3-0.1,0.5-0.1c1.2,0,2.4,0,3.6,0
			c0.3,0,0.5,0.1,0.7,0.2c0.2,0.1,0.4,0.3,0.5,0.6c0.1,0.1,0.1,0.3,0.1,0.5c0,0.7,0,1.4,0,2c0,0.7,0,1.5,0,2.2c0,0.1,0,0.2,0,0.2
			c0,0.2-0.2,0.3-0.3,0.3c0,0-0.1,0-0.1,0c-0.4,0-0.7-0.2-0.7-0.6c0-1.1,0-2.2,0-3.2c0-0.1,0-0.1,0-0.2c0-0.1,0-0.1-0.1-0.1
			c-0.2,0-0.2,0-0.2,0.2C458.8,120.9,458.8,122.6,458.8,124.2C458.8,124.2,458.8,124.2,458.8,124.2z"/>
		<path d="M455.7,115.6c0.1-0.3,0-0.6,0.2-0.8c0.1-0.1,0.2-0.2,0.3-0.2c0.1-0.1,0.2-0.1,0.3-0.2c0.3-0.2,0.6-0.2,0.9-0.1
			c0.5,0.2,0.9,0.6,0.9,1.1c0,0.3,0,0.7-0.3,0.9c-0.1,0.1-0.2,0.2-0.3,0.3c-0.2,0.2-0.5,0.3-0.8,0.3c-0.3,0-0.6-0.1-0.8-0.3
			c-0.1-0.1-0.3-0.3-0.4-0.4c0,0,0-0.1-0.1-0.1C455.8,116,455.7,115.8,455.7,115.6z"/>
	</g>
	<g>
		<path d="M457.1,56.9c1.7,0,3.5,0,5.2,0c0.7,0,1.3,0.2,1.8,0.7c0.8,0.8,1.3,1.7,1.3,2.9c0,3.2,0,6.4,0,9.5c0,0.7-0.2,1.4-0.6,2
			c-0.3,0.4-0.6,0.8-1.1,1.1c-0.4,0.3-0.9,0.4-1.4,0.5c-0.1,0-0.3,0-0.5,0c-2.6,0-5.1,0-7.7,0c-0.6,0-1.1,0-1.7,0
			c-1.1,0-1.9-0.4-2.7-1.1c-0.3-0.3-0.6-0.6-0.7-1c-0.1-0.4-0.2-0.8-0.2-1.3c0-3.3,0-6.6,0-9.9c0-1.2,0.6-2.2,1.7-2.9
			c0.5-0.3,1-0.4,1.5-0.4C453.7,56.9,455.4,56.9,457.1,56.9C457.1,56.9,457.1,56.9,457.1,56.9z M457,72.1
			C457,72.1,457,72.1,457,72.1c0.1,0,0.1,0,0.2,0c1.6,0,3.2,0,4.8,0c0.4,0,0.7-0.1,1-0.3c0.7-0.5,1.1-1.1,1.1-1.9c0-2.2,0-4.4,0-6.6
			c0-1,0-2,0-3c0-0.4-0.1-0.8-0.3-1.1c-0.4-0.7-1.1-1.1-2-1.1c-2.6,0-5.2,0-7.8,0c-0.6,0-1.3,0-1.9,0c-0.5,0-1,0.2-1.4,0.5
			c-0.5,0.4-0.7,1-0.7,1.6c0,3.1,0,6.3,0,9.4c0,0.4,0.1,0.8,0.2,1.1c0.1,0.2,0.3,0.4,0.4,0.6c0.1,0.2,0.3,0.3,0.5,0.5
			c0.3,0.2,0.6,0.2,1,0.2C453.7,72.1,455.4,72.1,457,72.1z"/>
		<path d="M452.7,70.3c-0.3,0-0.7,0-1,0c-0.2,0-0.3-0.1-0.3-0.3c0,0,0-0.1,0-0.1c0-0.7-0.1-0.6,0.5-0.6c0.3,0,0.6,0,0.9,0
			c0.3,0,0.3,0,0.3-0.3c0-0.5,0-1,0-1.5c0-0.4,0-0.4,0.4-0.4c0.4,0,0.7,0,1.1,0c0.2,0,0.3,0,0.3-0.3c0-0.4,0-0.8,0-1.2
			c0-0.2,0-0.2,0.2-0.2c0.4,0,0.9,0,1.3,0c0.1,0,0.2-0.1,0.2-0.2c0-0.4,0-0.9,0-1.3c0-0.2,0-0.2,0.2-0.2c0.4,0,0.8,0,1.2,0
			c0.2,0,0.3,0,0.3-0.3c0-0.4,0-0.8,0-1.2c0-0.2,0-0.2,0.2-0.2c0.4,0,0.8,0,1.2,0c0.3,0,0.3,0,0.3-0.3c0-0.4,0-0.8,0-1.2
			c0-0.2,0-0.2,0.3-0.2c0.7,0,1.4,0,2.1,0c0.2,0,0.3,0,0.3,0.2c0,0.7,0,0.7-0.7,0.7c-0.3,0-0.6,0-0.9,0c-0.1,0-0.2,0-0.2,0.2
			c0,0.4,0,0.9,0,1.3c0,0.2,0,0.2-0.2,0.2c-0.4,0-0.9,0-1.3,0c-0.1,0-0.2,0.1-0.2,0.2c0,0.4,0,0.8,0,1.3c0,0.3,0,0.3-0.3,0.3
			c-0.4,0-0.8,0-1.1,0c-0.3,0-0.3-0.1-0.3,0.3c0,0.4,0,0.8,0,1.2c0,0.2-0.1,0.3-0.3,0.3c-0.1,0-0.1,0-0.2,0c-0.4,0-0.7,0-1.1,0.1
			c-0.1,0-0.2,0.1-0.2,0.2c0,0.4,0,0.8,0,1.3c0,0.3,0,0.3-0.3,0.3c-0.4-0.1-0.8,0-1.2,0c-0.1,0-0.2,0.1-0.2,0.2c0,0.5,0,1,0,1.5
			c0,0.4,0,0.4-0.4,0.4C453.3,70.3,453,70.3,452.7,70.3C452.7,70.3,452.7,70.3,452.7,70.3z"/>
	</g>
	<g>
		<path d="M417.2,115.2c1.7,0,3.5,0,5.2,0c0.7,0,1.3,0.2,1.8,0.7c0.8,0.8,1.3,1.7,1.3,2.9c0,3.2,0,6.4,0,9.5c0,0.7-0.2,1.4-0.6,2
			c-0.3,0.4-0.6,0.8-1.1,1.1c-0.4,0.3-0.9,0.4-1.4,0.5c-0.1,0-0.3,0-0.5,0c-2.6,0-5.1,0-7.7,0c-0.6,0-1.1,0-1.7,0
			c-1.1,0-1.9-0.4-2.7-1.1c-0.3-0.3-0.6-0.6-0.7-1c-0.1-0.4-0.2-0.8-0.2-1.3c0-3.3,0-6.6,0-9.9c0-1.2,0.6-2.2,1.7-2.9
			c0.5-0.3,1-0.4,1.5-0.4C413.8,115.2,415.5,115.1,417.2,115.2C417.2,115.2,417.2,115.2,417.2,115.2z M417.1,130.4
			C417.1,130.4,417.1,130.4,417.1,130.4c0.1,0,0.1,0,0.2,0c1.6,0,3.2,0,4.8,0c0.4,0,0.7-0.1,1-0.3c0.7-0.5,1.1-1.1,1.1-1.9
			c0-2.2,0-4.4,0-6.6c0-1,0-2,0-3c0-0.4-0.1-0.8-0.3-1.1c-0.4-0.7-1.1-1.1-2-1.1c-2.6,0-5.2,0-7.8,0c-0.6,0-1.3,0-1.9,0
			c-0.5,0-1,0.2-1.4,0.5c-0.5,0.4-0.7,1-0.7,1.6c0,3.1,0,6.3,0,9.4c0,0.4,0.1,0.8,0.2,1.1c0.1,0.2,0.3,0.4,0.4,0.6
			c0.1,0.2,0.3,0.3,0.5,0.5c0.3,0.2,0.6,0.2,1,0.2C413.8,130.4,415.5,130.4,417.1,130.4z"/>
		<path d="M412.8,128.6c-0.3,0-0.7,0-1,0c-0.2,0-0.3-0.1-0.3-0.3c0,0,0-0.1,0-0.1c0-0.7-0.1-0.6,0.5-0.6c0.3,0,0.6,0,0.9,0
			c0.3,0,0.3,0,0.3-0.3c0-0.5,0-1,0-1.5c0-0.4,0-0.4,0.4-0.4c0.4,0,0.7,0,1.1,0c0.2,0,0.3,0,0.3-0.3c0-0.4,0-0.8,0-1.2
			c0-0.2,0-0.2,0.2-0.2c0.4,0,0.9,0,1.3,0c0.1,0,0.2-0.1,0.2-0.2c0-0.4,0-0.9,0-1.3c0-0.2,0-0.2,0.2-0.2c0.4,0,0.8,0,1.2,0
			c0.2,0,0.3,0,0.3-0.3c0-0.4,0-0.8,0-1.2c0-0.2,0-0.2,0.2-0.2c0.4,0,0.8,0,1.2,0c0.3,0,0.3,0,0.3-0.3c0-0.4,0-0.8,0-1.2
			c0-0.2,0-0.2,0.3-0.2c0.7,0,1.4,0,2.1,0c0.2,0,0.3,0,0.3,0.2c0,0.7,0,0.7-0.7,0.7c-0.3,0-0.6,0-0.9,0c-0.1,0-0.2,0-0.2,0.2
			c0,0.4,0,0.9,0,1.3c0,0.2,0,0.2-0.2,0.2c-0.4,0-0.9,0-1.3,0c-0.1,0-0.2,0.1-0.2,0.2c0,0.4,0,0.8,0,1.3c0,0.3,0,0.3-0.3,0.3
			c-0.4,0-0.8,0-1.1,0c-0.3,0-0.3-0.1-0.3,0.3c0,0.4,0,0.8,0,1.2c0,0.2-0.1,0.3-0.3,0.3c-0.1,0-0.1,0-0.2,0c-0.4,0-0.7,0-1.1,0.1
			c-0.1,0-0.2,0.1-0.2,0.2c0,0.4,0,0.8,0,1.3c0,0.3,0,0.3-0.3,0.3c-0.4-0.1-0.8,0-1.2,0c-0.1,0-0.2,0.1-0.2,0.2c0,0.5,0,1,0,1.5
			c0,0.4,0,0.4-0.4,0.4C413.5,128.6,413.1,128.6,412.8,128.6C412.8,128.6,412.8,128.6,412.8,128.6z"/>
	</g>
	<g>
		<path d="M189.6,113.2c1.7,0,3.5,0,5.2,0c0.7,0,1.3,0.2,1.8,0.7c0.8,0.8,1.3,1.7,1.3,2.9c0,3.2,0,6.4,0,9.5c0,0.7-0.2,1.4-0.6,2
			c-0.3,0.4-0.6,0.8-1.1,1.1c-0.4,0.3-0.9,0.4-1.4,0.5c-0.1,0-0.3,0-0.5,0c-2.6,0-5.1,0-7.7,0c-0.6,0-1.1,0-1.7,0
			c-1.1,0-1.9-0.4-2.7-1.1c-0.3-0.3-0.6-0.6-0.7-1c-0.1-0.4-0.2-0.8-0.2-1.3c0-3.3,0-6.6,0-9.9c0-1.2,0.6-2.2,1.7-2.9
			c0.5-0.3,1-0.4,1.5-0.4C186.2,113.2,187.9,113.2,189.6,113.2C189.6,113.2,189.6,113.2,189.6,113.2z M189.6,128.5
			C189.6,128.5,189.6,128.5,189.6,128.5c0.1,0,0.1,0,0.2,0c1.6,0,3.2,0,4.8,0c0.4,0,0.7-0.1,1-0.3c0.7-0.5,1.1-1.1,1.1-1.9
			c0-2.2,0-4.4,0-6.6c0-1,0-2,0-3c0-0.4-0.1-0.8-0.3-1.1c-0.4-0.7-1.1-1.1-2-1.1c-2.6,0-5.2,0-7.8,0c-0.6,0-1.3,0-1.9,0
			c-0.5,0-1,0.2-1.4,0.5c-0.5,0.4-0.7,1-0.7,1.6c0,3.1,0,6.3,0,9.4c0,0.4,0.1,0.8,0.2,1.1c0.1,0.2,0.3,0.4,0.4,0.6
			c0.1,0.2,0.3,0.3,0.5,0.5c0.3,0.2,0.6,0.2,1,0.2C186.3,128.5,187.9,128.5,189.6,128.5z"/>
		<path d="M185.3,126.7c-0.3,0-0.7,0-1,0c-0.2,0-0.3-0.1-0.3-0.3c0,0,0-0.1,0-0.1c0-0.7-0.1-0.6,0.5-0.6c0.3,0,0.6,0,0.9,0
			c0.3,0,0.3,0,0.3-0.3c0-0.5,0-1,0-1.5c0-0.4,0-0.4,0.4-0.4c0.4,0,0.7,0,1.1,0c0.2,0,0.3,0,0.3-0.3c0-0.4,0-0.8,0-1.2
			c0-0.2,0-0.2,0.2-0.2c0.4,0,0.9,0,1.3,0c0.1,0,0.2-0.1,0.2-0.2c0-0.4,0-0.9,0-1.3c0-0.2,0-0.2,0.2-0.2c0.4,0,0.8,0,1.2,0
			c0.2,0,0.3,0,0.3-0.3c0-0.4,0-0.8,0-1.2c0-0.2,0-0.2,0.2-0.2c0.4,0,0.8,0,1.2,0c0.3,0,0.3,0,0.3-0.3c0-0.4,0-0.8,0-1.2
			c0-0.2,0-0.2,0.3-0.2c0.7,0,1.4,0,2.1,0c0.2,0,0.3,0,0.3,0.2c0,0.7,0,0.7-0.7,0.7c-0.3,0-0.6,0-0.9,0c-0.1,0-0.2,0-0.2,0.2
			c0,0.4,0,0.9,0,1.3c0,0.2,0,0.2-0.2,0.2c-0.4,0-0.9,0-1.3,0c-0.1,0-0.2,0.1-0.2,0.2c0,0.4,0,0.8,0,1.3c0,0.3,0,0.3-0.3,0.3
			c-0.4,0-0.8,0-1.1,0c-0.3,0-0.3-0.1-0.3,0.3c0,0.4,0,0.8,0,1.2c0,0.2-0.1,0.3-0.3,0.3c-0.1,0-0.1,0-0.2,0c-0.4,0-0.7,0-1.1,0.1
			c-0.1,0-0.2,0.1-0.2,0.2c0,0.4,0,0.8,0,1.3c0,0.3,0,0.3-0.3,0.3c-0.4-0.1-0.8,0-1.2,0c-0.1,0-0.2,0.1-0.2,0.2c0,0.5,0,1,0,1.5
			c0,0.4,0,0.4-0.4,0.4C185.9,126.7,185.6,126.7,185.3,126.7C185.3,126.7,185.3,126.7,185.3,126.7z"/>
	</g>
	<g>
		<path d="M36.7,365.2c1.7,0,3.5,0,5.2,0c0.7,0,1.3,0.2,1.8,0.7c0.8,0.8,1.3,1.7,1.3,2.9c0,3.2,0,6.4,0,9.5c0,0.7-0.2,1.4-0.6,2
			c-0.3,0.4-0.6,0.8-1.1,1.1c-0.4,0.3-0.9,0.4-1.4,0.5c-0.1,0-0.3,0-0.5,0c-2.6,0-5.1,0-7.7,0c-0.6,0-1.1,0-1.7,0
			c-1.1,0-1.9-0.4-2.7-1.1c-0.3-0.3-0.6-0.6-0.7-1c-0.1-0.4-0.2-0.8-0.2-1.3c0-3.3,0-6.6,0-9.9c0-1.2,0.6-2.2,1.7-2.9
			c0.5-0.3,1-0.4,1.5-0.4C33.3,365.2,35,365.2,36.7,365.2C36.7,365.2,36.7,365.2,36.7,365.2z M36.7,380.5
			C36.7,380.5,36.7,380.5,36.7,380.5c0.1,0,0.1,0,0.2,0c1.6,0,3.2,0,4.8,0c0.4,0,0.7-0.1,1-0.3c0.7-0.5,1.1-1.1,1.1-1.9
			c0-2.2,0-4.4,0-6.6c0-1,0-2,0-3c0-0.4-0.1-0.8-0.3-1.1c-0.4-0.7-1.1-1.1-2-1.1c-2.6,0-5.2,0-7.8,0c-0.6,0-1.3,0-1.9,0
			c-0.5,0-1,0.2-1.4,0.5c-0.5,0.4-0.7,1-0.7,1.6c0,3.1,0,6.3,0,9.4c0,0.4,0.1,0.8,0.2,1.1c0.1,0.2,0.3,0.4,0.4,0.6
			c0.1,0.2,0.3,0.3,0.5,0.5c0.3,0.2,0.6,0.2,1,0.2C33.4,380.5,35,380.5,36.7,380.5z"/>
		<path d="M32.4,378.7c-0.3,0-0.7,0-1,0c-0.2,0-0.3-0.1-0.3-0.3c0,0,0-0.1,0-0.1c0-0.7-0.1-0.6,0.5-0.6c0.3,0,0.6,0,0.9,0
			c0.3,0,0.3,0,0.3-0.3c0-0.5,0-1,0-1.5c0-0.4,0-0.4,0.4-0.4c0.4,0,0.7,0,1.1,0c0.2,0,0.3,0,0.3-0.3c0-0.4,0-0.8,0-1.2
			c0-0.2,0-0.2,0.2-0.2c0.4,0,0.9,0,1.3,0c0.1,0,0.2-0.1,0.2-0.2c0-0.4,0-0.9,0-1.3c0-0.2,0-0.2,0.2-0.2c0.4,0,0.8,0,1.2,0
			c0.2,0,0.3,0,0.3-0.3c0-0.4,0-0.8,0-1.2c0-0.2,0-0.2,0.2-0.2c0.4,0,0.8,0,1.2,0c0.3,0,0.3,0,0.3-0.3c0-0.4,0-0.8,0-1.2
			c0-0.2,0-0.2,0.3-0.2c0.7,0,1.4,0,2.1,0c0.2,0,0.3,0,0.3,0.2c0,0.7,0,0.7-0.7,0.7c-0.3,0-0.6,0-0.9,0c-0.1,0-0.2,0-0.2,0.2
			c0,0.4,0,0.9,0,1.3c0,0.2,0,0.2-0.2,0.2c-0.4,0-0.9,0-1.3,0c-0.1,0-0.2,0.1-0.2,0.2c0,0.4,0,0.8,0,1.3c0,0.3,0,0.3-0.3,0.3
			c-0.4,0-0.8,0-1.1,0c-0.3,0-0.3-0.1-0.3,0.3c0,0.4,0,0.8,0,1.2c0,0.2-0.1,0.3-0.3,0.3c-0.1,0-0.1,0-0.2,0c-0.4,0-0.7,0-1.1,0.1
			c-0.1,0-0.2,0.1-0.2,0.2c0,0.4,0,0.8,0,1.3c0,0.3,0,0.3-0.3,0.3c-0.4-0.1-0.8,0-1.2,0c-0.1,0-0.2,0.1-0.2,0.2c0,0.5,0,1,0,1.5
			c0,0.4,0,0.4-0.4,0.4C33,378.7,32.7,378.7,32.4,378.7C32.4,378.7,32.4,378.7,32.4,378.7z"/>
	</g>
	<g>
		<path d="M265.8,365.2c1.7,0,3.5,0,5.2,0c0.7,0,1.3,0.2,1.8,0.7c0.8,0.8,1.3,1.7,1.3,2.9c0,3.2,0,6.4,0,9.5c0,0.7-0.2,1.4-0.6,2
			c-0.3,0.4-0.6,0.8-1.1,1.1c-0.4,0.3-0.9,0.4-1.4,0.5c-0.1,0-0.3,0-0.5,0c-2.6,0-5.1,0-7.7,0c-0.6,0-1.1,0-1.7,0
			c-1.1,0-1.9-0.4-2.7-1.1c-0.3-0.3-0.6-0.6-0.7-1c-0.1-0.4-0.2-0.8-0.2-1.3c0-3.3,0-6.6,0-9.9c0-1.2,0.6-2.2,1.7-2.9
			c0.5-0.3,1-0.4,1.5-0.4C262.3,365.2,264,365.2,265.8,365.2C265.8,365.2,265.8,365.2,265.8,365.2z M265.7,380.5
			C265.7,380.5,265.7,380.5,265.7,380.5c0.1,0,0.1,0,0.2,0c1.6,0,3.2,0,4.8,0c0.4,0,0.7-0.1,1-0.3c0.7-0.5,1.1-1.1,1.1-1.9
			c0-2.2,0-4.4,0-6.6c0-1,0-2,0-3c0-0.4-0.1-0.8-0.3-1.1c-0.4-0.7-1.1-1.1-2-1.1c-2.6,0-5.2,0-7.8,0c-0.6,0-1.3,0-1.9,0
			c-0.5,0-1,0.2-1.4,0.5c-0.5,0.4-0.7,1-0.7,1.6c0,3.1,0,6.3,0,9.4c0,0.4,0.1,0.8,0.2,1.1c0.1,0.2,0.3,0.4,0.4,0.6
			c0.1,0.2,0.3,0.3,0.5,0.5c0.3,0.2,0.6,0.2,1,0.2C262.4,380.5,264.1,380.5,265.7,380.5z"/>
		<path d="M261.4,378.7c-0.3,0-0.7,0-1,0c-0.2,0-0.3-0.1-0.3-0.3c0,0,0-0.1,0-0.1c0-0.7-0.1-0.6,0.5-0.6c0.3,0,0.6,0,0.9,0
			c0.3,0,0.3,0,0.3-0.3c0-0.5,0-1,0-1.5c0-0.4,0-0.4,0.4-0.4c0.4,0,0.7,0,1.1,0c0.2,0,0.3,0,0.3-0.3c0-0.4,0-0.8,0-1.2
			c0-0.2,0-0.2,0.2-0.2c0.4,0,0.9,0,1.3,0c0.1,0,0.2-0.1,0.2-0.2c0-0.4,0-0.9,0-1.3c0-0.2,0-0.2,0.2-0.2c0.4,0,0.8,0,1.2,0
			c0.2,0,0.3,0,0.3-0.3c0-0.4,0-0.8,0-1.2c0-0.2,0-0.2,0.2-0.2c0.4,0,0.8,0,1.2,0c0.3,0,0.3,0,0.3-0.3c0-0.4,0-0.8,0-1.2
			c0-0.2,0-0.2,0.3-0.2c0.7,0,1.4,0,2.1,0c0.2,0,0.3,0,0.3,0.2c0,0.7,0,0.7-0.7,0.7c-0.3,0-0.6,0-0.9,0c-0.1,0-0.2,0-0.2,0.2
			c0,0.4,0,0.9,0,1.3c0,0.2,0,0.2-0.2,0.2c-0.4,0-0.9,0-1.3,0c-0.1,0-0.2,0.1-0.2,0.2c0,0.4,0,0.8,0,1.3c0,0.3,0,0.3-0.3,0.3
			c-0.4,0-0.8,0-1.1,0c-0.3,0-0.3-0.1-0.3,0.3c0,0.4,0,0.8,0,1.2c0,0.2-0.1,0.3-0.3,0.3c-0.1,0-0.1,0-0.2,0c-0.4,0-0.7,0-1.1,0.1
			c-0.1,0-0.2,0.1-0.2,0.2c0,0.4,0,0.8,0,1.3c0,0.3,0,0.3-0.3,0.3c-0.4-0.1-0.8,0-1.2,0c-0.1,0-0.2,0.1-0.2,0.2c0,0.5,0,1,0,1.5
			c0,0.4,0,0.4-0.4,0.4C262,378.7,261.7,378.7,261.4,378.7C261.4,378.7,261.4,378.7,261.4,378.7z"/>
	</g>
</g>
<g id="Layer_4">
	<rect id="Background" width="166.7" height="57.7"/>
	<text id="GroupLabel" transform="matrix(1 0 0 1 100.5996 31.8616)" class="st4 st1 st7">Group</text>
	<g>
		<path class="st4" d="M70.5,24.3c1.4,0.2,2.7,0.1,3.9,0.7c0.8,0.4,1.6,0.5,2.5,0.6c1.6,0.3,3.1,0.8,4.6,1.3c1,0.4,1,0.4,2,0.3
			c0,3.9,0,7.7,0,11.7c-5.4,0-10.8,0-16.3,0c0.5-0.3,1-0.6,1.5-0.9v-0.1c-0.4-0.1-0.9,0-1.3-0.2c-0.5-0.2-0.9-0.5-1.3-0.8
			C65.9,36.7,66,36.3,66,36c0-0.4-0.4-0.6-0.6-0.9c0,0-0.2,0-0.3,0c-0.4,0.2-0.8,0.5-1.2,0.7c-0.2,0.1-0.4,0.1-0.6,0
			c-1.2-0.4-2.1-1.3-2.9-2.2c-0.2-0.2-0.4-0.3-0.7-0.2c-0.6,0.3-1,0.1-1.5-0.3c-0.4-0.4-1-0.8-1.5-1.2c-0.2-0.2-0.3-0.3-0.1-0.5
			c0.2-0.3,0.2-0.6-0.1-0.9c-0.1-0.1-0.1-0.3-0.1-0.5c0.1-0.6,0.3-1.2,0.5-1.8c0-0.1,0.2-0.3,0.3-0.4s0.3-0.3,0.4-0.4
			c0.5-0.3,0.8-0.7,0.5-1.4c-0.1-0.2,0.1-0.6,0.1-1c0.2,0.3,0.4,0.5,0.5,0.7c0.3-0.5,0.7-0.9,0.9-1.3c0.1-0.2,0.1-0.5,0-0.7
			s-0.3-0.2-0.6-0.4c0.2-1.1,0.4-2.3,0.7-3.5c1.7,0.8,3.3,1.8,4.6,3c0.4,0.3,0.8,0.6,1.3,0.7c0.2,0.1,0.4,0.3,0.6,0.4
			c0.5,0.5,1,1,1.7,1.2c0.6,0.2,0.6,0.3,0.8,1c-1.2-0.6-2.3-1.2-3.6-1.8c0.8,0.8,1.4,1.8,2.5,2.3c0.8,0.3,1.5,0.6,2.3,0.6
			c1.5,0,2.8,0.4,4.2,0.8c0.7,0.2,1.4,0.4,2,0.5c0,0,0-0.1,0.1-0.1c-0.4-0.3-0.8-0.6-1.1-0.9c-0.1-0.1-0.3-0.3-0.3-0.4
			c-0.1-0.4-0.3-0.6-0.6-0.8c-0.7-0.6-1.5-1-2.5-1.2C71.2,25.2,70.8,24.9,70.5,24.3z"/>
		<path class="st4" d="M58.7,10.4c0.7,0.2,1.4,0.3,2,0.5v-0.1c-0.5-0.3-0.9-0.6-1.4-0.9V9.8c0.3,0.1,0.7,0.1,1,0.2
			c7.6,4.4,15.2,8.8,22.7,13.2c0.3,0.2,0.4,0.4,0.4,0.7c0,0.9,0,1.8,0,2.8c-0.1,0-0.2,0-0.3-0.1c-1.4-0.4-2.7-0.9-4.1-1.3
			c-0.4-0.1-0.7-0.3-1-0.5c-2.9-1.5-5.8-3-8.6-4.6c-0.8-0.4-1.5-1.1-2.2-1.7c-1.9-1.5-3.8-3.1-5.7-4.6c-0.8-0.7-1.8-1.1-2.7-1.7
			c-0.2-0.1-0.3-0.3-0.3-0.5C58.6,11.2,58.6,10.8,58.7,10.4z"/>
		<path class="st4" d="M38.5,29.7c0,0.7,0,1.2,0,1.8c0,0.1-0.2,0.2-0.3,0.3c-1.3,0.8-2.7,1.2-4.3,1.3c-2,0.2-3.9,0.1-5.8-0.6
			c-3.2-1.2-5-3.5-5.7-6.8c-0.4-2.1-0.3-4.2,0.5-6.2c1.2-3.2,3.7-5.1,7-5.8c3-0.7,6-0.3,8.8,0.9c0.1,0,0.2,0.1,0.3,0.1
			c-0.2,0.6-0.4,1.3-0.5,1.9c-0.1,0.3-0.3,0.3-0.5,0.1c-0.3-0.2-0.6-0.5-0.8-0.7c-1.6-1.2-3.4-1.5-5.4-1.3c-3.5,0.4-5.8,2.9-6.5,6.5
			c-0.4,2.3-0.3,4.5,0.7,6.7c1.2,2.7,3.3,4.1,6.2,4.3c2.3,0.1,4.2-0.6,5.9-2.1C38.2,29.9,38.3,29.8,38.5,29.7z"/>
		<path class="st4" d="M13.7,33.2c-1.4,0-2.6-0.3-3.8-1c-0.4-0.2-0.9-0.4-1-0.7c-0.1-0.3,0.1-0.8,0.2-1.2c0.1-0.4,0.2-0.7,0.3-1.1
			c0-0.1,0.1-0.2,0.1-0.2c0.1,0.1,0.2,0.1,0.2,0.2c0.5,0.6,0.8,1.2,1.4,1.7c2.1,1.9,6.1,1.2,6.9-2.1c0.4-1.5,0-2.8-1.3-3.7
			c-0.7-0.5-1.5-0.8-2.2-1.2c-0.8-0.4-1.6-0.7-2.4-1.1c-1.9-1-2.9-2.6-2.7-4.8s1.5-3.8,3.6-4.4c1.7-0.5,3.5-0.6,5.2,0.1
			c0.4,0.2,0.8,0.5,1.3,0.7c0.2,0.1,0.2,0.2,0.1,0.4c-0.2,0.6-0.4,1.2-0.6,1.7c0,0.1-0.2,0.2-0.2,0.3c-0.1-0.1-0.2-0.2-0.2-0.3
			c-0.5-1.2-1.4-2-2.7-2.1c-1.5-0.2-2.7,0.2-3.6,1.4c-1,1.4-0.7,3.4,0.8,4.4c0.7,0.5,1.6,0.8,2.4,1.2c0.9,0.4,1.8,0.7,2.6,1.2
			c1.8,1,2.7,2.6,2.6,4.7c-0.1,2.2-1.1,3.9-3.1,4.9C16.2,32.9,15.2,33.1,13.7,33.2z"/>
		<path class="st4" d="M7.6,39c0.8-1.1,1.5-2.1,2.2-3.1c0.1-0.1,0.3-0.2,0.4-0.2c0.8,0,1.5-0.1,2.3-0.1c0.7,0,1.3-0.1,1.9-0.3
			c1.2-0.4,2.4-0.8,3.6-1.1c0.2-0.1,0.4-0.2,0.5-0.4c0.3-1,1-1.7,1.9-2.2c1.1-0.6,2.1-1.3,3.1-2c0.8,1.1,1.8,2,3,2.7
			c-1.1,1.5-2.3,2.7-3.7,3.9c-0.8,0.7-1.6,1.2-2.7,1.1c-1.1-0.1-2,0.3-2.7,1.2c-0.3,0.4-0.7,0.5-1.2,0.5c-2.7,0-5.4,0-8.1,0
			C8,39,7.9,39,7.6,39z"/>
		<path class="st4" d="M41.2,13.8c0.8,0,1.7,0,2.5,0c0,6.4,0,12.7,0,19.1c-0.8,0-1.6,0-2.5,0C41.2,26.5,41.2,20.2,41.2,13.8z"/>
		<path class="st4" d="M40.7,18.9c0,0.5,0,0.9,0,1.4c0,0.8,0,1.5,0,2.3c0,0.3-0.1,0.5-0.3,0.7c-1.2,1-2.3,2.1-3.4,3.2
			c-0.3,0.3-0.5,0.6-0.7,0.9c-0.2,0.4-0.4,0.9-0.6,1.3c-0.1,0.2-0.3,0.4-0.5,0.6c-0.2-0.4-0.3-0.8-0.5-1.1c-0.4,0.1-0.8,0.2-1.2,0.4
			c0-1.2,0-2.4,0-3.7c-0.3,0-0.5,0-0.8,0c0.5-0.6,1-1.2,1.4-1.8c0.1-0.1,0.3-0.1,0.5-0.1c0.8,0,0.9,0,1.1-0.8
			c0.1-0.4,0.4-0.8,0.6-1.1c0.8-1,1.8-1.6,3-1.8C39.8,19.2,40.2,19,40.7,18.9z"/>
		<path class="st4" d="M57,24.7c-0.5,0.4-0.9,0.9-1.4,1.3c-0.2,0.2-0.3,0.4-0.2,0.6c0.2,1.5,0.4,2.9,0.6,4.4c0,0.2-0.1,0.4-0.2,0.5
			c-0.2,0.3-0.5,0.5-0.7,0.7c-0.4,0.4-0.8,0.6-1.4,0.5c-0.9-0.1-1.7,0.2-2.3,0.9c-0.9,0.9-2,1.7-3,2.6c-0.2,0.2-0.4,0.3-0.6,0.4
			c-0.8,0.4-1.6,0.7-2.4,1c-0.4,0.2-0.7,0.4-0.7,0.8c0,0.3-0.2,0.4-0.5,0.4c-0.8,0-1.5,0-2.3,0c0.6-0.4,1.1-1,1.9-1.1
			c0.5-0.1,0.8-0.3,1.1-0.6c2.1-1.8,4.2-3.7,6.3-5.5c0.1-0.1,0.2-0.3,0.3-0.5s0.2-0.4,0.3-0.5c0.6-0.7,1.3-1.3,1.9-2
			c0.2-0.2,0.3-0.4,0.3-0.6c0.2-0.6,0.3-1.3,0.5-1.9c0-0.1,0.1-0.2,0.1-0.3C55.4,25.4,56.1,25,57,24.7C56.9,24.6,56.9,24.7,57,24.7z
			"/>
		<path class="st4" d="M45.1,31.8c1.5-1.7,3-3.3,4.5-5c0.5-0.5,0.9-1.1,1.2-1.7c0.1-0.2,0-0.6,0.1-0.9c0-0.2,0.1-0.4,0.2-0.5
			c1.2-1.1,2.5-2.1,3.7-3.2c0.1-0.1,0.2-0.2,0.4-0.2c0.8-0.1,1.6-0.3,2.5-0.3c-1,0.7-1.9,1.3-2.9,2c0.1,0.1,0.2,0.1,0.3,0.2
			c0.5,0.3,0.5,0.3,0.3,0.9s-0.5,1-1,1.4c-2,1.7-3.9,3.4-5.9,5C47.3,30.4,46.2,31.1,45.1,31.8C45.1,31.9,45.1,31.9,45.1,31.8z"/>
		<path class="st4" d="M55.4,39c0.5-0.6,1-1.1,1.5-1.6c0.1-0.1,0.2-0.1,0.3-0.1c1.8-0.4,3.6-0.9,5.5-1.3c0.1,0,0.3,0,0.4,0.1
			c0.5,0.8,1.1,1.5,1.6,2.3c-0.7,0.3-1.3,0.6-2,0.6c-2.2,0-4.5,0-6.7,0C55.8,39,55.6,39,55.4,39z"/>
		<path class="st4" d="M76.1,43.5c0-1.2,0-2.4,0-3.5c0.3,0,0.5,0,0.8,0c0,2.5,0,5,0,7.6c-0.3,0-0.5,0-0.8,0c0-0.2,0-0.4-0.1-0.7
			c-0.1,0-0.1-0.1-0.2-0.1c-0.1,0.1-0.1,0.3-0.2,0.4c-1,1-2.6,0.7-3.2-0.5c-0.5-0.9-0.4-1.9,0-2.9C73.2,42.6,75,42.1,76.1,43.5z
			 M73.2,45.2c0.1,0.4,0.1,0.8,0.2,1.2c0.2,0.5,0.5,0.9,1,0.9c0.6,0.1,1.1-0.2,1.4-0.7c0.4-0.8,0.5-1.7,0.1-2.6
			c-0.2-0.5-0.6-0.9-1.2-0.9s-1.1,0.3-1.3,0.9C73.3,44.4,73.3,44.8,73.2,45.2z"/>
		<path class="st4" d="M30.5,47.6c-0.4-1.2-0.8-2.4-1.2-3.6c-0.1,0.2-0.1,0.3-0.2,0.4c-0.4,1-0.8,2-1.1,2.9
			c-0.1,0.2-0.2,0.3-0.5,0.3c-0.2,0-0.3-0.1-0.4-0.3c-0.5-1.4-1-2.8-1.5-4.3c0-0.1,0-0.2-0.1-0.3c0.1,0,0.1,0,0.1,0
			c0.7,0,0.7,0,0.9,0.6c0.4,1,0.7,2.1,1.1,3.2c0.1-0.2,0.1-0.4,0.2-0.5c0.3-1,0.6-1.9,1-2.9c0.1-0.2,0.1-0.5,0.5-0.4
			c0.4,0,0.4,0.2,0.5,0.4c0.3,1,0.7,2,1,3c0,0.1,0.1,0.2,0.1,0.4c0.1-0.2,0.1-0.3,0.2-0.5c0.4-1,0.7-1.9,1.1-2.9
			c0.2-0.5,0.2-0.5,0.8-0.5c-0.1,0.1-0.1,0.3-0.1,0.4c-0.6,1.3-1.2,2.6-1.7,4C31.1,47.6,30.9,47.7,30.5,47.6z"/>
		<path class="st4" d="M15,46.5c0.1-0.1,0.1-0.2,0.2-0.4c0.3-1,0.7-1.9,1-2.9c0.2-0.5,0.2-0.5,0.8-0.4c0,0.1-0.1,0.2-0.1,0.3
			c-0.6,1.4-1.2,2.8-1.8,4.2c-0.1,0.3-0.3,0.3-0.5,0.3c-0.3,0-0.3-0.2-0.3-0.3c-0.4-1.1-0.7-2.1-1.1-3.3c-0.1,0.2-0.1,0.3-0.2,0.4
			c-0.4,1-0.8,2-1.1,3c-0.1,0.2-0.2,0.3-0.4,0.3s-0.3-0.1-0.4-0.3c-0.5-1.4-1-2.9-1.5-4.3c0-0.1,0-0.1-0.1-0.3c0.2,0,0.5,0,0.7,0
			c0.1,0,0.2,0.2,0.3,0.3c0.4,1,0.7,2,1.1,3c0,0.1,0.1,0.3,0.2,0.5c0.1-0.2,0.1-0.2,0.2-0.3c0.4-1.1,0.7-2.1,1-3.2
			c0.1-0.2,0.2-0.3,0.4-0.3s0.4,0,0.4,0.3c0.3,1,0.7,2,1,3C14.8,46.2,14.9,46.4,15,46.5C14.9,46.5,15,46.5,15,46.5z"/>
		<path class="st4" d="M17.6,42.8c0.8-0.1,0.8-0.1,1.1,0.6c0.4,1,0.7,2.1,1.1,3.1c0.1-0.1,0.1-0.2,0.1-0.3c0.4-1.1,0.7-2.1,1.1-3.2
			c0.1-0.2,0.2-0.4,0.5-0.3c0.3,0,0.4,0.1,0.5,0.3c0.3,1,0.7,2,1,3.1c0,0.1,0.1,0.2,0.2,0.4c0.1-0.2,0.1-0.2,0.2-0.3
			c0.4-1,0.7-2,1.1-3c0.2-0.6,0.2-0.6,0.9-0.5c-0.1,0.2-0.2,0.5-0.3,0.7c-0.5,1.3-1.1,2.5-1.6,3.8c-0.1,0.3-0.3,0.3-0.5,0.3
			c-0.3,0-0.3-0.2-0.3-0.3c-0.3-0.9-0.6-1.9-0.9-2.8c0-0.1-0.1-0.3-0.2-0.5c-0.1,0.2-0.2,0.3-0.2,0.4c-0.4,1-0.8,2-1.1,2.9
			c-0.1,0.2-0.2,0.2-0.4,0.3c-0.2,0-0.3-0.1-0.4-0.3c-0.5-1.5-1-2.9-1.5-4.4C17.6,42.9,17.6,42.9,17.6,42.8z"/>
		<path class="st4" d="M51.5,13.3c-1.1,0.9-2.1,1.8-3.2,2.7c-0.4,0.4-0.9,0.8-1.4,1.1c-0.8,0.5-1.4,1.2-1.9,2.1
			c-0.2,0.4-0.6,0.5-1,0.7c0-0.9,0-1.7,0-2.5s0-0.8,0.8-1.1c0.6-0.2,1.2-0.5,1.8-0.7c0.7-0.3,1.4-0.6,2-1.1c0,0,0.1-0.1,0.2-0.1
			C49.6,13.9,50.5,13.6,51.5,13.3C51.4,13.3,51.4,13.3,51.5,13.3z"/>
		<path class="st4" d="M61,47.6c-0.3,0-0.5,0-0.8,0c0-2.5,0-5.1,0-7.6c0.3,0,0.5,0,0.8,0c0,1.1,0,2.2,0,3.4c0.1,0,0.2-0.1,0.2-0.1
			c0.5-0.6,1.1-0.7,1.9-0.6c0.6,0.1,1.1,0.5,1.2,1.2c0.1,1.2,0.1,2.5,0.1,3.7c-0.3,0-0.6,0-0.9,0c0-0.8,0-1.5,0-2.2c0-0.3,0-0.7,0-1
			c-0.1-0.8-0.5-1.1-1.2-1.1s-1.2,0.5-1.2,1.2c0,0.9,0,1.8,0,2.7C61,47.3,61,47.4,61,47.6z"/>
		<path class="st4" d="M30,33.6c-0.2,0.7-0.3,1.4-0.5,2.1c-0.4,0.1-0.7,0.1-0.9-0.3c0-0.1-0.1-0.1-0.2-0.2c-0.5-0.7-0.5-0.7-1.2-0.2
			c-0.1,0.1-0.2,0.2-0.2,0.3c0.1,0.5-0.1,0.8-0.5,1.1c-0.2,0.2-0.3,0.3-0.5,0.5c-0.1,0.1-0.2,0.2-0.2,0.4c0,0.3-0.1,0.5-0.4,0.5
			c-0.7,0-1.3,0.6-1.9,0.9c-0.2,0.1-0.3,0.2-0.6,0.3c0-0.1,0-0.3,0.1-0.3c0.4-0.3,0.8-0.7,1.2-1c0.1-0.1,0.2-0.3,0.3-0.5
			c0.1-0.5,0.2-1.1,0.3-1.7c0-0.1,0.2-0.3,0.3-0.3c0.3-0.1,0.5-0.2,0.8-0.2c0.5,0,0.7-0.4,0.9-0.8c0.1-0.4,0.3-0.9,0.4-1.3
			C28.3,33,29.2,33.3,30,33.6z"/>
		<path class="st4" d="M26.2,27.5c0.4-0.4,0.8-0.6,1.4-0.8c1.2-0.3,2.4-0.6,3.7-0.9c0.1,0,0.2,0,0.4-0.1c-1.2,1.4-2.4,2.8-3.6,4.2
			C27.5,29.6,26.5,28.4,26.2,27.5z"/>
		<path class="st4" d="M51.3,47.6c-0.3,0-0.5,0-0.8,0c0-0.2,0-0.4,0-0.5c-0.4,0.2-0.8,0.5-1.2,0.6c-1.1,0.3-2-0.3-2-1.4
			c-0.1-1.1,0-2.3,0-3.5c0.2,0,0.5,0,0.8,0c0,0.7,0,1.5,0,2.2c0,0.4,0,0.8,0.1,1.2c0.1,0.6,0.5,1,1.1,1s1-0.3,1.2-0.9
			c0.1-0.3,0.1-0.6,0.1-0.9c0-0.9,0-1.7,0-2.6c0.3,0,0.6,0,0.8,0C51.3,44.4,51.3,46,51.3,47.6z"/>
		<path class="st4" d="M77.8,42.8c0.3,0,0.5,0,0.8,0c0,0.2,0,0.3,0,0.5c0,0.9,0,1.9,0,2.8s0.8,1.4,1.6,1.1c0.5-0.2,0.7-0.6,0.8-1
			c0.1-0.6,0.1-1.2,0.1-1.7s0-1,0-1.6c0.3,0,0.5,0,0.8,0c0,1.6,0,3.2,0,4.8c-0.2,0-0.5,0-0.8,0c0-0.2,0-0.4,0-0.7
			c-0.1,0.1-0.2,0.2-0.3,0.3c-0.6,0.5-1.3,0.6-2,0.4s-0.9-0.8-1-1.4C77.8,45.1,77.8,43.9,77.8,42.8z"/>
		<path class="st4" d="M30.6,38.9c1.2-0.8,2.4-1.6,3.5-2.4c0.1,0.2,0.2,0.4,0.2,0.6c0.1,0.3,0.2,0.4,0.5,0.3
			c1.2-0.3,2.4-0.5,3.8-0.7c-0.1,0.1-0.2,0.2-0.3,0.2c-0.9,0.6-1.9,1.3-2.8,1.9C35.4,38.9,35.2,39,35,39c-1.4,0-2.8,0-4.2,0
			C30.8,39,30.7,39,30.6,38.9z"/>
		<path class="st4" d="M71.6,45.1c-1.2,0-2.3,0-3.5,0c0,0.7,0.1,1.4,0.8,1.8c0.9,0.6,1.7,0.3,2.5-0.4c0.1,0.4,0,0.6-0.3,0.7
			c-0.7,0.4-1.4,0.5-2.2,0.3c-1.3-0.3-1.9-1.6-1.7-3s1.4-2.2,2.9-1.9C71.1,42.9,71.7,44,71.6,45.1z M70.7,44.7
			c0.1-0.9-0.4-1.7-1.1-1.8c-0.8,0-1.5,0.8-1.5,1.8C69,44.7,69.8,44.7,70.7,44.7z"/>
		<path class="st4" d="M60.4,18.8c0.3-0.2,0.5-0.4,0.8-0.5c0.1-0.1,0.3-0.1,0.5,0c0.7,0.2,1.4,0.4,2.2,0.7c0.1,0,0.2,0.1,0.3,0.2
			c0.7,1,1.4,2,2.1,3.1C63.9,21.7,62.2,20.2,60.4,18.8z"/>
		<path class="st4" d="M55.6,43.9c-0.2-0.7-0.2-0.8,0.4-1c0.2-0.1,0.5-0.2,0.7-0.2c1.3-0.2,2,0.4,2.1,1.8c0,0.7,0,1.5,0,2.2
			c0,0.6,0,0.6,0.6,0.6c0.1,0.3-0.2,0.3-0.3,0.3c-0.5,0.1-0.8,0-1-0.4c-0.5,0.2-0.9,0.5-1.4,0.6c-0.8,0.2-1.4-0.4-1.5-1.1
			c-0.1-0.5,0.1-0.9,0.6-1.1c0.6-0.3,1.3-0.5,2-0.6c0.3-0.1,0.4-0.2,0.4-0.5c0-0.9-0.5-1.4-1.3-1.2c-0.3,0.1-0.5,0.3-0.8,0.5
			C55.8,43.7,55.7,43.8,55.6,43.9z M58,45c-0.6,0.2-1.2,0.3-1.7,0.6c-0.4,0.2-0.5,0.7-0.3,1.2c0.2,0.4,0.6,0.6,1,0.5
			c0.5-0.1,1-0.5,1-0.9C58,46,58,45.6,58,45z"/>
		<path class="st4" d="M36.3,38.9c2.5-1.8,5-3.5,7.5-5.3l0,0c-0.7,0.8-1.4,1.6-2.1,2.4c0,0,0,0.1,0.1,0.1c0.5-0.1,0.9-0.3,1.4-0.4
			l0,0c-0.1,0.1-0.2,0.1-0.2,0.2c-1.5,0.9-2.9,1.9-4.4,2.8c-0.2,0.1-0.5,0.2-0.8,0.2C37.3,39,36.8,39,36.3,38.9L36.3,38.9z"/>
		<path class="st4" d="M42.3,43.7c-0.4-0.2-0.7-0.5-1-0.6c-0.8-0.3-1.5,0.1-1.9,0.9s-0.4,1.6,0,2.3c0.5,1.1,1.8,1.4,2.7,0.6
			c0.1-0.1,0.2-0.2,0.3-0.3c0.1,0.3,0.1,0.5-0.2,0.7c-1.6,0.9-3.5,0.1-3.9-1.5c-0.4-1.7,0.7-3.2,2.5-3.2c0.4,0,0.9,0.1,1.3,0.2
			c0.4,0.1,0.5,0.3,0.3,0.6C42.4,43.6,42.4,43.6,42.3,43.7z"/>
		<path class="st4" d="M54.8,47.3c-0.1,0.1-0.2,0.2-0.2,0.3c-0.8,0.3-1.9,0.3-1.9-1.2c0-0.9,0-1.8,0-2.7c0-0.1,0-0.3,0-0.4
			c-0.2,0-0.4,0-0.6,0c0-0.2,0-0.3,0-0.5c0.2,0,0.4,0,0.6,0c0-0.2,0-0.4,0-0.6c-0.1-0.4,0.1-0.5,0.4-0.6c0.1,0,0.2-0.1,0.4-0.1
			c0,0.5,0,0.9,0,1.4c0.4,0,0.7,0,1,0c0,0.2,0,0.3,0,0.5c-0.3,0-0.7,0-1,0c0,0.4,0,0.8,0,1.1c0,0.6,0,1.2,0,1.8
			C53.5,47.2,53.7,47.4,54.8,47.3z"/>
		<path class="st4" d="M37.4,42.9c-0.1,0.3-0.2,0.5-0.3,0.8c-0.1-0.2-0.2-0.3-0.3-0.4c-0.3-0.3-0.6-0.4-1-0.3
			c-0.3,0.1-0.5,0.3-0.6,0.7c0,0.4,0.1,0.7,0.5,0.9c0.3,0.1,0.6,0.2,0.9,0.4c0.4,0.2,0.9,0.4,0.9,0.9c0.1,0.6-0.1,1.1-0.6,1.5
			c-0.7,0.5-1.7,0.5-2.6,0c0.1-0.2,0.1-0.5,0.2-0.7c0.3,0.2,0.5,0.5,0.8,0.6c0.4,0.3,0.9,0.2,1.2-0.2c0.4-0.5,0.3-1.1-0.2-1.3
			c-0.3-0.1-0.6-0.2-0.9-0.4c-0.7-0.3-1-0.7-1-1.3c0-0.7,0.5-1.2,1.2-1.4C36.2,42.6,36.8,42.6,37.4,42.9z"/>
		<path class="st4" d="M44.2,47.6c-0.3,0-0.5,0-0.8,0c0-1.6,0-3.2,0-4.8c0.3,0,0.5,0,0.8,0C44.2,44.4,44.2,46,44.2,47.6z"/>
		<path class="st4" d="M51.6,38.9c2.1-1.6,4.1-3.1,6.2-4.7c0,0,0,0,0.1,0c-0.1,0.1-0.1,0.1-0.2,0.2c-1.7,1.5-3.3,2.9-5,4.4
			C52.4,39,52,39,51.6,39.1C51.6,39,51.6,38.9,51.6,38.9z"/>
		<path class="st4" d="M45.6,46.5c0.3,0,0.6,0.3,0.6,0.6s-0.2,0.6-0.6,0.6c-0.3,0-0.6-0.2-0.6-0.6C45,46.8,45.3,46.5,45.6,46.5z"/>
		<path class="st4" d="M66.4,47.1c0,0.3-0.3,0.6-0.6,0.6s-0.6-0.3-0.6-0.6s0.3-0.6,0.6-0.6S66.4,46.7,66.4,47.1z"/>
		<path class="st4" d="M33.1,47.7c-0.3,0-0.6-0.3-0.6-0.6s0.3-0.6,0.6-0.6s0.6,0.3,0.6,0.6C33.7,47.4,33.4,47.7,33.1,47.7z"/>
		<path class="st4" d="M43.7,41.5c-0.3,0-0.5-0.3-0.5-0.6s0.3-0.5,0.6-0.5s0.5,0.3,0.5,0.6S44,41.5,43.7,41.5z"/>
		<path class="st4" d="M29.3,30.9c0.7-0.3,1.3-0.7,2-1c0,0,0,0,0.1,0.1c-0.4,0.4-0.9,0.9-1.3,1.2c-0.1,0.1-0.4-0.1-0.7-0.1
			C29.3,31,29.3,30.9,29.3,30.9z"/>
	</g>
</g>
</svg>
