<?xml version="1.0" encoding="utf-8"?>
<!-- Generator: Adobe Illustrator 20.1.0, SVG Export Plug-In . SVG Version: 6.00 Build 0)  -->
<svg version="1.1" id="Layer_1" xmlns="http://www.w3.org/2000/svg" xmlns:xlink="http://www.w3.org/1999/xlink" x="0px" y="0px"
	 viewBox="0 0 470 541" style="enable-background:new 0 0 470 541;" xml:space="preserve">
<style type="text/css">
	.st0{fill:#2BB673;}
	.st1{font-family:'SourceSansPro-Regular';}
	.st2{font-size:9px;}
	.st3{font-size:7px;}
	.st4{fill:#FFFFFF;}
	.st5{font-size:12px;}
</style>
<g id="Layer_2">
	<rect id="CoonLab" x="315.5" y="337.1" class="st0" width="90" height="44"/>
	<polygon id="Floor3S" class="st0" points="110.5,500.1 52.5,500.1 52.5,530.1 110.5,530.1 167.5,530.1 167.5,500.1 	"/>
	<polygon id="Floor4S" class="st0" points="360.5,497.1 303.5,497.1 303.5,529.1 360.5,529.1 418.5,529.1 418.5,497.1 	"/>
	<rect id="Halverson" x="266.5" y="202.1" class="st0" width="37" height="43"/>
	<rect id="BeerCave" x="418.5" y="203.1" class="st0" width="37" height="41"/>
	<polygon id="Floor4AtriumS" class="st0" points="361.3,243.1 361.2,243.1 315.5,243.1 315.5,263.1 361.2,263.1 361.3,263.1 
		407,263.1 407,243.1 	"/>
	<polygon id="Floor4AtriumN" class="st0" points="360.3,206.1 315.5,206.1 315.5,226.1 360.3,226.1 405.1,226.1 405.1,206.1 	"/>
	<rect id="Jones" x="167.5" y="204.1" class="st0" width="38" height="42"/>
	<rect id="Lobby" x="64.5" y="251.1" class="st0" width="66" height="43"/>
	<polygon id="DiningArea" class="st0" points="15.5,251.1 65,251.1 65,320.5 52.5,320.5 52.5,314.1 15.5,314.1 	"/>
	<polygon id="EvansS" class="st0" points="110.5,441.1 65.5,441.1 65.5,500.1 110.5,500.1 155.5,500.1 155.5,441.1 	"/>
	<polygon id="EvansN" class="st0" points="129.5,398.1 129.5,387.1 90.5,387.1 90.5,398.1 65.5,398.1 65.5,441.1 90.5,441.1 
		129.5,441.1 155.5,441.1 155.5,398.1 	"/>
	<rect id="GenesOffice" x="15.5" y="132.8" class="st0" width="37.2" height="22.4"/>
	<rect id="YongsOffice" x="15.5" y="99.2" class="st0" width="37.2" height="33.5"/>
	<polygon id="Floor3AtriumC" class="st0" points="50,202.9 65,202.9 65,207.1 97.5,207.1 97.5,251.1 50,251.1 	"/>
	<polygon id="Floor3AtriumE" class="st0" points="122,207.1 167.5,207.1 167.5,246.1 150.2,246.1 150.2,251.1 122,251.1 	"/>
	<polygon id="Floor3N" class="st0" points="109.5,23.1 52.5,23.1 52.5,47.1 109.5,47.1 167.5,47.1 167.5,23.1 	"/>
	<polygon id="Floor4N" class="st0" points="360.5,22.1 303.5,22.1 303.5,46.1 360.5,46.1 418.5,46.1 418.5,22.1 	"/>
</g>
<g id="Layer_3">
	<path d="M456.4,529.3c-0.4,0.1-0.8,0.1-1.2,0.2c-0.8,0-1.6,0-2.4,0c-44.3,0-88.6,0-132.9,0c-16.9,0.4-33.7,0.1-50.6,0.2
		c-0.8,0-1.6,0-2.4,0c-0.3,0-0.6-0.2-0.9-0.3c-0.1-0.4-0.2-0.7-0.2-1c0-0.6,0-1.3,0-1.9c0-167.3,0-334.5,0-501.8
		c0-1-0.1-2.1,0.2-3.2c0.4-0.1,0.7-0.2,1.1-0.3c0.7,0,1.4,0,2.2,0c61.4,0,122.9,0,184.3,0c0.9,0,1.9-0.1,2.7,0.1
		c0.5,0.3,0.5,0.7,0.5,1.1c0,0.8,0,1.6,0,2.4c0,167,0,334,0,501.1c0,0.8,0,1.6,0,2.4C456.6,528.6,456.5,528.9,456.4,529.3z
		 M454.8,203.6c-1-0.4-1.9-0.2-2.7-0.2c-10.2,0-20.5,0-30.7,0c-0.7,0-1.4,0-2.2,0c-0.4,0-0.7-0.2-1.2-0.3c-0.2-1.1-0.1-2.1-0.1-3.2
		c0-57.7,0-115.3,0-173c0-0.9,0-1.8,0-2.6c0-0.4-0.2-0.8-0.2-1.1c-1.1-0.4-2.2-0.2-3.2-0.2c-35.5,0-71,0-106.5,0c-0.7,0-1.4,0-2.2,0
		c-0.4,0-0.7,0.2-1.1,0.3c-0.2,1.1-0.2,2.2-0.2,3.2c0,166.1,0,332.1,0,498.2c0,0.7,0,1.4,0,2.2c0,0.4,0,0.8,0.5,1.3
		c0.5,0.2,1.2,0.2,1.9,0.2c4.1-0.1,8.2-0.2,12.2-0.2c31.7,0,63.4,0,95,0c0.8,0,1.6,0,2.4,0c0.4,0,0.8,0,1.2-0.5
		c0-0.2,0.1-0.5,0.1-0.8c0-0.9,0-1.8,0-2.6c0-91.8,0-183.7,0-275.5c0-1.2,0-2.4,0-3.6c0-0.4,0.2-0.7,0.3-1c1-0.3,1.9-0.2,2.7-0.2
		c10.2,0,20.3,0,30.5,0c0.7,0,1.4,0,2.2,0c0.4,0,0.8-0.1,1.1-0.2c0.4-0.9,0.3-1.8,0.3-2.7c0-6.7,0-13.4,0-20.2c0-4.9,0-9.8,0-14.6
		C455.1,205.3,455.3,204.4,454.8,203.6z M419.8,152.6c-0.1,0.4-0.3,0.7-0.3,0.9c0,15.7,0,31.3,0,47c0,0.3,0.1,0.6,0.1,0.9
		c0.8,0.6,1.6,0.4,2.4,0.4c4.7,0,9.4,0,14.1,0c5.4,0,10.9,0,16.3,0c0.8,0,1.6,0.2,2.4-0.3c0.4-0.8,0.2-1.6,0.2-2.5
		c0-14.5,0-29.1,0-43.6c0-0.6,0-1.1,0-1.7c0-0.4-0.2-0.7-0.4-1c-2.3-0.3-25-0.4-33.4-0.2C420.8,152.5,420.3,152.5,419.8,152.6z
		 M302.6,402.8c-0.9-0.3-1.8-0.2-2.7-0.2c-9.9,0-19.8,0-29.7,0c-0.6,0-1.1,0-1.7,0c-0.4,0-0.7,0.2-1.2,0.3c0,0.7-0.1,1.3-0.1,2
		c0,1.6,0,3.2,0,4.8c0,12.7,0,25.4,0,38.1c0,0.6,0,1.3,0,1.9c0,0.4,0,0.8,0.6,1.2c0.6,0.2,1.4,0.1,2.2,0.1c10.1,0,20.1,0,30.2,0
		c0.5,0,1,0,1.4,0s0.7-0.2,1.1-0.3c0.3-1,0.2-1.8,0.2-2.7c0-11.1,0-22.2,0-33.3c0-3.2,0-6.4,0-9.6
		C302.9,404.4,303.1,403.6,302.6,402.8z M302.9,527.7c0-0.9,0-1.7,0-2.5c0-12,0-24,0-35.9c0-0.5,0-1,0-1.4s0-0.8-0.5-1.2
		c-0.7-0.3-1.5-0.2-2.4-0.2c-10,0-20,0-30,0c-0.6,0-1.1,0-1.7,0c-0.4,0-0.7,0.2-1.1,0.4c0,0.9,0,1.8,0,2.7c0,11.8,0,23.6,0,35.5
		c0,0.6,0,1.1,0,1.7c0,0.4,0.1,0.8,0.2,1c0.9,0.5,1.7,0.3,2.5,0.3c10.1,0,20.3,0,30.4,0c0.6,0,1.1,0,1.7-0.1
		C302.2,528,302.4,527.9,302.9,527.7z M454.8,527.8c0.5-1.2,0.3-2.1,0.3-3.1c0-11.7,0-23.3,0-35c0-0.6,0-1.3,0-1.9
		c0-0.4,0-0.8-0.5-1.2c-0.7-0.3-1.6-0.1-2.4-0.1c-9.9,0-19.8,0-29.7,0c-0.6,0-1.1,0-1.7,0c-0.4,0-0.8,0.1-1.1,0.5
		c-0.3,0.8-0.1,1.7-0.1,2.5c0,11.8,0,23.7,0,35.5c0,0.6,0,1.1,0,1.7c0,0.3,0.1,0.6,0.2,0.8c0.2,0.1,0.4,0.3,0.5,0.3
		c10.8,0,21.6,0.1,32.4,0.1C453.2,527.9,453.9,527.9,454.8,527.8z M302.6,244c0.5-1,0.3-1.9,0.3-2.8c0-11.8,0-23.7,0-35.5
		c0-0.6,0-1.1,0-1.7c0-0.4-0.2-0.7-0.3-1.1c-1-0.4-2-0.3-2.9-0.3c-9.8,0-19.5,0-29.2,0c-0.6,0-1.3,0-1.9,0c-0.4,0-0.8,0-1.2,0.6
		c-0.2,0.7-0.1,1.5-0.1,2.4c0,11.9,0,23.8,0,35.7c0,0.5,0,1,0,1.4s0,0.8,0.4,1.1c0.1,0,0.4,0.2,0.6,0.2c11.1,0,22.2,0,33.3,0
		C301.9,244.2,302.2,244.1,302.6,244z M419.6,23.1c0,0.8-0.1,1.5-0.1,2.3c0,11.6,0,23.2,0,34.7c0,0.5,0,1,0,1.4s0.2,0.7,0.3,1.1
		c1,0.4,1.8,0.3,2.7,0.3c9.9,0,19.8,0,29.7,0c0.6,0,1.1,0,1.7,0c0.4,0,0.7-0.2,1.1-0.3c0.3-0.9,0.2-1.7,0.2-2.5c0-11.5,0-23,0-34.5
		c0-0.5,0-1,0-1.4s0-0.8-0.5-1.2c-0.2,0-0.5-0.1-0.8-0.1c-11.1,0-22.2,0-33.3,0C420.3,22.8,420,23,419.6,23.1z M302.7,62.7
		c0.4-1.1,0.3-2.1,0.3-3c0-11.2,0-22.4,0-33.6c0-0.6,0-1.3,0-1.9c0-0.4,0-0.8-0.5-1.2c-0.7-0.2-1.6-0.1-2.4-0.1
		c-9.9,0-19.8,0-29.8,0c-0.6,0-1.1,0-1.7,0c-0.4,0-0.8,0-1.2,0.5c-0.3,0.7-0.1,1.6-0.1,2.4c0,11.4,0,22.9,0,34.3c0,0.5,0,1,0,1.4
		s0,0.8,0.4,1.1c0.2,0,0.4,0.2,0.6,0.2c11.1,0,22.2,0,33.4,0C301.9,62.8,302.2,62.7,302.7,62.7z M267.4,200.9c1,0.4,1.9,0.3,2.7,0.3
		c9.9,0,19.8,0,29.8,0c0.6,0,1.1,0,1.7,0c0.4,0,0.8,0,1.2-0.5c0.3-0.7,0.1-1.6,0.2-2.5c0-9.5,0-19,0-28.6c0-0.6,0-1.1,0-1.7
		c0-0.4-0.2-0.7-0.2-1.1c-0.9-0.4-1.8-0.2-2.7-0.2c-9.9,0-19.8,0-29.8,0c-0.6,0-1.3,0-1.9,0c-0.3,0-0.6,0.2-1,0.3
		c-0.1,0.6-0.1,1.1-0.2,1.7C267,181.8,267.1,198.5,267.4,200.9z M267.3,246.3c-0.2,1.3-0.1,2.6-0.1,3.9c0,8.9,0,17.8,0,26.6
		c0,0.7,0,1.4,0,2.2c0,0.4,0.2,0.7,0.3,1.1c0.9,0.3,1.7,0.2,2.5,0.2c10.1,0,20.2,0,30.2,0c0.5,0,1,0,1.4,0s0.7-0.2,1-0.3
		c0.4-0.9,0.3-1.7,0.3-2.5c0-9.6,0-19.2,0-28.8c0-0.5,0-1,0-1.4s-0.2-0.7-0.3-1.2c-0.8,0-1.5-0.1-2.2-0.1c-2.9,0-5.8,0-8.6,0
		c-7.2,0-14.4,0-21.6,0C269.3,246,268.4,245.8,267.3,246.3z M302.6,131c0.4-0.9,0.3-1.7,0.3-2.5c0-9.2,0-18.4,0-27.6
		c0-0.5,0-1,0-1.4s-0.1-0.8-0.5-1.1c-0.8-0.3-1.7-0.1-2.6-0.1c-9.8,0-19.7,0-29.5,0c-0.6,0-1.3,0-1.9,0c-0.3,0-0.6,0.1-0.9,0.2
		c-0.4,0.9-0.3,1.8-0.3,2.6c0,9.1,0,18.2,0,27.4c0,0.5,0,1,0,1.4s0,0.8,0.4,1.1c0.1,0,0.4,0.2,0.6,0.2c11.2,0,22.4,0,33.6,0
		C302.1,131.2,302.3,131.1,302.6,131z M302.7,316.1c-0.9-0.5-1.8-0.3-2.7-0.3c-9.4,0-18.7,0-28.1,0c-1.1,0-2.2,0-3.4,0
		c-0.4,0-0.8,0.1-1,0.2c-0.5,0.8-0.4,1.5-0.4,2.2c0,8.9,0,17.9,0,26.8c0,0.7,0,1.4,0,2.2c0,0.4,0.1,0.8,0.2,1.1
		c0.8,0.5,1.7,0.4,2.4,0.4c10.1,0,20.3,0,30.4,0c0.5,0,1,0,1.4,0c0.3,0,0.6-0.1,0.9-0.2c0.5-0.9,0.3-1.8,0.3-2.6
		c0-8.6,0-17.3,0-25.9c0-0.9,0-1.8,0-2.6C302.9,316.9,302.8,316.5,302.7,316.1z M267.7,314.3c0.8,0,1.7,0,2.6,0c9.6,0,19.2,0,28.8,0
		c0.8,0,1.6,0,2.4,0c0.4,0,0.8,0,1.3-0.4c0.3-0.7,0.2-1.5,0.2-2.4c0-8.9,0-17.7,0-26.6c0-0.6,0-1.1,0-1.7c0-0.4,0-0.8-0.5-1.2
		c-0.7-0.3-1.6-0.2-2.4-0.2c-9.9,0-19.8,0-29.7,0c-0.6,0-1.3,0-1.9,0c-0.3,0-0.6,0.2-1,0.3c0,0.7-0.1,1.3-0.1,1.9
		c0,5.9,0,11.8,0,17.7c0,3.4,0,6.9,0,10.3C267.2,312.8,267.1,313.4,267.7,314.3z M267.4,96.4c0.3,0.1,0.5,0.3,0.8,0.3
		c0.6,0.1,1.3,0,1.9,0c9.9,0,19.8,0,29.7,0c0.6,0,1.3,0,1.9,0c0.3,0,0.6-0.2,0.8-0.2c0.4-0.9,0.3-1.8,0.3-2.7c0-8.8,0-17.6,0-26.4
		c0-0.6,0-1.1,0-1.7c0-0.4,0-0.8-0.5-1.2c-0.7-0.3-1.6-0.2-2.4-0.2c-9.9,0-19.8,0-29.7,0c-0.6,0-1.3,0-1.9,0c-0.3,0-0.6,0.2-0.9,0.3
		c-0.4,1.9-0.2,3.7-0.2,5.5C267,84.3,267.1,94.5,267.4,96.4z M302.6,132.9c-0.9,0-1.7-0.1-2.5-0.1c-10,0-20,0-30,0
		c-0.6,0-1.1,0-1.7,0c-0.4,0-0.7,0.2-1.1,0.3c-0.1,0.4-0.1,0.7-0.1,1c0,9.8,0,19.7,0,29.5c0,0.4,0,0.8,0.5,1.2
		c0.7,0.3,1.6,0.2,2.4,0.2c9.9,0,19.8,0,29.8,0c0.6,0,1.1,0,1.7,0c0.4,0,0.7-0.2,1.1-0.3c0.1-0.4,0.2-0.7,0.2-1c0-0.6,0-1.1,0-1.7
		c0-8.8,0-17.6,0-26.4C302.9,134.9,303.1,134,302.6,132.9z M419.6,484.6c0.4,0.1,0.7,0.2,1,0.3c0.6,0,1.3,0,1.9,0
		c9.8,0,19.7,0,29.5,0c0.6,0,1.1,0,1.7,0c0.4,0,0.8,0,1.2-0.5c0.2-0.7,0.1-1.5,0.1-2.4c0-8.9,0-17.7,0-26.6c0-0.6,0-1.1,0-1.7
		c0-0.4-0.2-0.7-0.3-1c-1-0.3-1.9-0.2-2.7-0.2c-9.8,0-19.7,0-29.5,0c-0.6,0-1.3,0-1.9,0c-0.3,0-0.6,0.2-0.9,0.2
		c-0.1,0.4-0.2,0.7-0.2,1C419.3,456.9,419.4,482.7,419.6,484.6z M267.7,452.7c-0.5,0.5-0.5,0.9-0.5,1.3c0,1.1,0,2.2,0,3.4
		c0,8,0,16,0,24c0,0.7,0,1.4,0,2.2c0,0.4,0.2,0.7,0.2,1.1c1,0.5,1.8,0.3,2.7,0.3c9.9,0,19.8,0,29.8,0c0.6,0,1.1,0,1.7,0
		c0.4,0,0.8,0,1.2-0.5c0.3-0.7,0.2-1.6,0.2-2.5c0-8.8,0-17.6,0-26.4c0-0.6,0-1.1,0-1.7c0-0.4-0.1-0.8-0.6-1.1c-0.4,0-1-0.1-1.5-0.1
		C288.2,452.4,270.1,452.4,267.7,452.7z M302.7,350.5c-1.1-0.4-2-0.3-2.9-0.3c-9.8,0-19.7,0-29.5,0c-0.6,0-1.3,0-1.9,0
		c-0.4,0-0.7,0.2-1,0.3c-0.3,1-0.2,1.9-0.2,2.7c0,8.8,0,17.6,0,26.4c0,0.6,0,1.1,0,1.7c0,0.4,0.2,0.7,0.2,1.1c1,0.4,2,0.3,2.9,0.3
		c9.7,0,19.5,0,29.2,0c0.6,0,1.3,0,1.9,0c0.4,0,0.8,0,1.2-0.5c0.2-0.7,0.1-1.5,0.1-2.4c0-7.8,0-15.7,0-23.5c0-1.4,0-2.9,0-4.3
		C302.9,351.4,302.8,351,302.7,350.5z M419.8,268.9c0.6,0.1,1.1,0.1,1.6,0.1c10.6,0,21.1,0,31.7,0c0.4,0,0.8,0,1.2-0.1
		c0.2,0,0.4-0.2,0.7-0.3c0.1-0.3,0.2-0.6,0.2-0.9c0-7.2,0-14.4,0-21.6c0-0.2-0.1-0.4-0.2-0.7c-0.8-0.5-1.7-0.3-2.6-0.3
		c-10,0-20,0-30,0c-0.5,0-1,0-1.4,0s-0.8,0.2-1.1,0.2c-0.1,0.3-0.2,0.6-0.2,0.8c0,7.3,0,14.5,0,21.8
		C419.5,268.3,419.6,268.5,419.8,268.9z M419.6,107.8c1,0.5,1.9,0.3,2.8,0.3c9.9,0,19.8,0,29.7,0c0.6,0,1.3,0,1.9,0
		c0.3,0,0.6-0.2,0.9-0.2c0.4-0.8,0.3-1.6,0.3-2.4c0-4.9,0-9.9,0-14.8c0-0.8,0-1.6,0-2.4c0-0.4,0-0.8-0.6-1.2c-0.5,0-1.1-0.1-1.7-0.1
		c-10.3,0-20.6,0-30.9,0c-0.4,0-0.8,0-1.2,0c-0.4,0.1-0.7,0.2-1.1,0.3c-0.1,0.3-0.2,0.6-0.2,0.8c0,6.2,0,12.5,0,18.7
		C419.5,107.1,419.5,107.4,419.6,107.8z M419.6,337c1.1,0.4,2,0.3,2.9,0.3c9.8,0,19.7,0,29.5,0c0.6,0,1.1,0,1.7,0
		c0.4,0,0.8-0.1,1.1-0.2c0.6-0.8,0.4-1.7,0.4-2.4c0-4.7,0-9.4,0-14.1c0-1.1,0-2.2,0-3.4c0-0.4-0.1-0.7-0.2-1.1
		c-0.9-0.4-1.8-0.3-2.7-0.3c-9.9,0-19.8,0-29.7,0c-0.6,0-1.1,0-1.7,0c-0.4,0-0.7,0.2-1.1,0.2c-0.3,1.8-0.4,7.2-0.3,19
		C419.5,335.7,419.6,336.3,419.6,337z M454.7,109.8c-0.9,0-1.8-0.1-2.6-0.1c-9.8,0-19.6,0-29.5,0c-0.6,0-1.3,0-1.9,0
		c-0.4,0-0.7,0.2-1.1,0.4c0,0.5-0.1,0.9-0.1,1.3c0,6.2,0,12.5,0,18.7c0,0.2,0.1,0.5,0.2,0.8c0.3,0.1,0.6,0.3,0.8,0.3
		c0.6,0.1,1.3,0,1.9,0c9.9,0,19.8,0,29.7,0c0.6,0,1.1,0,1.7,0c0.4,0,0.7-0.2,1.1-0.3c0.1-0.5,0.2-0.9,0.2-1.3c0-6.4,0-12.8-0.1-19.2
		C455,110.3,454.9,110.2,454.7,109.8z M419.6,429.6c0,0.9-0.1,1.5-0.1,2.2c0,2,0,4,0,6c0,3.7,0,7.3,0,11c0,0.6-0.1,1.3,0.4,1.9
		c0.7,0.3,1.6,0.2,2.5,0.2c9.9,0,19.8,0,29.7,0c0.6,0,1.1,0,1.7,0c0.4,0,0.7-0.2,1.2-0.3c0.1-0.7,0.1-1.3,0.1-1.9c0-5.7,0-11.3,0-17
		c0-0.3,0-0.6,0-1s-0.1-0.8-0.5-1.1c-0.8-0.3-1.7-0.1-2.5-0.1c-8.1,0-16.1,0-24.2,0c-2.2,0-4.3,0-6.5,0
		C420.8,429.4,420.3,429.5,419.6,429.6z M454.9,407.2c-1.1-0.4-2-0.3-2.9-0.3c-9.8,0-19.6,0-29.5,0c-0.6,0-1.3,0-1.9,0
		c-0.4,0-0.7,0.2-1.1,0.3c0,0.6-0.1,1-0.1,1.5c0,1.4,0,2.7,0,4.1c0,4.3,0,8.6,0,12.9c0,0.6-0.2,1.3,0.4,1.9c0.7,0.3,1.6,0.2,2.5,0.2
		c9.9,0,19.8,0,29.7,0c0.6,0,1.1,0,1.7,0c0.4,0,0.7-0.2,1.1-0.3c0.4-1.9,0.4-7,0.3-18.5C455.1,408.5,455,407.9,454.9,407.2z
		 M419.6,359.6c0.8,0.6,1.7,0.4,2.4,0.4c10.1,0,20.3,0,30.4,0c0.4,0,0.8,0,1.2,0s0.8,0,1.2-0.4c0-0.1,0.2-0.4,0.2-0.6
		c0-6.4,0-12.8,0-19.2c0-0.2-0.1-0.4-0.2-0.7c-0.7-0.4-1.6-0.3-2.3-0.3c-10.1,0-20.3,0-30.4,0c-0.6,0-1.1,0-1.7,0.1
		c-0.2,0-0.4,0.2-0.7,0.3c-0.1,0.3-0.2,0.6-0.2,0.9C419.3,343.1,419.4,358,419.6,359.6z M420,270.7c-0.6,0.7-0.5,1.2-0.5,1.6
		c-0.2,7.9-0.1,17,0.2,19c0.3,0.1,0.5,0.2,0.8,0.3c0.6,0.1,1.3,0,1.9,0c9.9,0,19.8,0,29.7,0c0.6,0,1.1,0,1.7,0
		c0.4,0,0.7-0.2,1.1-0.3c0.1-0.4,0.2-0.7,0.2-1c0-6.1,0-12.1,0-18.2c0-0.1,0-0.2,0-0.2c-0.1-0.4-0.3-0.7-0.4-1
		c-2.3-0.3-17.2-0.4-32.9-0.2C421.2,270.6,420.5,270.6,420,270.7z M454.9,64.7c-0.8-0.5-1.7-0.3-2.6-0.3c-10,0-20,0-29.9,0
		c-0.6,0-1.1,0-1.7,0c-0.4,0-0.8,0.1-1.1,0.6c0,0.6-0.1,1.3-0.1,2c0,2.7,0,5.4,0,8.1c0,2.8,0,5.6,0,8.4c0,0.5-0.1,1.1,0.4,1.6
		c0.8,0.4,1.7,0.2,2.5,0.2c9.9,0,19.8,0,29.7,0c0.6,0,1.1,0,1.7,0c0.4,0,0.7-0.2,1.1-0.3c0.1-0.5,0.2-0.9,0.2-1.3
		c0-6.1,0-12.3,0-18.4C455.1,65.2,454.9,64.9,454.9,64.7z M419.7,314.1c1,0.3,1.8,0.2,2.6,0.2c10,0,20,0,30,0c0.5,0,1,0,1.4,0
		s0.8-0.1,1.1-0.2c0.4-0.8,0.3-1.7,0.3-2.4c0-5.2,0-10.4,0-15.6c0-0.6,0-1.1,0-1.7c0-0.4-0.1-0.8-0.6-1.2c-0.7-0.2-1.6-0.1-2.4-0.1
		c-9.8,0-19.7,0-29.5,0c-0.6,0-1.3,0-1.9,0c-0.4,0-0.7,0.2-1,0.3c-0.2,1.7-0.3,16.5-0.2,19.5C419.5,313.3,419.6,313.6,419.7,314.1z
		 M419.6,361.9c0,0.9-0.1,1.6-0.1,2.3c0,3,0,6.1,0,9.1c0,2.6,0,5.1,0,7.7c0,0.5,0.2,0.9,0.2,1.3c1,0.5,1.8,0.3,2.7,0.3
		c9.9,0,19.8,0,29.7,0c0.6,0,1.1,0,1.7,0c0.4,0,0.7-0.2,1-0.3c0.4-0.9,0.2-1.7,0.2-2.5c0-4.4,0-8.8,0-13.2c0-1.2,0-2.4,0-3.6
		c0-0.4,0-0.8-0.5-1.2c-0.7-0.3-1.6-0.2-2.4-0.2c-9.9,0-19.8,0-29.7,0c-0.6,0-1.1,0-1.7,0C420.4,361.7,420.1,361.8,419.6,361.9z
		 M419.6,384.5c0,0.9-0.1,1.6-0.1,2.3c0,3.4,0,6.7,0,10.1c0,2.2,0,4.5,0,6.7c0,0.5,0.2,0.9,0.3,1.3c0.8,0.4,1.5,0.3,2.3,0.3
		c10.2,0,20.5,0,30.7,0c0.4,0,0.8,0,1.2,0c0.4-0.1,0.7-0.2,1.1-0.3c0.3-0.9,0.2-1.7,0.2-2.5c0-4.9,0-9.7,0-14.6c0-0.7,0-1.4,0-2.2
		c0-0.4-0.2-0.7-0.3-1c-1-0.4-1.9-0.3-2.7-0.3c-9.9,0-19.8,0-29.7,0c-0.6,0-1.1,0-1.7,0C420.4,384.2,420.1,384.3,419.6,384.5z
		 M454.9,150.6c0.3-0.9,0.2-1.7,0.2-2.5c0-3.8,0-7.5,0-11.3c0-1,0-1.9,0-2.9c0-0.4-0.2-0.7-0.3-1c-1-0.4-1.9-0.2-2.7-0.2
		c-9.8,0-19.7,0-29.5,0c-0.6,0-1.3,0-1.9,0c-0.4,0-0.7,0.2-1,0.3c-0.1,0.3-0.1,0.4-0.1,0.6c0,5.4,0,10.7,0,16.1c0,0.3,0.2,0.6,0.3,1
		c0.6,0.1,1.2,0.2,1.7,0.2c2.3,0,4.6,0,7,0c7.9,0,15.8,0,23.7,0C453,150.9,453.9,151.1,454.9,150.6z M267.4,384.5
		c-0.1,0.4-0.2,0.6-0.2,0.8c0,4.9,0,9.7,0,14.6c0,0.3,0.2,0.6,0.3,1c0.6,0.1,1.2,0.1,1.7,0.1c10.5,0,21.1,0,31.6,0
		c0.4,0,0.8,0,1.2-0.1c0.2,0,0.4-0.2,0.6-0.2c0.4-0.6,0.3-1.3,0.3-1.9c0-3.4,0-6.9,0-10.3c0-1,0-2.1,0-3.1c0-0.4-0.2-0.7-0.3-1
		c-0.9-0.3-1.7-0.2-2.5-0.2c-4.2,0-8.3,0-12.5,0c-5.8,0-11.7,0-17.5,0C269.3,384.2,268.4,384.1,267.4,384.5z"/>
	<path d="M206.1,530.7c-0.3,0.1-0.6,0.2-0.9,0.2c-0.5,0-1,0-1.4,0c-0.7,0-1.4,0-2.2,0c-60,0-120-0.1-180-0.1c-1.7,0-3.4,0-5-0.1
		c-0.5,0-0.9-0.1-1.5-0.2c-0.1-0.5-0.2-0.8-0.2-1.2c0-0.7,0-1.4,0-2.2c0-167.3,0-334.5,0-501.8c0-1-0.2-2.1,0.1-2.9
		c0.4-0.5,0.8-0.5,1.2-0.5c0.7,0,1.4,0,2.2,0c61.5,0,123,0,184.5,0c1,0,2.1-0.1,2.9,0.1c0.5,0.5,0.5,0.9,0.5,1.3c0,0.6,0,1.3,0,1.9
		c0,167.4,0,334.8,0,502.2C206.3,528.6,206.5,529.7,206.1,530.7z M16.8,250.2c0.4,0.1,0.7,0.2,1.1,0.2c1.3,0,2.6,0.1,3.8,0.1
		c8.4,0,16.8,0,25.2,0c0.8,0,1.6,0,2.4,0c0.3,0,0.6,0.2,0.9,0.3c0,0.4-0.1,0.6-0.1,0.9c-0.9,0.5-1.7,0.3-2.5,0.3
		c-9.6,0-19.2,0-28.8,0c-0.7,0-1.4-0.1-2.1,0.3c-0.6,0.8-0.3,1.7-0.3,2.5c0,18.7,0,37.4,0,56.2c0,0.6,0,1.1,0,1.7
		c0,0.4,0.2,0.7,0.3,1.2c0.7,0,1.3,0.1,2,0.1c0.9,0,1.8,0,2.6,0c9.8,0,19.5,0,29.3,0c0.6,0,1.1,0,1.7,0c0.4,0,0.8,0.1,1.1,0.6
		c0.3,0.9,0.1,2,0.1,3c0,69.5,0,139,0,208.5c0,0.7,0,1.4,0,2.2c0,0.4,0.1,0.8,0.5,1.1c0.9,0.3,1.9,0.1,3,0.1c35.4,0,70.9,0,106.3,0
		c0.7,0,1.4,0,2.2,0c0.4,0,0.8,0,1.3-0.5c0.3-0.8,0.1-1.9,0.1-2.9c0-79.8,0-159.7,0-239.5c0-0.7,0-1.4,0-2.2c0-0.4-0.2-0.7-0.2-1.1
		c-1-0.5-1.8-0.3-2.7-0.3c-10.3,0-20.6,0-31,0c-0.7,0-1.4,0-2.2,0c-0.4,0-0.7-0.2-1.1-0.4c0-1,0-1.8,0-2.7c0-8.2,0-16.5,0-24.7
		c0-0.6,0-1.3,0-1.9c0-0.4-0.2-0.7-0.4-1.2c-1,0-1.8,0-2.7,0c-5.8,0-11.5,0-17.3,0c-0.7,0-1.4,0.2-2.1-0.3c-0.1-0.2-0.2-0.3-0.2-0.4
		s0.1-0.3,0.1-0.5c0.3-0.1,0.5-0.2,0.9-0.2c0.8,0,1.6,0,2.4,0c11.8,0,23.7,0,35.5,0c0.7,0,1.4,0,2.2,0c0.3,0,0.6-0.1,1-0.2
		c0.1-0.4,0.2-0.8,0.2-1.2c0-0.8,0-1.6,0-2.4c0-0.4,0.2-0.7,0.2-1c0.9-0.4,1.7-0.3,2.5-0.3c4.2,0,8.5,0,12.7,0
		c0.6,0,1.3,0.1,1.8-0.3c0.1-0.1,0.2-0.3,0.2-0.4c0-73,0.1-146.1,0.1-219.1c0-0.5-0.1-0.9-0.1-1.5c-0.3-0.1-0.6-0.3-0.9-0.3
		c-0.7-0.1-1.4,0-2.2,0c-35.7,0-71.4,0-107,0c-0.6,0-1.3,0-1.9,0c-0.4,0-0.8,0.1-1.1,0.6c-0.2,0.9-0.1,1.9-0.1,2.9
		c0,57.6,0,115.2,0,172.8c0,0.8,0,1.6,0,2.4c0,0.3-0.1,0.6-0.2,0.9c-0.9,0.5-1.8,0.3-2.6,0.3c-10.2,0-20.5,0-30.7,0
		c-0.7,0-1.4,0-2.2,0c-0.4,0-0.8,0-1.1,0.3c-0.4,0.5-0.3,1.1-0.3,1.6c0,14.2,0,28.5,0,42.7c0,0.4,0,0.8,0.1,1.2
		C16.5,249.7,16.6,249.9,16.8,250.2z M16.5,455c0.6,0.1,1,0.2,1.4,0.2c1.2,0,2.4,0.1,3.6,0.1c9.2,0,18.4,0,27.6,0c0.6,0,1.1,0,1.7,0
		c0.4,0,0.8-0.1,1.1-0.6c0.3-0.8,0.1-1.8,0.1-2.7c0-14.9,0-29.8,0-44.6c0-0.7,0-1.4,0-2.2c0-0.4-0.2-0.7-0.3-1
		c-1-0.4-1.9-0.2-2.7-0.2c-6.6,0-13.1,0-19.7,0c-3.6,0-7.2-0.1-10.8-0.1c-0.6,0-1.3-0.1-1.8,0.4c-0.1,0.2-0.2,0.3-0.2,0.4
		c0,16.2-0.1,32.3-0.1,48.5C16.4,453.7,16.5,454.2,16.5,455z M168.4,153.2c-0.1,0.4-0.3,0.7-0.3,1c0,0.6,0,1.3,0,1.9
		c0,14.5,0,28.9,0,43.4c0,0.7,0,1.4,0,2.2c0,0.4,0.1,0.8,0.2,1.1c0.9,0.5,1.8,0.3,2.7,0.3c10.2,0,20.5,0,30.7,0c0.6,0,1.3,0,1.9,0
		c0.3,0,0.6-0.2,0.9-0.2c0.4-1,0.2-1.9,0.2-2.9c0-14.5,0-29.1,0-43.6c0-0.6,0-1.3,0-1.9c0-0.4-0.2-0.7-0.3-1.1
		c-2.2-0.3-20-0.5-34.4-0.2C169.6,153.1,169,153.2,168.4,153.2z M204.4,247.2c-0.9-0.4-1.8-0.2-2.7-0.2c-10.5,0-21.1,0-31.6,0
		c-0.8,0-1.6,0-2.4,0c-5.1,0-10.2-0.1-15.3-0.1c-0.4,0-0.8,0-1.3,0.5c-0.2,0.6-0.1,1.5-0.1,2.4c0,9.5,0,19,0,28.5c0,0.6,0,1.1,0,1.7
		c0,0.4,0.2,0.7,0.2,1.1c0.9,0.4,1.8,0.3,2.7,0.3c7.7,0,15.3,0,23-0.1c8.1,0,16.3,0,24.4,0c0.7,0,1.4,0,2.2,0c0.4,0,0.8-0.1,1.1-0.6
		c0-0.3,0.1-0.8,0.1-1.3c0-10.5,0-21.1-0.1-31.6C204.7,247.6,204.6,247.5,204.4,247.2z M204.6,529.2c0.3-1.1,0.2-2,0.2-2.9
		c0-11.8,0-23.7,0-35.5c0-0.6,0-1.3,0-1.9c0-0.4-0.2-0.7-0.3-1c-1-0.4-1.9-0.2-2.7-0.2c-9.1,0-18.2,0-27.3,0c-1.5,0-3,0-4.6,0
		c-0.5,0-0.9,0.1-1.4,0.2c-0.1,0.4-0.2,0.7-0.2,1c0,0.6,0,1.3,0,1.9c0,11.8,0,23.7,0,35.5c0,0.6,0,1.3,0,1.9c0,0.4,0.2,0.7,0.3,1
		c1,0.4,1.9,0.2,2.7,0.2c9.8,0,19.5,0,29.3,0c1,0,1.9,0,2.9,0C203.7,529.4,204.1,529.3,204.6,529.2z M51.7,529.2
		c0.5-1,0.3-1.9,0.3-2.8c0-11.9,0-23.8,0-35.7c0-0.6,0-1.1,0-1.7c0-0.4-0.2-0.7-0.3-1.1c-0.6-0.1-1.2-0.1-1.7-0.1
		c-10.6,0-21.3-0.1-31.9-0.1c-0.5,0-1-0.1-1.5,0.5c-0.2,0.7-0.1,1.7-0.1,2.7c0,11.8,0,23.5,0,35.3c0,0.6,0,1.3,0,1.9
		c0,0.4,0.2,0.7,0.3,1.1c0.4,0.1,0.7,0.1,1,0.1c11,0,21.9,0,32.9,0.1C50.9,529.3,51.3,529.2,51.7,529.2z M168.3,204.9
		c-0.3,1-0.2,1.9-0.2,2.7c0,11.4,0,22.9,0,34.3c0,0.7,0,1.4,0,2.2c0,0.4,0,0.8,0.5,1.1c0.8,0.3,1.7,0.2,2.5,0.2
		c10.2,0,20.5,0,30.7,0c0.6,0,1.3,0,1.9,0c0.3,0,0.6-0.2,0.8-0.3c0.3-0.8,0.2-1.7,0.2-2.4c0-11.7,0-23.5,0-35.2c0-0.5,0-1,0-1.4
		s-0.2-0.7-0.3-1.1c-0.4-0.1-0.7-0.2-1-0.2c-11.4,0-22.8,0-34.3,0C168.9,204.7,168.7,204.8,168.3,204.9z M168.4,63.4
		c0.9,0.4,1.8,0.3,2.7,0.3c10.2,0,20.5,0,30.7,0c0.6,0,1.1,0,1.7,0c0.4,0,0.8,0,1.2-0.4c0.4-0.6,0.2-1.3,0.2-2c0-11.7,0-23.5,0-35.2
		c0-0.3,0-0.6,0-1s0-0.8-0.5-1.2c-0.7-0.3-1.5-0.1-2.4-0.1c-10.3,0-20.6,0-30.9,0c-0.5,0-1,0-1.4,0s-0.8,0-1.2,0.5
		c-0.3,0.7-0.1,1.6-0.1,2.4c0,11.3,0,22.5,0,33.8c0,0.7,0,1.4,0,2.2C168.2,62.8,168.3,63.1,168.4,63.4z M51.9,23.9
		c-1.1-0.5-2-0.3-2.8-0.3c-9.9,0-19.8,0-29.7,0c-0.6,0-1.1,0-1.7,0c-0.4,0-0.7,0.2-1.1,0.3c-0.3,0.9-0.2,1.7-0.2,2.5
		c0,11.4,0,22.9,0,34.3c0,0.6,0,1.3,0,1.9c0,0.3,0.2,0.6,0.3,1c0.7,0,1.5,0.1,2.2,0.1c1.7,0,3.4,0,5,0c8.2,0,16.3,0,24.5,0
		c0.7,0,1.4,0,2.2,0c0.4,0,0.8,0,1.1-0.3c0.1-0.1,0.2-0.3,0.2-0.4c0-12.3,0.1-24.6,0.1-36.9C52,25.3,52,24.7,51.9,23.9z
		 M204.4,315.6c0.6-0.8,0.3-1.7,0.3-2.5c0-9,0-18.1,0-27.1c0-0.6,0-1.3,0-1.9c0-0.3-0.2-0.6-0.2-0.8c-0.9-0.5-1.8-0.4-2.7-0.4
		c-10.3,0-20.6,0-30.9,0c-0.5,0-1,0-1.4,0s-0.8,0.2-1.1,0.2c-0.5,0.9-0.3,1.8-0.3,2.7c0,9,0,18.1,0,27.1c0,0.6,0,1.1,0,1.7
		c0,0.4,0.2,0.7,0.3,1.1c0.9,0.3,1.7,0.2,2.5,0.2c4.5,0,9,0,13.4,0c5.8,0,11.7,0,17.5,0C202.7,315.9,203.6,316.1,204.4,315.6z
		 M204.5,453.9c-0.3-0.1-0.6-0.2-0.9-0.3c-0.6,0-1.3,0-1.9,0c-10.2,0-20.5,0-30.7,0c-0.6,0-1.1,0-1.7,0c-0.4,0-0.7,0.2-1.2,0.3
		c0,0.8-0.1,1.5-0.1,2.2c0,9,0,18.1,0,27.1c0,0.6,0,1.1,0,1.7c0,0.3,0.2,0.6,0.2,0.9c0.9,0.5,1.8,0.3,2.6,0.3c10.2,0,20.5,0,30.7,0
		c0.6,0,1.1,0,1.7,0c0.4,0,0.8,0,1.2-0.4c0-0.1,0.2-0.4,0.2-0.6c0-10.2,0-20.3,0-30.5C204.7,454.5,204.6,454.2,204.5,453.9z
		 M204.5,383.4c0.4-0.7,0.3-1.4,0.3-2.1c0-9.2,0-18.4,0-27.6c0-0.4,0-0.8,0-1.2c0-0.3-0.1-0.6-0.2-0.9c-0.9-0.4-1.8-0.2-2.6-0.2
		c-10.3,0-20.6,0-30.9,0c-0.5,0-1,0-1.4,0s-0.8,0-1.2,0.5c-0.3,0.7-0.2,1.6-0.2,2.4c0,8.7,0,17.4,0,26.1c0,0.6,0,1.3,0,1.9
		c0,0.4,0,0.8,0.4,1.2c0.5,0.4,1.2,0.2,1.8,0.2c10.7,0,21.4,0,32.1,0c0.5,0,1,0,1.4-0.1C204.1,383.6,204.3,383.4,204.5,383.4z
		 M51.8,97.9c0.4-1,0.3-1.8,0.3-2.6c0-9.1,0-18.2,0-27.3c0-0.5,0-1,0-1.4s-0.2-0.7-0.3-1.1c-0.6-0.1-1.2-0.1-1.7-0.1
		c-10.6,0-21.2,0-31.9,0c-0.5,0-0.9,0.1-1.4,0.2c-0.4,0.9-0.3,1.8-0.3,2.7c0,9,0,18,0,27.1c0,0.6,0,1.3,0,1.9c0,0.3,0.2,0.6,0.3,0.9
		c0.8,0.3,1.6,0.2,2.4,0.2c9.8,0,19.6,0,29.5,0c0.7,0,1.4,0,2.2,0C51.1,98.1,51.4,98,51.8,97.9z M204.5,317.7
		c-1.1-0.4-2.1-0.3-3-0.3c-10,0-20,0-30,0c-0.7,0-1.4,0-2.2,0c-0.3,0-0.6,0.1-0.9,0.2c-0.6,0.9-0.4,1.8-0.4,2.6c0,8.8,0,17.6,0,26.4
		c0,0.6,0,1.3,0,1.9c0,0.3,0.2,0.6,0.2,0.9c0.9,0.4,1.8,0.2,2.7,0.2c10.2,0,20.5,0,30.7,0c0.6,0,1.1,0,1.7,0c0.4,0,0.8,0,1.2-0.4
		c0-0.1,0.2-0.4,0.2-0.6c0-10.1,0-20.1,0-30.2C204.7,318.3,204.6,318.1,204.5,317.7z M16.6,131.7c0.8,0.6,1.5,0.4,2.2,0.4
		c9.9,0,19.8,0,29.8,0c0.7,0,1.4,0,2.2,0c0.4,0,0.8-0.1,1.1-0.5c0.3-0.7,0.2-1.5,0.2-2.3c0-9,0-17.9,0-26.9c0-0.5,0-1,0-1.4
		s-0.2-0.7-0.3-1.1c-1-0.4-1.8-0.2-2.7-0.2c-9.4,0-18.9,0-28.3,0c-1,0-1.9,0-2.9,0c-0.4,0-0.7,0.1-1.2,0.2c-0.1,0.4-0.2,0.7-0.2,1
		C16.3,103.6,16.4,130.2,16.6,131.7z M51.7,457.1c-0.2-0.1-0.5-0.2-0.7-0.2c-11.2,0-22.4-0.1-33.6-0.1c-0.2,0-0.4,0.1-0.6,0.2
		c-0.5,0.8-0.4,1.6-0.4,2.4c0,8.1,0,16.2,0,24.2c0,0.4,0,0.8,0,1.2c0.1,0.4,0.2,0.7,0.3,1.1c0.9,0.3,1.7,0.2,2.5,0.2c10,0,20,0,30,0
		c0.5,0,1,0,1.4,0s0.8-0.1,1.1-0.2c0.4-0.7,0.3-1.4,0.3-2c0-8.2,0-16.5,0-24.7c0-0.5,0-1-0.1-1.4C51.9,457.5,51.8,457.3,51.7,457.1z
		 M16.8,338.2c0.2,0.1,0.3,0.2,0.5,0.2c0.6,0,1.1,0.1,1.7,0.1c1.7,0,3.4-0.1,5-0.1c8.4,0,16.8,0,25.2,0c0.9,0,1.8,0.2,2.6-0.2
		c0.5-0.7,0.3-1.5,0.4-2.3c0-6,0-12,0-18c0-0.6,0-1.1-0.1-1.7c0-0.2-0.2-0.4-0.3-0.7c-0.8-0.3-1.6-0.2-2.3-0.2c-9.4,0-18.8,0-28.3,0
		c-1.1,0-2.2,0-3.4,0.1c-0.4,0-0.8,0.1-1.2,0.6c0,0.3-0.1,0.8-0.1,1.3c0,6.4,0,12.8,0,19.2c0,0.4,0,0.8,0.1,1.2
		C16.5,337.8,16.7,338,16.8,338.2z M51.6,179.1c-0.2,0-0.5-0.2-0.8-0.2c-11.1,0-22.2,0-33.3,0c-0.2,0-0.4,0.1-0.6,0.2
		c-0.5,0.7-0.4,1.4-0.4,2.1c0,3.6,0,7.2,0,10.8c0,2.6,0,5.3,0,7.9c0,0.6-0.1,1.3,0.4,2c0.5,0,1.1,0.1,1.8,0.1c2.2,0,4.5,0,6.7,0
		c7.9,0,15.8,0,23.7,0c0.9,0,1.8,0.2,2.6-0.2c0.5-0.6,0.3-1.4,0.3-2.1c0-3.5,0-7,0-10.5c0-2.7,0-5.4,0-8.1
		C52,180.4,52.1,179.7,51.6,179.1z M204.4,385.5c-0.7-0.4-1.6-0.2-2.5-0.2c-9.8,0-19.7,0-29.5,0c-1,0-1.9,0-2.9,0
		c-0.4,0-0.8,0.1-1.1,0.2c-0.5,0.7-0.4,1.3-0.4,2c0,2,0,4,0,6c0,3.8,0,7.5,0,11.3c0,0.7-0.1,1.4,0.4,2.1c0.8,0.4,1.7,0.2,2.6,0.2
		c10.2,0,20.5,0,30.7,0c0.6,0,1.1,0,1.7,0c0.4,0,0.8,0,1.2-0.5c0-0.2,0.1-0.5,0.1-0.8c0-6.6,0-13.1-0.1-19.7
		C204.7,385.8,204.5,385.7,204.4,385.5z M204.5,87.9c-0.5-0.1-0.9-0.2-1.3-0.2c-11.4,0-22.8,0-34.3,0.1c-0.1,0-0.3,0.1-0.5,0.2
		c-0.1,0.4-0.2,0.8-0.2,1.3c0,1.4,0,2.7,0,4.1c0,4.5,0,8.9,0,13.4c0,0.8-0.2,1.6,0.4,2.4c0.5,0.1,1,0.2,1.6,0.2
		c10.9,0,21.7,0,32.6,0c0.4,0,0.8,0,1.2-0.1c0.2,0,0.4-0.2,0.7-0.3c0.1-0.2,0.2-0.5,0.2-0.7c0-6.5,0-13.1,0-19.6
		C204.7,88.6,204.6,88.3,204.5,87.9z M204.6,408.7c-1.1-0.4-2-0.3-2.9-0.3c-10.2,0-20.3,0-30.5,0c-0.6,0-1.1,0-1.7,0
		c-0.4,0-0.8,0-1.3,0.5c-0.1,0.3-0.1,0.7-0.1,1.2c0,1.8,0,3.5,0,5.3c0,3.9,0,7.8,0,11.8c0,0.7-0.1,1.4,0.4,2.1
		c0.8,0.3,1.7,0.2,2.6,0.2c10.2,0,20.5,0,30.7,0c0.6,0,1.1,0,1.7,0c0.4,0,0.8,0,1.1-0.4c0.3-1.8,0.4-13.4,0.2-19.2
		C204.7,409.5,204.6,409.2,204.6,408.7z M168.3,431.3c-0.1,0.7-0.1,1.2-0.1,1.7c0,1.2,0,2.4,0,3.6c0,4.3,0,8.6,0,13
		c0,0.8-0.2,1.6,0.4,2.4c0.8,0.3,1.7,0.2,2.5,0.2c10.2,0,20.5,0,30.7,0c0.6,0,1.1,0,1.7,0c0.4,0,0.8,0,1.2-0.4
		c0-0.1,0.2-0.4,0.2-0.6c0-6.3,0-12.6,0-19c0-0.2-0.1-0.4-0.2-0.8c-0.3-0.1-0.6-0.2-0.9-0.3c-0.7,0-1.4,0-2.2,0c-8.5,0-17,0-25.4,0
		c-2,0-4,0-6,0C169.5,431.1,169,431.2,168.3,431.3z M204.5,65.4c-1-0.4-1.9-0.2-2.8-0.2c-9.4,0-18.9,0-28.3,0c-1.2,0-2.4,0-3.6,0
		c-0.5,0-0.9,0.1-1.5,0.2c-0.1,0.5-0.2,1-0.2,1.5c0,5.9,0,11.8,0,17.8c0,0.5,0.1,0.9,0.2,1.4c0.9,0.4,1.8,0.3,2.7,0.3
		c10.2,0,20.5,0,30.7,0c0.6,0,1.1,0,1.7,0c0.4,0,0.8,0,1.1-0.5c0-0.1,0.2-0.4,0.2-0.6c0-6.3,0-12.6,0-19
		C204.7,66,204.6,65.8,204.5,65.4z M51.7,133.9c-0.8-0.4-1.7-0.3-2.6-0.3c-9.6,0-19.2,0-28.8,0c-0.8,0-1.6,0-2.4,0
		c-0.4,0-0.8,0.1-1.2,0.2c-0.1,0.5-0.2,1-0.2,1.4c0,1.4,0,2.9,0,4.3c0,4.3,0,8.6,0,13c0,0.6-0.1,1.3,0.3,1.8
		c0.6,0.4,1.4,0.3,2.1,0.3c9.9,0,19.8,0,29.8,0c0.7,0,1.4,0,2.2,0c0.4,0,0.7-0.2,1.1-0.3c0-0.6,0.1-1.2,0.1-1.7c0-1.6,0-3.2,0-4.8
		c0-3.9,0-7.8,0-11.8C52,135.3,52.2,134.6,51.7,133.9z M168.5,111.2c-0.5,0.9-0.4,1.6-0.4,2.3c0,5.4,0,10.7,0,16.1
		c0,0.4,0,0.8,0,1.2s0.1,0.8,0.5,1.2c0.6,0.2,1.4,0.1,2.2,0.1c4,0,8,0,12,0c6.3,0,12.6,0,18.9,0c0.9,0,1.8,0.2,2.7-0.3
		c0.1-0.4,0.2-0.8,0.2-1.3c0-5.9,0-11.8,0-17.7c0-0.5-0.2-0.9-0.2-1.3c-0.3-0.1-0.4-0.3-0.5-0.3c-11.3,0-22.7-0.1-34-0.1
		C169.5,111,169,111.1,168.5,111.2z M16.6,177.1c0.7,0.4,1.4,0.3,2,0.3c5.4,0,10.9,0,16.3,0c4.8,0,9.6,0,14.4,0
		c0.8,0,1.6,0.2,2.4-0.3c0.4-0.6,0.3-1.4,0.3-2.1c0-5.1,0-10.2,0-15.4c0-0.7,0-1.4,0-2.2c0-0.4-0.2-0.7-0.3-1.1
		c-1-0.4-1.8-0.3-2.7-0.3c-9.4,0-18.9,0-28.3,0c-1,0-1.9,0-2.9,0c-0.4,0-0.8,0.1-1.1,0.2c-0.4,0.8-0.3,1.7-0.3,2.4
		c0,4.2,0,8.3,0,12.5c0,1.4,0,2.9,0,4.3C16.4,176.2,16.6,176.6,16.6,177.1z M51.7,340.2c-0.9-0.4-1.8-0.3-2.7-0.3
		c-9.3,0-18.5,0-27.8,0c-1.1,0-2.2,0-3.4,0.1c-0.4,0-0.8,0.1-1.1,0.2c-0.5,0.7-0.4,1.5-0.4,2.2c0,5.4,0,10.9,0,16.3
		c0,0.4,0,0.8,0,1.2c0.1,0.4,0.2,0.7,0.4,1.2c0.9,0,1.7,0.1,2.5,0.1c9.9,0,19.8,0,29.7,0c0.6,0,1.1,0,1.7,0c0.4,0,0.7-0.2,1-0.2
		c0.4-0.9,0.3-1.7,0.3-2.5c0-5.1,0-10.2,0-15.3c0-0.6,0-1.3,0-1.9C52,340.8,51.8,340.5,51.7,340.2z M16.6,362.8
		c-0.1,0.8-0.2,1.5-0.2,2.1c0,2.9,0,5.8,0,8.6c0,2.8,0,5.6,0,8.4c0,0.5-0.1,1.1,0.4,1.6c0.1,0.1,0.3,0.2,0.4,0.2
		c0.5,0,1,0.1,1.4,0.1c1.3,0,2.6,0,3.8,0c8.7,0,17.4,0,26.1,0c0.7,0,1.4,0,2.2,0c0.4,0,0.7-0.2,1-0.3c0.1-0.3,0.2-0.4,0.2-0.6
		c0-6.3,0-12.6,0-18.9c0-0.4-0.1-0.8-0.5-1c-2.3-0.3-20.9-0.4-33-0.2C17.9,362.7,17.4,362.8,16.6,362.8z M204.5,151.4
		c0.1-0.4,0.2-0.7,0.2-1c0-5.1,0-10.2,0-15.3c0-0.4-0.2-0.8-0.2-1c-0.8-0.5-1.5-0.4-2.2-0.4c-10.6,0-21.2,0-31.9,0c-0.3,0-0.6,0-1,0
		c-0.4,0.1-0.7,0.2-1.2,0.3c-0.1,0.5-0.2,0.8-0.2,1.2c0,5,0,9.9,0,14.9c0,0.5,0.2,0.9,0.3,1.4c0.5,0.1,1,0.2,1.5,0.2
		C178.8,151.8,202.2,151.7,204.5,151.4z M51.7,385.3c-0.9,0-1.7-0.1-2.5-0.1c-9.4,0-18.7,0-28.1,0c-1.1,0-2.2,0-3.4,0.1
		c-0.4,0-0.8,0-1.2,0.6c0,0.4-0.1,1.1-0.1,1.7c0,2.6,0,5.3,0,7.9c0,1.8,0,3.5,0,5.3c0,0.5,0,1,0.6,1.4c1.4,0.1,3,0.2,4.6,0.2
		c9.1,0,18.2,0,27.3,0c0.6,0,1.1,0,1.7,0c0.4,0,0.8-0.1,1.1-0.2c0.1-0.3,0.2-0.6,0.2-0.8c0-5,0-10.1,0-15.1
		C52,386,51.8,385.8,51.7,385.3z M131.4,252.3c0,0.7-0.1,1.2-0.1,1.8c0,8.1,0,16.2,0,24.2c0,0.6,0,1.1,0,1.7c0,0.4,0.1,0.8,0.2,1
		c0.8,0.5,1.5,0.4,2.2,0.4c4.4,0,8.8,0,13.2,0c0.4,0,0.8,0,1.2,0c0.4-0.1,0.7-0.2,1.1-0.4c0-0.7,0.1-1.3,0.1-2
		c0-6.8-0.1-13.6-0.1-20.4c0-0.1-0.1-0.3-0.2-0.4c-0.7-0.4-1.6,0.2-2.3-0.5c0.1-0.2,0.1-0.4,0.3-0.5c0.4-0.2,0.5-0.6,0.6-1
		c0-0.1,0.2-0.1,0.4-0.2c0.4,0,0.7,0.5,1.2,0.1c0.2-1.2,0.3-2.6-0.1-3.8c-0.7-0.5-1.3-0.4-2-0.4
		C137.1,251.8,133.3,251.9,131.4,252.3z"/>
	<path d="M373.6,206.7c-0.5-1.9,0-3.7-0.4-5.3c-0.8-0.6-1.6-0.4-2.3-0.4c-5,0-10.1,0-15.1,0c-1.7,0-3.4,0-5,0
		c-0.5,0-0.9,0.1-1.4,0.2c-0.7,1.7,0,3.6-0.6,5.3c-0.4,0.1-0.7,0.2-1.1,0.2c-0.6,0-1.1,0-1.7,0c-9.3,0-18.6,0-27.8,0
		c-0.9,0-1.8,0.1-2.5-0.1c-0.5-0.4-0.4-0.8-0.5-1.2c0-0.6,0-1.3,0-1.9c0-51.4,0-102.7,0-154.1c0-1,0-2.1,0-3.2
		c0.4-0.1,0.8-0.3,1.2-0.4c0.7-0.1,1.4,0,2.2,0c22.6,0,45.1,0,67.7,0c6.1,0,12.2,0.1,18.2,0.1c0.5,0,1.1,0.1,1.5,0.1
		c0.5,0.4,0.5,0.8,0.6,1.2c0,0.7,0,1.4,0,2.2c0,51.4,0,102.7,0,154.1c0,1,0.1,1.9-0.2,3c-0.4,0.1-0.7,0.2-1.1,0.3
		c-0.6,0.1-1.1,0-1.7,0c-9.2,0-18.4,0-27.6,0C375.3,206.8,374.6,206.7,373.6,206.7z M404.8,128.8c0.1-0.4,0.2-0.6,0.2-0.8
		c0-26.5,0-52.9,0-79.4c0-0.2-0.1-0.5-0.2-0.6c-0.6-0.5-1.2-0.4-1.9-0.4c-5.6-0.1-11.2-0.2-16.8-0.2c-22.1,0-44.1,0-66.2,0
		c-0.7,0-1.4,0-2.2,0c-0.4,0-0.7,0.2-1,0.3c-0.4,1-0.3,1.9-0.3,2.7c0,25.1,0,50.2,0,75.3c0,0.7,0,1.4,0,2.2c0,0.4,0.2,0.7,0.4,1.1
		c0.9,0,1.7,0,2.5,0c3.2,0,6.4,0,9.6,0c1.4,0,2.9,0,4.3,0c0.4,0,0.7-0.2,1.1-0.3c0-0.6,0.1-1.2,0.1-1.7c0-0.9,0-1.8,0-2.6
		c0-0.4,0.2-0.7,0.3-1.1c1-0.4,2-0.3,3-0.3c15.4,0,30.9,0,46.3,0c0.6,0,1.3,0,1.9,0c0.4,0,0.8,0.1,1.2,0.6c0,0.3,0.1,0.8,0.1,1.2
		c0,1,0,1.9,0,2.9c0,0.4,0.2,0.7,0.2,1.1c0.3,0.1,0.6,0.2,0.8,0.2c5.2,0,10.4,0,15.6,0C404.2,129.1,404.4,128.9,404.8,128.8z
		 M373.1,175.7c0.4-1,0.3-1.8,0.3-2.6c0-15.3,0-30.6,0-45.8c0-0.5,0-1,0-1.4s-0.2-0.7-0.2-1c-0.9-0.5-1.7-0.3-2.5-0.3
		c-4.4,0-8.8,0-13.2,0c-2.2,0-4.3,0-6.5,0c-0.5,0-1.1,0.1-1.5,0.2c-0.5,0.9-0.4,1.7-0.4,2.5c0,15.4,0,30.9,0,46.3c0,0.4,0,0.8,0,1.2
		c0,0.3,0.1,0.6,0.2,0.8c0.2,0.1,0.4,0.3,0.5,0.3c7.4,0,14.9,0.1,22.3,0.1C372.4,175.9,372.7,175.8,373.1,175.7z M347.3,204.8
		c0.3-0.9,0.2-1.8,0.2-2.7c0-8.8,0-17.6,0-26.4c0-0.6,0-1.1,0-1.7c0-0.4,0-0.8-0.6-1.2c-0.7-0.2-1.5-0.1-2.4-0.1
		c-8.2,0-16.3,0-24.5,0c-0.8,0-1.6,0-2.4,0c-0.3,0-0.6,0.2-0.8,0.2c-0.5,0.9-0.3,1.8-0.3,2.7c0,8.8,0,17.6,0,26.4c0,0.6,0,1.1,0,1.7
		c0,0.4,0,0.8,0.5,1.1c0.7,0.4,1.5,0.2,2.3,0.2c8.5,0,17,0,25.4,0c0.6,0,1.1,0,1.7,0C346.7,205.1,347,204.9,347.3,204.8z
		 M335.8,130.4c-0.4,0.1-0.9,0.2-1.4,0.2c-1.5,0-3,0-4.6,0c-3.7,0-7.3,0-11,0c-0.7,0-1.4-0.1-2.1,0.4c-0.3,0.8-0.2,1.7-0.2,2.5
		c0,7.4,0,14.9,0,22.3c0,0.6,0,1.1,0,1.7c0,0.4,0,0.8,0.5,1.3c0.7,0.3,1.5,0.2,2.4,0.2c8.4,0,16.8,0,25.2,0c0.6,0,1.1,0,1.7,0
		c0.4,0,0.8-0.1,1.2-0.6c0-0.6,0.1-1.4,0.1-2.2c0-9.6,0-19.2,0-28.7c0-0.6,0-1.1,0-1.7c0-0.3-0.1-0.6-0.2-1c-0.4-0.1-0.7-0.2-1-0.2
		c-3,0-5.9,0-8.9,0c-0.4,0-0.7,0.2-1,0.3c-0.4,1-0.2,1.8-0.3,2.7C336.1,128.5,336.4,129.5,335.8,130.4z M404.7,158.8
		c0.4-0.9,0.3-1.8,0.3-2.7c0-6.8,0-13.6,0-20.4c0-1.2,0-2.4,0-3.6c0-0.4-0.1-0.8-0.2-1.1c-0.8-0.5-1.5-0.4-2.2-0.4
		c-3.6,0-7.2,0-10.8,0c-1.6,0-3.2,0-4.8-0.1c-0.4,0-0.8-0.1-1.2-0.7c0-1.2,0-2.5-0.1-3.9c0-0.5-0.2-0.9-0.3-1.3
		c-1.5-0.3-7.3-0.4-9.4-0.2c-0.3,0-0.6,0.2-0.9,0.3c-0.1,0.3-0.2,0.5-0.2,0.7c0,10.8,0,21.6,0,32.4c0,0.2,0.1,0.4,0.2,0.6
		c0.7,0.6,1.4,0.4,2.1,0.4c8.3,0,16.6,0.1,25,0.1c0.6,0,1.1,0,1.7,0C404.2,159,404.5,158.9,404.7,158.8z M404.8,185.5
		c-0.3-0.2-0.4-0.3-0.6-0.3c-9.2,0-18.4-0.1-27.5-0.1c-0.5,0-0.9,0.1-1.5,0.2c-0.1,0.5-0.3,0.9-0.3,1.4c0,5.7,0,11.5,0,17.2
		c0,0.3,0.1,0.6,0.2,0.8c0.7,0.5,1.5,0.4,2.2,0.4c4.5,0.1,8.9,0,13.4,0.2c4.1,0.2,8.3,0,12.5,0c0.5,0,1.1,0.1,1.7-0.5
		c0-0.2,0.1-0.6,0.1-1C405.2,199.2,405,187.4,404.8,185.5z M349.4,199.3c0.7,0.4,1.5,0.2,2.3,0.2c6.3,0,12.6,0,18.9,0
		c0.5,0,1,0,1.4,0s0.7-0.2,1.1-0.3c0.3-0.9,0.2-1.7,0.2-2.5c0-5.2,0-10.4,0-15.6c0-0.8,0-1.6,0-2.4c0-0.4-0.2-0.7-0.3-1
		c-0.9-0.4-1.7-0.2-2.5-0.2c-4.6,0-9.3,0-13.9,0c-2,0-4,0-6,0c-0.5,0-1-0.1-1.5,0.5c0,0.3-0.1,0.8-0.1,1.3c0,1.2,0,2.4,0,3.6
		c0,4.8,0,9.6,0,14.4C349.1,197.9,348.9,198.6,349.4,199.3z M404.8,173.2c-0.8-0.6-1.7-0.4-2.5-0.4c-5.4,0-10.9,0-16.3,0
		c-3.1,0-6.2,0-9.4,0c-0.5,0-1.1-0.1-1.6,0.5c0,0.2-0.2,0.4-0.2,0.6c0,2.9,0,5.8,0,8.6c0,0.3,0.2,0.6,0.3,1c0.7,0.1,1.3,0.1,1.9,0.1
		c8.6,0,17.1,0,25.7,0c0.3,0,0.6,0,1,0c0.4-0.1,0.7-0.2,1-0.3C405.1,181.2,405.1,175.3,404.8,173.2z M389.9,171.2
		c0.7,0,1.4,0.1,2.2,0.1c2.5,0,4.9,0,7.4,0c1.4,0,2.9,0,4.3,0c0.4,0,0.7-0.2,1-0.4c0.2-1.6,0.2-7.9,0.1-9.4c0-0.2-0.2-0.4-0.3-0.7
		c-0.4-0.1-0.8-0.1-1.1-0.2c-0.9,0-1.8,0-2.6,0c-3.2,0-6.4,0-9.6,0c-0.6,0-1.1,0-1.6,0.5c0,0.4-0.2,0.8-0.2,1.3
		c0,2.7,0.1,5.4,0.1,8.1C389.6,170.7,389.7,170.8,389.9,171.2z M331.7,171.1c0.4-1.7,0.5-4.9,0.3-9.2c0-0.4-0.2-0.7-0.3-1.2
		c-0.5-0.1-0.9-0.2-1.2-0.2c-0.8,0-1.6,0-2.4,0c-3.3,0-6.5,0-9.8,0c-0.5,0-1.1-0.1-1.6,0.4c-0.1,0.1-0.2,0.3-0.2,0.4
		c0,3,0,5.9,0,8.9c0,0.3,0.2,0.6,0.3,0.8C318.9,171.3,329.6,171.3,331.7,171.1z M347.3,171c0.1-0.3,0.2-0.4,0.2-0.5c0-3,0-5.9,0-8.9
		c0-0.3-0.2-0.6-0.3-0.8c-0.3-0.1-0.4-0.2-0.6-0.2c-4,0-8,0-12,0c-0.3,0-0.6,0.2-0.9,0.3c-0.1,0.4-0.2,0.7-0.2,1c0,2.7,0,5.4,0,8.2
		c0,0.4,0.2,0.7,0.3,1.1c0.5,0.1,0.9,0.1,1.3,0.1c3.8,0,7.7,0,11.5-0.1C346.8,171.2,347,171.1,347.3,171z M375.2,160.9
		c-0.4,1.5-0.5,4-0.3,8.8c0,0.5,0.2,0.9,0.3,1.4c0.5,0.1,0.9,0.2,1.2,0.2c3.7,0,7.5-0.1,11.2-0.1c0.1,0,0.3-0.2,0.4-0.2
		c0.4-1.5,0.5-4.8,0.3-9c0-0.4,0-0.8-0.5-1.2c-0.2,0-0.6-0.1-1-0.1c-3.7,0-7.5,0.1-11.2,0.1C375.5,160.7,375.3,160.8,375.2,160.9z"
		/>
	<path d="M315.4,263c0.5-0.1,0.8-0.2,1.1-0.2c29.6,0,59.2,0,88.8,0.1c0.2,0,0.5,0.1,0.8,0.2c0.1,0.3,0.3,0.7,0.3,1
		c0.1,0.6,0,1.3,0,1.9c0,76.1,0,152.3,0,228.4c0,0.9,0.1,1.9-0.1,2.7c-0.4,0.5-0.8,0.5-1.2,0.5c-0.6,0-1.3,0-1.9,0
		c-28.2,0-56.5,0-84.7,0c-1,0-1.9,0.1-3-0.2c-0.1-0.3-0.2-0.7-0.3-1.1c0-0.6,0-1.3,0-1.9c0-76.1,0-152.1,0-228.2
		C315.3,265.3,315.2,264.2,315.4,263z M316.9,495.9c0.2,0.1,0.5,0.2,0.8,0.2c0.6,0,1.3,0,1.9,0c27.4,0,54.9,0,82.3,0
		c0.6,0,1.3,0,1.9,0c0.4,0,0.7-0.2,1.1-0.3c0-0.5,0.1-0.9,0.1-1.3c0-32,0-64,0-96c0-0.2-0.1-0.5-0.1-0.6c-0.5-0.5-1.1-0.5-1.6-0.5
		c-4.8,0-9.6,0-14.4,0.1c-2.4,0-4.8,0-7.2,0c-0.5,0-1,0-1.4-0.6c0-0.2-0.1-0.6-0.1-1c0-0.9,0-1.8,0-2.6c0-3.4,0-6.7,0-10.1
		c0-0.5,0.1-1.1-0.5-1.6c-0.9-0.3-1.9-0.1-2.8-0.1c-18.9,0-37.7,0-56.6,0c-0.7,0-1.4,0-2.2,0c-0.4,0-0.8,0-1.3,0.4
		c0,0.2-0.2,0.4-0.2,0.7c0,0.6,0,1.3,0,1.9c0,33.3,0,66.7,0,100c0,3,0,6.1,0,9.1C316.5,494.4,316.4,495.1,316.9,495.9z M316.8,264.5
		c-0.5,1.1-0.3,2-0.3,3c0,22,0,44,0,66c0,0.6,0,1.3,0,1.9c0,0.4,0.2,0.7,0.2,1.1c1,0.4,2,0.2,2.9,0.2c22.2,0,44.3,0,66.5,0
		c1,0,2.1,0,3.1,0c4.7,0,9.4,0,14.2,0c0.5,0,1,0,1.4-0.5c0.3-0.8,0.2-1.8,0.2-2.7c0-22,0-44,0-66c0-0.6,0-1.3,0-1.9
		c0-0.4-0.2-0.7-0.3-1c-0.4-0.1-0.6-0.2-0.8-0.2c-28.6,0-57.3-0.1-85.9-0.1C317.7,264.3,317.3,264.4,316.8,264.5z M316.9,379.8
		c1,0.3,1.8,0.2,2.7,0.2c27.4,0,54.7,0,82.1,0c0.7,0,1.4,0,2.2,0c0.4,0,0.7-0.2,1.2-0.4c0-0.9,0-1.8,0-2.7c0-11.8,0-23.5,0-35.3
		c0-0.6,0-1.3,0-1.9c0-0.4,0-0.8-0.5-1.2c-0.5,0-1.1-0.1-1.7-0.1c-5.4,0-10.7-0.1-16.1-0.1c-22.2,0-44.5,0-66.7,0
		c-0.7,0-1.4,0-2.2,0c-0.4,0-0.7,0.2-1.1,0.3c-0.3,0.9-0.2,1.8-0.2,2.7c0,7.4,0,14.9,0,22.3c0,4.6,0,9.1,0,13.7
		C316.5,378.1,316.4,378.9,316.9,379.8z M404.9,382c-0.3-0.2-0.5-0.3-0.6-0.3c-6.9-0.1-13.7-0.1-20.6-0.2c-0.5,0-1.1,0.1-1.6,0.1
		c-0.2,0.2-0.3,0.3-0.3,0.5c0,4.2-0.1,8.5-0.1,12.7c0,0.3,0.1,0.6,0.2,0.8c0.8,0.5,1.6,0.3,2.4,0.3c6.2,0,12.3,0,18.5-0.1
		c0.3,0,0.6,0,1,0c0.4-0.1,0.7-0.2,1-0.3c0.1-0.3,0.2-0.4,0.2-0.6c0-3.9,0-7.8,0-11.8C405,382.9,404.9,382.5,404.9,382z"/>
	<path d="M64.6,47.1c0.9-0.5,1.7-0.3,2.5-0.3c5.7,0,11.4,0,17,0c22.8,0,45.6,0,68.4,0c1,0,2.1-0.1,3.2,0.2c0.1,0.3,0.3,0.7,0.3,1.1
		c0.1,0.7,0,1.4,0,2.2c0,51.6,0,103.2,0,154.8c0,1,0.2,2.1-0.2,2.9c-0.5,0.5-0.9,0.5-1.3,0.5c-0.6,0-1.1,0-1.7,0
		c-9.4,0-18.7,0-28.1,0c-0.9,0-1.8,0.2-2.7-0.3c-0.7-1.8,0.1-3.8-0.5-5.7c-0.3-0.1-0.7-0.2-1.1-0.3c-0.6-0.1-1.1,0-1.7,0
		c-6.2,0-12.5,0-18.7,0c-0.8,0-1.6-0.1-2.4,0.3c-0.6,1.9,0.1,3.8-0.5,5.8c-0.5,0.1-1,0.2-1.4,0.2c-1.2,0-2.4,0-3.6,0
		c-8.3,0-16.6,0-25,0c-0.9,0-1.8,0.2-2.7-0.3c-0.1-0.2-0.2-0.5-0.3-0.8c0-0.7,0-1.4,0-2.2c0-51.8,0-103.5,0-155.3
		C64.4,48.9,64.3,47.9,64.6,47.1z M84.3,124.2c1-0.5,1.9-0.3,2.7-0.3c15.4,0,30.9,0,46.3,0c0.6,0,1.3,0,1.9,0c0.3,0,0.6,0.2,0.9,0.3
		c0.7,1.9-0.2,3.9,0.6,5.6c0.8,0.4,1.7,0.3,2.4,0.3c4.1,0,8.2,0,12.2,0c0.6,0,1.3,0,1.9,0c0.4,0,0.7-0.2,1-0.3c0.3-1.1,0.2-2,0.2-3
		c0-25,0-50.1,0-75.1c0-0.6,0-1.3,0-1.9c0-0.4,0-0.8-0.5-1.3c-0.7-0.3-1.7-0.1-2.6-0.1c-27.4,0-54.9,0-82.3,0c-0.6,0-1.1,0-1.7,0
		c-0.4,0-0.8,0-1.1,0.3c-0.4,0.4-0.3,0.9-0.3,1.4c0,2.1,0,4.2,0,6.2c0,23.4,0,46.9,0,70.3c0,0.7,0,1.4,0,2.2c0,0.4,0,0.8,0.5,1.2
		c0.2,0,0.6,0.1,1,0.1c5,0,10.1,0,15.1,0c0.4,0,0.8-0.1,1.2-0.2C84.4,128,83.8,126.1,84.3,124.2z M97.9,176.5
		c0.7,0.6,1.4,0.4,2.1,0.4c6.5,0,13.1,0,19.6,0c0.5,0,1,0,1.4-0.1c0.2,0,0.4-0.2,0.6-0.3c0.3-0.8,0.2-1.6,0.2-2.4
		c0-15.3,0-30.5,0-45.8c0-0.6,0-1.1,0-1.7c0-0.4-0.2-0.7-0.3-1.1c-0.5-0.1-0.9-0.2-1.3-0.2c-7,0-14.1,0-21.1,0c-0.1,0-0.2,0-0.2,0
		c-0.4,0-0.8,0.1-1.2,0.5c-0.3,0.8-0.1,1.7-0.1,2.7c0,15,0,30,0,45c0,0.6,0,1.3,0,1.9C97.7,176,97.8,176.3,97.9,176.5z M95.8,174.1
		c-0.8-0.6-1.7-0.3-2.6-0.3c-8.2,0-16.3,0-24.5,0c-0.6,0-1.1,0-1.7,0c-0.3,0-0.6,0.2-1,0.3c0,0.7-0.1,1.3-0.1,1.9
		c0,9.1,0,18.2,0,27.3c0,0.7,0,1.4,0,2.2c0,0.4,0.1,0.8,0.5,1.1c0.7,0.3,1.5,0.2,2.3,0.2c8.2,0,16.3,0,24.5,0c0.5,0,1,0,1.4,0
		s0.7-0.2,1.2-0.3c0.1-0.7,0.1-1.3,0.2-2c0-2,0-4,0-6c0-7.3,0-14.6,0-21.8C96.1,175.9,96.2,175,95.8,174.1z M123.7,159.6
		c0.7,0.5,1.5,0.4,2.2,0.4c8.8,0,17.6,0,26.4,0c0.3,0,0.6,0,1,0c0.4-0.1,0.7-0.2,1.1-0.3c0.1-0.4,0.2-0.7,0.2-1c0-8.6,0-17.1,0-25.7
		c0-0.4-0.2-0.7-0.2-1.1c-0.8-0.4-1.5-0.3-2.2-0.3c-3.3,0-6.6,0-9.8,0c-1.9,0-3.8,0-5.8,0c-0.5,0-1,0-1.4-0.6
		c-0.2-0.7-0.1-1.6-0.1-2.4c0-0.9,0.1-1.9-0.3-2.9c-0.3-0.1-0.6-0.2-0.9-0.2c-3,0-5.9,0-8.9,0c-0.4,0-0.7,0.2-1,0.3
		c-0.4,1-0.2,1.9-0.2,2.7c0,8.9,0,17.8,0,26.6c0,1.1,0,2.2,0,3.4C123.6,158.9,123.7,159.3,123.7,159.6z M85.5,131.2
		c-1,0.5-1.8,0.4-2.6,0.4c-4.6,0-9.1,0-13.7,0c-0.7,0-1.4,0-2.2,0c-0.3,0-0.6,0.2-0.9,0.3c-0.3,0.9-0.2,1.8-0.2,2.7
		c0,7,0,13.9,0,20.9c0,1,0,2.1,0,3.1c0,0.4,0.1,0.8,0.2,1.2c0.7,0.1,1.3,0.2,2,0.2c2.4,0,4.8,0,7.2,0c5.9,0,11.8,0,17.8,0
		c0.9,0,1.8,0.2,2.6-0.3c0.5-0.6,0.3-1.4,0.3-2.1c0-9.9,0-19.8,0-29.8c0-0.3,0-0.6,0-1s0-0.8-0.4-1.2c-0.1-0.1-0.4-0.2-0.6-0.2
		c-2.8,0-5.6,0-8.4,0c-0.3,0-0.6,0.2-0.8,0.3C85.4,127.6,85.9,129.4,85.5,131.2z M123.9,206.6c1,0.2,1.9,0.2,2.8,0.2
		c8.3,0,16.6,0,24.9,0c0.6,0,1.1,0,1.7,0c0.4,0,0.7-0.2,1.1-0.3c0.3-0.8,0.2-1.5,0.3-2.2c0-2.6,0-5.3,0-7.9c0-2.8,0-5.6,0-8.4
		c0-0.5,0.1-1.1-0.5-1.7c-0.7-0.2-1.6-0.1-2.4-0.1c-8.2,0-16.3,0-24.5,0c-0.7,0-1.4,0-2.2,0c-0.4,0-0.8,0.1-1.1,0.2
		c-0.1,0.3-0.3,0.5-0.3,0.8c0,6.2,0,12.5,0,18.7C123.6,206,123.7,206.3,123.9,206.6z M97.9,178.7c-0.1,0.5-0.2,0.9-0.2,1.2
		c0,6.4,0,12.8,0,19.2c0,0.1,0,0.2,0,0.2c0,0.4,0.1,0.8,0.7,1.2c0.6,0,1.4,0.1,2.2,0.1c6.2,0,12.3,0,18.5,0c0.6,0,1.1,0,1.7,0
		c0.4,0,0.7-0.2,1-0.3c0.4-0.9,0.3-1.7,0.3-2.5c0-4.8,0-9.6,0-14.4c0-1.2,0-2.4,0-3.6c0-0.4,0-0.8-0.6-1.2c-0.2,0-0.6-0.1-1-0.1
		C114.7,178.3,100,178.4,97.9,178.7z M123.8,174c-0.1,0.3-0.2,0.5-0.2,0.8c0,3,0,5.9,0,8.9c0,0.2,0.1,0.4,0.2,0.6
		c0.7,0.5,1.4,0.3,2.1,0.3c8.8,0,17.6,0,26.4,0c0.3,0,0.6,0,1,0c0.4-0.1,0.7-0.2,1.1-0.3c0.3-1.5,0.4-7.6,0.2-9.7
		c0-0.2-0.2-0.4-0.3-0.7c-0.8-0.3-1.7-0.2-2.6-0.2c-7.4,0-14.7,0-22.1,0c-1.4,0-2.9,0-4.3,0C124.7,173.8,124.3,173.9,123.8,174z
		 M139.3,161.7c-0.2,1.9-0.3,7.8-0.1,9.8c0,0.1,0.2,0.3,0.3,0.5c0.2,0,0.5,0.2,0.8,0.2c4.4,0,8.8,0,13.2,0c0.3,0,0.6-0.2,0.9-0.2
		c0.1-0.3,0.2-0.5,0.2-0.8c0-2.9,0-5.7,0-8.6c0-0.3-0.2-0.6-0.3-0.8c-1.8-0.3-9.3-0.4-13.7-0.2C140.1,161.6,139.7,161.7,139.3,161.7
		z M81.3,172c0.2-1.9,0.3-8,0.1-9.8c0-0.1-0.2-0.3-0.3-0.5c-0.3,0-0.7-0.2-1.1-0.2c-4.2,0-8.5,0-12.7,0c-0.4,0-0.7,0.2-1.1,0.3
		c-0.1,0.3-0.2,0.6-0.2,0.8c0,2.9,0,5.8,0,8.6c0,0.3,0.2,0.6,0.3,0.8c1.7,0.2,10.8,0.4,14,0.2C80.6,172.2,80.9,172.1,81.3,172z
		 M123.8,161.7c-0.1,0.4-0.2,0.5-0.2,0.7c0,3,0,5.9,0,8.9c0,0.3,0.2,0.6,0.3,0.8c1.8,0.2,8.2,0.3,12.1,0.2c0.4,0,0.8-0.1,1.3-0.2
		c0.1-0.5,0.2-0.9,0.3-1.4c0.2-4.8,0.1-7.3-0.3-8.8c-0.1-0.1-0.3-0.2-0.4-0.2c-4,0-8-0.1-12-0.1
		C124.5,161.6,124.2,161.7,123.8,161.7z M95.7,161.7c-0.5,0-0.8-0.1-1.2-0.1c-3.4,0-6.9,0-10.3,0c-0.2,0-0.5,0.1-0.8,0.2
		c-0.1,0.3-0.3,0.6-0.3,0.9c0,2.9,0,5.8,0,8.6c0,0.3,0.2,0.6,0.3,0.8c0.3,0.1,0.4,0.2,0.6,0.2c3.7,0,7.4,0,11,0
		c0.3,0,0.6-0.2,0.9-0.3c0.1-0.5,0.2-0.8,0.2-1.2c0-2.8,0-5.6-0.1-8.4C96,162.2,95.8,162,95.7,161.7z"/>
	<path d="M156,500.8c-0.5,0.1-0.7,0.3-0.9,0.3c-29.8,0-59.5,0-89.3,0c-0.3,0-0.6-0.1-1-0.2c-0.1-0.4-0.2-0.8-0.3-1.1
		c0-0.7,0-1.4,0-2.2c0-58.5,0-116.9,0-175.4c0-0.7,0-1.4,0-2.2c0-0.3,0.2-0.6,0.3-0.9c0.6-0.1,1.1-0.1,1.7-0.2c1.5,0,3,0,4.6,0
		c14.8,0,29.6,0,44.4,0c0.8,0,1.6,0,2.4,0c0.3,0,0.6-0.2,0.9-0.3c0.1-0.3,0.2-0.5,0.2-0.8c0-7.2,0-14.4,0-21.6
		c0-0.2-0.1-0.5-0.2-0.8c-0.3-0.1-0.7-0.2-1.1-0.3c-0.7,0-1.4,0-2.2,0c-7.5,0-15,0-22.6,0c-0.9,0-1.8,0.1-2.6-0.1
		c-0.5-0.4-0.5-0.8,0-1.2c2.3-0.3,16.1-0.4,28-0.2c0.6,0,1.1,0.1,1.8,0.1c0.1,0.4,0.3,0.8,0.3,1.1c0,1,0,1.9,0,2.9
		c0,4.4,0,8.8,0,13.2c0,0.8-0.1,1.6,0.2,2.5c0.3,0.1,0.7,0.2,1.1,0.3c0.6,0.1,1.3,0,1.9,0c9.3,0,18.6,0,27.8,0
		c0.9,0,1.8,0.1,2.7-0.2c0.1-0.3,0.3-0.7,0.3-1c0.1-0.6,0-1.3,0-1.9c0-4.9,0-9.8,0-14.6c0-0.7-0.2-1.4,0.4-2.1c0.3,0,0.5,0,0.9,0
		c0.1,0.4,0.2,0.7,0.2,1c0,0.7,0,1.4,0,2.2c0,66.8,0,133.6,0,200.4C156.1,498.5,156.2,499.6,156,500.8z M154.2,499.5
		c0.5-1.1,0.3-2.1,0.3-3c0-31.5,0-63,0-94.5c0-0.6,0-1.3,0-1.9c0-0.4-0.1-0.8-0.6-1.2c-0.6,0-1.4-0.1-2.2-0.1c-3.8,0-7.7,0-11.5,0
		c-3,0-6.1,0-9.1,0c-0.5,0-1.1,0.1-1.7-0.4c-0.3-0.5-0.2-1.1-0.2-1.8c0-2.4,0-4.8,0-7.2c0-0.5,0-1-0.5-1.4c-0.1,0-0.4-0.2-0.6-0.2
		c-11.9,0-23.8,0-35.7,0c-0.2,0-0.5,0.1-0.8,0.2c-0.1,0.3-0.2,0.6-0.2,0.9c0,0.7,0,1.4,0,2.2c0,2.1,0,4.2,0,6.2c0,0.5,0,1-0.7,1.4
		c-0.7,0-1.6,0-2.4,0c-5.9,0-11.8,0-17.8,0c-1,0-2.1,0-3.1,0c-0.4,0-0.7,0.2-1.2,0.3c-0.1,0.6-0.2,1-0.2,1.5c0,1.9,0,3.8,0,5.8
		c0,30.1,0,60.1,0,90.2c0,0.6,0,1.3,0,1.9c0,0.4,0.3,0.7,0.4,1c2.1,0.2,58,0.3,85.5,0.2C152.6,499.5,153.3,499.5,154.2,499.5z
		 M154.3,381.3c0.3-1.1,0.2-2,0.2-3c0-19.9,0-39.8,0-59.7c0-0.6,0-1.3,0-1.9c0-0.4,0-0.8-0.5-1.2c-0.7-0.2-1.5-0.1-2.4-0.1
		c-9.4,0-18.9,0-28.3,0c-0.5,0-1,0-1.4,0s-0.8,0-1.3,0.4c0,0.2-0.1,0.6-0.2,1c0,0.8,0,1.6,0,2.4c0,0.4,0,0.8-0.5,1.2
		c-0.8,0.3-1.7,0.1-2.7,0.1c-15.8,0-31.7,0-47.5,0c-0.8,0-1.6,0-2.4,0c-0.4,0-0.7,0.2-1.1,0.3c-0.1,0.6-0.1,1.2-0.1,1.7
		c0,2.2,0,4.3,0,6.5c0,16.4,0,32.8,0,49.2c0,0.7,0,1.4,0,2.2c0,0.4,0.2,0.7,0.3,1c0.9,0.4,1.7,0.2,2.5,0.2c3.7,0,7.4,0,11,0
		c3.2,0,6.4,0,9.6,0c0.5,0,1.1-0.1,1.7,0.4c0.6,1.2-0.3,2.8,0.6,4.1c0.9,0.3,1.8,0.2,2.7,0.2c10.6,0,21.1,0,31.7,0
		c0.6,0,1.3,0,1.9,0c0.4,0,0.7-0.2,1-0.3c0.4-1.1,0.2-2,0.2-3c0-0.4,0-0.8,0.5-1.2c0.7-0.2,1.6-0.1,2.4-0.1c6.5,0,13,0,19.4,0
		C152.5,381.6,153.4,381.8,154.3,381.3z M154.3,397c0.3-1.7,0.4-8.7,0.2-12.6c0-0.3-0.1-0.6-0.2-0.8c-0.8-0.5-1.6-0.3-2.4-0.3
		c-6.2,0-12.3,0-18.5,0c-0.5,0-1,0-1.4,0c-0.4,0.1-0.7,0.2-1,0.3c-0.1,0.2-0.1,0.3-0.1,0.4c0,4.1-0.1,8.2-0.1,12.2
		c0,0.3,0.2,0.6,0.3,0.8c0.3,0.1,0.6,0.2,0.8,0.2c7.2,0,14.4,0,21.6,0C153.7,397.2,153.9,397.1,154.3,397z M89.6,383.5
		c-1.1-0.5-2-0.3-2.9-0.3c-5.9,0-11.8,0-17.7,0c-0.6,0-1.1,0-1.7,0c-0.4,0-0.8,0-1.1,0.4c-0.3,1.6-0.4,8.1-0.2,12.2
		c0,0.4,0.1,0.8,0.2,1.2c0.6,0.1,1.1,0.2,1.7,0.2c2.5,0,5,0,7.4,0c4.1,0,8.2,0,12.2,0c0.6,0,1.3,0.1,1.8-0.3
		c0.1-0.2,0.2-0.3,0.2-0.4c0-3.9,0.1-7.8,0.1-11.7C89.8,384.4,89.7,384,89.6,383.5z"/>
	<path d="M64.1,295c-0.1-0.6-0.2-1-0.2-1.4c0-14.2,0.1-28.3,0.1-42.5c0-0.1,0.1-0.3,0.3-0.5c0.4-0.1,0.8-0.2,1.3-0.2
		c1.9,0,3.8,0,5.8,0c6.6,0,13.1,0,19.7,0c0.9,0,1.8-0.1,2.7,0.2c0.1,0.3,0.1,0.6,0.2,0.8c-0.2,0.2-0.3,0.3-0.4,0.3
		c-0.9,0.1-1.8,0.1-2.6,0.1c-7.6,0-15.2,0-22.8,0c-0.8,0-1.6-0.2-2.3,0.4c-0.1,0.2-0.2,0.4-0.2,0.7c0,13.2,0,26.4,0,39.6
		c0,0.2,0.1,0.4,0.2,0.6c0.6,0.5,1.2,0.4,1.9,0.4c3.9,0,7.8,0,11.8,0c0.9,0,1.8,0,2.6,0c0.4,0,0.8,0.1,1.2,0.1
		c0.1,0.4,0.1,0.6,0.2,0.9c-0.2,0.2-0.3,0.3-0.4,0.4c-0.6,0.1-1.1,0.1-1.7,0.1c-5,0-10.1,0-15.1,0C65.6,295.2,64.9,295.1,64.1,295z"
		/>
	<text transform="matrix(1 0 0 1 92.3318 15.1)" class="st1 st2">3rd Floor</text>
	<text transform="matrix(1 0 0 1 344.0831 15.1)" class="st1 st2">4th Floor</text>
	<text transform="matrix(1 0 0 1 26.2892 46.7604)" class="st1 st3">3602</text>
	<text transform="matrix(1 0 0 1 26.2892 85.3499)" class="st1 st3">3608</text>
	<text transform="matrix(1 0 0 1 26.2892 119.5139)" class="st1 st3">3616</text>
	<text transform="matrix(1 0 0 1 26.2892 148.514)" class="st1 st3">3622</text>
	<text transform="matrix(1 0 0 1 26.2892 169.8473)" class="st1 st3">3626</text>
	<text transform="matrix(1 0 0 1 26.2892 193.5999)" class="st1 st3">3632</text>
	<text transform="matrix(1 0 0 1 26.2892 286.4666)" class="st1 st3">3650</text>
	<text transform="matrix(1 0 0 1 26.2892 332.4666)" class="st1 st3">3658</text>
	<text transform="matrix(1 0 0 1 26.2892 355.4666)" class="st1 st3">3662</text>
	<text transform="matrix(1 0 0 1 26.2892 376.4666)" class="st1 st3">3666</text>
	<text transform="matrix(1 0 0 1 26.2892 395.4666)" class="st1 st3">3670</text>
	<text transform="matrix(1 0 0 1 24.9427 431.4666)" class="st1 st3">3676s</text>
	<text transform="matrix(1 0 0 1 26.2892 473.7999)" class="st1 st3">3686</text>
	<text transform="matrix(1 0 0 1 26.2892 511.4666)" class="st1 st3">3692</text>
	<text transform="matrix(1 0 0 1 178.8058 46.7604)" class="st1 st3">3803</text>
	<text transform="matrix(1 0 0 1 178.8058 80.5139)" class="st1 st3">3809</text>
	<text transform="matrix(1 0 0 1 178.8058 102.1807)" class="st1 st3">3815</text>
	<text transform="matrix(1 0 0 1 178.8058 124.296)" class="st1 st3">3819</text>
	<text transform="matrix(1 0 0 1 178.8058 146.514)" class="st1 st3">3823</text>
	<text transform="matrix(1 0 0 1 177.4591 183.6)" class="st1 st3">3827s</text>
	<text transform="matrix(1 0 0 1 178.8058 229.1)" class="st1 st3">3840</text>
	<text transform="matrix(1 0 0 1 130.584 200.6)" class="st1 st3">3828d</text>
	<text transform="matrix(1 0 0 1 72.1014 193.6)" class="st1 st3">3627c</text>
	<text transform="matrix(1 0 0 1 72.1404 148.908)" class="st1 st3">3627a</text>
	<text transform="matrix(1 0 0 1 130.1389 151.3474)" class="st1 st3">3828a</text>
	<text transform="matrix(1 0 0 1 102.5421 92.0141)" class="st1 st3">3720</text>
	<text transform="matrix(1 0 0 1 130.8358 183.5999)" class="st1 st3">3828c</text>
	<text transform="matrix(1 0 0 1 170.7928 266.6363)" class="st1 st3">3850</text>
	<text transform="matrix(1 0 0 1 178.8058 302.4666)" class="st1 st3">3853</text>
	<text transform="matrix(1 0 0 1 178.8058 338.4666)" class="st1 st3">3859</text>
	<text transform="matrix(1 0 0 1 178.8058 371.4666)" class="st1 st3">3865</text>
	<text transform="matrix(1 0 0 1 178.8058 399.4666)" class="st1 st3">3871</text>
	<text transform="matrix(1 0 0 1 178.8058 421.4666)" class="st1 st3">3877</text>
	<text transform="matrix(1 0 0 1 178.8058 443.72)" class="st1 st3">3883</text>
	<text transform="matrix(1 0 0 1 178.8058 473.7999)" class="st1 st3">3887</text>
	<text transform="matrix(1 0 0 1 178.8058 511.4666)" class="st1 st3">3893</text>
	<text transform="matrix(1 0 0 1 103.8755 456.8003)" class="st1 st3">3780</text>
	<text transform="matrix(1 0 0 1 133.9341 393.8)" class="st1 st3">3872</text>
	<text transform="matrix(1 0 0 1 69.2675 393.8003)" class="st1 st3">3760a</text>
	<text transform="matrix(1 0 0 1 103.8756 360.8499)" class="st1 st3">3760</text>
	<text transform="matrix(1 0 0 1 89.0555 276.1002)" class="st1 st3">3750</text>
	<text transform="matrix(1 0 0 1 133.2928 270.5962)" class="st1 st3">3750</text>
	<text transform="matrix(1 0 0 1 128.9053 307.5579)" class="st1 st3">3750b</text>
	<text transform="matrix(1 0 0 1 83.4551 311.5579)" class="st1 st3">3756</text>
	<text transform="matrix(1 0 0 1 277.5676 46.7604)" class="st1 st3">4602</text>
	<text transform="matrix(1 0 0 1 277.5676 80.514)" class="st1 st3">4608</text>
	<text transform="matrix(1 0 0 1 277.5676 116.514)" class="st1 st3">4616</text>
	<text transform="matrix(1 0 0 1 277.5676 152.514)" class="st1 st3">4622</text>
	<text transform="matrix(1 0 0 1 277.5676 187.6)" class="st1 st3">4628</text>
	<text transform="matrix(1 0 0 1 277.5676 226.1)" class="st1 st3">4640</text>
	<text transform="matrix(1 0 0 1 277.5676 262.7999)" class="st1 st3">4646</text>
	<text transform="matrix(1 0 0 1 277.5676 300.4666)" class="st1 st3">4652</text>
	<text transform="matrix(1 0 0 1 277.5676 334.4666)" class="st1 st3">4660</text>
	<text transform="matrix(1 0 0 1 277.5676 369.4666)" class="st1 st3">4666</text>
	<text transform="matrix(1 0 0 1 277.5676 395.4666)" class="st1 st3">4672</text>
	<text transform="matrix(1 0 0 1 276.2209 431.4666)" class="st1 st3">4676s</text>
	<text transform="matrix(1 0 0 1 277.5676 473.7999)" class="st1 st3">4686</text>
	<text transform="matrix(1 0 0 1 277.5676 511.4666)" class="st1 st3">4692</text>
	<text transform="matrix(1 0 0 1 430.0842 46.7604)" class="st1 st3">4803</text>
	<text transform="matrix(1 0 0 1 430.0842 78.5139)" class="st1 st3">4809</text>
	<text transform="matrix(1 0 0 1 430.0842 124.2959)" class="st1 st3">4819</text>
	<text transform="matrix(1 0 0 1 430.0842 102.1807)" class="st1 st3">4815</text>
	<text transform="matrix(1 0 0 1 430.0842 146.514)" class="st1 st3">4823</text>
	<text transform="matrix(1 0 0 1 428.7375 183.6)" class="st1 st3">4827s</text>
	<text transform="matrix(1 0 0 1 379.8624 200.6)" class="st1 st3">4828d</text>
	<text transform="matrix(1 0 0 1 324.3798 193.6)" class="st1 st3">4627c</text>
	<text transform="matrix(1 0 0 1 324.4188 148.908)" class="st1 st3">4627a</text>
	<text transform="matrix(1 0 0 1 379.4174 148.3474)" class="st1 st3">4828a</text>
	<text transform="matrix(1 0 0 1 351.8206 92.0141)" class="st1 st3">4720</text>
	<text transform="matrix(1 0 0 1 380.1141 180.5999)" class="st1 st3">4828c</text>
	<text transform="matrix(1 0 0 1 430.0842 262.7999)" class="st1 st3">4847</text>
	<text transform="matrix(1 0 0 1 430.0842 306.4666)" class="st1 st3">4855</text>
	<text transform="matrix(1 0 0 1 430.0842 284.7999)" class="st1 st3">4851</text>
	<text transform="matrix(1 0 0 1 430.0842 330.1332)" class="st1 st3">4859</text>
	<text transform="matrix(1 0 0 1 430.0842 375.6002)" class="st1 st3">4867</text>
	<text transform="matrix(1 0 0 1 430.0842 352.9336)" class="st1 st3">4863</text>
	<text transform="matrix(1 0 0 1 430.0842 399.4666)" class="st1 st3">4871</text>
	<text transform="matrix(1 0 0 1 430.0842 421.4666)" class="st1 st3">4877</text>
	<text transform="matrix(1 0 0 1 430.0842 443.72)" class="st1 st3">4883</text>
	<text transform="matrix(1 0 0 1 430.0842 473.7999)" class="st1 st3">4887</text>
	<text transform="matrix(1 0 0 1 430.0842 511.4666)" class="st1 st3">4893</text>
	<text transform="matrix(1 0 0 1 354.3762 456.8003)" class="st1 st3">4780</text>
	<text transform="matrix(1 0 0 1 387.2125 391.8)" class="st1 st3">4872</text>
	<text transform="matrix(1 0 0 1 354.3763 361.0999)" class="st1 st3">4760</text>
	<text transform="matrix(1 0 0 1 354.376 299.8912)" class="st1 st3">4750</text>
</g>
<g id="Layer_4">
	<rect id="Background" width="251.4" height="57.7"/>
	<text id="GroupLabel" transform="matrix(1 0 0 1 100.5996 31.8616)" class="st4 st1 st5">Group</text>
	<g>
		<path class="st4" d="M70.5,24.3c1.4,0.2,2.7,0.1,3.9,0.7c0.8,0.4,1.6,0.5,2.5,0.6c1.6,0.3,3.1,0.8,4.6,1.3c1,0.4,1,0.4,2,0.3
			c0,3.9,0,7.7,0,11.7c-5.4,0-10.8,0-16.3,0c0.5-0.3,1-0.6,1.5-0.9v-0.1c-0.4-0.1-0.9,0-1.3-0.2c-0.5-0.2-0.9-0.5-1.3-0.8
			C65.9,36.7,66,36.3,66,36c0-0.4-0.4-0.6-0.6-0.9c0,0-0.2,0-0.3,0c-0.4,0.2-0.8,0.5-1.2,0.7c-0.2,0.1-0.4,0.1-0.6,0
			c-1.2-0.4-2.1-1.3-2.9-2.2c-0.2-0.2-0.4-0.3-0.7-0.2c-0.6,0.3-1,0.1-1.5-0.3c-0.4-0.4-1-0.8-1.5-1.2c-0.2-0.2-0.3-0.3-0.1-0.5
			c0.2-0.3,0.2-0.6-0.1-0.9c-0.1-0.1-0.1-0.3-0.1-0.5c0.1-0.6,0.3-1.2,0.5-1.8c0-0.1,0.2-0.3,0.3-0.4s0.3-0.3,0.4-0.4
			c0.5-0.3,0.8-0.7,0.5-1.4c-0.1-0.2,0.1-0.6,0.1-1c0.2,0.3,0.4,0.5,0.5,0.7c0.3-0.5,0.7-0.9,0.9-1.3c0.1-0.2,0.1-0.5,0-0.7
			s-0.3-0.2-0.6-0.4c0.2-1.1,0.4-2.3,0.7-3.5c1.7,0.8,3.3,1.8,4.6,3c0.4,0.3,0.8,0.6,1.3,0.7c0.2,0.1,0.4,0.3,0.6,0.4
			c0.5,0.5,1,1,1.7,1.2c0.6,0.2,0.6,0.3,0.8,1c-1.2-0.6-2.3-1.2-3.6-1.8c0.8,0.8,1.4,1.8,2.5,2.3c0.8,0.3,1.5,0.6,2.3,0.6
			c1.5,0,2.8,0.4,4.2,0.8c0.7,0.2,1.4,0.4,2,0.5c0,0,0-0.1,0.1-0.1c-0.4-0.3-0.8-0.6-1.1-0.9c-0.1-0.1-0.3-0.3-0.3-0.4
			c-0.1-0.4-0.3-0.6-0.6-0.8c-0.7-0.6-1.5-1-2.5-1.2C71.2,25.2,70.8,24.9,70.5,24.3z"/>
		<path class="st4" d="M58.7,10.4c0.7,0.2,1.4,0.3,2,0.5v-0.1c-0.5-0.3-0.9-0.6-1.4-0.9V9.8c0.3,0.1,0.7,0.1,1,0.2
			c7.6,4.4,15.2,8.8,22.7,13.2c0.3,0.2,0.4,0.4,0.4,0.7c0,0.9,0,1.8,0,2.8c-0.1,0-0.2,0-0.3-0.1c-1.4-0.4-2.7-0.9-4.1-1.3
			c-0.4-0.1-0.7-0.3-1-0.5c-2.9-1.5-5.8-3-8.6-4.6c-0.8-0.4-1.5-1.1-2.2-1.7c-1.9-1.5-3.8-3.1-5.7-4.6c-0.8-0.7-1.8-1.1-2.7-1.7
			c-0.2-0.1-0.3-0.3-0.3-0.5C58.6,11.2,58.6,10.8,58.7,10.4z"/>
		<path class="st4" d="M38.5,29.7c0,0.7,0,1.2,0,1.8c0,0.1-0.2,0.2-0.3,0.3c-1.3,0.8-2.7,1.2-4.3,1.3c-2,0.2-3.9,0.1-5.8-0.6
			c-3.2-1.2-5-3.5-5.7-6.8c-0.4-2.1-0.3-4.2,0.5-6.2c1.2-3.2,3.7-5.1,7-5.8c3-0.7,6-0.3,8.8,0.9c0.1,0,0.2,0.1,0.3,0.1
			c-0.2,0.6-0.4,1.3-0.5,1.9c-0.1,0.3-0.3,0.3-0.5,0.1c-0.3-0.2-0.6-0.5-0.8-0.7c-1.6-1.2-3.4-1.5-5.4-1.3c-3.5,0.4-5.8,2.9-6.5,6.5
			c-0.4,2.3-0.3,4.5,0.7,6.7c1.2,2.7,3.3,4.1,6.2,4.3c2.3,0.1,4.2-0.6,5.9-2.1C38.2,29.9,38.3,29.8,38.5,29.7z"/>
		<path class="st4" d="M13.7,33.2c-1.4,0-2.6-0.3-3.8-1c-0.4-0.2-0.9-0.4-1-0.7c-0.1-0.3,0.1-0.8,0.2-1.2c0.1-0.4,0.2-0.7,0.3-1.1
			c0-0.1,0.1-0.2,0.1-0.2c0.1,0.1,0.2,0.1,0.2,0.2c0.5,0.6,0.8,1.2,1.4,1.7c2.1,1.9,6.1,1.2,6.9-2.1c0.4-1.5,0-2.8-1.3-3.7
			c-0.7-0.5-1.5-0.8-2.2-1.2c-0.8-0.4-1.6-0.7-2.4-1.1c-1.9-1-2.9-2.6-2.7-4.8s1.5-3.8,3.6-4.4c1.7-0.5,3.5-0.6,5.2,0.1
			c0.4,0.2,0.8,0.5,1.3,0.7c0.2,0.1,0.2,0.2,0.1,0.4c-0.2,0.6-0.4,1.2-0.6,1.7c0,0.1-0.2,0.2-0.2,0.3c-0.1-0.1-0.2-0.2-0.2-0.3
			c-0.5-1.2-1.4-2-2.7-2.1c-1.5-0.2-2.7,0.2-3.6,1.4c-1,1.4-0.7,3.4,0.8,4.4c0.7,0.5,1.6,0.8,2.4,1.2c0.9,0.4,1.8,0.7,2.6,1.2
			c1.8,1,2.7,2.6,2.6,4.7c-0.1,2.2-1.1,3.9-3.1,4.9C16.2,32.9,15.2,33.1,13.7,33.2z"/>
		<path class="st4" d="M7.6,39c0.8-1.1,1.5-2.1,2.2-3.1c0.1-0.1,0.3-0.2,0.4-0.2c0.8,0,1.5-0.1,2.3-0.1c0.7,0,1.3-0.1,1.9-0.3
			c1.2-0.4,2.4-0.8,3.6-1.1c0.2-0.1,0.4-0.2,0.5-0.4c0.3-1,1-1.7,1.9-2.2c1.1-0.6,2.1-1.3,3.1-2c0.8,1.1,1.8,2,3,2.7
			c-1.1,1.5-2.3,2.7-3.7,3.9c-0.8,0.7-1.6,1.2-2.7,1.1c-1.1-0.1-2,0.3-2.7,1.2c-0.3,0.4-0.7,0.5-1.2,0.5c-2.7,0-5.4,0-8.1,0
			C8,39,7.9,39,7.6,39z"/>
		<path class="st4" d="M41.2,13.8c0.8,0,1.7,0,2.5,0c0,6.4,0,12.7,0,19.1c-0.8,0-1.6,0-2.5,0C41.2,26.5,41.2,20.2,41.2,13.8z"/>
		<path class="st4" d="M40.7,18.9c0,0.5,0,0.9,0,1.4c0,0.8,0,1.5,0,2.3c0,0.3-0.1,0.5-0.3,0.7c-1.2,1-2.3,2.1-3.4,3.2
			c-0.3,0.3-0.5,0.6-0.7,0.9c-0.2,0.4-0.4,0.9-0.6,1.3c-0.1,0.2-0.3,0.4-0.5,0.6c-0.2-0.4-0.3-0.8-0.5-1.1c-0.4,0.1-0.8,0.2-1.2,0.4
			c0-1.2,0-2.4,0-3.7c-0.3,0-0.5,0-0.8,0c0.5-0.6,1-1.2,1.4-1.8c0.1-0.1,0.3-0.1,0.5-0.1c0.8,0,0.9,0,1.1-0.8
			c0.1-0.4,0.4-0.8,0.6-1.1c0.8-1,1.8-1.6,3-1.8C39.8,19.2,40.2,19,40.7,18.9z"/>
		<path class="st4" d="M57,24.7c-0.5,0.4-0.9,0.9-1.4,1.3c-0.2,0.2-0.3,0.4-0.2,0.6c0.2,1.5,0.4,2.9,0.6,4.4c0,0.2-0.1,0.4-0.2,0.5
			c-0.2,0.3-0.5,0.5-0.7,0.7c-0.4,0.4-0.8,0.6-1.4,0.5c-0.9-0.1-1.7,0.2-2.3,0.9c-0.9,0.9-2,1.7-3,2.6c-0.2,0.2-0.4,0.3-0.6,0.4
			c-0.8,0.4-1.6,0.7-2.4,1c-0.4,0.2-0.7,0.4-0.7,0.8c0,0.3-0.2,0.4-0.5,0.4c-0.8,0-1.5,0-2.3,0c0.6-0.4,1.1-1,1.9-1.1
			c0.5-0.1,0.8-0.3,1.1-0.6c2.1-1.8,4.2-3.7,6.3-5.5c0.1-0.1,0.2-0.3,0.3-0.5s0.2-0.4,0.3-0.5c0.6-0.7,1.3-1.3,1.9-2
			c0.2-0.2,0.3-0.4,0.3-0.6c0.2-0.6,0.3-1.3,0.5-1.9c0-0.1,0.1-0.2,0.1-0.3C55.4,25.4,56.1,25,57,24.7C56.9,24.6,56.9,24.7,57,24.7z
			"/>
		<path class="st4" d="M45.1,31.8c1.5-1.7,3-3.3,4.5-5c0.5-0.5,0.9-1.1,1.2-1.7c0.1-0.2,0-0.6,0.1-0.9c0-0.2,0.1-0.4,0.2-0.5
			c1.2-1.1,2.5-2.1,3.7-3.2c0.1-0.1,0.2-0.2,0.4-0.2c0.8-0.1,1.6-0.3,2.5-0.3c-1,0.7-1.9,1.3-2.9,2c0.1,0.1,0.2,0.1,0.3,0.2
			c0.5,0.3,0.5,0.3,0.3,0.9s-0.5,1-1,1.4c-2,1.7-3.9,3.4-5.9,5C47.3,30.4,46.2,31.1,45.1,31.8C45.1,31.9,45.1,31.9,45.1,31.8z"/>
		<path class="st4" d="M55.4,39c0.5-0.6,1-1.1,1.5-1.6c0.1-0.1,0.2-0.1,0.3-0.1c1.8-0.4,3.6-0.9,5.5-1.3c0.1,0,0.3,0,0.4,0.1
			c0.5,0.8,1.1,1.5,1.6,2.3c-0.7,0.3-1.3,0.6-2,0.6c-2.2,0-4.5,0-6.7,0C55.8,39,55.6,39,55.4,39z"/>
		<path class="st4" d="M76.1,43.5c0-1.2,0-2.4,0-3.5c0.3,0,0.5,0,0.8,0c0,2.5,0,5,0,7.6c-0.3,0-0.5,0-0.8,0c0-0.2,0-0.4-0.1-0.7
			c-0.1,0-0.1-0.1-0.2-0.1c-0.1,0.1-0.1,0.3-0.2,0.4c-1,1-2.6,0.7-3.2-0.5c-0.5-0.9-0.4-1.9,0-2.9C73.2,42.6,75,42.1,76.1,43.5z
			 M73.2,45.2c0.1,0.4,0.1,0.8,0.2,1.2c0.2,0.5,0.5,0.9,1,0.9c0.6,0.1,1.1-0.2,1.4-0.7c0.4-0.8,0.5-1.7,0.1-2.6
			c-0.2-0.5-0.6-0.9-1.2-0.9s-1.1,0.3-1.3,0.9C73.3,44.4,73.3,44.8,73.2,45.2z"/>
		<path class="st4" d="M30.5,47.6c-0.4-1.2-0.8-2.4-1.2-3.6c-0.1,0.2-0.1,0.3-0.2,0.4c-0.4,1-0.8,2-1.1,2.9
			c-0.1,0.2-0.2,0.3-0.5,0.3c-0.2,0-0.3-0.1-0.4-0.3c-0.5-1.4-1-2.8-1.5-4.3c0-0.1,0-0.2-0.1-0.3c0.1,0,0.1,0,0.1,0
			c0.7,0,0.7,0,0.9,0.6c0.4,1,0.7,2.1,1.1,3.2c0.1-0.2,0.1-0.4,0.2-0.5c0.3-1,0.6-1.9,1-2.9c0.1-0.2,0.1-0.5,0.5-0.4
			c0.4,0,0.4,0.2,0.5,0.4c0.3,1,0.7,2,1,3c0,0.1,0.1,0.2,0.1,0.4c0.1-0.2,0.1-0.3,0.2-0.5c0.4-1,0.7-1.9,1.1-2.9
			c0.2-0.5,0.2-0.5,0.8-0.5c-0.1,0.1-0.1,0.3-0.1,0.4c-0.6,1.3-1.2,2.6-1.7,4C31.1,47.6,30.9,47.7,30.5,47.6z"/>
		<path class="st4" d="M15,46.5c0.1-0.1,0.1-0.2,0.2-0.4c0.3-1,0.7-1.9,1-2.9c0.2-0.5,0.2-0.5,0.8-0.4c0,0.1-0.1,0.2-0.1,0.3
			c-0.6,1.4-1.2,2.8-1.8,4.2c-0.1,0.3-0.3,0.3-0.5,0.3c-0.3,0-0.3-0.2-0.3-0.3c-0.4-1.1-0.7-2.1-1.1-3.3c-0.1,0.2-0.1,0.3-0.2,0.4
			c-0.4,1-0.8,2-1.1,3c-0.1,0.2-0.2,0.3-0.4,0.3s-0.3-0.1-0.4-0.3c-0.5-1.4-1-2.9-1.5-4.3c0-0.1,0-0.1-0.1-0.3c0.2,0,0.5,0,0.7,0
			c0.1,0,0.2,0.2,0.3,0.3c0.4,1,0.7,2,1.1,3c0,0.1,0.1,0.3,0.2,0.5c0.1-0.2,0.1-0.2,0.2-0.3c0.4-1.1,0.7-2.1,1-3.2
			c0.1-0.2,0.2-0.3,0.4-0.3s0.4,0,0.4,0.3c0.3,1,0.7,2,1,3C14.8,46.2,14.9,46.4,15,46.5C14.9,46.5,15,46.5,15,46.5z"/>
		<path class="st4" d="M17.6,42.8c0.8-0.1,0.8-0.1,1.1,0.6c0.4,1,0.7,2.1,1.1,3.1c0.1-0.1,0.1-0.2,0.1-0.3c0.4-1.1,0.7-2.1,1.1-3.2
			c0.1-0.2,0.2-0.4,0.5-0.3c0.3,0,0.4,0.1,0.5,0.3c0.3,1,0.7,2,1,3.1c0,0.1,0.1,0.2,0.2,0.4c0.1-0.2,0.1-0.2,0.2-0.3
			c0.4-1,0.7-2,1.1-3c0.2-0.6,0.2-0.6,0.9-0.5c-0.1,0.2-0.2,0.5-0.3,0.7c-0.5,1.3-1.1,2.5-1.6,3.8c-0.1,0.3-0.3,0.3-0.5,0.3
			c-0.3,0-0.3-0.2-0.3-0.3c-0.3-0.9-0.6-1.9-0.9-2.8c0-0.1-0.1-0.3-0.2-0.5c-0.1,0.2-0.2,0.3-0.2,0.4c-0.4,1-0.8,2-1.1,2.9
			c-0.1,0.2-0.2,0.2-0.4,0.3c-0.2,0-0.3-0.1-0.4-0.3c-0.5-1.5-1-2.9-1.5-4.4C17.6,42.9,17.6,42.9,17.6,42.8z"/>
		<path class="st4" d="M51.5,13.3c-1.1,0.9-2.1,1.8-3.2,2.7c-0.4,0.4-0.9,0.8-1.4,1.1c-0.8,0.5-1.4,1.2-1.9,2.1
			c-0.2,0.4-0.6,0.5-1,0.7c0-0.9,0-1.7,0-2.5s0-0.8,0.8-1.1c0.6-0.2,1.2-0.5,1.8-0.7c0.7-0.3,1.4-0.6,2-1.1c0,0,0.1-0.1,0.2-0.1
			C49.6,13.9,50.5,13.6,51.5,13.3C51.4,13.3,51.4,13.3,51.5,13.3z"/>
		<path class="st4" d="M61,47.6c-0.3,0-0.5,0-0.8,0c0-2.5,0-5.1,0-7.6c0.3,0,0.5,0,0.8,0c0,1.1,0,2.2,0,3.4c0.1,0,0.2-0.1,0.2-0.1
			c0.5-0.6,1.1-0.7,1.9-0.6c0.6,0.1,1.1,0.5,1.2,1.2c0.1,1.2,0.1,2.5,0.1,3.7c-0.3,0-0.6,0-0.9,0c0-0.8,0-1.5,0-2.2c0-0.3,0-0.7,0-1
			c-0.1-0.8-0.5-1.1-1.2-1.1s-1.2,0.5-1.2,1.2c0,0.9,0,1.8,0,2.7C61,47.3,61,47.4,61,47.6z"/>
		<path class="st4" d="M30,33.6c-0.2,0.7-0.3,1.4-0.5,2.1c-0.4,0.1-0.7,0.1-0.9-0.3c0-0.1-0.1-0.1-0.2-0.2c-0.5-0.7-0.5-0.7-1.2-0.2
			c-0.1,0.1-0.2,0.2-0.2,0.3c0.1,0.5-0.1,0.8-0.5,1.1c-0.2,0.2-0.3,0.3-0.5,0.5c-0.1,0.1-0.2,0.2-0.2,0.4c0,0.3-0.1,0.5-0.4,0.5
			c-0.7,0-1.3,0.6-1.9,0.9c-0.2,0.1-0.3,0.2-0.6,0.3c0-0.1,0-0.3,0.1-0.3c0.4-0.3,0.8-0.7,1.2-1c0.1-0.1,0.2-0.3,0.3-0.5
			c0.1-0.5,0.2-1.1,0.3-1.7c0-0.1,0.2-0.3,0.3-0.3c0.3-0.1,0.5-0.2,0.8-0.2c0.5,0,0.7-0.4,0.9-0.8c0.1-0.4,0.3-0.9,0.4-1.3
			C28.3,33,29.2,33.3,30,33.6z"/>
		<path class="st4" d="M26.2,27.5c0.4-0.4,0.8-0.6,1.4-0.8c1.2-0.3,2.4-0.6,3.7-0.9c0.1,0,0.2,0,0.4-0.1c-1.2,1.4-2.4,2.8-3.6,4.2
			C27.5,29.6,26.5,28.4,26.2,27.5z"/>
		<path class="st4" d="M51.3,47.6c-0.3,0-0.5,0-0.8,0c0-0.2,0-0.4,0-0.5c-0.4,0.2-0.8,0.5-1.2,0.6c-1.1,0.3-2-0.3-2-1.4
			c-0.1-1.1,0-2.3,0-3.5c0.2,0,0.5,0,0.8,0c0,0.7,0,1.5,0,2.2c0,0.4,0,0.8,0.1,1.2c0.1,0.6,0.5,1,1.1,1s1-0.3,1.2-0.9
			c0.1-0.3,0.1-0.6,0.1-0.9c0-0.9,0-1.7,0-2.6c0.3,0,0.6,0,0.8,0C51.3,44.4,51.3,46,51.3,47.6z"/>
		<path class="st4" d="M77.8,42.8c0.3,0,0.5,0,0.8,0c0,0.2,0,0.3,0,0.5c0,0.9,0,1.9,0,2.8s0.8,1.4,1.6,1.1c0.5-0.2,0.7-0.6,0.8-1
			c0.1-0.6,0.1-1.2,0.1-1.7s0-1,0-1.6c0.3,0,0.5,0,0.8,0c0,1.6,0,3.2,0,4.8c-0.2,0-0.5,0-0.8,0c0-0.2,0-0.4,0-0.7
			c-0.1,0.1-0.2,0.2-0.3,0.3c-0.6,0.5-1.3,0.6-2,0.4s-0.9-0.8-1-1.4C77.8,45.1,77.8,43.9,77.8,42.8z"/>
		<path class="st4" d="M30.6,38.9c1.2-0.8,2.4-1.6,3.5-2.4c0.1,0.2,0.2,0.4,0.2,0.6c0.1,0.3,0.2,0.4,0.5,0.3
			c1.2-0.3,2.4-0.5,3.8-0.7c-0.1,0.1-0.2,0.2-0.3,0.2c-0.9,0.6-1.9,1.3-2.8,1.9C35.4,38.9,35.2,39,35,39c-1.4,0-2.8,0-4.2,0
			C30.8,39,30.7,39,30.6,38.9z"/>
		<path class="st4" d="M71.6,45.1c-1.2,0-2.3,0-3.5,0c0,0.7,0.1,1.4,0.8,1.8c0.9,0.6,1.7,0.3,2.5-0.4c0.1,0.4,0,0.6-0.3,0.7
			c-0.7,0.4-1.4,0.5-2.2,0.3c-1.3-0.3-1.9-1.6-1.7-3s1.4-2.2,2.9-1.9C71.1,42.9,71.7,44,71.6,45.1z M70.7,44.7
			c0.1-0.9-0.4-1.7-1.1-1.8c-0.8,0-1.5,0.8-1.5,1.8C69,44.7,69.8,44.7,70.7,44.7z"/>
		<path class="st4" d="M60.4,18.8c0.3-0.2,0.5-0.4,0.8-0.5c0.1-0.1,0.3-0.1,0.5,0c0.7,0.2,1.4,0.4,2.2,0.7c0.1,0,0.2,0.1,0.3,0.2
			c0.7,1,1.4,2,2.1,3.1C63.9,21.7,62.2,20.2,60.4,18.8z"/>
		<path class="st4" d="M55.6,43.9c-0.2-0.7-0.2-0.8,0.4-1c0.2-0.1,0.5-0.2,0.7-0.2c1.3-0.2,2,0.4,2.1,1.8c0,0.7,0,1.5,0,2.2
			c0,0.6,0,0.6,0.6,0.6c0.1,0.3-0.2,0.3-0.3,0.3c-0.5,0.1-0.8,0-1-0.4c-0.5,0.2-0.9,0.5-1.4,0.6c-0.8,0.2-1.4-0.4-1.5-1.1
			c-0.1-0.5,0.1-0.9,0.6-1.1c0.6-0.3,1.3-0.5,2-0.6c0.3-0.1,0.4-0.2,0.4-0.5c0-0.9-0.5-1.4-1.3-1.2c-0.3,0.1-0.5,0.3-0.8,0.5
			C55.8,43.7,55.7,43.8,55.6,43.9z M58,45c-0.6,0.2-1.2,0.3-1.7,0.6c-0.4,0.2-0.5,0.7-0.3,1.2c0.2,0.4,0.6,0.6,1,0.5
			c0.5-0.1,1-0.5,1-0.9C58,46,58,45.6,58,45z"/>
		<path class="st4" d="M36.3,38.9c2.5-1.8,5-3.5,7.5-5.3l0,0c-0.7,0.8-1.4,1.6-2.1,2.4c0,0,0,0.1,0.1,0.1c0.5-0.1,0.9-0.3,1.4-0.4
			l0,0c-0.1,0.1-0.2,0.1-0.2,0.2c-1.5,0.9-2.9,1.9-4.4,2.8c-0.2,0.1-0.5,0.2-0.8,0.2C37.3,39,36.8,39,36.3,38.9L36.3,38.9z"/>
		<path class="st4" d="M42.3,43.7c-0.4-0.2-0.7-0.5-1-0.6c-0.8-0.3-1.5,0.1-1.9,0.9s-0.4,1.6,0,2.3c0.5,1.1,1.8,1.4,2.7,0.6
			c0.1-0.1,0.2-0.2,0.3-0.3c0.1,0.3,0.1,0.5-0.2,0.7c-1.6,0.9-3.5,0.1-3.9-1.5c-0.4-1.7,0.7-3.2,2.5-3.2c0.4,0,0.9,0.1,1.3,0.2
			c0.4,0.1,0.5,0.3,0.3,0.6C42.4,43.6,42.4,43.6,42.3,43.7z"/>
		<path class="st4" d="M54.8,47.3c-0.1,0.1-0.2,0.2-0.2,0.3c-0.8,0.3-1.9,0.3-1.9-1.2c0-0.9,0-1.8,0-2.7c0-0.1,0-0.3,0-0.4
			c-0.2,0-0.4,0-0.6,0c0-0.2,0-0.3,0-0.5c0.2,0,0.4,0,0.6,0c0-0.2,0-0.4,0-0.6c-0.1-0.4,0.1-0.5,0.4-0.6c0.1,0,0.2-0.1,0.4-0.1
			c0,0.5,0,0.9,0,1.4c0.4,0,0.7,0,1,0c0,0.2,0,0.3,0,0.5c-0.3,0-0.7,0-1,0c0,0.4,0,0.8,0,1.1c0,0.6,0,1.2,0,1.8
			C53.5,47.2,53.7,47.4,54.8,47.3z"/>
		<path class="st4" d="M37.4,42.9c-0.1,0.3-0.2,0.5-0.3,0.8c-0.1-0.2-0.2-0.3-0.3-0.4c-0.3-0.3-0.6-0.4-1-0.3
			c-0.3,0.1-0.5,0.3-0.6,0.7c0,0.4,0.1,0.7,0.5,0.9c0.3,0.1,0.6,0.2,0.9,0.4c0.4,0.2,0.9,0.4,0.9,0.9c0.1,0.6-0.1,1.1-0.6,1.5
			c-0.7,0.5-1.7,0.5-2.6,0c0.1-0.2,0.1-0.5,0.2-0.7c0.3,0.2,0.5,0.5,0.8,0.6c0.4,0.3,0.9,0.2,1.2-0.2c0.4-0.5,0.3-1.1-0.2-1.3
			c-0.3-0.1-0.6-0.2-0.9-0.4c-0.7-0.3-1-0.7-1-1.3c0-0.7,0.5-1.2,1.2-1.4C36.2,42.6,36.8,42.6,37.4,42.9z"/>
		<path class="st4" d="M44.2,47.6c-0.3,0-0.5,0-0.8,0c0-1.6,0-3.2,0-4.8c0.3,0,0.5,0,0.8,0C44.2,44.4,44.2,46,44.2,47.6z"/>
		<path class="st4" d="M51.6,38.9c2.1-1.6,4.1-3.1,6.2-4.7c0,0,0,0,0.1,0c-0.1,0.1-0.1,0.1-0.2,0.2c-1.7,1.5-3.3,2.9-5,4.4
			C52.4,39,52,39,51.6,39.1C51.6,39,51.6,38.9,51.6,38.9z"/>
		<path class="st4" d="M45.6,46.5c0.3,0,0.6,0.3,0.6,0.6s-0.2,0.6-0.6,0.6c-0.3,0-0.6-0.2-0.6-0.6C45,46.8,45.3,46.5,45.6,46.5z"/>
		<path class="st4" d="M66.4,47.1c0,0.3-0.3,0.6-0.6,0.6s-0.6-0.3-0.6-0.6s0.3-0.6,0.6-0.6S66.4,46.7,66.4,47.1z"/>
		<path class="st4" d="M33.1,47.7c-0.3,0-0.6-0.3-0.6-0.6s0.3-0.6,0.6-0.6s0.6,0.3,0.6,0.6C33.7,47.4,33.4,47.7,33.1,47.7z"/>
		<path class="st4" d="M43.7,41.5c-0.3,0-0.5-0.3-0.5-0.6s0.3-0.5,0.6-0.5s0.5,0.3,0.5,0.6S44,41.5,43.7,41.5z"/>
		<path class="st4" d="M29.3,30.9c0.7-0.3,1.3-0.7,2-1c0,0,0,0,0.1,0.1c-0.4,0.4-0.9,0.9-1.3,1.2c-0.1,0.1-0.4-0.1-0.7-0.1
			C29.3,31,29.3,30.9,29.3,30.9z"/>
	</g>
</g>
</svg>
