<?xml version="1.0" encoding="UTF-8" standalone="no"?>
<!-- Generator: Adobe Illustrator 20.1.0, SVG Export Plug-In . SVG Version: 6.00 Build 0)  -->

<svg
   version="1.1"
   id="Layer_1"
   x="0px"
   y="0px"
   viewBox="0 0 476.7 541"
   style="enable-background:new 0 0 476.7 541;"
   xml:space="preserve"
   sodipodi:docname="map.svg"
   inkscape:version="1.1.2 (0a00cf5339, 2022-02-04)"
   xmlns:inkscape="http://www.inkscape.org/namespaces/inkscape"
   xmlns:sodipodi="http://sodipodi.sourceforge.net/DTD/sodipodi-0.dtd"
   xmlns="http://www.w3.org/2000/svg"
   xmlns:svg="http://www.w3.org/2000/svg"><defs
   id="defs594" /><sodipodi:namedview
   id="namedview592"
   pagecolor="#ffffff"
   bordercolor="#666666"
   borderopacity="1.0"
   inkscape:pageshadow="2"
   inkscape:pageopacity="0.0"
   inkscape:pagecheckerboard="0"
   showgrid="false"
   inkscape:zoom="1.2606285"
   inkscape:cx="231.6305"
   inkscape:cy="270.10337"
   inkscape:window-width="1920"
   inkscape:window-height="1005"
   inkscape:window-x="0"
   inkscape:window-y="0"
   inkscape:window-maximized="1"
   inkscape:current-layer="Layer_1" />
<style
   type="text/css"
   id="style2">
	.st0{fill:#2BB673;}
	.st1{font-family:'Source Sans Pro';}
	.st2{font-size:9px;}
	.st3{font-size:7px;}
	.st4{fill:#FFFFFF;}
	.st5{fill:none;stroke:#000000;stroke-miterlimit:10;}
	.st6{fill:none;stroke:#AAAAAA;stroke-miterlimit:10;}
	.st7{fill:#AAAAAA;}
</style>
<g
   id="InteractiveLayer">
	<rect
   id="CoonLab"
   x="329.3"
   y="167.2"
   class="st0"
   width="90"
   height="44" />
	<polygon
   id="Floor4SW"
   class="st0"
   points="396.9,51.2 431.3,51.2 431.3,19.2 396.9,19.2 362,19.2 362,51.2  " />
	<polygon
   id="Floor4SE"
   class="st0"
   points="339.2,51.2 362,51.2 362,19.2 339.2,19.2 316,19.2 316,51.2  " />
	<polygon
   id="Floor3S"
   class="st0"
   points="145.9,49.4 190.5,49.4 190.5,19.2 145.9,19.2 100.5,19.2 100.5,49.4  " />
	<rect
   id="Halverson"
   x="431.3"
   y="303.2"
   class="st0"
   width="37"
   height="43" />
	<rect
   id="BeerCave"
   x="279.3"
   y="304.2"
   class="st0"
   width="37"
   height="41" />
	<polygon
   id="Floor4AtriumSE"
   class="st0"
   points="362.8,305.2 362.9,305.2 396,305.2 396,285.2 362.9,285.2 362.8,285.2   329.7,285.2 329.7,305.2  " />
	<polygon
   id="Floor4AtriumSW"
   class="st0"
   points="407.2,305.2 418.3,305.2 418.3,285.2 407.2,285.2 396,285.2 396,305.2  " />
	<rect
   id="Jones"
   x="50.5"
   y="303.4"
   class="st0"
   width="38"
   height="42" />
	<polygon
   id="DiningArea"
   class="st0"
   points="240.5,298.4 191,298.4 191,229 203.5,229 203.5,235.4 240.5,235.4  " />
	<polygon
   id="EvansS"
   class="st0"
   points="145.5,108.4 190.5,108.4 190.5,49.4 145.5,49.4 100.5,49.4 100.5,108.4  " />
	<polygon
   id="EvansN"
   class="st0"
   points="126.5,151.4 126.5,162.4 165.5,162.4 165.5,151.4 190.5,151.4 190.5,108.4 165.5,108.4   126.5,108.4 100.5,108.4 100.5,151.4  " />
	<rect
   id="GenesOffice"
   x="203.3"
   y="394.3"
   class="st0"
   width="37.2"
   height="22.4" />
	<rect
   id="YongsOffice"
   x="203.3"
   y="416.8"
   class="st0"
   width="37.2"
   height="33.5" />
	<polygon
   id="Floor3AtriumE"
   class="st0"
   points="134,342.4 88.5,342.4 88.5,303.4 105.8,303.4 105.8,298.4 134,298.4  " />
	<polygon
   id="Floor3N"
   class="st0"
   points="146.5,526.4 203.5,526.4 203.5,502.4 146.5,502.4 88.5,502.4 88.5,526.4  " />
	<polygon
   id="Floor4N"
   class="st0"
   points="374.3,526.2 431.3,526.2 431.3,502.2 374.3,502.2 316.3,502.2 316.3,526.2  " />
</g>
<g
   id="Layer_3">
	<path
   d="m 278.4,19 c 0.4,-0.1 0.8,-0.1 1.2,-0.2 0.8,0 1.6,0 2.4,0 44.3,0 88.6,0 132.9,0 16.9,-0.4 33.7,-0.1 50.6,-0.2 0.8,0 1.6,0 2.4,0 0.3,0 0.6,0.2 0.9,0.3 0.1,0.4 0.2,0.7 0.2,1 0,0.6 0,1.3 0,1.9 0,167.3 0,334.5 0,501.8 0,1 0.1,2.1 -0.2,3.2 -0.4,0.1 -0.7,0.2 -1.1,0.3 -0.7,0 -1.4,0 -2.2,0 -61.4,0 -122.9,0 -184.3,0 -0.9,0 -1.9,0.1 -2.7,-0.1 -0.5,-0.3 -0.5,-0.7 -0.5,-1.1 0,-0.8 0,-1.6 0,-2.4 0,-167 0,-334 0,-501.1 0,-0.8 0,-1.6 0,-2.4 0.2,-0.3 0.3,-0.6 0.4,-1 z m 1.6,325.7 c 1,0.4 1.9,0.2 2.7,0.2 10.2,0 20.5,0 30.7,0 0.7,0 1.4,0 2.2,0 0.4,0 0.7,0.2 1.2,0.3 0.2,1.1 0.1,2.1 0.1,3.2 0,57.7 0,115.3 0,173 0,0.9 0,1.8 0,2.6 0,0.4 0.2,0.8 0.2,1.1 1.1,0.4 2.2,0.2 3.2,0.2 35.5,0 71,0 106.5,0 0.7,0 1.4,0 2.2,0 0.4,0 0.7,-0.2 1.1,-0.3 0.2,-1.1 0.2,-2.2 0.2,-3.2 0,-166.1 0,-332.1 0,-498.2 0,-0.7 0,-1.4 0,-2.2 0,-0.4 0,-0.8 -0.5,-1.3 -0.5,-0.2 -1.2,-0.2 -1.9,-0.2 -4.1,0.1 -8.2,0.2 -12.2,0.2 -31.7,0 -63.4,0 -95,0 -0.8,0 -1.6,0 -2.4,0 -0.4,0 -0.8,0 -1.2,0.5 0,0.2 -0.1,0.5 -0.1,0.8 0,0.9 0,1.8 0,2.6 0,91.8 0,183.7 0,275.5 0,1.2 0,2.4 0,3.6 0,0.4 -0.2,0.7 -0.3,1 -1,0.3 -1.9,0.2 -2.7,0.2 -10.2,0 -20.3,0 -30.5,0 -0.7,0 -1.4,0 -2.2,0 -0.4,0 -0.8,0.1 -1.1,0.2 -0.4,0.9 -0.3,1.8 -0.3,2.7 0,6.7 0,13.4 0,20.2 0,4.9 0,9.8 0,14.6 -0.2,1 -0.4,1.9 0.1,2.7 z m 35,51 c 0.1,-0.4 0.3,-0.7 0.3,-0.9 0,-15.7 0,-31.3 0,-47 0,-0.3 -0.1,-0.6 -0.1,-0.9 -0.8,-0.6 -1.6,-0.4 -2.4,-0.4 -4.7,0 -9.4,0 -14.1,0 -5.4,0 -10.9,0 -16.3,0 -0.8,0 -1.6,-0.2 -2.4,0.3 -0.4,0.8 -0.2,1.6 -0.2,2.5 0,14.5 0,29.1 0,43.6 0,0.6 0,1.1 0,1.7 0,0.4 0.2,0.7 0.4,1 2.3,0.3 25,0.4 33.4,0.2 0.4,0 0.9,0 1.4,-0.1 z M 432.2,145.5 c 0.9,0.3 1.8,0.2 2.7,0.2 9.9,0 19.8,0 29.7,0 0.6,0 1.1,0 1.7,0 0.4,0 0.7,-0.2 1.2,-0.3 0,-0.7 0.1,-1.3 0.1,-2 0,-1.6 0,-3.2 0,-4.8 0,-12.7 0,-25.4 0,-38.1 0,-0.6 0,-1.3 0,-1.9 0,-0.4 0,-0.8 -0.6,-1.2 -0.6,-0.2 -1.4,-0.1 -2.2,-0.1 -10.1,0 -20.1,0 -30.2,0 -0.5,0 -1,0 -1.4,0 -0.4,0 -0.7,0.2 -1.1,0.3 -0.3,1 -0.2,1.8 -0.2,2.7 0,11.1 0,22.2 0,33.3 0,3.2 0,6.4 0,9.6 0,0.7 -0.2,1.5 0.3,2.3 z M 431.9,20.6 c 0,0.9 0,1.7 0,2.5 0,12 0,24 0,35.9 0,0.5 0,1 0,1.4 0,0.4 0,0.8 0.5,1.2 0.7,0.3 1.5,0.2 2.4,0.2 10,0 20,0 30,0 0.6,0 1.1,0 1.7,0 0.4,0 0.7,-0.2 1.1,-0.4 0,-0.9 0,-1.8 0,-2.7 0,-11.8 0,-23.6 0,-35.5 0,-0.6 0,-1.1 0,-1.7 0,-0.4 -0.1,-0.8 -0.2,-1 -0.9,-0.5 -1.7,-0.3 -2.5,-0.3 -10.1,0 -20.3,0 -30.4,0 -0.6,0 -1.1,0 -1.7,0.1 -0.2,0 -0.4,0.1 -0.9,0.3 z M 280,20.5 c -0.5,1.2 -0.3,2.1 -0.3,3.1 0,11.7 0,23.3 0,35 0,0.6 0,1.3 0,1.9 0,0.4 0,0.8 0.5,1.2 0.7,0.3 1.6,0.1 2.4,0.1 9.9,0 19.8,0 29.7,0 0.6,0 1.1,0 1.7,0 0.4,0 0.8,-0.1 1.1,-0.5 0.3,-0.8 0.1,-1.7 0.1,-2.5 0,-11.8 0,-23.7 0,-35.5 0,-0.6 0,-1.1 0,-1.7 0,-0.3 -0.1,-0.6 -0.2,-0.8 -0.2,-0.1 -0.4,-0.3 -0.5,-0.3 -10.8,0 -21.6,-0.1 -32.4,-0.1 -0.5,0 -1.2,0 -2.1,0.1 z m 152.2,283.8 c -0.5,1 -0.3,1.9 -0.3,2.8 0,11.8 0,23.7 0,35.5 0,0.6 0,1.1 0,1.7 0,0.4 0.2,0.7 0.3,1.1 1,0.4 2,0.3 2.9,0.3 9.8,0 19.5,0 29.2,0 0.6,0 1.3,0 1.9,0 0.4,0 0.8,0 1.2,-0.6 0.2,-0.7 0.1,-1.5 0.1,-2.4 0,-11.9 0,-23.8 0,-35.7 0,-0.5 0,-1 0,-1.4 0,-0.4 0,-0.8 -0.4,-1.1 -0.1,0 -0.4,-0.2 -0.6,-0.2 -11.1,0 -22.2,0 -33.3,0 -0.3,-0.2 -0.6,-0.1 -1,0 z m -117,220.9 c 0,-0.8 0.1,-1.5 0.1,-2.3 0,-11.6 0,-23.2 0,-34.7 0,-0.5 0,-1 0,-1.4 0,-0.4 -0.2,-0.7 -0.3,-1.1 -1,-0.4 -1.8,-0.3 -2.7,-0.3 -9.9,0 -19.8,0 -29.7,0 -0.6,0 -1.1,0 -1.7,0 -0.4,0 -0.7,0.2 -1.1,0.3 -0.3,0.9 -0.2,1.7 -0.2,2.5 0,11.5 0,23 0,34.5 0,0.5 0,1 0,1.4 0,0.4 0,0.8 0.5,1.2 0.2,0 0.5,0.1 0.8,0.1 11.1,0 22.2,0 33.3,0 0.3,0.1 0.6,-0.1 1,-0.2 z m 116.9,-39.6 c -0.4,1.1 -0.3,2.1 -0.3,3 0,11.2 0,22.4 0,33.6 0,0.6 0,1.3 0,1.9 0,0.4 0,0.8 0.5,1.2 0.7,0.2 1.6,0.1 2.4,0.1 9.9,0 19.8,0 29.8,0 0.6,0 1.1,0 1.7,0 0.4,0 0.8,0 1.2,-0.5 0.3,-0.7 0.1,-1.6 0.1,-2.4 0,-11.4 0,-22.9 0,-34.3 0,-0.5 0,-1 0,-1.4 0,-0.4 0,-0.8 -0.4,-1.1 -0.2,0 -0.4,-0.2 -0.6,-0.2 -11.1,0 -22.2,0 -33.4,0 -0.2,0 -0.5,0.1 -1,0.1 z m 35.3,-138.2 c -1,-0.4 -1.9,-0.3 -2.7,-0.3 -9.9,0 -19.8,0 -29.8,0 -0.6,0 -1.1,0 -1.7,0 -0.4,0 -0.8,0 -1.2,0.5 -0.3,0.7 -0.1,1.6 -0.2,2.5 0,9.5 0,19 0,28.6 0,0.6 0,1.1 0,1.7 0,0.4 0.2,0.7 0.2,1.1 0.9,0.4 1.8,0.2 2.7,0.2 9.9,0 19.8,0 29.8,0 0.6,0 1.3,0 1.9,0 0.3,0 0.6,-0.2 1,-0.3 0.1,-0.6 0.1,-1.1 0.2,-1.7 0.2,-13.2 0.1,-29.9 -0.2,-32.3 z m 0.1,-45.4 c 0.2,-1.3 0.1,-2.6 0.1,-3.9 0,-8.9 0,-17.8 0,-26.6 0,-0.7 0,-1.4 0,-2.2 0,-0.4 -0.2,-0.7 -0.3,-1.1 -0.9,-0.3 -1.7,-0.2 -2.5,-0.2 -10.1,0 -20.2,0 -30.2,0 -0.5,0 -1,0 -1.4,0 -0.4,0 -0.7,0.2 -1,0.3 -0.4,0.9 -0.3,1.7 -0.3,2.5 0,9.6 0,19.2 0,28.8 0,0.5 0,1 0,1.4 0,0.4 0.2,0.7 0.3,1.2 0.8,0 1.5,0.1 2.2,0.1 2.9,0 5.8,0 8.6,0 7.2,0 14.4,0 21.6,0 0.9,0 1.8,0.2 2.9,-0.3 z m -35.3,115.3 c -0.4,0.9 -0.3,1.7 -0.3,2.5 0,9.2 0,18.4 0,27.6 0,0.5 0,1 0,1.4 0,0.4 0.1,0.8 0.5,1.1 0.8,0.3 1.7,0.1 2.6,0.1 9.8,0 19.7,0 29.5,0 0.6,0 1.3,0 1.9,0 0.3,0 0.6,-0.1 0.9,-0.2 0.4,-0.9 0.3,-1.8 0.3,-2.6 0,-9.1 0,-18.2 0,-27.4 0,-0.5 0,-1 0,-1.4 0,-0.4 0,-0.8 -0.4,-1.1 -0.1,0 -0.4,-0.2 -0.6,-0.2 -11.2,0 -22.4,0 -33.6,0 -0.3,0 -0.5,0.1 -0.8,0.2 z m -0.1,-185.1 c 0.9,0.5 1.8,0.3 2.7,0.3 9.4,0 18.7,0 28.1,0 1.1,0 2.2,0 3.4,0 0.4,0 0.8,-0.1 1,-0.2 0.5,-0.8 0.4,-1.5 0.4,-2.2 0,-8.9 0,-17.9 0,-26.8 0,-0.7 0,-1.4 0,-2.2 0,-0.4 -0.1,-0.8 -0.2,-1.1 -0.8,-0.5 -1.7,-0.4 -2.4,-0.4 -10.1,0 -20.3,0 -30.4,0 -0.5,0 -1,0 -1.4,0 -0.3,0 -0.6,0.1 -0.9,0.2 -0.5,0.9 -0.3,1.8 -0.3,2.6 0,8.6 0,17.3 0,25.9 0,0.9 0,1.8 0,2.6 -0.2,0.5 -0.1,0.9 0,1.3 z m 35,1.8 c -0.8,0 -1.7,0 -2.6,0 -9.6,0 -19.2,0 -28.8,0 -0.8,0 -1.6,0 -2.4,0 -0.4,0 -0.8,0 -1.3,0.4 -0.3,0.7 -0.2,1.5 -0.2,2.4 0,8.9 0,17.7 0,26.6 0,0.6 0,1.1 0,1.7 0,0.4 0,0.8 0.5,1.2 0.7,0.3 1.6,0.2 2.4,0.2 9.9,0 19.8,0 29.7,0 0.6,0 1.3,0 1.9,0 0.3,0 0.6,-0.2 1,-0.3 0,-0.7 0.1,-1.3 0.1,-1.9 0,-5.9 0,-11.8 0,-17.7 0,-3.4 0,-6.9 0,-10.3 0.2,-0.8 0.3,-1.4 -0.3,-2.3 z m 0.3,217.9 c -0.3,-0.1 -0.5,-0.3 -0.8,-0.3 -0.6,-0.1 -1.3,0 -1.9,0 -9.9,0 -19.8,0 -29.7,0 -0.6,0 -1.3,0 -1.9,0 -0.3,0 -0.6,0.2 -0.8,0.2 -0.4,0.9 -0.3,1.8 -0.3,2.7 0,8.8 0,17.6 0,26.4 0,0.6 0,1.1 0,1.7 0,0.4 0,0.8 0.5,1.2 0.7,0.3 1.6,0.2 2.4,0.2 9.9,0 19.8,0 29.7,0 0.6,0 1.3,0 1.9,0 0.3,0 0.6,-0.2 0.9,-0.3 0.4,-1.9 0.2,-3.7 0.2,-5.5 0.2,-14.2 0.1,-24.4 -0.2,-26.3 z m -35.2,-36.5 c 0.9,0 1.7,0.1 2.5,0.1 10,0 20,0 30,0 0.6,0 1.1,0 1.7,0 0.4,0 0.7,-0.2 1.1,-0.3 0.1,-0.4 0.1,-0.7 0.1,-1 0,-9.8 0,-19.7 0,-29.5 0,-0.4 0,-0.8 -0.5,-1.2 -0.7,-0.3 -1.6,-0.2 -2.4,-0.2 -9.9,0 -19.8,0 -29.8,0 -0.6,0 -1.1,0 -1.7,0 -0.4,0 -0.7,0.2 -1.1,0.3 -0.1,0.4 -0.2,0.7 -0.2,1 0,0.6 0,1.1 0,1.7 0,8.8 0,17.6 0,26.4 0,0.7 -0.2,1.6 0.3,2.7 z M 315.2,63.7 c -0.4,-0.1 -0.7,-0.2 -1,-0.3 -0.6,0 -1.3,0 -1.9,0 -9.8,0 -19.7,0 -29.5,0 -0.6,0 -1.1,0 -1.7,0 -0.4,0 -0.8,0 -1.2,0.5 -0.2,0.7 -0.1,1.5 -0.1,2.4 0,8.9 0,17.7 0,26.6 0,0.6 0,1.1 0,1.7 0,0.4 0.2,0.7 0.3,1 1,0.3 1.9,0.2 2.7,0.2 9.8,0 19.7,0 29.5,0 0.6,0 1.3,0 1.9,0 0.3,0 0.6,-0.2 0.9,-0.2 0.1,-0.4 0.2,-0.7 0.2,-1 0.2,-3.2 0.1,-29 -0.1,-30.9 z m 151.9,31.9 c 0.5,-0.5 0.5,-0.9 0.5,-1.3 0,-1.1 0,-2.2 0,-3.4 0,-8 0,-16 0,-24 0,-0.7 0,-1.4 0,-2.2 0,-0.4 -0.2,-0.7 -0.2,-1.1 -1,-0.5 -1.8,-0.3 -2.7,-0.3 -9.9,0 -19.8,0 -29.8,0 -0.6,0 -1.1,0 -1.7,0 -0.4,0 -0.8,0 -1.2,0.5 -0.3,0.7 -0.2,1.6 -0.2,2.5 0,8.8 0,17.6 0,26.4 0,0.6 0,1.1 0,1.7 0,0.4 0.1,0.8 0.6,1.1 0.4,0 1,0.1 1.5,0.1 12.7,0.3 30.8,0.3 33.2,0 z m -35,102.2 c 1.1,0.4 2,0.3 2.9,0.3 9.8,0 19.7,0 29.5,0 0.6,0 1.3,0 1.9,0 0.4,0 0.7,-0.2 1,-0.3 0.3,-1 0.2,-1.9 0.2,-2.7 0,-8.8 0,-17.6 0,-26.4 0,-0.6 0,-1.1 0,-1.7 0,-0.4 -0.2,-0.7 -0.2,-1.1 -1,-0.4 -2,-0.3 -2.9,-0.3 -9.7,0 -19.5,0 -29.2,0 -0.6,0 -1.3,0 -1.9,0 -0.4,0 -0.8,0 -1.2,0.5 -0.2,0.7 -0.1,1.5 -0.1,2.4 0,7.8 0,15.7 0,23.5 0,1.4 0,2.9 0,4.3 -0.2,0.6 -0.1,1 0,1.5 z M 315,279.4 c -0.6,-0.1 -1.1,-0.1 -1.6,-0.1 -10.6,0 -21.1,0 -31.7,0 -0.4,0 -0.8,0 -1.2,0.1 -0.2,0 -0.4,0.2 -0.7,0.3 -0.1,0.3 -0.2,0.6 -0.2,0.9 0,7.2 0,14.4 0,21.6 0,0.2 0.1,0.4 0.2,0.7 0.8,0.5 1.7,0.3 2.6,0.3 10,0 20,0 30,0 0.5,0 1,0 1.4,0 0.4,0 0.8,-0.2 1.1,-0.2 0.1,-0.3 0.2,-0.6 0.2,-0.8 0,-7.3 0,-14.5 0,-21.8 0.2,-0.4 0.1,-0.6 -0.1,-1 z m 0.2,161.1 c -1,-0.5 -1.9,-0.3 -2.8,-0.3 -9.9,0 -19.8,0 -29.7,0 -0.6,0 -1.3,0 -1.9,0 -0.3,0 -0.6,0.2 -0.9,0.2 -0.4,0.8 -0.3,1.6 -0.3,2.4 0,4.9 0,9.9 0,14.8 0,0.8 0,1.6 0,2.4 0,0.4 0,0.8 0.6,1.2 0.5,0 1.1,0.1 1.7,0.1 10.3,0 20.6,0 30.9,0 0.4,0 0.8,0 1.2,0 0.4,-0.1 0.7,-0.2 1.1,-0.3 0.1,-0.3 0.2,-0.6 0.2,-0.8 0,-6.2 0,-12.5 0,-18.7 0,-0.3 0,-0.6 -0.1,-1 z m 0,-229.2 c -1.1,-0.4 -2,-0.3 -2.9,-0.3 -9.8,0 -19.7,0 -29.5,0 -0.6,0 -1.1,0 -1.7,0 -0.4,0 -0.8,0.1 -1.1,0.2 -0.6,0.8 -0.4,1.7 -0.4,2.4 0,4.7 0,9.4 0,14.1 0,1.1 0,2.2 0,3.4 0,0.4 0.1,0.7 0.2,1.1 0.9,0.4 1.8,0.3 2.7,0.3 9.9,0 19.8,0 29.7,0 0.6,0 1.1,0 1.7,0 0.4,0 0.7,-0.2 1.1,-0.2 0.3,-1.8 0.4,-7.2 0.3,-19 0,-0.7 -0.1,-1.3 -0.1,-2 z m -35.1,227.2 c 0.9,0 1.8,0.1 2.6,0.1 9.8,0 19.6,0 29.5,0 0.6,0 1.3,0 1.9,0 0.4,0 0.7,-0.2 1.1,-0.4 0,-0.5 0.1,-0.9 0.1,-1.3 0,-6.2 0,-12.5 0,-18.7 0,-0.2 -0.1,-0.5 -0.2,-0.8 -0.3,-0.1 -0.6,-0.3 -0.8,-0.3 -0.6,-0.1 -1.3,0 -1.9,0 -9.9,0 -19.8,0 -29.7,0 -0.6,0 -1.1,0 -1.7,0 -0.4,0 -0.7,0.2 -1.1,0.3 -0.1,0.5 -0.2,0.9 -0.2,1.3 0,6.4 0,12.8 0.1,19.2 0,0.1 0.1,0.2 0.3,0.6 z m 35.1,-319.8 c 0,-0.9 0.1,-1.5 0.1,-2.2 0,-2 0,-4 0,-6 0,-3.7 0,-7.3 0,-11 0,-0.6 0.1,-1.3 -0.4,-1.9 -0.7,-0.3 -1.6,-0.2 -2.5,-0.2 -9.9,0 -19.8,0 -29.7,0 -0.6,0 -1.1,0 -1.7,0 -0.4,0 -0.7,0.2 -1.2,0.3 -0.1,0.7 -0.1,1.3 -0.1,1.9 0,5.7 0,11.3 0,17 0,0.3 0,0.6 0,1 0,0.4 0.1,0.8 0.5,1.1 0.8,0.3 1.7,0.1 2.5,0.1 8.1,0 16.1,0 24.2,0 2.2,0 4.3,0 6.5,0 0.6,0.1 1.1,0 1.8,-0.1 z m -35.3,22.4 c 1.1,0.4 2,0.3 2.9,0.3 9.8,0 19.6,0 29.5,0 0.6,0 1.3,0 1.9,0 0.4,0 0.7,-0.2 1.1,-0.3 0,-0.6 0.1,-1 0.1,-1.5 0,-1.4 0,-2.7 0,-4.1 0,-4.3 0,-8.6 0,-12.9 0,-0.6 0.2,-1.3 -0.4,-1.9 -0.7,-0.3 -1.6,-0.2 -2.5,-0.2 -9.9,0 -19.8,0 -29.7,0 -0.6,0 -1.1,0 -1.7,0 -0.4,0 -0.7,0.2 -1.1,0.3 -0.4,1.9 -0.4,7 -0.3,18.5 0,0.5 0.1,1.1 0.2,1.8 z m 35.3,47.6 c -0.8,-0.6 -1.7,-0.4 -2.4,-0.4 -10.1,0 -20.3,0 -30.4,0 -0.4,0 -0.8,0 -1.2,0 -0.4,0 -0.8,0 -1.2,0.4 0,0.1 -0.2,0.4 -0.2,0.6 0,6.4 0,12.8 0,19.2 0,0.2 0.1,0.4 0.2,0.7 0.7,0.4 1.6,0.3 2.3,0.3 10.1,0 20.3,0 30.4,0 0.6,0 1.1,0 1.7,-0.1 0.2,0 0.4,-0.2 0.7,-0.3 0.1,-0.3 0.2,-0.6 0.2,-0.9 0.2,-3 0.1,-17.9 -0.1,-19.5 z m -0.4,88.9 c 0.6,-0.7 0.5,-1.2 0.5,-1.6 0.2,-7.9 0.1,-17 -0.2,-19 -0.3,-0.1 -0.5,-0.2 -0.8,-0.3 -0.6,-0.1 -1.3,0 -1.9,0 -9.9,0 -19.8,0 -29.7,0 -0.6,0 -1.1,0 -1.7,0 -0.4,0 -0.7,0.2 -1.1,0.3 -0.1,0.4 -0.2,0.7 -0.2,1 0,6.1 0,12.1 0,18.2 0,0.1 0,0.2 0,0.2 0.1,0.4 0.3,0.7 0.4,1 2.3,0.3 17.2,0.4 32.9,0.2 0.6,0.1 1.3,0.1 1.8,0 z m -34.9,206 c 0.8,0.5 1.7,0.3 2.6,0.3 10,0 20,0 29.9,0 0.6,0 1.1,0 1.7,0 0.4,0 0.8,-0.1 1.1,-0.6 0,-0.6 0.1,-1.3 0.1,-2 0,-2.7 0,-5.4 0,-8.1 0,-2.8 0,-5.6 0,-8.4 0,-0.5 0.1,-1.1 -0.4,-1.6 -0.8,-0.4 -1.7,-0.2 -2.5,-0.2 -9.9,0 -19.8,0 -29.7,0 -0.6,0 -1.1,0 -1.7,0 -0.4,0 -0.7,0.2 -1.1,0.3 -0.1,0.5 -0.2,0.9 -0.2,1.3 0,6.1 0,12.3 0,18.4 0,0.1 0.2,0.4 0.2,0.6 z m 35.2,-249.4 c -1,-0.3 -1.8,-0.2 -2.6,-0.2 -10,0 -20,0 -30,0 -0.5,0 -1,0 -1.4,0 -0.4,0 -0.8,0.1 -1.1,0.2 -0.4,0.8 -0.3,1.7 -0.3,2.4 0,5.2 0,10.4 0,15.6 0,0.6 0,1.1 0,1.7 0,0.4 0.1,0.8 0.6,1.2 0.7,0.2 1.6,0.1 2.4,0.1 9.8,0 19.7,0 29.5,0 0.6,0 1.3,0 1.9,0 0.4,0 0.7,-0.2 1,-0.3 0.2,-1.7 0.3,-16.5 0.2,-19.5 0,-0.4 -0.1,-0.7 -0.2,-1.2 z m 0.1,-47.8 c 0,-0.9 0.1,-1.6 0.1,-2.3 0,-3 0,-6.1 0,-9.1 0,-2.6 0,-5.1 0,-7.7 0,-0.5 -0.2,-0.9 -0.2,-1.3 -1,-0.5 -1.8,-0.3 -2.7,-0.3 -9.9,0 -19.8,0 -29.7,0 -0.6,0 -1.1,0 -1.7,0 -0.4,0 -0.7,0.2 -1,0.3 -0.4,0.9 -0.2,1.7 -0.2,2.5 0,4.4 0,8.8 0,13.2 0,1.2 0,2.4 0,3.6 0,0.4 0,0.8 0.5,1.2 0.7,0.3 1.6,0.2 2.4,0.2 9.9,0 19.8,0 29.7,0 0.6,0 1.1,0 1.7,0 0.3,-0.1 0.6,-0.2 1.1,-0.3 z m 0,-22.6 c 0,-0.9 0.1,-1.6 0.1,-2.3 0,-3.4 0,-6.7 0,-10.1 0,-2.2 0,-4.5 0,-6.7 0,-0.5 -0.2,-0.9 -0.3,-1.3 -0.8,-0.4 -1.5,-0.3 -2.3,-0.3 -10.2,0 -20.5,0 -30.7,0 -0.4,0 -0.8,0 -1.2,0 -0.4,0.1 -0.7,0.2 -1.1,0.3 -0.3,0.9 -0.2,1.7 -0.2,2.5 0,4.9 0,9.7 0,14.6 0,0.7 0,1.4 0,2.2 0,0.4 0.2,0.7 0.3,1 1,0.4 1.9,0.3 2.7,0.3 9.9,0 19.8,0 29.7,0 0.6,0 1.1,0 1.7,0 0.5,0.1 0.8,0 1.3,-0.2 z m -35.3,233.9 c -0.3,0.9 -0.2,1.7 -0.2,2.5 0,3.8 0,7.5 0,11.3 0,1 0,1.9 0,2.9 0,0.4 0.2,0.7 0.3,1 1,0.4 1.9,0.2 2.7,0.2 9.8,0 19.7,0 29.5,0 0.6,0 1.3,0 1.9,0 0.4,0 0.7,-0.2 1,-0.3 0.1,-0.3 0.1,-0.4 0.1,-0.6 0,-5.4 0,-10.7 0,-16.1 0,-0.3 -0.2,-0.6 -0.3,-1 -0.6,-0.1 -1.2,-0.2 -1.7,-0.2 -2.3,0 -4.6,0 -7,0 -7.9,0 -15.8,0 -23.7,0 -0.7,0 -1.6,-0.2 -2.6,0.3 z M 467.4,163.8 c 0.1,-0.4 0.2,-0.6 0.2,-0.8 0,-4.9 0,-9.7 0,-14.6 0,-0.3 -0.2,-0.6 -0.3,-1 -0.6,-0.1 -1.2,-0.1 -1.7,-0.1 -10.5,0 -21.1,0 -31.6,0 -0.4,0 -0.8,0 -1.2,0.1 -0.2,0 -0.4,0.2 -0.6,0.2 -0.4,0.6 -0.3,1.3 -0.3,1.9 0,3.4 0,6.9 0,10.3 0,1 0,2.1 0,3.1 0,0.4 0.2,0.7 0.3,1 0.9,0.3 1.7,0.2 2.5,0.2 4.2,0 8.3,0 12.5,0 5.8,0 11.7,0 17.5,0 0.8,0 1.7,0.1 2.7,-0.3 z"
   id="path22" />
	<path
   d="m 49.9,18.8 c 0.3,-0.1 0.6,-0.2 0.9,-0.2 0.5,0 1,0 1.4,0 0.7,0 1.4,0 2.2,0 60,0 120,0.1 180,0.1 1.7,0 3.4,0 5,0.1 0.5,0 0.9,0.1 1.5,0.2 0.1,0.5 0.2,0.8 0.2,1.2 0,0.7 0,1.4 0,2.2 0,167.3 0,334.5 0,501.8 0,1 0.2,2.1 -0.1,2.9 -0.4,0.5 -0.8,0.5 -1.2,0.5 -0.7,0 -1.4,0 -2.2,0 -61.5,0 -123,0 -184.5,0 -1,0 -2.1,0.1 -2.9,-0.1 -0.5,-0.5 -0.5,-0.9 -0.5,-1.3 0,-0.6 0,-1.3 0,-1.9 0,-167.4 0,-334.8 0,-502.2 0,-1.2 -0.2,-2.3 0.2,-3.3 z m 189.3,280.5 c -0.4,-0.1 -0.7,-0.2 -1.1,-0.2 -1.3,0 -2.6,-0.1 -3.8,-0.1 -8.4,0 -16.8,0 -25.2,0 -0.8,0 -1.6,0 -2.4,0 -0.3,0 -0.6,-0.2 -0.9,-0.3 0,-0.4 0.1,-0.6 0.1,-0.9 0.9,-0.5 1.7,-0.3 2.5,-0.3 9.6,0 19.2,0 28.8,0 0.7,0 1.4,0.1 2.1,-0.3 0.6,-0.8 0.3,-1.7 0.3,-2.5 0,-18.7 0,-37.4 0,-56.2 0,-0.6 0,-1.1 0,-1.7 0,-0.4 -0.2,-0.7 -0.3,-1.2 -0.7,0 -1.3,-0.1 -2,-0.1 -0.9,0 -1.8,0 -2.6,0 -9.8,0 -19.5,0 -29.3,0 -0.6,0 -1.1,0 -1.7,0 -0.4,0 -0.8,-0.1 -1.1,-0.6 -0.3,-0.9 -0.1,-2 -0.1,-3 0,-69.5 0,-139 0,-208.5 0,-0.7 0,-1.4 0,-2.2 0,-0.4 -0.1,-0.8 -0.5,-1.1 -0.9,-0.3 -1.9,-0.1 -3,-0.1 -35.4,0 -70.9,0 -106.3,0 -0.7,0 -1.4,0 -2.2,0 -0.4,0 -0.8,0 -1.3,0.5 -0.3,0.8 -0.1,1.9 -0.1,2.9 0,79.8 0,159.7 0,239.5 0,0.7 0,1.4 0,2.2 0,0.4 0.2,0.7 0.2,1.1 1,0.5 1.8,0.3 2.7,0.3 10.3,0 20.6,0 31,0 0.7,0 1.4,0 2.2,0 0.4,0 0.7,0.2 1.1,0.4 0,1 0,1.8 0,2.7 0,8.2 0,16.5 0,24.7 0,0.6 0,1.3 0,1.9 0,0.4 0.2,0.7 0.4,1.2 1,0 1.8,0 2.7,0 5.8,0 11.5,0 17.3,0 0.7,0 1.4,-0.2 2.1,0.3 0.1,0.2 0.2,0.3 0.2,0.4 0,0.1 -0.1,0.3 -0.1,0.5 -0.3,0.1 -0.5,0.2 -0.9,0.2 -0.8,0 -1.6,0 -2.4,0 -11.8,0 -23.7,0 -35.5,0 -0.7,0 -1.4,0 -2.2,0 -0.3,0 -0.6,0.1 -1,0.2 -0.1,0.4 -0.2,0.8 -0.2,1.2 0,0.8 0,1.6 0,2.4 0,0.4 -0.2,0.7 -0.2,1 -0.9,0.4 -1.7,0.3 -2.5,0.3 -4.2,0 -8.5,0 -12.7,0 -0.6,0 -1.3,-0.1 -1.8,0.3 -0.1,0.1 -0.2,0.3 -0.2,0.4 0,73 -0.1,146.1 -0.1,219.1 0,0.5 0.1,0.9 0.1,1.5 0.3,0.1 0.6,0.3 0.9,0.3 0.7,0.1 1.4,0 2.2,0 35.7,0 71.4,0 107,0 0.6,0 1.3,0 1.9,0 0.4,0 0.8,-0.1 1.1,-0.6 0.2,-0.9 0.1,-1.9 0.1,-2.9 0,-57.6 0,-115.2 0,-172.8 0,-0.8 0,-1.6 0,-2.4 0,-0.3 0.1,-0.6 0.2,-0.9 0.9,-0.5 1.8,-0.3 2.6,-0.3 10.2,0 20.5,0 30.7,0 0.7,0 1.4,0 2.2,0 0.4,0 0.8,0 1.1,-0.3 0.4,-0.5 0.3,-1.1 0.3,-1.6 0,-14.2 0,-28.5 0,-42.7 0,-0.4 0,-0.8 -0.1,-1.2 0,0 -0.1,-0.2 -0.3,-0.5 z m 0.3,-204.8 c -0.6,-0.1 -1,-0.2 -1.4,-0.2 -1.2,0 -2.4,-0.1 -3.6,-0.1 -9.2,0 -18.4,0 -27.6,0 -0.6,0 -1.1,0 -1.7,0 -0.4,0 -0.8,0.1 -1.1,0.6 -0.3,0.8 -0.1,1.8 -0.1,2.7 0,14.9 0,29.8 0,44.6 0,0.7 0,1.4 0,2.2 0,0.4 0.2,0.7 0.3,1 1,0.4 1.9,0.2 2.7,0.2 6.6,0 13.1,0 19.7,0 3.6,0 7.2,0.1 10.8,0.1 0.6,0 1.3,0.1 1.8,-0.4 0.1,-0.2 0.2,-0.3 0.2,-0.4 0,-16.2 0.1,-32.3 0.1,-48.5 0,-0.5 -0.1,-1 -0.1,-1.8 z M 87.6,396.3 c 0.1,-0.4 0.3,-0.7 0.3,-1 0,-0.6 0,-1.3 0,-1.9 0,-14.5 0,-28.9 0,-43.4 0,-0.7 0,-1.4 0,-2.2 0,-0.4 -0.1,-0.8 -0.2,-1.1 -0.9,-0.5 -1.8,-0.3 -2.7,-0.3 -10.2,0 -20.5,0 -30.7,0 -0.6,0 -1.3,0 -1.9,0 -0.3,0 -0.6,0.2 -0.9,0.2 -0.4,1 -0.2,1.9 -0.2,2.9 0,14.5 0,29.1 0,43.6 0,0.6 0,1.3 0,1.9 0,0.4 0.2,0.7 0.3,1.1 2.2,0.3 20,0.5 34.4,0.2 0.4,0.1 1,0 1.6,0 z m -36,-94 c 0.9,0.4 1.8,0.2 2.7,0.2 10.5,0 21.1,0 31.6,0 0.8,0 1.6,0 2.4,0 5.1,0 10.2,0.1 15.3,0.1 0.4,0 0.8,0 1.3,-0.5 0.2,-0.6 0.1,-1.5 0.1,-2.4 0,-9.5 0,-19 0,-28.5 0,-0.6 0,-1.1 0,-1.7 0,-0.4 -0.2,-0.7 -0.2,-1.1 -0.9,-0.4 -1.8,-0.3 -2.7,-0.3 -7.7,0 -15.3,0 -23,0.1 -8.1,0 -16.3,0 -24.4,0 -0.7,0 -1.4,0 -2.2,0 -0.4,0 -0.8,0.1 -1.1,0.6 0,0.3 -0.1,0.8 -0.1,1.3 0,10.5 0,21.1 0.1,31.6 -0.1,0.2 0,0.3 0.2,0.6 z m -0.2,-282 c -0.3,1.1 -0.2,2 -0.2,2.9 0,11.8 0,23.7 0,35.5 0,0.6 0,1.3 0,1.9 0,0.4 0.2,0.7 0.3,1 1,0.4 1.9,0.2 2.7,0.2 9.1,0 18.2,0 27.3,0 1.5,0 3,0 4.6,0 0.5,0 0.9,-0.1 1.4,-0.2 0.1,-0.4 0.2,-0.7 0.2,-1 0,-0.6 0,-1.3 0,-1.9 0,-11.8 0,-23.7 0,-35.5 0,-0.6 0,-1.3 0,-1.9 0,-0.4 -0.2,-0.7 -0.3,-1 -1,-0.4 -1.9,-0.2 -2.7,-0.2 -9.8,0 -19.5,0 -29.3,0 -1,0 -1.9,0 -2.9,0 -0.2,0 -0.6,0.1 -1.1,0.2 z m 152.9,0 c -0.5,1 -0.3,1.9 -0.3,2.8 0,11.9 0,23.8 0,35.7 0,0.6 0,1.1 0,1.7 0,0.4 0.2,0.7 0.3,1.1 0.6,0.1 1.2,0.1 1.7,0.1 10.6,0 21.3,0.1 31.9,0.1 0.5,0 1,0.1 1.5,-0.5 0.2,-0.7 0.1,-1.7 0.1,-2.7 0,-11.8 0,-23.5 0,-35.3 0,-0.6 0,-1.3 0,-1.9 0,-0.4 -0.2,-0.7 -0.3,-1.1 -0.4,-0.1 -0.7,-0.1 -1,-0.1 -11,0 -21.9,0 -32.9,-0.1 -0.2,0.1 -0.6,0.2 -1,0.2 z M 87.7,344.6 c 0.3,-1 0.2,-1.9 0.2,-2.7 0,-11.4 0,-22.9 0,-34.3 0,-0.7 0,-1.4 0,-2.2 0,-0.4 0,-0.8 -0.5,-1.1 -0.8,-0.3 -1.7,-0.2 -2.5,-0.2 -10.2,0 -20.5,0 -30.7,0 -0.6,0 -1.3,0 -1.9,0 -0.3,0 -0.6,0.2 -0.8,0.3 -0.3,0.8 -0.2,1.7 -0.2,2.4 0,11.7 0,23.5 0,35.2 0,0.5 0,1 0,1.4 0,0.4 0.2,0.7 0.3,1.1 0.4,0.1 0.7,0.2 1,0.2 11.4,0 22.8,0 34.3,0 0.2,0.1 0.4,0 0.8,-0.1 z m -0.1,141.5 c -0.9,-0.4 -1.8,-0.3 -2.7,-0.3 -10.2,0 -20.5,0 -30.7,0 -0.6,0 -1.1,0 -1.7,0 -0.4,0 -0.8,0 -1.2,0.4 -0.4,0.6 -0.2,1.3 -0.2,2 0,11.7 0,23.5 0,35.2 0,0.3 0,0.6 0,1 0,0.4 0,0.8 0.5,1.2 0.7,0.3 1.5,0.1 2.4,0.1 10.3,0 20.6,0 30.9,0 0.5,0 1,0 1.4,0 0.4,0 0.8,0 1.2,-0.5 0.3,-0.7 0.1,-1.6 0.1,-2.4 0,-11.3 0,-22.5 0,-33.8 0,-0.7 0,-1.4 0,-2.2 0.2,-0.1 0.1,-0.4 0,-0.7 z m 116.5,39.5 c 1.1,0.5 2,0.3 2.8,0.3 9.9,0 19.8,0 29.7,0 0.6,0 1.1,0 1.7,0 0.4,0 0.7,-0.2 1.1,-0.3 0.3,-0.9 0.2,-1.7 0.2,-2.5 0,-11.4 0,-22.9 0,-34.3 0,-0.6 0,-1.3 0,-1.9 0,-0.3 -0.2,-0.6 -0.3,-1 -0.7,0 -1.5,-0.1 -2.2,-0.1 -1.7,0 -3.4,0 -5,0 -8.2,0 -16.3,0 -24.5,0 -0.7,0 -1.4,0 -2.2,0 -0.4,0 -0.8,0 -1.1,0.3 -0.1,0.1 -0.2,0.3 -0.2,0.4 0,12.3 -0.1,24.6 -0.1,36.9 0,0.8 0,1.4 0.1,2.2 z M 51.6,233.9 c -0.6,0.8 -0.3,1.7 -0.3,2.5 0,9 0,18.1 0,27.1 0,0.6 0,1.3 0,1.9 0,0.3 0.2,0.6 0.2,0.8 0.9,0.5 1.8,0.4 2.7,0.4 10.3,0 20.6,0 30.9,0 0.5,0 1,0 1.4,0 0.4,0 0.8,-0.2 1.1,-0.2 0.5,-0.9 0.3,-1.8 0.3,-2.7 0,-9 0,-18.1 0,-27.1 0,-0.6 0,-1.1 0,-1.7 0,-0.4 -0.2,-0.7 -0.3,-1.1 -0.9,-0.3 -1.7,-0.2 -2.5,-0.2 -4.5,0 -9,0 -13.4,0 -5.8,0 -11.7,0 -17.5,0 -0.9,0 -1.8,-0.2 -2.6,0.3 z M 51.5,95.6 c 0.3,0.1 0.6,0.2 0.9,0.3 0.6,0 1.3,0 1.9,0 10.2,0 20.5,0 30.7,0 0.6,0 1.1,0 1.7,0 0.4,0 0.7,-0.2 1.2,-0.3 0,-0.8 0.1,-1.5 0.1,-2.2 0,-9 0,-18.1 0,-27.1 0,-0.6 0,-1.1 0,-1.7 0,-0.3 -0.2,-0.6 -0.2,-0.9 -0.9,-0.5 -1.8,-0.3 -2.6,-0.3 -10.2,0 -20.5,0 -30.7,0 -0.6,0 -1.1,0 -1.7,0 -0.4,0 -0.8,0 -1.2,0.4 0,0.1 -0.2,0.4 -0.2,0.6 0,10.2 0,20.3 0,30.5 -0.1,0.1 0,0.4 0.1,0.7 z m 0,70.5 c -0.4,0.7 -0.3,1.4 -0.3,2.1 0,9.2 0,18.4 0,27.6 0,0.4 0,0.8 0,1.2 0,0.3 0.1,0.6 0.2,0.9 0.9,0.4 1.8,0.2 2.6,0.2 10.3,0 20.6,0 30.9,0 0.5,0 1,0 1.4,0 0.4,0 0.8,0 1.2,-0.5 0.3,-0.7 0.2,-1.6 0.2,-2.4 0,-8.7 0,-17.4 0,-26.1 0,-0.6 0,-1.3 0,-1.9 0,-0.4 0,-0.8 -0.4,-1.2 -0.5,-0.4 -1.2,-0.2 -1.8,-0.2 -10.7,0 -21.4,0 -32.1,0 -0.5,0 -1,0 -1.4,0.1 -0.1,0 -0.3,0.2 -0.5,0.2 z m 152.7,285.5 c -0.4,1 -0.3,1.8 -0.3,2.6 0,9.1 0,18.2 0,27.3 0,0.5 0,1 0,1.4 0,0.4 0.2,0.7 0.3,1.1 0.6,0.1 1.2,0.1 1.7,0.1 10.6,0 21.2,0 31.9,0 0.5,0 0.9,-0.1 1.4,-0.2 0.4,-0.9 0.3,-1.8 0.3,-2.7 0,-9 0,-18 0,-27.1 0,-0.6 0,-1.3 0,-1.9 0,-0.3 -0.2,-0.6 -0.3,-0.9 -0.8,-0.3 -1.6,-0.2 -2.4,-0.2 -9.8,0 -19.6,0 -29.5,0 -0.7,0 -1.4,0 -2.2,0 -0.2,0.3 -0.5,0.4 -0.9,0.5 z M 51.5,231.8 c 1.1,0.4 2.1,0.3 3,0.3 10,0 20,0 30,0 0.7,0 1.4,0 2.2,0 0.3,0 0.6,-0.1 0.9,-0.2 0.6,-0.9 0.4,-1.8 0.4,-2.6 0,-8.8 0,-17.6 0,-26.4 0,-0.6 0,-1.3 0,-1.9 0,-0.3 -0.2,-0.6 -0.2,-0.9 -0.9,-0.4 -1.8,-0.2 -2.7,-0.2 -10.2,0 -20.5,0 -30.7,0 -0.6,0 -1.1,0 -1.7,0 -0.4,0 -0.8,0 -1.2,0.4 0,0.1 -0.2,0.4 -0.2,0.6 0,10.1 0,20.1 0,30.2 0,0.1 0.1,0.3 0.2,0.7 z m 187.9,186 c -0.8,-0.6 -1.5,-0.4 -2.2,-0.4 -9.9,0 -19.8,0 -29.8,0 -0.7,0 -1.4,0 -2.2,0 -0.4,0 -0.8,0.1 -1.1,0.5 -0.3,0.7 -0.2,1.5 -0.2,2.3 0,9 0,17.9 0,26.9 0,0.5 0,1 0,1.4 0,0.4 0.2,0.7 0.3,1.1 1,0.4 1.8,0.2 2.7,0.2 9.4,0 18.9,0 28.3,0 1,0 1.9,0 2.9,0 0.4,0 0.7,-0.1 1.2,-0.2 0.1,-0.4 0.2,-0.7 0.2,-1 0.2,-2.7 0.1,-29.3 -0.1,-30.8 z M 204.3,92.4 c 0.2,0.1 0.5,0.2 0.7,0.2 11.2,0 22.4,0.1 33.6,0.1 0.2,0 0.4,-0.1 0.6,-0.2 0.5,-0.8 0.4,-1.6 0.4,-2.4 0,-8.1 0,-16.2 0,-24.2 0,-0.4 0,-0.8 0,-1.2 -0.1,-0.4 -0.2,-0.7 -0.3,-1.1 -0.9,-0.3 -1.7,-0.2 -2.5,-0.2 -10,0 -20,0 -30,0 -0.5,0 -1,0 -1.4,0 -0.4,0 -0.8,0.1 -1.1,0.2 -0.4,0.7 -0.3,1.4 -0.3,2 0,8.2 0,16.5 0,24.7 0,0.5 0,1 0.1,1.4 0,0.3 0.1,0.5 0.2,0.7 z m 34.9,118.9 c -0.2,-0.1 -0.3,-0.2 -0.5,-0.2 -0.6,0 -1.1,-0.1 -1.7,-0.1 -1.7,0 -3.4,0.1 -5,0.1 -8.4,0 -16.8,0 -25.2,0 -0.9,0 -1.8,-0.2 -2.6,0.2 -0.5,0.7 -0.3,1.5 -0.4,2.3 0,6 0,12 0,18 0,0.6 0,1.1 0.1,1.7 0,0.2 0.2,0.4 0.3,0.7 0.8,0.3 1.6,0.2 2.3,0.2 9.4,0 18.8,0 28.3,0 1.1,0 2.2,0 3.4,-0.1 0.4,0 0.8,-0.1 1.2,-0.6 0,-0.3 0.1,-0.8 0.1,-1.3 0,-6.4 0,-12.8 0,-19.2 0,-0.4 0,-0.8 -0.1,-1.2 0.1,-0.1 -0.1,-0.3 -0.2,-0.5 z m -34.8,159.1 c 0.2,0 0.5,0.2 0.8,0.2 11.1,0 22.2,0 33.3,0 0.2,0 0.4,-0.1 0.6,-0.2 0.5,-0.7 0.4,-1.4 0.4,-2.1 0,-3.6 0,-7.2 0,-10.8 0,-2.6 0,-5.3 0,-7.9 0,-0.6 0.1,-1.3 -0.4,-2 -0.5,0 -1.1,-0.1 -1.8,-0.1 -2.2,0 -4.5,0 -6.7,0 -7.9,0 -15.8,0 -23.7,0 -0.9,0 -1.8,-0.2 -2.6,0.2 -0.5,0.6 -0.3,1.4 -0.3,2.1 0,3.5 0,7 0,10.5 0,2.7 0,5.4 0,8.1 0,0.7 -0.1,1.4 0.4,2 z M 51.6,164 c 0.7,0.4 1.6,0.2 2.5,0.2 9.8,0 19.7,0 29.5,0 1,0 1.9,0 2.9,0 0.4,0 0.8,-0.1 1.1,-0.2 0.5,-0.7 0.4,-1.3 0.4,-2 0,-2 0,-4 0,-6 0,-3.8 0,-7.5 0,-11.3 0,-0.7 0.1,-1.4 -0.4,-2.1 -0.8,-0.4 -1.7,-0.2 -2.6,-0.2 -10.2,0 -20.5,0 -30.7,0 -0.6,0 -1.1,0 -1.7,0 -0.4,0 -0.8,0 -1.2,0.5 0,0.2 -0.1,0.5 -0.1,0.8 0,6.6 0,13.1 0.1,19.7 -0.1,0.3 0.1,0.4 0.2,0.6 z m -0.1,297.6 c 0.5,0.1 0.9,0.2 1.3,0.2 11.4,0 22.8,0 34.3,-0.1 0.1,0 0.3,-0.1 0.5,-0.2 0.1,-0.4 0.2,-0.8 0.2,-1.3 0,-1.4 0,-2.7 0,-4.1 0,-4.5 0,-8.9 0,-13.4 0,-0.8 0.2,-1.6 -0.4,-2.4 -0.5,-0.1 -1,-0.2 -1.6,-0.2 -10.9,0 -21.7,0 -32.6,0 -0.4,0 -0.8,0 -1.2,0.1 -0.2,0 -0.4,0.2 -0.7,0.3 -0.1,0.2 -0.2,0.5 -0.2,0.7 0,6.5 0,13.1 0,19.6 0.2,0.1 0.3,0.4 0.4,0.8 z M 51.4,140.8 c 1.1,0.4 2,0.3 2.9,0.3 10.2,0 20.3,0 30.5,0 0.6,0 1.1,0 1.7,0 0.4,0 0.8,0 1.3,-0.5 0.1,-0.3 0.1,-0.7 0.1,-1.2 0,-1.8 0,-3.5 0,-5.3 0,-3.9 0,-7.8 0,-11.8 0,-0.7 0.1,-1.4 -0.4,-2.1 -0.8,-0.3 -1.7,-0.2 -2.6,-0.2 -10.2,0 -20.5,0 -30.7,0 -0.6,0 -1.1,0 -1.7,0 -0.4,0 -0.8,0 -1.1,0.4 -0.3,1.8 -0.4,13.4 -0.2,19.2 0.1,0.4 0.2,0.7 0.2,1.2 z m 36.3,-22.6 c 0.1,-0.7 0.1,-1.2 0.1,-1.7 0,-1.2 0,-2.4 0,-3.6 0,-4.3 0,-8.6 0,-13 0,-0.8 0.2,-1.6 -0.4,-2.4 -0.8,-0.3 -1.7,-0.2 -2.5,-0.2 -10.2,0 -20.5,0 -30.7,0 -0.6,0 -1.1,0 -1.7,0 -0.4,0 -0.8,0 -1.2,0.4 0,0.1 -0.2,0.4 -0.2,0.6 0,6.3 0,12.6 0,19 0,0.2 0.1,0.4 0.2,0.8 0.3,0.1 0.6,0.2 0.9,0.3 0.7,0 1.4,0 2.2,0 8.5,0 17,0 25.4,0 2,0 4,0 6,0 0.7,0 1.2,-0.1 1.9,-0.2 z M 51.5,484.1 c 1,0.4 1.9,0.2 2.8,0.2 9.4,0 18.9,0 28.3,0 1.2,0 2.4,0 3.6,0 0.5,0 0.9,-0.1 1.5,-0.2 0.1,-0.5 0.2,-1 0.2,-1.5 0,-5.9 0,-11.8 0,-17.8 0,-0.5 -0.1,-0.9 -0.2,-1.4 -0.9,-0.4 -1.8,-0.3 -2.7,-0.3 -10.2,0 -20.5,0 -30.7,0 -0.6,0 -1.1,0 -1.7,0 -0.4,0 -0.8,0 -1.1,0.5 0,0.1 -0.2,0.4 -0.2,0.6 0,6.3 0,12.6 0,19 0,0.3 0.1,0.5 0.2,0.9 z m 152.8,-68.5 c 0.8,0.4 1.7,0.3 2.6,0.3 9.6,0 19.2,0 28.8,0 0.8,0 1.6,0 2.4,0 0.4,0 0.8,-0.1 1.2,-0.2 0.1,-0.5 0.2,-1 0.2,-1.4 0,-1.4 0,-2.9 0,-4.3 0,-4.3 0,-8.6 0,-13 0,-0.6 0.1,-1.3 -0.3,-1.8 -0.6,-0.4 -1.4,-0.3 -2.1,-0.3 -9.9,0 -19.8,0 -29.8,0 -0.7,0 -1.4,0 -2.2,0 -0.4,0 -0.7,0.2 -1.1,0.3 0,0.6 -0.1,1.2 -0.1,1.7 0,1.6 0,3.2 0,4.8 0,3.9 0,7.8 0,11.8 0.1,0.7 -0.1,1.4 0.4,2.1 z M 87.5,438.3 c 0.5,-0.9 0.4,-1.6 0.4,-2.3 0,-5.4 0,-10.7 0,-16.1 0,-0.4 0,-0.8 0,-1.2 0,-0.4 -0.1,-0.8 -0.5,-1.2 -0.6,-0.2 -1.4,-0.1 -2.2,-0.1 -4,0 -8,0 -12,0 -6.3,0 -12.6,0 -18.9,0 -0.9,0 -1.8,-0.2 -2.7,0.3 -0.1,0.4 -0.2,0.8 -0.2,1.3 0,5.9 0,11.8 0,17.7 0,0.5 0.2,0.9 0.2,1.3 0.3,0.1 0.4,0.3 0.5,0.3 11.3,0 22.7,0.1 34,0.1 0.4,0.1 0.9,0 1.4,-0.1 z m 151.9,-65.9 c -0.7,-0.4 -1.4,-0.3 -2,-0.3 -5.4,0 -10.9,0 -16.3,0 -4.8,0 -9.6,0 -14.4,0 -0.8,0 -1.6,-0.2 -2.4,0.3 -0.4,0.6 -0.3,1.4 -0.3,2.1 0,5.1 0,10.2 0,15.4 0,0.7 0,1.4 0,2.2 0,0.4 0.2,0.7 0.3,1.1 1,0.4 1.8,0.3 2.7,0.3 9.4,0 18.9,0 28.3,0 1,0 1.9,0 2.9,0 0.4,0 0.8,-0.1 1.1,-0.2 0.4,-0.8 0.3,-1.7 0.3,-2.4 0,-4.2 0,-8.3 0,-12.5 0,-1.4 0,-2.9 0,-4.3 0,-0.8 -0.2,-1.2 -0.2,-1.7 z M 204.3,209.3 c 0.9,0.4 1.8,0.3 2.7,0.3 9.3,0 18.5,0 27.8,0 1.1,0 2.2,0 3.4,-0.1 0.4,0 0.8,-0.1 1.1,-0.2 0.5,-0.7 0.4,-1.5 0.4,-2.2 0,-5.4 0,-10.9 0,-16.3 0,-0.4 0,-0.8 0,-1.2 -0.1,-0.4 -0.2,-0.7 -0.4,-1.2 -0.9,0 -1.7,-0.1 -2.5,-0.1 -9.9,0 -19.8,0 -29.7,0 -0.6,0 -1.1,0 -1.7,0 -0.4,0 -0.7,0.2 -1,0.2 -0.4,0.9 -0.3,1.7 -0.3,2.5 0,5.1 0,10.2 0,15.3 0,0.6 0,1.3 0,1.9 -0.1,0.5 0.1,0.8 0.2,1.1 z m 35.1,-22.6 c 0.1,-0.8 0.2,-1.5 0.2,-2.1 0,-2.9 0,-5.8 0,-8.6 0,-2.8 0,-5.6 0,-8.4 0,-0.5 0.1,-1.1 -0.4,-1.6 -0.1,-0.1 -0.3,-0.2 -0.4,-0.2 -0.5,0 -1,-0.1 -1.4,-0.1 -1.3,0 -2.6,0 -3.8,0 -8.7,0 -17.4,0 -26.1,0 -0.7,0 -1.4,0 -2.2,0 -0.4,0 -0.7,0.2 -1,0.3 -0.1,0.3 -0.2,0.4 -0.2,0.6 0,6.3 0,12.6 0,18.9 0,0.4 0.1,0.8 0.5,1 2.3,0.3 20.9,0.4 33,0.2 0.5,0.1 1,0 1.8,0 z M 51.5,398.1 c -0.1,0.4 -0.2,0.7 -0.2,1 0,5.1 0,10.2 0,15.3 0,0.4 0.2,0.8 0.2,1 0.8,0.5 1.5,0.4 2.2,0.4 10.6,0 21.2,0 31.9,0 0.3,0 0.6,0 1,0 0.4,-0.1 0.7,-0.2 1.2,-0.3 0.1,-0.5 0.2,-0.8 0.2,-1.2 0,-5 0,-9.9 0,-14.9 0,-0.5 -0.2,-0.9 -0.3,-1.4 -0.5,-0.1 -1,-0.2 -1.5,-0.2 -9,-0.1 -32.4,0 -34.7,0.3 z M 204.3,164.2 c 0.9,0 1.7,0.1 2.5,0.1 9.4,0 18.7,0 28.1,0 1.1,0 2.2,0 3.4,-0.1 0.4,0 0.8,0 1.2,-0.6 0,-0.4 0.1,-1.1 0.1,-1.7 0,-2.6 0,-5.3 0,-7.9 0,-1.8 0,-3.5 0,-5.3 0,-0.5 0,-1 -0.6,-1.4 -1.4,-0.1 -3,-0.2 -4.6,-0.2 -9.1,0 -18.2,0 -27.3,0 -0.6,0 -1.1,0 -1.7,0 -0.4,0 -0.8,0.1 -1.1,0.2 -0.1,0.3 -0.2,0.6 -0.2,0.8 0,5 0,10.1 0,15.1 -0.1,0.3 0.1,0.5 0.2,1 z m -79.7,133 c 0,-0.7 0.1,-1.2 0.1,-1.8 0,-8.1 0,-16.2 0,-24.2 0,-0.6 0,-1.1 0,-1.7 0,-0.4 -0.1,-0.8 -0.2,-1 -0.8,-0.5 -1.5,-0.4 -2.2,-0.4 -4.4,0 -8.8,0 -13.2,0 -0.4,0 -0.8,0 -1.2,0 -0.4,0.1 -0.7,0.2 -1.1,0.4 0,0.7 -0.1,1.3 -0.1,2 0,6.8 0.1,13.6 0.1,20.4 0,0.1 0.1,0.3 0.2,0.4 0.7,0.4 1.6,-0.2 2.3,0.5 -0.1,0.2 -0.1,0.4 -0.3,0.5 -0.4,0.2 -0.5,0.6 -0.6,1 0,0.1 -0.2,0.1 -0.4,0.2 -0.4,0 -0.7,-0.5 -1.2,-0.1 -0.2,1.2 -0.3,2.6 0.1,3.8 0.7,0.5 1.3,0.4 2,0.4 10,0.1 13.8,0 15.7,-0.4 z"
   id="path24" />
	<path
   d="m 361.2,341.6 c 0.5,1.9 0,3.7 0.4,5.3 0.8,0.6 1.6,0.4 2.3,0.4 5,0 10.1,0 15.1,0 1.7,0 3.4,0 5,0 0.5,0 0.9,-0.1 1.4,-0.2 0.7,-1.7 0,-3.6 0.6,-5.3 0.4,-0.1 0.7,-0.2 1.1,-0.2 0.6,0 1.1,0 1.7,0 9.3,0 18.6,0 27.8,0 0.9,0 1.8,-0.1 2.5,0.1 0.5,0.4 0.4,0.8 0.5,1.2 0,0.6 0,1.3 0,1.9 0,51.4 0,102.7 0,154.1 0,1 0,2.1 0,3.2 -0.4,0.1 -0.8,0.3 -1.2,0.4 -0.7,0.1 -1.4,0 -2.2,0 -22.6,0 -45.1,0 -67.7,0 -6.1,0 -12.2,-0.1 -18.2,-0.1 -0.5,0 -1.1,-0.1 -1.5,-0.1 -0.5,-0.4 -0.5,-0.8 -0.6,-1.2 0,-0.7 0,-1.4 0,-2.2 0,-51.4 0,-102.7 0,-154.1 0,-1 -0.1,-1.9 0.2,-3 0.4,-0.1 0.7,-0.2 1.1,-0.3 0.6,-0.1 1.1,0 1.7,0 9.2,0 18.4,0 27.6,0 0.7,0 1.4,0.1 2.4,0.1 z M 330,419.5 c -0.1,0.4 -0.2,0.6 -0.2,0.8 0,26.5 0,52.9 0,79.4 0,0.2 0.1,0.5 0.2,0.6 0.6,0.5 1.2,0.4 1.9,0.4 5.6,0.1 11.2,0.2 16.8,0.2 22.1,0 44.1,0 66.2,0 0.7,0 1.4,0 2.2,0 0.4,0 0.7,-0.2 1,-0.3 0.4,-1 0.3,-1.9 0.3,-2.7 0,-25.1 0,-50.2 0,-75.3 0,-0.7 0,-1.4 0,-2.2 0,-0.4 -0.2,-0.7 -0.4,-1.1 -0.9,0 -1.7,0 -2.5,0 -3.2,0 -6.4,0 -9.6,0 -1.4,0 -2.9,0 -4.3,0 -0.4,0 -0.7,0.2 -1.1,0.3 0,0.6 -0.1,1.2 -0.1,1.7 0,0.9 0,1.8 0,2.6 0,0.4 -0.2,0.7 -0.3,1.1 -1,0.4 -2,0.3 -3,0.3 -15.4,0 -30.9,0 -46.3,0 -0.6,0 -1.3,0 -1.9,0 -0.4,0 -0.8,-0.1 -1.2,-0.6 0,-0.3 -0.1,-0.8 -0.1,-1.2 0,-1 0,-1.9 0,-2.9 0,-0.4 -0.2,-0.7 -0.2,-1.1 -0.3,-0.1 -0.6,-0.2 -0.8,-0.2 -5.2,0 -10.4,0 -15.6,0 -0.4,-0.1 -0.6,0.1 -1,0.2 z m 31.7,-46.9 c -0.4,1 -0.3,1.8 -0.3,2.6 0,15.3 0,30.6 0,45.8 0,0.5 0,1 0,1.4 0,0.4 0.2,0.7 0.2,1 0.9,0.5 1.7,0.3 2.5,0.3 4.4,0 8.8,0 13.2,0 2.2,0 4.3,0 6.5,0 0.5,0 1.1,-0.1 1.5,-0.2 0.5,-0.9 0.4,-1.7 0.4,-2.5 0,-15.4 0,-30.9 0,-46.3 0,-0.4 0,-0.8 0,-1.2 0,-0.3 -0.1,-0.6 -0.2,-0.8 -0.2,-0.1 -0.4,-0.3 -0.5,-0.3 -7.4,0 -14.9,-0.1 -22.3,-0.1 -0.3,0.1 -0.6,0.2 -1,0.3 z m 25.8,-29.1 c -0.3,0.9 -0.2,1.8 -0.2,2.7 0,8.8 0,17.6 0,26.4 0,0.6 0,1.1 0,1.7 0,0.4 0,0.8 0.6,1.2 0.7,0.2 1.5,0.1 2.4,0.1 8.2,0 16.3,0 24.5,0 0.8,0 1.6,0 2.4,0 0.3,0 0.6,-0.2 0.8,-0.2 0.5,-0.9 0.3,-1.8 0.3,-2.7 0,-8.8 0,-17.6 0,-26.4 0,-0.6 0,-1.1 0,-1.7 0,-0.4 0,-0.8 -0.5,-1.1 -0.7,-0.4 -1.5,-0.2 -2.3,-0.2 -8.5,0 -17,0 -25.4,0 -0.6,0 -1.1,0 -1.7,0 -0.3,-0.1 -0.6,0.1 -0.9,0.2 z m 11.5,74.4 c 0.4,-0.1 0.9,-0.2 1.4,-0.2 1.5,0 3,0 4.6,0 3.7,0 7.3,0 11,0 0.7,0 1.4,0.1 2.1,-0.4 0.3,-0.8 0.2,-1.7 0.2,-2.5 0,-7.4 0,-14.9 0,-22.3 0,-0.6 0,-1.1 0,-1.7 0,-0.4 0,-0.8 -0.5,-1.3 -0.7,-0.3 -1.5,-0.2 -2.4,-0.2 -8.4,0 -16.8,0 -25.2,0 -0.6,0 -1.1,0 -1.7,0 -0.4,0 -0.8,0.1 -1.2,0.6 0,0.6 -0.1,1.4 -0.1,2.2 0,9.6 0,19.2 0,28.7 0,0.6 0,1.1 0,1.7 0,0.3 0.1,0.6 0.2,1 0.4,0.1 0.7,0.2 1,0.2 3,0 5.9,0 8.9,0 0.4,0 0.7,-0.2 1,-0.3 0.4,-1 0.2,-1.8 0.3,-2.7 0.1,-0.9 -0.2,-1.9 0.4,-2.8 z m -68.9,-28.4 c -0.4,0.9 -0.3,1.8 -0.3,2.7 0,6.8 0,13.6 0,20.4 0,1.2 0,2.4 0,3.6 0,0.4 0.1,0.8 0.2,1.1 0.8,0.5 1.5,0.4 2.2,0.4 3.6,0 7.2,0 10.8,0 1.6,0 3.2,0 4.8,0.1 0.4,0 0.8,0.1 1.2,0.7 0,1.2 0,2.5 0.1,3.9 0,0.5 0.2,0.9 0.3,1.3 1.5,0.3 7.3,0.4 9.4,0.2 0.3,0 0.6,-0.2 0.9,-0.3 0.1,-0.3 0.2,-0.5 0.2,-0.7 0,-10.8 0,-21.6 0,-32.4 0,-0.2 -0.1,-0.4 -0.2,-0.6 -0.7,-0.6 -1.4,-0.4 -2.1,-0.4 -8.3,0 -16.6,-0.1 -25,-0.1 -0.6,0 -1.1,0 -1.7,0 -0.3,-0.1 -0.6,0 -0.8,0.1 z M 330,362.8 c 0.3,0.2 0.4,0.3 0.6,0.3 9.2,0 18.4,0.1 27.5,0.1 0.5,0 0.9,-0.1 1.5,-0.2 0.1,-0.5 0.3,-0.9 0.3,-1.4 0,-5.7 0,-11.5 0,-17.2 0,-0.3 -0.1,-0.6 -0.2,-0.8 -0.7,-0.5 -1.5,-0.4 -2.2,-0.4 -4.5,-0.1 -8.9,0 -13.4,-0.2 -4.1,-0.2 -8.3,0 -12.5,0 -0.5,0 -1.1,-0.1 -1.7,0.5 0,0.2 -0.1,0.6 -0.1,1 -0.2,4.6 0,16.4 0.2,18.3 z M 385.4,349 c -0.7,-0.4 -1.5,-0.2 -2.3,-0.2 -6.3,0 -12.6,0 -18.9,0 -0.5,0 -1,0 -1.4,0 -0.4,0 -0.7,0.2 -1.1,0.3 -0.3,0.9 -0.2,1.7 -0.2,2.5 0,5.2 0,10.4 0,15.6 0,0.8 0,1.6 0,2.4 0,0.4 0.2,0.7 0.3,1 0.9,0.4 1.7,0.2 2.5,0.2 4.6,0 9.3,0 13.9,0 2,0 4,0 6,0 0.5,0 1,0.1 1.5,-0.5 0,-0.3 0.1,-0.8 0.1,-1.3 0,-1.2 0,-2.4 0,-3.6 0,-4.8 0,-9.6 0,-14.4 -0.1,-0.6 0.1,-1.3 -0.4,-2 z M 330,375.1 c 0.8,0.6 1.7,0.4 2.5,0.4 5.4,0 10.9,0 16.3,0 3.1,0 6.2,0 9.4,0 0.5,0 1.1,0.1 1.6,-0.5 0,-0.2 0.2,-0.4 0.2,-0.6 0,-2.9 0,-5.8 0,-8.6 0,-0.3 -0.2,-0.6 -0.3,-1 -0.7,-0.1 -1.3,-0.1 -1.9,-0.1 -8.6,0 -17.1,0 -25.7,0 -0.3,0 -0.6,0 -1,0 -0.4,0.1 -0.7,0.2 -1,0.3 -0.4,2.1 -0.4,8 -0.1,10.1 z m 14.9,2 c -0.7,0 -1.4,-0.1 -2.2,-0.1 -2.5,0 -4.9,0 -7.4,0 -1.4,0 -2.9,0 -4.3,0 -0.4,0 -0.7,0.2 -1,0.4 -0.2,1.6 -0.2,7.9 -0.1,9.4 0,0.2 0.2,0.4 0.3,0.7 0.4,0.1 0.8,0.1 1.1,0.2 0.9,0 1.8,0 2.6,0 3.2,0 6.4,0 9.6,0 0.6,0 1.1,0 1.6,-0.5 0,-0.4 0.2,-0.8 0.2,-1.3 0,-2.7 -0.1,-5.4 -0.1,-8.1 0,-0.2 -0.1,-0.3 -0.3,-0.7 z m 58.2,0.1 c -0.4,1.7 -0.5,4.9 -0.3,9.2 0,0.4 0.2,0.7 0.3,1.2 0.5,0.1 0.9,0.2 1.2,0.2 0.8,0 1.6,0 2.4,0 3.3,0 6.5,0 9.8,0 0.5,0 1.1,0.1 1.6,-0.4 0.1,-0.1 0.2,-0.3 0.2,-0.4 0,-3 0,-5.9 0,-8.9 0,-0.3 -0.2,-0.6 -0.3,-0.8 -2.1,-0.3 -12.8,-0.3 -14.9,-0.1 z m -15.6,0.1 c -0.1,0.3 -0.2,0.4 -0.2,0.5 0,3 0,5.9 0,8.9 0,0.3 0.2,0.6 0.3,0.8 0.3,0.1 0.4,0.2 0.6,0.2 4,0 8,0 12,0 0.3,0 0.6,-0.2 0.9,-0.3 0.1,-0.4 0.2,-0.7 0.2,-1 0,-2.7 0,-5.4 0,-8.2 0,-0.4 -0.2,-0.7 -0.3,-1.1 -0.5,-0.1 -0.9,-0.1 -1.3,-0.1 -3.8,0 -7.7,0 -11.5,0.1 -0.2,0 -0.4,0.1 -0.7,0.2 z m -27.9,10.1 c 0.4,-1.5 0.5,-4 0.3,-8.8 0,-0.5 -0.2,-0.9 -0.3,-1.4 -0.5,-0.1 -0.9,-0.2 -1.2,-0.2 -3.7,0 -7.5,0.1 -11.2,0.1 -0.1,0 -0.3,0.2 -0.4,0.2 -0.4,1.5 -0.5,4.8 -0.3,9 0,0.4 0,0.8 0.5,1.2 0.2,0 0.6,0.1 1,0.1 3.7,0 7.5,-0.1 11.2,-0.1 0.1,0.1 0.3,0 0.4,-0.1 z"
   id="path26" />
	<path
   d="m 419.4,285.3 c -0.5,0.1 -0.8,0.2 -1.1,0.2 -29.6,0 -59.2,0 -88.8,-0.1 -0.2,0 -0.5,-0.1 -0.8,-0.2 -0.1,-0.3 -0.3,-0.7 -0.3,-1 -0.1,-0.6 0,-1.3 0,-1.9 0,-76.1 0,-152.3 0,-228.4 0,-0.9 -0.1,-1.9 0.1,-2.7 0.4,-0.5 0.8,-0.5 1.2,-0.5 0.6,0 1.3,0 1.9,0 28.2,0 56.5,0 84.7,0 1,0 1.9,-0.1 3,0.2 0.1,0.3 0.2,0.7 0.3,1.1 0,0.6 0,1.3 0,1.9 0,76.1 0,152.1 0,228.2 -0.1,0.9 0,2 -0.2,3.2 z M 417.9,52.4 c -0.2,-0.1 -0.5,-0.2 -0.8,-0.2 -0.6,0 -1.3,0 -1.9,0 -27.4,0 -54.9,0 -82.3,0 -0.6,0 -1.3,0 -1.9,0 -0.4,0 -0.7,0.2 -1.1,0.3 0,0.5 -0.1,0.9 -0.1,1.3 0,32 0,64 0,96 0,0.2 0.1,0.5 0.1,0.6 0.5,0.5 1.1,0.5 1.6,0.5 4.8,0 9.6,0 14.4,-0.1 2.4,0 4.8,0 7.2,0 0.5,0 1,0 1.4,0.6 0,0.2 0.1,0.6 0.1,1 0,0.9 0,1.8 0,2.6 0,3.4 0,6.7 0,10.1 0,0.5 -0.1,1.1 0.5,1.6 0.9,0.3 1.9,0.1 2.8,0.1 18.9,0 37.7,0 56.6,0 0.7,0 1.4,0 2.2,0 0.4,0 0.8,0 1.3,-0.4 0,-0.2 0.2,-0.4 0.2,-0.7 0,-0.6 0,-1.3 0,-1.9 0,-33.3 0,-66.7 0,-100 0,-3 0,-6.1 0,-9.1 0.1,-0.8 0.2,-1.5 -0.3,-2.3 z m 0.1,231.4 c 0.5,-1.1 0.3,-2 0.3,-3 0,-22 0,-44 0,-66 0,-0.6 0,-1.3 0,-1.9 0,-0.4 -0.2,-0.7 -0.2,-1.1 -1,-0.4 -2,-0.2 -2.9,-0.2 -22.2,0 -44.3,0 -66.5,0 -1,0 -2.1,0 -3.1,0 -4.7,0 -9.4,0 -14.2,0 -0.5,0 -1,0 -1.4,0.5 -0.3,0.8 -0.2,1.8 -0.2,2.7 0,22 0,44 0,66 0,0.6 0,1.3 0,1.9 0,0.4 0.2,0.7 0.3,1 0.4,0.1 0.6,0.2 0.8,0.2 28.6,0 57.3,0.1 85.9,0.1 0.3,0 0.7,-0.1 1.2,-0.2 z m -0.1,-115.3 c -1,-0.3 -1.8,-0.2 -2.7,-0.2 -27.4,0 -54.7,0 -82.1,0 -0.7,0 -1.4,0 -2.2,0 -0.4,0 -0.7,0.2 -1.2,0.4 0,0.9 0,1.8 0,2.7 0,11.8 0,23.5 0,35.3 0,0.6 0,1.3 0,1.9 0,0.4 0,0.8 0.5,1.2 0.5,0 1.1,0.1 1.7,0.1 5.4,0 10.7,0.1 16.1,0.1 22.2,0 44.5,0 66.7,0 0.7,0 1.4,0 2.2,0 0.4,0 0.7,-0.2 1.1,-0.3 0.3,-0.9 0.2,-1.8 0.2,-2.7 0,-7.4 0,-14.9 0,-22.3 0,-4.6 0,-9.1 0,-13.7 0.1,-0.8 0.2,-1.6 -0.3,-2.5 z m -88,-2.2 c 0.3,0.2 0.5,0.3 0.6,0.3 6.9,0.1 13.7,0.1 20.6,0.2 0.5,0 1.1,-0.1 1.6,-0.1 0.2,-0.2 0.3,-0.3 0.3,-0.5 0,-4.2 0.1,-8.5 0.1,-12.7 0,-0.3 -0.1,-0.6 -0.2,-0.8 -0.8,-0.5 -1.6,-0.3 -2.4,-0.3 -6.2,0 -12.3,0 -18.5,0.1 -0.3,0 -0.6,0 -1,0 -0.4,0.1 -0.7,0.2 -1,0.3 -0.1,0.3 -0.2,0.4 -0.2,0.6 0,3.9 0,7.8 0,11.8 0,0.2 0.1,0.6 0.1,1.1 z"
   id="path28" />
	<path
   d="m 191.4,502.4 c -0.9,0.5 -1.7,0.3 -2.5,0.3 -5.7,0 -11.4,0 -17,0 -22.8,0 -45.6,0 -68.4,0 -1,0 -2.1,0.1 -3.2,-0.2 -0.1,-0.3 -0.3,-0.7 -0.3,-1.1 -0.1,-0.7 0,-1.4 0,-2.2 0,-51.6 0,-103.2 0,-154.8 0,-1 -0.2,-2.1 0.2,-2.9 0.5,-0.5 0.9,-0.5 1.3,-0.5 0.6,0 1.1,0 1.7,0 9.4,0 18.7,0 28.1,0 0.9,0 1.8,-0.2 2.7,0.3 0.7,1.8 -0.1,3.8 0.5,5.7 0.3,0.1 0.7,0.2 1.1,0.3 0.6,0.1 1.1,0 1.7,0 6.2,0 12.5,0 18.7,0 0.8,0 1.6,0.1 2.4,-0.3 0.6,-1.9 -0.1,-3.8 0.5,-5.8 0.5,-0.1 1,-0.2 1.4,-0.2 1.2,0 2.4,0 3.6,0 8.3,0 16.6,0 25,0 0.9,0 1.8,-0.2 2.7,0.3 0.1,0.2 0.2,0.5 0.3,0.8 0,0.7 0,1.4 0,2.2 0,51.8 0,103.5 0,155.3 -0.3,1 -0.2,2 -0.5,2.8 z m -19.7,-77.1 c -1,0.5 -1.9,0.3 -2.7,0.3 -15.4,0 -30.9,0 -46.3,0 -0.6,0 -1.3,0 -1.9,0 -0.3,0 -0.6,-0.2 -0.9,-0.3 -0.7,-1.9 0.2,-3.9 -0.6,-5.6 -0.8,-0.4 -1.7,-0.3 -2.4,-0.3 -4.1,0 -8.2,0 -12.2,0 -0.6,0 -1.3,0 -1.9,0 -0.4,0 -0.7,0.2 -1,0.3 -0.3,1.1 -0.2,2 -0.2,3 0,25 0,50.1 0,75.1 0,0.6 0,1.3 0,1.9 0,0.4 0,0.8 0.5,1.3 0.7,0.3 1.7,0.1 2.6,0.1 27.4,0 54.9,0 82.3,0 0.6,0 1.1,0 1.7,0 0.4,0 0.8,0 1.1,-0.3 0.4,-0.4 0.3,-0.9 0.3,-1.4 0,-2.1 0,-4.2 0,-6.2 0,-23.4 0,-46.9 0,-70.3 0,-0.7 0,-1.4 0,-2.2 0,-0.4 0,-0.8 -0.5,-1.2 -0.2,0 -0.6,-0.1 -1,-0.1 -5,0 -10.1,0 -15.1,0 -0.4,0 -0.8,0.1 -1.2,0.2 -0.7,1.9 -0.1,3.8 -0.6,5.7 z M 158.1,373 c -0.7,-0.6 -1.4,-0.4 -2.1,-0.4 -6.5,0 -13.1,0 -19.6,0 -0.5,0 -1,0 -1.4,0.1 -0.2,0 -0.4,0.2 -0.6,0.3 -0.3,0.8 -0.2,1.6 -0.2,2.4 0,15.3 0,30.5 0,45.8 0,0.6 0,1.1 0,1.7 0,0.4 0.2,0.7 0.3,1.1 0.5,0.1 0.9,0.2 1.3,0.2 7,0 14.1,0 21.1,0 0.1,0 0.2,0 0.2,0 0.4,0 0.8,-0.1 1.2,-0.5 0.3,-0.8 0.1,-1.7 0.1,-2.7 0,-15 0,-30 0,-45 0,-0.6 0,-1.3 0,-1.9 -0.1,-0.6 -0.2,-0.9 -0.3,-1.1 z m 2.1,2.4 c 0.8,0.6 1.7,0.3 2.6,0.3 8.2,0 16.3,0 24.5,0 0.6,0 1.1,0 1.7,0 0.3,0 0.6,-0.2 1,-0.3 0,-0.7 0.1,-1.3 0.1,-1.9 0,-9.1 0,-18.2 0,-27.3 0,-0.7 0,-1.4 0,-2.2 0,-0.4 -0.1,-0.8 -0.5,-1.1 -0.7,-0.3 -1.5,-0.2 -2.3,-0.2 -8.2,0 -16.3,0 -24.5,0 -0.5,0 -1,0 -1.4,0 -0.4,0 -0.7,0.2 -1.2,0.3 -0.1,0.7 -0.1,1.3 -0.2,2 0,2 0,4 0,6 0,7.3 0,14.6 0,21.8 -0.1,0.8 -0.2,1.7 0.2,2.6 z m -27.9,14.5 c -0.7,-0.5 -1.5,-0.4 -2.2,-0.4 -8.8,0 -17.6,0 -26.4,0 -0.3,0 -0.6,0 -1,0 -0.4,0.1 -0.7,0.2 -1.1,0.3 -0.1,0.4 -0.2,0.7 -0.2,1 0,8.6 0,17.1 0,25.7 0,0.4 0.2,0.7 0.2,1.1 0.8,0.4 1.5,0.3 2.2,0.3 3.3,0 6.6,0 9.8,0 1.9,0 3.8,0 5.8,0 0.5,0 1,0 1.4,0.6 0.2,0.7 0.1,1.6 0.1,2.4 0,0.9 -0.1,1.9 0.3,2.9 0.3,0.1 0.6,0.2 0.9,0.2 3,0 5.9,0 8.9,0 0.4,0 0.7,-0.2 1,-0.3 0.4,-1 0.2,-1.9 0.2,-2.7 0,-8.9 0,-17.8 0,-26.6 0,-1.1 0,-2.2 0,-3.4 0.2,-0.4 0.1,-0.8 0.1,-1.1 z m 38.2,28.4 c 1,-0.5 1.8,-0.4 2.6,-0.4 4.6,0 9.1,0 13.7,0 0.7,0 1.4,0 2.2,0 0.3,0 0.6,-0.2 0.9,-0.3 0.3,-0.9 0.2,-1.8 0.2,-2.7 0,-7 0,-13.9 0,-20.9 0,-1 0,-2.1 0,-3.1 0,-0.4 -0.1,-0.8 -0.2,-1.2 -0.7,-0.1 -1.3,-0.2 -2,-0.2 -2.4,0 -4.8,0 -7.2,0 -5.9,0 -11.8,0 -17.8,0 -0.9,0 -1.8,-0.2 -2.6,0.3 -0.5,0.6 -0.3,1.4 -0.3,2.1 0,9.9 0,19.8 0,29.8 0,0.3 0,0.6 0,1 0,0.4 0,0.8 0.4,1.2 0.1,0.1 0.4,0.2 0.6,0.2 2.8,0 5.6,0 8.4,0 0.3,0 0.6,-0.2 0.8,-0.3 0.4,-1.9 -0.1,-3.7 0.3,-5.5 z m -38.4,-75.4 c -1,-0.2 -1.9,-0.2 -2.8,-0.2 -8.3,0 -16.6,0 -24.9,0 -0.6,0 -1.1,0 -1.7,0 -0.4,0 -0.7,0.2 -1.1,0.3 -0.3,0.8 -0.2,1.5 -0.3,2.2 0,2.6 0,5.3 0,7.9 0,2.8 0,5.6 0,8.4 0,0.5 -0.1,1.1 0.5,1.7 0.7,0.2 1.6,0.1 2.4,0.1 8.2,0 16.3,0 24.5,0 0.7,0 1.4,0 2.2,0 0.4,0 0.8,-0.1 1.1,-0.2 0.1,-0.3 0.3,-0.5 0.3,-0.8 0,-6.2 0,-12.5 0,-18.7 0.1,-0.1 0,-0.4 -0.2,-0.7 z m 26,27.9 c 0.1,-0.5 0.2,-0.9 0.2,-1.2 0,-6.4 0,-12.8 0,-19.2 0,-0.1 0,-0.2 0,-0.2 0,-0.4 -0.1,-0.8 -0.7,-1.2 -0.6,0 -1.4,-0.1 -2.2,-0.1 -6.2,0 -12.3,0 -18.5,0 -0.6,0 -1.1,0 -1.7,0 -0.4,0 -0.7,0.2 -1,0.3 -0.4,0.9 -0.3,1.7 -0.3,2.5 0,4.8 0,9.6 0,14.4 0,1.2 0,2.4 0,3.6 0,0.4 0,0.8 0.6,1.2 0.2,0 0.6,0.1 1,0.1 5.8,0.2 20.5,0.1 22.6,-0.2 z m -25.9,4.7 c 0.1,-0.3 0.2,-0.5 0.2,-0.8 0,-3 0,-5.9 0,-8.9 0,-0.2 -0.1,-0.4 -0.2,-0.6 -0.7,-0.5 -1.4,-0.3 -2.1,-0.3 -8.8,0 -17.6,0 -26.4,0 -0.3,0 -0.6,0 -1,0 -0.4,0.1 -0.7,0.2 -1.1,0.3 -0.3,1.5 -0.4,7.6 -0.2,9.7 0,0.2 0.2,0.4 0.3,0.7 0.8,0.3 1.7,0.2 2.6,0.2 7.4,0 14.7,0 22.1,0 1.4,0 2.9,0 4.3,0 0.6,-0.1 1,-0.2 1.5,-0.3 z m -15.5,12.3 c 0.2,-1.9 0.3,-7.8 0.1,-9.8 0,-0.1 -0.2,-0.3 -0.3,-0.5 -0.2,0 -0.5,-0.2 -0.8,-0.2 -4.4,0 -8.8,0 -13.2,0 -0.3,0 -0.6,0.2 -0.9,0.2 -0.1,0.3 -0.2,0.5 -0.2,0.8 0,2.9 0,5.7 0,8.6 0,0.3 0.2,0.6 0.3,0.8 1.8,0.3 9.3,0.4 13.7,0.2 0.5,0 0.9,-0.1 1.3,-0.1 z m 58,-10.3 c -0.2,1.9 -0.3,8 -0.1,9.8 0,0.1 0.2,0.3 0.3,0.5 0.3,0 0.7,0.2 1.1,0.2 4.2,0 8.5,0 12.7,0 0.4,0 0.7,-0.2 1.1,-0.3 0.1,-0.3 0.2,-0.6 0.2,-0.8 0,-2.9 0,-5.8 0,-8.6 0,-0.3 -0.2,-0.6 -0.3,-0.8 -1.7,-0.2 -10.8,-0.4 -14,-0.2 -0.3,0 -0.6,0.1 -1,0.2 z m -42.5,10.3 c 0.1,-0.4 0.2,-0.5 0.2,-0.7 0,-3 0,-5.9 0,-8.9 0,-0.3 -0.2,-0.6 -0.3,-0.8 -1.8,-0.2 -8.2,-0.3 -12.1,-0.2 -0.4,0 -0.8,0.1 -1.3,0.2 -0.1,0.5 -0.2,0.9 -0.3,1.4 -0.2,4.8 -0.1,7.3 0.3,8.8 0.1,0.1 0.3,0.2 0.4,0.2 4,0 8,0.1 12,0.1 0.4,0 0.7,-0.1 1.1,-0.1 z m 28.1,0 c 0.5,0 0.8,0.1 1.2,0.1 3.4,0 6.9,0 10.3,0 0.2,0 0.5,-0.1 0.8,-0.2 0.1,-0.3 0.3,-0.6 0.3,-0.9 0,-2.9 0,-5.8 0,-8.6 0,-0.3 -0.2,-0.6 -0.3,-0.8 -0.3,-0.1 -0.4,-0.2 -0.6,-0.2 -3.7,0 -7.4,0 -11,0 -0.3,0 -0.6,0.2 -0.9,0.3 -0.1,0.5 -0.2,0.8 -0.2,1.2 0,2.8 0,5.6 0.1,8.4 0,0.2 0.2,0.4 0.3,0.7 z"
   id="path30" />
	<path
   d="m 100,48.7 c 0.5,-0.1 0.7,-0.3 0.9,-0.3 29.8,0 59.5,0 89.3,0 0.3,0 0.6,0.1 1,0.2 0.1,0.4 0.2,0.8 0.3,1.1 0,0.7 0,1.4 0,2.2 0,58.5 0,116.9 0,175.4 0,0.7 0,1.4 0,2.2 0,0.3 -0.2,0.6 -0.3,0.9 -0.6,0.1 -1.1,0.1 -1.7,0.2 -1.5,0 -3,0 -4.6,0 -14.8,0 -29.6,0 -44.4,0 -0.8,0 -1.6,0 -2.4,0 -0.3,0 -0.6,0.2 -0.9,0.3 -0.1,0.3 -0.2,0.5 -0.2,0.8 0,7.2 0,14.4 0,21.6 0,0.2 0.1,0.5 0.2,0.8 0.3,0.1 0.7,0.2 1.1,0.3 0.7,0 1.4,0 2.2,0 7.5,0 15,0 22.6,0 0.9,0 1.8,-0.1 2.6,0.1 0.5,0.4 0.5,0.8 0,1.2 -2.3,0.3 -16.1,0.4 -28,0.2 -0.6,0 -1.1,-0.1 -1.8,-0.1 -0.1,-0.4 -0.3,-0.8 -0.3,-1.1 0,-1 0,-1.9 0,-2.9 0,-4.4 0,-8.8 0,-13.2 0,-0.8 0.1,-1.6 -0.2,-2.5 -0.3,-0.1 -0.7,-0.2 -1.1,-0.3 -0.6,-0.1 -1.3,0 -1.9,0 -9.3,0 -18.6,0 -27.8,0 -0.9,0 -1.8,-0.1 -2.7,0.2 -0.1,0.3 -0.3,0.7 -0.3,1 -0.1,0.6 0,1.3 0,1.9 0,4.9 0,9.8 0,14.6 0,0.7 0.2,1.4 -0.4,2.1 -0.3,0 -0.5,0 -0.9,0 -0.1,-0.4 -0.2,-0.7 -0.2,-1 0,-0.7 0,-1.4 0,-2.2 0,-66.8 0,-133.6 0,-200.4 -0.2,-1 -0.3,-2.1 -0.1,-3.3 z m 1.8,1.3 c -0.5,1.1 -0.3,2.1 -0.3,3 0,31.5 0,63 0,94.5 0,0.6 0,1.3 0,1.9 0,0.4 0.1,0.8 0.6,1.2 0.6,0 1.4,0.1 2.2,0.1 3.8,0 7.7,0 11.5,0 3,0 6.1,0 9.1,0 0.5,0 1.1,-0.1 1.7,0.4 0.3,0.5 0.2,1.1 0.2,1.8 0,2.4 0,4.8 0,7.2 0,0.5 0,1 0.5,1.4 0.1,0 0.4,0.2 0.6,0.2 11.9,0 23.8,0 35.7,0 0.2,0 0.5,-0.1 0.8,-0.2 0.1,-0.3 0.2,-0.6 0.2,-0.9 0,-0.7 0,-1.4 0,-2.2 0,-2.1 0,-4.2 0,-6.2 0,-0.5 0,-1 0.7,-1.4 0.7,0 1.6,0 2.4,0 5.9,0 11.8,0 17.8,0 1,0 2.1,0 3.1,0 0.4,0 0.7,-0.2 1.2,-0.3 0.1,-0.6 0.2,-1 0.2,-1.5 0,-1.9 0,-3.8 0,-5.8 0,-30.1 0,-60.1 0,-90.2 0,-0.6 0,-1.3 0,-1.9 0,-0.4 -0.3,-0.7 -0.4,-1 -2.1,-0.2 -58,-0.3 -85.5,-0.2 -0.7,0.1 -1.4,0.1 -2.3,0.1 z m -0.1,118.2 c -0.3,1.1 -0.2,2 -0.2,3 0,19.9 0,39.8 0,59.7 0,0.6 0,1.3 0,1.9 0,0.4 0,0.8 0.5,1.2 0.7,0.2 1.5,0.1 2.4,0.1 9.4,0 18.9,0 28.3,0 0.5,0 1,0 1.4,0 0.4,0 0.8,0 1.3,-0.4 0,-0.2 0.1,-0.6 0.2,-1 0,-0.8 0,-1.6 0,-2.4 0,-0.4 0,-0.8 0.5,-1.2 0.8,-0.3 1.7,-0.1 2.7,-0.1 15.8,0 31.7,0 47.5,0 0.8,0 1.6,0 2.4,0 0.4,0 0.7,-0.2 1.1,-0.3 0.1,-0.6 0.1,-1.2 0.1,-1.7 0,-2.2 0,-4.3 0,-6.5 0,-16.4 0,-32.8 0,-49.2 0,-0.7 0,-1.4 0,-2.2 0,-0.4 -0.2,-0.7 -0.3,-1 -0.9,-0.4 -1.7,-0.2 -2.5,-0.2 -3.7,0 -7.4,0 -11,0 -3.2,0 -6.4,0 -9.6,0 -0.5,0 -1.1,0.1 -1.7,-0.4 -0.6,-1.2 0.3,-2.8 -0.6,-4.1 -0.9,-0.3 -1.8,-0.2 -2.7,-0.2 -10.6,0 -21.1,0 -31.7,0 -0.6,0 -1.3,0 -1.9,0 -0.4,0 -0.7,0.2 -1,0.3 -0.4,1.1 -0.2,2 -0.2,3 0,0.4 0,0.8 -0.5,1.2 -0.7,0.2 -1.6,0.1 -2.4,0.1 -6.5,0 -13,0 -19.4,0 -0.9,0.1 -1.8,-0.1 -2.7,0.4 z m 0,-15.7 c -0.3,1.7 -0.4,8.7 -0.2,12.6 0,0.3 0.1,0.6 0.2,0.8 0.8,0.5 1.6,0.3 2.4,0.3 6.2,0 12.3,0 18.5,0 0.5,0 1,0 1.4,0 0.4,-0.1 0.7,-0.2 1,-0.3 0.1,-0.2 0.1,-0.3 0.1,-0.4 0,-4.1 0.1,-8.2 0.1,-12.2 0,-0.3 -0.2,-0.6 -0.3,-0.8 -0.3,-0.1 -0.6,-0.2 -0.8,-0.2 -7.2,0 -14.4,0 -21.6,0 -0.2,0 -0.4,0.1 -0.8,0.2 z m 64.7,13.5 c 1.1,0.5 2,0.3 2.9,0.3 5.9,0 11.8,0 17.7,0 0.6,0 1.1,0 1.7,0 0.4,0 0.8,0 1.1,-0.4 0.3,-1.6 0.4,-8.1 0.2,-12.2 0,-0.4 -0.1,-0.8 -0.2,-1.2 -0.6,-0.1 -1.1,-0.2 -1.7,-0.2 -2.5,0 -5,0 -7.4,0 -4.1,0 -8.2,0 -12.2,0 -0.6,0 -1.3,-0.1 -1.8,0.3 -0.1,0.2 -0.2,0.3 -0.2,0.4 0,3.9 -0.1,7.8 -0.1,11.7 -0.2,0.4 -0.1,0.8 0,1.3 z"
   id="path32" />
	<path
   d="m 191.9,254.5 c 0.1,0.6 0.2,1 0.2,1.4 0,14.2 -0.1,28.3 -0.1,42.5 0,0.1 -0.1,0.3 -0.3,0.5 -0.4,0.1 -0.8,0.2 -1.3,0.2 -1.9,0 -3.8,0 -5.8,0 -6.6,0 -13.1,0 -19.7,0 -0.9,0 -1.8,0.1 -2.7,-0.2 -0.1,-0.3 -0.1,-0.6 -0.2,-0.8 0.2,-0.2 0.3,-0.3 0.4,-0.3 0.9,-0.1 1.8,-0.1 2.6,-0.1 7.6,0 15.2,0 22.8,0 0.8,0 1.6,0.2 2.3,-0.4 0.1,-0.2 0.2,-0.4 0.2,-0.7 0,-13.2 0,-26.4 0,-39.6 0,-0.2 -0.1,-0.4 -0.2,-0.6 -0.6,-0.5 -1.2,-0.4 -1.9,-0.4 -3.9,0 -7.8,0 -11.8,0 -0.9,0 -1.8,0 -2.6,0 -0.4,0 -0.8,-0.1 -1.2,-0.1 -0.1,-0.4 -0.1,-0.6 -0.2,-0.9 0.2,-0.2 0.3,-0.3 0.4,-0.4 0.6,-0.1 1.1,-0.1 1.7,-0.1 5,0 10.1,0 15.1,0 0.8,-0.2 1.5,-0.1 2.3,0 z"
   id="path34" />
	<text
   transform="translate(128.1377,15.0645)"
   class="st1 st2"
   id="text36">3rd Floor</text>
	<text
   transform="translate(355.9423,15.0643)"
   class="st1 st2"
   id="text38">4th Floor</text>
	<text
   transform="translate(214.952,510.6063)"
   class="st1 st3"
   id="text40">3602</text>
	<text
   transform="translate(214.952,470.016)"
   class="st1 st3"
   id="text42">3608</text>
	<text
   transform="translate(214.952,437.8129)"
   class="st4 st1 st3"
   id="text44">3616</text>
	<text
   transform="translate(214.952,408.9115)"
   class="st4 st1 st3"
   id="text46">3622</text>
	<text
   transform="translate(214.952,385.5142)"
   class="st1 st3"
   id="text48">3626</text>
	<text
   transform="translate(214.952,363.48)"
   class="st1 st3"
   id="text50">3632</text>
	<text
   transform="translate(214.952,266.2141)"
   class="st4 st1 st3"
   id="text52">3650</text>
	<text
   transform="translate(215.352,274.6141)"
   class="st4 st1 st3"
   id="text54">Café</text>
	<text
   transform="translate(214.952,225.9806)"
   class="st1 st3"
   id="text56">3658</text>
	<text
   transform="translate(214.952,202.3413)"
   class="st1 st3"
   id="text58">3662</text>
	<text
   transform="translate(214.952,180.0643)"
   class="st1 st3"
   id="text60">3666</text>
	<text
   transform="translate(214.952,159.6151)"
   class="st1 st3"
   id="text62">3670</text>
	<text
   transform="translate(214.952,81.8383)"
   class="st1 st3"
   id="text64">3686</text>
	<text
   transform="translate(214.952,42.3998)"
   class="st1 st3"
   id="text66">3692</text>
	<text
   transform="translate(61.7851,509.6928)"
   class="st1 st3"
   id="text68">3803</text>
	<text
   transform="translate(61.7851,476.5669)"
   class="st1 st3"
   id="text70">3809</text>
	<text
   transform="translate(61.7851,452.7864)"
   class="st1 st3"
   id="text72">3815</text>
	<text
   transform="translate(61.7851,429.0587)"
   class="st1 st3"
   id="text74">3819</text>
	<text
   transform="translate(61.7851,408.912)"
   class="st1 st3"
   id="text76">3823</text>
	<text
   transform="translate(61.7851,313.9893)"
   class="st4 st1 st3"
   id="text78">3840</text>
	<text
   transform="translate(60.0851,322.3893)"
   class="st4 st1 st3"
   id="text80">Jones</text>
	<text
   transform="translate(51.9851,330.7893)"
   class="st4 st1 st3"
   id="text82">Conference</text>
	<text
   transform="translate(59.9851,339.1893)"
   class="st4 st1 st3"
   id="text84">Room</text>
	<text
   transform="translate(107.9058,355.4802)"
   class="st1 st3"
   id="text86">3828d</text>
	<text
   transform="translate(165.9271,363.4799)"
   class="st1 st3"
   id="text88">3627c</text>
	<text
   transform="translate(139.1263,466.0666)"
   class="st1 st3"
   id="text90">3720</text>
	<text
   transform="translate(128.2263,474.4666)"
   class="st1 st3"
   id="text92">Student Lab</text>
	<text
   transform="translate(108.2526,373.5303)"
   class="st1 st3"
   id="text94">3828c</text>
	<text
   transform="translate(69.7847,287.7304)"
   class="st1 st3"
   id="text96">3850</text>
	<text
   transform="translate(61.7851,254.4144)"
   class="st1 st3"
   id="text98">3853</text>
	<text
   transform="translate(61.7849,217.2956)"
   class="st1 st3"
   id="text100">3859</text>
	<text
   transform="translate(61.7851,186.8336)"
   class="st1 st3"
   id="text102">3865</text>
	<text
   transform="translate(61.7851,153.3304)"
   class="st1 st3"
   id="text104">3871</text>
	<text
   transform="translate(61.7851,132.5775)"
   class="st1 st3"
   id="text106">3877</text>
	<text
   transform="translate(61.7851,109.8719)"
   class="st1 st3"
   id="text108">3883</text>
	<text
   transform="translate(61.7851,80.7723)"
   class="st1 st3"
   id="text110">3887</text>
	<text
   transform="translate(61.7851,41.3995)"
   class="st1 st3"
   id="text112">3893</text>
	<text
   transform="translate(138.1847,78.5053)"
   class="st4 st1 st3"
   id="text114">3780</text>
	<text
   transform="translate(109.6847,86.9053)"
   class="st4 st1 st3"
   id="text116">Evans Conference Room</text>
	<text
   transform="translate(106.9822,161.8106)"
   class="st1 st3"
   id="text118">3872</text>
	<text
   transform="translate(169.4344,161.8105)"
   class="st1 st3"
   id="text120">3760a</text>
	<text
   transform="translate(138.1845,195.9858)"
   class="st1 st3"
   id="text122">3760</text>
	<text
   transform="translate(127.2845,204.3858)"
   class="st1 st3"
   id="text124">Student Lab</text>
	<text
   transform="translate(149.7818,274.9335)"
   class="st1 st3"
   id="text126">3750</text>
	<text
   transform="translate(141.8818,283.3335)"
   class="st1 st3"
   id="text128">Reception</text>
	<text
   transform="translate(108.6943,286.3921)"
   class="st1 st3"
   id="text130">3750</text>
	<text
   transform="translate(108.1833,247.5234)"
   class="st1 st3"
   id="text132">3750b</text>
	<text
   transform="translate(153.3312,245.5233)"
   class="st1 st3"
   id="text134">Kitchen</text>
	<text
   transform="translate(442.2767,508.9301)"
   class="st1 st3"
   id="text136">4602</text>
	<text
   transform="translate(442.2767,473.4901)"
   class="st1 st3"
   id="text138">4608</text>
	<text
   transform="translate(442.2767,437.2867)"
   class="st1 st3"
   id="text140">4616</text>
	<text
   transform="translate(442.2767,401.8305)"
   class="st1 st3"
   id="text142">4622</text>
	<text
   transform="translate(442.2767,369.1835)"
   class="st1 st3"
   id="text144">4628</text>
	<text
   transform="translate(442.2762,314.9931)"
   class="st4 st1 st3"
   id="text146">4640</text>
	<text
   transform="translate(434.3762,323.3931)"
   class="st4 st1 st3"
   id="text148">Halvorsen</text>
	<text
   transform="translate(432.4762,331.7931)"
   class="st4 st1 st3"
   id="text150">Conference</text>
	<text
   transform="translate(440.4762,340.1931)"
   class="st4 st1 st3"
   id="text152">Room</text>
	<text
   transform="translate(442.2767,291.0961)"
   class="st1 st3"
   id="text154">4646</text>
	<text
   transform="translate(442.2767,253.2298)"
   class="st1 st3"
   id="text156">4652</text>
	<text
   transform="translate(442.2767,218.8793)"
   class="st1 st3"
   id="text158">4660</text>
	<text
   transform="translate(442.2767,185.6493)"
   class="st1 st3"
   id="text160">4666</text>
	<text
   transform="translate(442.2767,158.115)"
   class="st1 st3"
   id="text162">4672</text>
	<text
   transform="translate(442.2767,79.588)"
   class="st1 st3"
   id="text164">4686</text>
	<text
   transform="translate(9.3808,465.8629)"
   class="st1 st3"
   id="text166">South</text>
	<text
   transform="translate(442.2767,42.3521)"
   class="st1 st3"
   id="text168">4692</text>
	<text
   transform="translate(290.0984,507.1354)"
   class="st1 st3"
   id="text170">4803</text>
	<text
   transform="translate(290.0984,475.3815)"
   class="st1 st3"
   id="text172">4809</text>
	<text
   transform="translate(290.0984,430.6003)"
   class="st1 st3"
   id="text174">4819</text>
	<text
   transform="translate(290.0984,454.7155)"
   class="st1 st3"
   id="text176">4815</text>
	<text
   transform="translate(290.0984,410.3815)"
   class="st1 st3"
   id="text178">4823</text>
	<text
   transform="translate(336.025,356.2954)"
   class="st1 st3"
   id="text180">4828d</text>
	<text
   transform="translate(394.8536,361.2953)"
   class="st1 st3"
   id="text182">4627c</text>
	<text
   transform="translate(366.0939,464.8815)"
   class="st1 st3"
   id="text184">4720</text>
	<text
   transform="translate(355.1939,473.2815)"
   class="st1 st3"
   id="text186">Student Lab</text>
	<text
   transform="translate(336.1192,373.2954)"
   class="st1 st3"
   id="text188">4828c</text>
	<text
   transform="translate(4.4004,45.7152)"
   class="st1 st3"
   id="text190">Elevators</text>
	<text
   transform="translate(9.6748,83.5058)"
   class="st1 st3"
   id="text192">Stairs</text>
	<text
   transform="translate(1.7502,139.7459)"
   class="st1 st3"
   id="text194">Restrooms</text>
	<text
   transform="translate(286.1574,326.8039)"
   class="st4 st1 st3"
   id="text196">Lounge</text>
	<text
   transform="translate(211.8373,323.1787)"
   class="st1 st3"
   id="text198">Lounge</text>
	<text
   transform="translate(290.0983,293.0964)"
   class="st1 st3"
   id="text200">4847</text>
	<text
   transform="translate(290.0983,249.4304)"
   class="st1 st3"
   id="text202">4855</text>
	<text
   transform="translate(290.0983,271.0964)"
   class="st1 st3"
   id="text204">4851</text>
	<text
   transform="translate(290.0983,225.7624)"
   class="st1 st3"
   id="text206">4859</text>
	<text
   transform="translate(290.0982,180.2956)"
   class="st1 st3"
   id="text208">4867</text>
	<text
   transform="translate(290.0982,202.9636)"
   class="st1 st3"
   id="text210">4863</text>
	<text
   transform="translate(290.0982,156.4304)"
   class="st1 st3"
   id="text212">4871</text>
	<text
   transform="translate(290.0982,134.4304)"
   class="st1 st3"
   id="text214">4877</text>
	<text
   transform="translate(290.0982,112.1765)"
   class="st1 st3"
   id="text216">4883</text>
	<text
   transform="translate(290.0981,82.0964)"
   class="st1 st3"
   id="text218">4887</text>
	<text
   transform="translate(290.0981,44.4304)"
   class="st1 st3"
   id="text220">4893</text>
	<text
   transform="translate(365.8993,104.4577)"
   class="st1 st3"
   id="text222">4780</text>
	<text
   transform="translate(334.4804,162.0963)"
   class="st1 st3"
   id="text224">4872</text>
	<text
   transform="translate(366.538,186.7954)"
   class="st4 st1 st3"
   id="text226">4760</text>
	<text
   transform="translate(359.638,195.1954)"
   class="st4 st1 st3"
   id="text228">Coon Lab</text>
	<text
   transform="translate(366.0939,248.4538)"
   class="st1 st3"
   id="text230">4750</text>
	<text
   transform="translate(355.1939,256.8538)"
   class="st1 st3"
   id="text232">Student Lab</text>
	<g
   id="g242">
		<g
   id="g240">
			<line
   class="st5"
   x1="18.1"
   y1="453.70001"
   x2="18.1"
   y2="435.10001"
   id="line234" />
			<g
   id="g238">
				<path
   d="m 18.1,429.1 c 1.1,2.8 2.9,6.4 4.8,8.5 l -4.8,-1.7 -4.8,1.7 c 2,-2.2 3.8,-5.7 4.8,-8.5 z"
   id="path236" />
			</g>
		</g>
	</g>
	<text
   transform="translate(9.6747,493.6188)"
   class="st1 st3"
   id="text244">North</text>
	<g
   id="g254">
		<g
   id="g252">
			<line
   class="st5"
   x1="18.1"
   y1="502.29999"
   x2="18.1"
   y2="520.79999"
   id="line246" />
			<g
   id="g250">
				<path
   d="m 18.1,526.9 c -1.1,-2.8 -2.9,-6.4 -4.8,-8.5 l 4.8,1.7 4.8,-1.7 c -1.9,2.1 -3.7,5.6 -4.8,8.5 z"
   id="path248" />
			</g>
		</g>
	</g>
	<g
   id="Elevator4">
		<path
   d="m 373.2,356 c 1.7,0 3.3,0 5,0 0.8,0 1.5,0.2 2.1,0.7 0.4,0.4 0.9,0.8 1.1,1.4 0.2,0.5 0.4,1.1 0.3,1.7 0,1.3 0,2.7 0,4 0,0.6 -0.2,1.2 -0.5,1.8 0,0.1 -0.1,0.2 -0.2,0.2 -0.2,0.2 -0.4,0.5 -0.6,0.7 -0.3,0.3 -0.7,0.5 -1.1,0.7 -0.5,0.2 -1,0.3 -1.6,0.3 -3.1,0 -6.2,0 -9.2,0 -0.5,0 -0.9,-0.1 -1.4,-0.2 -0.5,-0.1 -0.8,-0.4 -1.2,-0.7 -0.2,-0.2 -0.5,-0.4 -0.7,-0.6 -0.2,-0.2 -0.3,-0.6 -0.4,-0.9 -0.2,-0.5 -0.2,-1.1 -0.2,-1.6 0,-1.3 0,-2.6 0,-3.9 0,-0.7 0.2,-1.3 0.6,-1.9 0.3,-0.4 0.7,-0.7 1.1,-1 0.6,-0.4 1.2,-0.6 1.9,-0.6 1.8,-0.1 3.4,-0.1 5,-0.1 z m 0.1,10.1 v 0 c 1.7,0 3.3,0 5,0 0.4,0 0.8,-0.1 1.2,-0.4 0.7,-0.5 1.1,-1.1 1.1,-2 0,-1.3 0,-2.6 0,-4 0,-0.3 -0.1,-0.6 -0.2,-0.9 -0.4,-0.9 -1.2,-1.5 -2.1,-1.5 -3.3,0 -6.5,0 -9.8,0 -0.3,0 -0.6,0.1 -0.9,0.2 -0.5,0.1 -0.8,0.5 -1,0.9 -0.2,0.4 -0.4,0.8 -0.4,1.3 0,1.3 0,2.6 0,3.9 0,0.8 0.4,1.4 0.9,2 0.1,0.1 0.2,0.2 0.3,0.2 0.4,0.1 0.7,0.3 1.1,0.3 1.5,0 3.1,0 4.8,0 z"
   id="path256" />
		<path
   d="m 375.5,353.1 c 0,-0.5 0,-0.9 0,-1.3 0,-0.3 0,-0.6 0,-0.9 0,-0.3 0.3,-0.6 0.6,-0.6 0.4,0 0.6,0.2 0.6,0.6 0,0.7 0,1.4 0,2.2 0.2,-0.1 0.4,-0.3 0.5,-0.5 0.1,-0.1 0.1,-0.1 0.1,-0.2 0.2,-0.2 0.4,-0.2 0.6,-0.2 0.3,0.1 0.4,0.3 0.4,0.6 0,0.2 0,0.4 -0.2,0.5 -0.2,0.2 -0.5,0.4 -0.7,0.6 -0.1,0.1 -0.3,0.3 -0.4,0.4 -0.2,0.2 -0.4,0.4 -0.6,0.6 -0.3,0.3 -0.6,0.2 -0.9,0 -0.2,-0.2 -0.4,-0.4 -0.6,-0.6 -0.4,-0.4 -0.7,-0.7 -1.1,-1.1 -0.3,-0.3 -0.2,-0.6 0.1,-0.9 0.2,-0.2 0.5,-0.2 0.7,0 0.1,0.1 0.1,0.1 0.2,0.2 0.3,0.2 0.5,0.4 0.7,0.6 z"
   id="path258" />
		<path
   d="m 371,352.4 c 0,0.7 0,1.4 0,2.1 0,0.1 0,0.3 -0.1,0.4 -0.1,0.2 -0.4,0.3 -0.6,0.3 -0.2,0 -0.4,-0.3 -0.4,-0.5 0,-0.6 0,-1.2 0,-1.8 0,-0.2 0,-0.3 0,-0.5 -0.2,0.2 -0.4,0.4 -0.6,0.6 l -0.1,0.1 c -0.3,0.3 -0.5,0.3 -0.8,0 -0.2,-0.2 -0.2,-0.6 0,-0.9 0.6,-0.6 1.1,-1.1 1.7,-1.7 0.2,-0.2 0.6,-0.2 0.8,0 0.3,0.3 0.5,0.5 0.8,0.8 0.2,0.2 0.3,0.4 0.4,0.5 0.1,0.1 0.2,0.2 0.3,0.3 0.3,0.2 0.3,0.4 0.2,0.6 0,0.3 -0.3,0.4 -0.5,0.5 -0.1,0 -0.3,-0.1 -0.4,-0.2 -0.2,-0.2 -0.4,-0.4 -0.7,-0.6 0.2,0.1 0.1,0.1 0,0 z"
   id="path260" />
		<path
   d="m 372.2,361.9 c 0,0 -0.1,0 -0.1,0.1 -0.2,0.1 -0.3,0 -0.3,-0.2 0,-0.2 0.1,-0.5 0.1,-0.7 0.1,-0.3 0.2,-0.6 0.3,-0.9 0.1,-0.3 0.3,-0.4 0.6,-0.4 0.3,0 0.6,0 0.9,0 0.3,0 0.5,0.1 0.6,0.4 0.2,0.5 0.4,1.1 0.5,1.6 0,0.1 0,0.2 -0.1,0.2 -0.1,0.1 -0.2,0.1 -0.3,0 0,0 0,-0.1 -0.1,-0.1 v 0.1 c 0.1,0.3 0.2,0.6 0.3,0.9 -0.2,0 -0.4,0 -0.6,0 -0.1,0 -0.1,0.1 -0.1,0.2 0,0.4 0,0.9 0,1.3 0,0.1 -0.1,0.3 -0.1,0.4 -0.1,0.1 -0.2,0.1 -0.3,0 -0.1,-0.1 -0.1,-0.2 -0.1,-0.3 0,-0.4 0,-0.7 0,-1.1 0,-0.2 0,-0.3 0,-0.5 -0.1,0.3 0,0.6 0,0.9 0,0.3 0,0.5 0,0.8 0,0.2 -0.2,0.3 -0.3,0.3 -0.1,0 -0.2,-0.1 -0.3,-0.3 0,-0.4 0,-0.9 0,-1.3 0,-0.4 0,-0.4 -0.4,-0.4 h -0.1 c -0.2,0 -0.2,-0.1 -0.2,-0.2 0,-0.1 0.1,-0.3 0.1,-0.4 0,-0.2 0,-0.3 0,-0.4 0.1,-0.2 0.2,-0.4 0.2,-0.7 0.1,-0.1 0.2,-0.3 0.2,-0.6 -0.2,0.2 -0.2,0.4 -0.2,0.6 -0.2,0.2 -0.2,0.5 -0.2,0.7 z"
   id="path262" />
		<path
   d="m 377.5,360.6 c 0,0.6 0,1.1 0,1.7 0,0.7 0,1.4 0,2 0,0.1 0,0.3 -0.1,0.4 -0.1,0.1 -0.2,0.1 -0.3,0.1 -0.1,0 -0.1,-0.1 -0.2,-0.2 0,-0.1 0,-0.2 0,-0.3 0,-0.5 0,-1.1 0,-1.6 0,-0.1 0,-0.2 0,-0.3 0,0 0,0 -0.1,0 h -0.1 c 0,0.1 0,0.2 0,0.3 0,0.6 0,1.2 0,1.8 0,0.3 -0.2,0.4 -0.4,0.3 -0.1,-0.1 -0.2,-0.2 -0.3,-0.3 0,-0.1 0,-0.2 0,-0.3 0,-1.1 0,-2.2 0,-3.2 0,-0.1 0,-0.2 -0.1,-0.4 0,0.1 0,0.2 0,0.3 0,0.4 0,0.7 0,1.1 0,0.2 -0.1,0.3 -0.3,0.3 -0.2,0 -0.3,-0.1 -0.3,-0.3 0,-0.5 0,-1.1 0,-1.6 0,-0.1 0,-0.2 0.1,-0.3 0.1,-0.3 0.3,-0.4 0.6,-0.4 0.4,0 0.9,0 1.3,0 0.4,0 0.6,0.2 0.7,0.6 0,0.6 0,1.1 0,1.7 0,0.2 -0.1,0.3 -0.3,0.3 -0.2,0 -0.3,-0.1 -0.3,-0.2 0,-0.1 0,-0.2 0,-0.3 0.2,-0.4 0.2,-0.8 0.1,-1.2 0.1,0 0,0 0,0 z"
   id="path264" />
		<path
   d="m 368.9,360.6 c 0,0.4 0,0.7 0,1.1 0,0.1 0,0.2 0,0.3 0,0.2 -0.1,0.3 -0.3,0.3 -0.2,0 -0.1,-0.2 -0.1,-0.3 0,-0.6 0,-1.2 0,-1.8 0,-0.4 0.1,-0.5 0.5,-0.5 0.5,0 0.9,0 1.4,0 0.4,0 0.6,0.2 0.6,0.6 0,0.5 0,1.1 0,1.6 0,0.2 -0.1,0.3 -0.2,0.3 -0.2,0 -0.3,-0.1 -0.3,-0.3 0,-0.4 0,-0.7 0,-1.1 0,-0.1 0,-0.2 -0.1,-0.3 0,0.1 0,0.2 0,0.3 0,1.1 0,2.2 0,3.3 0,0.1 0,0.3 0,0.4 0,0.1 -0.1,0.3 -0.3,0.3 -0.2,0 -0.3,-0.1 -0.3,-0.3 0,-0.1 0,-0.2 0,-0.4 0,-0.6 0,-1.2 -0.1,-1.8 0,0.1 0,0.2 0,0.3 0,0.5 0,1.1 0,1.6 0,0.1 0,0.2 -0.1,0.4 -0.1,0.2 -0.2,0.3 -0.3,0.2 -0.2,0 -0.3,-0.1 -0.3,-0.3 0,-0.1 0,-0.2 0,-0.3 0,-1.1 0,-2.3 0,-3.4 0,0 0,-0.1 -0.1,-0.2 z"
   id="path266" />
		<path
   d="m 369.1,359.1 c 0,-0.3 0.3,-0.5 0.6,-0.5 0.3,0 0.5,0.3 0.5,0.6 0,0.3 -0.3,0.5 -0.6,0.5 -0.2,0 -0.5,-0.3 -0.5,-0.6 z"
   id="path268" />
		<path
   d="m 373.8,359.1 c 0,0.3 -0.2,0.6 -0.5,0.6 -0.2,0 -0.6,-0.3 -0.6,-0.5 0,-0.2 0.3,-0.6 0.6,-0.6 0.3,0 0.5,0.2 0.5,0.5 z"
   id="path270" />
		<path
   d="m 376.9,358.6 c 0.2,0 0.5,0.3 0.5,0.5 0,0.3 -0.2,0.6 -0.5,0.6 -0.3,0 -0.5,-0.3 -0.5,-0.6 -0.1,-0.3 0.2,-0.5 0.5,-0.5 z"
   id="path272" />
	</g>
	<g
   id="Elevator3">
		<path
   d="m 146.3,356.6 c 1.7,0 3.3,0 5,0 0.8,0 1.5,0.2 2.1,0.7 0.4,0.4 0.9,0.8 1.1,1.4 0.2,0.5 0.4,1.1 0.3,1.7 0,1.3 0,2.7 0,4 0,0.6 -0.2,1.2 -0.5,1.8 0,0.1 -0.1,0.2 -0.2,0.2 -0.2,0.2 -0.4,0.5 -0.6,0.7 -0.3,0.3 -0.7,0.5 -1.1,0.7 -0.5,0.2 -1,0.3 -1.6,0.3 -3.1,0 -6.2,0 -9.2,0 -0.5,0 -0.9,-0.1 -1.4,-0.2 -0.5,-0.1 -0.8,-0.4 -1.2,-0.7 -0.2,-0.2 -0.5,-0.4 -0.7,-0.6 -0.2,-0.2 -0.3,-0.6 -0.4,-0.9 -0.2,-0.5 -0.2,-1.1 -0.2,-1.6 0,-1.3 0,-2.6 0,-3.9 0,-0.7 0.2,-1.3 0.6,-1.9 0.3,-0.4 0.7,-0.7 1.1,-1 0.6,-0.4 1.2,-0.6 1.9,-0.6 1.7,-0.1 3.3,-0.1 5,-0.1 z m 0,10 v 0 c 1.7,0 3.3,0 5,0 0.4,0 0.8,-0.1 1.2,-0.4 0.7,-0.5 1.1,-1.1 1.1,-2 0,-1.3 0,-2.6 0,-4 0,-0.3 -0.1,-0.6 -0.2,-0.9 -0.4,-0.9 -1.2,-1.5 -2.1,-1.5 -3.3,0 -6.5,0 -9.8,0 -0.3,0 -0.6,0.1 -0.9,0.2 -0.5,0.1 -0.8,0.5 -1,0.9 -0.2,0.4 -0.4,0.8 -0.4,1.3 0,1.3 0,2.6 0,3.9 0,0.8 0.4,1.4 0.9,2 0.1,0.1 0.2,0.2 0.3,0.2 0.4,0.1 0.7,0.3 1.1,0.3 1.5,0 3.2,0 4.8,0 z"
   id="path275" />
		<path
   d="m 148.5,353.7 c 0,-0.5 0,-0.9 0,-1.3 0,-0.3 0,-0.6 0,-0.9 0,-0.3 0.3,-0.6 0.6,-0.6 0.4,0 0.6,0.2 0.6,0.6 0,0.7 0,1.4 0,2.2 0.2,-0.1 0.4,-0.3 0.5,-0.5 0.1,-0.1 0.1,-0.1 0.1,-0.2 0.2,-0.2 0.4,-0.2 0.6,-0.2 0.3,0.1 0.4,0.3 0.4,0.6 0,0.2 0,0.4 -0.2,0.5 -0.2,0.2 -0.5,0.4 -0.7,0.6 -0.1,0.1 -0.3,0.3 -0.4,0.4 -0.2,0.2 -0.4,0.4 -0.6,0.6 -0.3,0.3 -0.6,0.2 -0.9,0 -0.2,-0.2 -0.4,-0.4 -0.6,-0.6 -0.4,-0.4 -0.7,-0.7 -1.1,-1.1 -0.3,-0.3 -0.2,-0.6 0.1,-0.9 0.2,-0.2 0.5,-0.2 0.7,0 0.1,0.1 0.1,0.1 0.2,0.2 0.3,0.2 0.5,0.3 0.7,0.6 z"
   id="path277" />
		<path
   d="m 144,353 c 0,0.7 0,1.4 0,2.1 0,0.1 0,0.3 -0.1,0.4 -0.1,0.2 -0.4,0.3 -0.6,0.3 -0.2,0 -0.4,-0.3 -0.4,-0.5 0,-0.6 0,-1.2 0,-1.8 0,-0.2 0,-0.3 0,-0.5 -0.2,0.2 -0.4,0.4 -0.6,0.6 l -0.1,0.1 c -0.3,0.3 -0.5,0.3 -0.8,0 -0.2,-0.2 -0.2,-0.6 0,-0.9 0.6,-0.6 1.1,-1.1 1.7,-1.7 0.2,-0.2 0.6,-0.2 0.8,0 0.3,0.3 0.5,0.5 0.8,0.8 0.2,0.2 0.3,0.4 0.4,0.5 0.1,0.1 0.2,0.2 0.3,0.3 0.3,0.2 0.3,0.4 0.2,0.6 0,0.3 -0.3,0.4 -0.5,0.5 -0.1,0 -0.3,-0.1 -0.4,-0.2 -0.2,-0.2 -0.4,-0.4 -0.7,-0.6 0.2,0.1 0.1,0.1 0,0 z"
   id="path279" />
		<path
   d="m 145.2,362.5 c 0,0 -0.1,0 -0.1,0.1 -0.2,0.1 -0.3,0 -0.3,-0.2 0,-0.2 0.1,-0.5 0.1,-0.7 0.1,-0.3 0.2,-0.6 0.3,-0.9 0.1,-0.3 0.3,-0.4 0.6,-0.4 0.3,0 0.6,0 0.9,0 0.3,0 0.5,0.1 0.6,0.4 0.2,0.5 0.4,1.1 0.5,1.6 0,0.1 0,0.2 -0.1,0.2 -0.1,0.1 -0.2,0.1 -0.3,0 0,0 0,-0.1 -0.1,-0.1 v 0.1 c 0.1,0.3 0.2,0.6 0.3,0.9 -0.2,0 -0.4,0 -0.6,0 -0.1,0 -0.1,0.1 -0.1,0.2 0,0.4 0,0.9 0,1.3 0,0.1 -0.1,0.3 -0.1,0.4 -0.1,0.1 -0.2,0.1 -0.3,0 -0.1,-0.1 -0.1,-0.2 -0.1,-0.3 0,-0.4 0,-0.7 0,-1.1 0,-0.2 0,-0.3 0,-0.5 -0.1,0.3 0,0.6 0,0.9 0,0.3 0,0.5 0,0.8 0,0.2 -0.2,0.3 -0.3,0.3 -0.1,0 -0.2,-0.1 -0.3,-0.3 0,-0.4 0,-0.9 0,-1.3 0,-0.4 0,-0.4 -0.4,-0.4 h -0.1 c -0.2,0 -0.2,-0.1 -0.2,-0.2 0,-0.1 0.1,-0.3 0.1,-0.4 0,-0.3 0,-0.4 0,-0.4 0.1,-0.2 0.2,-0.4 0.2,-0.7 0.1,-0.1 0.2,-0.3 0.2,-0.6 -0.2,0.2 -0.2,0.4 -0.2,0.6 -0.1,0.2 -0.2,0.4 -0.2,0.7 z"
   id="path281" />
		<path
   d="m 150.5,361.2 c 0,0.6 0,1.1 0,1.7 0,0.7 0,1.4 0,2 0,0.1 0,0.3 -0.1,0.4 -0.1,0.1 -0.2,0.1 -0.3,0.1 -0.1,0 -0.1,-0.1 -0.2,-0.2 0,-0.1 0,-0.2 0,-0.3 0,-0.5 0,-1.1 0,-1.6 0,-0.1 0,-0.2 0,-0.3 0,0 0,0 -0.1,0 h -0.1 c 0,0.1 0,0.2 0,0.3 0,0.6 0,1.2 0,1.8 0,0.3 -0.2,0.4 -0.4,0.3 -0.1,-0.1 -0.2,-0.2 -0.3,-0.3 0,-0.1 0,-0.2 0,-0.3 0,-1.1 0,-2.2 0,-3.2 0,-0.1 0,-0.2 -0.1,-0.4 0,0.1 0,0.2 0,0.3 0,0.4 0,0.7 0,1.1 0,0.2 -0.1,0.3 -0.3,0.3 -0.2,0 -0.3,-0.1 -0.3,-0.3 0,-0.5 0,-1.1 0,-1.6 0,-0.1 0,-0.2 0.1,-0.3 0.1,-0.3 0.3,-0.4 0.6,-0.4 0.4,0 0.9,0 1.3,0 0.4,0 0.6,0.2 0.7,0.6 0,0.6 0,1.1 0,1.7 0,0.2 -0.1,0.3 -0.3,0.3 -0.2,0 -0.3,-0.1 -0.3,-0.2 0,-0.1 0,-0.2 0,-0.3 0.2,-0.5 0.2,-0.8 0.1,-1.2 0.1,0 0.1,0 0,0 z"
   id="path283" />
		<path
   d="m 141.9,361.2 c 0,0.4 0,0.7 0,1.1 0,0.1 0,0.2 0,0.3 0,0.2 -0.1,0.3 -0.3,0.3 -0.2,0 -0.1,-0.2 -0.1,-0.3 0,-0.6 0,-1.2 0,-1.8 0,-0.4 0.1,-0.5 0.5,-0.5 0.5,0 0.9,0 1.4,0 0.4,0 0.6,0.2 0.6,0.6 0,0.5 0,1.1 0,1.6 0,0.2 -0.1,0.3 -0.2,0.3 -0.2,0 -0.3,-0.1 -0.3,-0.3 0,-0.4 0,-0.7 0,-1.1 0,-0.1 0,-0.2 -0.1,-0.3 0,0.1 0,0.2 0,0.3 0,1.1 0,2.2 0,3.3 0,0.1 0,0.3 0,0.4 0,0.1 -0.1,0.3 -0.3,0.3 -0.2,0 -0.3,-0.1 -0.3,-0.3 0,-0.1 0,-0.2 0,-0.4 0,-0.6 0,-1.2 -0.1,-1.8 0,0.1 0,0.2 0,0.3 0,0.5 0,1.1 0,1.6 0,0.1 0,0.2 -0.1,0.4 -0.1,0.2 -0.2,0.3 -0.3,0.2 -0.2,0 -0.3,-0.1 -0.3,-0.3 0,-0.1 0,-0.2 0,-0.3 0,-1.1 0,-2.3 0,-3.4 0,-0.1 0,-0.1 -0.1,-0.2 0.1,0 0,0 0,0 z"
   id="path285" />
		<path
   d="m 142.2,359.6 c 0,-0.3 0.3,-0.5 0.6,-0.5 0.3,0 0.5,0.3 0.5,0.6 0,0.3 -0.3,0.5 -0.6,0.5 -0.3,0 -0.5,-0.3 -0.5,-0.6 z"
   id="path287" />
		<path
   d="m 146.8,359.6 c 0,0.3 -0.2,0.6 -0.5,0.6 -0.2,0 -0.6,-0.3 -0.6,-0.5 0,-0.2 0.3,-0.6 0.6,-0.6 0.3,0 0.5,0.3 0.5,0.5 z"
   id="path289" />
		<path
   d="m 149.9,359.1 c 0.2,0 0.5,0.3 0.5,0.5 0,0.3 -0.2,0.6 -0.5,0.6 -0.3,0 -0.5,-0.3 -0.5,-0.6 -0.1,-0.2 0.2,-0.5 0.5,-0.5 z"
   id="path291" />
	</g>
	<g
   id="Elevator">
		<path
   d="m 18.1,24.3 c 1.7,0 3.3,0 5,0 0.8,0 1.5,0.2 2.1,0.7 0.4,0.4 0.9,0.8 1.1,1.4 0.2,0.5 0.4,1.1 0.3,1.7 0,1.3 0,2.7 0,4 0,0.6 -0.2,1.2 -0.5,1.8 0,0.1 -0.1,0.2 -0.2,0.2 -0.2,0.2 -0.4,0.5 -0.6,0.7 -0.3,0.3 -0.7,0.5 -1.1,0.7 -0.5,0.2 -1,0.3 -1.6,0.3 -3.1,0 -6.2,0 -9.2,0 -0.5,0 -0.9,-0.1 -1.4,-0.2 C 11.5,35.5 11.2,35.2 10.8,34.9 10.6,34.7 10.3,34.5 10.1,34.3 9.9,34.1 9.8,33.7 9.7,33.4 9.5,32.9 9.5,32.3 9.5,31.8 c 0,-1.3 0,-2.6 0,-3.9 0,-0.7 0.2,-1.3 0.6,-1.9 0.3,-0.4 0.7,-0.7 1.1,-1 0.6,-0.4 1.2,-0.6 1.9,-0.6 1.7,-0.1 3.3,-0.1 5,-0.1 z m 0,10 v 0 c 1.7,0 3.3,0 5,0 0.4,0 0.8,-0.1 1.2,-0.4 0.7,-0.5 1.1,-1.1 1.1,-2 0,-1.3 0,-2.6 0,-4 0,-0.3 -0.1,-0.6 -0.2,-0.9 -0.4,-0.9 -1.2,-1.5 -2.1,-1.5 -3.3,0 -6.5,0 -9.8,0 -0.3,0 -0.6,0.1 -0.9,0.2 -0.5,0.1 -0.8,0.5 -1,0.9 -0.2,0.4 -0.4,0.8 -0.4,1.3 0,1.3 0,2.6 0,3.9 0,0.8 0.4,1.4 0.9,2 0.1,0.1 0.2,0.2 0.3,0.2 0.4,0.1 0.7,0.3 1.1,0.3 1.5,0 3.2,0 4.8,0 z"
   id="path294" />
		<path
   d="m 20.3,21.4 c 0,-0.5 0,-0.9 0,-1.3 0,-0.3 0,-0.6 0,-0.9 0,-0.3 0.3,-0.6 0.6,-0.6 0.4,0 0.6,0.2 0.6,0.6 0,0.7 0,1.4 0,2.2 0.2,-0.1 0.4,-0.3 0.5,-0.5 0.1,-0.1 0.1,-0.1 0.1,-0.2 0.2,-0.2 0.4,-0.2 0.6,-0.2 0.3,0.1 0.4,0.3 0.4,0.6 0,0.2 0,0.4 -0.2,0.5 -0.2,0.2 -0.5,0.4 -0.7,0.6 -0.1,0.1 -0.3,0.3 -0.4,0.4 -0.2,0.2 -0.4,0.4 -0.6,0.6 -0.3,0.3 -0.6,0.2 -0.9,0 -0.2,-0.2 -0.4,-0.4 -0.6,-0.6 -0.4,-0.4 -0.7,-0.7 -1.1,-1.1 -0.3,-0.3 -0.2,-0.6 0.1,-0.9 0.2,-0.2 0.5,-0.2 0.7,0 0.1,0.1 0.1,0.1 0.2,0.2 0.3,0.2 0.5,0.3 0.7,0.6 z"
   id="path296" />
		<path
   d="m 15.8,20.6 c 0,0.7 0,1.4 0,2.1 0,0.1 0,0.3 -0.1,0.4 -0.1,0.2 -0.4,0.3 -0.6,0.3 -0.2,0 -0.4,-0.3 -0.4,-0.5 0,-0.6 0,-1.2 0,-1.8 0,-0.2 0,-0.3 0,-0.5 -0.2,0.2 -0.4,0.4 -0.6,0.6 L 14,21.3 c -0.3,0.3 -0.5,0.3 -0.8,0 -0.2,-0.2 -0.2,-0.6 0,-0.9 0.6,-0.6 1.1,-1.1 1.7,-1.7 0.2,-0.2 0.6,-0.2 0.8,0 0.3,0.3 0.5,0.5 0.8,0.8 0.2,0.2 0.3,0.4 0.4,0.5 0.1,0.1 0.2,0.2 0.3,0.3 0.3,0.2 0.3,0.4 0.2,0.6 0,0.3 -0.3,0.4 -0.5,0.5 -0.1,0 -0.3,-0.1 -0.4,-0.2 -0.2,-0.2 -0.4,-0.4 -0.7,-0.6 0.2,0.2 0.2,0.1 0,0 z"
   id="path298" />
		<path
   d="m 17.1,30.2 c 0,0 -0.1,0 -0.1,0.1 -0.2,0.1 -0.3,0 -0.3,-0.2 0,-0.2 0.1,-0.5 0.1,-0.7 0.1,-0.3 0.2,-0.6 0.3,-0.9 0.1,-0.3 0.3,-0.4 0.6,-0.4 0.3,0 0.6,0 0.9,0 0.3,0 0.5,0.1 0.6,0.4 0.2,0.5 0.4,1.1 0.5,1.6 0,0.1 0,0.2 -0.1,0.2 -0.1,0.1 -0.2,0.1 -0.3,0 0,0 0,-0.1 -0.1,-0.1 v 0.1 c 0.1,0.3 0.2,0.6 0.3,0.9 -0.2,0 -0.4,0 -0.6,0 -0.1,0 -0.1,0.1 -0.1,0.2 0,0.4 0,0.9 0,1.3 0,0.1 -0.1,0.3 -0.1,0.4 -0.1,0.1 -0.2,0.1 -0.3,0 -0.1,-0.1 -0.1,-0.2 -0.1,-0.3 0,-0.4 0,-0.7 0,-1.1 0,-0.2 0,-0.3 0,-0.5 -0.1,0.3 0,0.6 0,0.9 0,0.3 0,0.5 0,0.8 0,0.2 -0.2,0.3 -0.3,0.3 -0.1,0 -0.2,-0.1 -0.3,-0.3 0,-0.4 0,-0.9 0,-1.3 0,-0.4 0,-0.4 -0.4,-0.4 H 17.2 C 17,31.2 17,31.1 17,31 c 0,-0.1 0.1,-0.3 0.1,-0.4 -0.1,-0.3 -0.1,-0.4 0,-0.4 0.1,-0.2 0.2,-0.4 0.2,-0.7 0.1,-0.1 0.2,-0.3 0.2,-0.6 -0.2,0.2 -0.2,0.4 -0.2,0.6 -0.2,0.2 -0.3,0.4 -0.2,0.7 z"
   id="path300" />
		<path
   d="m 22.3,28.9 c 0,0.6 0,1.1 0,1.7 0,0.7 0,1.4 0,2 0,0.1 0,0.3 -0.1,0.4 -0.1,0.1 -0.2,0.1 -0.3,0.1 -0.1,0 -0.1,-0.1 -0.2,-0.2 0,-0.1 0,-0.2 0,-0.3 0,-0.5 0,-1.1 0,-1.6 0,-0.1 0,-0.2 0,-0.3 0,0 0,0 -0.1,0 h -0.1 c 0,0.1 0,0.2 0,0.3 0,0.6 0,1.2 0,1.8 0,0.3 -0.2,0.4 -0.4,0.3 0,-0.1 -0.1,-0.2 -0.1,-0.3 0,-0.1 0,-0.2 0,-0.3 0,-1.1 0,-2.2 0,-3.2 0,-0.1 0,-0.2 -0.1,-0.4 0,0.1 0,0.2 0,0.3 0,0.4 0,0.7 0,1.1 0,0.2 -0.1,0.3 -0.3,0.3 -0.2,0 -0.3,-0.1 -0.3,-0.3 0,-0.5 0,-1.1 0,-1.6 0,-0.1 0,-0.2 0.1,-0.3 0.1,-0.3 0.3,-0.4 0.6,-0.4 0.4,0 0.9,0 1.3,0 0.4,0 0.6,0.2 0.7,0.6 0,0.6 0,1.1 0,1.7 0,0.2 -0.1,0.3 -0.3,0.3 -0.2,0 -0.3,-0.1 -0.3,-0.2 0,-0.1 0,-0.2 0,-0.3 0,-0.5 0,-0.9 -0.1,-1.2 0.1,0 0.1,0 0,0 z"
   id="path302" />
		<path
   d="m 13.7,28.9 c 0,0.4 0,0.7 0,1.1 0,0.1 0,0.2 0,0.3 0,0.2 -0.1,0.3 -0.3,0.3 -0.2,0 -0.1,-0.2 -0.1,-0.3 0,-0.6 0,-1.2 0,-1.8 0,-0.4 0.1,-0.5 0.5,-0.5 0.5,0 0.9,0 1.4,0 0.4,0 0.6,0.2 0.6,0.6 0,0.5 0,1.1 0,1.6 0,0.2 -0.1,0.3 -0.2,0.3 -0.2,0 -0.3,-0.1 -0.3,-0.3 0,-0.4 0,-0.7 0,-1.1 0,-0.1 0,-0.2 -0.1,-0.3 0,0.1 0,0.2 0,0.3 0,1.1 0,2.2 0,3.3 0,0.1 0,0.3 0,0.4 0,0.1 -0.1,0.3 -0.3,0.3 -0.2,0 -0.3,-0.1 -0.3,-0.3 0,-0.1 0,-0.2 0,-0.4 0,-0.6 0,-1.2 -0.1,-1.8 0,0.1 0,0.2 0,0.3 0,0.5 0,1.1 0,1.6 0,0.1 0,0.2 -0.1,0.4 -0.1,0.2 -0.2,0.3 -0.3,0.2 -0.2,0 -0.3,-0.1 -0.3,-0.3 0,-0.1 0,-0.2 0,-0.3 0,-1.1 0,-2.3 0,-3.4 0,-0.1 0,-0.1 -0.1,-0.2 0.1,0 0,0 0,0 z"
   id="path304" />
		<path
   d="m 14,27.3 c 0,-0.3 0.3,-0.5 0.6,-0.5 0.3,0 0.5,0.3 0.5,0.6 0,0.3 -0.3,0.5 -0.6,0.5 -0.3,0 -0.5,-0.3 -0.5,-0.6 z"
   id="path306" />
		<path
   d="m 18.6,27.3 c 0,0.3 -0.2,0.6 -0.5,0.6 -0.2,0 -0.6,-0.3 -0.6,-0.5 0,-0.2 0.3,-0.6 0.6,-0.6 0.3,0 0.5,0.3 0.5,0.5 z"
   id="path308" />
		<path
   d="m 21.7,26.8 c 0.2,0 0.5,0.3 0.5,0.5 0,0.3 -0.2,0.6 -0.5,0.6 -0.3,0 -0.5,-0.3 -0.5,-0.6 -0.1,-0.2 0.2,-0.5 0.5,-0.5 z"
   id="path310" />
	</g>
	<g
   id="FRestroom4">
		<path
   d="m 346.1,400 c 0.2,0.5 0.3,1.1 0.5,1.6 0.1,0.3 0.2,0.5 0.2,0.8 0.1,0.6 0.4,1.2 0.5,1.8 0.1,0.4 0.2,0.7 0.3,1.1 0,0.2 0.1,0.3 0.1,0.5 0,0.1 0,0.1 -0.1,0.1 -0.2,0 -0.4,0 -0.7,0 -0.2,0 -0.5,0 -0.7,0 -0.2,0 -0.2,0 -0.2,0.2 v 0.1 c 0,1.3 0,2.6 0,3.9 0,0.2 0,0.3 -0.1,0.5 -0.2,0.3 -0.7,0.3 -0.9,0.1 l -0.1,-0.1 c -0.1,-0.1 -0.1,-0.2 -0.1,-0.3 0,-0.1 0,-0.2 0,-0.2 0,-1.3 0,-2.6 0,-3.9 0,-0.2 0,-0.2 -0.2,-0.2 l -0.1,0.1 c 0,0.1 0,0.1 0,0.2 0,1.3 0,2.6 0,3.9 0,0.3 -0.1,0.4 -0.3,0.6 -0.2,0.1 -0.4,0.1 -0.6,0.1 -0.2,-0.1 -0.3,-0.3 -0.4,-0.5 0,-0.1 0,-0.1 0,-0.2 0,-1.3 0,-2.6 0,-3.8 0,-0.1 0,-0.1 0,-0.2 0,-0.1 0,-0.1 -0.1,-0.1 -0.4,0 -0.8,0 -1.2,0 -0.1,0 -0.1,0 -0.2,0 -0.1,0 -0.1,0 -0.1,-0.1 0.1,-0.5 0.3,-1 0.4,-1.5 0.1,-0.4 0.3,-0.9 0.4,-1.3 0.2,-0.8 0.4,-1.5 0.7,-2.3 0.1,-0.2 0.1,-0.5 0.2,-0.7 v -0.1 c -0.1,0 -0.2,0 -0.2,0.1 -0.1,0.5 -0.3,1 -0.4,1.5 0,0.1 -0.1,0.3 -0.1,0.4 -0.1,0.3 -0.2,0.6 -0.3,1 0,0.1 -0.1,0.2 -0.1,0.3 -0.1,0.4 -0.6,0.6 -0.9,0.3 -0.2,-0.1 -0.2,-0.3 -0.1,-0.5 0.1,-0.4 0.3,-0.8 0.4,-1.3 0.1,-0.2 0.1,-0.5 0.2,-0.7 0.1,-0.3 0.2,-0.7 0.3,-1 0.1,-0.2 0.1,-0.5 0.2,-0.7 0,-0.2 0.1,-0.3 0.2,-0.4 0,-0.1 0.1,-0.1 0.1,-0.2 0.1,-0.2 0.3,-0.3 0.5,-0.4 0.2,-0.1 0.4,-0.1 0.5,-0.1 0.8,0 1.7,0 2.5,0 0.3,0 0.5,0.1 0.8,0.3 0.1,0.1 0.2,0.2 0.2,0.3 0.1,0.2 0.2,0.4 0.3,0.6 0.2,0.6 0.4,1.1 0.5,1.7 0.1,0.5 0.3,1 0.4,1.4 0,0.2 0.1,0.4 0.2,0.5 0,0.1 0,0.1 0,0.2 0,0.3 -0.1,0.4 -0.3,0.5 -0.3,0.1 -0.5,0 -0.6,-0.1 0,-0.1 -0.1,-0.1 -0.1,-0.2 -0.1,-0.4 -0.3,-0.9 -0.4,-1.3 -0.1,-0.3 -0.1,-0.6 -0.3,-0.9 -0.1,-0.3 -0.2,-0.6 -0.3,-0.9 -0.2,-0.5 -0.2,-0.5 -0.4,-0.5 z"
   id="path313" />
		<path
   d="m 344.7,395.3 c 0.2,0 0.4,0.1 0.6,0.2 0.1,0 0.1,0.1 0.2,0.1 0.3,0.1 0.4,0.3 0.4,0.6 0,0.1 0.1,0.2 0.1,0.4 0,0.3 0,0.6 -0.1,0.8 -0.1,0.2 -0.3,0.4 -0.6,0.5 -0.2,0.1 -0.3,0.2 -0.5,0.2 -0.2,0 -0.4,0 -0.6,-0.1 -0.3,-0.1 -0.5,-0.3 -0.6,-0.6 -0.1,-0.1 -0.1,-0.3 -0.1,-0.4 0,-0.2 0,-0.5 0.1,-0.7 0.1,-0.3 0.2,-0.5 0.5,-0.6 0.2,-0.1 0.3,-0.2 0.5,-0.2 -0.1,-0.2 0,-0.2 0.1,-0.2 z"
   id="path315" />
	</g>
	<g
   id="MRestroom4">
		<path
   d="m 404.4,405.2 c 0,1.6 0,3.2 0,4.8 0,0.3 -0.2,0.6 -0.4,0.7 -0.2,0.1 -0.6,0.1 -0.8,-0.1 -0.2,-0.2 -0.3,-0.4 -0.3,-0.7 0,-1.8 0,-3.5 0,-5.3 0,-0.2 0,-0.3 -0.3,-0.2 -0.1,0 -0.1,0 -0.1,0.1 0,0.1 0,0.1 0,0.2 0,1.7 0,3.4 0,5.1 0,0.1 0,0.2 0,0.3 0,0.3 -0.2,0.6 -0.4,0.7 -0.3,0.1 -0.5,0.1 -0.8,-0.1 -0.2,-0.2 -0.3,-0.4 -0.3,-0.7 0,-3.2 0,-6.3 0,-9.5 v 0 c 0,-0.2 0,-0.2 -0.2,-0.2 0,0 -0.1,0 -0.1,0.1 0,0.1 0,0.1 0,0.2 0,1.1 0,2.2 0,3.3 0,0.2 0,0.3 -0.2,0.5 -0.1,0.1 -0.1,0.1 -0.2,0.1 -0.2,0 -0.3,0 -0.5,0 -0.1,0 -0.2,-0.1 -0.2,-0.2 0,-0.1 -0.1,-0.2 -0.1,-0.3 0,-1.4 0,-2.8 0,-4.1 0,-0.6 0.3,-1 0.8,-1.2 0.2,-0.1 0.3,-0.1 0.5,-0.1 1.2,0 2.4,0 3.6,0 0.3,0 0.5,0.1 0.7,0.2 0.2,0.1 0.4,0.3 0.5,0.6 0.1,0.1 0.1,0.3 0.1,0.5 0,0.7 0,1.4 0,2 0,0.7 0,1.5 0,2.2 0,0.1 0,0.2 0,0.2 0,0.2 -0.2,0.3 -0.3,0.3 h -0.1 c -0.4,0 -0.7,-0.2 -0.7,-0.6 0,-1.1 0,-2.2 0,-3.2 0,-0.1 0,-0.1 0,-0.2 0,-0.1 0,-0.1 -0.1,-0.1 -0.2,0 -0.2,0 -0.2,0.2 0.1,1.2 0.1,2.8 0.1,4.5 z"
   id="path318" />
		<path
   d="m 401.3,396.6 c 0.1,-0.3 0,-0.6 0.2,-0.8 0.1,-0.1 0.2,-0.2 0.3,-0.2 0.1,-0.1 0.2,-0.1 0.3,-0.2 0.3,-0.2 0.6,-0.2 0.9,-0.1 0.5,0.2 0.9,0.6 0.9,1.1 0,0.3 0,0.7 -0.3,0.9 -0.1,0.1 -0.2,0.2 -0.3,0.3 -0.2,0.2 -0.5,0.3 -0.8,0.3 -0.3,0 -0.6,-0.1 -0.8,-0.3 -0.1,-0.1 -0.3,-0.3 -0.4,-0.4 0,0 0,-0.1 -0.1,-0.1 0.2,-0.1 0.1,-0.3 0.1,-0.5 z"
   id="path320" />
	</g>
	<g
   id="FRestroom3">
		<path
   d="m 117.8,401.4 c 0.2,0.5 0.3,1.1 0.5,1.6 0.1,0.3 0.2,0.5 0.2,0.8 0.1,0.6 0.4,1.2 0.5,1.8 0.1,0.4 0.2,0.7 0.3,1.1 0,0.2 0.1,0.3 0.1,0.5 0,0.1 0,0.1 -0.1,0.1 -0.2,0 -0.4,0 -0.7,0 -0.2,0 -0.5,0 -0.7,0 -0.2,0 -0.2,0 -0.2,0.2 v 0.1 c 0,1.3 0,2.6 0,3.9 0,0.2 0,0.3 -0.1,0.5 -0.2,0.3 -0.7,0.3 -0.9,0.1 l -0.1,-0.1 c -0.1,-0.1 -0.1,-0.2 -0.1,-0.3 0,-0.1 0,-0.2 0,-0.2 0,-1.3 0,-2.6 0,-3.9 0,-0.2 0,-0.2 -0.2,-0.2 l -0.1,0.1 c 0,0.1 0,0.1 0,0.2 0,1.3 0,2.6 0,3.9 0,0.3 -0.1,0.4 -0.3,0.6 -0.2,0.1 -0.4,0.1 -0.6,0.1 -0.2,-0.1 -0.3,-0.3 -0.4,-0.5 0,-0.1 0,-0.1 0,-0.2 0,-1.3 0,-2.6 0,-3.8 0,-0.1 0,-0.1 0,-0.2 0,-0.1 0,-0.1 -0.1,-0.1 -0.4,0 -0.8,0 -1.2,0 -0.1,0 -0.1,0 -0.2,0 -0.1,0 -0.1,0 -0.1,-0.1 0.1,-0.5 0.3,-1 0.4,-1.5 0.1,-0.4 0.3,-0.9 0.4,-1.3 0.2,-0.8 0.4,-1.5 0.7,-2.3 0.1,-0.2 0.1,-0.5 0.2,-0.7 v -0.1 c -0.1,0 -0.2,0 -0.2,0.1 -0.1,0.5 -0.3,1 -0.4,1.5 0,0.1 -0.1,0.3 -0.1,0.4 -0.1,0.3 -0.2,0.6 -0.3,1 0,0.1 -0.1,0.2 -0.1,0.3 -0.1,0.4 -0.6,0.6 -0.9,0.3 -0.2,-0.1 -0.2,-0.3 -0.1,-0.5 0.1,-0.4 0.3,-0.8 0.4,-1.3 0.1,-0.2 0.1,-0.5 0.2,-0.7 0.1,-0.3 0.2,-0.7 0.3,-1 0.1,-0.2 0.1,-0.5 0.2,-0.7 0,-0.2 0.1,-0.3 0.2,-0.4 0,-0.1 0.1,-0.1 0.1,-0.2 0.1,-0.2 0.3,-0.3 0.5,-0.4 0.2,-0.1 0.4,-0.1 0.5,-0.1 0.8,0 1.7,0 2.5,0 0.3,0 0.5,0.1 0.8,0.3 0.1,0.1 0.2,0.2 0.2,0.3 0.1,0.2 0.2,0.4 0.3,0.6 0.2,0.6 0.4,1.1 0.5,1.7 0.1,0.5 0.3,1 0.4,1.4 0,0.2 0.1,0.4 0.2,0.5 0,0.1 0,0.1 0,0.2 0,0.3 -0.1,0.4 -0.3,0.5 -0.3,0.1 -0.5,0 -0.6,-0.1 0,-0.1 -0.1,-0.1 -0.1,-0.2 -0.1,-0.4 -0.3,-0.9 -0.4,-1.3 -0.1,-0.3 -0.1,-0.6 -0.3,-0.9 -0.1,-0.3 -0.2,-0.6 -0.3,-0.9 -0.1,-0.5 -0.1,-0.5 -0.4,-0.5 z"
   id="path323" />
		<path
   d="m 116.5,396.7 c 0.2,0 0.4,0.1 0.6,0.2 0.1,0 0.1,0.1 0.2,0.1 0.3,0.1 0.4,0.3 0.4,0.6 0,0.1 0.1,0.2 0.1,0.4 0,0.3 0,0.6 -0.1,0.8 -0.1,0.2 -0.3,0.4 -0.6,0.5 -0.2,0.1 -0.3,0.2 -0.5,0.2 -0.2,0 -0.4,0 -0.6,-0.1 -0.3,-0.1 -0.5,-0.3 -0.6,-0.6 -0.1,-0.1 -0.1,-0.3 -0.1,-0.4 0,-0.2 0,-0.5 0.1,-0.7 0.1,-0.3 0.2,-0.5 0.5,-0.6 0.2,-0.1 0.3,-0.2 0.5,-0.2 -0.1,-0.1 0,-0.2 0.1,-0.2 z"
   id="path325" />
	</g>
	<g
   id="MRestroom3">
		<path
   d="m 176.1,406.6 c 0,1.6 0,3.2 0,4.8 0,0.3 -0.2,0.6 -0.4,0.7 -0.2,0.1 -0.6,0.1 -0.8,-0.1 -0.2,-0.2 -0.3,-0.4 -0.3,-0.7 0,-1.8 0,-3.5 0,-5.3 0,-0.2 0,-0.3 -0.3,-0.2 -0.1,0 -0.1,0 -0.1,0.1 0,0.1 0,0.1 0,0.2 0,1.7 0,3.4 0,5.1 0,0.1 0,0.2 0,0.3 0,0.3 -0.2,0.6 -0.4,0.7 -0.3,0.1 -0.5,0.1 -0.8,-0.1 -0.2,-0.2 -0.3,-0.4 -0.3,-0.7 0,-3.2 0,-6.3 0,-9.5 v 0 c 0,-0.2 0,-0.2 -0.2,-0.2 0,0 -0.1,0 -0.1,0.1 0,0.1 0,0.1 0,0.2 0,1.1 0,2.2 0,3.3 0,0.2 0,0.3 -0.2,0.5 -0.1,0.1 -0.1,0.1 -0.2,0.1 -0.2,0 -0.3,0 -0.5,0 -0.1,0 -0.2,-0.1 -0.2,-0.2 0,-0.1 -0.1,-0.2 -0.1,-0.3 0,-1.4 0,-2.8 0,-4.1 0,-0.6 0.3,-1 0.8,-1.2 0.2,-0.1 0.3,-0.1 0.5,-0.1 1.2,0 2.4,0 3.6,0 0.3,0 0.5,0.1 0.7,0.2 0.2,0.1 0.4,0.3 0.5,0.6 0.1,0.1 0.1,0.3 0.1,0.5 0,0.7 0,1.4 0,2 0,0.7 0,1.5 0,2.2 0,0.1 0,0.2 0,0.2 0,0.2 -0.2,0.3 -0.3,0.3 H 177 c -0.4,0 -0.7,-0.2 -0.7,-0.6 0,-1.1 0,-2.2 0,-3.2 0,-0.1 0,-0.1 0,-0.2 0,-0.1 0,-0.1 -0.1,-0.1 -0.2,0 -0.2,0 -0.2,0.2 0.1,1.3 0.1,2.9 0.1,4.5 z"
   id="path328" />
		<path
   d="m 173,398.1 c 0.1,-0.3 0,-0.6 0.2,-0.8 0.1,-0.1 0.2,-0.2 0.3,-0.2 0.1,-0.1 0.2,-0.1 0.3,-0.2 0.3,-0.2 0.6,-0.2 0.9,-0.1 0.5,0.2 0.9,0.6 0.9,1.1 0,0.3 0,0.7 -0.3,0.9 -0.1,0.1 -0.2,0.2 -0.3,0.3 -0.2,0.2 -0.5,0.3 -0.8,0.3 -0.3,0 -0.6,-0.1 -0.8,-0.3 -0.1,-0.1 -0.3,-0.3 -0.4,-0.4 0,0 0,-0.1 -0.1,-0.1 0.2,-0.1 0.2,-0.3 0.1,-0.5 z"
   id="path330" />
	</g>
	<g
   id="FRestroom">
		<path
   d="m 19.5,98.8 c 0.2,0.5 0.3,1.1 0.5,1.6 0.1,0.3 0.2,0.5 0.2,0.8 0.1,0.6 0.4,1.2 0.5,1.8 0.1,0.4 0.2,0.7 0.3,1.1 0,0.2 0.1,0.3 0.1,0.5 0,0.1 0,0.1 -0.1,0.1 -0.2,0 -0.4,0 -0.7,0 -0.2,0 -0.5,0 -0.7,0 -0.2,0 -0.2,0 -0.2,0.2 v 0.1 c 0,1.3 0,2.6 0,3.9 0,0.2 0,0.3 -0.1,0.5 -0.2,0.3 -0.7,0.3 -0.9,0.1 l -0.1,-0.1 c -0.1,-0.1 -0.1,-0.2 -0.1,-0.3 0,-0.1 0,-0.2 0,-0.2 0,-1.3 0,-2.6 0,-3.9 0,-0.2 0,-0.2 -0.2,-0.2 l -0.1,0.1 c 0,0.1 0,0.1 0,0.2 0,1.3 0,2.6 0,3.9 0,0.3 -0.1,0.4 -0.3,0.6 -0.2,0.1 -0.4,0.1 -0.6,0.1 -0.2,-0.1 -0.3,-0.3 -0.4,-0.5 0,-0.1 0,-0.1 0,-0.2 0,-1.3 0,-2.6 0,-3.8 0,-0.1 0,-0.1 0,-0.2 0,-0.1 0,-0.1 -0.1,-0.1 -0.4,0 -0.8,0 -1.2,0 -0.1,0 -0.1,0 -0.2,0 -0.1,0 -0.1,0 -0.1,-0.1 0.1,-0.5 0.3,-1 0.4,-1.5 0.1,-0.4 0.3,-0.9 0.4,-1.3 0.2,-0.8 0.4,-1.5 0.7,-2.3 0.1,-0.2 0.1,-0.5 0.2,-0.7 v -0.1 c -0.1,0 -0.2,0 -0.2,0.1 -0.1,0.5 -0.3,1 -0.4,1.5 0,0.1 -0.1,0.3 -0.1,0.4 -0.1,0.3 -0.2,0.6 -0.3,1 0,0.1 -0.1,0.2 -0.1,0.3 -0.1,0.4 -0.6,0.6 -0.9,0.3 -0.2,-0.1 -0.2,-0.3 -0.1,-0.5 0.1,-0.4 0.3,-0.8 0.4,-1.3 0.1,-0.2 0.1,-0.5 0.2,-0.7 0.1,-0.3 0.2,-0.7 0.3,-1 0.1,-0.2 0.1,-0.5 0.2,-0.7 0,-0.2 0.1,-0.3 0.2,-0.4 0,-0.1 0.1,-0.1 0.1,-0.2 0.1,-0.2 0.3,-0.3 0.5,-0.4 0.2,-0.1 0.4,-0.1 0.5,-0.1 0.8,0 1.7,0 2.5,0 0.3,0 0.5,0.1 0.8,0.3 0.1,0.1 0.2,0.2 0.2,0.3 0.1,0.2 0.2,0.4 0.3,0.6 0.2,0.6 0.4,1.1 0.5,1.7 0.1,0.5 0.3,1 0.4,1.4 0,0.2 0.1,0.4 0.2,0.5 0,0.1 0,0.1 0,0.2 0,0.3 -0.1,0.4 -0.3,0.5 -0.3,0.1 -0.5,0 -0.6,-0.1 0,-0.1 -0.1,-0.1 -0.1,-0.2 -0.1,-0.4 -0.3,-0.9 -0.4,-1.3 -0.1,-0.3 -0.1,-0.6 -0.3,-0.9 -0.1,-0.3 -0.2,-0.6 -0.3,-0.9 -0.2,-0.5 -0.2,-0.5 -0.4,-0.5 z"
   id="path333" />
		<path
   d="m 18.1,94.1 c 0.2,0 0.4,0.1 0.6,0.2 0.1,0 0.1,0.1 0.2,0.1 0.3,0.1 0.4,0.3 0.4,0.6 0,0.1 0.1,0.2 0.1,0.4 0,0.3 0,0.6 -0.1,0.8 -0.1,0.2 -0.3,0.4 -0.6,0.5 -0.2,0.1 -0.3,0.2 -0.5,0.2 -0.2,0 -0.4,0 -0.6,-0.1 -0.3,-0.1 -0.5,-0.3 -0.6,-0.6 -0.1,-0.1 -0.1,-0.3 -0.1,-0.4 0,-0.2 0,-0.5 0.1,-0.7 0.1,-0.3 0.2,-0.5 0.5,-0.6 0.2,-0.1 0.3,-0.2 0.5,-0.2 -0.1,-0.1 0,-0.2 0.1,-0.2 z"
   id="path335" />
	</g>
	<g
   id="MRestroom">
		<path
   d="m 19.8,124.2 c 0,1.6 0,3.2 0,4.8 0,0.3 -0.2,0.6 -0.4,0.7 -0.2,0.1 -0.6,0.1 -0.8,-0.1 -0.2,-0.2 -0.3,-0.4 -0.3,-0.7 0,-1.8 0,-3.5 0,-5.3 0,-0.2 0,-0.3 -0.3,-0.2 -0.1,0 -0.1,0 -0.1,0.1 0,0.1 0,0.1 0,0.2 0,1.7 0,3.4 0,5.1 0,0.1 0,0.2 0,0.3 0,0.3 -0.2,0.6 -0.4,0.7 -0.3,0.1 -0.5,0.1 -0.8,-0.1 -0.2,-0.2 -0.3,-0.4 -0.3,-0.7 0,-3.2 0,-6.3 0,-9.5 v 0 c 0,-0.2 0,-0.2 -0.2,-0.2 0,0 -0.1,0 -0.1,0.1 0,0.1 0,0.1 0,0.2 0,1.1 0,2.2 0,3.3 0,0.2 0,0.3 -0.2,0.5 -0.1,0.1 -0.1,0.1 -0.2,0.1 -0.2,0 -0.3,0 -0.5,0 -0.1,0 -0.2,-0.1 -0.2,-0.2 0,-0.1 -0.1,-0.2 -0.1,-0.3 0,-1.4 0,-2.8 0,-4.1 0,-0.6 0.3,-1 0.8,-1.2 0.2,-0.1 0.3,-0.1 0.5,-0.1 1.2,0 2.4,0 3.6,0 0.3,0 0.5,0.1 0.7,0.2 0.2,0.1 0.4,0.3 0.5,0.6 0.1,0.1 0.1,0.3 0.1,0.5 0,0.7 0,1.4 0,2 0,0.7 0,1.5 0,2.2 0,0.1 0,0.2 0,0.2 0,0.2 -0.2,0.3 -0.3,0.3 h -0.1 c -0.4,0 -0.7,-0.2 -0.7,-0.6 0,-1.1 0,-2.2 0,-3.2 0,-0.1 0,-0.1 0,-0.2 0,-0.1 0,-0.1 -0.1,-0.1 -0.2,0 -0.2,0 -0.2,0.2 0.1,1.2 0.1,2.9 0.1,4.5 z"
   id="path338" />
		<path
   d="m 16.7,115.6 c 0.1,-0.3 0,-0.6 0.2,-0.8 0.1,-0.1 0.2,-0.2 0.3,-0.2 0.1,-0.1 0.2,-0.1 0.3,-0.2 0.3,-0.2 0.6,-0.2 0.9,-0.1 0.5,0.2 0.9,0.6 0.9,1.1 0,0.3 0,0.7 -0.3,0.9 -0.1,0.1 -0.2,0.2 -0.3,0.3 -0.2,0.2 -0.5,0.3 -0.8,0.3 -0.3,0 -0.6,-0.1 -0.8,-0.3 -0.1,-0.1 -0.3,-0.3 -0.4,-0.4 0,0 0,-0.1 -0.1,-0.1 0.2,-0.1 0.1,-0.3 0.1,-0.5 z"
   id="path340" />
	</g>
	<g
   id="Stairs">
		<path
   d="m 18.1,56.9 c 1.7,0 3.5,0 5.2,0 0.7,0 1.3,0.2 1.8,0.7 0.8,0.8 1.3,1.7 1.3,2.9 0,3.2 0,6.4 0,9.5 0,0.7 -0.2,1.4 -0.6,2 -0.3,0.4 -0.6,0.8 -1.1,1.1 -0.4,0.3 -0.9,0.4 -1.4,0.5 -0.1,0 -0.3,0 -0.5,0 -2.6,0 -5.1,0 -7.7,0 -0.6,0 -1.1,0 -1.7,0 -1.1,0 -1.9,-0.4 -2.7,-1.1 -0.3,-0.3 -0.6,-0.6 -0.7,-1 -0.1,-0.4 -0.2,-0.8 -0.2,-1.3 0,-3.3 0,-6.6 0,-9.9 0,-1.2 0.6,-2.2 1.7,-2.9 0.5,-0.3 1,-0.4 1.5,-0.4 1.7,-0.1 3.4,-0.1 5.1,-0.1 z M 18,72.1 v 0 c 0.1,0 0.1,0 0.2,0 1.6,0 3.2,0 4.8,0 0.4,0 0.7,-0.1 1,-0.3 0.7,-0.5 1.1,-1.1 1.1,-1.9 0,-2.2 0,-4.4 0,-6.6 0,-1 0,-2 0,-3 0,-0.4 -0.1,-0.8 -0.3,-1.1 -0.4,-0.7 -1.1,-1.1 -2,-1.1 -2.6,0 -5.2,0 -7.8,0 -0.6,0 -1.3,0 -1.9,0 -0.5,0 -1,0.2 -1.4,0.5 -0.5,0.4 -0.7,1 -0.7,1.6 0,3.1 0,6.3 0,9.4 0,0.4 0.1,0.8 0.2,1.1 0.1,0.2 0.3,0.4 0.4,0.6 0.1,0.2 0.3,0.3 0.5,0.5 0.3,0.2 0.6,0.2 1,0.2 1.6,0.1 3.3,0.1 4.9,0.1 z"
   id="path343" />
		<path
   d="m 13.7,70.3 c -0.3,0 -0.7,0 -1,0 -0.2,0 -0.3,-0.1 -0.3,-0.3 v -0.1 c 0,-0.7 -0.1,-0.6 0.5,-0.6 0.3,0 0.6,0 0.9,0 0.3,0 0.3,0 0.3,-0.3 0,-0.5 0,-1 0,-1.5 0,-0.4 0,-0.4 0.4,-0.4 0.4,0 0.7,0 1.1,0 0.2,0 0.3,0 0.3,-0.3 0,-0.4 0,-0.8 0,-1.2 0,-0.2 0,-0.2 0.2,-0.2 0.4,0 0.9,0 1.3,0 0.1,0 0.2,-0.1 0.2,-0.2 0,-0.4 0,-0.9 0,-1.3 0,-0.2 0,-0.2 0.2,-0.2 0.4,0 0.8,0 1.2,0 0.2,0 0.3,0 0.3,-0.3 0,-0.4 0,-0.8 0,-1.2 0,-0.2 0,-0.2 0.2,-0.2 0.4,0 0.8,0 1.2,0 0.3,0 0.3,0 0.3,-0.3 0,-0.4 0,-0.8 0,-1.2 0,-0.2 0,-0.2 0.3,-0.2 0.7,0 1.4,0 2.1,0 0.2,0 0.3,0 0.3,0.2 0,0.7 0,0.7 -0.7,0.7 -0.3,0 -0.6,0 -0.9,0 -0.1,0 -0.2,0 -0.2,0.2 0,0.4 0,0.9 0,1.3 0,0.2 0,0.2 -0.2,0.2 -0.4,0 -0.9,0 -1.3,0 -0.1,0 -0.2,0.1 -0.2,0.2 0,0.4 0,0.8 0,1.3 0,0.3 0,0.3 -0.3,0.3 -0.4,0 -0.8,0 -1.1,0 -0.3,0 -0.3,-0.1 -0.3,0.3 0,0.4 0,0.8 0,1.2 0,0.2 -0.1,0.3 -0.3,0.3 -0.1,0 -0.1,0 -0.2,0 -0.4,0 -0.7,0 -1.1,0.1 -0.1,0 -0.2,0.1 -0.2,0.2 0,0.4 0,0.8 0,1.3 0,0.3 0,0.3 -0.3,0.3 -0.4,-0.1 -0.8,0 -1.2,0 -0.1,0 -0.2,0.1 -0.2,0.2 0,0.5 0,1 0,1.5 0,0.4 0,0.4 -0.4,0.4 -0.3,-0.2 -0.6,-0.2 -0.9,-0.2 z"
   id="path345" />
	</g>
	<g
   id="Stairs41">
		<path
   d="m 449.2,115.2 c 1.7,0 3.5,0 5.2,0 0.7,0 1.3,0.2 1.8,0.7 0.8,0.8 1.3,1.7 1.3,2.9 0,3.2 0,6.4 0,9.5 0,0.7 -0.2,1.4 -0.6,2 -0.3,0.4 -0.6,0.8 -1.1,1.1 -0.4,0.3 -0.9,0.4 -1.4,0.5 -0.1,0 -0.3,0 -0.5,0 -2.6,0 -5.1,0 -7.7,0 -0.6,0 -1.1,0 -1.7,0 -1.1,0 -1.9,-0.4 -2.7,-1.1 -0.3,-0.3 -0.6,-0.6 -0.7,-1 -0.1,-0.4 -0.2,-0.8 -0.2,-1.3 0,-3.3 0,-6.6 0,-9.9 0,-1.2 0.6,-2.2 1.7,-2.9 0.5,-0.3 1,-0.4 1.5,-0.4 1.7,-0.1 3.4,-0.2 5.1,-0.1 z m 0,15.2 v 0 c 0.1,0 0.1,0 0.2,0 1.6,0 3.2,0 4.8,0 0.4,0 0.7,-0.1 1,-0.3 0.7,-0.5 1.1,-1.1 1.1,-1.9 0,-2.2 0,-4.4 0,-6.6 0,-1 0,-2 0,-3 0,-0.4 -0.1,-0.8 -0.3,-1.1 -0.4,-0.7 -1.1,-1.1 -2,-1.1 -2.6,0 -5.2,0 -7.8,0 -0.6,0 -1.3,0 -1.9,0 -0.5,0 -1,0.2 -1.4,0.5 -0.5,0.4 -0.7,1 -0.7,1.6 0,3.1 0,6.3 0,9.4 0,0.4 0.1,0.8 0.2,1.1 0.1,0.2 0.3,0.4 0.4,0.6 0.1,0.2 0.3,0.3 0.5,0.5 0.3,0.2 0.6,0.2 1,0.2 1.6,0.1 3.2,0.1 4.9,0.1 z"
   id="path348" />
		<path
   d="m 444.9,128.6 c -0.3,0 -0.7,0 -1,0 -0.2,0 -0.3,-0.1 -0.3,-0.3 v -0.1 c 0,-0.7 -0.1,-0.6 0.5,-0.6 0.3,0 0.6,0 0.9,0 0.3,0 0.3,0 0.3,-0.3 0,-0.5 0,-1 0,-1.5 0,-0.4 0,-0.4 0.4,-0.4 0.4,0 0.7,0 1.1,0 0.2,0 0.3,0 0.3,-0.3 0,-0.4 0,-0.8 0,-1.2 0,-0.2 0,-0.2 0.2,-0.2 0.4,0 0.9,0 1.3,0 0.1,0 0.2,-0.1 0.2,-0.2 0,-0.4 0,-0.9 0,-1.3 0,-0.2 0,-0.2 0.2,-0.2 0.4,0 0.8,0 1.2,0 0.2,0 0.3,0 0.3,-0.3 0,-0.4 0,-0.8 0,-1.2 0,-0.2 0,-0.2 0.2,-0.2 0.4,0 0.8,0 1.2,0 0.3,0 0.3,0 0.3,-0.3 0,-0.4 0,-0.8 0,-1.2 0,-0.2 0,-0.2 0.3,-0.2 0.7,0 1.4,0 2.1,0 0.2,0 0.3,0 0.3,0.2 0,0.7 0,0.7 -0.7,0.7 -0.3,0 -0.6,0 -0.9,0 -0.1,0 -0.2,0 -0.2,0.2 0,0.4 0,0.9 0,1.3 0,0.2 0,0.2 -0.2,0.2 -0.4,0 -0.9,0 -1.3,0 -0.1,0 -0.2,0.1 -0.2,0.2 0,0.4 0,0.8 0,1.3 0,0.3 0,0.3 -0.3,0.3 -0.4,0 -0.8,0 -1.1,0 -0.3,0 -0.3,-0.1 -0.3,0.3 0,0.4 0,0.8 0,1.2 0,0.2 -0.1,0.3 -0.3,0.3 -0.1,0 -0.1,0 -0.2,0 -0.4,0 -0.7,0 -1.1,0.1 -0.1,0 -0.2,0.1 -0.2,0.2 0,0.4 0,0.8 0,1.3 0,0.3 0,0.3 -0.3,0.3 -0.4,-0.1 -0.8,0 -1.2,0 -0.1,0 -0.2,0.1 -0.2,0.2 0,0.5 0,1 0,1.5 0,0.4 0,0.4 -0.4,0.4 -0.3,-0.2 -0.6,-0.2 -0.9,-0.2 z"
   id="path350" />
	</g>
	<g
   id="Stairs31">
		<path
   d="m 221.6,113.2 c 1.7,0 3.5,0 5.2,0 0.7,0 1.3,0.2 1.8,0.7 0.8,0.8 1.3,1.7 1.3,2.9 0,3.2 0,6.4 0,9.5 0,0.7 -0.2,1.4 -0.6,2 -0.3,0.4 -0.6,0.8 -1.1,1.1 -0.4,0.3 -0.9,0.4 -1.4,0.5 -0.1,0 -0.3,0 -0.5,0 -2.6,0 -5.1,0 -7.7,0 -0.6,0 -1.1,0 -1.7,0 -1.1,0 -1.9,-0.4 -2.7,-1.1 -0.3,-0.3 -0.6,-0.6 -0.7,-1 -0.1,-0.4 -0.2,-0.8 -0.2,-1.3 0,-3.3 0,-6.6 0,-9.9 0,-1.2 0.6,-2.2 1.7,-2.9 0.5,-0.3 1,-0.4 1.5,-0.4 1.7,-0.1 3.4,-0.1 5.1,-0.1 z m 0,15.3 v 0 c 0.1,0 0.1,0 0.2,0 1.6,0 3.2,0 4.8,0 0.4,0 0.7,-0.1 1,-0.3 0.7,-0.5 1.1,-1.1 1.1,-1.9 0,-2.2 0,-4.4 0,-6.6 0,-1 0,-2 0,-3 0,-0.4 -0.1,-0.8 -0.3,-1.1 -0.4,-0.7 -1.1,-1.1 -2,-1.1 -2.6,0 -5.2,0 -7.8,0 -0.6,0 -1.3,0 -1.9,0 -0.5,0 -1,0.2 -1.4,0.5 -0.5,0.4 -0.7,1 -0.7,1.6 0,3.1 0,6.3 0,9.4 0,0.4 0.1,0.8 0.2,1.1 0.1,0.2 0.3,0.4 0.4,0.6 0.1,0.2 0.3,0.3 0.5,0.5 0.3,0.2 0.6,0.2 1,0.2 1.6,0.1 3.2,0.1 4.9,0.1 z"
   id="path353" />
		<path
   d="m 217.3,126.7 c -0.3,0 -0.7,0 -1,0 -0.2,0 -0.3,-0.1 -0.3,-0.3 v -0.1 c 0,-0.7 -0.1,-0.6 0.5,-0.6 0.3,0 0.6,0 0.9,0 0.3,0 0.3,0 0.3,-0.3 0,-0.5 0,-1 0,-1.5 0,-0.4 0,-0.4 0.4,-0.4 0.4,0 0.7,0 1.1,0 0.2,0 0.3,0 0.3,-0.3 0,-0.4 0,-0.8 0,-1.2 0,-0.2 0,-0.2 0.2,-0.2 0.4,0 0.9,0 1.3,0 0.1,0 0.2,-0.1 0.2,-0.2 0,-0.4 0,-0.9 0,-1.3 0,-0.2 0,-0.2 0.2,-0.2 0.4,0 0.8,0 1.2,0 0.2,0 0.3,0 0.3,-0.3 0,-0.4 0,-0.8 0,-1.2 0,-0.2 0,-0.2 0.2,-0.2 0.4,0 0.8,0 1.2,0 0.3,0 0.3,0 0.3,-0.3 0,-0.4 0,-0.8 0,-1.2 0,-0.2 0,-0.2 0.3,-0.2 0.7,0 1.4,0 2.1,0 0.2,0 0.3,0 0.3,0.2 0,0.7 0,0.7 -0.7,0.7 -0.3,0 -0.6,0 -0.9,0 -0.1,0 -0.2,0 -0.2,0.2 0,0.4 0,0.9 0,1.3 0,0.2 0,0.2 -0.2,0.2 -0.4,0 -0.9,0 -1.3,0 -0.1,0 -0.2,0.1 -0.2,0.2 0,0.4 0,0.8 0,1.3 0,0.3 0,0.3 -0.3,0.3 -0.4,0 -0.8,0 -1.1,0 -0.3,0 -0.3,-0.1 -0.3,0.3 0,0.4 0,0.8 0,1.2 0,0.2 -0.1,0.3 -0.3,0.3 -0.1,0 -0.1,0 -0.2,0 -0.4,0 -0.7,0 -1.1,0.1 -0.1,0 -0.2,0.1 -0.2,0.2 0,0.4 0,0.8 0,1.3 0,0.3 0,0.3 -0.3,0.3 -0.4,-0.1 -0.8,0 -1.2,0 -0.1,0 -0.2,0.1 -0.2,0.2 0,0.5 0,1 0,1.5 0,0.4 0,0.4 -0.4,0.4 -0.3,-0.2 -0.6,-0.2 -0.9,-0.2 z"
   id="path355" />
	</g>
	<g
   id="Stairs32">
		<path
   d="m 68.7,365.2 c 1.7,0 3.5,0 5.2,0 0.7,0 1.3,0.2 1.8,0.7 0.8,0.8 1.3,1.7 1.3,2.9 0,3.2 0,6.4 0,9.5 0,0.7 -0.2,1.4 -0.6,2 -0.3,0.4 -0.6,0.8 -1.1,1.1 -0.4,0.3 -0.9,0.4 -1.4,0.5 -0.1,0 -0.3,0 -0.5,0 -2.6,0 -5.1,0 -7.7,0 -0.6,0 -1.1,0 -1.7,0 -1.1,0 -1.9,-0.4 -2.7,-1.1 -0.3,-0.3 -0.6,-0.6 -0.7,-1 -0.1,-0.4 -0.2,-0.8 -0.2,-1.3 0,-3.3 0,-6.6 0,-9.9 0,-1.2 0.6,-2.2 1.7,-2.9 0.5,-0.3 1,-0.4 1.5,-0.4 1.7,-0.1 3.4,-0.1 5.1,-0.1 z m 0,15.3 v 0 c 0.1,0 0.1,0 0.2,0 1.6,0 3.2,0 4.8,0 0.4,0 0.7,-0.1 1,-0.3 0.7,-0.5 1.1,-1.1 1.1,-1.9 0,-2.2 0,-4.4 0,-6.6 0,-1 0,-2 0,-3 0,-0.4 -0.1,-0.8 -0.3,-1.1 -0.4,-0.7 -1.1,-1.1 -2,-1.1 -2.6,0 -5.2,0 -7.8,0 -0.6,0 -1.3,0 -1.9,0 -0.5,0 -1,0.2 -1.4,0.5 -0.5,0.4 -0.7,1 -0.7,1.6 0,3.1 0,6.3 0,9.4 0,0.4 0.1,0.8 0.2,1.1 0.1,0.2 0.3,0.4 0.4,0.6 0.1,0.2 0.3,0.3 0.5,0.5 0.3,0.2 0.6,0.2 1,0.2 1.6,0.1 3.2,0.1 4.9,0.1 z"
   id="path358" />
		<path
   d="m 64.4,378.7 c -0.3,0 -0.7,0 -1,0 -0.2,0 -0.3,-0.1 -0.3,-0.3 v -0.1 c 0,-0.7 -0.1,-0.6 0.5,-0.6 0.3,0 0.6,0 0.9,0 0.3,0 0.3,0 0.3,-0.3 0,-0.5 0,-1 0,-1.5 0,-0.4 0,-0.4 0.4,-0.4 0.4,0 0.7,0 1.1,0 0.2,0 0.3,0 0.3,-0.3 0,-0.4 0,-0.8 0,-1.2 0,-0.2 0,-0.2 0.2,-0.2 0.4,0 0.9,0 1.3,0 0.1,0 0.2,-0.1 0.2,-0.2 0,-0.4 0,-0.9 0,-1.3 0,-0.2 0,-0.2 0.2,-0.2 0.4,0 0.8,0 1.2,0 0.2,0 0.3,0 0.3,-0.3 0,-0.4 0,-0.8 0,-1.2 0,-0.2 0,-0.2 0.2,-0.2 0.4,0 0.8,0 1.2,0 0.3,0 0.3,0 0.3,-0.3 0,-0.4 0,-0.8 0,-1.2 0,-0.2 0,-0.2 0.3,-0.2 0.7,0 1.4,0 2.1,0 0.2,0 0.3,0 0.3,0.2 0,0.7 0,0.7 -0.7,0.7 -0.3,0 -0.6,0 -0.9,0 -0.1,0 -0.2,0 -0.2,0.2 0,0.4 0,0.9 0,1.3 0,0.2 0,0.2 -0.2,0.2 -0.4,0 -0.9,0 -1.3,0 -0.1,0 -0.2,0.1 -0.2,0.2 0,0.4 0,0.8 0,1.3 0,0.3 0,0.3 -0.3,0.3 -0.4,0 -0.8,0 -1.1,0 -0.3,0 -0.3,-0.1 -0.3,0.3 0,0.4 0,0.8 0,1.2 0,0.2 -0.1,0.3 -0.3,0.3 -0.1,0 -0.1,0 -0.2,0 -0.4,0 -0.7,0 -1.1,0.1 -0.1,0 -0.2,0.1 -0.2,0.2 0,0.4 0,0.8 0,1.3 0,0.3 0,0.3 -0.3,0.3 -0.4,-0.1 -0.8,0 -1.2,0 -0.1,0 -0.2,0.1 -0.2,0.2 0,0.5 0,1 0,1.5 0,0.4 0,0.4 -0.4,0.4 -0.3,-0.2 -0.6,-0.2 -0.9,-0.2 z"
   id="path360" />
	</g>
	<g
   id="Stairs42">
		<path
   d="m 297.8,365.2 c 1.7,0 3.5,0 5.2,0 0.7,0 1.3,0.2 1.8,0.7 0.8,0.8 1.3,1.7 1.3,2.9 0,3.2 0,6.4 0,9.5 0,0.7 -0.2,1.4 -0.6,2 -0.3,0.4 -0.6,0.8 -1.1,1.1 -0.4,0.3 -0.9,0.4 -1.4,0.5 -0.1,0 -0.3,0 -0.5,0 -2.6,0 -5.1,0 -7.7,0 -0.6,0 -1.1,0 -1.7,0 -1.1,0 -1.9,-0.4 -2.7,-1.1 -0.3,-0.3 -0.6,-0.6 -0.7,-1 -0.1,-0.4 -0.2,-0.8 -0.2,-1.3 0,-3.3 0,-6.6 0,-9.9 0,-1.2 0.6,-2.2 1.7,-2.9 0.5,-0.3 1,-0.4 1.5,-0.4 1.7,-0.1 3.4,-0.1 5.1,-0.1 z m -0.1,15.3 v 0 c 0.1,0 0.1,0 0.2,0 1.6,0 3.2,0 4.8,0 0.4,0 0.7,-0.1 1,-0.3 0.7,-0.5 1.1,-1.1 1.1,-1.9 0,-2.2 0,-4.4 0,-6.6 0,-1 0,-2 0,-3 0,-0.4 -0.1,-0.8 -0.3,-1.1 -0.4,-0.7 -1.1,-1.1 -2,-1.1 -2.6,0 -5.2,0 -7.8,0 -0.6,0 -1.3,0 -1.9,0 -0.5,0 -1,0.2 -1.4,0.5 -0.5,0.4 -0.7,1 -0.7,1.6 0,3.1 0,6.3 0,9.4 0,0.4 0.1,0.8 0.2,1.1 0.1,0.2 0.3,0.4 0.4,0.6 0.1,0.2 0.3,0.3 0.5,0.5 0.3,0.2 0.6,0.2 1,0.2 1.6,0.1 3.3,0.1 4.9,0.1 z"
   id="path363" />
		<path
   d="m 293.4,378.7 c -0.3,0 -0.7,0 -1,0 -0.2,0 -0.3,-0.1 -0.3,-0.3 v -0.1 c 0,-0.7 -0.1,-0.6 0.5,-0.6 0.3,0 0.6,0 0.9,0 0.3,0 0.3,0 0.3,-0.3 0,-0.5 0,-1 0,-1.5 0,-0.4 0,-0.4 0.4,-0.4 0.4,0 0.7,0 1.1,0 0.2,0 0.3,0 0.3,-0.3 0,-0.4 0,-0.8 0,-1.2 0,-0.2 0,-0.2 0.2,-0.2 0.4,0 0.9,0 1.3,0 0.1,0 0.2,-0.1 0.2,-0.2 0,-0.4 0,-0.9 0,-1.3 0,-0.2 0,-0.2 0.2,-0.2 0.4,0 0.8,0 1.2,0 0.2,0 0.3,0 0.3,-0.3 0,-0.4 0,-0.8 0,-1.2 0,-0.2 0,-0.2 0.2,-0.2 0.4,0 0.8,0 1.2,0 0.3,0 0.3,0 0.3,-0.3 0,-0.4 0,-0.8 0,-1.2 0,-0.2 0,-0.2 0.3,-0.2 0.7,0 1.4,0 2.1,0 0.2,0 0.3,0 0.3,0.2 0,0.7 0,0.7 -0.7,0.7 -0.3,0 -0.6,0 -0.9,0 -0.1,0 -0.2,0 -0.2,0.2 0,0.4 0,0.9 0,1.3 0,0.2 0,0.2 -0.2,0.2 -0.4,0 -0.9,0 -1.3,0 -0.1,0 -0.2,0.1 -0.2,0.2 0,0.4 0,0.8 0,1.3 0,0.3 0,0.3 -0.3,0.3 -0.4,0 -0.8,0 -1.1,0 -0.3,0 -0.3,-0.1 -0.3,0.3 0,0.4 0,0.8 0,1.2 0,0.2 -0.1,0.3 -0.3,0.3 -0.1,0 -0.1,0 -0.2,0 -0.4,0 -0.7,0 -1.1,0.1 -0.1,0 -0.2,0.1 -0.2,0.2 0,0.4 0,0.8 0,1.3 0,0.3 0,0.3 -0.3,0.3 -0.4,-0.1 -0.8,0 -1.2,0 -0.1,0 -0.2,0.1 -0.2,0.2 0,0.5 0,1 0,1.5 0,0.4 0,0.4 -0.4,0.4 -0.3,-0.2 -0.6,-0.2 -0.9,-0.2 z"
   id="path365" />
	</g>
	<path
   class="st6"
   d="m 417.4,325.1 h -86.8 c -0.8,0 -1.4,-0.4 -1.4,-1 v -17.8 c 0,-0.6 0.6,-1 1.4,-1 h 86.8 c 0.8,0 1.4,0.4 1.4,1 v 17.8 c 0,0.6 -0.6,1 -1.4,1 z"
   id="path368" />
	<g
   id="g378">
		<g
   id="g376">
			<line
   class="st6"
   x1="425.10001"
   y1="283.10001"
   x2="425.10001"
   y2="280.39999"
   id="line370" />
			<g
   id="g374">
				<path
   class="st7"
   d="m 425.1,277.3 c 0.5,1.4 1.4,3.2 2.4,4.3 l -2.4,-0.9 -2.4,0.9 c 1,-1.1 1.9,-2.8 2.4,-4.3 z"
   id="path372" />
			</g>
		</g>
	</g>
	<g
   id="g388">
		<g
   id="g386">
			<line
   class="st6"
   x1="425.10001"
   y1="367.20001"
   x2="425.10001"
   y2="364.39999"
   id="line380" />
			<g
   id="g384">
				<path
   class="st7"
   d="m 425.1,361.4 c 0.5,1.4 1.4,3.2 2.4,4.3 l -2.4,-0.9 -2.4,0.9 c 1,-1.1 1.9,-2.9 2.4,-4.3 z"
   id="path382" />
			</g>
		</g>
	</g>
	<g
   id="g398">
		<g
   id="g396">
			<line
   class="st6"
   x1="425.10001"
   y1="451.20001"
   x2="425.10001"
   y2="448.39999"
   id="line390" />
			<g
   id="g394">
				<path
   class="st7"
   d="m 425.1,445.4 c 0.5,1.4 1.4,3.2 2.4,4.3 l -2.4,-0.9 -2.4,0.9 c 1,-1.1 1.9,-2.9 2.4,-4.3 z"
   id="path392" />
			</g>
		</g>
	</g>
	<g
   id="g408">
		<g
   id="g406">
			<line
   class="st6"
   x1="425.10001"
   y1="199.10001"
   x2="425.10001"
   y2="196.3"
   id="line400" />
			<g
   id="g404">
				<path
   class="st7"
   d="m 425.1,193.3 c 0.5,1.4 1.4,3.2 2.4,4.3 l -2.4,-0.9 -2.4,0.9 c 1,-1.1 1.9,-2.9 2.4,-4.3 z"
   id="path402" />
			</g>
		</g>
	</g>
	<g
   id="g418">
		<g
   id="g416">
			<line
   class="st6"
   x1="425.10001"
   y1="115.1"
   x2="425.10001"
   y2="112.3"
   id="line410" />
			<g
   id="g414">
				<path
   class="st7"
   d="m 425.1,109.3 c 0.5,1.4 1.4,3.2 2.4,4.3 l -2.4,-0.9 -2.4,0.9 c 1,-1.1 1.9,-2.9 2.4,-4.3 z"
   id="path412" />
			</g>
		</g>
	</g>
	<g
   id="g428">
		<g
   id="g426">
			<line
   class="st6"
   x1="196.5"
   y1="283.10001"
   x2="196.5"
   y2="280.39999"
   id="line420" />
			<g
   id="g424">
				<path
   class="st7"
   d="m 196.5,277.3 c 0.5,1.4 1.4,3.2 2.4,4.3 l -2.4,-0.9 -2.4,0.9 c 1,-1.1 1.9,-2.8 2.4,-4.3 z"
   id="path422" />
			</g>
		</g>
	</g>
	<g
   id="g438">
		<g
   id="g436">
			<line
   class="st6"
   x1="196.5"
   y1="367.20001"
   x2="196.5"
   y2="364.39999"
   id="line430" />
			<g
   id="g434">
				<path
   class="st7"
   d="m 196.5,361.4 c 0.5,1.4 1.4,3.2 2.4,4.3 l -2.4,-0.9 -2.4,0.9 c 1,-1.1 1.9,-2.9 2.4,-4.3 z"
   id="path432" />
			</g>
		</g>
	</g>
	<g
   id="g448">
		<g
   id="g446">
			<line
   class="st6"
   x1="196.5"
   y1="451.20001"
   x2="196.5"
   y2="448.39999"
   id="line440" />
			<g
   id="g444">
				<path
   class="st7"
   d="m 196.5,445.4 c 0.5,1.4 1.4,3.2 2.4,4.3 l -2.4,-0.9 -2.4,0.9 c 1,-1.1 1.9,-2.9 2.4,-4.3 z"
   id="path442" />
			</g>
		</g>
	</g>
	<g
   id="g458">
		<g
   id="g456">
			<line
   class="st6"
   x1="196.5"
   y1="199.10001"
   x2="196.5"
   y2="196.3"
   id="line450" />
			<g
   id="g454">
				<path
   class="st7"
   d="m 196.5,193.3 c 0.5,1.4 1.4,3.2 2.4,4.3 l -2.4,-0.9 -2.4,0.9 c 1,-1.1 1.9,-2.9 2.4,-4.3 z"
   id="path452" />
			</g>
		</g>
	</g>
	<g
   id="g468">
		<g
   id="g466">
			<line
   class="st6"
   x1="196.5"
   y1="115.1"
   x2="196.5"
   y2="112.3"
   id="line460" />
			<g
   id="g464">
				<path
   class="st7"
   d="m 196.5,109.3 c 0.5,1.4 1.4,3.2 2.4,4.3 l -2.4,-0.9 -2.4,0.9 c 1,-1.1 1.9,-2.9 2.4,-4.3 z"
   id="path462" />
			</g>
		</g>
	</g>
	<g
   id="g478">
		<g
   id="g476">
			<line
   class="st6"
   x1="322.5"
   y1="277.29999"
   x2="322.5"
   y2="280.10001"
   id="line470" />
			<g
   id="g474">
				<path
   class="st7"
   d="m 322.5,283.1 c -0.5,-1.4 -1.4,-3.2 -2.4,-4.3 l 2.4,0.9 2.4,-0.9 c -1,1.1 -1.9,2.9 -2.4,4.3 z"
   id="path472" />
			</g>
		</g>
	</g>
	<g
   id="g488">
		<g
   id="g486">
			<line
   class="st6"
   x1="322.5"
   y1="193.3"
   x2="322.5"
   y2="196.10001"
   id="line480" />
			<g
   id="g484">
				<path
   class="st7"
   d="m 322.5,199.1 c -0.5,-1.4 -1.4,-3.2 -2.4,-4.3 l 2.4,0.9 2.4,-0.9 c -1,1.1 -1.9,2.9 -2.4,4.3 z"
   id="path482" />
			</g>
		</g>
	</g>
	<g
   id="g498">
		<g
   id="g496">
			<line
   class="st6"
   x1="322.5"
   y1="109.3"
   x2="322.5"
   y2="112.1"
   id="line490" />
			<g
   id="g494">
				<path
   class="st7"
   d="m 322.5,115.1 c -0.5,-1.4 -1.4,-3.2 -2.4,-4.3 l 2.4,0.9 2.4,-0.9 c -1,1.1 -1.9,2.8 -2.4,4.3 z"
   id="path492" />
			</g>
		</g>
	</g>
	<g
   id="g508">
		<g
   id="g506">
			<line
   class="st6"
   x1="322.5"
   y1="361.39999"
   x2="322.5"
   y2="364.10001"
   id="line500" />
			<g
   id="g504">
				<path
   class="st7"
   d="m 322.5,367.2 c -0.5,-1.4 -1.4,-3.2 -2.4,-4.3 l 2.4,0.9 2.4,-0.9 c -1,1.1 -1.9,2.8 -2.4,4.3 z"
   id="path502" />
			</g>
		</g>
	</g>
	<g
   id="g518">
		<g
   id="g516">
			<line
   class="st6"
   x1="322.5"
   y1="445.39999"
   x2="322.5"
   y2="448.20001"
   id="line510" />
			<g
   id="g514">
				<path
   class="st7"
   d="m 322.5,451.2 c -0.5,-1.4 -1.4,-3.2 -2.4,-4.3 l 2.4,0.9 2.4,-0.9 c -1,1.1 -1.9,2.9 -2.4,4.3 z"
   id="path512" />
			</g>
		</g>
	</g>
	<g
   id="g528">
		<g
   id="g526">
			<line
   class="st6"
   x1="128.39999"
   y1="261.70001"
   x2="131.10001"
   y2="261.70001"
   id="line520" />
			<g
   id="g524">
				<path
   class="st7"
   d="m 134.1,261.7 c -1.4,0.5 -3.2,1.4 -4.3,2.4 l 0.9,-2.4 -0.9,-2.4 c 1.2,1 2.9,1.9 4.3,2.4 z"
   id="path522" />
			</g>
		</g>
	</g>
	<g
   id="g538">
		<g
   id="g536">
			<line
   class="st6"
   x1="164.89999"
   y1="263.79999"
   x2="166.8"
   y2="261.79999"
   id="line530" />
			<g
   id="g534">
				<path
   class="st7"
   d="m 168.9,259.7 c -0.6,1.4 -1.2,3.3 -1.3,4.7 l -1.1,-2.3 -2.3,-1.1 c 1.5,-0.1 3.4,-0.7 4.7,-1.3 z"
   id="path532" />
			</g>
		</g>
	</g>
	<g
   id="g548">
		<g
   id="g546">
			<line
   class="st6"
   x1="156.2"
   y1="291.39999"
   x2="154.3"
   y2="293.29999"
   id="line540" />
			<g
   id="g544">
				<path
   class="st7"
   d="m 152.2,295.4 c 0.6,-1.4 1.2,-3.3 1.3,-4.7 l 1.1,2.3 2.3,1.1 c -1.5,0.1 -3.4,0.7 -4.7,1.3 z"
   id="path542" />
			</g>
		</g>
	</g>
	<g
   id="g558">
		<g
   id="g556">
			<line
   class="st6"
   x1="94.5"
   y1="193.3"
   x2="94.5"
   y2="196.10001"
   id="line550" />
			<g
   id="g554">
				<path
   class="st7"
   d="m 94.5,199.1 c -0.5,-1.4 -1.4,-3.2 -2.4,-4.3 l 2.4,0.9 2.4,-0.9 c -1,1.1 -1.9,2.9 -2.4,4.3 z"
   id="path552" />
			</g>
		</g>
	</g>
	<g
   id="g568">
		<g
   id="g566">
			<line
   class="st6"
   x1="94.5"
   y1="109.3"
   x2="94.5"
   y2="112.1"
   id="line560" />
			<g
   id="g564">
				<path
   class="st7"
   d="m 94.5,115.1 c -0.5,-1.4 -1.4,-3.2 -2.4,-4.3 l 2.4,0.9 2.4,-0.9 c -1,1.1 -1.9,2.8 -2.4,4.3 z"
   id="path562" />
			</g>
		</g>
	</g>
	<g
   id="g578">
		<g
   id="g576">
			<line
   class="st6"
   x1="94.5"
   y1="361.39999"
   x2="94.5"
   y2="364.10001"
   id="line570" />
			<g
   id="g574">
				<path
   class="st7"
   d="M 94.5,367.2 C 94,365.8 93.1,364 92.1,362.9 l 2.4,0.9 2.4,-0.9 c -1,1.1 -1.9,2.8 -2.4,4.3 z"
   id="path572" />
			</g>
		</g>
	</g>
	<g
   id="g588">
		<g
   id="g586">
			<line
   class="st6"
   x1="94.5"
   y1="445.39999"
   x2="94.5"
   y2="448.20001"
   id="line580" />
			<g
   id="g584">
				<path
   class="st7"
   d="M 94.5,451.2 C 94,449.8 93.1,448 92.1,446.9 l 2.4,0.9 2.4,-0.9 c -1,1.1 -1.9,2.9 -2.4,4.3 z"
   id="path582" />
			</g>
		</g>
	</g>
</g>
</svg>
