<?xml version="1.0" encoding="utf-8"?>
<!-- Generator: Adobe Illustrator 20.1.0, SVG Export Plug-In . SVG Version: 6.00 Build 0)  -->
<svg version="1.1" id="Layer_1" xmlns="http://www.w3.org/2000/svg" xmlns:xlink="http://www.w3.org/1999/xlink" x="0px" y="0px"
	 viewBox="0 0 476.7 541" style="enable-background:new 0 0 476.7 541;" xml:space="preserve">
<style type="text/css">
	.st0{fill:#2BB673;}
	.st1{font-family:'SourceSansPro-Regular';}
	.st2{font-size:9px;}
	.st3{font-size:7px;}
	.st4{fill:#FFFFFF;}
	.st5{fill:none;stroke:#000000;stroke-miterlimit:10;}
	.st6{fill:none;stroke:#AAAAAA;stroke-miterlimit:10;}
	.st7{fill:#AAAAAA;}
</style>
<g id="Layer_2">
	<rect id="CoonLab" x="329.3" y="167.2" class="st0" width="90" height="44"/>
	<polygon id="Floor3S" class="st0" points="145.5,49.4 203.5,49.4 203.5,19.4 145.5,19.4 88.5,19.4 88.5,49.4 	"/>
	<polygon id="Floor4S" class="st0" points="374.3,51.2 431.3,51.2 431.3,19.2 374.3,19.2 316.3,19.2 316.3,51.2 	"/>
	<rect id="Halverson" x="431.3" y="303.2" class="st0" width="37" height="43"/>
	<rect id="BeerCave" x="279.3" y="304.2" class="st0" width="37" height="41"/>
	<polygon id="Floor4AtriumS" class="st0" points="362.8,305.2 362.9,305.2 396,305.2 396,285.2 362.9,285.2 362.8,285.2 
		329.7,285.2 329.7,305.2 	"/>
	<polygon id="Floor4AtriumN" class="st0" points="407.2,305.2 418.3,305.2 418.3,285.2 407.2,285.2 396,285.2 396,305.2 	"/>
	<rect id="Jones" x="50.5" y="303.4" class="st0" width="38" height="42"/>
	<rect id="Reception" x="125.5" y="255.4" class="st0" width="66" height="43"/>
	<polygon id="DiningArea" class="st0" points="240.5,298.4 191,298.4 191,229 203.5,229 203.5,235.4 240.5,235.4 	"/>
	<polygon id="EvansS" class="st0" points="145.5,108.4 190.5,108.4 190.5,49.4 145.5,49.4 100.5,49.4 100.5,108.4 	"/>
	<polygon id="EvansN" class="st0" points="126.5,151.4 126.5,162.4 165.5,162.4 165.5,151.4 190.5,151.4 190.5,108.4 165.5,108.4 
		126.5,108.4 100.5,108.4 100.5,151.4 	"/>
	<rect id="GenesOffice" x="203.3" y="394.3" class="st0" width="37.2" height="22.4"/>
	<rect id="YongsOffice" x="203.3" y="416.8" class="st0" width="37.2" height="33.5"/>
	<polygon id="Floor3AtriumC" class="st0" points="206,346.6 191,346.6 191,342.4 158.5,342.4 158.5,298.4 206,298.4 	"/>
	<polygon id="Floor3AtriumE" class="st0" points="134,342.4 88.5,342.4 88.5,303.4 105.8,303.4 105.8,298.4 134,298.4 	"/>
	<polygon id="Floor3N" class="st0" points="146.5,526.4 203.5,526.4 203.5,502.4 146.5,502.4 88.5,502.4 88.5,526.4 	"/>
	<polygon id="Floor4N" class="st0" points="374.3,526.2 431.3,526.2 431.3,502.2 374.3,502.2 316.3,502.2 316.3,526.2 	"/>
</g>
<g id="Layer_3">
	<path d="M278.4,19c0.4-0.1,0.8-0.1,1.2-0.2c0.8,0,1.6,0,2.4,0c44.3,0,88.6,0,132.9,0c16.9-0.4,33.7-0.1,50.6-0.2c0.8,0,1.6,0,2.4,0
		c0.3,0,0.6,0.2,0.9,0.3c0.1,0.4,0.2,0.7,0.2,1c0,0.6,0,1.3,0,1.9c0,167.3,0,334.5,0,501.8c0,1,0.1,2.1-0.2,3.2
		c-0.4,0.1-0.7,0.2-1.1,0.3c-0.7,0-1.4,0-2.2,0c-61.4,0-122.9,0-184.3,0c-0.9,0-1.9,0.1-2.7-0.1c-0.5-0.3-0.5-0.7-0.5-1.1
		c0-0.8,0-1.6,0-2.4c0-167,0-334,0-501.1c0-0.8,0-1.6,0-2.4C278.2,19.7,278.3,19.4,278.4,19z M280,344.7c1,0.4,1.9,0.2,2.7,0.2
		c10.2,0,20.5,0,30.7,0c0.7,0,1.4,0,2.2,0c0.4,0,0.7,0.2,1.2,0.3c0.2,1.1,0.1,2.1,0.1,3.2c0,57.7,0,115.3,0,173c0,0.9,0,1.8,0,2.6
		c0,0.4,0.2,0.8,0.2,1.1c1.1,0.4,2.2,0.2,3.2,0.2c35.5,0,71,0,106.5,0c0.7,0,1.4,0,2.2,0c0.4,0,0.7-0.2,1.1-0.3
		c0.2-1.1,0.2-2.2,0.2-3.2c0-166.1,0-332.1,0-498.2c0-0.7,0-1.4,0-2.2c0-0.4,0-0.8-0.5-1.3c-0.5-0.2-1.2-0.2-1.9-0.2
		c-4.1,0.1-8.2,0.2-12.2,0.2c-31.7,0-63.4,0-95,0c-0.8,0-1.6,0-2.4,0c-0.4,0-0.8,0-1.2,0.5c0,0.2-0.1,0.5-0.1,0.8c0,0.9,0,1.8,0,2.6
		c0,91.8,0,183.7,0,275.5c0,1.2,0,2.4,0,3.6c0,0.4-0.2,0.7-0.3,1c-1,0.3-1.9,0.2-2.7,0.2c-10.2,0-20.3,0-30.5,0c-0.7,0-1.4,0-2.2,0
		c-0.4,0-0.8,0.1-1.1,0.2c-0.4,0.9-0.3,1.8-0.3,2.7c0,6.7,0,13.4,0,20.2c0,4.9,0,9.8,0,14.6C279.7,343,279.5,343.9,280,344.7z
		 M315,395.7c0.1-0.4,0.3-0.7,0.3-0.9c0-15.7,0-31.3,0-47c0-0.3-0.1-0.6-0.1-0.9c-0.8-0.6-1.6-0.4-2.4-0.4c-4.7,0-9.4,0-14.1,0
		c-5.4,0-10.9,0-16.3,0c-0.8,0-1.6-0.2-2.4,0.3c-0.4,0.8-0.2,1.6-0.2,2.5c0,14.5,0,29.1,0,43.6c0,0.6,0,1.1,0,1.7
		c0,0.4,0.2,0.7,0.4,1c2.3,0.3,25,0.4,33.4,0.2C314,395.8,314.5,395.8,315,395.7z M432.2,145.5c0.9,0.3,1.8,0.2,2.7,0.2
		c9.9,0,19.8,0,29.7,0c0.6,0,1.1,0,1.7,0c0.4,0,0.7-0.2,1.2-0.3c0-0.7,0.1-1.3,0.1-2c0-1.6,0-3.2,0-4.8c0-12.7,0-25.4,0-38.1
		c0-0.6,0-1.3,0-1.9c0-0.4,0-0.8-0.6-1.2c-0.6-0.2-1.4-0.1-2.2-0.1c-10.1,0-20.1,0-30.2,0c-0.5,0-1,0-1.4,0s-0.7,0.2-1.1,0.3
		c-0.3,1-0.2,1.8-0.2,2.7c0,11.1,0,22.2,0,33.3c0,3.2,0,6.4,0,9.6C431.9,143.9,431.7,144.7,432.2,145.5z M431.9,20.6
		c0,0.9,0,1.7,0,2.5c0,12,0,24,0,35.9c0,0.5,0,1,0,1.4s0,0.8,0.5,1.2c0.7,0.3,1.5,0.2,2.4,0.2c10,0,20,0,30,0c0.6,0,1.1,0,1.7,0
		c0.4,0,0.7-0.2,1.1-0.4c0-0.9,0-1.8,0-2.7c0-11.8,0-23.6,0-35.5c0-0.6,0-1.1,0-1.7c0-0.4-0.1-0.8-0.2-1c-0.9-0.5-1.7-0.3-2.5-0.3
		c-10.1,0-20.3,0-30.4,0c-0.6,0-1.1,0-1.7,0.1C432.6,20.3,432.4,20.4,431.9,20.6z M280,20.5c-0.5,1.2-0.3,2.1-0.3,3.1
		c0,11.7,0,23.3,0,35c0,0.6,0,1.3,0,1.9c0,0.4,0,0.8,0.5,1.2c0.7,0.3,1.6,0.1,2.4,0.1c9.9,0,19.8,0,29.7,0c0.6,0,1.1,0,1.7,0
		c0.4,0,0.8-0.1,1.1-0.5c0.3-0.8,0.1-1.7,0.1-2.5c0-11.8,0-23.7,0-35.5c0-0.6,0-1.1,0-1.7c0-0.3-0.1-0.6-0.2-0.8
		c-0.2-0.1-0.4-0.3-0.5-0.3c-10.8,0-21.6-0.1-32.4-0.1C281.6,20.4,280.9,20.4,280,20.5z M432.2,304.3c-0.5,1-0.3,1.9-0.3,2.8
		c0,11.8,0,23.7,0,35.5c0,0.6,0,1.1,0,1.7c0,0.4,0.2,0.7,0.3,1.1c1,0.4,2,0.3,2.9,0.3c9.8,0,19.5,0,29.2,0c0.6,0,1.3,0,1.9,0
		c0.4,0,0.8,0,1.2-0.6c0.2-0.7,0.1-1.5,0.1-2.4c0-11.9,0-23.8,0-35.7c0-0.5,0-1,0-1.4s0-0.8-0.4-1.1c-0.1,0-0.4-0.2-0.6-0.2
		c-11.1,0-22.2,0-33.3,0C432.9,304.1,432.6,304.2,432.2,304.3z M315.2,525.2c0-0.8,0.1-1.5,0.1-2.3c0-11.6,0-23.2,0-34.7
		c0-0.5,0-1,0-1.4s-0.2-0.7-0.3-1.1c-1-0.4-1.8-0.3-2.7-0.3c-9.9,0-19.8,0-29.7,0c-0.6,0-1.1,0-1.7,0c-0.4,0-0.7,0.2-1.1,0.3
		c-0.3,0.9-0.2,1.7-0.2,2.5c0,11.5,0,23,0,34.5c0,0.5,0,1,0,1.4s0,0.8,0.5,1.2c0.2,0,0.5,0.1,0.8,0.1c11.1,0,22.2,0,33.3,0
		C314.5,525.5,314.8,525.3,315.2,525.2z M432.1,485.6c-0.4,1.1-0.3,2.1-0.3,3c0,11.2,0,22.4,0,33.6c0,0.6,0,1.3,0,1.9
		c0,0.4,0,0.8,0.5,1.2c0.7,0.2,1.6,0.1,2.4,0.1c9.9,0,19.8,0,29.8,0c0.6,0,1.1,0,1.7,0c0.4,0,0.8,0,1.2-0.5c0.3-0.7,0.1-1.6,0.1-2.4
		c0-11.4,0-22.9,0-34.3c0-0.5,0-1,0-1.4s0-0.8-0.4-1.1c-0.2,0-0.4-0.2-0.6-0.2c-11.1,0-22.2,0-33.4,0
		C432.9,485.5,432.6,485.6,432.1,485.6z M467.4,347.4c-1-0.4-1.9-0.3-2.7-0.3c-9.9,0-19.8,0-29.8,0c-0.6,0-1.1,0-1.7,0
		c-0.4,0-0.8,0-1.2,0.5c-0.3,0.7-0.1,1.6-0.2,2.5c0,9.5,0,19,0,28.6c0,0.6,0,1.1,0,1.7c0,0.4,0.2,0.7,0.2,1.1
		c0.9,0.4,1.8,0.2,2.7,0.2c9.9,0,19.8,0,29.8,0c0.6,0,1.3,0,1.9,0c0.3,0,0.6-0.2,1-0.3c0.1-0.6,0.1-1.1,0.2-1.7
		C467.8,366.5,467.7,349.8,467.4,347.4z M467.5,302c0.2-1.3,0.1-2.6,0.1-3.9c0-8.9,0-17.8,0-26.6c0-0.7,0-1.4,0-2.2
		c0-0.4-0.2-0.7-0.3-1.1c-0.9-0.3-1.7-0.2-2.5-0.2c-10.1,0-20.2,0-30.2,0c-0.5,0-1,0-1.4,0s-0.7,0.2-1,0.3c-0.4,0.9-0.3,1.7-0.3,2.5
		c0,9.6,0,19.2,0,28.8c0,0.5,0,1,0,1.4s0.2,0.7,0.3,1.2c0.8,0,1.5,0.1,2.2,0.1c2.9,0,5.8,0,8.6,0c7.2,0,14.4,0,21.6,0
		C465.5,302.3,466.4,302.5,467.5,302z M432.2,417.3c-0.4,0.9-0.3,1.7-0.3,2.5c0,9.2,0,18.4,0,27.6c0,0.5,0,1,0,1.4s0.1,0.8,0.5,1.1
		c0.8,0.3,1.7,0.1,2.6,0.1c9.8,0,19.7,0,29.5,0c0.6,0,1.3,0,1.9,0c0.3,0,0.6-0.1,0.9-0.2c0.4-0.9,0.3-1.8,0.3-2.6
		c0-9.1,0-18.2,0-27.4c0-0.5,0-1,0-1.4s0-0.8-0.4-1.1c-0.1,0-0.4-0.2-0.6-0.2c-11.2,0-22.4,0-33.6,0
		C432.7,417.1,432.5,417.2,432.2,417.3z M432.1,232.2c0.9,0.5,1.8,0.3,2.7,0.3c9.4,0,18.7,0,28.1,0c1.1,0,2.2,0,3.4,0
		c0.4,0,0.8-0.1,1-0.2c0.5-0.8,0.4-1.5,0.4-2.2c0-8.9,0-17.9,0-26.8c0-0.7,0-1.4,0-2.2c0-0.4-0.1-0.8-0.2-1.1
		c-0.8-0.5-1.7-0.4-2.4-0.4c-10.1,0-20.3,0-30.4,0c-0.5,0-1,0-1.4,0c-0.3,0-0.6,0.1-0.9,0.2c-0.5,0.9-0.3,1.8-0.3,2.6
		c0,8.6,0,17.3,0,25.9c0,0.9,0,1.8,0,2.6C431.9,231.4,432,231.8,432.1,232.2z M467.1,234c-0.8,0-1.7,0-2.6,0c-9.6,0-19.2,0-28.8,0
		c-0.8,0-1.6,0-2.4,0c-0.4,0-0.8,0-1.3,0.4c-0.3,0.7-0.2,1.5-0.2,2.4c0,8.9,0,17.7,0,26.6c0,0.6,0,1.1,0,1.7c0,0.4,0,0.8,0.5,1.2
		c0.7,0.3,1.6,0.2,2.4,0.2c9.9,0,19.8,0,29.7,0c0.6,0,1.3,0,1.9,0c0.3,0,0.6-0.2,1-0.3c0-0.7,0.1-1.3,0.1-1.9c0-5.9,0-11.8,0-17.7
		c0-3.4,0-6.9,0-10.3C467.6,235.5,467.7,234.9,467.1,234z M467.4,451.9c-0.3-0.1-0.5-0.3-0.8-0.3c-0.6-0.1-1.3,0-1.9,0
		c-9.9,0-19.8,0-29.7,0c-0.6,0-1.3,0-1.9,0c-0.3,0-0.6,0.2-0.8,0.2c-0.4,0.9-0.3,1.8-0.3,2.7c0,8.8,0,17.6,0,26.4c0,0.6,0,1.1,0,1.7
		c0,0.4,0,0.8,0.5,1.2c0.7,0.3,1.6,0.2,2.4,0.2c9.9,0,19.8,0,29.7,0c0.6,0,1.3,0,1.9,0c0.3,0,0.6-0.2,0.9-0.3
		c0.4-1.9,0.2-3.7,0.2-5.5C467.8,464,467.7,453.8,467.4,451.9z M432.2,415.4c0.9,0,1.7,0.1,2.5,0.1c10,0,20,0,30,0
		c0.6,0,1.1,0,1.7,0c0.4,0,0.7-0.2,1.1-0.3c0.1-0.4,0.1-0.7,0.1-1c0-9.8,0-19.7,0-29.5c0-0.4,0-0.8-0.5-1.2
		c-0.7-0.3-1.6-0.2-2.4-0.2c-9.9,0-19.8,0-29.8,0c-0.6,0-1.1,0-1.7,0c-0.4,0-0.7,0.2-1.1,0.3c-0.1,0.4-0.2,0.7-0.2,1
		c0,0.6,0,1.1,0,1.7c0,8.8,0,17.6,0,26.4C431.9,413.4,431.7,414.3,432.2,415.4z M315.2,63.7c-0.4-0.1-0.7-0.2-1-0.3
		c-0.6,0-1.3,0-1.9,0c-9.8,0-19.7,0-29.5,0c-0.6,0-1.1,0-1.7,0c-0.4,0-0.8,0-1.2,0.5c-0.2,0.7-0.1,1.5-0.1,2.4c0,8.9,0,17.7,0,26.6
		c0,0.6,0,1.1,0,1.7c0,0.4,0.2,0.7,0.3,1c1,0.3,1.9,0.2,2.7,0.2c9.8,0,19.7,0,29.5,0c0.6,0,1.3,0,1.9,0c0.3,0,0.6-0.2,0.9-0.2
		c0.1-0.4,0.2-0.7,0.2-1C315.5,91.4,315.4,65.6,315.2,63.7z M467.1,95.6c0.5-0.5,0.5-0.9,0.5-1.3c0-1.1,0-2.2,0-3.4c0-8,0-16,0-24
		c0-0.7,0-1.4,0-2.2c0-0.4-0.2-0.7-0.2-1.1c-1-0.5-1.8-0.3-2.7-0.3c-9.9,0-19.8,0-29.8,0c-0.6,0-1.1,0-1.7,0c-0.4,0-0.8,0-1.2,0.5
		c-0.3,0.7-0.2,1.6-0.2,2.5c0,8.8,0,17.6,0,26.4c0,0.6,0,1.1,0,1.7c0,0.4,0.1,0.8,0.6,1.1c0.4,0,1,0.1,1.5,0.1
		C446.6,95.9,464.7,95.9,467.1,95.6z M432.1,197.8c1.1,0.4,2,0.3,2.9,0.3c9.8,0,19.7,0,29.5,0c0.6,0,1.3,0,1.9,0
		c0.4,0,0.7-0.2,1-0.3c0.3-1,0.2-1.9,0.2-2.7c0-8.8,0-17.6,0-26.4c0-0.6,0-1.1,0-1.7c0-0.4-0.2-0.7-0.2-1.1c-1-0.4-2-0.3-2.9-0.3
		c-9.7,0-19.5,0-29.2,0c-0.6,0-1.3,0-1.9,0c-0.4,0-0.8,0-1.2,0.5c-0.2,0.7-0.1,1.5-0.1,2.4c0,7.8,0,15.7,0,23.5c0,1.4,0,2.9,0,4.3
		C431.9,196.9,432,197.3,432.1,197.8z M315,279.4c-0.6-0.1-1.1-0.1-1.6-0.1c-10.6,0-21.1,0-31.7,0c-0.4,0-0.8,0-1.2,0.1
		c-0.2,0-0.4,0.2-0.7,0.3c-0.1,0.3-0.2,0.6-0.2,0.9c0,7.2,0,14.4,0,21.6c0,0.2,0.1,0.4,0.2,0.7c0.8,0.5,1.7,0.3,2.6,0.3
		c10,0,20,0,30,0c0.5,0,1,0,1.4,0s0.8-0.2,1.1-0.2c0.1-0.3,0.2-0.6,0.2-0.8c0-7.3,0-14.5,0-21.8C315.3,280,315.2,279.8,315,279.4z
		 M315.2,440.5c-1-0.5-1.9-0.3-2.8-0.3c-9.9,0-19.8,0-29.7,0c-0.6,0-1.3,0-1.9,0c-0.3,0-0.6,0.2-0.9,0.2c-0.4,0.8-0.3,1.6-0.3,2.4
		c0,4.9,0,9.9,0,14.8c0,0.8,0,1.6,0,2.4c0,0.4,0,0.8,0.6,1.2c0.5,0,1.1,0.1,1.7,0.1c10.3,0,20.6,0,30.9,0c0.4,0,0.8,0,1.2,0
		c0.4-0.1,0.7-0.2,1.1-0.3c0.1-0.3,0.2-0.6,0.2-0.8c0-6.2,0-12.5,0-18.7C315.3,441.2,315.3,440.9,315.2,440.5z M315.2,211.3
		c-1.1-0.4-2-0.3-2.9-0.3c-9.8,0-19.7,0-29.5,0c-0.6,0-1.1,0-1.7,0c-0.4,0-0.8,0.1-1.1,0.2c-0.6,0.8-0.4,1.7-0.4,2.4
		c0,4.7,0,9.4,0,14.1c0,1.1,0,2.2,0,3.4c0,0.4,0.1,0.7,0.2,1.1c0.9,0.4,1.8,0.3,2.7,0.3c9.9,0,19.8,0,29.7,0c0.6,0,1.1,0,1.7,0
		c0.4,0,0.7-0.2,1.1-0.2c0.3-1.8,0.4-7.2,0.3-19C315.3,212.6,315.2,212,315.2,211.3z M280.1,438.5c0.9,0,1.8,0.1,2.6,0.1
		c9.8,0,19.6,0,29.5,0c0.6,0,1.3,0,1.9,0c0.4,0,0.7-0.2,1.1-0.4c0-0.5,0.1-0.9,0.1-1.3c0-6.2,0-12.5,0-18.7c0-0.2-0.1-0.5-0.2-0.8
		c-0.3-0.1-0.6-0.3-0.8-0.3c-0.6-0.1-1.3,0-1.9,0c-9.9,0-19.8,0-29.7,0c-0.6,0-1.1,0-1.7,0c-0.4,0-0.7,0.2-1.1,0.3
		c-0.1,0.5-0.2,0.9-0.2,1.3c0,6.4,0,12.8,0.1,19.2C279.8,438,279.9,438.1,280.1,438.5z M315.2,118.7c0-0.9,0.1-1.5,0.1-2.2
		c0-2,0-4,0-6c0-3.7,0-7.3,0-11c0-0.6,0.1-1.3-0.4-1.9c-0.7-0.3-1.6-0.2-2.5-0.2c-9.9,0-19.8,0-29.7,0c-0.6,0-1.1,0-1.7,0
		c-0.4,0-0.7,0.2-1.2,0.3c-0.1,0.7-0.1,1.3-0.1,1.9c0,5.7,0,11.3,0,17c0,0.3,0,0.6,0,1s0.1,0.8,0.5,1.1c0.8,0.3,1.7,0.1,2.5,0.1
		c8.1,0,16.1,0,24.2,0c2.2,0,4.3,0,6.5,0C314,118.9,314.5,118.8,315.2,118.7z M279.9,141.1c1.1,0.4,2,0.3,2.9,0.3
		c9.8,0,19.6,0,29.5,0c0.6,0,1.3,0,1.9,0c0.4,0,0.7-0.2,1.1-0.3c0-0.6,0.1-1,0.1-1.5c0-1.4,0-2.7,0-4.1c0-4.3,0-8.6,0-12.9
		c0-0.6,0.2-1.3-0.4-1.9c-0.7-0.3-1.6-0.2-2.5-0.2c-9.9,0-19.8,0-29.7,0c-0.6,0-1.1,0-1.7,0c-0.4,0-0.7,0.2-1.1,0.3
		c-0.4,1.9-0.4,7-0.3,18.5C279.7,139.8,279.8,140.4,279.9,141.1z M315.2,188.7c-0.8-0.6-1.7-0.4-2.4-0.4c-10.1,0-20.3,0-30.4,0
		c-0.4,0-0.8,0-1.2,0s-0.8,0-1.2,0.4c0,0.1-0.2,0.4-0.2,0.6c0,6.4,0,12.8,0,19.2c0,0.2,0.1,0.4,0.2,0.7c0.7,0.4,1.6,0.3,2.3,0.3
		c10.1,0,20.3,0,30.4,0c0.6,0,1.1,0,1.7-0.1c0.2,0,0.4-0.2,0.7-0.3c0.1-0.3,0.2-0.6,0.2-0.9C315.5,205.2,315.4,190.3,315.2,188.7z
		 M314.8,277.6c0.6-0.7,0.5-1.2,0.5-1.6c0.2-7.9,0.1-17-0.2-19c-0.3-0.1-0.5-0.2-0.8-0.3c-0.6-0.1-1.3,0-1.9,0c-9.9,0-19.8,0-29.7,0
		c-0.6,0-1.1,0-1.7,0c-0.4,0-0.7,0.2-1.1,0.3c-0.1,0.4-0.2,0.7-0.2,1c0,6.1,0,12.1,0,18.2c0,0.1,0,0.2,0,0.2c0.1,0.4,0.3,0.7,0.4,1
		c2.3,0.3,17.2,0.4,32.9,0.2C313.6,277.7,314.3,277.7,314.8,277.6z M279.9,483.6c0.8,0.5,1.7,0.3,2.6,0.3c10,0,20,0,29.9,0
		c0.6,0,1.1,0,1.7,0c0.4,0,0.8-0.1,1.1-0.6c0-0.6,0.1-1.3,0.1-2c0-2.7,0-5.4,0-8.1c0-2.8,0-5.6,0-8.4c0-0.5,0.1-1.1-0.4-1.6
		c-0.8-0.4-1.7-0.2-2.5-0.2c-9.9,0-19.8,0-29.7,0c-0.6,0-1.1,0-1.7,0c-0.4,0-0.7,0.2-1.1,0.3c-0.1,0.5-0.2,0.9-0.2,1.3
		c0,6.1,0,12.3,0,18.4C279.7,483.1,279.9,483.4,279.9,483.6z M315.1,234.2c-1-0.3-1.8-0.2-2.6-0.2c-10,0-20,0-30,0c-0.5,0-1,0-1.4,0
		s-0.8,0.1-1.1,0.2c-0.4,0.8-0.3,1.7-0.3,2.4c0,5.2,0,10.4,0,15.6c0,0.6,0,1.1,0,1.7c0,0.4,0.1,0.8,0.6,1.2c0.7,0.2,1.6,0.1,2.4,0.1
		c9.8,0,19.7,0,29.5,0c0.6,0,1.3,0,1.9,0c0.4,0,0.7-0.2,1-0.3c0.2-1.7,0.3-16.5,0.2-19.5C315.3,235,315.2,234.7,315.1,234.2z
		 M315.2,186.4c0-0.9,0.1-1.6,0.1-2.3c0-3,0-6.1,0-9.1c0-2.6,0-5.1,0-7.7c0-0.5-0.2-0.9-0.2-1.3c-1-0.5-1.8-0.3-2.7-0.3
		c-9.9,0-19.8,0-29.7,0c-0.6,0-1.1,0-1.7,0c-0.4,0-0.7,0.2-1,0.3c-0.4,0.9-0.2,1.7-0.2,2.5c0,4.4,0,8.8,0,13.2c0,1.2,0,2.4,0,3.6
		c0,0.4,0,0.8,0.5,1.2c0.7,0.3,1.6,0.2,2.4,0.2c9.9,0,19.8,0,29.7,0c0.6,0,1.1,0,1.7,0C314.4,186.6,314.7,186.5,315.2,186.4z
		 M315.2,163.8c0-0.9,0.1-1.6,0.1-2.3c0-3.4,0-6.7,0-10.1c0-2.2,0-4.5,0-6.7c0-0.5-0.2-0.9-0.3-1.3c-0.8-0.4-1.5-0.3-2.3-0.3
		c-10.2,0-20.5,0-30.7,0c-0.4,0-0.8,0-1.2,0c-0.4,0.1-0.7,0.2-1.1,0.3c-0.3,0.9-0.2,1.7-0.2,2.5c0,4.9,0,9.7,0,14.6
		c0,0.7,0,1.4,0,2.2c0,0.4,0.2,0.7,0.3,1c1,0.4,1.9,0.3,2.7,0.3c9.9,0,19.8,0,29.7,0c0.6,0,1.1,0,1.7,0
		C314.4,164.1,314.7,164,315.2,163.8z M279.9,397.7c-0.3,0.9-0.2,1.7-0.2,2.5c0,3.8,0,7.5,0,11.3c0,1,0,1.9,0,2.9
		c0,0.4,0.2,0.7,0.3,1c1,0.4,1.9,0.2,2.7,0.2c9.8,0,19.7,0,29.5,0c0.6,0,1.3,0,1.9,0c0.4,0,0.7-0.2,1-0.3c0.1-0.3,0.1-0.4,0.1-0.6
		c0-5.4,0-10.7,0-16.1c0-0.3-0.2-0.6-0.3-1c-0.6-0.1-1.2-0.2-1.7-0.2c-2.3,0-4.6,0-7,0c-7.9,0-15.8,0-23.7,0
		C281.8,397.4,280.9,397.2,279.9,397.7z M467.4,163.8c0.1-0.4,0.2-0.6,0.2-0.8c0-4.9,0-9.7,0-14.6c0-0.3-0.2-0.6-0.3-1
		c-0.6-0.1-1.2-0.1-1.7-0.1c-10.5,0-21.1,0-31.6,0c-0.4,0-0.8,0-1.2,0.1c-0.2,0-0.4,0.2-0.6,0.2c-0.4,0.6-0.3,1.3-0.3,1.9
		c0,3.4,0,6.9,0,10.3c0,1,0,2.1,0,3.1c0,0.4,0.2,0.7,0.3,1c0.9,0.3,1.7,0.2,2.5,0.2c4.2,0,8.3,0,12.5,0c5.8,0,11.7,0,17.5,0
		C465.5,164.1,466.4,164.2,467.4,163.8z"/>
	<path d="M49.9,18.8c0.3-0.1,0.6-0.2,0.9-0.2c0.5,0,1,0,1.4,0c0.7,0,1.4,0,2.2,0c60,0,120,0.1,180,0.1c1.7,0,3.4,0,5,0.1
		c0.5,0,0.9,0.1,1.5,0.2c0.1,0.5,0.2,0.8,0.2,1.2c0,0.7,0,1.4,0,2.2c0,167.3,0,334.5,0,501.8c0,1,0.2,2.1-0.1,2.9
		c-0.4,0.5-0.8,0.5-1.2,0.5c-0.7,0-1.4,0-2.2,0c-61.5,0-123,0-184.5,0c-1,0-2.1,0.1-2.9-0.1c-0.5-0.5-0.5-0.9-0.5-1.3
		c0-0.6,0-1.3,0-1.9c0-167.4,0-334.8,0-502.2C49.7,20.9,49.5,19.8,49.9,18.8z M239.2,299.3c-0.4-0.1-0.7-0.2-1.1-0.2
		c-1.3,0-2.6-0.1-3.8-0.1c-8.4,0-16.8,0-25.2,0c-0.8,0-1.6,0-2.4,0c-0.3,0-0.6-0.2-0.9-0.3c0-0.4,0.1-0.6,0.1-0.9
		c0.9-0.5,1.7-0.3,2.5-0.3c9.6,0,19.2,0,28.8,0c0.7,0,1.4,0.1,2.1-0.3c0.6-0.8,0.3-1.7,0.3-2.5c0-18.7,0-37.4,0-56.2
		c0-0.6,0-1.1,0-1.7c0-0.4-0.2-0.7-0.3-1.2c-0.7,0-1.3-0.1-2-0.1c-0.9,0-1.8,0-2.6,0c-9.8,0-19.5,0-29.3,0c-0.6,0-1.1,0-1.7,0
		c-0.4,0-0.8-0.1-1.1-0.6c-0.3-0.9-0.1-2-0.1-3c0-69.5,0-139,0-208.5c0-0.7,0-1.4,0-2.2c0-0.4-0.1-0.8-0.5-1.1
		c-0.9-0.3-1.9-0.1-3-0.1c-35.4,0-70.9,0-106.3,0c-0.7,0-1.4,0-2.2,0c-0.4,0-0.8,0-1.3,0.5c-0.3,0.8-0.1,1.9-0.1,2.9
		c0,79.8,0,159.7,0,239.5c0,0.7,0,1.4,0,2.2c0,0.4,0.2,0.7,0.2,1.1c1,0.5,1.8,0.3,2.7,0.3c10.3,0,20.6,0,31,0c0.7,0,1.4,0,2.2,0
		c0.4,0,0.7,0.2,1.1,0.4c0,1,0,1.8,0,2.7c0,8.2,0,16.5,0,24.7c0,0.6,0,1.3,0,1.9c0,0.4,0.2,0.7,0.4,1.2c1,0,1.8,0,2.7,0
		c5.8,0,11.5,0,17.3,0c0.7,0,1.4-0.2,2.1,0.3c0.1,0.2,0.2,0.3,0.2,0.4s-0.1,0.3-0.1,0.5c-0.3,0.1-0.5,0.2-0.9,0.2
		c-0.8,0-1.6,0-2.4,0c-11.8,0-23.7,0-35.5,0c-0.7,0-1.4,0-2.2,0c-0.3,0-0.6,0.1-1,0.2c-0.1,0.4-0.2,0.8-0.2,1.2c0,0.8,0,1.6,0,2.4
		c0,0.4-0.2,0.7-0.2,1c-0.9,0.4-1.7,0.3-2.5,0.3c-4.2,0-8.5,0-12.7,0c-0.6,0-1.3-0.1-1.8,0.3c-0.1,0.1-0.2,0.3-0.2,0.4
		c0,73-0.1,146.1-0.1,219.1c0,0.5,0.1,0.9,0.1,1.5c0.3,0.1,0.6,0.3,0.9,0.3c0.7,0.1,1.4,0,2.2,0c35.7,0,71.4,0,107,0
		c0.6,0,1.3,0,1.9,0c0.4,0,0.8-0.1,1.1-0.6c0.2-0.9,0.1-1.9,0.1-2.9c0-57.6,0-115.2,0-172.8c0-0.8,0-1.6,0-2.4
		c0-0.3,0.1-0.6,0.2-0.9c0.9-0.5,1.8-0.3,2.6-0.3c10.2,0,20.5,0,30.7,0c0.7,0,1.4,0,2.2,0c0.4,0,0.8,0,1.1-0.3
		c0.4-0.5,0.3-1.1,0.3-1.6c0-14.2,0-28.5,0-42.7c0-0.4,0-0.8-0.1-1.2C239.5,299.8,239.4,299.6,239.2,299.3z M239.5,94.5
		c-0.6-0.1-1-0.2-1.4-0.2c-1.2,0-2.4-0.1-3.6-0.1c-9.2,0-18.4,0-27.6,0c-0.6,0-1.1,0-1.7,0c-0.4,0-0.8,0.1-1.1,0.6
		c-0.3,0.8-0.1,1.8-0.1,2.7c0,14.9,0,29.8,0,44.6c0,0.7,0,1.4,0,2.2c0,0.4,0.2,0.7,0.3,1c1,0.4,1.9,0.2,2.7,0.2c6.6,0,13.1,0,19.7,0
		c3.6,0,7.2,0.1,10.8,0.1c0.6,0,1.3,0.1,1.8-0.4c0.1-0.2,0.2-0.3,0.2-0.4c0-16.2,0.1-32.3,0.1-48.5
		C239.6,95.8,239.5,95.3,239.5,94.5z M87.6,396.3c0.1-0.4,0.3-0.7,0.3-1c0-0.6,0-1.3,0-1.9c0-14.5,0-28.9,0-43.4c0-0.7,0-1.4,0-2.2
		c0-0.4-0.1-0.8-0.2-1.1c-0.9-0.5-1.8-0.3-2.7-0.3c-10.2,0-20.5,0-30.7,0c-0.6,0-1.3,0-1.9,0c-0.3,0-0.6,0.2-0.9,0.2
		c-0.4,1-0.2,1.9-0.2,2.9c0,14.5,0,29.1,0,43.6c0,0.6,0,1.3,0,1.9c0,0.4,0.2,0.7,0.3,1.1c2.2,0.3,20,0.5,34.4,0.2
		C86.4,396.4,87,396.3,87.6,396.3z M51.6,302.3c0.9,0.4,1.8,0.2,2.7,0.2c10.5,0,21.1,0,31.6,0c0.8,0,1.6,0,2.4,0
		c5.1,0,10.2,0.1,15.3,0.1c0.4,0,0.8,0,1.3-0.5c0.2-0.6,0.1-1.5,0.1-2.4c0-9.5,0-19,0-28.5c0-0.6,0-1.1,0-1.7c0-0.4-0.2-0.7-0.2-1.1
		c-0.9-0.4-1.8-0.3-2.7-0.3c-7.7,0-15.3,0-23,0.1c-8.1,0-16.3,0-24.4,0c-0.7,0-1.4,0-2.2,0c-0.4,0-0.8,0.1-1.1,0.6
		c0,0.3-0.1,0.8-0.1,1.3c0,10.5,0,21.1,0.1,31.6C51.3,301.9,51.4,302,51.6,302.3z M51.4,20.3c-0.3,1.1-0.2,2-0.2,2.9
		c0,11.8,0,23.7,0,35.5c0,0.6,0,1.3,0,1.9c0,0.4,0.2,0.7,0.3,1c1,0.4,1.9,0.2,2.7,0.2c9.1,0,18.2,0,27.3,0c1.5,0,3,0,4.6,0
		c0.5,0,0.9-0.1,1.4-0.2c0.1-0.4,0.2-0.7,0.2-1c0-0.6,0-1.3,0-1.9c0-11.8,0-23.7,0-35.5c0-0.6,0-1.3,0-1.9c0-0.4-0.2-0.7-0.3-1
		c-1-0.4-1.9-0.2-2.7-0.2c-9.8,0-19.5,0-29.3,0c-1,0-1.9,0-2.9,0C52.3,20.1,51.9,20.2,51.4,20.3z M204.3,20.3
		c-0.5,1-0.3,1.9-0.3,2.8c0,11.9,0,23.8,0,35.7c0,0.6,0,1.1,0,1.7c0,0.4,0.2,0.7,0.3,1.1c0.6,0.1,1.2,0.1,1.7,0.1
		c10.6,0,21.3,0.1,31.9,0.1c0.5,0,1,0.1,1.5-0.5c0.2-0.7,0.1-1.7,0.1-2.7c0-11.8,0-23.5,0-35.3c0-0.6,0-1.3,0-1.9
		c0-0.4-0.2-0.7-0.3-1.1c-0.4-0.1-0.7-0.1-1-0.1c-11,0-21.9,0-32.9-0.1C205.1,20.2,204.7,20.3,204.3,20.3z M87.7,344.6
		c0.3-1,0.2-1.9,0.2-2.7c0-11.4,0-22.9,0-34.3c0-0.7,0-1.4,0-2.2c0-0.4,0-0.8-0.5-1.1c-0.8-0.3-1.7-0.2-2.5-0.2
		c-10.2,0-20.5,0-30.7,0c-0.6,0-1.3,0-1.9,0c-0.3,0-0.6,0.2-0.8,0.3c-0.3,0.8-0.2,1.7-0.2,2.4c0,11.7,0,23.5,0,35.2c0,0.5,0,1,0,1.4
		s0.2,0.7,0.3,1.1c0.4,0.1,0.7,0.2,1,0.2c11.4,0,22.8,0,34.3,0C87.1,344.8,87.3,344.7,87.7,344.6z M87.6,486.1
		c-0.9-0.4-1.8-0.3-2.7-0.3c-10.2,0-20.5,0-30.7,0c-0.6,0-1.1,0-1.7,0c-0.4,0-0.8,0-1.2,0.4c-0.4,0.6-0.2,1.3-0.2,2
		c0,11.7,0,23.5,0,35.2c0,0.3,0,0.6,0,1s0,0.8,0.5,1.2c0.7,0.3,1.5,0.1,2.4,0.1c10.3,0,20.6,0,30.9,0c0.5,0,1,0,1.4,0s0.8,0,1.2-0.5
		c0.3-0.7,0.1-1.6,0.1-2.4c0-11.3,0-22.5,0-33.8c0-0.7,0-1.4,0-2.2C87.8,486.7,87.7,486.4,87.6,486.1z M204.1,525.6
		c1.1,0.5,2,0.3,2.8,0.3c9.9,0,19.8,0,29.7,0c0.6,0,1.1,0,1.7,0c0.4,0,0.7-0.2,1.1-0.3c0.3-0.9,0.2-1.7,0.2-2.5
		c0-11.4,0-22.9,0-34.3c0-0.6,0-1.3,0-1.9c0-0.3-0.2-0.6-0.3-1c-0.7,0-1.5-0.1-2.2-0.1c-1.7,0-3.4,0-5,0c-8.2,0-16.3,0-24.5,0
		c-0.7,0-1.4,0-2.2,0c-0.4,0-0.8,0-1.1,0.3c-0.1,0.1-0.2,0.3-0.2,0.4c0,12.3-0.1,24.6-0.1,36.9C204,524.2,204,524.8,204.1,525.6z
		 M51.6,233.9c-0.6,0.8-0.3,1.7-0.3,2.5c0,9,0,18.1,0,27.1c0,0.6,0,1.3,0,1.9c0,0.3,0.2,0.6,0.2,0.8c0.9,0.5,1.8,0.4,2.7,0.4
		c10.3,0,20.6,0,30.9,0c0.5,0,1,0,1.4,0s0.8-0.2,1.1-0.2c0.5-0.9,0.3-1.8,0.3-2.7c0-9,0-18.1,0-27.1c0-0.6,0-1.1,0-1.7
		c0-0.4-0.2-0.7-0.3-1.1c-0.9-0.3-1.7-0.2-2.5-0.2c-4.5,0-9,0-13.4,0c-5.8,0-11.7,0-17.5,0C53.3,233.6,52.4,233.4,51.6,233.9z
		 M51.5,95.6c0.3,0.1,0.6,0.2,0.9,0.3c0.6,0,1.3,0,1.9,0c10.2,0,20.5,0,30.7,0c0.6,0,1.1,0,1.7,0c0.4,0,0.7-0.2,1.2-0.3
		c0-0.8,0.1-1.5,0.1-2.2c0-9,0-18.1,0-27.1c0-0.6,0-1.1,0-1.7c0-0.3-0.2-0.6-0.2-0.9c-0.9-0.5-1.8-0.3-2.6-0.3
		c-10.2,0-20.5,0-30.7,0c-0.6,0-1.1,0-1.7,0c-0.4,0-0.8,0-1.2,0.4c0,0.1-0.2,0.4-0.2,0.6c0,10.2,0,20.3,0,30.5
		C51.3,95,51.4,95.3,51.5,95.6z M51.5,166.1c-0.4,0.7-0.3,1.4-0.3,2.1c0,9.2,0,18.4,0,27.6c0,0.4,0,0.8,0,1.2c0,0.3,0.1,0.6,0.2,0.9
		c0.9,0.4,1.8,0.2,2.6,0.2c10.3,0,20.6,0,30.9,0c0.5,0,1,0,1.4,0s0.8,0,1.2-0.5c0.3-0.7,0.2-1.6,0.2-2.4c0-8.7,0-17.4,0-26.1
		c0-0.6,0-1.3,0-1.9c0-0.4,0-0.8-0.4-1.2c-0.5-0.4-1.2-0.2-1.8-0.2c-10.7,0-21.4,0-32.1,0c-0.5,0-1,0-1.4,0.1
		C51.9,165.9,51.7,166.1,51.5,166.1z M204.2,451.6c-0.4,1-0.3,1.8-0.3,2.6c0,9.1,0,18.2,0,27.3c0,0.5,0,1,0,1.4s0.2,0.7,0.3,1.1
		c0.6,0.1,1.2,0.1,1.7,0.1c10.6,0,21.2,0,31.9,0c0.5,0,0.9-0.1,1.4-0.2c0.4-0.9,0.3-1.8,0.3-2.7c0-9,0-18,0-27.1c0-0.6,0-1.3,0-1.9
		c0-0.3-0.2-0.6-0.3-0.9c-0.8-0.3-1.6-0.2-2.4-0.2c-9.8,0-19.6,0-29.5,0c-0.7,0-1.4,0-2.2,0C204.9,451.4,204.6,451.5,204.2,451.6z
		 M51.5,231.8c1.1,0.4,2.1,0.3,3,0.3c10,0,20,0,30,0c0.7,0,1.4,0,2.2,0c0.3,0,0.6-0.1,0.9-0.2c0.6-0.9,0.4-1.8,0.4-2.6
		c0-8.8,0-17.6,0-26.4c0-0.6,0-1.3,0-1.9c0-0.3-0.2-0.6-0.2-0.9c-0.9-0.4-1.8-0.2-2.7-0.2c-10.2,0-20.5,0-30.7,0c-0.6,0-1.1,0-1.7,0
		c-0.4,0-0.8,0-1.2,0.4c0,0.1-0.2,0.4-0.2,0.6c0,10.1,0,20.1,0,30.2C51.3,231.2,51.4,231.4,51.5,231.8z M239.4,417.8
		c-0.8-0.6-1.5-0.4-2.2-0.4c-9.9,0-19.8,0-29.8,0c-0.7,0-1.4,0-2.2,0c-0.4,0-0.8,0.1-1.1,0.5c-0.3,0.7-0.2,1.5-0.2,2.3
		c0,9,0,17.9,0,26.9c0,0.5,0,1,0,1.4s0.2,0.7,0.3,1.1c1,0.4,1.8,0.2,2.7,0.2c9.4,0,18.9,0,28.3,0c1,0,1.9,0,2.9,0
		c0.4,0,0.7-0.1,1.2-0.2c0.1-0.4,0.2-0.7,0.2-1C239.7,445.9,239.6,419.3,239.4,417.8z M204.3,92.4c0.2,0.1,0.5,0.2,0.7,0.2
		c11.2,0,22.4,0.1,33.6,0.1c0.2,0,0.4-0.1,0.6-0.2c0.5-0.8,0.4-1.6,0.4-2.4c0-8.1,0-16.2,0-24.2c0-0.4,0-0.8,0-1.2
		c-0.1-0.4-0.2-0.7-0.3-1.1c-0.9-0.3-1.7-0.2-2.5-0.2c-10,0-20,0-30,0c-0.5,0-1,0-1.4,0s-0.8,0.1-1.1,0.2c-0.4,0.7-0.3,1.4-0.3,2
		c0,8.2,0,16.5,0,24.7c0,0.5,0,1,0.1,1.4C204.1,92,204.2,92.2,204.3,92.4z M239.2,211.3c-0.2-0.1-0.3-0.2-0.5-0.2
		c-0.6,0-1.1-0.1-1.7-0.1c-1.7,0-3.4,0.1-5,0.1c-8.4,0-16.8,0-25.2,0c-0.9,0-1.8-0.2-2.6,0.2c-0.5,0.7-0.3,1.5-0.4,2.3
		c0,6,0,12,0,18c0,0.6,0,1.1,0.1,1.7c0,0.2,0.2,0.4,0.3,0.7c0.8,0.3,1.6,0.2,2.3,0.2c9.4,0,18.8,0,28.3,0c1.1,0,2.2,0,3.4-0.1
		c0.4,0,0.8-0.1,1.2-0.6c0-0.3,0.1-0.8,0.1-1.3c0-6.4,0-12.8,0-19.2c0-0.4,0-0.8-0.1-1.2C239.5,211.7,239.3,211.5,239.2,211.3z
		 M204.4,370.4c0.2,0,0.5,0.2,0.8,0.2c11.1,0,22.2,0,33.3,0c0.2,0,0.4-0.1,0.6-0.2c0.5-0.7,0.4-1.4,0.4-2.1c0-3.6,0-7.2,0-10.8
		c0-2.6,0-5.3,0-7.9c0-0.6,0.1-1.3-0.4-2c-0.5,0-1.1-0.1-1.8-0.1c-2.2,0-4.5,0-6.7,0c-7.9,0-15.8,0-23.7,0c-0.9,0-1.8-0.2-2.6,0.2
		c-0.5,0.6-0.3,1.4-0.3,2.1c0,3.5,0,7,0,10.5c0,2.7,0,5.4,0,8.1C204,369.1,203.9,369.8,204.4,370.4z M51.6,164
		c0.7,0.4,1.6,0.2,2.5,0.2c9.8,0,19.7,0,29.5,0c1,0,1.9,0,2.9,0c0.4,0,0.8-0.1,1.1-0.2c0.5-0.7,0.4-1.3,0.4-2c0-2,0-4,0-6
		c0-3.8,0-7.5,0-11.3c0-0.7,0.1-1.4-0.4-2.1c-0.8-0.4-1.7-0.2-2.6-0.2c-10.2,0-20.5,0-30.7,0c-0.6,0-1.1,0-1.7,0
		c-0.4,0-0.8,0-1.2,0.5c0,0.2-0.1,0.5-0.1,0.8c0,6.6,0,13.1,0.1,19.7C51.3,163.7,51.5,163.8,51.6,164z M51.5,461.6
		c0.5,0.1,0.9,0.2,1.3,0.2c11.4,0,22.8,0,34.3-0.1c0.1,0,0.3-0.1,0.5-0.2c0.1-0.4,0.2-0.8,0.2-1.3c0-1.4,0-2.7,0-4.1
		c0-4.5,0-8.9,0-13.4c0-0.8,0.2-1.6-0.4-2.4c-0.5-0.1-1-0.2-1.6-0.2c-10.9,0-21.7,0-32.6,0c-0.4,0-0.8,0-1.2,0.1
		c-0.2,0-0.4,0.2-0.7,0.3c-0.1,0.2-0.2,0.5-0.2,0.7c0,6.5,0,13.1,0,19.6C51.3,460.9,51.4,461.2,51.5,461.6z M51.4,140.8
		c1.1,0.4,2,0.3,2.9,0.3c10.2,0,20.3,0,30.5,0c0.6,0,1.1,0,1.7,0c0.4,0,0.8,0,1.3-0.5c0.1-0.3,0.1-0.7,0.1-1.2c0-1.8,0-3.5,0-5.3
		c0-3.9,0-7.8,0-11.8c0-0.7,0.1-1.4-0.4-2.1c-0.8-0.3-1.7-0.2-2.6-0.2c-10.2,0-20.5,0-30.7,0c-0.6,0-1.1,0-1.7,0
		c-0.4,0-0.8,0-1.1,0.4c-0.3,1.8-0.4,13.4-0.2,19.2C51.3,140,51.4,140.3,51.4,140.8z M87.7,118.2c0.1-0.7,0.1-1.2,0.1-1.7
		c0-1.2,0-2.4,0-3.6c0-4.3,0-8.6,0-13c0-0.8,0.2-1.6-0.4-2.4c-0.8-0.3-1.7-0.2-2.5-0.2c-10.2,0-20.5,0-30.7,0c-0.6,0-1.1,0-1.7,0
		c-0.4,0-0.8,0-1.2,0.4c0,0.1-0.2,0.4-0.2,0.6c0,6.3,0,12.6,0,19c0,0.2,0.1,0.4,0.2,0.8c0.3,0.1,0.6,0.2,0.9,0.3c0.7,0,1.4,0,2.2,0
		c8.5,0,17,0,25.4,0c2,0,4,0,6,0C86.5,118.4,87,118.3,87.7,118.2z M51.5,484.1c1,0.4,1.9,0.2,2.8,0.2c9.4,0,18.9,0,28.3,0
		c1.2,0,2.4,0,3.6,0c0.5,0,0.9-0.1,1.5-0.2c0.1-0.5,0.2-1,0.2-1.5c0-5.9,0-11.8,0-17.8c0-0.5-0.1-0.9-0.2-1.4
		c-0.9-0.4-1.8-0.3-2.7-0.3c-10.2,0-20.5,0-30.7,0c-0.6,0-1.1,0-1.7,0c-0.4,0-0.8,0-1.1,0.5c0,0.1-0.2,0.4-0.2,0.6
		c0,6.3,0,12.6,0,19C51.3,483.5,51.4,483.7,51.5,484.1z M204.3,415.6c0.8,0.4,1.7,0.3,2.6,0.3c9.6,0,19.2,0,28.8,0
		c0.8,0,1.6,0,2.4,0c0.4,0,0.8-0.1,1.2-0.2c0.1-0.5,0.2-1,0.2-1.4c0-1.4,0-2.9,0-4.3c0-4.3,0-8.6,0-13c0-0.6,0.1-1.3-0.3-1.8
		c-0.6-0.4-1.4-0.3-2.1-0.3c-9.9,0-19.8,0-29.8,0c-0.7,0-1.4,0-2.2,0c-0.4,0-0.7,0.2-1.1,0.3c0,0.6-0.1,1.2-0.1,1.7
		c0,1.6,0,3.2,0,4.8c0,3.9,0,7.8,0,11.8C204,414.2,203.8,414.9,204.3,415.6z M87.5,438.3c0.5-0.9,0.4-1.6,0.4-2.3
		c0-5.4,0-10.7,0-16.1c0-0.4,0-0.8,0-1.2c0-0.4-0.1-0.8-0.5-1.2c-0.6-0.2-1.4-0.1-2.2-0.1c-4,0-8,0-12,0c-6.3,0-12.6,0-18.9,0
		c-0.9,0-1.8-0.2-2.7,0.3c-0.1,0.4-0.2,0.8-0.2,1.3c0,5.9,0,11.8,0,17.7c0,0.5,0.2,0.9,0.2,1.3c0.3,0.1,0.4,0.3,0.5,0.3
		c11.3,0,22.7,0.1,34,0.1C86.5,438.5,87,438.4,87.5,438.3z M239.4,372.4c-0.7-0.4-1.4-0.3-2-0.3c-5.4,0-10.9,0-16.3,0
		c-4.8,0-9.6,0-14.4,0c-0.8,0-1.6-0.2-2.4,0.3c-0.4,0.6-0.3,1.4-0.3,2.1c0,5.1,0,10.2,0,15.4c0,0.7,0,1.4,0,2.2
		c0,0.4,0.2,0.7,0.3,1.1c1,0.4,1.8,0.3,2.7,0.3c9.4,0,18.9,0,28.3,0c1,0,1.9,0,2.9,0c0.4,0,0.8-0.1,1.1-0.2c0.4-0.8,0.3-1.7,0.3-2.4
		c0-4.2,0-8.3,0-12.5c0-1.4,0-2.9,0-4.3C239.6,373.3,239.4,372.9,239.4,372.4z M204.3,209.3c0.9,0.4,1.8,0.3,2.7,0.3
		c9.3,0,18.5,0,27.8,0c1.1,0,2.2,0,3.4-0.1c0.4,0,0.8-0.1,1.1-0.2c0.5-0.7,0.4-1.5,0.4-2.2c0-5.4,0-10.9,0-16.3c0-0.4,0-0.8,0-1.2
		c-0.1-0.4-0.2-0.7-0.4-1.2c-0.9,0-1.7-0.1-2.5-0.1c-9.9,0-19.8,0-29.7,0c-0.6,0-1.1,0-1.7,0c-0.4,0-0.7,0.2-1,0.2
		c-0.4,0.9-0.3,1.7-0.3,2.5c0,5.1,0,10.2,0,15.3c0,0.6,0,1.3,0,1.9C204,208.7,204.2,209,204.3,209.3z M239.4,186.7
		c0.1-0.8,0.2-1.5,0.2-2.1c0-2.9,0-5.8,0-8.6s0-5.6,0-8.4c0-0.5,0.1-1.1-0.4-1.6c-0.1-0.1-0.3-0.2-0.4-0.2c-0.5,0-1-0.1-1.4-0.1
		c-1.3,0-2.6,0-3.8,0c-8.7,0-17.4,0-26.1,0c-0.7,0-1.4,0-2.2,0c-0.4,0-0.7,0.2-1,0.3c-0.1,0.3-0.2,0.4-0.2,0.6c0,6.3,0,12.6,0,18.9
		c0,0.4,0.1,0.8,0.5,1c2.3,0.3,20.9,0.4,33,0.2C238.1,186.8,238.6,186.7,239.4,186.7z M51.5,398.1c-0.1,0.4-0.2,0.7-0.2,1
		c0,5.1,0,10.2,0,15.3c0,0.4,0.2,0.8,0.2,1c0.8,0.5,1.5,0.4,2.2,0.4c10.6,0,21.2,0,31.9,0c0.3,0,0.6,0,1,0c0.4-0.1,0.7-0.2,1.2-0.3
		c0.1-0.5,0.2-0.8,0.2-1.2c0-5,0-9.9,0-14.9c0-0.5-0.2-0.9-0.3-1.4c-0.5-0.1-1-0.2-1.5-0.2C77.2,397.7,53.8,397.8,51.5,398.1z
		 M204.3,164.2c0.9,0,1.7,0.1,2.5,0.1c9.4,0,18.7,0,28.1,0c1.1,0,2.2,0,3.4-0.1c0.4,0,0.8,0,1.2-0.6c0-0.4,0.1-1.1,0.1-1.7
		c0-2.6,0-5.3,0-7.9c0-1.8,0-3.5,0-5.3c0-0.5,0-1-0.6-1.4c-1.4-0.1-3-0.2-4.6-0.2c-9.1,0-18.2,0-27.3,0c-0.6,0-1.1,0-1.7,0
		c-0.4,0-0.8,0.1-1.1,0.2c-0.1,0.3-0.2,0.6-0.2,0.8c0,5,0,10.1,0,15.1C204,163.5,204.2,163.7,204.3,164.2z M124.6,297.2
		c0-0.7,0.1-1.2,0.1-1.8c0-8.1,0-16.2,0-24.2c0-0.6,0-1.1,0-1.7c0-0.4-0.1-0.8-0.2-1c-0.8-0.5-1.5-0.4-2.2-0.4c-4.4,0-8.8,0-13.2,0
		c-0.4,0-0.8,0-1.2,0c-0.4,0.1-0.7,0.2-1.1,0.4c0,0.7-0.1,1.3-0.1,2c0,6.8,0.1,13.6,0.1,20.4c0,0.1,0.1,0.3,0.2,0.4
		c0.7,0.4,1.6-0.2,2.3,0.5c-0.1,0.2-0.1,0.4-0.3,0.5c-0.4,0.2-0.5,0.6-0.6,1c0,0.1-0.2,0.1-0.4,0.2c-0.4,0-0.7-0.5-1.2-0.1
		c-0.2,1.2-0.3,2.6,0.1,3.8c0.7,0.5,1.3,0.4,2,0.4C118.9,297.7,122.7,297.6,124.6,297.2z"/>
	<path d="M361.2,341.6c0.5,1.9,0,3.7,0.4,5.3c0.8,0.6,1.6,0.4,2.3,0.4c5,0,10.1,0,15.1,0c1.7,0,3.4,0,5,0c0.5,0,0.9-0.1,1.4-0.2
		c0.7-1.7,0-3.6,0.6-5.3c0.4-0.1,0.7-0.2,1.1-0.2c0.6,0,1.1,0,1.7,0c9.3,0,18.6,0,27.8,0c0.9,0,1.8-0.1,2.5,0.1
		c0.5,0.4,0.4,0.8,0.5,1.2c0,0.6,0,1.3,0,1.9c0,51.4,0,102.7,0,154.1c0,1,0,2.1,0,3.2c-0.4,0.1-0.8,0.3-1.2,0.4
		c-0.7,0.1-1.4,0-2.2,0c-22.6,0-45.1,0-67.7,0c-6.1,0-12.2-0.1-18.2-0.1c-0.5,0-1.1-0.1-1.5-0.1c-0.5-0.4-0.5-0.8-0.6-1.2
		c0-0.7,0-1.4,0-2.2c0-51.4,0-102.7,0-154.1c0-1-0.1-1.9,0.2-3c0.4-0.1,0.7-0.2,1.1-0.3c0.6-0.1,1.1,0,1.7,0c9.2,0,18.4,0,27.6,0
		C359.5,341.5,360.2,341.6,361.2,341.6z M330,419.5c-0.1,0.4-0.2,0.6-0.2,0.8c0,26.5,0,52.9,0,79.4c0,0.2,0.1,0.5,0.2,0.6
		c0.6,0.5,1.2,0.4,1.9,0.4c5.6,0.1,11.2,0.2,16.8,0.2c22.1,0,44.1,0,66.2,0c0.7,0,1.4,0,2.2,0c0.4,0,0.7-0.2,1-0.3
		c0.4-1,0.3-1.9,0.3-2.7c0-25.1,0-50.2,0-75.3c0-0.7,0-1.4,0-2.2c0-0.4-0.2-0.7-0.4-1.1c-0.9,0-1.7,0-2.5,0c-3.2,0-6.4,0-9.6,0
		c-1.4,0-2.9,0-4.3,0c-0.4,0-0.7,0.2-1.1,0.3c0,0.6-0.1,1.2-0.1,1.7c0,0.9,0,1.8,0,2.6c0,0.4-0.2,0.7-0.3,1.1c-1,0.4-2,0.3-3,0.3
		c-15.4,0-30.9,0-46.3,0c-0.6,0-1.3,0-1.9,0c-0.4,0-0.8-0.1-1.2-0.6c0-0.3-0.1-0.8-0.1-1.2c0-1,0-1.9,0-2.9c0-0.4-0.2-0.7-0.2-1.1
		c-0.3-0.1-0.6-0.2-0.8-0.2c-5.2,0-10.4,0-15.6,0C330.6,419.2,330.4,419.4,330,419.5z M361.7,372.6c-0.4,1-0.3,1.8-0.3,2.6
		c0,15.3,0,30.6,0,45.8c0,0.5,0,1,0,1.4s0.2,0.7,0.2,1c0.9,0.5,1.7,0.3,2.5,0.3c4.4,0,8.8,0,13.2,0c2.2,0,4.3,0,6.5,0
		c0.5,0,1.1-0.1,1.5-0.2c0.5-0.9,0.4-1.7,0.4-2.5c0-15.4,0-30.9,0-46.3c0-0.4,0-0.8,0-1.2c0-0.3-0.1-0.6-0.2-0.8
		c-0.2-0.1-0.4-0.3-0.5-0.3c-7.4,0-14.9-0.1-22.3-0.1C362.4,372.4,362.1,372.5,361.7,372.6z M387.5,343.5c-0.3,0.9-0.2,1.8-0.2,2.7
		c0,8.8,0,17.6,0,26.4c0,0.6,0,1.1,0,1.7c0,0.4,0,0.8,0.6,1.2c0.7,0.2,1.5,0.1,2.4,0.1c8.2,0,16.3,0,24.5,0c0.8,0,1.6,0,2.4,0
		c0.3,0,0.6-0.2,0.8-0.2c0.5-0.9,0.3-1.8,0.3-2.7c0-8.8,0-17.6,0-26.4c0-0.6,0-1.1,0-1.7c0-0.4,0-0.8-0.5-1.1
		c-0.7-0.4-1.5-0.2-2.3-0.2c-8.5,0-17,0-25.4,0c-0.6,0-1.1,0-1.7,0C388.1,343.2,387.8,343.4,387.5,343.5z M399,417.9
		c0.4-0.1,0.9-0.2,1.4-0.2c1.5,0,3,0,4.6,0c3.7,0,7.3,0,11,0c0.7,0,1.4,0.1,2.1-0.4c0.3-0.8,0.2-1.7,0.2-2.5c0-7.4,0-14.9,0-22.3
		c0-0.6,0-1.1,0-1.7c0-0.4,0-0.8-0.5-1.3c-0.7-0.3-1.5-0.2-2.4-0.2c-8.4,0-16.8,0-25.2,0c-0.6,0-1.1,0-1.7,0c-0.4,0-0.8,0.1-1.2,0.6
		c0,0.6-0.1,1.4-0.1,2.2c0,9.6,0,19.2,0,28.7c0,0.6,0,1.1,0,1.7c0,0.3,0.1,0.6,0.2,1c0.4,0.1,0.7,0.2,1,0.2c3,0,5.9,0,8.9,0
		c0.4,0,0.7-0.2,1-0.3c0.4-1,0.2-1.8,0.3-2.7C398.7,419.8,398.4,418.8,399,417.9z M330.1,389.5c-0.4,0.9-0.3,1.8-0.3,2.7
		c0,6.8,0,13.6,0,20.4c0,1.2,0,2.4,0,3.6c0,0.4,0.1,0.8,0.2,1.1c0.8,0.5,1.5,0.4,2.2,0.4c3.6,0,7.2,0,10.8,0c1.6,0,3.2,0,4.8,0.1
		c0.4,0,0.8,0.1,1.2,0.7c0,1.2,0,2.5,0.1,3.9c0,0.5,0.2,0.9,0.3,1.3c1.5,0.3,7.3,0.4,9.4,0.2c0.3,0,0.6-0.2,0.9-0.3
		c0.1-0.3,0.2-0.5,0.2-0.7c0-10.8,0-21.6,0-32.4c0-0.2-0.1-0.4-0.2-0.6c-0.7-0.6-1.4-0.4-2.1-0.4c-8.3,0-16.6-0.1-25-0.1
		c-0.6,0-1.1,0-1.7,0C330.6,389.3,330.3,389.4,330.1,389.5z M330,362.8c0.3,0.2,0.4,0.3,0.6,0.3c9.2,0,18.4,0.1,27.5,0.1
		c0.5,0,0.9-0.1,1.5-0.2c0.1-0.5,0.3-0.9,0.3-1.4c0-5.7,0-11.5,0-17.2c0-0.3-0.1-0.6-0.2-0.8c-0.7-0.5-1.5-0.4-2.2-0.4
		c-4.5-0.1-8.9,0-13.4-0.2c-4.1-0.2-8.3,0-12.5,0c-0.5,0-1.1-0.1-1.7,0.5c0,0.2-0.1,0.6-0.1,1C329.6,349.1,329.8,360.9,330,362.8z
		 M385.4,349c-0.7-0.4-1.5-0.2-2.3-0.2c-6.3,0-12.6,0-18.9,0c-0.5,0-1,0-1.4,0s-0.7,0.2-1.1,0.3c-0.3,0.9-0.2,1.7-0.2,2.5
		c0,5.2,0,10.4,0,15.6c0,0.8,0,1.6,0,2.4c0,0.4,0.2,0.7,0.3,1c0.9,0.4,1.7,0.2,2.5,0.2c4.6,0,9.3,0,13.9,0c2,0,4,0,6,0
		c0.5,0,1,0.1,1.5-0.5c0-0.3,0.1-0.8,0.1-1.3c0-1.2,0-2.4,0-3.6c0-4.8,0-9.6,0-14.4C385.7,350.4,385.9,349.7,385.4,349z M330,375.1
		c0.8,0.6,1.7,0.4,2.5,0.4c5.4,0,10.9,0,16.3,0c3.1,0,6.2,0,9.4,0c0.5,0,1.1,0.1,1.6-0.5c0-0.2,0.2-0.4,0.2-0.6c0-2.9,0-5.8,0-8.6
		c0-0.3-0.2-0.6-0.3-1c-0.7-0.1-1.3-0.1-1.9-0.1c-8.6,0-17.1,0-25.7,0c-0.3,0-0.6,0-1,0c-0.4,0.1-0.7,0.2-1,0.3
		C329.7,367.1,329.7,373,330,375.1z M344.9,377.1c-0.7,0-1.4-0.1-2.2-0.1c-2.5,0-4.9,0-7.4,0c-1.4,0-2.9,0-4.3,0
		c-0.4,0-0.7,0.2-1,0.4c-0.2,1.6-0.2,7.9-0.1,9.4c0,0.2,0.2,0.4,0.3,0.7c0.4,0.1,0.8,0.1,1.1,0.2c0.9,0,1.8,0,2.6,0
		c3.2,0,6.4,0,9.6,0c0.6,0,1.1,0,1.6-0.5c0-0.4,0.2-0.8,0.2-1.3c0-2.7-0.1-5.4-0.1-8.1C345.2,377.6,345.1,377.5,344.9,377.1z
		 M403.1,377.2c-0.4,1.7-0.5,4.9-0.3,9.2c0,0.4,0.2,0.7,0.3,1.2c0.5,0.1,0.9,0.2,1.2,0.2c0.8,0,1.6,0,2.4,0c3.3,0,6.5,0,9.8,0
		c0.5,0,1.1,0.1,1.6-0.4c0.1-0.1,0.2-0.3,0.2-0.4c0-3,0-5.9,0-8.9c0-0.3-0.2-0.6-0.3-0.8C415.9,377,405.2,377,403.1,377.2z
		 M387.5,377.3c-0.1,0.3-0.2,0.4-0.2,0.5c0,3,0,5.9,0,8.9c0,0.3,0.2,0.6,0.3,0.8c0.3,0.1,0.4,0.2,0.6,0.2c4,0,8,0,12,0
		c0.3,0,0.6-0.2,0.9-0.3c0.1-0.4,0.2-0.7,0.2-1c0-2.7,0-5.4,0-8.2c0-0.4-0.2-0.7-0.3-1.1c-0.5-0.1-0.9-0.1-1.3-0.1
		c-3.8,0-7.7,0-11.5,0.1C388,377.1,387.8,377.2,387.5,377.3z M359.6,387.4c0.4-1.5,0.5-4,0.3-8.8c0-0.5-0.2-0.9-0.3-1.4
		c-0.5-0.1-0.9-0.2-1.2-0.2c-3.7,0-7.5,0.1-11.2,0.1c-0.1,0-0.3,0.2-0.4,0.2c-0.4,1.5-0.5,4.8-0.3,9c0,0.4,0,0.8,0.5,1.2
		c0.2,0,0.6,0.1,1,0.1c3.7,0,7.5-0.1,11.2-0.1C359.3,387.6,359.5,387.5,359.6,387.4z"/>
	<path d="M419.4,285.3c-0.5,0.1-0.8,0.2-1.1,0.2c-29.6,0-59.2,0-88.8-0.1c-0.2,0-0.5-0.1-0.8-0.2c-0.1-0.3-0.3-0.7-0.3-1
		c-0.1-0.6,0-1.3,0-1.9c0-76.1,0-152.3,0-228.4c0-0.9-0.1-1.9,0.1-2.7c0.4-0.5,0.8-0.5,1.2-0.5c0.6,0,1.3,0,1.9,0
		c28.2,0,56.5,0,84.7,0c1,0,1.9-0.1,3,0.2c0.1,0.3,0.2,0.7,0.3,1.1c0,0.6,0,1.3,0,1.9c0,76.1,0,152.1,0,228.2
		C419.5,283,419.6,284.1,419.4,285.3z M417.9,52.4c-0.2-0.1-0.5-0.2-0.8-0.2c-0.6,0-1.3,0-1.9,0c-27.4,0-54.9,0-82.3,0
		c-0.6,0-1.3,0-1.9,0c-0.4,0-0.7,0.2-1.1,0.3c0,0.5-0.1,0.9-0.1,1.3c0,32,0,64,0,96c0,0.2,0.1,0.5,0.1,0.6c0.5,0.5,1.1,0.5,1.6,0.5
		c4.8,0,9.6,0,14.4-0.1c2.4,0,4.8,0,7.2,0c0.5,0,1,0,1.4,0.6c0,0.2,0.1,0.6,0.1,1c0,0.9,0,1.8,0,2.6c0,3.4,0,6.7,0,10.1
		c0,0.5-0.1,1.1,0.5,1.6c0.9,0.3,1.9,0.1,2.8,0.1c18.9,0,37.7,0,56.6,0c0.7,0,1.4,0,2.2,0c0.4,0,0.8,0,1.3-0.4
		c0-0.2,0.2-0.4,0.2-0.7c0-0.6,0-1.3,0-1.9c0-33.3,0-66.7,0-100c0-3,0-6.1,0-9.1C418.3,53.9,418.4,53.2,417.9,52.4z M418,283.8
		c0.5-1.1,0.3-2,0.3-3c0-22,0-44,0-66c0-0.6,0-1.3,0-1.9c0-0.4-0.2-0.7-0.2-1.1c-1-0.4-2-0.2-2.9-0.2c-22.2,0-44.3,0-66.5,0
		c-1,0-2.1,0-3.1,0c-4.7,0-9.4,0-14.2,0c-0.5,0-1,0-1.4,0.5c-0.3,0.8-0.2,1.8-0.2,2.7c0,22,0,44,0,66c0,0.6,0,1.3,0,1.9
		c0,0.4,0.2,0.7,0.3,1c0.4,0.1,0.6,0.2,0.8,0.2c28.6,0,57.3,0.1,85.9,0.1C417.1,284,417.5,283.9,418,283.8z M417.9,168.5
		c-1-0.3-1.8-0.2-2.7-0.2c-27.4,0-54.7,0-82.1,0c-0.7,0-1.4,0-2.2,0c-0.4,0-0.7,0.2-1.2,0.4c0,0.9,0,1.8,0,2.7c0,11.8,0,23.5,0,35.3
		c0,0.6,0,1.3,0,1.9c0,0.4,0,0.8,0.5,1.2c0.5,0,1.1,0.1,1.7,0.1c5.4,0,10.7,0.1,16.1,0.1c22.2,0,44.5,0,66.7,0c0.7,0,1.4,0,2.2,0
		c0.4,0,0.7-0.2,1.1-0.3c0.3-0.9,0.2-1.8,0.2-2.7c0-7.4,0-14.9,0-22.3c0-4.6,0-9.1,0-13.7C418.3,170.2,418.4,169.4,417.9,168.5z
		 M329.9,166.3c0.3,0.2,0.5,0.3,0.6,0.3c6.9,0.1,13.7,0.1,20.6,0.2c0.5,0,1.1-0.1,1.6-0.1c0.2-0.2,0.3-0.3,0.3-0.5
		c0-4.2,0.1-8.5,0.1-12.7c0-0.3-0.1-0.6-0.2-0.8c-0.8-0.5-1.6-0.3-2.4-0.3c-6.2,0-12.3,0-18.5,0.1c-0.3,0-0.6,0-1,0
		c-0.4,0.1-0.7,0.2-1,0.3c-0.1,0.3-0.2,0.4-0.2,0.6c0,3.9,0,7.8,0,11.8C329.8,165.4,329.9,165.8,329.9,166.3z"/>
	<path d="M191.4,502.4c-0.9,0.5-1.7,0.3-2.5,0.3c-5.7,0-11.4,0-17,0c-22.8,0-45.6,0-68.4,0c-1,0-2.1,0.1-3.2-0.2
		c-0.1-0.3-0.3-0.7-0.3-1.1c-0.1-0.7,0-1.4,0-2.2c0-51.6,0-103.2,0-154.8c0-1-0.2-2.1,0.2-2.9c0.5-0.5,0.9-0.5,1.3-0.5
		c0.6,0,1.1,0,1.7,0c9.4,0,18.7,0,28.1,0c0.9,0,1.8-0.2,2.7,0.3c0.7,1.8-0.1,3.8,0.5,5.7c0.3,0.1,0.7,0.2,1.1,0.3
		c0.6,0.1,1.1,0,1.7,0c6.2,0,12.5,0,18.7,0c0.8,0,1.6,0.1,2.4-0.3c0.6-1.9-0.1-3.8,0.5-5.8c0.5-0.1,1-0.2,1.4-0.2c1.2,0,2.4,0,3.6,0
		c8.3,0,16.6,0,25,0c0.9,0,1.8-0.2,2.7,0.3c0.1,0.2,0.2,0.5,0.3,0.8c0,0.7,0,1.4,0,2.2c0,51.8,0,103.5,0,155.3
		C191.6,500.6,191.7,501.6,191.4,502.4z M171.7,425.3c-1,0.5-1.9,0.3-2.7,0.3c-15.4,0-30.9,0-46.3,0c-0.6,0-1.3,0-1.9,0
		c-0.3,0-0.6-0.2-0.9-0.3c-0.7-1.9,0.2-3.9-0.6-5.6c-0.8-0.4-1.7-0.3-2.4-0.3c-4.1,0-8.2,0-12.2,0c-0.6,0-1.3,0-1.9,0
		c-0.4,0-0.7,0.2-1,0.3c-0.3,1.1-0.2,2-0.2,3c0,25,0,50.1,0,75.1c0,0.6,0,1.3,0,1.9c0,0.4,0,0.8,0.5,1.3c0.7,0.3,1.7,0.1,2.6,0.1
		c27.4,0,54.9,0,82.3,0c0.6,0,1.1,0,1.7,0c0.4,0,0.8,0,1.1-0.3c0.4-0.4,0.3-0.9,0.3-1.4c0-2.1,0-4.2,0-6.2c0-23.4,0-46.9,0-70.3
		c0-0.7,0-1.4,0-2.2c0-0.4,0-0.8-0.5-1.2c-0.2,0-0.6-0.1-1-0.1c-5,0-10.1,0-15.1,0c-0.4,0-0.8,0.1-1.2,0.2
		C171.6,421.5,172.2,423.4,171.7,425.3z M158.1,373c-0.7-0.6-1.4-0.4-2.1-0.4c-6.5,0-13.1,0-19.6,0c-0.5,0-1,0-1.4,0.1
		c-0.2,0-0.4,0.2-0.6,0.3c-0.3,0.8-0.2,1.6-0.2,2.4c0,15.3,0,30.5,0,45.8c0,0.6,0,1.1,0,1.7c0,0.4,0.2,0.7,0.3,1.1
		c0.5,0.1,0.9,0.2,1.3,0.2c7,0,14.1,0,21.1,0c0.1,0,0.2,0,0.2,0c0.4,0,0.8-0.1,1.2-0.5c0.3-0.8,0.1-1.7,0.1-2.7c0-15,0-30,0-45
		c0-0.6,0-1.3,0-1.9C158.3,373.5,158.2,373.2,158.1,373z M160.2,375.4c0.8,0.6,1.7,0.3,2.6,0.3c8.2,0,16.3,0,24.5,0
		c0.6,0,1.1,0,1.7,0c0.3,0,0.6-0.2,1-0.3c0-0.7,0.1-1.3,0.1-1.9c0-9.1,0-18.2,0-27.3c0-0.7,0-1.4,0-2.2c0-0.4-0.1-0.8-0.5-1.1
		c-0.7-0.3-1.5-0.2-2.3-0.2c-8.2,0-16.3,0-24.5,0c-0.5,0-1,0-1.4,0s-0.7,0.2-1.2,0.3c-0.1,0.7-0.1,1.3-0.2,2c0,2,0,4,0,6
		c0,7.3,0,14.6,0,21.8C159.9,373.6,159.8,374.5,160.2,375.4z M132.3,389.9c-0.7-0.5-1.5-0.4-2.2-0.4c-8.8,0-17.6,0-26.4,0
		c-0.3,0-0.6,0-1,0c-0.4,0.1-0.7,0.2-1.1,0.3c-0.1,0.4-0.2,0.7-0.2,1c0,8.6,0,17.1,0,25.7c0,0.4,0.2,0.7,0.2,1.1
		c0.8,0.4,1.5,0.3,2.2,0.3c3.3,0,6.6,0,9.8,0c1.9,0,3.8,0,5.8,0c0.5,0,1,0,1.4,0.6c0.2,0.7,0.1,1.6,0.1,2.4c0,0.9-0.1,1.9,0.3,2.9
		c0.3,0.1,0.6,0.2,0.9,0.2c3,0,5.9,0,8.9,0c0.4,0,0.7-0.2,1-0.3c0.4-1,0.2-1.9,0.2-2.7c0-8.9,0-17.8,0-26.6c0-1.1,0-2.2,0-3.4
		C132.4,390.6,132.3,390.2,132.3,389.9z M170.5,418.3c1-0.5,1.8-0.4,2.6-0.4c4.6,0,9.1,0,13.7,0c0.7,0,1.4,0,2.2,0
		c0.3,0,0.6-0.2,0.9-0.3c0.3-0.9,0.2-1.8,0.2-2.7c0-7,0-13.9,0-20.9c0-1,0-2.1,0-3.1c0-0.4-0.1-0.8-0.2-1.2c-0.7-0.1-1.3-0.2-2-0.2
		c-2.4,0-4.8,0-7.2,0c-5.9,0-11.8,0-17.8,0c-0.9,0-1.8-0.2-2.6,0.3c-0.5,0.6-0.3,1.4-0.3,2.1c0,9.9,0,19.8,0,29.8c0,0.3,0,0.6,0,1
		s0,0.8,0.4,1.2c0.1,0.1,0.4,0.2,0.6,0.2c2.8,0,5.6,0,8.4,0c0.3,0,0.6-0.2,0.8-0.3C170.6,421.9,170.1,420.1,170.5,418.3z
		 M132.1,342.9c-1-0.2-1.9-0.2-2.8-0.2c-8.3,0-16.6,0-24.9,0c-0.6,0-1.1,0-1.7,0c-0.4,0-0.7,0.2-1.1,0.3c-0.3,0.8-0.2,1.5-0.3,2.2
		c0,2.6,0,5.3,0,7.9c0,2.8,0,5.6,0,8.4c0,0.5-0.1,1.1,0.5,1.7c0.7,0.2,1.6,0.1,2.4,0.1c8.2,0,16.3,0,24.5,0c0.7,0,1.4,0,2.2,0
		c0.4,0,0.8-0.1,1.1-0.2c0.1-0.3,0.3-0.5,0.3-0.8c0-6.2,0-12.5,0-18.7C132.4,343.5,132.3,343.2,132.1,342.9z M158.1,370.8
		c0.1-0.5,0.2-0.9,0.2-1.2c0-6.4,0-12.8,0-19.2c0-0.1,0-0.2,0-0.2c0-0.4-0.1-0.8-0.7-1.2c-0.6,0-1.4-0.1-2.2-0.1
		c-6.2,0-12.3,0-18.5,0c-0.6,0-1.1,0-1.7,0c-0.4,0-0.7,0.2-1,0.3c-0.4,0.9-0.3,1.7-0.3,2.5c0,4.8,0,9.6,0,14.4c0,1.2,0,2.4,0,3.6
		c0,0.4,0,0.8,0.6,1.2c0.2,0,0.6,0.1,1,0.1C141.3,371.2,156,371.1,158.1,370.8z M132.2,375.5c0.1-0.3,0.2-0.5,0.2-0.8
		c0-3,0-5.9,0-8.9c0-0.2-0.1-0.4-0.2-0.6c-0.7-0.5-1.4-0.3-2.1-0.3c-8.8,0-17.6,0-26.4,0c-0.3,0-0.6,0-1,0c-0.4,0.1-0.7,0.2-1.1,0.3
		c-0.3,1.5-0.4,7.6-0.2,9.7c0,0.2,0.2,0.4,0.3,0.7c0.8,0.3,1.7,0.2,2.6,0.2c7.4,0,14.7,0,22.1,0c1.4,0,2.9,0,4.3,0
		C131.3,375.7,131.7,375.6,132.2,375.5z M116.7,387.8c0.2-1.9,0.3-7.8,0.1-9.8c0-0.1-0.2-0.3-0.3-0.5c-0.2,0-0.5-0.2-0.8-0.2
		c-4.4,0-8.8,0-13.2,0c-0.3,0-0.6,0.2-0.9,0.2c-0.1,0.3-0.2,0.5-0.2,0.8c0,2.9,0,5.7,0,8.6c0,0.3,0.2,0.6,0.3,0.8
		c1.8,0.3,9.3,0.4,13.7,0.2C115.9,387.9,116.3,387.8,116.7,387.8z M174.7,377.5c-0.2,1.9-0.3,8-0.1,9.8c0,0.1,0.2,0.3,0.3,0.5
		c0.3,0,0.7,0.2,1.1,0.2c4.2,0,8.5,0,12.7,0c0.4,0,0.7-0.2,1.1-0.3c0.1-0.3,0.2-0.6,0.2-0.8c0-2.9,0-5.8,0-8.6
		c0-0.3-0.2-0.6-0.3-0.8c-1.7-0.2-10.8-0.4-14-0.2C175.4,377.3,175.1,377.4,174.7,377.5z M132.2,387.8c0.1-0.4,0.2-0.5,0.2-0.7
		c0-3,0-5.9,0-8.9c0-0.3-0.2-0.6-0.3-0.8c-1.8-0.2-8.2-0.3-12.1-0.2c-0.4,0-0.8,0.1-1.3,0.2c-0.1,0.5-0.2,0.9-0.3,1.4
		c-0.2,4.8-0.1,7.3,0.3,8.8c0.1,0.1,0.3,0.2,0.4,0.2c4,0,8,0.1,12,0.1C131.5,387.9,131.8,387.8,132.2,387.8z M160.3,387.8
		c0.5,0,0.8,0.1,1.2,0.1c3.4,0,6.9,0,10.3,0c0.2,0,0.5-0.1,0.8-0.2c0.1-0.3,0.3-0.6,0.3-0.9c0-2.9,0-5.8,0-8.6
		c0-0.3-0.2-0.6-0.3-0.8c-0.3-0.1-0.4-0.2-0.6-0.2c-3.7,0-7.4,0-11,0c-0.3,0-0.6,0.2-0.9,0.3c-0.1,0.5-0.2,0.8-0.2,1.2
		c0,2.8,0,5.6,0.1,8.4C160,387.3,160.2,387.5,160.3,387.8z"/>
	<path d="M100,48.7c0.5-0.1,0.7-0.3,0.9-0.3c29.8,0,59.5,0,89.3,0c0.3,0,0.6,0.1,1,0.2c0.1,0.4,0.2,0.8,0.3,1.1c0,0.7,0,1.4,0,2.2
		c0,58.5,0,116.9,0,175.4c0,0.7,0,1.4,0,2.2c0,0.3-0.2,0.6-0.3,0.9c-0.6,0.1-1.1,0.1-1.7,0.2c-1.5,0-3,0-4.6,0
		c-14.8,0-29.6,0-44.4,0c-0.8,0-1.6,0-2.4,0c-0.3,0-0.6,0.2-0.9,0.3c-0.1,0.3-0.2,0.5-0.2,0.8c0,7.2,0,14.4,0,21.6
		c0,0.2,0.1,0.5,0.2,0.8c0.3,0.1,0.7,0.2,1.1,0.3c0.7,0,1.4,0,2.2,0c7.5,0,15,0,22.6,0c0.9,0,1.8-0.1,2.6,0.1c0.5,0.4,0.5,0.8,0,1.2
		c-2.3,0.3-16.1,0.4-28,0.2c-0.6,0-1.1-0.1-1.8-0.1c-0.1-0.4-0.3-0.8-0.3-1.1c0-1,0-1.9,0-2.9c0-4.4,0-8.8,0-13.2
		c0-0.8,0.1-1.6-0.2-2.5c-0.3-0.1-0.7-0.2-1.1-0.3c-0.6-0.1-1.3,0-1.9,0c-9.3,0-18.6,0-27.8,0c-0.9,0-1.8-0.1-2.7,0.2
		c-0.1,0.3-0.3,0.7-0.3,1c-0.1,0.6,0,1.3,0,1.9c0,4.9,0,9.8,0,14.6c0,0.7,0.2,1.4-0.4,2.1c-0.3,0-0.5,0-0.9,0
		c-0.1-0.4-0.2-0.7-0.2-1c0-0.7,0-1.4,0-2.2c0-66.8,0-133.6,0-200.4C99.9,51,99.8,49.9,100,48.7z M101.8,50c-0.5,1.1-0.3,2.1-0.3,3
		c0,31.5,0,63,0,94.5c0,0.6,0,1.3,0,1.9c0,0.4,0.1,0.8,0.6,1.2c0.6,0,1.4,0.1,2.2,0.1c3.8,0,7.7,0,11.5,0c3,0,6.1,0,9.1,0
		c0.5,0,1.1-0.1,1.7,0.4c0.3,0.5,0.2,1.1,0.2,1.8c0,2.4,0,4.8,0,7.2c0,0.5,0,1,0.5,1.4c0.1,0,0.4,0.2,0.6,0.2c11.9,0,23.8,0,35.7,0
		c0.2,0,0.5-0.1,0.8-0.2c0.1-0.3,0.2-0.6,0.2-0.9c0-0.7,0-1.4,0-2.2c0-2.1,0-4.2,0-6.2c0-0.5,0-1,0.7-1.4c0.7,0,1.6,0,2.4,0
		c5.9,0,11.8,0,17.8,0c1,0,2.1,0,3.1,0c0.4,0,0.7-0.2,1.2-0.3c0.1-0.6,0.2-1,0.2-1.5c0-1.9,0-3.8,0-5.8c0-30.1,0-60.1,0-90.2
		c0-0.6,0-1.3,0-1.9c0-0.4-0.3-0.7-0.4-1c-2.1-0.2-58-0.3-85.5-0.2C103.4,50,102.7,50,101.8,50z M101.7,168.2c-0.3,1.1-0.2,2-0.2,3
		c0,19.9,0,39.8,0,59.7c0,0.6,0,1.3,0,1.9c0,0.4,0,0.8,0.5,1.2c0.7,0.2,1.5,0.1,2.4,0.1c9.4,0,18.9,0,28.3,0c0.5,0,1,0,1.4,0
		s0.8,0,1.3-0.4c0-0.2,0.1-0.6,0.2-1c0-0.8,0-1.6,0-2.4c0-0.4,0-0.8,0.5-1.2c0.8-0.3,1.7-0.1,2.7-0.1c15.8,0,31.7,0,47.5,0
		c0.8,0,1.6,0,2.4,0c0.4,0,0.7-0.2,1.1-0.3c0.1-0.6,0.1-1.2,0.1-1.7c0-2.2,0-4.3,0-6.5c0-16.4,0-32.8,0-49.2c0-0.7,0-1.4,0-2.2
		c0-0.4-0.2-0.7-0.3-1c-0.9-0.4-1.7-0.2-2.5-0.2c-3.7,0-7.4,0-11,0c-3.2,0-6.4,0-9.6,0c-0.5,0-1.1,0.1-1.7-0.4
		c-0.6-1.2,0.3-2.8-0.6-4.1c-0.9-0.3-1.8-0.2-2.7-0.2c-10.6,0-21.1,0-31.7,0c-0.6,0-1.3,0-1.9,0c-0.4,0-0.7,0.2-1,0.3
		c-0.4,1.1-0.2,2-0.2,3c0,0.4,0,0.8-0.5,1.2c-0.7,0.2-1.6,0.1-2.4,0.1c-6.5,0-13,0-19.4,0C103.5,167.9,102.6,167.7,101.7,168.2z
		 M101.7,152.5c-0.3,1.7-0.4,8.7-0.2,12.6c0,0.3,0.1,0.6,0.2,0.8c0.8,0.5,1.6,0.3,2.4,0.3c6.2,0,12.3,0,18.5,0c0.5,0,1,0,1.4,0
		c0.4-0.1,0.7-0.2,1-0.3c0.1-0.2,0.1-0.3,0.1-0.4c0-4.1,0.1-8.2,0.1-12.2c0-0.3-0.2-0.6-0.3-0.8c-0.3-0.1-0.6-0.2-0.8-0.2
		c-7.2,0-14.4,0-21.6,0C102.3,152.3,102.1,152.4,101.7,152.5z M166.4,166c1.1,0.5,2,0.3,2.9,0.3c5.9,0,11.8,0,17.7,0
		c0.6,0,1.1,0,1.7,0c0.4,0,0.8,0,1.1-0.4c0.3-1.6,0.4-8.1,0.2-12.2c0-0.4-0.1-0.8-0.2-1.2c-0.6-0.1-1.1-0.2-1.7-0.2
		c-2.5,0-5,0-7.4,0c-4.1,0-8.2,0-12.2,0c-0.6,0-1.3-0.1-1.8,0.3c-0.1,0.2-0.2,0.3-0.2,0.4c0,3.9-0.1,7.8-0.1,11.7
		C166.2,165.1,166.3,165.5,166.4,166z"/>
	<path d="M191.9,254.5c0.1,0.6,0.2,1,0.2,1.4c0,14.2-0.1,28.3-0.1,42.5c0,0.1-0.1,0.3-0.3,0.5c-0.4,0.1-0.8,0.2-1.3,0.2
		c-1.9,0-3.8,0-5.8,0c-6.6,0-13.1,0-19.7,0c-0.9,0-1.8,0.1-2.7-0.2c-0.1-0.3-0.1-0.6-0.2-0.8c0.2-0.2,0.3-0.3,0.4-0.3
		c0.9-0.1,1.8-0.1,2.6-0.1c7.6,0,15.2,0,22.8,0c0.8,0,1.6,0.2,2.3-0.4c0.1-0.2,0.2-0.4,0.2-0.7c0-13.2,0-26.4,0-39.6
		c0-0.2-0.1-0.4-0.2-0.6c-0.6-0.5-1.2-0.4-1.9-0.4c-3.9,0-7.8,0-11.8,0c-0.9,0-1.8,0-2.6,0c-0.4,0-0.8-0.1-1.2-0.1
		c-0.1-0.4-0.1-0.6-0.2-0.9c0.2-0.2,0.3-0.3,0.4-0.4c0.6-0.1,1.1-0.1,1.7-0.1c5,0,10.1,0,15.1,0
		C190.4,254.3,191.1,254.4,191.9,254.5z"/>
	<text transform="matrix(1 0 0 1 128.1377 15.0645)" class="st1 st2">3rd Floor</text>
	<text transform="matrix(1 0 0 1 355.9423 15.0643)" class="st1 st2">4th Floor</text>
	<text transform="matrix(1 0 0 1 214.952 510.6063)" class="st1 st3">3602</text>
	<text transform="matrix(1 0 0 1 214.952 470.016)" class="st1 st3">3608</text>
	<text transform="matrix(1 0 0 1 214.952 437.8129)" class="st4 st1 st3">3616</text>
	<text transform="matrix(1 0 0 1 214.952 408.9115)" class="st4 st1 st3">3622</text>
	<text transform="matrix(1 0 0 1 214.952 385.5142)" class="st1 st3">3626</text>
	<text transform="matrix(1 0 0 1 214.952 363.48)" class="st1 st3">3632</text>
	<text transform="matrix(1 0 0 1 214.952 266.2141)" class="st4 st1 st3">3650</text>
	<text transform="matrix(1 0 0 1 215.352 274.6141)" class="st4 st1 st3">Café</text>
	<text transform="matrix(1 0 0 1 214.952 225.9806)" class="st1 st3">3658</text>
	<text transform="matrix(1 0 0 1 214.952 202.3413)" class="st1 st3">3662</text>
	<text transform="matrix(1 0 0 1 214.952 180.0643)" class="st1 st3">3666</text>
	<text transform="matrix(1 0 0 1 214.952 159.6151)" class="st1 st3">3670</text>
	<text transform="matrix(1 0 0 1 214.952 81.8383)" class="st1 st3">3686</text>
	<text transform="matrix(1 0 0 1 214.952 42.3998)" class="st1 st3">3692</text>
	<text transform="matrix(1 0 0 1 61.7851 509.6928)" class="st1 st3">3803</text>
	<text transform="matrix(1 0 0 1 61.7851 476.5669)" class="st1 st3">3809</text>
	<text transform="matrix(1 0 0 1 61.7851 452.7864)" class="st1 st3">3815</text>
	<text transform="matrix(1 0 0 1 61.7851 429.0587)" class="st1 st3">3819</text>
	<text transform="matrix(1 0 0 1 61.7851 408.912)" class="st1 st3">3823</text>
	<text transform="matrix(1 0 0 1 61.7851 313.9893)" class="st4 st1 st3">3840</text>
	<text transform="matrix(1 0 0 1 60.0851 322.3893)" class="st4 st1 st3">Jones</text>
	<text transform="matrix(1 0 0 1 51.9851 330.7893)" class="st4 st1 st3">Conference</text>
	<text transform="matrix(1 0 0 1 59.9851 339.1893)" class="st4 st1 st3">Room</text>
	<text transform="matrix(1 0 0 1 107.9058 355.4802)" class="st1 st3">3828d</text>
	<text transform="matrix(1 0 0 1 165.9271 363.4799)" class="st1 st3">3627c</text>
	<text transform="matrix(1 0 0 1 139.1263 466.0666)" class="st1 st3">3720</text>
	<text transform="matrix(1 0 0 1 128.2263 474.4666)" class="st1 st3">Student Lab</text>
	<text transform="matrix(1 0 0 1 108.2526 373.5303)" class="st1 st3">3828c</text>
	<text transform="matrix(1 0 0 1 69.7847 287.7304)" class="st1 st3">3850</text>
	<text transform="matrix(1 0 0 1 61.7851 254.4144)" class="st1 st3">3853</text>
	<text transform="matrix(1 0 0 1 61.7849 217.2956)" class="st1 st3">3859</text>
	<text transform="matrix(1 0 0 1 61.7851 186.8336)" class="st1 st3">3865</text>
	<text transform="matrix(1 0 0 1 61.7851 153.3304)" class="st1 st3">3871</text>
	<text transform="matrix(1 0 0 1 61.7851 132.5775)" class="st1 st3">3877</text>
	<text transform="matrix(1 0 0 1 61.7851 109.8719)" class="st1 st3">3883</text>
	<text transform="matrix(1 0 0 1 61.7851 80.7723)" class="st1 st3">3887</text>
	<text transform="matrix(1 0 0 1 61.7851 41.3995)" class="st1 st3">3893</text>
	<text transform="matrix(1 0 0 1 138.1847 78.5053)" class="st4 st1 st3">3780</text>
	<text transform="matrix(1 0 0 1 109.6847 86.9053)" class="st4 st1 st3">Evans Conference Room</text>
	<text transform="matrix(1 0 0 1 106.9822 161.8106)" class="st1 st3">3872</text>
	<text transform="matrix(1 0 0 1 169.4344 161.8105)" class="st1 st3">3760a</text>
	<text transform="matrix(1 0 0 1 138.1845 195.9858)" class="st1 st3">3760</text>
	<text transform="matrix(1 0 0 1 127.2845 204.3858)" class="st1 st3">Student Lab</text>
	<text transform="matrix(1 0 0 1 149.7818 274.9335)" class="st4 st1 st3">3750</text>
	<text transform="matrix(1 0 0 1 141.8818 283.3335)" class="st4 st1 st3">Reception</text>
	<text transform="matrix(1 0 0 1 108.6943 286.3921)" class="st1 st3">3750</text>
	<text transform="matrix(1 0 0 1 108.1833 247.5234)" class="st1 st3">3750b</text>
	<text transform="matrix(1 0 0 1 153.3312 245.5233)" class="st1 st3">Kitchen</text>
	<text transform="matrix(1 0 0 1 442.2767 508.9301)" class="st1 st3">4602</text>
	<text transform="matrix(1 0 0 1 442.2767 473.4901)" class="st1 st3">4608</text>
	<text transform="matrix(1 0 0 1 442.2767 437.2867)" class="st1 st3">4616</text>
	<text transform="matrix(1 0 0 1 442.2767 401.8305)" class="st1 st3">4622</text>
	<text transform="matrix(1 0 0 1 442.2767 369.1835)" class="st1 st3">4628</text>
	<text transform="matrix(1 0 0 1 442.2762 314.9931)" class="st4 st1 st3">4640</text>
	<text transform="matrix(1 0 0 1 434.3762 323.3931)" class="st4 st1 st3">Halvorsen</text>
	<text transform="matrix(1 0 0 1 432.4762 331.7931)" class="st4 st1 st3">Conference</text>
	<text transform="matrix(1 0 0 1 440.4762 340.1931)" class="st4 st1 st3">Room</text>
	<text transform="matrix(1 0 0 1 442.2767 291.0961)" class="st1 st3">4646</text>
	<text transform="matrix(1 0 0 1 442.2767 253.2298)" class="st1 st3">4652</text>
	<text transform="matrix(1 0 0 1 442.2767 218.8793)" class="st1 st3">4660</text>
	<text transform="matrix(1 0 0 1 442.2767 185.6493)" class="st1 st3">4666</text>
	<text transform="matrix(1 0 0 1 442.2767 158.115)" class="st1 st3">4672</text>
	<text transform="matrix(1 0 0 1 442.2767 79.588)" class="st1 st3">4686</text>
	<text transform="matrix(1 0 0 1 9.3808 465.8629)" class="st1 st3">South</text>
	<text transform="matrix(1 0 0 1 442.2767 42.3521)" class="st1 st3">4692</text>
	<text transform="matrix(1 0 0 1 290.0984 507.1354)" class="st1 st3">4803</text>
	<text transform="matrix(1 0 0 1 290.0984 475.3815)" class="st1 st3">4809</text>
	<text transform="matrix(1 0 0 1 290.0984 430.6003)" class="st1 st3">4819</text>
	<text transform="matrix(1 0 0 1 290.0984 454.7155)" class="st1 st3">4815</text>
	<text transform="matrix(1 0 0 1 290.0984 410.3815)" class="st1 st3">4823</text>
	<text transform="matrix(1 0 0 1 336.025 356.2954)" class="st1 st3">4828d</text>
	<text transform="matrix(1 0 0 1 394.8536 361.2953)" class="st1 st3">4627c</text>
	<text transform="matrix(1 0 0 1 366.0939 464.8815)" class="st1 st3">4720</text>
	<text transform="matrix(1 0 0 1 355.1939 473.2815)" class="st1 st3">Student Lab</text>
	<text transform="matrix(1 0 0 1 336.1192 373.2954)" class="st1 st3">4828c</text>
	<text transform="matrix(1 0 0 1 4.4004 45.7152)" class="st1 st3">Elevators</text>
	<text transform="matrix(1 0 0 1 9.6748 83.5058)" class="st1 st3">Stairs</text>
	<text transform="matrix(1 0 0 1 1.7502 139.7459)" class="st1 st3">Restrooms</text>
	<text transform="matrix(1 0 0 1 286.1574 326.8039)" class="st4 st1 st3">Lounge</text>
	<text transform="matrix(1 0 0 1 211.8373 323.1787)" class="st1 st3">Lounge</text>
	<text transform="matrix(1 0 0 1 290.0983 293.0964)" class="st1 st3">4847</text>
	<text transform="matrix(1 0 0 1 290.0983 249.4304)" class="st1 st3">4855</text>
	<text transform="matrix(1 0 0 1 290.0983 271.0964)" class="st1 st3">4851</text>
	<text transform="matrix(1 0 0 1 290.0983 225.7624)" class="st1 st3">4859</text>
	<text transform="matrix(1 0 0 1 290.0982 180.2956)" class="st1 st3">4867</text>
	<text transform="matrix(1 0 0 1 290.0982 202.9636)" class="st1 st3">4863</text>
	<text transform="matrix(1 0 0 1 290.0982 156.4304)" class="st1 st3">4871</text>
	<text transform="matrix(1 0 0 1 290.0982 134.4304)" class="st1 st3">4877</text>
	<text transform="matrix(1 0 0 1 290.0982 112.1765)" class="st1 st3">4883</text>
	<text transform="matrix(1 0 0 1 290.0981 82.0964)" class="st1 st3">4887</text>
	<text transform="matrix(1 0 0 1 290.0981 44.4304)" class="st1 st3">4893</text>
	<text transform="matrix(1 0 0 1 365.8993 104.4577)" class="st1 st3">4780</text>
	<text transform="matrix(1 0 0 1 334.4804 162.0963)" class="st1 st3">4872</text>
	<text transform="matrix(1 0 0 1 366.538 186.7954)" class="st4 st1 st3">4760</text>
	<text transform="matrix(1 0 0 1 359.638 195.1954)" class="st4 st1 st3">Coon Lab</text>
	<text transform="matrix(1 0 0 1 366.0939 248.4538)" class="st1 st3">4750</text>
	<text transform="matrix(1 0 0 1 355.1939 256.8538)" class="st1 st3">Student Lab</text>
	<g>
		<g>
			<line class="st5" x1="18.1" y1="453.7" x2="18.1" y2="435.1"/>
			<g>
				<path d="M18.1,429.1c1.1,2.8,2.9,6.4,4.8,8.5l-4.8-1.7l-4.8,1.7C15.3,435.4,17.1,431.9,18.1,429.1z"/>
			</g>
		</g>
	</g>
	<text transform="matrix(1 0 0 1 9.6747 493.6188)" class="st1 st3">North</text>
	<g>
		<g>
			<line class="st5" x1="18.1" y1="502.3" x2="18.1" y2="520.8"/>
			<g>
				<path d="M18.1,526.9c-1.1-2.8-2.9-6.4-4.8-8.5l4.8,1.7l4.8-1.7C21,520.5,19.2,524,18.1,526.9z"/>
			</g>
		</g>
	</g>
	<path d="M373.2,356c1.7,0,3.3,0,5,0c0.8,0,1.5,0.2,2.1,0.7c0.4,0.4,0.9,0.8,1.1,1.4c0.2,0.5,0.4,1.1,0.3,1.7c0,1.3,0,2.7,0,4
		c0,0.6-0.2,1.2-0.5,1.8c0,0.1-0.1,0.2-0.2,0.2c-0.2,0.2-0.4,0.5-0.6,0.7c-0.3,0.3-0.7,0.5-1.1,0.7c-0.5,0.2-1,0.3-1.6,0.3
		c-3.1,0-6.2,0-9.2,0c-0.5,0-0.9-0.1-1.4-0.2s-0.8-0.4-1.2-0.7c-0.2-0.2-0.5-0.4-0.7-0.6s-0.3-0.6-0.4-0.9c-0.2-0.5-0.2-1.1-0.2-1.6
		c0-1.3,0-2.6,0-3.9c0-0.7,0.2-1.3,0.6-1.9c0.3-0.4,0.7-0.7,1.1-1c0.6-0.4,1.2-0.6,1.9-0.6C370,356,371.6,356,373.2,356z
		 M373.3,366.1L373.3,366.1c1.7,0,3.3,0,5,0c0.4,0,0.8-0.1,1.2-0.4c0.7-0.5,1.1-1.1,1.1-2c0-1.3,0-2.6,0-4c0-0.3-0.1-0.6-0.2-0.9
		c-0.4-0.9-1.2-1.5-2.1-1.5c-3.3,0-6.5,0-9.8,0c-0.3,0-0.6,0.1-0.9,0.2c-0.5,0.1-0.8,0.5-1,0.9s-0.4,0.8-0.4,1.3c0,1.3,0,2.6,0,3.9
		c0,0.8,0.4,1.4,0.9,2c0.1,0.1,0.2,0.2,0.3,0.2c0.4,0.1,0.7,0.3,1.1,0.3C370,366.1,371.6,366.1,373.3,366.1z"/>
	<path d="M375.5,353.1c0-0.5,0-0.9,0-1.3c0-0.3,0-0.6,0-0.9s0.3-0.6,0.6-0.6c0.4,0,0.6,0.2,0.6,0.6c0,0.7,0,1.4,0,2.2
		c0.2-0.1,0.4-0.3,0.5-0.5c0.1-0.1,0.1-0.1,0.1-0.2c0.2-0.2,0.4-0.2,0.6-0.2c0.3,0.1,0.4,0.3,0.4,0.6c0,0.2,0,0.4-0.2,0.5
		c-0.2,0.2-0.5,0.4-0.7,0.6c-0.1,0.1-0.3,0.3-0.4,0.4c-0.2,0.2-0.4,0.4-0.6,0.6c-0.3,0.3-0.6,0.2-0.9,0c-0.2-0.2-0.4-0.4-0.6-0.6
		c-0.4-0.4-0.7-0.7-1.1-1.1c-0.3-0.3-0.2-0.6,0.1-0.9c0.2-0.2,0.5-0.2,0.7,0c0.1,0.1,0.1,0.1,0.2,0.2
		C375.1,352.7,375.3,352.9,375.5,353.1z"/>
	<path d="M371,352.4c0,0.7,0,1.4,0,2.1c0,0.1,0,0.3-0.1,0.4c-0.1,0.2-0.4,0.3-0.6,0.3s-0.4-0.3-0.4-0.5c0-0.6,0-1.2,0-1.8
		c0-0.2,0-0.3,0-0.5c-0.2,0.2-0.4,0.4-0.6,0.6l-0.1,0.1c-0.3,0.3-0.5,0.3-0.8,0c-0.2-0.2-0.2-0.6,0-0.9c0.6-0.6,1.1-1.1,1.7-1.7
		c0.2-0.2,0.6-0.2,0.8,0c0.3,0.3,0.5,0.5,0.8,0.8c0.2,0.2,0.3,0.4,0.4,0.5s0.2,0.2,0.3,0.3c0.3,0.2,0.3,0.4,0.2,0.6
		c0,0.3-0.3,0.4-0.5,0.5c-0.1,0-0.3-0.1-0.4-0.2C371.5,352.8,371.3,352.6,371,352.4C371.2,352.5,371.1,352.5,371,352.4z"/>
	<path d="M372.2,361.9c0,0-0.1,0-0.1,0.1c-0.2,0.1-0.3,0-0.3-0.2s0.1-0.5,0.1-0.7c0.1-0.3,0.2-0.6,0.3-0.9c0.1-0.3,0.3-0.4,0.6-0.4
		c0.3,0,0.6,0,0.9,0s0.5,0.1,0.6,0.4c0.2,0.5,0.4,1.1,0.5,1.6c0,0.1,0,0.2-0.1,0.2c-0.1,0.1-0.2,0.1-0.3,0c0,0,0-0.1-0.1-0.1v0.1
		c0.1,0.3,0.2,0.6,0.3,0.9c-0.2,0-0.4,0-0.6,0c-0.1,0-0.1,0.1-0.1,0.2c0,0.4,0,0.9,0,1.3c0,0.1-0.1,0.3-0.1,0.4
		c-0.1,0.1-0.2,0.1-0.3,0c-0.1-0.1-0.1-0.2-0.1-0.3c0-0.4,0-0.7,0-1.1c0-0.2,0-0.3,0-0.5c-0.1,0.3,0,0.6,0,0.9s0,0.5,0,0.8
		c0,0.2-0.2,0.3-0.3,0.3c-0.1,0-0.2-0.1-0.3-0.3c0-0.4,0-0.9,0-1.3s0-0.4-0.4-0.4h-0.1c-0.2,0-0.2-0.1-0.2-0.2s0.1-0.3,0.1-0.4
		C372.2,362.1,372.2,362,372.2,361.9c0.1-0.2,0.2-0.4,0.2-0.7c0.1-0.1,0.2-0.3,0.2-0.6c-0.2,0.2-0.2,0.4-0.2,0.6
		C372.2,361.4,372.2,361.7,372.2,361.9z"/>
	<path d="M377.5,360.6c0,0.6,0,1.1,0,1.7c0,0.7,0,1.4,0,2c0,0.1,0,0.3-0.1,0.4s-0.2,0.1-0.3,0.1c-0.1,0-0.1-0.1-0.2-0.2
		c0-0.1,0-0.2,0-0.3c0-0.5,0-1.1,0-1.6c0-0.1,0-0.2,0-0.3c0,0,0,0-0.1,0h-0.1c0,0.1,0,0.2,0,0.3c0,0.6,0,1.2,0,1.8
		c0,0.3-0.2,0.4-0.4,0.3c-0.1-0.1-0.2-0.2-0.3-0.3c0-0.1,0-0.2,0-0.3c0-1.1,0-2.2,0-3.2c0-0.1,0-0.2-0.1-0.4c0,0.1,0,0.2,0,0.3
		c0,0.4,0,0.7,0,1.1c0,0.2-0.1,0.3-0.3,0.3c-0.2,0-0.3-0.1-0.3-0.3c0-0.5,0-1.1,0-1.6c0-0.1,0-0.2,0.1-0.3c0.1-0.3,0.3-0.4,0.6-0.4
		c0.4,0,0.9,0,1.3,0s0.6,0.2,0.7,0.6c0,0.6,0,1.1,0,1.7c0,0.2-0.1,0.3-0.3,0.3c-0.2,0-0.3-0.1-0.3-0.2s0-0.2,0-0.3
		C377.6,361.4,377.6,361,377.5,360.6C377.6,360.6,377.5,360.6,377.5,360.6z"/>
	<path d="M368.9,360.6c0,0.4,0,0.7,0,1.1c0,0.1,0,0.2,0,0.3c0,0.2-0.1,0.3-0.3,0.3c-0.2,0-0.1-0.2-0.1-0.3c0-0.6,0-1.2,0-1.8
		c0-0.4,0.1-0.5,0.5-0.5c0.5,0,0.9,0,1.4,0c0.4,0,0.6,0.2,0.6,0.6c0,0.5,0,1.1,0,1.6c0,0.2-0.1,0.3-0.2,0.3c-0.2,0-0.3-0.1-0.3-0.3
		c0-0.4,0-0.7,0-1.1c0-0.1,0-0.2-0.1-0.3c0,0.1,0,0.2,0,0.3c0,1.1,0,2.2,0,3.3c0,0.1,0,0.3,0,0.4s-0.1,0.3-0.3,0.3
		c-0.2,0-0.3-0.1-0.3-0.3c0-0.1,0-0.2,0-0.4c0-0.6,0-1.2-0.1-1.8c0,0.1,0,0.2,0,0.3c0,0.5,0,1.1,0,1.6c0,0.1,0,0.2-0.1,0.4
		c-0.1,0.2-0.2,0.3-0.3,0.2c-0.2,0-0.3-0.1-0.3-0.3c0-0.1,0-0.2,0-0.3c0-1.1,0-2.3,0-3.4C369,360.8,369,360.7,368.9,360.6
		L368.9,360.6z"/>
	<path d="M369.1,359.1c0-0.3,0.3-0.5,0.6-0.5c0.3,0,0.5,0.3,0.5,0.6c0,0.3-0.3,0.5-0.6,0.5C369.4,359.7,369.1,359.4,369.1,359.1z"/>
	<path d="M373.8,359.1c0,0.3-0.2,0.6-0.5,0.6c-0.2,0-0.6-0.3-0.6-0.5s0.3-0.6,0.6-0.6S373.8,358.8,373.8,359.1z"/>
	<path d="M376.9,358.6c0.2,0,0.5,0.3,0.5,0.5c0,0.3-0.2,0.6-0.5,0.6s-0.5-0.3-0.5-0.6C376.3,358.8,376.6,358.6,376.9,358.6z"/>
	<path d="M146.3,356.6c1.7,0,3.3,0,5,0c0.8,0,1.5,0.2,2.1,0.7c0.4,0.4,0.9,0.8,1.1,1.4c0.2,0.5,0.4,1.1,0.3,1.7c0,1.3,0,2.7,0,4
		c0,0.6-0.2,1.2-0.5,1.8c0,0.1-0.1,0.2-0.2,0.2c-0.2,0.2-0.4,0.5-0.6,0.7c-0.3,0.3-0.7,0.5-1.1,0.7c-0.5,0.2-1,0.3-1.6,0.3
		c-3.1,0-6.2,0-9.2,0c-0.5,0-0.9-0.1-1.4-0.2s-0.8-0.4-1.2-0.7c-0.2-0.2-0.5-0.4-0.7-0.6s-0.3-0.6-0.4-0.9c-0.2-0.5-0.2-1.1-0.2-1.6
		c0-1.3,0-2.6,0-3.9c0-0.7,0.2-1.3,0.6-1.9c0.3-0.4,0.7-0.7,1.1-1c0.6-0.4,1.2-0.6,1.9-0.6C143,356.6,144.6,356.6,146.3,356.6z
		 M146.3,366.6L146.3,366.6c1.7,0,3.3,0,5,0c0.4,0,0.8-0.1,1.2-0.4c0.7-0.5,1.1-1.1,1.1-2c0-1.3,0-2.6,0-4c0-0.3-0.1-0.6-0.2-0.9
		c-0.4-0.9-1.2-1.5-2.1-1.5c-3.3,0-6.5,0-9.8,0c-0.3,0-0.6,0.1-0.9,0.2c-0.5,0.1-0.8,0.5-1,0.9s-0.4,0.8-0.4,1.3c0,1.3,0,2.6,0,3.9
		c0,0.8,0.4,1.4,0.9,2c0.1,0.1,0.2,0.2,0.3,0.2c0.4,0.1,0.7,0.3,1.1,0.3C143,366.6,144.7,366.6,146.3,366.6z"/>
	<path d="M148.5,353.7c0-0.5,0-0.9,0-1.3c0-0.3,0-0.6,0-0.9s0.3-0.6,0.6-0.6c0.4,0,0.6,0.2,0.6,0.6c0,0.7,0,1.4,0,2.2
		c0.2-0.1,0.4-0.3,0.5-0.5c0.1-0.1,0.1-0.1,0.1-0.2c0.2-0.2,0.4-0.2,0.6-0.2c0.3,0.1,0.4,0.3,0.4,0.6c0,0.2,0,0.4-0.2,0.5
		c-0.2,0.2-0.5,0.4-0.7,0.6c-0.1,0.1-0.3,0.3-0.4,0.4c-0.2,0.2-0.4,0.4-0.6,0.6c-0.3,0.3-0.6,0.2-0.9,0c-0.2-0.2-0.4-0.4-0.6-0.6
		c-0.4-0.4-0.7-0.7-1.1-1.1c-0.3-0.3-0.2-0.6,0.1-0.9c0.2-0.2,0.5-0.2,0.7,0c0.1,0.1,0.1,0.1,0.2,0.2
		C148.1,353.3,148.3,353.4,148.5,353.7z"/>
	<path d="M144,353c0,0.7,0,1.4,0,2.1c0,0.1,0,0.3-0.1,0.4c-0.1,0.2-0.4,0.3-0.6,0.3c-0.2,0-0.4-0.3-0.4-0.5c0-0.6,0-1.2,0-1.8
		c0-0.2,0-0.3,0-0.5c-0.2,0.2-0.4,0.4-0.6,0.6l-0.1,0.1c-0.3,0.3-0.5,0.3-0.8,0c-0.2-0.2-0.2-0.6,0-0.9c0.6-0.6,1.1-1.1,1.7-1.7
		c0.2-0.2,0.6-0.2,0.8,0c0.3,0.3,0.5,0.5,0.8,0.8c0.2,0.2,0.3,0.4,0.4,0.5c0.1,0.1,0.2,0.2,0.3,0.3c0.3,0.2,0.3,0.4,0.2,0.6
		c0,0.3-0.3,0.4-0.5,0.5c-0.1,0-0.3-0.1-0.4-0.2C144.5,353.4,144.3,353.2,144,353C144.2,353.1,144.1,353.1,144,353z"/>
	<path d="M145.2,362.5c0,0-0.1,0-0.1,0.1c-0.2,0.1-0.3,0-0.3-0.2s0.1-0.5,0.1-0.7c0.1-0.3,0.2-0.6,0.3-0.9s0.3-0.4,0.6-0.4
		s0.6,0,0.9,0c0.3,0,0.5,0.1,0.6,0.4c0.2,0.5,0.4,1.1,0.5,1.6c0,0.1,0,0.2-0.1,0.2c-0.1,0.1-0.2,0.1-0.3,0c0,0,0-0.1-0.1-0.1v0.1
		c0.1,0.3,0.2,0.6,0.3,0.9c-0.2,0-0.4,0-0.6,0c-0.1,0-0.1,0.1-0.1,0.2c0,0.4,0,0.9,0,1.3c0,0.1-0.1,0.3-0.1,0.4
		c-0.1,0.1-0.2,0.1-0.3,0s-0.1-0.2-0.1-0.3c0-0.4,0-0.7,0-1.1c0-0.2,0-0.3,0-0.5c-0.1,0.3,0,0.6,0,0.9s0,0.5,0,0.8
		c0,0.2-0.2,0.3-0.3,0.3s-0.2-0.1-0.3-0.3c0-0.4,0-0.9,0-1.3s0-0.4-0.4-0.4h-0.1c-0.2,0-0.2-0.1-0.2-0.2s0.1-0.3,0.1-0.4
		C145.2,362.6,145.2,362.5,145.2,362.5c0.1-0.2,0.2-0.4,0.2-0.7c0.1-0.1,0.2-0.3,0.2-0.6c-0.2,0.2-0.2,0.4-0.2,0.6
		C145.3,362,145.2,362.2,145.2,362.5z"/>
	<path d="M150.5,361.2c0,0.6,0,1.1,0,1.7c0,0.7,0,1.4,0,2c0,0.1,0,0.3-0.1,0.4s-0.2,0.1-0.3,0.1s-0.1-0.1-0.2-0.2c0-0.1,0-0.2,0-0.3
		c0-0.5,0-1.1,0-1.6c0-0.1,0-0.2,0-0.3c0,0,0,0-0.1,0h-0.1c0,0.1,0,0.2,0,0.3c0,0.6,0,1.2,0,1.8c0,0.3-0.2,0.4-0.4,0.3
		c-0.1-0.1-0.2-0.2-0.3-0.3c0-0.1,0-0.2,0-0.3c0-1.1,0-2.2,0-3.2c0-0.1,0-0.2-0.1-0.4c0,0.1,0,0.2,0,0.3c0,0.4,0,0.7,0,1.1
		c0,0.2-0.1,0.3-0.3,0.3s-0.3-0.1-0.3-0.3c0-0.5,0-1.1,0-1.6c0-0.1,0-0.2,0.1-0.3c0.1-0.3,0.3-0.4,0.6-0.4c0.4,0,0.9,0,1.3,0
		c0.4,0,0.6,0.2,0.7,0.6c0,0.6,0,1.1,0,1.7c0,0.2-0.1,0.3-0.3,0.3s-0.3-0.1-0.3-0.2s0-0.2,0-0.3
		C150.6,361.9,150.6,361.6,150.5,361.2C150.6,361.2,150.6,361.2,150.5,361.2z"/>
	<path d="M141.9,361.2c0,0.4,0,0.7,0,1.1c0,0.1,0,0.2,0,0.3c0,0.2-0.1,0.3-0.3,0.3s-0.1-0.2-0.1-0.3c0-0.6,0-1.2,0-1.8
		c0-0.4,0.1-0.5,0.5-0.5c0.5,0,0.9,0,1.4,0c0.4,0,0.6,0.2,0.6,0.6c0,0.5,0,1.1,0,1.6c0,0.2-0.1,0.3-0.2,0.3c-0.2,0-0.3-0.1-0.3-0.3
		c0-0.4,0-0.7,0-1.1c0-0.1,0-0.2-0.1-0.3c0,0.1,0,0.2,0,0.3c0,1.1,0,2.2,0,3.3c0,0.1,0,0.3,0,0.4s-0.1,0.3-0.3,0.3s-0.3-0.1-0.3-0.3
		c0-0.1,0-0.2,0-0.4c0-0.6,0-1.2-0.1-1.8c0,0.1,0,0.2,0,0.3c0,0.5,0,1.1,0,1.6c0,0.1,0,0.2-0.1,0.4c-0.1,0.2-0.2,0.3-0.3,0.2
		c-0.2,0-0.3-0.1-0.3-0.3c0-0.1,0-0.2,0-0.3c0-1.1,0-2.3,0-3.4C142,361.3,142,361.3,141.9,361.2C142,361.2,141.9,361.2,141.9,361.2z
		"/>
	<path d="M142.2,359.6c0-0.3,0.3-0.5,0.6-0.5s0.5,0.3,0.5,0.6c0,0.3-0.3,0.5-0.6,0.5S142.2,359.9,142.2,359.6z"/>
	<path d="M146.8,359.6c0,0.3-0.2,0.6-0.5,0.6c-0.2,0-0.6-0.3-0.6-0.5s0.3-0.6,0.6-0.6S146.8,359.4,146.8,359.6z"/>
	<path d="M149.9,359.1c0.2,0,0.5,0.3,0.5,0.5c0,0.3-0.2,0.6-0.5,0.6s-0.5-0.3-0.5-0.6C149.3,359.4,149.6,359.1,149.9,359.1z"/>
	<path d="M18.1,24.3c1.7,0,3.3,0,5,0c0.8,0,1.5,0.2,2.1,0.7c0.4,0.4,0.9,0.8,1.1,1.4c0.2,0.5,0.4,1.1,0.3,1.7c0,1.3,0,2.7,0,4
		c0,0.6-0.2,1.2-0.5,1.8c0,0.1-0.1,0.2-0.2,0.2c-0.2,0.2-0.4,0.5-0.6,0.7c-0.3,0.3-0.7,0.5-1.1,0.7c-0.5,0.2-1,0.3-1.6,0.3
		c-3.1,0-6.2,0-9.2,0c-0.5,0-0.9-0.1-1.4-0.2c-0.5-0.1-0.8-0.4-1.2-0.7c-0.2-0.2-0.5-0.4-0.7-0.6c-0.2-0.2-0.3-0.6-0.4-0.9
		c-0.2-0.5-0.2-1.1-0.2-1.6c0-1.3,0-2.6,0-3.9c0-0.7,0.2-1.3,0.6-1.9c0.3-0.4,0.7-0.7,1.1-1c0.6-0.4,1.2-0.6,1.9-0.6
		C14.8,24.3,16.4,24.3,18.1,24.3z M18.1,34.3L18.1,34.3c1.7,0,3.3,0,5,0c0.4,0,0.8-0.1,1.2-0.4c0.7-0.5,1.1-1.1,1.1-2
		c0-1.3,0-2.6,0-4c0-0.3-0.1-0.6-0.2-0.9c-0.4-0.9-1.2-1.5-2.1-1.5c-3.3,0-6.5,0-9.8,0c-0.3,0-0.6,0.1-0.9,0.2
		c-0.5,0.1-0.8,0.5-1,0.9S11,27.4,11,27.9c0,1.3,0,2.6,0,3.9c0,0.8,0.4,1.4,0.9,2c0.1,0.1,0.2,0.2,0.3,0.2c0.4,0.1,0.7,0.3,1.1,0.3
		C14.8,34.3,16.5,34.3,18.1,34.3z"/>
	<path d="M20.3,21.4c0-0.5,0-0.9,0-1.3c0-0.3,0-0.6,0-0.9s0.3-0.6,0.6-0.6c0.4,0,0.6,0.2,0.6,0.6c0,0.7,0,1.4,0,2.2
		c0.2-0.1,0.4-0.3,0.5-0.5c0.1-0.1,0.1-0.1,0.1-0.2c0.2-0.2,0.4-0.2,0.6-0.2c0.3,0.1,0.4,0.3,0.4,0.6c0,0.2,0,0.4-0.2,0.5
		c-0.2,0.2-0.5,0.4-0.7,0.6c-0.1,0.1-0.3,0.3-0.4,0.4c-0.2,0.2-0.4,0.4-0.6,0.6c-0.3,0.3-0.6,0.2-0.9,0c-0.2-0.2-0.4-0.4-0.6-0.6
		c-0.4-0.4-0.7-0.7-1.1-1.1c-0.3-0.3-0.2-0.6,0.1-0.9c0.2-0.2,0.5-0.2,0.7,0c0.1,0.1,0.1,0.1,0.2,0.2C19.9,21,20.1,21.1,20.3,21.4z"
		/>
	<path d="M15.8,20.6c0,0.7,0,1.4,0,2.1c0,0.1,0,0.3-0.1,0.4c-0.1,0.2-0.4,0.3-0.6,0.3c-0.2,0-0.4-0.3-0.4-0.5c0-0.6,0-1.2,0-1.8
		c0-0.2,0-0.3,0-0.5c-0.2,0.2-0.4,0.4-0.6,0.6L14,21.3c-0.3,0.3-0.5,0.3-0.8,0c-0.2-0.2-0.2-0.6,0-0.9c0.6-0.6,1.1-1.1,1.7-1.7
		c0.2-0.2,0.6-0.2,0.8,0c0.3,0.3,0.5,0.5,0.8,0.8c0.2,0.2,0.3,0.4,0.4,0.5s0.2,0.2,0.3,0.3c0.3,0.2,0.3,0.4,0.2,0.6
		c0,0.3-0.3,0.4-0.5,0.5c-0.1,0-0.3-0.1-0.4-0.2C16.3,21,16.1,20.8,15.8,20.6C16,20.8,16,20.7,15.8,20.6z"/>
	<path d="M17.1,30.2c0,0-0.1,0-0.1,0.1c-0.2,0.1-0.3,0-0.3-0.2s0.1-0.5,0.1-0.7c0.1-0.3,0.2-0.6,0.3-0.9c0.1-0.3,0.3-0.4,0.6-0.4
		c0.3,0,0.6,0,0.9,0s0.5,0.1,0.6,0.4c0.2,0.5,0.4,1.1,0.5,1.6c0,0.1,0,0.2-0.1,0.2c-0.1,0.1-0.2,0.1-0.3,0c0,0,0-0.1-0.1-0.1v0.1
		c0.1,0.3,0.2,0.6,0.3,0.9c-0.2,0-0.4,0-0.6,0c-0.1,0-0.1,0.1-0.1,0.2c0,0.4,0,0.9,0,1.3c0,0.1-0.1,0.3-0.1,0.4
		c-0.1,0.1-0.2,0.1-0.3,0c-0.1-0.1-0.1-0.2-0.1-0.3c0-0.4,0-0.7,0-1.1c0-0.2,0-0.3,0-0.5c-0.1,0.3,0,0.6,0,0.9s0,0.5,0,0.8
		c0,0.2-0.2,0.3-0.3,0.3c-0.1,0-0.2-0.1-0.3-0.3c0-0.4,0-0.9,0-1.3c0-0.4,0-0.4-0.4-0.4h-0.1C17,31.2,17,31.1,17,31s0.1-0.3,0.1-0.4
		C17,30.3,17,30.2,17.1,30.2c0.1-0.2,0.2-0.4,0.2-0.7c0.1-0.1,0.2-0.3,0.2-0.6c-0.2,0.2-0.2,0.4-0.2,0.6
		C17.1,29.7,17,29.9,17.1,30.2z"/>
	<path d="M22.3,28.9c0,0.6,0,1.1,0,1.7c0,0.7,0,1.4,0,2c0,0.1,0,0.3-0.1,0.4c-0.1,0.1-0.2,0.1-0.3,0.1c-0.1,0-0.1-0.1-0.2-0.2
		c0-0.1,0-0.2,0-0.3c0-0.5,0-1.1,0-1.6c0-0.1,0-0.2,0-0.3c0,0,0,0-0.1,0h-0.1c0,0.1,0,0.2,0,0.3c0,0.6,0,1.2,0,1.8
		c0,0.3-0.2,0.4-0.4,0.3c0-0.1-0.1-0.2-0.1-0.3c0-0.1,0-0.2,0-0.3c0-1.1,0-2.2,0-3.2c0-0.1,0-0.2-0.1-0.4c0,0.1,0,0.2,0,0.3
		c0,0.4,0,0.7,0,1.1c0,0.2-0.1,0.3-0.3,0.3c-0.2,0-0.3-0.1-0.3-0.3c0-0.5,0-1.1,0-1.6c0-0.1,0-0.2,0.1-0.3c0.1-0.3,0.3-0.4,0.6-0.4
		c0.4,0,0.9,0,1.3,0s0.6,0.2,0.7,0.6c0,0.6,0,1.1,0,1.7c0,0.2-0.1,0.3-0.3,0.3c-0.2,0-0.3-0.1-0.3-0.2s0-0.2,0-0.3
		C22.4,29.6,22.4,29.2,22.3,28.9C22.4,28.9,22.4,28.9,22.3,28.9z"/>
	<path d="M13.7,28.9c0,0.4,0,0.7,0,1.1c0,0.1,0,0.2,0,0.3c0,0.2-0.1,0.3-0.3,0.3s-0.1-0.2-0.1-0.3c0-0.6,0-1.2,0-1.8
		c0-0.4,0.1-0.5,0.5-0.5c0.5,0,0.9,0,1.4,0c0.4,0,0.6,0.2,0.6,0.6c0,0.5,0,1.1,0,1.6c0,0.2-0.1,0.3-0.2,0.3c-0.2,0-0.3-0.1-0.3-0.3
		c0-0.4,0-0.7,0-1.1c0-0.1,0-0.2-0.1-0.3c0,0.1,0,0.2,0,0.3c0,1.1,0,2.2,0,3.3c0,0.1,0,0.3,0,0.4c0,0.1-0.1,0.3-0.3,0.3
		s-0.3-0.1-0.3-0.3c0-0.1,0-0.2,0-0.4c0-0.6,0-1.2-0.1-1.8c0,0.1,0,0.2,0,0.3c0,0.5,0,1.1,0,1.6c0,0.1,0,0.2-0.1,0.4
		s-0.2,0.3-0.3,0.2c-0.2,0-0.3-0.1-0.3-0.3c0-0.1,0-0.2,0-0.3c0-1.1,0-2.3,0-3.4C13.8,29,13.8,29,13.7,28.9
		C13.8,28.9,13.7,28.9,13.7,28.9z"/>
	<path d="M14,27.3c0-0.3,0.3-0.5,0.6-0.5s0.5,0.3,0.5,0.6c0,0.3-0.3,0.5-0.6,0.5S14,27.6,14,27.3z"/>
	<path d="M18.6,27.3c0,0.3-0.2,0.6-0.5,0.6c-0.2,0-0.6-0.3-0.6-0.5s0.3-0.6,0.6-0.6C18.4,26.8,18.6,27.1,18.6,27.3z"/>
	<path d="M21.7,26.8c0.2,0,0.5,0.3,0.5,0.5c0,0.3-0.2,0.6-0.5,0.6s-0.5-0.3-0.5-0.6C21.1,27.1,21.4,26.8,21.7,26.8z"/>
	<g>
		<path d="M346.1,400c0.2,0.5,0.3,1.1,0.5,1.6c0.1,0.3,0.2,0.5,0.2,0.8c0.1,0.6,0.4,1.2,0.5,1.8c0.1,0.4,0.2,0.7,0.3,1.1
			c0,0.2,0.1,0.3,0.1,0.5c0,0.1,0,0.1-0.1,0.1c-0.2,0-0.4,0-0.7,0c-0.2,0-0.5,0-0.7,0s-0.2,0-0.2,0.2v0.1c0,1.3,0,2.6,0,3.9
			c0,0.2,0,0.3-0.1,0.5c-0.2,0.3-0.7,0.3-0.9,0.1l-0.1-0.1c-0.1-0.1-0.1-0.2-0.1-0.3c0-0.1,0-0.2,0-0.2c0-1.3,0-2.6,0-3.9
			c0-0.2,0-0.2-0.2-0.2l-0.1,0.1c0,0.1,0,0.1,0,0.2c0,1.3,0,2.6,0,3.9c0,0.3-0.1,0.4-0.3,0.6c-0.2,0.1-0.4,0.1-0.6,0.1
			c-0.2-0.1-0.3-0.3-0.4-0.5c0-0.1,0-0.1,0-0.2c0-1.3,0-2.6,0-3.8c0-0.1,0-0.1,0-0.2s0-0.1-0.1-0.1c-0.4,0-0.8,0-1.2,0
			c-0.1,0-0.1,0-0.2,0s-0.1,0-0.1-0.1c0.1-0.5,0.3-1,0.4-1.5c0.1-0.4,0.3-0.9,0.4-1.3c0.2-0.8,0.4-1.5,0.7-2.3
			c0.1-0.2,0.1-0.5,0.2-0.7v-0.1c-0.1,0-0.2,0-0.2,0.1c-0.1,0.5-0.3,1-0.4,1.5c0,0.1-0.1,0.3-0.1,0.4c-0.1,0.3-0.2,0.6-0.3,1
			c0,0.1-0.1,0.2-0.1,0.3c-0.1,0.4-0.6,0.6-0.9,0.3c-0.2-0.1-0.2-0.3-0.1-0.5c0.1-0.4,0.3-0.8,0.4-1.3c0.1-0.2,0.1-0.5,0.2-0.7
			c0.1-0.3,0.2-0.7,0.3-1c0.1-0.2,0.1-0.5,0.2-0.7c0-0.2,0.1-0.3,0.2-0.4c0-0.1,0.1-0.1,0.1-0.2c0.1-0.2,0.3-0.3,0.5-0.4
			s0.4-0.1,0.5-0.1c0.8,0,1.7,0,2.5,0c0.3,0,0.5,0.1,0.8,0.3c0.1,0.1,0.2,0.2,0.2,0.3c0.1,0.2,0.2,0.4,0.3,0.6
			c0.2,0.6,0.4,1.1,0.5,1.7c0.1,0.5,0.3,1,0.4,1.4c0,0.2,0.1,0.4,0.2,0.5c0,0.1,0,0.1,0,0.2c0,0.3-0.1,0.4-0.3,0.5
			c-0.3,0.1-0.5,0-0.6-0.1c0-0.1-0.1-0.1-0.1-0.2c-0.1-0.4-0.3-0.9-0.4-1.3c-0.1-0.3-0.1-0.6-0.3-0.9c-0.1-0.3-0.2-0.6-0.3-0.9
			C346.3,400,346.3,400,346.1,400z"/>
		<path d="M344.7,395.3c0.2,0,0.4,0.1,0.6,0.2c0.1,0,0.1,0.1,0.2,0.1c0.3,0.1,0.4,0.3,0.4,0.6c0,0.1,0.1,0.2,0.1,0.4
			c0,0.3,0,0.6-0.1,0.8c-0.1,0.2-0.3,0.4-0.6,0.5c-0.2,0.1-0.3,0.2-0.5,0.2s-0.4,0-0.6-0.1c-0.3-0.1-0.5-0.3-0.6-0.6
			c-0.1-0.1-0.1-0.3-0.1-0.4c0-0.2,0-0.5,0.1-0.7c0.1-0.3,0.2-0.5,0.5-0.6c0.2-0.1,0.3-0.2,0.5-0.2
			C344.5,395.3,344.6,395.3,344.7,395.3z"/>
	</g>
	<g>
		<path d="M404.4,405.2c0,1.6,0,3.2,0,4.8c0,0.3-0.2,0.6-0.4,0.7c-0.2,0.1-0.6,0.1-0.8-0.1c-0.2-0.2-0.3-0.4-0.3-0.7
			c0-1.8,0-3.5,0-5.3c0-0.2,0-0.3-0.3-0.2c-0.1,0-0.1,0-0.1,0.1s0,0.1,0,0.2c0,1.7,0,3.4,0,5.1c0,0.1,0,0.2,0,0.3
			c0,0.3-0.2,0.6-0.4,0.7c-0.3,0.1-0.5,0.1-0.8-0.1c-0.2-0.2-0.3-0.4-0.3-0.7c0-3.2,0-6.3,0-9.5l0,0c0-0.2,0-0.2-0.2-0.2
			c0,0-0.1,0-0.1,0.1s0,0.1,0,0.2c0,1.1,0,2.2,0,3.3c0,0.2,0,0.3-0.2,0.5c-0.1,0.1-0.1,0.1-0.2,0.1c-0.2,0-0.3,0-0.5,0
			c-0.1,0-0.2-0.1-0.2-0.2s-0.1-0.2-0.1-0.3c0-1.4,0-2.8,0-4.1c0-0.6,0.3-1,0.8-1.2c0.2-0.1,0.3-0.1,0.5-0.1c1.2,0,2.4,0,3.6,0
			c0.3,0,0.5,0.1,0.7,0.2s0.4,0.3,0.5,0.6c0.1,0.1,0.1,0.3,0.1,0.5c0,0.7,0,1.4,0,2c0,0.7,0,1.5,0,2.2c0,0.1,0,0.2,0,0.2
			c0,0.2-0.2,0.3-0.3,0.3h-0.1c-0.4,0-0.7-0.2-0.7-0.6c0-1.1,0-2.2,0-3.2c0-0.1,0-0.1,0-0.2s0-0.1-0.1-0.1c-0.2,0-0.2,0-0.2,0.2
			C404.4,401.9,404.4,403.5,404.4,405.2L404.4,405.2z"/>
		<path d="M401.3,396.6c0.1-0.3,0-0.6,0.2-0.8c0.1-0.1,0.2-0.2,0.3-0.2c0.1-0.1,0.2-0.1,0.3-0.2c0.3-0.2,0.6-0.2,0.9-0.1
			c0.5,0.2,0.9,0.6,0.9,1.1c0,0.3,0,0.7-0.3,0.9c-0.1,0.1-0.2,0.2-0.3,0.3c-0.2,0.2-0.5,0.3-0.8,0.3s-0.6-0.1-0.8-0.3
			c-0.1-0.1-0.3-0.3-0.4-0.4c0,0,0-0.1-0.1-0.1C401.4,397,401.3,396.8,401.3,396.6z"/>
	</g>
	<g>
		<path d="M117.8,401.4c0.2,0.5,0.3,1.1,0.5,1.6c0.1,0.3,0.2,0.5,0.2,0.8c0.1,0.6,0.4,1.2,0.5,1.8c0.1,0.4,0.2,0.7,0.3,1.1
			c0,0.2,0.1,0.3,0.1,0.5c0,0.1,0,0.1-0.1,0.1c-0.2,0-0.4,0-0.7,0c-0.2,0-0.5,0-0.7,0s-0.2,0-0.2,0.2v0.1c0,1.3,0,2.6,0,3.9
			c0,0.2,0,0.3-0.1,0.5c-0.2,0.3-0.7,0.3-0.9,0.1l-0.1-0.1c-0.1-0.1-0.1-0.2-0.1-0.3c0-0.1,0-0.2,0-0.2c0-1.3,0-2.6,0-3.9
			c0-0.2,0-0.2-0.2-0.2l-0.1,0.1c0,0.1,0,0.1,0,0.2c0,1.3,0,2.6,0,3.9c0,0.3-0.1,0.4-0.3,0.6c-0.2,0.1-0.4,0.1-0.6,0.1
			c-0.2-0.1-0.3-0.3-0.4-0.5c0-0.1,0-0.1,0-0.2c0-1.3,0-2.6,0-3.8c0-0.1,0-0.1,0-0.2s0-0.1-0.1-0.1c-0.4,0-0.8,0-1.2,0
			c-0.1,0-0.1,0-0.2,0s-0.1,0-0.1-0.1c0.1-0.5,0.3-1,0.4-1.5c0.1-0.4,0.3-0.9,0.4-1.3c0.2-0.8,0.4-1.5,0.7-2.3
			c0.1-0.2,0.1-0.5,0.2-0.7v-0.1c-0.1,0-0.2,0-0.2,0.1c-0.1,0.5-0.3,1-0.4,1.5c0,0.1-0.1,0.3-0.1,0.4c-0.1,0.3-0.2,0.6-0.3,1
			c0,0.1-0.1,0.2-0.1,0.3c-0.1,0.4-0.6,0.6-0.9,0.3c-0.2-0.1-0.2-0.3-0.1-0.5c0.1-0.4,0.3-0.8,0.4-1.3c0.1-0.2,0.1-0.5,0.2-0.7
			c0.1-0.3,0.2-0.7,0.3-1c0.1-0.2,0.1-0.5,0.2-0.7c0-0.2,0.1-0.3,0.2-0.4c0-0.1,0.1-0.1,0.1-0.2c0.1-0.2,0.3-0.3,0.5-0.4
			s0.4-0.1,0.5-0.1c0.8,0,1.7,0,2.5,0c0.3,0,0.5,0.1,0.8,0.3c0.1,0.1,0.2,0.2,0.2,0.3c0.1,0.2,0.2,0.4,0.3,0.6
			c0.2,0.6,0.4,1.1,0.5,1.7c0.1,0.5,0.3,1,0.4,1.4c0,0.2,0.1,0.4,0.2,0.5c0,0.1,0,0.1,0,0.2c0,0.3-0.1,0.4-0.3,0.5
			c-0.3,0.1-0.5,0-0.6-0.1c0-0.1-0.1-0.1-0.1-0.2c-0.1-0.4-0.3-0.9-0.4-1.3c-0.1-0.3-0.1-0.6-0.3-0.9c-0.1-0.3-0.2-0.6-0.3-0.9
			C118.1,401.4,118.1,401.4,117.8,401.4z"/>
		<path d="M116.5,396.7c0.2,0,0.4,0.1,0.6,0.2c0.1,0,0.1,0.1,0.2,0.1c0.3,0.1,0.4,0.3,0.4,0.6c0,0.1,0.1,0.2,0.1,0.4
			c0,0.3,0,0.6-0.1,0.8c-0.1,0.2-0.3,0.4-0.6,0.5c-0.2,0.1-0.3,0.2-0.5,0.2s-0.4,0-0.6-0.1c-0.3-0.1-0.5-0.3-0.6-0.6
			c-0.1-0.1-0.1-0.3-0.1-0.4c0-0.2,0-0.5,0.1-0.7c0.1-0.3,0.2-0.5,0.5-0.6c0.2-0.1,0.3-0.2,0.5-0.2
			C116.3,396.8,116.4,396.7,116.5,396.7z"/>
	</g>
	<g>
		<path d="M176.1,406.6c0,1.6,0,3.2,0,4.8c0,0.3-0.2,0.6-0.4,0.7s-0.6,0.1-0.8-0.1s-0.3-0.4-0.3-0.7c0-1.8,0-3.5,0-5.3
			c0-0.2,0-0.3-0.3-0.2c-0.1,0-0.1,0-0.1,0.1s0,0.1,0,0.2c0,1.7,0,3.4,0,5.1c0,0.1,0,0.2,0,0.3c0,0.3-0.2,0.6-0.4,0.7
			c-0.3,0.1-0.5,0.1-0.8-0.1c-0.2-0.2-0.3-0.4-0.3-0.7c0-3.2,0-6.3,0-9.5l0,0c0-0.2,0-0.2-0.2-0.2c0,0-0.1,0-0.1,0.1s0,0.1,0,0.2
			c0,1.1,0,2.2,0,3.3c0,0.2,0,0.3-0.2,0.5c-0.1,0.1-0.1,0.1-0.2,0.1c-0.2,0-0.3,0-0.5,0c-0.1,0-0.2-0.1-0.2-0.2s-0.1-0.2-0.1-0.3
			c0-1.4,0-2.8,0-4.1c0-0.6,0.3-1,0.8-1.2c0.2-0.1,0.3-0.1,0.5-0.1c1.2,0,2.4,0,3.6,0c0.3,0,0.5,0.1,0.7,0.2s0.4,0.3,0.5,0.6
			c0.1,0.1,0.1,0.3,0.1,0.5c0,0.7,0,1.4,0,2c0,0.7,0,1.5,0,2.2c0,0.1,0,0.2,0,0.2c0,0.2-0.2,0.3-0.3,0.3H177c-0.4,0-0.7-0.2-0.7-0.6
			c0-1.1,0-2.2,0-3.2c0-0.1,0-0.1,0-0.2s0-0.1-0.1-0.1c-0.2,0-0.2,0-0.2,0.2C176.1,403.4,176.1,405,176.1,406.6L176.1,406.6z"/>
		<path d="M173,398.1c0.1-0.3,0-0.6,0.2-0.8c0.1-0.1,0.2-0.2,0.3-0.2c0.1-0.1,0.2-0.1,0.3-0.2c0.3-0.2,0.6-0.2,0.9-0.1
			c0.5,0.2,0.9,0.6,0.9,1.1c0,0.3,0,0.7-0.3,0.9c-0.1,0.1-0.2,0.2-0.3,0.3c-0.2,0.2-0.5,0.3-0.8,0.3s-0.6-0.1-0.8-0.3
			c-0.1-0.1-0.3-0.3-0.4-0.4c0,0,0-0.1-0.1-0.1C173.1,398.5,173.1,398.3,173,398.1z"/>
	</g>
	<g>
		<path d="M19.5,98.8c0.2,0.5,0.3,1.1,0.5,1.6c0.1,0.3,0.2,0.5,0.2,0.8c0.1,0.6,0.4,1.2,0.5,1.8c0.1,0.4,0.2,0.7,0.3,1.1
			c0,0.2,0.1,0.3,0.1,0.5c0,0.1,0,0.1-0.1,0.1c-0.2,0-0.4,0-0.7,0c-0.2,0-0.5,0-0.7,0s-0.2,0-0.2,0.2v0.1c0,1.3,0,2.6,0,3.9
			c0,0.2,0,0.3-0.1,0.5c-0.2,0.3-0.7,0.3-0.9,0.1l-0.1-0.1c-0.1-0.1-0.1-0.2-0.1-0.3c0-0.1,0-0.2,0-0.2c0-1.3,0-2.6,0-3.9
			c0-0.2,0-0.2-0.2-0.2l-0.1,0.1c0,0.1,0,0.1,0,0.2c0,1.3,0,2.6,0,3.9c0,0.3-0.1,0.4-0.3,0.6c-0.2,0.1-0.4,0.1-0.6,0.1
			c-0.2-0.1-0.3-0.3-0.4-0.5c0-0.1,0-0.1,0-0.2c0-1.3,0-2.6,0-3.8c0-0.1,0-0.1,0-0.2s0-0.1-0.1-0.1c-0.4,0-0.8,0-1.2,0
			c-0.1,0-0.1,0-0.2,0c-0.1,0-0.1,0-0.1-0.1c0.1-0.5,0.3-1,0.4-1.5c0.1-0.4,0.3-0.9,0.4-1.3c0.2-0.8,0.4-1.5,0.7-2.3
			c0.1-0.2,0.1-0.5,0.2-0.7v-0.1c-0.1,0-0.2,0-0.2,0.1c-0.1,0.5-0.3,1-0.4,1.5c0,0.1-0.1,0.3-0.1,0.4c-0.1,0.3-0.2,0.6-0.3,1
			c0,0.1-0.1,0.2-0.1,0.3c-0.1,0.4-0.6,0.6-0.9,0.3c-0.2-0.1-0.2-0.3-0.1-0.5c0.1-0.4,0.3-0.8,0.4-1.3c0.1-0.2,0.1-0.5,0.2-0.7
			c0.1-0.3,0.2-0.7,0.3-1c0.1-0.2,0.1-0.5,0.2-0.7c0-0.2,0.1-0.3,0.2-0.4c0-0.1,0.1-0.1,0.1-0.2c0.1-0.2,0.3-0.3,0.5-0.4
			s0.4-0.1,0.5-0.1c0.8,0,1.7,0,2.5,0c0.3,0,0.5,0.1,0.8,0.3c0.1,0.1,0.2,0.2,0.2,0.3c0.1,0.2,0.2,0.4,0.3,0.6
			c0.2,0.6,0.4,1.1,0.5,1.7c0.1,0.5,0.3,1,0.4,1.4c0,0.2,0.1,0.4,0.2,0.5c0,0.1,0,0.1,0,0.2c0,0.3-0.1,0.4-0.3,0.5
			c-0.3,0.1-0.5,0-0.6-0.1c0-0.1-0.1-0.1-0.1-0.2c-0.1-0.4-0.3-0.9-0.4-1.3c-0.1-0.3-0.1-0.6-0.3-0.9c-0.1-0.3-0.2-0.6-0.3-0.9
			C19.7,98.8,19.7,98.8,19.5,98.8z"/>
		<path d="M18.1,94.1c0.2,0,0.4,0.1,0.6,0.2c0.1,0,0.1,0.1,0.2,0.1c0.3,0.1,0.4,0.3,0.4,0.6c0,0.1,0.1,0.2,0.1,0.4
			c0,0.3,0,0.6-0.1,0.8c-0.1,0.2-0.3,0.4-0.6,0.5c-0.2,0.1-0.3,0.2-0.5,0.2s-0.4,0-0.6-0.1c-0.3-0.1-0.5-0.3-0.6-0.6
			c-0.1-0.1-0.1-0.3-0.1-0.4c0-0.2,0-0.5,0.1-0.7c0.1-0.3,0.2-0.5,0.5-0.6c0.2-0.1,0.3-0.2,0.5-0.2C17.9,94.2,18,94.1,18.1,94.1z"/>
	</g>
	<g>
		<path d="M19.8,124.2c0,1.6,0,3.2,0,4.8c0,0.3-0.2,0.6-0.4,0.7c-0.2,0.1-0.6,0.1-0.8-0.1c-0.2-0.2-0.3-0.4-0.3-0.7
			c0-1.8,0-3.5,0-5.3c0-0.2,0-0.3-0.3-0.2c-0.1,0-0.1,0-0.1,0.1s0,0.1,0,0.2c0,1.7,0,3.4,0,5.1c0,0.1,0,0.2,0,0.3
			c0,0.3-0.2,0.6-0.4,0.7c-0.3,0.1-0.5,0.1-0.8-0.1c-0.2-0.2-0.3-0.4-0.3-0.7c0-3.2,0-6.3,0-9.5l0,0c0-0.2,0-0.2-0.2-0.2
			c0,0-0.1,0-0.1,0.1s0,0.1,0,0.2c0,1.1,0,2.2,0,3.3c0,0.2,0,0.3-0.2,0.5c-0.1,0.1-0.1,0.1-0.2,0.1c-0.2,0-0.3,0-0.5,0
			c-0.1,0-0.2-0.1-0.2-0.2s-0.1-0.2-0.1-0.3c0-1.4,0-2.8,0-4.1c0-0.6,0.3-1,0.8-1.2c0.2-0.1,0.3-0.1,0.5-0.1c1.2,0,2.4,0,3.6,0
			c0.3,0,0.5,0.1,0.7,0.2s0.4,0.3,0.5,0.6c0.1,0.1,0.1,0.3,0.1,0.5c0,0.7,0,1.4,0,2c0,0.7,0,1.5,0,2.2c0,0.1,0,0.2,0,0.2
			c0,0.2-0.2,0.3-0.3,0.3h-0.1c-0.4,0-0.7-0.2-0.7-0.6c0-1.1,0-2.2,0-3.2c0-0.1,0-0.1,0-0.2s0-0.1-0.1-0.1c-0.2,0-0.2,0-0.2,0.2
			C19.8,120.9,19.8,122.6,19.8,124.2L19.8,124.2z"/>
		<path d="M16.7,115.6c0.1-0.3,0-0.6,0.2-0.8c0.1-0.1,0.2-0.2,0.3-0.2c0.1-0.1,0.2-0.1,0.3-0.2c0.3-0.2,0.6-0.2,0.9-0.1
			c0.5,0.2,0.9,0.6,0.9,1.1c0,0.3,0,0.7-0.3,0.9c-0.1,0.1-0.2,0.2-0.3,0.3c-0.2,0.2-0.5,0.3-0.8,0.3s-0.6-0.1-0.8-0.3
			c-0.1-0.1-0.3-0.3-0.4-0.4c0,0,0-0.1-0.1-0.1C16.8,116,16.7,115.8,16.7,115.6z"/>
	</g>
	<g>
		<path d="M18.1,56.9c1.7,0,3.5,0,5.2,0c0.7,0,1.3,0.2,1.8,0.7c0.8,0.8,1.3,1.7,1.3,2.9c0,3.2,0,6.4,0,9.5c0,0.7-0.2,1.4-0.6,2
			c-0.3,0.4-0.6,0.8-1.1,1.1c-0.4,0.3-0.9,0.4-1.4,0.5c-0.1,0-0.3,0-0.5,0c-2.6,0-5.1,0-7.7,0c-0.6,0-1.1,0-1.7,0
			c-1.1,0-1.9-0.4-2.7-1.1c-0.3-0.3-0.6-0.6-0.7-1c-0.1-0.4-0.2-0.8-0.2-1.3c0-3.3,0-6.6,0-9.9c0-1.2,0.6-2.2,1.7-2.9
			c0.5-0.3,1-0.4,1.5-0.4C14.7,56.9,16.4,56.9,18.1,56.9L18.1,56.9z M18,72.1L18,72.1c0.1,0,0.1,0,0.2,0c1.6,0,3.2,0,4.8,0
			c0.4,0,0.7-0.1,1-0.3c0.7-0.5,1.1-1.1,1.1-1.9c0-2.2,0-4.4,0-6.6c0-1,0-2,0-3c0-0.4-0.1-0.8-0.3-1.1c-0.4-0.7-1.1-1.1-2-1.1
			c-2.6,0-5.2,0-7.8,0c-0.6,0-1.3,0-1.9,0c-0.5,0-1,0.2-1.4,0.5c-0.5,0.4-0.7,1-0.7,1.6c0,3.1,0,6.3,0,9.4c0,0.4,0.1,0.8,0.2,1.1
			c0.1,0.2,0.3,0.4,0.4,0.6c0.1,0.2,0.3,0.3,0.5,0.5c0.3,0.2,0.6,0.2,1,0.2C14.7,72.1,16.4,72.1,18,72.1z"/>
		<path d="M13.7,70.3c-0.3,0-0.7,0-1,0c-0.2,0-0.3-0.1-0.3-0.3v-0.1c0-0.7-0.1-0.6,0.5-0.6c0.3,0,0.6,0,0.9,0c0.3,0,0.3,0,0.3-0.3
			c0-0.5,0-1,0-1.5c0-0.4,0-0.4,0.4-0.4s0.7,0,1.1,0c0.2,0,0.3,0,0.3-0.3c0-0.4,0-0.8,0-1.2c0-0.2,0-0.2,0.2-0.2c0.4,0,0.9,0,1.3,0
			c0.1,0,0.2-0.1,0.2-0.2c0-0.4,0-0.9,0-1.3c0-0.2,0-0.2,0.2-0.2c0.4,0,0.8,0,1.2,0c0.2,0,0.3,0,0.3-0.3c0-0.4,0-0.8,0-1.2
			c0-0.2,0-0.2,0.2-0.2c0.4,0,0.8,0,1.2,0c0.3,0,0.3,0,0.3-0.3c0-0.4,0-0.8,0-1.2c0-0.2,0-0.2,0.3-0.2c0.7,0,1.4,0,2.1,0
			c0.2,0,0.3,0,0.3,0.2c0,0.7,0,0.7-0.7,0.7c-0.3,0-0.6,0-0.9,0c-0.1,0-0.2,0-0.2,0.2c0,0.4,0,0.9,0,1.3c0,0.2,0,0.2-0.2,0.2
			c-0.4,0-0.9,0-1.3,0c-0.1,0-0.2,0.1-0.2,0.2c0,0.4,0,0.8,0,1.3c0,0.3,0,0.3-0.3,0.3c-0.4,0-0.8,0-1.1,0c-0.3,0-0.3-0.1-0.3,0.3
			s0,0.8,0,1.2c0,0.2-0.1,0.3-0.3,0.3c-0.1,0-0.1,0-0.2,0c-0.4,0-0.7,0-1.1,0.1c-0.1,0-0.2,0.1-0.2,0.2c0,0.4,0,0.8,0,1.3
			c0,0.3,0,0.3-0.3,0.3c-0.4-0.1-0.8,0-1.2,0c-0.1,0-0.2,0.1-0.2,0.2c0,0.5,0,1,0,1.5c0,0.4,0,0.4-0.4,0.4
			C14.3,70.3,14,70.3,13.7,70.3L13.7,70.3z"/>
	</g>
	<g>
		<path d="M449.2,115.2c1.7,0,3.5,0,5.2,0c0.7,0,1.3,0.2,1.8,0.7c0.8,0.8,1.3,1.7,1.3,2.9c0,3.2,0,6.4,0,9.5c0,0.7-0.2,1.4-0.6,2
			c-0.3,0.4-0.6,0.8-1.1,1.1c-0.4,0.3-0.9,0.4-1.4,0.5c-0.1,0-0.3,0-0.5,0c-2.6,0-5.1,0-7.7,0c-0.6,0-1.1,0-1.7,0
			c-1.1,0-1.9-0.4-2.7-1.1c-0.3-0.3-0.6-0.6-0.7-1s-0.2-0.8-0.2-1.3c0-3.3,0-6.6,0-9.9c0-1.2,0.6-2.2,1.7-2.9c0.5-0.3,1-0.4,1.5-0.4
			C445.8,115.2,447.5,115.1,449.2,115.2L449.2,115.2z M449.2,130.4L449.2,130.4c0.1,0,0.1,0,0.2,0c1.6,0,3.2,0,4.8,0
			c0.4,0,0.7-0.1,1-0.3c0.7-0.5,1.1-1.1,1.1-1.9c0-2.2,0-4.4,0-6.6c0-1,0-2,0-3c0-0.4-0.1-0.8-0.3-1.1c-0.4-0.7-1.1-1.1-2-1.1
			c-2.6,0-5.2,0-7.8,0c-0.6,0-1.3,0-1.9,0c-0.5,0-1,0.2-1.4,0.5c-0.5,0.4-0.7,1-0.7,1.6c0,3.1,0,6.3,0,9.4c0,0.4,0.1,0.8,0.2,1.1
			c0.1,0.2,0.3,0.4,0.4,0.6c0.1,0.2,0.3,0.3,0.5,0.5c0.3,0.2,0.6,0.2,1,0.2C445.9,130.4,447.5,130.4,449.2,130.4z"/>
		<path d="M444.9,128.6c-0.3,0-0.7,0-1,0c-0.2,0-0.3-0.1-0.3-0.3v-0.1c0-0.7-0.1-0.6,0.5-0.6c0.3,0,0.6,0,0.9,0s0.3,0,0.3-0.3
			c0-0.5,0-1,0-1.5c0-0.4,0-0.4,0.4-0.4s0.7,0,1.1,0c0.2,0,0.3,0,0.3-0.3c0-0.4,0-0.8,0-1.2c0-0.2,0-0.2,0.2-0.2c0.4,0,0.9,0,1.3,0
			c0.1,0,0.2-0.1,0.2-0.2c0-0.4,0-0.9,0-1.3c0-0.2,0-0.2,0.2-0.2c0.4,0,0.8,0,1.2,0c0.2,0,0.3,0,0.3-0.3c0-0.4,0-0.8,0-1.2
			c0-0.2,0-0.2,0.2-0.2c0.4,0,0.8,0,1.2,0c0.3,0,0.3,0,0.3-0.3c0-0.4,0-0.8,0-1.2c0-0.2,0-0.2,0.3-0.2c0.7,0,1.4,0,2.1,0
			c0.2,0,0.3,0,0.3,0.2c0,0.7,0,0.7-0.7,0.7c-0.3,0-0.6,0-0.9,0c-0.1,0-0.2,0-0.2,0.2c0,0.4,0,0.9,0,1.3c0,0.2,0,0.2-0.2,0.2
			c-0.4,0-0.9,0-1.3,0c-0.1,0-0.2,0.1-0.2,0.2c0,0.4,0,0.8,0,1.3c0,0.3,0,0.3-0.3,0.3c-0.4,0-0.8,0-1.1,0c-0.3,0-0.3-0.1-0.3,0.3
			s0,0.8,0,1.2c0,0.2-0.1,0.3-0.3,0.3c-0.1,0-0.1,0-0.2,0c-0.4,0-0.7,0-1.1,0.1c-0.1,0-0.2,0.1-0.2,0.2c0,0.4,0,0.8,0,1.3
			c0,0.3,0,0.3-0.3,0.3c-0.4-0.1-0.8,0-1.2,0c-0.1,0-0.2,0.1-0.2,0.2c0,0.5,0,1,0,1.5c0,0.4,0,0.4-0.4,0.4
			C445.5,128.6,445.2,128.6,444.9,128.6L444.9,128.6z"/>
	</g>
	<g>
		<path d="M221.6,113.2c1.7,0,3.5,0,5.2,0c0.7,0,1.3,0.2,1.8,0.7c0.8,0.8,1.3,1.7,1.3,2.9c0,3.2,0,6.4,0,9.5c0,0.7-0.2,1.4-0.6,2
			c-0.3,0.4-0.6,0.8-1.1,1.1c-0.4,0.3-0.9,0.4-1.4,0.5c-0.1,0-0.3,0-0.5,0c-2.6,0-5.1,0-7.7,0c-0.6,0-1.1,0-1.7,0
			c-1.1,0-1.9-0.4-2.7-1.1c-0.3-0.3-0.6-0.6-0.7-1c-0.1-0.4-0.2-0.8-0.2-1.3c0-3.3,0-6.6,0-9.9c0-1.2,0.6-2.2,1.7-2.9
			c0.5-0.3,1-0.4,1.5-0.4C218.2,113.2,219.9,113.2,221.6,113.2L221.6,113.2z M221.6,128.5L221.6,128.5c0.1,0,0.1,0,0.2,0
			c1.6,0,3.2,0,4.8,0c0.4,0,0.7-0.1,1-0.3c0.7-0.5,1.1-1.1,1.1-1.9c0-2.2,0-4.4,0-6.6c0-1,0-2,0-3c0-0.4-0.1-0.8-0.3-1.1
			c-0.4-0.7-1.1-1.1-2-1.1c-2.6,0-5.2,0-7.8,0c-0.6,0-1.3,0-1.9,0c-0.5,0-1,0.2-1.4,0.5c-0.5,0.4-0.7,1-0.7,1.6c0,3.1,0,6.3,0,9.4
			c0,0.4,0.1,0.8,0.2,1.1c0.1,0.2,0.3,0.4,0.4,0.6c0.1,0.2,0.3,0.3,0.5,0.5c0.3,0.2,0.6,0.2,1,0.2
			C218.3,128.5,219.9,128.5,221.6,128.5z"/>
		<path d="M217.3,126.7c-0.3,0-0.7,0-1,0c-0.2,0-0.3-0.1-0.3-0.3v-0.1c0-0.7-0.1-0.6,0.5-0.6c0.3,0,0.6,0,0.9,0c0.3,0,0.3,0,0.3-0.3
			c0-0.5,0-1,0-1.5c0-0.4,0-0.4,0.4-0.4s0.7,0,1.1,0c0.2,0,0.3,0,0.3-0.3c0-0.4,0-0.8,0-1.2c0-0.2,0-0.2,0.2-0.2c0.4,0,0.9,0,1.3,0
			c0.1,0,0.2-0.1,0.2-0.2c0-0.4,0-0.9,0-1.3c0-0.2,0-0.2,0.2-0.2c0.4,0,0.8,0,1.2,0c0.2,0,0.3,0,0.3-0.3c0-0.4,0-0.8,0-1.2
			c0-0.2,0-0.2,0.2-0.2c0.4,0,0.8,0,1.2,0c0.3,0,0.3,0,0.3-0.3c0-0.4,0-0.8,0-1.2c0-0.2,0-0.2,0.3-0.2c0.7,0,1.4,0,2.1,0
			c0.2,0,0.3,0,0.3,0.2c0,0.7,0,0.7-0.7,0.7c-0.3,0-0.6,0-0.9,0c-0.1,0-0.2,0-0.2,0.2c0,0.4,0,0.9,0,1.3c0,0.2,0,0.2-0.2,0.2
			c-0.4,0-0.9,0-1.3,0c-0.1,0-0.2,0.1-0.2,0.2c0,0.4,0,0.8,0,1.3c0,0.3,0,0.3-0.3,0.3c-0.4,0-0.8,0-1.1,0s-0.3-0.1-0.3,0.3
			s0,0.8,0,1.2c0,0.2-0.1,0.3-0.3,0.3c-0.1,0-0.1,0-0.2,0c-0.4,0-0.7,0-1.1,0.1c-0.1,0-0.2,0.1-0.2,0.2c0,0.4,0,0.8,0,1.3
			c0,0.3,0,0.3-0.3,0.3c-0.4-0.1-0.8,0-1.2,0c-0.1,0-0.2,0.1-0.2,0.2c0,0.5,0,1,0,1.5c0,0.4,0,0.4-0.4,0.4
			C217.9,126.7,217.6,126.7,217.3,126.7L217.3,126.7z"/>
	</g>
	<g>
		<path d="M68.7,365.2c1.7,0,3.5,0,5.2,0c0.7,0,1.3,0.2,1.8,0.7c0.8,0.8,1.3,1.7,1.3,2.9c0,3.2,0,6.4,0,9.5c0,0.7-0.2,1.4-0.6,2
			c-0.3,0.4-0.6,0.8-1.1,1.1c-0.4,0.3-0.9,0.4-1.4,0.5c-0.1,0-0.3,0-0.5,0c-2.6,0-5.1,0-7.7,0c-0.6,0-1.1,0-1.7,0
			c-1.1,0-1.9-0.4-2.7-1.1c-0.3-0.3-0.6-0.6-0.7-1c-0.1-0.4-0.2-0.8-0.2-1.3c0-3.3,0-6.6,0-9.9c0-1.2,0.6-2.2,1.7-2.9
			c0.5-0.3,1-0.4,1.5-0.4C65.3,365.2,67,365.2,68.7,365.2L68.7,365.2z M68.7,380.5L68.7,380.5c0.1,0,0.1,0,0.2,0c1.6,0,3.2,0,4.8,0
			c0.4,0,0.7-0.1,1-0.3c0.7-0.5,1.1-1.1,1.1-1.9c0-2.2,0-4.4,0-6.6c0-1,0-2,0-3c0-0.4-0.1-0.8-0.3-1.1c-0.4-0.7-1.1-1.1-2-1.1
			c-2.6,0-5.2,0-7.8,0c-0.6,0-1.3,0-1.9,0c-0.5,0-1,0.2-1.4,0.5c-0.5,0.4-0.7,1-0.7,1.6c0,3.1,0,6.3,0,9.4c0,0.4,0.1,0.8,0.2,1.1
			c0.1,0.2,0.3,0.4,0.4,0.6c0.1,0.2,0.3,0.3,0.5,0.5c0.3,0.2,0.6,0.2,1,0.2C65.4,380.5,67,380.5,68.7,380.5z"/>
		<path d="M64.4,378.7c-0.3,0-0.7,0-1,0c-0.2,0-0.3-0.1-0.3-0.3v-0.1c0-0.7-0.1-0.6,0.5-0.6c0.3,0,0.6,0,0.9,0c0.3,0,0.3,0,0.3-0.3
			c0-0.5,0-1,0-1.5c0-0.4,0-0.4,0.4-0.4s0.7,0,1.1,0c0.2,0,0.3,0,0.3-0.3c0-0.4,0-0.8,0-1.2c0-0.2,0-0.2,0.2-0.2c0.4,0,0.9,0,1.3,0
			c0.1,0,0.2-0.1,0.2-0.2c0-0.4,0-0.9,0-1.3c0-0.2,0-0.2,0.2-0.2c0.4,0,0.8,0,1.2,0c0.2,0,0.3,0,0.3-0.3c0-0.4,0-0.8,0-1.2
			c0-0.2,0-0.2,0.2-0.2c0.4,0,0.8,0,1.2,0c0.3,0,0.3,0,0.3-0.3c0-0.4,0-0.8,0-1.2c0-0.2,0-0.2,0.3-0.2c0.7,0,1.4,0,2.1,0
			c0.2,0,0.3,0,0.3,0.2c0,0.7,0,0.7-0.7,0.7c-0.3,0-0.6,0-0.9,0c-0.1,0-0.2,0-0.2,0.2c0,0.4,0,0.9,0,1.3c0,0.2,0,0.2-0.2,0.2
			c-0.4,0-0.9,0-1.3,0c-0.1,0-0.2,0.1-0.2,0.2c0,0.4,0,0.8,0,1.3c0,0.3,0,0.3-0.3,0.3c-0.4,0-0.8,0-1.1,0c-0.3,0-0.3-0.1-0.3,0.3
			s0,0.8,0,1.2c0,0.2-0.1,0.3-0.3,0.3c-0.1,0-0.1,0-0.2,0c-0.4,0-0.7,0-1.1,0.1c-0.1,0-0.2,0.1-0.2,0.2c0,0.4,0,0.8,0,1.3
			c0,0.3,0,0.3-0.3,0.3c-0.4-0.1-0.8,0-1.2,0c-0.1,0-0.2,0.1-0.2,0.2c0,0.5,0,1,0,1.5c0,0.4,0,0.4-0.4,0.4
			C65,378.7,64.7,378.7,64.4,378.7L64.4,378.7z"/>
	</g>
	<g>
		<path d="M297.8,365.2c1.7,0,3.5,0,5.2,0c0.7,0,1.3,0.2,1.8,0.7c0.8,0.8,1.3,1.7,1.3,2.9c0,3.2,0,6.4,0,9.5c0,0.7-0.2,1.4-0.6,2
			c-0.3,0.4-0.6,0.8-1.1,1.1c-0.4,0.3-0.9,0.4-1.4,0.5c-0.1,0-0.3,0-0.5,0c-2.6,0-5.1,0-7.7,0c-0.6,0-1.1,0-1.7,0
			c-1.1,0-1.9-0.4-2.7-1.1c-0.3-0.3-0.6-0.6-0.7-1s-0.2-0.8-0.2-1.3c0-3.3,0-6.6,0-9.9c0-1.2,0.6-2.2,1.7-2.9c0.5-0.3,1-0.4,1.5-0.4
			C294.4,365.2,296.1,365.2,297.8,365.2L297.8,365.2z M297.7,380.5L297.7,380.5c0.1,0,0.1,0,0.2,0c1.6,0,3.2,0,4.8,0
			c0.4,0,0.7-0.1,1-0.3c0.7-0.5,1.1-1.1,1.1-1.9c0-2.2,0-4.4,0-6.6c0-1,0-2,0-3c0-0.4-0.1-0.8-0.3-1.1c-0.4-0.7-1.1-1.1-2-1.1
			c-2.6,0-5.2,0-7.8,0c-0.6,0-1.3,0-1.9,0c-0.5,0-1,0.2-1.4,0.5c-0.5,0.4-0.7,1-0.7,1.6c0,3.1,0,6.3,0,9.4c0,0.4,0.1,0.8,0.2,1.1
			c0.1,0.2,0.3,0.4,0.4,0.6s0.3,0.3,0.5,0.5c0.3,0.2,0.6,0.2,1,0.2C294.4,380.5,296.1,380.5,297.7,380.5z"/>
		<path d="M293.4,378.7c-0.3,0-0.7,0-1,0c-0.2,0-0.3-0.1-0.3-0.3v-0.1c0-0.7-0.1-0.6,0.5-0.6c0.3,0,0.6,0,0.9,0s0.3,0,0.3-0.3
			c0-0.5,0-1,0-1.5c0-0.4,0-0.4,0.4-0.4s0.7,0,1.1,0c0.2,0,0.3,0,0.3-0.3c0-0.4,0-0.8,0-1.2c0-0.2,0-0.2,0.2-0.2c0.4,0,0.9,0,1.3,0
			c0.1,0,0.2-0.1,0.2-0.2c0-0.4,0-0.9,0-1.3c0-0.2,0-0.2,0.2-0.2c0.4,0,0.8,0,1.2,0c0.2,0,0.3,0,0.3-0.3c0-0.4,0-0.8,0-1.2
			c0-0.2,0-0.2,0.2-0.2c0.4,0,0.8,0,1.2,0c0.3,0,0.3,0,0.3-0.3c0-0.4,0-0.8,0-1.2c0-0.2,0-0.2,0.3-0.2c0.7,0,1.4,0,2.1,0
			c0.2,0,0.3,0,0.3,0.2c0,0.7,0,0.7-0.7,0.7c-0.3,0-0.6,0-0.9,0c-0.1,0-0.2,0-0.2,0.2c0,0.4,0,0.9,0,1.3c0,0.2,0,0.2-0.2,0.2
			c-0.4,0-0.9,0-1.3,0c-0.1,0-0.2,0.1-0.2,0.2c0,0.4,0,0.8,0,1.3c0,0.3,0,0.3-0.3,0.3c-0.4,0-0.8,0-1.1,0c-0.3,0-0.3-0.1-0.3,0.3
			s0,0.8,0,1.2c0,0.2-0.1,0.3-0.3,0.3c-0.1,0-0.1,0-0.2,0c-0.4,0-0.7,0-1.1,0.1c-0.1,0-0.2,0.1-0.2,0.2c0,0.4,0,0.8,0,1.3
			c0,0.3,0,0.3-0.3,0.3c-0.4-0.1-0.8,0-1.2,0c-0.1,0-0.2,0.1-0.2,0.2c0,0.5,0,1,0,1.5c0,0.4,0,0.4-0.4,0.4
			C294,378.7,293.7,378.7,293.4,378.7L293.4,378.7z"/>
	</g>
	<path class="st6" d="M417.4,332.2h-86.8c-0.8,0-1.4-0.6-1.4-1.4v-24.2c0-0.8,0.6-1.4,1.4-1.4h86.8c0.8,0,1.4,0.6,1.4,1.4v24.2
		C418.8,331.6,418.2,332.2,417.4,332.2z"/>
	<g>
		<g>
			<line class="st6" x1="425.1" y1="283.1" x2="425.1" y2="280.4"/>
			<g>
				<path class="st7" d="M425.1,277.3c0.5,1.4,1.4,3.2,2.4,4.3l-2.4-0.9l-2.4,0.9C423.7,280.5,424.6,278.8,425.1,277.3z"/>
			</g>
		</g>
	</g>
	<g>
		<g>
			<line class="st6" x1="425.1" y1="367.2" x2="425.1" y2="364.4"/>
			<g>
				<path class="st7" d="M425.1,361.4c0.5,1.4,1.4,3.2,2.4,4.3l-2.4-0.9l-2.4,0.9C423.7,364.6,424.6,362.8,425.1,361.4z"/>
			</g>
		</g>
	</g>
	<g>
		<g>
			<line class="st6" x1="425.1" y1="451.2" x2="425.1" y2="448.4"/>
			<g>
				<path class="st7" d="M425.1,445.4c0.5,1.4,1.4,3.2,2.4,4.3l-2.4-0.9l-2.4,0.9C423.7,448.6,424.6,446.8,425.1,445.4z"/>
			</g>
		</g>
	</g>
	<g>
		<g>
			<line class="st6" x1="425.1" y1="199.1" x2="425.1" y2="196.3"/>
			<g>
				<path class="st7" d="M425.1,193.3c0.5,1.4,1.4,3.2,2.4,4.3l-2.4-0.9l-2.4,0.9C423.7,196.5,424.6,194.7,425.1,193.3z"/>
			</g>
		</g>
	</g>
	<g>
		<g>
			<line class="st6" x1="425.1" y1="115.1" x2="425.1" y2="112.3"/>
			<g>
				<path class="st7" d="M425.1,109.3c0.5,1.4,1.4,3.2,2.4,4.3l-2.4-0.9l-2.4,0.9C423.7,112.5,424.6,110.7,425.1,109.3z"/>
			</g>
		</g>
	</g>
	<g>
		<g>
			<line class="st6" x1="196.5" y1="283.1" x2="196.5" y2="280.4"/>
			<g>
				<path class="st7" d="M196.5,277.3c0.5,1.4,1.4,3.2,2.4,4.3l-2.4-0.9l-2.4,0.9C195.1,280.5,196,278.8,196.5,277.3z"/>
			</g>
		</g>
	</g>
	<g>
		<g>
			<line class="st6" x1="196.5" y1="367.2" x2="196.5" y2="364.4"/>
			<g>
				<path class="st7" d="M196.5,361.4c0.5,1.4,1.4,3.2,2.4,4.3l-2.4-0.9l-2.4,0.9C195.1,364.6,196,362.8,196.5,361.4z"/>
			</g>
		</g>
	</g>
	<g>
		<g>
			<line class="st6" x1="196.5" y1="451.2" x2="196.5" y2="448.4"/>
			<g>
				<path class="st7" d="M196.5,445.4c0.5,1.4,1.4,3.2,2.4,4.3l-2.4-0.9l-2.4,0.9C195.1,448.6,196,446.8,196.5,445.4z"/>
			</g>
		</g>
	</g>
	<g>
		<g>
			<line class="st6" x1="196.5" y1="199.1" x2="196.5" y2="196.3"/>
			<g>
				<path class="st7" d="M196.5,193.3c0.5,1.4,1.4,3.2,2.4,4.3l-2.4-0.9l-2.4,0.9C195.1,196.5,196,194.7,196.5,193.3z"/>
			</g>
		</g>
	</g>
	<g>
		<g>
			<line class="st6" x1="196.5" y1="115.1" x2="196.5" y2="112.3"/>
			<g>
				<path class="st7" d="M196.5,109.3c0.5,1.4,1.4,3.2,2.4,4.3l-2.4-0.9l-2.4,0.9C195.1,112.5,196,110.7,196.5,109.3z"/>
			</g>
		</g>
	</g>
	<g>
		<g>
			<line class="st6" x1="322.5" y1="277.3" x2="322.5" y2="280.1"/>
			<g>
				<path class="st7" d="M322.5,283.1c-0.5-1.4-1.4-3.2-2.4-4.3l2.4,0.9l2.4-0.9C323.9,279.9,323,281.7,322.5,283.1z"/>
			</g>
		</g>
	</g>
	<g>
		<g>
			<line class="st6" x1="322.5" y1="193.3" x2="322.5" y2="196.1"/>
			<g>
				<path class="st7" d="M322.5,199.1c-0.5-1.4-1.4-3.2-2.4-4.3l2.4,0.9l2.4-0.9C323.9,195.9,323,197.7,322.5,199.1z"/>
			</g>
		</g>
	</g>
	<g>
		<g>
			<line class="st6" x1="322.5" y1="109.3" x2="322.5" y2="112.1"/>
			<g>
				<path class="st7" d="M322.5,115.1c-0.5-1.4-1.4-3.2-2.4-4.3l2.4,0.9l2.4-0.9C323.9,111.9,323,113.6,322.5,115.1z"/>
			</g>
		</g>
	</g>
	<g>
		<g>
			<line class="st6" x1="322.5" y1="361.4" x2="322.5" y2="364.1"/>
			<g>
				<path class="st7" d="M322.5,367.2c-0.5-1.4-1.4-3.2-2.4-4.3l2.4,0.9l2.4-0.9C323.9,364,323,365.7,322.5,367.2z"/>
			</g>
		</g>
	</g>
	<g>
		<g>
			<line class="st6" x1="322.5" y1="445.4" x2="322.5" y2="448.2"/>
			<g>
				<path class="st7" d="M322.5,451.2c-0.5-1.4-1.4-3.2-2.4-4.3l2.4,0.9l2.4-0.9C323.9,448,323,449.8,322.5,451.2z"/>
			</g>
		</g>
	</g>
	<g>
		<g>
			<line class="st6" x1="128.4" y1="261.7" x2="131.1" y2="261.7"/>
			<g>
				<path class="st7" d="M134.1,261.7c-1.4,0.5-3.2,1.4-4.3,2.4l0.9-2.4l-0.9-2.4C131,260.3,132.7,261.2,134.1,261.7z"/>
			</g>
		</g>
	</g>
	<g>
		<g>
			<line class="st6" x1="164.9" y1="263.8" x2="166.8" y2="261.8"/>
			<g>
				<path class="st7" d="M168.9,259.7c-0.6,1.4-1.2,3.3-1.3,4.7l-1.1-2.3l-2.3-1.1C165.7,260.9,167.6,260.3,168.9,259.7z"/>
			</g>
		</g>
	</g>
	<g>
		<g>
			<line class="st6" x1="156.2" y1="291.4" x2="154.3" y2="293.3"/>
			<g>
				<path class="st7" d="M152.2,295.4c0.6-1.4,1.2-3.3,1.3-4.7l1.1,2.3l2.3,1.1C155.4,294.2,153.5,294.8,152.2,295.4z"/>
			</g>
		</g>
	</g>
	<g>
		<g>
			<line class="st6" x1="94.5" y1="193.3" x2="94.5" y2="196.1"/>
			<g>
				<path class="st7" d="M94.5,199.1c-0.5-1.4-1.4-3.2-2.4-4.3l2.4,0.9l2.4-0.9C95.9,195.9,95,197.7,94.5,199.1z"/>
			</g>
		</g>
	</g>
	<g>
		<g>
			<line class="st6" x1="94.5" y1="109.3" x2="94.5" y2="112.1"/>
			<g>
				<path class="st7" d="M94.5,115.1c-0.5-1.4-1.4-3.2-2.4-4.3l2.4,0.9l2.4-0.9C95.9,111.9,95,113.6,94.5,115.1z"/>
			</g>
		</g>
	</g>
	<g>
		<g>
			<line class="st6" x1="94.5" y1="361.4" x2="94.5" y2="364.1"/>
			<g>
				<path class="st7" d="M94.5,367.2c-0.5-1.4-1.4-3.2-2.4-4.3l2.4,0.9l2.4-0.9C95.9,364,95,365.7,94.5,367.2z"/>
			</g>
		</g>
	</g>
	<g>
		<g>
			<line class="st6" x1="94.5" y1="445.4" x2="94.5" y2="448.2"/>
			<g>
				<path class="st7" d="M94.5,451.2c-0.5-1.4-1.4-3.2-2.4-4.3l2.4,0.9l2.4-0.9C95.9,448,95,449.8,94.5,451.2z"/>
			</g>
		</g>
	</g>
</g>
</svg>
