<?xml version="1.0" encoding="utf-8"?>
<!-- Generator: Adobe Illustrator 20.1.0, SVG Export Plug-In . SVG Version: 6.00 Build 0)  -->
<svg version="1.1" id="Layer_1" xmlns="http://www.w3.org/2000/svg" xmlns:xlink="http://www.w3.org/1999/xlink" x="0px" y="0px"
	 viewBox="0 0 792 612" style="enable-background:new 0 0 792 612;" xml:space="preserve">
<style type="text/css">
	.st0{fill:#2BB673;}
	.st1{font-family:'GillSans';}
	.st2{font-size:9px;}
	.st3{fill:#FFFFFF;}
	.st4{font-size:12px;}
</style>
<g id="Layer_2">
	<rect id="CoonLab" x="614" y="367" class="st0" width="90" height="44"/>
	<rect id="Floor3SW" x="351" y="530" class="st0" width="58" height="30"/>
	<rect id="Floor3SE" x="409" y="530" class="st0" width="57" height="30"/>
	<rect id="Floor4SW" x="602" y="527" class="st0" width="57" height="32"/>
	<rect id="Floor4SE" x="659" y="527" class="st0" width="58" height="32"/>
	<rect id="Halverson" x="565" y="232" class="st0" width="37" height="43"/>
	<rect id="BeerCave" x="717" y="233" class="st0" width="37" height="41"/>
	<rect id="Floor4AtriumS" x="614" y="273" class="st0" width="90" height="20"/>
	<rect id="Floor4AtriumN" x="614" y="236" class="st0" width="90" height="20"/>
	<rect id="Jones" x="466" y="234" class="st0" width="38" height="42"/>
	<rect id="Lobby" x="363" y="281" class="st0" width="66" height="43"/>
	<rect id="DiningArea" x="314" y="281" class="st0" width="37" height="63"/>
	<rect id="EvansNW" x="364" y="428" class="st0" width="25" height="43"/>
	<rect id="EvansSE" x="364" y="471" class="st0" width="45" height="59"/>
	<rect id="EvansSW" x="409" y="471" class="st0" width="45" height="59"/>
	<rect id="EvansNE" x="428" y="428" class="st0" width="26" height="43"/>
	<rect id="EvansN" x="389" y="417" class="st0" width="39" height="54"/>
	<rect id="Floor3AtriumW" x="314" y="233" class="st0" width="50" height="48"/>
	<rect id="Floor3AtriumC" x="364" y="237" class="st0" width="45" height="44"/>
	<polygon id="Floor3AtriumE" class="st0" points="409,237 466,237 466,276 449,276 449,281 409,281 	"/>
	<rect id="Floor3NW" x="351" y="53" class="st0" width="57" height="24"/>
	<rect id="Floor3NE" x="408" y="53" class="st0" width="58" height="24"/>
	<rect id="Floor2NW" x="99" y="54" class="st0" width="57" height="24"/>
	<rect id="Floor2NE" x="156" y="54" class="st0" width="58" height="24"/>
	<rect id="Floor4NE" x="659" y="52" class="st0" width="58" height="24"/>
	<rect id="Floor4NW" x="602" y="52" class="st0" width="57" height="24"/>
	<rect id="Meldrum" x="115" y="348" class="st0" width="85" height="43"/>
	<rect id="Floor2SW" x="100" y="516" class="st0" width="58" height="43"/>
	<rect id="Floor2SE" x="158" y="516" class="st0" width="56" height="43"/>
	<rect id="Floor2LobbyC" x="115" y="237" class="st0" width="85" height="43"/>
	<rect id="Frank" x="63" y="186" class="st0" width="39" height="48"/>
	<rect id="Floor2LobbyW" x="63" y="234" class="st0" width="52" height="42"/>
	<rect id="Floor2LobbyE" x="200" y="234" class="st0" width="52" height="42"/>
</g>
<g id="Layer_3">
	<path d="M754.9,559.2c-0.4,0.1-0.8,0.1-1.2,0.2c-0.8,0-1.6,0-2.4,0c-44.3,0-88.6,0-132.9,0c-16.9,0.4-33.7,0.1-50.6,0.2
		c-0.8,0-1.6,0-2.4,0c-0.3,0-0.6-0.2-0.9-0.3c-0.1-0.4-0.2-0.7-0.2-1c0-0.6,0-1.3,0-1.9c0-167.3,0-334.5,0-501.8
		c0-1-0.1-2.1,0.2-3.2c0.4-0.1,0.7-0.2,1.1-0.3c0.7,0,1.4,0,2.2,0c61.4,0,122.9,0,184.3,0c0.9,0,1.9-0.1,2.7,0.1
		c0.5,0.3,0.5,0.7,0.5,1.1c0,0.8,0,1.6,0,2.4c0,167,0,334,0,501.1c0,0.8,0,1.6,0,2.4C755.1,558.5,755,558.8,754.9,559.2z
		 M753.3,233.5c-1-0.4-1.9-0.2-2.7-0.2c-10.2,0-20.5,0-30.7,0c-0.7,0-1.4,0-2.2,0c-0.4,0-0.7-0.2-1.2-0.3c-0.2-1.1-0.1-2.1-0.1-3.2
		c0-57.7,0-115.3,0-173c0-0.9,0-1.8,0-2.6c0-0.4-0.2-0.8-0.2-1.1c-1.1-0.4-2.2-0.2-3.2-0.2c-35.5,0-71,0-106.5,0c-0.7,0-1.4,0-2.2,0
		c-0.4,0-0.7,0.2-1.1,0.3c-0.2,1.1-0.2,2.2-0.2,3.2c0,166.1,0,332.1,0,498.2c0,0.7,0,1.4,0,2.2c0,0.4,0,0.8,0.5,1.3
		c0.5,0.2,1.2,0.2,1.9,0.2c4.1-0.1,8.2-0.2,12.2-0.2c31.7,0,63.4,0,95,0c0.8,0,1.6,0,2.4,0c0.4,0,0.8,0,1.2-0.5
		c0-0.2,0.1-0.5,0.1-0.8c0-0.9,0-1.8,0-2.6c0-91.8,0-183.7,0-275.5c0-1.2,0-2.4,0-3.6c0-0.4,0.2-0.7,0.3-1c1-0.3,1.9-0.2,2.7-0.2
		c10.2,0,20.3,0,30.5,0c0.7,0,1.4,0,2.2,0c0.4,0,0.8-0.1,1.1-0.2c0.4-0.9,0.3-1.8,0.3-2.7c0-6.7,0-13.4,0-20.2c0-4.9,0-9.8,0-14.6
		C753.6,235.2,753.8,234.3,753.3,233.5z M718.3,182.5c-0.1,0.4-0.3,0.7-0.3,0.9c0,15.7,0,31.3,0,47c0,0.3,0.1,0.6,0.1,0.9
		c0.8,0.6,1.6,0.4,2.4,0.4c4.7,0,9.4,0,14.1,0c5.4,0,10.9,0,16.3,0c0.8,0,1.6,0.2,2.4-0.3c0.4-0.8,0.2-1.6,0.2-2.5
		c0-14.5,0-29.1,0-43.6c0-0.6,0-1.1,0-1.7c0-0.4-0.2-0.7-0.4-1c-2.3-0.3-25-0.4-33.4-0.2C719.3,182.4,718.8,182.4,718.3,182.5z
		 M601.1,432.7c-0.9-0.3-1.8-0.2-2.7-0.2c-9.9,0-19.8,0-29.7,0c-0.6,0-1.1,0-1.7,0c-0.4,0-0.7,0.2-1.2,0.3c0,0.7-0.1,1.3-0.1,2
		c0,1.6,0,3.2,0,4.8c0,12.7,0,25.4,0,38.1c0,0.6,0,1.3,0,1.9c0,0.4,0,0.8,0.6,1.2c0.6,0.2,1.4,0.1,2.2,0.1c10.1,0,20.1,0,30.2,0
		c0.5,0,1,0,1.4,0s0.7-0.2,1.1-0.3c0.3-1,0.2-1.8,0.2-2.7c0-11.1,0-22.2,0-33.3c0-3.2,0-6.4,0-9.6
		C601.4,434.3,601.6,433.5,601.1,432.7z M601.4,557.6c0-0.9,0-1.7,0-2.5c0-12,0-24,0-35.9c0-0.5,0-1,0-1.4s0-0.8-0.5-1.2
		c-0.7-0.3-1.5-0.2-2.4-0.2c-10,0-20,0-30,0c-0.6,0-1.1,0-1.7,0c-0.4,0-0.7,0.2-1.1,0.4c0,0.9,0,1.8,0,2.7c0,11.8,0,23.6,0,35.5
		c0,0.6,0,1.1,0,1.7c0,0.4,0.1,0.8,0.2,1c0.9,0.5,1.7,0.3,2.5,0.3c10.1,0,20.3,0,30.4,0c0.6,0,1.1,0,1.7-0.1
		C600.7,557.9,600.9,557.8,601.4,557.6z M753.3,557.7c0.5-1.2,0.3-2.1,0.3-3.1c0-11.7,0-23.3,0-35c0-0.6,0-1.3,0-1.9
		c0-0.4,0-0.8-0.5-1.2c-0.7-0.3-1.6-0.1-2.4-0.1c-9.9,0-19.8,0-29.7,0c-0.6,0-1.1,0-1.7,0c-0.4,0-0.8,0.1-1.1,0.5
		c-0.3,0.8-0.1,1.7-0.1,2.5c0,11.8,0,23.7,0,35.5c0,0.6,0,1.1,0,1.7c0,0.3,0.1,0.6,0.2,0.8c0.2,0.1,0.4,0.3,0.5,0.3
		c10.8,0,21.6,0.1,32.4,0.1C751.7,557.8,752.4,557.8,753.3,557.7z M601.1,273.9c0.5-1,0.3-1.9,0.3-2.8c0-11.8,0-23.7,0-35.5
		c0-0.6,0-1.1,0-1.7c0-0.4-0.2-0.7-0.3-1.1c-1-0.4-2-0.3-2.9-0.3c-9.8,0-19.5,0-29.2,0c-0.6,0-1.3,0-1.9,0c-0.4,0-0.8,0-1.2,0.6
		c-0.2,0.7-0.1,1.5-0.1,2.4c0,11.9,0,23.8,0,35.7c0,0.5,0,1,0,1.4s0,0.8,0.4,1.1c0.1,0,0.4,0.2,0.6,0.2c11.1,0,22.2,0,33.3,0
		C600.4,274.1,600.7,274,601.1,273.9z M718.1,53c0,0.8-0.1,1.5-0.1,2.3c0,11.6,0,23.2,0,34.7c0,0.5,0,1,0,1.4s0.2,0.7,0.3,1.1
		c1,0.4,1.8,0.3,2.7,0.3c9.9,0,19.8,0,29.7,0c0.6,0,1.1,0,1.7,0c0.4,0,0.7-0.2,1.1-0.3c0.3-0.9,0.2-1.7,0.2-2.5c0-11.5,0-23,0-34.5
		c0-0.5,0-1,0-1.4s0-0.8-0.5-1.2c-0.2,0-0.5-0.1-0.8-0.1c-11.1,0-22.2,0-33.3,0C718.8,52.7,718.5,52.9,718.1,53z M601.2,92.6
		c0.4-1.1,0.3-2.1,0.3-3c0-11.2,0-22.4,0-33.6c0-0.6,0-1.3,0-1.9c0-0.4,0-0.8-0.5-1.2c-0.7-0.2-1.6-0.1-2.4-0.1
		c-9.9,0-19.8,0-29.8,0c-0.6,0-1.1,0-1.7,0c-0.4,0-0.8,0-1.2,0.5c-0.3,0.7-0.1,1.6-0.1,2.4c0,11.4,0,22.9,0,34.3c0,0.5,0,1,0,1.4
		s0,0.8,0.4,1.1c0.2,0,0.4,0.2,0.6,0.2c11.1,0,22.2,0,33.4,0C600.4,92.7,600.7,92.6,601.2,92.6z M565.9,230.8c1,0.4,1.9,0.3,2.7,0.3
		c9.9,0,19.8,0,29.8,0c0.6,0,1.1,0,1.7,0c0.4,0,0.8,0,1.2-0.5c0.3-0.7,0.1-1.6,0.2-2.5c0-9.5,0-19,0-28.6c0-0.6,0-1.1,0-1.7
		c0-0.4-0.2-0.7-0.2-1.1c-0.9-0.4-1.8-0.2-2.7-0.2c-9.9,0-19.8,0-29.8,0c-0.6,0-1.3,0-1.9,0c-0.3,0-0.6,0.2-1,0.3
		c-0.1,0.6-0.1,1.1-0.2,1.7C565.5,211.7,565.6,228.4,565.9,230.8z M565.8,276.2c-0.2,1.3-0.1,2.6-0.1,3.9c0,8.9,0,17.8,0,26.6
		c0,0.7,0,1.4,0,2.2c0,0.4,0.2,0.7,0.3,1.1c0.9,0.3,1.7,0.2,2.5,0.2c10.1,0,20.2,0,30.2,0c0.5,0,1,0,1.4,0s0.7-0.2,1-0.3
		c0.4-0.9,0.3-1.7,0.3-2.5c0-9.6,0-19.2,0-28.8c0-0.5,0-1,0-1.4s-0.2-0.7-0.3-1.2c-0.8,0-1.5-0.1-2.2-0.1c-2.9,0-5.8,0-8.6,0
		c-7.2,0-14.4,0-21.6,0C567.8,275.9,566.9,275.7,565.8,276.2z M601.1,160.9c0.4-0.9,0.3-1.7,0.3-2.5c0-9.2,0-18.4,0-27.6
		c0-0.5,0-1,0-1.4s-0.1-0.8-0.5-1.1c-0.8-0.3-1.7-0.1-2.6-0.1c-9.8,0-19.7,0-29.5,0c-0.6,0-1.3,0-1.9,0c-0.3,0-0.6,0.1-0.9,0.2
		c-0.4,0.9-0.3,1.8-0.3,2.6c0,9.1,0,18.2,0,27.4c0,0.5,0,1,0,1.4s0,0.8,0.4,1.1c0.1,0,0.4,0.2,0.6,0.2c11.2,0,22.4,0,33.6,0
		C600.6,161.1,600.8,161,601.1,160.9z M601.2,346c-0.9-0.5-1.8-0.3-2.7-0.3c-9.4,0-18.7,0-28.1,0c-1.1,0-2.2,0-3.4,0
		c-0.4,0-0.8,0.1-1,0.2c-0.5,0.8-0.4,1.5-0.4,2.2c0,8.9,0,17.9,0,26.8c0,0.7,0,1.4,0,2.2c0,0.4,0.1,0.8,0.2,1.1
		c0.8,0.5,1.7,0.4,2.4,0.4c10.1,0,20.3,0,30.4,0c0.5,0,1,0,1.4,0c0.3,0,0.6-0.1,0.9-0.2c0.5-0.9,0.3-1.8,0.3-2.6
		c0-8.6,0-17.3,0-25.9c0-0.9,0-1.8,0-2.6C601.4,346.8,601.3,346.4,601.2,346z M566.2,344.2c0.8,0,1.7,0,2.6,0c9.6,0,19.2,0,28.8,0
		c0.8,0,1.6,0,2.4,0c0.4,0,0.8,0,1.3-0.4c0.3-0.7,0.2-1.5,0.2-2.4c0-8.9,0-17.7,0-26.6c0-0.6,0-1.1,0-1.7c0-0.4,0-0.8-0.5-1.2
		c-0.7-0.3-1.6-0.2-2.4-0.2c-9.9,0-19.8,0-29.7,0c-0.6,0-1.3,0-1.9,0c-0.3,0-0.6,0.2-1,0.3c0,0.7-0.1,1.3-0.1,1.9
		c0,5.9,0,11.8,0,17.7c0,3.4,0,6.9,0,10.3C565.7,342.7,565.6,343.3,566.2,344.2z M565.9,126.3c0.3,0.1,0.5,0.3,0.8,0.3
		c0.6,0.1,1.3,0,1.9,0c9.9,0,19.8,0,29.7,0c0.6,0,1.3,0,1.9,0c0.3,0,0.6-0.2,0.8-0.2c0.4-0.9,0.3-1.8,0.3-2.7c0-8.8,0-17.6,0-26.4
		c0-0.6,0-1.1,0-1.7c0-0.4,0-0.8-0.5-1.2c-0.7-0.3-1.6-0.2-2.4-0.2c-9.9,0-19.8,0-29.7,0c-0.6,0-1.3,0-1.9,0c-0.3,0-0.6,0.2-0.9,0.3
		c-0.4,1.9-0.2,3.7-0.2,5.5C565.5,114.2,565.6,124.4,565.9,126.3z M601.1,162.8c-0.9,0-1.7-0.1-2.5-0.1c-10,0-20,0-30,0
		c-0.6,0-1.1,0-1.7,0c-0.4,0-0.7,0.2-1.1,0.3c-0.1,0.4-0.1,0.7-0.1,1c0,9.8,0,19.7,0,29.5c0,0.4,0,0.8,0.5,1.2
		c0.7,0.3,1.6,0.2,2.4,0.2c9.9,0,19.8,0,29.8,0c0.6,0,1.1,0,1.7,0c0.4,0,0.7-0.2,1.1-0.3c0.1-0.4,0.2-0.7,0.2-1c0-0.6,0-1.1,0-1.7
		c0-8.8,0-17.6,0-26.4C601.4,164.8,601.6,163.9,601.1,162.8z M718.1,514.5c0.4,0.1,0.7,0.2,1,0.3c0.6,0,1.3,0,1.9,0
		c9.8,0,19.7,0,29.5,0c0.6,0,1.1,0,1.7,0c0.4,0,0.8,0,1.2-0.5c0.2-0.7,0.1-1.5,0.1-2.4c0-8.9,0-17.7,0-26.6c0-0.6,0-1.1,0-1.7
		c0-0.4-0.2-0.7-0.3-1c-1-0.3-1.9-0.2-2.7-0.2c-9.8,0-19.7,0-29.5,0c-0.6,0-1.3,0-1.9,0c-0.3,0-0.6,0.2-0.9,0.2
		c-0.1,0.4-0.2,0.7-0.2,1C717.8,486.8,717.9,512.6,718.1,514.5z M566.2,482.6c-0.5,0.5-0.5,0.9-0.5,1.3c0,1.1,0,2.2,0,3.4
		c0,8,0,16,0,24c0,0.7,0,1.4,0,2.2c0,0.4,0.2,0.7,0.2,1.1c1,0.5,1.8,0.3,2.7,0.3c9.9,0,19.8,0,29.8,0c0.6,0,1.1,0,1.7,0
		c0.4,0,0.8,0,1.2-0.5c0.3-0.7,0.2-1.6,0.2-2.5c0-8.8,0-17.6,0-26.4c0-0.6,0-1.1,0-1.7c0-0.4-0.1-0.8-0.6-1.1c-0.4,0-1-0.1-1.5-0.1
		C586.7,482.3,568.6,482.3,566.2,482.6z M601.2,380.4c-1.1-0.4-2-0.3-2.9-0.3c-9.8,0-19.7,0-29.5,0c-0.6,0-1.3,0-1.9,0
		c-0.4,0-0.7,0.2-1,0.3c-0.3,1-0.2,1.9-0.2,2.7c0,8.8,0,17.6,0,26.4c0,0.6,0,1.1,0,1.7c0,0.4,0.2,0.7,0.2,1.1c1,0.4,2,0.3,2.9,0.3
		c9.7,0,19.5,0,29.2,0c0.6,0,1.3,0,1.9,0c0.4,0,0.8,0,1.2-0.5c0.2-0.7,0.1-1.5,0.1-2.4c0-7.8,0-15.7,0-23.5c0-1.4,0-2.9,0-4.3
		C601.4,381.3,601.3,380.9,601.2,380.4z M718.3,298.8c0.6,0.1,1.1,0.1,1.6,0.1c10.6,0,21.1,0,31.7,0c0.4,0,0.8,0,1.2-0.1
		c0.2,0,0.4-0.2,0.7-0.3c0.1-0.3,0.2-0.6,0.2-0.9c0-7.2,0-14.4,0-21.6c0-0.2-0.1-0.4-0.2-0.7c-0.8-0.5-1.7-0.3-2.6-0.3
		c-10,0-20,0-30,0c-0.5,0-1,0-1.4,0s-0.8,0.2-1.1,0.2c-0.1,0.3-0.2,0.6-0.2,0.8c0,7.3,0,14.5,0,21.8
		C718,298.2,718.1,298.4,718.3,298.8z M718.1,137.7c1,0.5,1.9,0.3,2.8,0.3c9.9,0,19.8,0,29.7,0c0.6,0,1.3,0,1.9,0
		c0.3,0,0.6-0.2,0.9-0.2c0.4-0.8,0.3-1.6,0.3-2.4c0-4.9,0-9.9,0-14.8c0-0.8,0-1.6,0-2.4c0-0.4,0-0.8-0.6-1.2c-0.5,0-1.1-0.1-1.7-0.1
		c-10.3,0-20.6,0-30.9,0c-0.4,0-0.8,0-1.2,0c-0.4,0.1-0.7,0.2-1.1,0.3c-0.1,0.3-0.2,0.6-0.2,0.8c0,6.2,0,12.5,0,18.7
		C718,137,718,137.3,718.1,137.7z M718.1,366.9c1.1,0.4,2,0.3,2.9,0.3c9.8,0,19.7,0,29.5,0c0.6,0,1.1,0,1.7,0c0.4,0,0.8-0.1,1.1-0.2
		c0.6-0.8,0.4-1.7,0.4-2.4c0-4.7,0-9.4,0-14.1c0-1.1,0-2.2,0-3.4c0-0.4-0.1-0.7-0.2-1.1c-0.9-0.4-1.8-0.3-2.7-0.3
		c-9.9,0-19.8,0-29.7,0c-0.6,0-1.1,0-1.7,0c-0.4,0-0.7,0.2-1.1,0.2c-0.3,1.8-0.4,7.2-0.3,19C718,365.6,718.1,366.2,718.1,366.9z
		 M753.2,139.7c-0.9,0-1.8-0.1-2.6-0.1c-9.8,0-19.6,0-29.5,0c-0.6,0-1.3,0-1.9,0c-0.4,0-0.7,0.2-1.1,0.4c0,0.5-0.1,0.9-0.1,1.3
		c0,6.2,0,12.5,0,18.7c0,0.2,0.1,0.5,0.2,0.8c0.3,0.1,0.6,0.3,0.8,0.3c0.6,0.1,1.3,0,1.9,0c9.9,0,19.8,0,29.7,0c0.6,0,1.1,0,1.7,0
		c0.4,0,0.7-0.2,1.1-0.3c0.1-0.5,0.2-0.9,0.2-1.3c0-6.4,0-12.8-0.1-19.2C753.5,140.2,753.4,140.1,753.2,139.7z M718.1,459.5
		c0,0.9-0.1,1.5-0.1,2.2c0,2,0,4,0,6c0,3.7,0,7.3,0,11c0,0.6-0.1,1.3,0.4,1.9c0.7,0.3,1.6,0.2,2.5,0.2c9.9,0,19.8,0,29.7,0
		c0.6,0,1.1,0,1.7,0c0.4,0,0.7-0.2,1.2-0.3c0.1-0.7,0.1-1.3,0.1-1.9c0-5.7,0-11.3,0-17c0-0.3,0-0.6,0-1s-0.1-0.8-0.5-1.1
		c-0.8-0.3-1.7-0.1-2.5-0.1c-8.1,0-16.1,0-24.2,0c-2.2,0-4.3,0-6.5,0C719.3,459.3,718.8,459.4,718.1,459.5z M753.4,437.1
		c-1.1-0.4-2-0.3-2.9-0.3c-9.8,0-19.6,0-29.5,0c-0.6,0-1.3,0-1.9,0c-0.4,0-0.7,0.2-1.1,0.3c0,0.6-0.1,1-0.1,1.5c0,1.4,0,2.7,0,4.1
		c0,4.3,0,8.6,0,12.9c0,0.6-0.2,1.3,0.4,1.9c0.7,0.3,1.6,0.2,2.5,0.2c9.9,0,19.8,0,29.7,0c0.6,0,1.1,0,1.7,0c0.4,0,0.7-0.2,1.1-0.3
		c0.4-1.9,0.4-7,0.3-18.5C753.6,438.4,753.5,437.8,753.4,437.1z M718.1,389.5c0.8,0.6,1.7,0.4,2.4,0.4c10.1,0,20.3,0,30.4,0
		c0.4,0,0.8,0,1.2,0s0.8,0,1.2-0.4c0-0.1,0.2-0.4,0.2-0.6c0-6.4,0-12.8,0-19.2c0-0.2-0.1-0.4-0.2-0.7c-0.7-0.4-1.6-0.3-2.3-0.3
		c-10.1,0-20.3,0-30.4,0c-0.6,0-1.1,0-1.7,0.1c-0.2,0-0.4,0.2-0.7,0.3c-0.1,0.3-0.2,0.6-0.2,0.9C717.8,373,717.9,387.9,718.1,389.5z
		 M718.5,300.6c-0.6,0.7-0.5,1.2-0.5,1.6c-0.2,7.9-0.1,17,0.2,19c0.3,0.1,0.5,0.2,0.8,0.3c0.6,0.1,1.3,0,1.9,0c9.9,0,19.8,0,29.7,0
		c0.6,0,1.1,0,1.7,0c0.4,0,0.7-0.2,1.1-0.3c0.1-0.4,0.2-0.7,0.2-1c0-6.1,0-12.1,0-18.2c0-0.1,0-0.2,0-0.2c-0.1-0.4-0.3-0.7-0.4-1
		c-2.3-0.3-17.2-0.4-32.9-0.2C719.7,300.5,719,300.5,718.5,300.6z M753.4,94.6c-0.8-0.5-1.7-0.3-2.6-0.3c-10,0-20,0-29.9,0
		c-0.6,0-1.1,0-1.7,0c-0.4,0-0.8,0.1-1.1,0.6c0,0.6-0.1,1.3-0.1,2c0,2.7,0,5.4,0,8.1c0,2.8,0,5.6,0,8.4c0,0.5-0.1,1.1,0.4,1.6
		c0.8,0.4,1.7,0.2,2.5,0.2c9.9,0,19.8,0,29.7,0c0.6,0,1.1,0,1.7,0c0.4,0,0.7-0.2,1.1-0.3c0.1-0.5,0.2-0.9,0.2-1.3
		c0-6.1,0-12.3,0-18.4C753.6,95.1,753.4,94.8,753.4,94.6z M718.2,344c1,0.3,1.8,0.2,2.6,0.2c10,0,20,0,30,0c0.5,0,1,0,1.4,0
		s0.8-0.1,1.1-0.2c0.4-0.8,0.3-1.7,0.3-2.4c0-5.2,0-10.4,0-15.6c0-0.6,0-1.1,0-1.7c0-0.4-0.1-0.8-0.6-1.2c-0.7-0.2-1.6-0.1-2.4-0.1
		c-9.8,0-19.7,0-29.5,0c-0.6,0-1.3,0-1.9,0c-0.4,0-0.7,0.2-1,0.3c-0.2,1.7-0.3,16.5-0.2,19.5C718,343.2,718.1,343.5,718.2,344z
		 M718.1,391.8c0,0.9-0.1,1.6-0.1,2.3c0,3,0,6.1,0,9.1c0,2.6,0,5.1,0,7.7c0,0.5,0.2,0.9,0.2,1.3c1,0.5,1.8,0.3,2.7,0.3
		c9.9,0,19.8,0,29.7,0c0.6,0,1.1,0,1.7,0c0.4,0,0.7-0.2,1-0.3c0.4-0.9,0.2-1.7,0.2-2.5c0-4.4,0-8.8,0-13.2c0-1.2,0-2.4,0-3.6
		c0-0.4,0-0.8-0.5-1.2c-0.7-0.3-1.6-0.2-2.4-0.2c-9.9,0-19.8,0-29.7,0c-0.6,0-1.1,0-1.7,0C718.9,391.6,718.6,391.7,718.1,391.8z
		 M718.1,414.4c0,0.9-0.1,1.6-0.1,2.3c0,3.4,0,6.7,0,10.1c0,2.2,0,4.5,0,6.7c0,0.5,0.2,0.9,0.3,1.3c0.8,0.4,1.5,0.3,2.3,0.3
		c10.2,0,20.5,0,30.7,0c0.4,0,0.8,0,1.2,0c0.4-0.1,0.7-0.2,1.1-0.3c0.3-0.9,0.2-1.7,0.2-2.5c0-4.9,0-9.7,0-14.6c0-0.7,0-1.4,0-2.2
		c0-0.4-0.2-0.7-0.3-1c-1-0.4-1.9-0.3-2.7-0.3c-9.9,0-19.8,0-29.7,0c-0.6,0-1.1,0-1.7,0C718.9,414.1,718.6,414.2,718.1,414.4z
		 M753.4,180.5c0.3-0.9,0.2-1.7,0.2-2.5c0-3.8,0-7.5,0-11.3c0-1,0-1.9,0-2.9c0-0.4-0.2-0.7-0.3-1c-1-0.4-1.9-0.2-2.7-0.2
		c-9.8,0-19.7,0-29.5,0c-0.6,0-1.3,0-1.9,0c-0.4,0-0.7,0.2-1,0.3c-0.1,0.3-0.1,0.4-0.1,0.6c0,5.4,0,10.7,0,16.1c0,0.3,0.2,0.6,0.3,1
		c0.6,0.1,1.2,0.2,1.7,0.2c2.3,0,4.6,0,7,0c7.9,0,15.8,0,23.7,0C751.5,180.8,752.4,181,753.4,180.5z M565.9,414.4
		c-0.1,0.4-0.2,0.6-0.2,0.8c0,4.9,0,9.7,0,14.6c0,0.3,0.2,0.6,0.3,1c0.6,0.1,1.2,0.1,1.7,0.1c10.5,0,21.1,0,31.6,0
		c0.4,0,0.8,0,1.2-0.1c0.2,0,0.4-0.2,0.6-0.2c0.4-0.6,0.3-1.3,0.3-1.9c0-3.4,0-6.9,0-10.3c0-1,0-2.1,0-3.1c0-0.4-0.2-0.7-0.3-1
		c-0.9-0.3-1.7-0.2-2.5-0.2c-4.2,0-8.3,0-12.5,0c-5.8,0-11.7,0-17.5,0C567.8,414.1,566.9,414,565.9,414.4z"/>
	<path d="M62.9,53.3c0.4-0.1,0.8-0.2,1.2-0.3c0.7,0,1.4,0,2.2,0c61.1,0,122.2,0,183.3,0c1,0,2.1-0.2,3.2,0.3
		c0.1,0.3,0.2,0.7,0.2,1.1c0,0.7,0,1.4,0,2.2c0,166.5,0,333.1,0,499.6c0,0.8,0,1.6,0,2.4c0,0.3-0.1,0.6-0.2,0.8
		c-0.4,0.5-0.9,0.4-1.2,0.4c-2.6,0-5.3,0-7.9-0.1c-1,0-1.9,0-2.9,0c-46.8,0-93.6,0-140.4,0c-11.6,0-23.2,0-34.8-0.1
		c-0.8,0-1.6,0-2.5,0c-0.1-0.4-0.3-0.8-0.4-1.2c-0.1-0.8,0-1.6,0-2.4c0-141.4,0-282.9,0-424.3c0-25.2,0-50.4,0-75.6
		C62.7,55.3,62.5,54.3,62.9,53.3z M103,94.7c0,1,0.1,1.9,0.1,2.7c0,44.6,0,89.1,0,133.7c0,0.6,0,1.3,0,1.9c0,0.4-0.2,0.7-0.3,1.1
		c-0.5,0.1-0.9,0.1-1.3,0.1c-4.4,0.1-8.8,0.2-13.2,0.2c-7,0-13.9,0-20.9,0c-0.7,0-1.4,0-2.2,0c-0.3,0-0.6,0.2-0.9,0.3
		c0,0.7-0.1,1.3-0.1,1.9c0,12.1,0,24.2,0,36.2c0,0.5,0,1,0,1.4c0,0.2,0.1,0.4,0.2,0.7c0.8,0.5,1.7,0.3,2.6,0.3c8.9,0,17.8,0,26.6,0
		c0.7,0,1.4-0.1,2.2-0.1c2,0,4-0.1,6-0.1c0.4,0,0.7,0.2,1.1,0.3c0.1,0.4,0.2,0.7,0.2,1c0,79.8,0,159.7,0,239.5
		c0,0.2-0.1,0.5-0.2,0.6c-0.6,0.7-1.7,0.1-2.2,1c-0.3,0.8-0.1,1.7-0.1,2.5c0,11.6,0,23.2,0,34.8c0,0.6,0,1.3,0,1.9
		c0,0.4,0.2,0.7,0.3,1c1.1,0.3,2,0.2,3,0.2c35.3,0,70.6,0,105.8,0c0.8,0,1.6,0,2.4,0c0.4,0,0.7-0.2,1.1-0.2c0.1-0.3,0.2-0.6,0.2-0.8
		c0-12.8,0-25.6,0-38.4c0-0.4-0.1-0.8-0.2-1.2c-0.6-0.3-1.1-0.5-1.7-0.8c-0.2-1.1-0.1-2.1-0.1-3.1c0-78.2,0-156.5,0-234.7
		c0-0.7,0-1.4,0-2.2c0-0.4,0.1-0.8,0.2-1.1c0.8-0.6,1.6-0.4,2.4-0.4c9.3,0,18.6,0,27.8,0c0.5,0,1,0,1.4,0c2.2,0.3,4.5,0.1,6.7,0.2
		c0.4,0,0.7-0.2,1.1-0.2c0.4-0.9,0.3-1.8,0.3-2.7c0-11.7,0-23.4,0-35c0-0.5,0-1,0-1.4s-0.1-0.8-0.2-1.2c-0.4-0.1-0.7-0.3-1-0.3
		c-3.1-0.1-6.2-0.3-9.3-0.3c-7.8,0-15.7,0-23.5,0c-0.7,0-1.4,0-2.2,0c-0.4,0-0.7-0.2-1.1-0.4c0-0.5-0.1-0.9-0.1-1.3
		c0-0.7,0-1.4,0-2.2c0-14.6,0-29.1,0-43.7c0-0.9,0.1-1.9-0.1-2.6c-0.6-1-1.7-0.3-2.3-1.3c-0.2-0.7-0.1-1.6-0.1-2.5
		c0-27.6,0-55.2,0-82.8c0-0.6,0-1.1,0-1.7c0-0.5,0.1-0.9,0.2-1.3c0.6-0.2,1.1-0.5,1.6-0.6c0.3-1,0.2-2,0.2-2.9c0-11,0-22.1,0-33.1
		c0-0.6,0-1.3,0-1.9c0-0.4,0-0.8-0.4-1.3c-0.1,0-0.4-0.2-0.7-0.2c-0.7,0-1.4,0-2.2,0c-35.4,0-70.7,0-106.1,0c-0.7,0-1.4,0-2.2,0
		c-0.4,0-0.8,0-1.1,0.4c-0.1,0.2-0.2,0.3-0.2,0.4c0,12.5-0.1,25-0.1,37.4c0,0.4,0.1,0.8,0.2,1.2C101.4,94.3,102.1,94.5,103,94.7z
		 M101.3,483.2c0.1-0.4,0.2-0.6,0.2-0.8c0-16.4,0-32.8,0-49.2c0-0.2-0.1-0.4-0.2-0.8c-0.5-0.1-1.1-0.2-1.6-0.2
		c-2.2,0-4.5,0.1-6.7,0.1c-8.5,0-16.9,0-25.4,0c-0.7,0-1.4,0-2.2,0c-0.4,0-0.8,0.1-1.2,0.7c0,0.6-0.1,1.4-0.1,2.2
		c0,15.1,0,30.2,0,45.3c0,0.6,0,1.1,0,1.7c0,0.4,0.2,0.7,0.3,1.2c0.7,0.1,1.3,0.1,1.9,0.2C82.5,483.7,99,483.6,101.3,483.2z
		 M215.8,183.7c-0.5,1.1-0.3,2-0.3,2.8c0,14.4,0,28.8,0,43.2c0,0.6,0,1.3,0,1.9c0,0.3,0.2,0.6,0.2,0.9c0.9,0.4,1.8,0.3,2.7,0.3
		c7.6,0,15.2,0,22.8,0c0.7,0,1.4-0.1,2.2,0c2.2,0.3,4.5,0.1,6.7,0.1c0.4,0,0.8-0.1,1.1-0.5c0.3-0.8,0.2-1.7,0.2-2.5
		c0-14.3,0-28.6,0-42.9c0-0.6,0-1.3,0-1.9c0-0.4-0.2-0.7-0.3-1c-0.4-0.1-0.6-0.1-0.8-0.1c-2.5-0.1-5.1,0.2-7.6-0.3
		c-0.2,0-0.3,0-0.5,0c-8.2,0-16.3,0-24.5,0C217,183.5,216.5,183.6,215.8,183.7z M101.4,232.3c0.2-0.8,0.2-1.6,0.2-2.4
		c0-13.5,0-27,0-40.5c0-0.5,0-1,0-1.4s-0.2-0.7-0.3-1.2c-0.7,0-1.3-0.1-2-0.1c-2.2,0-4.3,0.1-6.5,0.1c-8.4,0-16.8,0-25.2,0
		c-0.7,0-1.4,0-2.2,0c-0.4,0-0.8,0-1.2,0.5c0,0.5-0.1,1.1-0.1,1.7c0,13.7,0,27.3,0,41c0,0.5,0,1,0,1.4s0,0.8,0.4,1.2
		c0.6,0.4,1.3,0.3,2,0.3c11,0,22.1,0.1,33.1-0.1C100.2,232.7,100.8,232.8,101.4,232.3z M251.2,517.6c-0.4-0.1-0.7-0.2-1-0.2
		c-3.4-0.1-6.9-0.2-10.3-0.3c-7.1,0-14.2,0-21.3,0c-0.7,0-1.4,0-2.2,0c-0.4,0-0.7,0.2-1,0.3c-0.4,0.9-0.3,1.7-0.3,2.5
		c0,11.8,0,23.5,0,35.3c0,0.6,0,1.3,0,1.9c0,0.3,0.2,0.6,0.3,0.8c0.9,0.4,1.7,0.3,2.5,0.3c4.7,0,9.4,0,14.1,0
		c4.4,0,8.8,0.1,13.2,0.1c1.7,0,3.4,0,5,0c0.4,0,0.7-0.2,1.1-0.3c0.1-0.4,0.1-0.7,0.1-1c0-12.8,0-25.6,0-38.4
		C251.3,518.3,251.3,518.1,251.2,517.6z M215.2,94.1c0.9,0.5,1.7,0.3,2.5,0.3c3.8,0,7.5,0,11.3,0c5.4,0,10.9,0.1,16.3,0.1
		c1.6,0,3.2,0,4.8,0c0.4,0,0.7-0.2,1-0.3c0.4-1,0.2-1.9,0.2-2.7c0-11.3,0-22.5,0-33.8c0-0.6,0-1.1,0-1.7c0-0.4-0.1-0.8-0.2-1.1
		c-0.9-0.5-1.8-0.3-2.7-0.3c-10.1,0-20.3,0-30.4,0c-0.6,0-1.1,0-1.7,0c-0.4,0-0.8,0-1.1,0.5c0,0.1-0.2,0.4-0.2,0.6
		c0,12.5,0,25.1,0,37.6C215.1,93.5,215.2,93.8,215.2,94.1z M98.7,558c0.1-0.3,0.3-0.6,0.3-0.9c0.1-0.6,0-1.3,0-1.9
		c0-11.7,0-23.3,0-35c0-0.6,0-1.3,0-1.9c0-0.3-0.2-0.6-0.2-0.8c-0.8-0.5-1.5-0.3-2.2-0.3c-1.7,0-3.4,0.1-5,0.1c-7.9,0-15.8,0-23.7,0
		c-0.8,0-1.6,0-2.4,0c-0.4,0-0.7,0.2-1.1,0.4c0,0.9,0,1.7,0,2.5c0,11.7,0,23.3,0,35c0,0.6,0,1.1,0,1.7c0,0.4,0.1,0.8,0.5,1.1
		c0.2,0,0.4,0.1,0.6,0.1c10.9,0,21.7,0,32.6,0.1C98.1,558.2,98.4,558.1,98.7,558z M98.7,94.2c0.4-1,0.3-1.9,0.3-2.8
		c0-11.3,0-22.5,0-33.8c0-0.6,0-1.3,0-1.9c0-0.3-0.2-0.6-0.3-0.8c-0.9-0.4-1.8-0.3-2.7-0.3c-9.7,0-19.3,0-29,0c-0.6,0-1.1,0-1.7,0
		c-0.4,0-0.7,0.2-1.1,0.4c0,0.7-0.1,1.2-0.1,1.8c0,11.7,0,23.3,0,35c0,0.5,0,1,0,1.4s0.1,0.8,0.6,1.2c0.5,0,1.1,0.1,1.7,0.1
		c9.3,0,18.5,0,27.8,0C95.7,94.5,97.2,94.5,98.7,94.2z M251.2,277.2c-0.4-0.1-0.7-0.2-1-0.2c-2.9-0.1-5.7-0.2-8.6-0.2
		c-8.6,0-17.1,0-25.7,0c-0.6,0-1.1,0-1.7,0c-0.4,0-0.7,0.2-1.1,0.4c0,0.7-0.1,1.4-0.1,2c0,9.8,0,19.7,0,29.5c0,0.6,0,1.1,0,1.7
		c0,0.4,0.2,0.7,0.3,1c1,0.4,1.9,0.2,2.7,0.2c7.9,0,15.8,0,23.7,0c1.6,0,3.2,0.1,4.8,0.1c1.8,0,3.7,0,5.5,0c0.4,0,0.7-0.2,1.2-0.3
		c0.1-0.6,0.1-1.2,0.2-1.7C251.6,297.8,251.5,279.7,251.2,277.2z M251.1,483.2c-0.6-0.1-1.2-0.2-1.7-0.2c-3,0-6.1-0.1-9.1-0.1
		c-7.3,0-14.6,0-21.8,0c-1.4,0-2.7,0-4.1,0c-0.4,0-0.8,0-1.1,0.3c-0.4,0.5-0.3,1.2-0.3,1.8c0,9.2,0,18.4,0,27.6c0,0.5,0,1,0,1.4
		s0,0.8,0.5,1.3c0.6,0.3,1.5,0.2,2.4,0.2c8.4,0,16.8,0,25.2,0c0.8,0,1.6-0.1,2.4,0.1c2.2,0.3,4.5,0.2,6.7,0.2c0.4,0,0.7-0.2,1.1-0.3
		c0.1-0.3,0.2-0.6,0.2-0.8c0-10.2,0-20.3,0-30.5C251.4,484,251.3,483.8,251.1,483.2z M251.2,381.3c-0.7-0.4-1.4-0.4-2-0.4
		c-2.8,0-5.6,0-8.4,0.1c-8.2,0-16.3,0-24.5,0c-0.7,0-1.4,0-2.2,0c-0.4,0-0.7,0.2-1.1,0.4c0,0.7-0.1,1.2-0.1,1.8c0,9.2,0,18.4,0,27.6
		c0,0.6,0,1.1,0,1.7c0,0.4,0.2,0.7,0.3,1c1,0.3,1.9,0.2,2.7,0.2c10.7,0,21.4,0,32.1,0c0.6,0,1.3,0,1.9,0c0.4,0,0.7-0.2,1.1-0.3
		c0.1-0.3,0.2-0.6,0.2-0.8c0-10.1,0-20.3,0-30.4C251.3,381.9,251.2,381.7,251.2,381.3z M213.1,128.5c0.5,0.1,0.8,0.2,1.1,0.3
		c0.8,0,1.6,0,2.4,0c9.7,0,19.4,0,29,0.1c1.5,0,3,0,4.6,0c0.4,0,0.8-0.1,1.1-0.6c0-0.4,0.1-1,0.1-1.5c0-9.5,0-19,0-28.5
		c0-0.3,0-0.6,0-1c0-0.3-0.1-0.6-0.2-0.8c-0.7-0.5-1.4-0.4-2-0.4c-2.7,0-5.4,0.1-8.2,0.1c-8.2,0-16.3,0-24.5,0c-0.7,0-1.4,0-2.2,0
		c-0.4,0-0.8,0-1.1,0.3c-0.1,0.1-0.1,0.1-0.2,0.2c-0.1,0.1-0.1,0.3-0.1,0.5c0,10,0,20,0,30C213,127.5,213,127.8,213.1,128.5z
		 M213.1,379.1c1,0.5,1.9,0.4,2.7,0.4c8.6,0,17.3,0,25.9,0c2.6,0,5.3,0,7.9-0.1c0.5,0,1.1,0,1.6-0.6c0.3-0.8,0.2-1.7,0.2-2.5
		c0-8.7,0-17.4,0-26.1c0-0.6,0-1.1,0-1.7c0-0.4,0-0.8-0.5-1.2c-0.7-0.3-1.5-0.1-2.4-0.1c-10.9,0-21.7,0-32.6,0c-0.6,0-1.1,0-1.7,0
		c-0.3,0-0.6,0.1-0.8,0.2c-0.2,0.2-0.2,0.2-0.3,0.3c-0.1,0.1-0.1,0.3-0.1,0.5c0,10,0,20,0,30C213,378.4,213.1,378.7,213.1,379.1z
		 M213.3,130.6c-0.4,0.7-0.3,1.3-0.3,1.9c0,9.1,0,18.2,0,27.3c0,0.5,0,1,0,1.4s0,0.8,0.5,1.3c0.6,0.2,1.5,0.1,2.4,0.1
		c8.7,0,17.4,0,26.1,0c2.6,0,5.3,0,7.9,0c0.5,0,1,0,1.4-0.7c0-0.6,0.1-1.4,0.1-2.2c0-8.8,0-17.6,0-26.4c0-0.6,0-1.1,0-1.7
		c0-0.4-0.2-0.7-0.3-1.2c-0.6-0.1-1.2-0.1-1.7-0.2c-2.5,0-5-0.1-7.4-0.1c-8.7,0-17.4,0-26.1,0c-0.6,0-1.1,0-1.7,0
		C213.8,130.4,213.5,130.5,213.3,130.6z M251.3,313.8c-0.7-0.4-1.1-0.4-1.6-0.4c-2.8,0-5.6-0.1-8.4-0.1c-8.3,0-16.6,0-25,0
		c-0.7,0-1.4,0-2.2,0c-0.4,0-0.8,0.1-1.1,0.6c0,0.4-0.1,1-0.1,1.5c0,9.1,0,18.2,0,27.4c0,0.5,0,1,0,1.4s0,0.8,0.5,1.2
		c0.7,0.3,1.6,0.2,2.5,0.2c9.1,0,18.2,0,27.4,0c2.2,0,4.3,0,6.5,0c0.5,0,1,0,1.3-0.4c0.1-0.1,0.2-0.3,0.2-0.4c0-9.7,0.1-19.4,0.1-29
		C251.4,315.1,251.3,314.5,251.3,313.8z M64.4,515.4c1.1,0.5,2,0.3,2.8,0.3c8.8,0,17.6,0,26.4,0c2.2,0,4.5-0.1,6.7-0.1
		c0.4,0,0.8-0.1,1.2-0.6c0.2-0.7,0.1-1.6,0.1-2.5c0-7.7,0-15.4,0-23c0-1,0-2.1,0-3.1c0-0.4-0.1-0.8-0.2-1.2
		c-0.6-0.1-1.2-0.2-1.7-0.2c-2.2,0-4.3,0-6.5,0c-8.1,0-16.2,0-24.2,0c-1.1,0-2.2,0-3.4,0c-0.4,0-0.8,0.2-1.1,0.2
		c-0.1,0.3-0.2,0.5-0.2,0.8c0,9.4,0,18.9,0,28.3C64.2,514.7,64.3,515,64.4,515.4z M64.3,277.5c0,0.6-0.1,1.2-0.1,1.9
		c0,5.8,0,11.7,0,17.5c0,0.6,0,1.3,0,1.9c0,0.4,0.2,0.7,0.3,1c1,0.4,1.9,0.2,2.7,0.2c9,0,18.1,0,27.1,0c2,0,4,0,6,0
		c0.4,0,0.7-0.2,1.1-0.3c0.1-0.6,0.1-1.2,0.1-1.7c0-2.2,0-4.5,0-6.7c0-4.1,0-8.1,0-12.2c0-0.6,0.1-1.3-0.4-2c-0.4-0.1-1-0.2-1.5-0.2
		c-2.2,0-4.3,0.1-6.5,0.1c-7.4,0-14.9,0-22.3,0c-1.7,0-3.4,0-5,0C65.4,277,64.9,276.9,64.3,277.5z M213.5,481.4
		c0.7,0,1.4,0.1,2.1,0.1c3.8,0,7.5,0,11.3,0c6.2,0,12.3,0.1,18.5,0.1c1.6,0,3.2,0,4.8,0c0.4,0,0.7-0.2,1.2-0.3
		c0-0.8,0.1-1.5,0.1-2.2c0-3.2,0-6.4,0-9.6c0-2.4,0-4.8,0-7.2c0-0.5,0-1-0.5-1.4c-0.2,0-0.6-0.1-1-0.1c-4.1-0.1-8.1-0.2-12.2-0.2
		c-6.9,0-13.7,0-20.6,0c-0.9,0-1.8,0-2.6,0c-0.4,0-0.8,0-1.1,0.3c-0.4,0.5-0.3,1.1-0.3,1.6c0,1.6,0,3.2,0,4.8c0,4.1,0,8.1,0,12.2
		C213,479.9,212.8,480.6,213.5,481.4z M251.3,436.1c0-0.9,0.1-1.5,0.1-2.1c0-5.4,0-10.9,0-16.3c0-0.4,0-0.8,0-1.2
		c-0.1-0.4-0.2-0.7-0.4-1.2c-0.9,0-1.8,0-2.7,0c-10.7,0-21.4,0-32.1,0c-0.6,0-1.3,0-1.9,0c-0.4,0-0.7,0.2-1.1,0.3
		c0,0.6-0.1,1.2-0.1,1.7c0,5.3,0,10.5,0,15.8c0,0.6,0,1.3,0,1.9c0,0.4,0.2,0.7,0.3,1.1c0.6,0,1.2,0.1,1.8,0.1
		c11.4,0,22.9,0,34.3-0.1C249.9,436.3,250.5,436.1,251.3,436.1z M251.2,458.8c0.1-0.8,0.1-1.5,0.1-2.1c0-5.5,0-11,0-16.5
		c0-0.4,0-0.8,0-1.2c-0.1-0.4-0.2-0.7-0.4-1c-0.9-0.2-1.7-0.2-2.5-0.2c-2.6,0-5.3,0-7.9,0c-8.1,0-16.1,0-24.2,0c-0.7,0-1.4,0-2.2,0
		c-0.4,0-0.7,0.2-1.1,0.3c0,0.6-0.1,1.2-0.1,1.7c0,5.3,0,10.7,0,16c0,0.6,0,1.1,0,1.7c0,0.4,0.2,0.7,0.4,1.2c0.9,0,1.8,0,2.7,0
		c8.4,0,16.8,0,25.2,0c0.7,0,1.4-0.1,2.2,0c2.1,0.3,4.3,0.1,6.5,0.1C250.2,459,250.6,458.9,251.2,458.8z M101,301.5
		c-0.8,0-1.7,0-2.6,0c-10.4,0-20.8,0-31.2,0c-0.6,0-1.1,0-1.7,0c-0.4,0-0.8,0-1.3,0.5c0,0.3-0.1,0.8-0.1,1.2c0,1.5,0,3,0,4.6
		c0,4.4,0,8.8,0,13.2c0,0.6-0.1,1.3,0.4,1.9c0.7,0.3,1.6,0.2,2.5,0.2c8,0,16,0,24,0c3,0,6.1-0.1,9.1-0.2c0.4,0,0.7-0.2,1.1-0.2
		c0.4-1.9,0.5-9.4,0.3-19.3C101.6,302.9,101.6,302.3,101,301.5z M64.7,117.5c0.8,0,1.7,0,2.6,0c9,0,18.1,0,27.1,0c1.9,0,3.8,0,5.8,0
		c0.4,0,0.8,0,1.2-0.4c0.4-0.7,0.2-1.5,0.2-2.3c0-5,0-9.9,0-14.9c0-0.9,0-1.8,0-2.6c0-0.4-0.1-0.8-0.6-1.2c-0.2,0-0.6-0.1-1-0.1
		c-2.2,0-4.5-0.1-6.7-0.1c-8.6,0-17.3,0-25.9,0c-0.6,0-1.3,0-1.9,0c-0.4,0-0.7,0.2-1.1,0.3c-0.1,0.4-0.1,0.7-0.1,1
		c0,6.4,0,12.8,0,19.2c0,0.2,0.1,0.3,0.1,0.5C64.4,117.1,64.4,117.2,64.7,117.5z M64.4,367.9c0.9,0.4,1.8,0.3,2.7,0.3
		c9,0,18.1,0,27.1,0c2,0,4,0,6-0.1c0.4,0,0.8,0,1.2-0.4c0.4-0.6,0.2-1.3,0.2-2c0-3.8,0-7.5,0-11.3c0-2,0-4,0-6c0-0.4,0-0.8-0.6-1.2
		c-0.5,0-1.1-0.1-1.7-0.1c-2.2,0-4.3,0-6.5,0c-8.5,0-16.9,0-25.4,0c-0.7,0-1.4,0-2.2,0c-0.3,0-0.6,0.2-0.9,0.3
		c-0.1,0.4-0.1,0.8-0.1,1.2C64,356.7,64.1,365.6,64.4,367.9z M101.3,345.4c0.4-1,0.3-1.8,0.3-2.6c0-3.9,0-7.8,0-11.7
		c0-1.8,0-3.5,0-5.3c0-0.4-0.2-0.7-0.3-1.2c-0.7,0-1.3-0.1-2-0.1c-2.3,0-4.6,0.2-6.9,0.2c-8.3,0-16.6,0-24.9,0c-0.7,0-1.4,0-2.2,0
		c-0.3,0-0.6,0.2-1,0.3c0,0.7-0.1,1.3-0.1,1.9c0,5,0,10.1,0,15.1c0,0.8,0,1.6,0,2.4c0,0.4,0.2,0.7,0.3,1.1
		c2.2,0.3,28.5,0.4,35.6,0.1C100.4,345.6,100.8,345.5,101.3,345.4z M64.2,119.4c0,1,0,1.8,0,2.6c0,5.1,0,10.2,0,15.4
		c0,0.6,0,1.1,0,1.7c0,0.4,0.2,0.7,0.4,1.2c0.9,0,1.7,0,2.5,0c8.9,0,17.8,0,26.6,0c2.2,0,4.5-0.1,6.7-0.2c0.4,0,0.8-0.1,1.1-0.7
		c0-0.6,0.1-1.4,0.1-2.2c0-5,0-10.1,0-15.1c0-0.6,0-1.1,0-1.7c0-0.4-0.2-0.7-0.3-1.1c-1-0.2-2-0.2-3-0.2c-10.2,0-20.3,0-30.5,0
		c-0.8,0-1.6,0-2.4,0C65.1,119.1,64.8,119.2,64.2,119.4z M64.3,184.9c0.9,0.5,1.7,0.4,2.5,0.4c9,0,18.1,0,27.1,0
		c2.2,0,4.3-0.1,6.5-0.2c0.4,0,0.8-0.1,1.1-0.6c0-0.6,0.1-1.4,0.1-2.2c0-4.9,0-9.7,0-14.6c0-0.7,0-1.4,0-2.2c0-0.4-0.2-0.7-0.3-1.2
		c-0.7,0-1.3-0.1-2-0.1c-2.1,0-4.2,0-6.2,0c-8.5,0-16.9,0-25.4,0c-0.7,0-1.4,0-2.2,0c-0.4,0-0.7,0.2-1.1,0.3
		c-0.1,0.3-0.2,0.6-0.2,0.8c0,6.2,0,12.3,0,18.5C64.2,184.1,64.3,184.4,64.3,184.9z M64.3,142.1c0,0.6-0.1,1.1-0.1,1.7
		c0,1.4,0,2.9,0,4.3c0,4.2,0,8.3,0,12.5c0,0.6-0.2,1.3,0.4,2c0.7,0.3,1.6,0.2,2.4,0.2c8.9,0,17.9,0,26.8,0c2.1,0,4.2,0,6.2-0.1
		c0.5,0,1,0,1.3-0.5c0-0.2,0.1-0.4,0.1-0.7c0-6.2,0-12.5,0-18.7c0-0.3-0.1-0.6-0.2-0.9c-0.6-0.4-1.1-0.4-1.7-0.3
		c-2.2,0-4.3,0.1-6.5,0.1c-5.9,0-11.8,0-17.7,0c-3,0-6.1,0-9.1,0C65.8,141.7,65.1,141.6,64.3,142.1z M64.3,369.9
		c-0.1,0.8-0.1,1.4-0.1,1.9c0,1.6,0,3.2,0,4.8c0,4,0,8,0,12c0,0.6-0.1,1.3,0.4,1.9c0.6,0.4,1.5,0.2,2.2,0.2c9.5,0,19,0,28.5,0
		c1.7,0,3.4,0,5,0c0.4,0,0.7-0.2,1-0.3c0.3-0.9,0.2-1.7,0.2-2.5c0-5.1,0-10.2,0-15.3c0-0.6,0-1.1,0-1.7c0-0.4-0.2-0.7-0.3-1.1
		c-0.7,0-1.3-0.1-2-0.1c-2.2,0-4.3,0.1-6.5,0.1c-6.8,0-13.6,0-20.4,0c-2.1,0-4.2,0-6.2,0C65.6,369.7,65.1,369.8,64.3,369.9z
		 M64.3,392.5c0,0.8-0.1,1.5-0.1,2.1c0,5.2,0,10.4,0,15.6c0,0.6,0,1.3,0,1.9c0,0.4,0.2,0.7,0.3,1c0.9,0.3,1.7,0.2,2.5,0.2
		c9,0,17.9,0,26.9,0c2.1,0,4.2-0.1,6.2-0.1c0.5,0,1,0,1.4-0.7c0-0.6,0.1-1.4,0.1-2.2c0-4.6,0-9.1,0-13.7c0-1,0-2.1,0-3.1
		c0-0.4-0.2-0.7-0.3-1c-1-0.4-1.9-0.2-2.7-0.3c-10.4,0-20.8,0-31.2,0c-0.6,0-1.3,0-1.9,0C65.1,392.3,64.8,392.4,64.3,392.5z
		 M213.2,181.7c1,0.4,1.8,0.3,2.7,0.3c8.4,0,16.8,0,25.2,0c0.7,0,1.5-0.1,2.2,0c2.3,0.5,4.6,0.2,6.9,0.3c0.4,0,0.7-0.2,1.2-0.3
		c0-0.8,0.1-1.5,0.1-2.2c0-2.9,0-5.8,0-8.6c0-1.8,0-3.7,0-5.5c0-0.4-0.2-0.9-0.3-1.3c-1-0.4-1.9-0.2-2.7-0.2c-10.9,0-21.7,0-32.6,0
		c-0.5,0-1,0-1.4,0s-0.8,0-1.2,0.5c0,0.2-0.1,0.5-0.1,0.8C212.8,170,212.9,179.7,213.2,181.7z M101.4,430.5c0.1-0.5,0.2-0.7,0.2-1
		c0-4.6,0-9.1,0-13.7c0-0.3-0.1-0.6-0.2-1c-0.6-0.1-1.1-0.2-1.7-0.2c-2.2,0-4.5,0.1-6.7,0.1c-8.5,0-16.9,0-25.4,0
		c-0.7,0-1.4,0-2.2,0c-0.4,0-0.7,0.2-1,0.3c-0.1,0.3-0.2,0.5-0.2,0.6c0,4.6,0,9.1,0,13.7c0,0.3,0.1,0.6,0.2,0.9
		c0.9,0.5,1.8,0.3,2.6,0.3c9.3,0,18.5,0,27.8,0c1.7,0,3.4,0,5,0C100.3,430.7,100.8,430.6,101.4,430.5z"/>
	<path d="M504.6,560.6c-0.3,0.1-0.6,0.2-0.9,0.2c-0.5,0-1,0-1.4,0c-0.7,0-1.4,0-2.2,0c-60,0-120-0.1-180-0.1c-1.7,0-3.4,0-5-0.1
		c-0.5,0-0.9-0.1-1.5-0.2c-0.1-0.5-0.2-0.8-0.2-1.2c0-0.7,0-1.4,0-2.2c0-167.3,0-334.5,0-501.8c0-1-0.2-2.1,0.1-2.9
		c0.4-0.5,0.8-0.5,1.2-0.5c0.7,0,1.4,0,2.2,0c61.5,0,123,0,184.5,0c1,0,2.1-0.1,2.9,0.1c0.5,0.5,0.5,0.9,0.5,1.3c0,0.6,0,1.3,0,1.9
		c0,167.4,0,334.8,0,502.2C504.8,558.5,505,559.6,504.6,560.6z M315.3,280.1c0.4,0.1,0.7,0.2,1.1,0.2c1.3,0,2.6,0.1,3.8,0.1
		c8.4,0,16.8,0,25.2,0c0.8,0,1.6,0,2.4,0c0.3,0,0.6,0.2,0.9,0.3c0,0.4-0.1,0.6-0.1,0.9c-0.9,0.5-1.7,0.3-2.5,0.3
		c-9.6,0-19.2,0-28.8,0c-0.7,0-1.4-0.1-2.1,0.3c-0.6,0.8-0.3,1.7-0.3,2.5c0,18.7,0,37.4,0,56.2c0,0.6,0,1.1,0,1.7
		c0,0.4,0.2,0.7,0.3,1.2c0.7,0,1.3,0.1,2,0.1c0.9,0,1.8,0,2.6,0c9.8,0,19.5,0,29.3,0c0.6,0,1.1,0,1.7,0c0.4,0,0.8,0.1,1.1,0.6
		c0.3,0.9,0.1,2,0.1,3c0,69.5,0,139,0,208.5c0,0.7,0,1.4,0,2.2c0,0.4,0.1,0.8,0.5,1.1c0.9,0.3,1.9,0.1,3,0.1c35.4,0,70.9,0,106.3,0
		c0.7,0,1.4,0,2.2,0c0.4,0,0.8,0,1.3-0.5c0.3-0.8,0.1-1.9,0.1-2.9c0-79.8,0-159.7,0-239.5c0-0.7,0-1.4,0-2.2c0-0.4-0.2-0.7-0.2-1.1
		c-1-0.5-1.8-0.3-2.7-0.3c-10.3,0-20.6,0-31,0c-0.7,0-1.4,0-2.2,0c-0.4,0-0.7-0.2-1.1-0.4c0-1,0-1.8,0-2.7c0-8.2,0-16.5,0-24.7
		c0-0.6,0-1.3,0-1.9c0-0.4-0.2-0.7-0.4-1.2c-1,0-1.8,0-2.7,0c-5.8,0-11.5,0-17.3,0c-0.7,0-1.4,0.2-2.1-0.3c-0.1-0.2-0.2-0.3-0.2-0.4
		s0.1-0.3,0.1-0.5c0.3-0.1,0.5-0.2,0.9-0.2c0.8,0,1.6,0,2.4,0c11.8,0,23.7,0,35.5,0c0.7,0,1.4,0,2.2,0c0.3,0,0.6-0.1,1-0.2
		c0.1-0.4,0.2-0.8,0.2-1.2c0-0.8,0-1.6,0-2.4c0-0.4,0.2-0.7,0.2-1c0.9-0.4,1.7-0.3,2.5-0.3c4.2,0,8.5,0,12.7,0
		c0.6,0,1.3,0.1,1.8-0.3c0.1-0.1,0.2-0.3,0.2-0.4c0-73,0.1-146.1,0.1-219.1c0-0.5-0.1-0.9-0.1-1.5c-0.3-0.1-0.6-0.3-0.9-0.3
		c-0.7-0.1-1.4,0-2.2,0c-35.7,0-71.4,0-107,0c-0.6,0-1.3,0-1.9,0c-0.4,0-0.8,0.1-1.1,0.6c-0.2,0.9-0.1,1.9-0.1,2.9
		c0,57.6,0,115.2,0,172.8c0,0.8,0,1.6,0,2.4c0,0.3-0.1,0.6-0.2,0.9c-0.9,0.5-1.8,0.3-2.6,0.3c-10.2,0-20.5,0-30.7,0
		c-0.7,0-1.4,0-2.2,0c-0.4,0-0.8,0-1.1,0.3c-0.4,0.5-0.3,1.1-0.3,1.6c0,14.2,0,28.5,0,42.7c0,0.4,0,0.8,0.1,1.2
		C315,279.6,315.1,279.8,315.3,280.1z M315,484.9c0.6,0.1,1,0.2,1.4,0.2c1.2,0,2.4,0.1,3.6,0.1c9.2,0,18.4,0,27.6,0
		c0.6,0,1.1,0,1.7,0c0.4,0,0.8-0.1,1.1-0.6c0.3-0.8,0.1-1.8,0.1-2.7c0-14.9,0-29.8,0-44.6c0-0.7,0-1.4,0-2.2c0-0.4-0.2-0.7-0.3-1
		c-1-0.4-1.9-0.2-2.7-0.2c-6.6,0-13.1,0-19.7,0c-3.6,0-7.2-0.1-10.8-0.1c-0.6,0-1.3-0.1-1.8,0.4c-0.1,0.2-0.2,0.3-0.2,0.4
		c0,16.2-0.1,32.3-0.1,48.5C314.9,483.6,315,484.1,315,484.9z M466.9,183.1c-0.1,0.4-0.3,0.7-0.3,1c0,0.6,0,1.3,0,1.9
		c0,14.5,0,28.9,0,43.4c0,0.7,0,1.4,0,2.2c0,0.4,0.1,0.8,0.2,1.1c0.9,0.5,1.8,0.3,2.7,0.3c10.2,0,20.5,0,30.7,0c0.6,0,1.3,0,1.9,0
		c0.3,0,0.6-0.2,0.9-0.2c0.4-1,0.2-1.9,0.2-2.9c0-14.5,0-29.1,0-43.6c0-0.6,0-1.3,0-1.9c0-0.4-0.2-0.7-0.3-1.1
		c-2.2-0.3-20-0.5-34.4-0.2C468.1,183,467.5,183.1,466.9,183.1z M502.9,277.1c-0.9-0.4-1.8-0.2-2.7-0.2c-10.5,0-21.1,0-31.6,0
		c-0.8,0-1.6,0-2.4,0c-5.1,0-10.2-0.1-15.3-0.1c-0.4,0-0.8,0-1.3,0.5c-0.2,0.6-0.1,1.5-0.1,2.4c0,9.5,0,19,0,28.5c0,0.6,0,1.1,0,1.7
		c0,0.4,0.2,0.7,0.2,1.1c0.9,0.4,1.8,0.3,2.7,0.3c7.7,0,15.3,0,23-0.1c8.1,0,16.3,0,24.4,0c0.7,0,1.4,0,2.2,0c0.4,0,0.8-0.1,1.1-0.6
		c0-0.3,0.1-0.8,0.1-1.3c0-10.5,0-21.1-0.1-31.6C503.2,277.5,503.1,277.4,502.9,277.1z M503.1,559.1c0.3-1.1,0.2-2,0.2-2.9
		c0-11.8,0-23.7,0-35.5c0-0.6,0-1.3,0-1.9c0-0.4-0.2-0.7-0.3-1c-1-0.4-1.9-0.2-2.7-0.2c-9.1,0-18.2,0-27.3,0c-1.5,0-3,0-4.6,0
		c-0.5,0-0.9,0.1-1.4,0.2c-0.1,0.4-0.2,0.7-0.2,1c0,0.6,0,1.3,0,1.9c0,11.8,0,23.7,0,35.5c0,0.6,0,1.3,0,1.9c0,0.4,0.2,0.7,0.3,1
		c1,0.4,1.9,0.2,2.7,0.2c9.8,0,19.5,0,29.3,0c1,0,1.9,0,2.9,0C502.2,559.3,502.6,559.2,503.1,559.1z M350.2,559.1
		c0.5-1,0.3-1.9,0.3-2.8c0-11.9,0-23.8,0-35.7c0-0.6,0-1.1,0-1.7c0-0.4-0.2-0.7-0.3-1.1c-0.6-0.1-1.2-0.1-1.7-0.1
		c-10.6,0-21.3-0.1-31.9-0.1c-0.5,0-1-0.1-1.5,0.5c-0.2,0.7-0.1,1.7-0.1,2.7c0,11.8,0,23.5,0,35.3c0,0.6,0,1.3,0,1.9
		c0,0.4,0.2,0.7,0.3,1.1c0.4,0.1,0.7,0.1,1,0.1c11,0,21.9,0,32.9,0.1C349.4,559.2,349.8,559.1,350.2,559.1z M466.8,234.8
		c-0.3,1-0.2,1.9-0.2,2.7c0,11.4,0,22.9,0,34.3c0,0.7,0,1.4,0,2.2c0,0.4,0,0.8,0.5,1.1c0.8,0.3,1.7,0.2,2.5,0.2
		c10.2,0,20.5,0,30.7,0c0.6,0,1.3,0,1.9,0c0.3,0,0.6-0.2,0.8-0.3c0.3-0.8,0.2-1.7,0.2-2.4c0-11.7,0-23.5,0-35.2c0-0.5,0-1,0-1.4
		s-0.2-0.7-0.3-1.1c-0.4-0.1-0.7-0.2-1-0.2c-11.4,0-22.8,0-34.3,0C467.4,234.6,467.2,234.7,466.8,234.8z M466.9,93.3
		c0.9,0.4,1.8,0.3,2.7,0.3c10.2,0,20.5,0,30.7,0c0.6,0,1.1,0,1.7,0c0.4,0,0.8,0,1.2-0.4c0.4-0.6,0.2-1.3,0.2-2c0-11.7,0-23.5,0-35.2
		c0-0.3,0-0.6,0-1s0-0.8-0.5-1.2c-0.7-0.3-1.5-0.1-2.4-0.1c-10.3,0-20.6,0-30.9,0c-0.5,0-1,0-1.4,0s-0.8,0-1.2,0.5
		c-0.3,0.7-0.1,1.6-0.1,2.4c0,11.3,0,22.5,0,33.8c0,0.7,0,1.4,0,2.2C466.7,92.7,466.8,93,466.9,93.3z M350.4,53.8
		c-1.1-0.5-2-0.3-2.8-0.3c-9.9,0-19.8,0-29.7,0c-0.6,0-1.1,0-1.7,0c-0.4,0-0.7,0.2-1.1,0.3c-0.3,0.9-0.2,1.7-0.2,2.5
		c0,11.4,0,22.9,0,34.3c0,0.6,0,1.3,0,1.9c0,0.3,0.2,0.6,0.3,1c0.7,0,1.5,0.1,2.2,0.1c1.7,0,3.4,0,5,0c8.2,0,16.3,0,24.5,0
		c0.7,0,1.4,0,2.2,0c0.4,0,0.8,0,1.1-0.3c0.1-0.1,0.2-0.3,0.2-0.4c0-12.3,0.1-24.6,0.1-36.9C350.5,55.2,350.5,54.6,350.4,53.8z
		 M502.9,345.5c0.6-0.8,0.3-1.7,0.3-2.5c0-9,0-18.1,0-27.1c0-0.6,0-1.3,0-1.9c0-0.3-0.2-0.6-0.2-0.8c-0.9-0.5-1.8-0.4-2.7-0.4
		c-10.3,0-20.6,0-30.9,0c-0.5,0-1,0-1.4,0s-0.8,0.2-1.1,0.2c-0.5,0.9-0.3,1.8-0.3,2.7c0,9,0,18.1,0,27.1c0,0.6,0,1.1,0,1.7
		c0,0.4,0.2,0.7,0.3,1.1c0.9,0.3,1.7,0.2,2.5,0.2c4.5,0,9,0,13.4,0c5.8,0,11.7,0,17.5,0C501.2,345.8,502.1,346,502.9,345.5z
		 M503,483.8c-0.3-0.1-0.6-0.2-0.9-0.3c-0.6,0-1.3,0-1.9,0c-10.2,0-20.5,0-30.7,0c-0.6,0-1.1,0-1.7,0c-0.4,0-0.7,0.2-1.2,0.3
		c0,0.8-0.1,1.5-0.1,2.2c0,9,0,18.1,0,27.1c0,0.6,0,1.1,0,1.7c0,0.3,0.2,0.6,0.2,0.9c0.9,0.5,1.8,0.3,2.6,0.3c10.2,0,20.5,0,30.7,0
		c0.6,0,1.1,0,1.7,0c0.4,0,0.8,0,1.2-0.4c0-0.1,0.2-0.4,0.2-0.6c0-10.2,0-20.3,0-30.5C503.2,484.4,503.1,484.1,503,483.8z
		 M503,413.3c0.4-0.7,0.3-1.4,0.3-2.1c0-9.2,0-18.4,0-27.6c0-0.4,0-0.8,0-1.2c0-0.3-0.1-0.6-0.2-0.9c-0.9-0.4-1.8-0.2-2.6-0.2
		c-10.3,0-20.6,0-30.9,0c-0.5,0-1,0-1.4,0s-0.8,0-1.2,0.5c-0.3,0.7-0.2,1.6-0.2,2.4c0,8.7,0,17.4,0,26.1c0,0.6,0,1.3,0,1.9
		c0,0.4,0,0.8,0.4,1.2c0.5,0.4,1.2,0.2,1.8,0.2c10.7,0,21.4,0,32.1,0c0.5,0,1,0,1.4-0.1C502.6,413.5,502.8,413.3,503,413.3z
		 M350.3,127.8c0.4-1,0.3-1.8,0.3-2.6c0-9.1,0-18.2,0-27.3c0-0.5,0-1,0-1.4s-0.2-0.7-0.3-1.1c-0.6-0.1-1.2-0.1-1.7-0.1
		c-10.6,0-21.2,0-31.9,0c-0.5,0-0.9,0.1-1.4,0.2c-0.4,0.9-0.3,1.8-0.3,2.7c0,9,0,18,0,27.1c0,0.6,0,1.3,0,1.9c0,0.3,0.2,0.6,0.3,0.9
		c0.8,0.3,1.6,0.2,2.4,0.2c9.8,0,19.6,0,29.5,0c0.7,0,1.4,0,2.2,0C349.6,128,349.9,127.9,350.3,127.8z M503,347.6
		c-1.1-0.4-2.1-0.3-3-0.3c-10,0-20,0-30,0c-0.7,0-1.4,0-2.2,0c-0.3,0-0.6,0.1-0.9,0.2c-0.6,0.9-0.4,1.8-0.4,2.6c0,8.8,0,17.6,0,26.4
		c0,0.6,0,1.3,0,1.9c0,0.3,0.2,0.6,0.2,0.9c0.9,0.4,1.8,0.2,2.7,0.2c10.2,0,20.5,0,30.7,0c0.6,0,1.1,0,1.7,0c0.4,0,0.8,0,1.2-0.4
		c0-0.1,0.2-0.4,0.2-0.6c0-10.1,0-20.1,0-30.2C503.2,348.2,503.1,348,503,347.6z M315.1,161.6c0.8,0.6,1.5,0.4,2.2,0.4
		c9.9,0,19.8,0,29.8,0c0.7,0,1.4,0,2.2,0c0.4,0,0.8-0.1,1.1-0.5c0.3-0.7,0.2-1.5,0.2-2.3c0-9,0-17.9,0-26.9c0-0.5,0-1,0-1.4
		s-0.2-0.7-0.3-1.1c-1-0.4-1.8-0.2-2.7-0.2c-9.4,0-18.9,0-28.3,0c-1,0-1.9,0-2.9,0c-0.4,0-0.7,0.1-1.2,0.2c-0.1,0.4-0.2,0.7-0.2,1
		C314.8,133.5,314.9,160.1,315.1,161.6z M350.2,487c-0.2-0.1-0.5-0.2-0.7-0.2c-11.2,0-22.4-0.1-33.6-0.1c-0.2,0-0.4,0.1-0.6,0.2
		c-0.5,0.8-0.4,1.6-0.4,2.4c0,8.1,0,16.2,0,24.2c0,0.4,0,0.8,0,1.2c0.1,0.4,0.2,0.7,0.3,1.1c0.9,0.3,1.7,0.2,2.5,0.2c10,0,20,0,30,0
		c0.5,0,1,0,1.4,0s0.8-0.1,1.1-0.2c0.4-0.7,0.3-1.4,0.3-2c0-8.2,0-16.5,0-24.7c0-0.5,0-1-0.1-1.4C350.4,487.4,350.3,487.2,350.2,487
		z M315.3,368.1c0.2,0.1,0.3,0.2,0.5,0.2c0.6,0,1.1,0.1,1.7,0.1c1.7,0,3.4-0.1,5-0.1c8.4,0,16.8,0,25.2,0c0.9,0,1.8,0.2,2.6-0.2
		c0.5-0.7,0.3-1.5,0.4-2.3c0-6,0-12,0-18c0-0.6,0-1.1-0.1-1.7c0-0.2-0.2-0.4-0.3-0.7c-0.8-0.3-1.6-0.2-2.3-0.2c-9.4,0-18.8,0-28.3,0
		c-1.1,0-2.2,0-3.4,0.1c-0.4,0-0.8,0.1-1.2,0.6c0,0.3-0.1,0.8-0.1,1.3c0,6.4,0,12.8,0,19.2c0,0.4,0,0.8,0.1,1.2
		C315,367.7,315.2,367.9,315.3,368.1z M350.1,209c-0.2,0-0.5-0.2-0.8-0.2c-11.1,0-22.2,0-33.3,0c-0.2,0-0.4,0.1-0.6,0.2
		c-0.5,0.7-0.4,1.4-0.4,2.1c0,3.6,0,7.2,0,10.8c0,2.6,0,5.3,0,7.9c0,0.6-0.1,1.3,0.4,2c0.5,0,1.1,0.1,1.8,0.1c2.2,0,4.5,0,6.7,0
		c7.9,0,15.8,0,23.7,0c0.9,0,1.8,0.2,2.6-0.2c0.5-0.6,0.3-1.4,0.3-2.1c0-3.5,0-7,0-10.5c0-2.7,0-5.4,0-8.1
		C350.5,210.3,350.6,209.6,350.1,209z M502.9,415.4c-0.7-0.4-1.6-0.2-2.5-0.2c-9.8,0-19.7,0-29.5,0c-1,0-1.9,0-2.9,0
		c-0.4,0-0.8,0.1-1.1,0.2c-0.5,0.7-0.4,1.3-0.4,2c0,2,0,4,0,6c0,3.8,0,7.5,0,11.3c0,0.7-0.1,1.4,0.4,2.1c0.8,0.4,1.7,0.2,2.6,0.2
		c10.2,0,20.5,0,30.7,0c0.6,0,1.1,0,1.7,0c0.4,0,0.8,0,1.2-0.5c0-0.2,0.1-0.5,0.1-0.8c0-6.6,0-13.1-0.1-19.7
		C503.2,415.7,503,415.6,502.9,415.4z M503,117.8c-0.5-0.1-0.9-0.2-1.3-0.2c-11.4,0-22.8,0-34.3,0.1c-0.1,0-0.3,0.1-0.5,0.2
		c-0.1,0.4-0.2,0.8-0.2,1.3c0,1.4,0,2.7,0,4.1c0,4.5,0,8.9,0,13.4c0,0.8-0.2,1.6,0.4,2.4c0.5,0.1,1,0.2,1.6,0.2
		c10.9,0,21.7,0,32.6,0c0.4,0,0.8,0,1.2-0.1c0.2,0,0.4-0.2,0.7-0.3c0.1-0.2,0.2-0.5,0.2-0.7c0-6.5,0-13.1,0-19.6
		C503.2,118.5,503.1,118.2,503,117.8z M503.1,438.6c-1.1-0.4-2-0.3-2.9-0.3c-10.2,0-20.3,0-30.5,0c-0.6,0-1.1,0-1.7,0
		c-0.4,0-0.8,0-1.3,0.5c-0.1,0.3-0.1,0.7-0.1,1.2c0,1.8,0,3.5,0,5.3c0,3.9,0,7.8,0,11.8c0,0.7-0.1,1.4,0.4,2.1
		c0.8,0.3,1.7,0.2,2.6,0.2c10.2,0,20.5,0,30.7,0c0.6,0,1.1,0,1.7,0c0.4,0,0.8,0,1.1-0.4c0.3-1.8,0.4-13.4,0.2-19.2
		C503.2,439.4,503.1,439.1,503.1,438.6z M466.8,461.2c-0.1,0.7-0.1,1.2-0.1,1.7c0,1.2,0,2.4,0,3.6c0,4.3,0,8.6,0,13
		c0,0.8-0.2,1.6,0.4,2.4c0.8,0.3,1.7,0.2,2.5,0.2c10.2,0,20.5,0,30.7,0c0.6,0,1.1,0,1.7,0c0.4,0,0.8,0,1.2-0.4
		c0-0.1,0.2-0.4,0.2-0.6c0-6.3,0-12.6,0-19c0-0.2-0.1-0.4-0.2-0.8c-0.3-0.1-0.6-0.2-0.9-0.3c-0.7,0-1.4,0-2.2,0c-8.5,0-17,0-25.4,0
		c-2,0-4,0-6,0C468,461,467.5,461.1,466.8,461.2z M503,95.3c-1-0.4-1.9-0.2-2.8-0.2c-9.4,0-18.9,0-28.3,0c-1.2,0-2.4,0-3.6,0
		c-0.5,0-0.9,0.1-1.5,0.2c-0.1,0.5-0.2,1-0.2,1.5c0,5.9,0,11.8,0,17.8c0,0.5,0.1,0.9,0.2,1.4c0.9,0.4,1.8,0.3,2.7,0.3
		c10.2,0,20.5,0,30.7,0c0.6,0,1.1,0,1.7,0c0.4,0,0.8,0,1.1-0.5c0-0.1,0.2-0.4,0.2-0.6c0-6.3,0-12.6,0-19
		C503.2,95.9,503.1,95.7,503,95.3z M350.2,163.8c-0.8-0.4-1.7-0.3-2.6-0.3c-9.6,0-19.2,0-28.8,0c-0.8,0-1.6,0-2.4,0
		c-0.4,0-0.8,0.1-1.2,0.2c-0.1,0.5-0.2,1-0.2,1.4c0,1.4,0,2.9,0,4.3c0,4.3,0,8.6,0,13c0,0.6-0.1,1.3,0.3,1.8
		c0.6,0.4,1.4,0.3,2.1,0.3c9.9,0,19.8,0,29.8,0c0.7,0,1.4,0,2.2,0c0.4,0,0.7-0.2,1.1-0.3c0-0.6,0.1-1.2,0.1-1.7c0-1.6,0-3.2,0-4.8
		c0-3.9,0-7.8,0-11.8C350.5,165.2,350.7,164.5,350.2,163.8z M467,141.1c-0.5,0.9-0.4,1.6-0.4,2.3c0,5.4,0,10.7,0,16.1
		c0,0.4,0,0.8,0,1.2s0.1,0.8,0.5,1.2c0.6,0.2,1.4,0.1,2.2,0.1c4,0,8,0,12,0c6.3,0,12.6,0,18.9,0c0.9,0,1.8,0.2,2.7-0.3
		c0.1-0.4,0.2-0.8,0.2-1.3c0-5.9,0-11.8,0-17.7c0-0.5-0.2-0.9-0.2-1.3c-0.3-0.1-0.4-0.3-0.5-0.3c-11.3,0-22.7-0.1-34-0.1
		C468,140.9,467.5,141,467,141.1z M315.1,207c0.7,0.4,1.4,0.3,2,0.3c5.4,0,10.9,0,16.3,0c4.8,0,9.6,0,14.4,0c0.8,0,1.6,0.2,2.4-0.3
		c0.4-0.6,0.3-1.4,0.3-2.1c0-5.1,0-10.2,0-15.4c0-0.7,0-1.4,0-2.2c0-0.4-0.2-0.7-0.3-1.1c-1-0.4-1.8-0.3-2.7-0.3
		c-9.4,0-18.9,0-28.3,0c-1,0-1.9,0-2.9,0c-0.4,0-0.8,0.1-1.1,0.2c-0.4,0.8-0.3,1.7-0.3,2.4c0,4.2,0,8.3,0,12.5c0,1.4,0,2.9,0,4.3
		C314.9,206.1,315.1,206.5,315.1,207z M350.2,370.1c-0.9-0.4-1.8-0.3-2.7-0.3c-9.3,0-18.5,0-27.8,0c-1.1,0-2.2,0-3.4,0.1
		c-0.4,0-0.8,0.1-1.1,0.2c-0.5,0.7-0.4,1.5-0.4,2.2c0,5.4,0,10.9,0,16.3c0,0.4,0,0.8,0,1.2c0.1,0.4,0.2,0.7,0.4,1.2
		c0.9,0,1.7,0.1,2.5,0.1c9.9,0,19.8,0,29.7,0c0.6,0,1.1,0,1.7,0c0.4,0,0.7-0.2,1-0.2c0.4-0.9,0.3-1.7,0.3-2.5c0-5.1,0-10.2,0-15.3
		c0-0.6,0-1.3,0-1.9C350.5,370.7,350.3,370.4,350.2,370.1z M315.1,392.7c-0.1,0.8-0.2,1.5-0.2,2.1c0,2.9,0,5.8,0,8.6
		c0,2.8,0,5.6,0,8.4c0,0.5-0.1,1.1,0.4,1.6c0.1,0.1,0.3,0.2,0.4,0.2c0.5,0,1,0.1,1.4,0.1c1.3,0,2.6,0,3.8,0c8.7,0,17.4,0,26.1,0
		c0.7,0,1.4,0,2.2,0c0.4,0,0.7-0.2,1-0.3c0.1-0.3,0.2-0.4,0.2-0.6c0-6.3,0-12.6,0-18.9c0-0.4-0.1-0.8-0.5-1
		c-2.3-0.3-20.9-0.4-33-0.2C316.4,392.6,315.9,392.7,315.1,392.7z M503,181.3c0.1-0.4,0.2-0.7,0.2-1c0-5.1,0-10.2,0-15.3
		c0-0.4-0.2-0.8-0.2-1c-0.8-0.5-1.5-0.4-2.2-0.4c-10.6,0-21.2,0-31.9,0c-0.3,0-0.6,0-1,0c-0.4,0.1-0.7,0.2-1.2,0.3
		c-0.1,0.5-0.2,0.8-0.2,1.2c0,5,0,9.9,0,14.9c0,0.5,0.2,0.9,0.3,1.4c0.5,0.1,1,0.2,1.5,0.2C477.3,181.7,500.7,181.6,503,181.3z
		 M350.2,415.2c-0.9,0-1.7-0.1-2.5-0.1c-9.4,0-18.7,0-28.1,0c-1.1,0-2.2,0-3.4,0.1c-0.4,0-0.8,0-1.2,0.6c0,0.4-0.1,1.1-0.1,1.7
		c0,2.6,0,5.3,0,7.9c0,1.8,0,3.5,0,5.3c0,0.5,0,1,0.6,1.4c1.4,0.1,3,0.2,4.6,0.2c9.1,0,18.2,0,27.3,0c0.6,0,1.1,0,1.7,0
		c0.4,0,0.8-0.1,1.1-0.2c0.1-0.3,0.2-0.6,0.2-0.8c0-5,0-10.1,0-15.1C350.5,415.9,350.3,415.7,350.2,415.2z M429.9,282.2
		c0,0.7-0.1,1.2-0.1,1.8c0,8.1,0,16.2,0,24.2c0,0.6,0,1.1,0,1.7c0,0.4,0.1,0.8,0.2,1c0.8,0.5,1.5,0.4,2.2,0.4c4.4,0,8.8,0,13.2,0
		c0.4,0,0.8,0,1.2,0c0.4-0.1,0.7-0.2,1.1-0.4c0-0.7,0.1-1.3,0.1-2c0-6.8-0.1-13.6-0.1-20.4c0-0.1-0.1-0.3-0.2-0.4
		c-0.7-0.4-1.6,0.2-2.3-0.5c0.1-0.2,0.1-0.4,0.3-0.5c0.4-0.2,0.5-0.6,0.6-1c0-0.1,0.2-0.1,0.4-0.2c0.4,0,0.7,0.5,1.2,0.1
		c0.2-1.2,0.3-2.6-0.1-3.8c-0.7-0.5-1.3-0.4-2-0.4C435.6,281.7,431.8,281.8,429.9,282.2z"/>
	<path d="M672.1,236.6c-0.5-1.9,0-3.7-0.4-5.3c-0.8-0.6-1.6-0.4-2.3-0.4c-5,0-10.1,0-15.1,0c-1.7,0-3.4,0-5,0
		c-0.5,0-0.9,0.1-1.4,0.2c-0.7,1.7,0,3.6-0.6,5.3c-0.4,0.1-0.7,0.2-1.1,0.2c-0.6,0-1.1,0-1.7,0c-9.3,0-18.6,0-27.8,0
		c-0.9,0-1.8,0.1-2.5-0.1c-0.5-0.4-0.4-0.8-0.5-1.2c0-0.6,0-1.3,0-1.9c0-51.4,0-102.7,0-154.1c0-1,0-2.1,0-3.2
		c0.4-0.1,0.8-0.3,1.2-0.4c0.7-0.1,1.4,0,2.2,0c22.6,0,45.1,0,67.7,0c6.1,0,12.2,0.1,18.2,0.1c0.5,0,1.1,0.1,1.5,0.1
		c0.5,0.4,0.5,0.8,0.6,1.2c0,0.7,0,1.4,0,2.2c0,51.4,0,102.7,0,154.1c0,1,0.1,1.9-0.2,3c-0.4,0.1-0.7,0.2-1.1,0.3
		c-0.6,0.1-1.1,0-1.7,0c-9.2,0-18.4,0-27.6,0C673.8,236.7,673.1,236.6,672.1,236.6z M703.3,158.7c0.1-0.4,0.2-0.6,0.2-0.8
		c0-26.5,0-52.9,0-79.4c0-0.2-0.1-0.5-0.2-0.6c-0.6-0.5-1.2-0.4-1.9-0.4c-5.6-0.1-11.2-0.2-16.8-0.2c-22.1,0-44.1,0-66.2,0
		c-0.7,0-1.4,0-2.2,0c-0.4,0-0.7,0.2-1,0.3c-0.4,1-0.3,1.9-0.3,2.7c0,25.1,0,50.2,0,75.3c0,0.7,0,1.4,0,2.2c0,0.4,0.2,0.7,0.4,1.1
		c0.9,0,1.7,0,2.5,0c3.2,0,6.4,0,9.6,0c1.4,0,2.9,0,4.3,0c0.4,0,0.7-0.2,1.1-0.3c0-0.6,0.1-1.2,0.1-1.7c0-0.9,0-1.8,0-2.6
		c0-0.4,0.2-0.7,0.3-1.1c1-0.4,2-0.3,3-0.3c15.4,0,30.9,0,46.3,0c0.6,0,1.3,0,1.9,0c0.4,0,0.8,0.1,1.2,0.6c0,0.3,0.1,0.8,0.1,1.2
		c0,1,0,1.9,0,2.9c0,0.4,0.2,0.7,0.2,1.1c0.3,0.1,0.6,0.2,0.8,0.2c5.2,0,10.4,0,15.6,0C702.7,159,702.9,158.8,703.3,158.7z
		 M671.6,205.6c0.4-1,0.3-1.8,0.3-2.6c0-15.3,0-30.6,0-45.8c0-0.5,0-1,0-1.4s-0.2-0.7-0.2-1c-0.9-0.5-1.7-0.3-2.5-0.3
		c-4.4,0-8.8,0-13.2,0c-2.2,0-4.3,0-6.5,0c-0.5,0-1.1,0.1-1.5,0.2c-0.5,0.9-0.4,1.7-0.4,2.5c0,15.4,0,30.9,0,46.3c0,0.4,0,0.8,0,1.2
		c0,0.3,0.1,0.6,0.2,0.8c0.2,0.1,0.4,0.3,0.5,0.3c7.4,0,14.9,0.1,22.3,0.1C670.9,205.8,671.2,205.7,671.6,205.6z M645.8,234.7
		c0.3-0.9,0.2-1.8,0.2-2.7c0-8.8,0-17.6,0-26.4c0-0.6,0-1.1,0-1.7c0-0.4,0-0.8-0.6-1.2c-0.7-0.2-1.5-0.1-2.4-0.1
		c-8.2,0-16.3,0-24.5,0c-0.8,0-1.6,0-2.4,0c-0.3,0-0.6,0.2-0.8,0.2c-0.5,0.9-0.3,1.8-0.3,2.7c0,8.8,0,17.6,0,26.4c0,0.6,0,1.1,0,1.7
		c0,0.4,0,0.8,0.5,1.1c0.7,0.4,1.5,0.2,2.3,0.2c8.5,0,17,0,25.4,0c0.6,0,1.1,0,1.7,0C645.2,235,645.5,234.8,645.8,234.7z
		 M634.3,160.3c-0.4,0.1-0.9,0.2-1.4,0.2c-1.5,0-3,0-4.6,0c-3.7,0-7.3,0-11,0c-0.7,0-1.4-0.1-2.1,0.4c-0.3,0.8-0.2,1.7-0.2,2.5
		c0,7.4,0,14.9,0,22.3c0,0.6,0,1.1,0,1.7c0,0.4,0,0.8,0.5,1.3c0.7,0.3,1.5,0.2,2.4,0.2c8.4,0,16.8,0,25.2,0c0.6,0,1.1,0,1.7,0
		c0.4,0,0.8-0.1,1.2-0.6c0-0.6,0.1-1.4,0.1-2.2c0-9.6,0-19.2,0-28.7c0-0.6,0-1.1,0-1.7c0-0.3-0.1-0.6-0.2-1c-0.4-0.1-0.7-0.2-1-0.2
		c-3,0-5.9,0-8.9,0c-0.4,0-0.7,0.2-1,0.3c-0.4,1-0.2,1.8-0.3,2.7C634.6,158.4,634.9,159.4,634.3,160.3z M703.2,188.7
		c0.4-0.9,0.3-1.8,0.3-2.7c0-6.8,0-13.6,0-20.4c0-1.2,0-2.4,0-3.6c0-0.4-0.1-0.8-0.2-1.1c-0.8-0.5-1.5-0.4-2.2-0.4
		c-3.6,0-7.2,0-10.8,0c-1.6,0-3.2,0-4.8-0.1c-0.4,0-0.8-0.1-1.2-0.7c0-1.2,0-2.5-0.1-3.9c0-0.5-0.2-0.9-0.3-1.3
		c-1.5-0.3-7.3-0.4-9.4-0.2c-0.3,0-0.6,0.2-0.9,0.3c-0.1,0.3-0.2,0.5-0.2,0.7c0,10.8,0,21.6,0,32.4c0,0.2,0.1,0.4,0.2,0.6
		c0.7,0.6,1.4,0.4,2.1,0.4c8.3,0,16.6,0.1,25,0.1c0.6,0,1.1,0,1.7,0C702.7,188.9,703,188.8,703.2,188.7z M703.3,215.4
		c-0.3-0.2-0.4-0.3-0.6-0.3c-9.2,0-18.4-0.1-27.5-0.1c-0.5,0-0.9,0.1-1.5,0.2c-0.1,0.5-0.3,0.9-0.3,1.4c0,5.7,0,11.5,0,17.2
		c0,0.3,0.1,0.6,0.2,0.8c0.7,0.5,1.5,0.4,2.2,0.4c4.5,0.1,8.9,0,13.4,0.2c4.1,0.2,8.3,0,12.5,0c0.5,0,1.1,0.1,1.7-0.5
		c0-0.2,0.1-0.6,0.1-1C703.7,229.1,703.5,217.3,703.3,215.4z M647.9,229.2c0.7,0.4,1.5,0.2,2.3,0.2c6.3,0,12.6,0,18.9,0
		c0.5,0,1,0,1.4,0s0.7-0.2,1.1-0.3c0.3-0.9,0.2-1.7,0.2-2.5c0-5.2,0-10.4,0-15.6c0-0.8,0-1.6,0-2.4c0-0.4-0.2-0.7-0.3-1
		c-0.9-0.4-1.7-0.2-2.5-0.2c-4.6,0-9.3,0-13.9,0c-2,0-4,0-6,0c-0.5,0-1-0.1-1.5,0.5c0,0.3-0.1,0.8-0.1,1.3c0,1.2,0,2.4,0,3.6
		c0,4.8,0,9.6,0,14.4C647.6,227.8,647.4,228.5,647.9,229.2z M703.3,203.1c-0.8-0.6-1.7-0.4-2.5-0.4c-5.4,0-10.9,0-16.3,0
		c-3.1,0-6.2,0-9.4,0c-0.5,0-1.1-0.1-1.6,0.5c0,0.2-0.2,0.4-0.2,0.6c0,2.9,0,5.8,0,8.6c0,0.3,0.2,0.6,0.3,1c0.7,0.1,1.3,0.1,1.9,0.1
		c8.6,0,17.1,0,25.7,0c0.3,0,0.6,0,1,0c0.4-0.1,0.7-0.2,1-0.3C703.6,211.1,703.6,205.2,703.3,203.1z M688.4,201.1
		c0.7,0,1.4,0.1,2.2,0.1c2.5,0,4.9,0,7.4,0c1.4,0,2.9,0,4.3,0c0.4,0,0.7-0.2,1-0.4c0.2-1.6,0.2-7.9,0.1-9.4c0-0.2-0.2-0.4-0.3-0.7
		c-0.4-0.1-0.8-0.1-1.1-0.2c-0.9,0-1.8,0-2.6,0c-3.2,0-6.4,0-9.6,0c-0.6,0-1.1,0-1.6,0.5c0,0.4-0.2,0.8-0.2,1.3
		c0,2.7,0.1,5.4,0.1,8.1C688.1,200.6,688.2,200.7,688.4,201.1z M630.2,201c0.4-1.7,0.5-4.9,0.3-9.2c0-0.4-0.2-0.7-0.3-1.2
		c-0.5-0.1-0.9-0.2-1.2-0.2c-0.8,0-1.6,0-2.4,0c-3.3,0-6.5,0-9.8,0c-0.5,0-1.1-0.1-1.6,0.4c-0.1,0.1-0.2,0.3-0.2,0.4
		c0,3,0,5.9,0,8.9c0,0.3,0.2,0.6,0.3,0.8C617.4,201.2,628.1,201.2,630.2,201z M645.8,200.9c0.1-0.3,0.2-0.4,0.2-0.5c0-3,0-5.9,0-8.9
		c0-0.3-0.2-0.6-0.3-0.8c-0.3-0.1-0.4-0.2-0.6-0.2c-4,0-8,0-12,0c-0.3,0-0.6,0.2-0.9,0.3c-0.1,0.4-0.2,0.7-0.2,1c0,2.7,0,5.4,0,8.2
		c0,0.4,0.2,0.7,0.3,1.1c0.5,0.1,0.9,0.1,1.3,0.1c3.8,0,7.7,0,11.5-0.1C645.3,201.1,645.5,201,645.8,200.9z M673.7,190.8
		c-0.4,1.5-0.5,4-0.3,8.8c0,0.5,0.2,0.9,0.3,1.4c0.5,0.1,0.9,0.2,1.2,0.2c3.7,0,7.5-0.1,11.2-0.1c0.1,0,0.3-0.2,0.4-0.2
		c0.4-1.5,0.5-4.8,0.3-9c0-0.4,0-0.8-0.5-1.2c-0.2,0-0.6-0.1-1-0.1c-3.7,0-7.5,0.1-11.2,0.1C674,190.6,673.8,190.7,673.7,190.8z"/>
	<path d="M613.9,292.9c0.5-0.1,0.8-0.2,1.1-0.2c29.6,0,59.2,0,88.8,0.1c0.2,0,0.5,0.1,0.8,0.2c0.1,0.3,0.3,0.7,0.3,1
		c0.1,0.6,0,1.3,0,1.9c0,76.1,0,152.3,0,228.4c0,0.9,0.1,1.9-0.1,2.7c-0.4,0.5-0.8,0.5-1.2,0.5c-0.6,0-1.3,0-1.9,0
		c-28.2,0-56.5,0-84.7,0c-1,0-1.9,0.1-3-0.2c-0.1-0.3-0.2-0.7-0.3-1.1c0-0.6,0-1.3,0-1.9c0-76.1,0-152.1,0-228.2
		C613.8,295.2,613.7,294.1,613.9,292.9z M615.4,525.8c0.2,0.1,0.5,0.2,0.8,0.2c0.6,0,1.3,0,1.9,0c27.4,0,54.9,0,82.3,0
		c0.6,0,1.3,0,1.9,0c0.4,0,0.7-0.2,1.1-0.3c0-0.5,0.1-0.9,0.1-1.3c0-32,0-64,0-96c0-0.2-0.1-0.5-0.1-0.6c-0.5-0.5-1.1-0.5-1.6-0.5
		c-4.8,0-9.6,0-14.4,0.1c-2.4,0-4.8,0-7.2,0c-0.5,0-1,0-1.4-0.6c0-0.2-0.1-0.6-0.1-1c0-0.9,0-1.8,0-2.6c0-3.4,0-6.7,0-10.1
		c0-0.5,0.1-1.1-0.5-1.6c-0.9-0.3-1.9-0.1-2.8-0.1c-18.9,0-37.7,0-56.6,0c-0.7,0-1.4,0-2.2,0c-0.4,0-0.8,0-1.3,0.4
		c0,0.2-0.2,0.4-0.2,0.7c0,0.6,0,1.3,0,1.9c0,33.3,0,66.7,0,100c0,3,0,6.1,0,9.1C615,524.3,614.9,525,615.4,525.8z M615.3,294.4
		c-0.5,1.1-0.3,2-0.3,3c0,22,0,44,0,66c0,0.6,0,1.3,0,1.9c0,0.4,0.2,0.7,0.2,1.1c1,0.4,2,0.2,2.9,0.2c22.2,0,44.3,0,66.5,0
		c1,0,2.1,0,3.1,0c4.7,0,9.4,0,14.2,0c0.5,0,1,0,1.4-0.5c0.3-0.8,0.2-1.8,0.2-2.7c0-22,0-44,0-66c0-0.6,0-1.3,0-1.9
		c0-0.4-0.2-0.7-0.3-1c-0.4-0.1-0.6-0.2-0.8-0.2c-28.6,0-57.3-0.1-85.9-0.1C616.2,294.2,615.8,294.3,615.3,294.4z M615.4,409.7
		c1,0.3,1.8,0.2,2.7,0.2c27.4,0,54.7,0,82.1,0c0.7,0,1.4,0,2.2,0c0.4,0,0.7-0.2,1.2-0.4c0-0.9,0-1.8,0-2.7c0-11.8,0-23.5,0-35.3
		c0-0.6,0-1.3,0-1.9c0-0.4,0-0.8-0.5-1.2c-0.5,0-1.1-0.1-1.7-0.1c-5.4,0-10.7-0.1-16.1-0.1c-22.2,0-44.5,0-66.7,0
		c-0.7,0-1.4,0-2.2,0c-0.4,0-0.7,0.2-1.1,0.3c-0.3,0.9-0.2,1.8-0.2,2.7c0,7.4,0,14.9,0,22.3c0,4.6,0,9.1,0,13.7
		C615,408,614.9,408.8,615.4,409.7z M703.4,411.9c-0.3-0.2-0.5-0.3-0.6-0.3c-6.9-0.1-13.7-0.1-20.6-0.2c-0.5,0-1.1,0.1-1.6,0.1
		c-0.2,0.2-0.3,0.3-0.3,0.5c0,4.2-0.1,8.5-0.1,12.7c0,0.3,0.1,0.6,0.2,0.8c0.8,0.5,1.6,0.3,2.4,0.3c6.2,0,12.3,0,18.5-0.1
		c0.3,0,0.6,0,1,0c0.4-0.1,0.7-0.2,1-0.3c0.1-0.3,0.2-0.4,0.2-0.6c0-3.9,0-7.8,0-11.8C703.5,412.8,703.4,412.4,703.4,411.9z"/>
	<path d="M114.2,280.6c2.7-0.3,72.6-0.4,84.5-0.2c0.5,0,0.9,0.1,1.3,0.1c0.5,0.3,0.6,0.7,0.6,1.1c0,0.6,0,1.3,0,1.9
		c0,76.8,0,153.6,0,230.4c0,0.9,0.1,1.9-0.1,2.7c-0.4,0.5-0.8,0.5-1.2,0.5c-0.8,0-1.6,0-2.4,0c-26.5,0-53,0-79.4,0
		c-1,0-2.1,0.2-2.9-0.2c-0.5-0.4-0.5-0.8-0.5-1.2c0-0.7,0-1.4,0-2.2c0-76.6,0-153.3,0-229.9c0-0.7,0-1.4,0-2.2
		C114,281.3,114.1,281,114.2,280.6z M198.9,515.3c0.3-1.2,0.2-2.1,0.2-3.1c0-19.9,0-39.8,0-59.7c0-0.6,0-1.3,0-1.9
		c0-0.4-0.1-0.8-0.2-1.2c-0.4-0.1-0.7-0.2-1-0.3c-0.7,0-1.4,0-2.2,0c-25.7,0-51.3,0-77,0c-0.6,0-1.3,0-1.9,0c-0.4,0-0.8,0-1.2,0.6
		c0,0.4-0.1,0.9-0.1,1.5c0,2.3,0,4.6,0,7c0,18.1,0,36.1,0,54.2c0,0.6,0,1.3,0,1.9c0,0.4,0,0.8,0.5,1.2c0.8,0.3,1.7,0.1,2.7,0.1
		c25.8,0,51.5,0,77.3,0c0.6,0,1.3,0,1.9,0C198.2,515.6,198.5,515.4,198.9,515.3z M198.9,282.2c-1.1-0.5-2.1-0.3-3-0.3
		c-25.7,0-51.5,0-77.2,0c-0.6,0-1.3,0-1.9,0c-0.4,0-0.7,0.2-1.1,0.3c-0.1,0.6-0.1,1-0.1,1.5c0,2.3,0,4.6,0,7c0,17.8,0,35.7,0,53.5
		c0,0.7,0,1.4,0,2.2c0,0.4,0.2,0.7,0.3,1.1c1,0.4,2,0.2,3,0.2c25.7,0,51.3,0,77,0c0.7,0,1.4,0,2.2,0c0.4,0,0.7-0.3,1-0.4
		c0.3-2.7,0.4-47.3,0.2-63.2C199,283.5,199,283,198.9,282.2z M198.9,349.5c-1.2-0.4-2.3-0.3-3.3-0.3c-25.6,0-51.2,0-76.8,0
		c-0.7,0-1.4,0-2.2,0c-0.4,0-0.7,0.2-1.1,0.3c-0.3,1-0.2,1.8-0.2,2.7c0,11.8,0,23.7,0,35.5c0,0.6,0,1.1,0,1.7c0,0.4,0.1,0.8,0.5,1.2
		c0.8,0.3,1.8,0.1,2.7,0.1c25.7,0,51.3,0,77,0c0.6,0,1.3,0,1.9,0c0.4,0,0.8-0.1,1-0.2c0.1-0.3,0.3-0.4,0.3-0.6
		c0-12.8,0.1-25.6,0.1-38.4C199.1,350.9,199,350.3,198.9,349.5z M115.6,392.5c-0.1,0.7-0.1,1.1-0.1,1.6c0,6.2,0,12.5,0,18.7
		c0,0.4,0,0.8,0,1.2c0.1,0.4,0.2,0.7,0.3,1.1c0.9,0.3,1.7,0.2,2.5,0.2c2.6,0,5.3,0,7.9,0c0.5,0,1-0.1,1.4,0.4c0.5,0.8,0,1.8,0.5,2.8
		c0.2,0.1,0.5,0.2,0.8,0.3c0.6,0.1,1.3,0,1.9,0c8.8,0,17.6,0,26.4,0c0.6,0,1.1,0,1.7,0c0.4,0,0.8,0,1.2-0.4c0-0.1,0.2-0.4,0.2-0.6
		c0-8.1,0-16.1,0-24.2c0-0.3-0.1-0.6-0.2-1c-0.3-0.1-0.6-0.3-0.9-0.3c-0.6,0-1.3,0-1.9,0c-12.9,0-25.9,0-38.8,0c-0.6,0-1.1,0-1.7,0
		C116.4,392.3,116.1,392.4,115.6,392.5z M126,417c-0.2-0.1-0.4-0.2-0.6-0.2c-3,0-5.9,0-8.9,0c-0.3,0-0.6,0.2-0.8,0.3
		c-0.3,0.9-0.2,1.7-0.2,2.5c0,8.4,0,16.8,0,25.2c0,0.5,0,1,0,1.4s0.2,0.7,0.2,1.1c1,0.4,1.8,0.2,2.7,0.2c8.5,0,17,0,25.4,0
		c0.6,0,1.1,0,1.7,0c0.4,0,0.7-0.2,1.2-0.3c0.1-0.6,0.2-1.2,0.2-1.7c0-7.8,0-15.5,0-23.3c0-0.2,0-0.5,0-0.7
		c-0.1-0.4-0.2-0.7-0.4-1.2c-0.9,0-1.8-0.1-2.7-0.1c-5,0-10.1,0-15.1,0c-0.7,0-1.4,0.1-2.1-0.3C126,419.1,126.6,417.9,126,417z
		 M174.1,412c0.8-0.5,1.7-0.3,2.4-0.3c4.1,0,8.2,0,12.2,0c2.7,0,5.4,0,8.2,0c0.6,0,1.3,0.1,2-0.4c0-0.4,0.2-0.8,0.2-1.3
		c0-5.3,0-10.5,0-15.8c0-0.2,0-0.5,0-0.7c-0.1-0.4-0.2-0.7-0.4-1.2c-0.9,0-1.7,0-2.5,0c-10.5,0-20.9,0-31.4,0c-0.6,0-1.1,0-1.7,0
		c-0.3,0-0.6,0.2-0.9,0.2c-0.5,0.9-0.3,1.8-0.3,2.6c0,6.9,0,13.7,0,20.6c0,0.6,0,1.1,0,1.7c0,0.4,0,0.8,0.5,1.2
		c0.2,0,0.5,0.1,0.8,0.1c3.1,0,6.2,0,9.3,0c0.4,0,0.7-0.2,1.1-0.3C174.1,416.2,173.4,414,174.1,412z M148.7,447.3
		c1,0.3,1.8,0.3,2.6,0.3c4.8,0,9.6,0,14.4,0c2.2,0,4.3,0,6.5,0c0.5,0,1,0,1.5-0.5c0.3-0.7,0.2-1.6,0.2-2.4c0-7.1,0-14.2,0-21.3
		c0-0.6,0-1.1,0-1.7c0-0.4-0.2-0.7-0.3-1c-1-0.4-1.9-0.3-2.7-0.3c-5.8,0-11.5,0-17.3,0c-1.2,0-2.4,0-3.6,0c-0.4,0-0.8,0-1.1,0.3
		c-0.1,0.1-0.2,0.3-0.2,0.4c0,8.4-0.1,16.8-0.1,25.2C148.5,446.5,148.6,446.8,148.7,447.3z M175.7,447.4c0.7,0.1,1.2,0.1,1.8,0.1
		c6.5,0,12.9,0,19.4,0c0.3,0,0.6,0,1,0s0.8-0.1,1.1-0.5c0-0.2,0.1-0.4,0.1-0.6c0-5.7,0-11.3,0-17c0-0.3-0.1-0.6-0.2-0.9
		c-0.8-0.5-1.7-0.3-2.4-0.3c-5.3,0-10.5,0-15.8,0c-1.3,0-2.6,0-3.8,0c-0.4,0-0.7,0.2-1.1,0.2c-0.1,0.3-0.2,0.6-0.2,0.8
		c0,5.8,0,11.5,0,17.3C175.4,446.7,175.5,446.9,175.7,447.4z M198.8,426.5c0.1-0.4,0.2-0.6,0.2-0.7c0-3.8,0-7.7,0-11.5
		c0-0.3-0.2-0.6-0.3-0.9c-0.7,0-1.3-0.1-1.9-0.1c-6.3,0-12.6,0-18.9,0c-0.4,0-0.8,0-1.2,0c-0.4,0.1-0.7,0.2-1.1,0.3
		c-0.1,0.4-0.2,0.7-0.2,1c0,3.7,0,7.3,0,11c0,0.2,0.1,0.5,0.2,0.7c0.2,0.1,0.3,0.3,0.4,0.3c7.2,0,14.4,0.1,21.5,0.1
		C197.9,426.6,198.3,426.5,198.8,426.5z"/>
	<path d="M200.3,77.8c0.1,0.4,0.2,0.6,0.2,0.8c0,52.9,0,105.7,0,158.6c0,0.3-0.1,0.6-0.2,1c-0.4,0.1-0.7,0.3-1.1,0.3
		c-0.5,0.1-1,0-1.4,0c-8.5,0-17,0-25.4,0c-0.8,0-1.6,0.1-2.2-0.1c-0.5-0.4-0.6-0.8-0.6-1.2c0-1.1,0-2.2,0-3.4c0-0.5-0.1-0.9-0.2-1.5
		c-0.6-0.1-1.1-0.2-1.7-0.2c-3.2,0-6.4,0-9.6,0c-3.4,0-6.9,0-10.3,0c-0.7,0-1.4-0.1-2.2,0.3c-0.6,1.8,0.1,3.8-0.5,5.7
		c-0.4,0.1-0.7,0.2-1.1,0.3c-0.6,0-1.1,0-1.7,0c-8.5,0-17,0-25.4,0c-0.9,0-1.7,0.1-2.4-0.1c-0.5-0.5-0.5-0.9-0.5-1.3
		c0-0.7,0-1.4,0-2.2c0-51.3,0-102.7,0-154c0-1-0.1-2.1,0.2-3.1c0.3-0.1,0.6-0.3,0.9-0.3c0.6-0.1,1.3,0,1.9,0c26.9,0,53.7,0,80.6,0
		C198.5,77.5,199.3,77.4,200.3,77.8z M198.9,160.3c0.3-0.9,0.2-1.9,0.2-2.8c0-25,0-50.1,0-75.1c0-0.6,0-1.3,0-1.9
		c0-0.4-0.2-0.7-0.3-1.1c-1-0.3-2-0.2-2.9-0.2c-25.7,0-51.4,0-77,0c-0.6,0-1.3,0-1.9,0c-0.4,0-0.8,0-1.1,0.3
		c-0.1,0.2-0.2,0.3-0.2,0.4c0,26.5-0.1,52.9-0.1,79.4c0,0.3,0.1,0.6,0.1,0.9c0.5,0.5,1.1,0.4,1.7,0.4c7.1,0.2,11.8,0.1,13.5-0.3
		c0.1-0.4,0.2-0.9,0.2-1.4c0-1,0-2.1,0-3.1c0-0.4,0.2-0.7,0.3-1.1c1-0.4,2-0.3,3-0.3c15.2,0,30.4,0,45.6,0c0.6,0,1.3,0,1.9,0
		c0.4,0,0.8,0,1.2,0.5c0.5,1.6-0.2,3.5,0.4,5.3c0.3,0.1,0.5,0.3,0.7,0.3c4.7,0,9.4,0,14.2,0C198.4,160.5,198.6,160.4,198.9,160.3z
		 M169.3,156.2c-0.8-0.4-1.7-0.3-2.4-0.3c-5.1,0-10.2,0-15.3,0c-1.6,0-3.2,0-4.8,0c-0.4,0-0.8,0-1.1,0.3c-0.1,0.2-0.2,0.3-0.2,0.4
		c0,16.1-0.1,32.3-0.1,48.4c0,0.4,0.1,0.8,0.1,1.1c0.7,0.6,1.4,0.5,2.1,0.5c4.9,0,9.7,0,14.6,0c2,0,4,0,6,0c0.4,0,0.8,0,1.2-0.5
		c0.3-0.7,0.1-1.7,0.1-2.6c0-14.8,0-29.6,0-44.3c0-0.7,0-1.4,0-2.2C169.5,156.8,169.4,156.5,169.3,156.2z M143.7,204.5
		c-1-0.5-1.9-0.3-2.8-0.3c-7.5,0-15,0-22.5,0c-0.6,0-1.1,0-1.7,0c-0.4,0-0.7,0.2-1.1,0.3c0,0.7-0.1,1.3-0.1,2c0,1.5,0,3,0,4.6
		c0,8,0,16,0,24c0,0.2,0,0.5,0,0.7c0,0.4,0,0.8,0.5,1.2c0.7,0.3,1.6,0.1,2.4,0.1c7.4,0,14.9,0,22.3,0c0.6,0,1.1,0,1.7,0
		c0.4,0,0.8-0.2,1-0.2c0.1-0.3,0.3-0.4,0.3-0.6c0-9.9,0.1-19.8,0.1-29.7C143.8,205.9,143.8,205.3,143.7,204.5z M115.7,190
		c0.9,0.5,1.7,0.4,2.5,0.4c7.7,0,15.4,0,23,0c0.5,0,1,0,1.4,0s0.8-0.1,1.1-0.6c0-0.6,0.1-1.4,0.1-2.2c0-9.5,0-19,0-28.6
		c0-0.6,0-1.1,0-1.7c0-0.4-0.2-0.7-0.3-1.1c-1.6-0.2-8-0.4-10.2-0.2c-0.2,0-0.4,0.2-0.7,0.3c-0.5,1.8,0.1,3.7-0.4,5.4
		c-0.7,0.6-1.4,0.4-2.1,0.4c-3.4,0-6.9,0-10.3,0c-1,0-2.1,0-3.1,0c-0.4,0-0.7,0.2-1.1,0.3c-0.1,0.4-0.1,0.7-0.1,1
		c0,8.6,0,17.1,0,25.7C115.5,189.5,115.6,189.7,115.7,190z M171.1,156.2c-0.5,0.8-0.4,1.5-0.4,2.2c0,3.5,0,7,0,10.6
		c0,6.5,0,13,0,19.4c0,0.5,0.1,1.1,0.1,1.6c0.8,0.6,1.6,0.4,2.4,0.4c7.8,0,15.5,0,23.3,0c0.5,0,1,0,1.4,0c0.3,0,0.6-0.2,0.8-0.3
		c0.4-0.8,0.2-1.7,0.2-2.4c0-7.5,0-15,0-22.5c0-0.6,0-1.1,0-1.7c0-0.4-0.2-0.7-0.3-1c-0.9-0.3-1.7-0.2-2.5-0.2c-4,0-8,0-12,0
		c-0.8,0-1.6,0.2-2.4-0.4c-0.7-1.8,0.2-3.8-0.6-5.5C179.5,155.9,173.4,155.9,171.1,156.2z M198.8,216.8c-0.9-0.5-1.7-0.3-2.5-0.3
		c-7.7,0-15.3,0-23,0c-0.5,0-1,0-1.4,0s-0.7,0.2-1.1,0.3c0,0.7-0.1,1.2-0.1,1.8c0,1.6,0,3.2,0,4.8c0,4,0,8,0,12
		c0,0.5-0.1,1.1,0.5,1.6c0.7,0.3,1.5,0.2,2.3,0.2c7.6,0,15.2,0,22.7,0c0.5,0,1,0,1.4,0s0.7-0.2,1.2-0.3c0.1-0.5,0.2-0.9,0.2-1.2
		C199.2,230.3,199.1,218.7,198.8,216.8z M169.3,208.5c-0.8-0.4-1.7-0.2-2.4-0.2c-3.8,0-7.7,0-11.5,0c-2.7,0-5.4,0-8.1,0
		c-0.5,0-1.1-0.1-1.7,0.5c0,0.2-0.1,0.6-0.1,1c-0.2,6-0.1,18.8,0.2,20.6c0.6,0.6,1.3,0.4,2,0.4c5,0,10.1,0,15.1,0c1.8,0,3.7,0,5.5,0
		c0.4,0,0.8,0,1.2-0.5c0.3-0.6,0.2-1.4,0.2-2.2c0-5.7,0-11.3,0-17c0-0.6,0-1.1,0-1.7C169.5,209.1,169.4,208.8,169.3,208.5z
		 M198.9,204.5c-0.9-0.5-1.7-0.4-2.5-0.4c-7.7,0-15.3,0-23,0c-0.5,0-1,0-1.4,0s-0.7,0.2-1,0.3c-0.2,1.5-0.3,7.6-0.1,9.4
		c0,0.2,0.2,0.4,0.3,0.7c0.8,0.4,1.7,0.3,2.6,0.3c7.5,0,15,0,22.5,0c0.6,0,1.1,0,1.7,0c0.4,0,0.7-0.2,1-0.3
		C199.1,212.5,199.1,206.6,198.9,204.5z M130.3,202.4c0.2,0.1,0.4,0.2,0.5,0.2c4,0,8,0,12,0c0.3,0,0.6-0.2,0.9-0.3
		c0.1-0.4,0.2-0.7,0.2-1c0-2.7,0-5.4,0-8.1c0-0.4-0.2-0.7-0.3-1c-0.3-0.1-0.4-0.2-0.6-0.2c-4,0-8,0-12,0c-0.3,0-0.6,0.2-0.9,0.3
		c-0.1,0.4-0.2,0.7-0.2,1c0,2.9,0,5.7,0.1,8.6C130,202,130.1,202.1,130.3,202.4z M185.8,202.3c0.4,0.1,0.6,0.2,0.7,0.2
		c3.8,0,7.7,0,11.5,0c0.3,0,0.6-0.2,0.8-0.3c0.2-1.6,0.3-7.3,0.2-9.4c0-0.2-0.2-0.4-0.3-0.7c-0.3-0.1-0.6-0.2-0.9-0.2
		c-3.7,0-7.4,0-11,0c-0.3,0-0.6,0.2-0.8,0.2c-0.4,0.9-0.3,1.7-0.3,2.5C185.7,197.2,185.5,199.7,185.8,202.3z M171,192.1
		c-0.1,0.4-0.2,0.6-0.2,0.9c0,2.8,0,5.6,0,8.4c0,0.4,0.2,0.7,0.3,1.1c0.3,0.1,0.6,0.1,0.8,0.2c3.7,0,7.4,0,11,0c0.4,0,0.7-0.2,1-0.3
		c0.2-1.8,0.3-8,0.1-9.7c0-0.1-0.2-0.3-0.3-0.4c-0.2-0.1-0.4-0.2-0.6-0.2c-3.7,0-7.4,0-11,0C171.7,192,171.4,192,171,192.1z
		 M115.8,192.1c-0.1,0.4-0.2,0.6-0.2,0.8c0,2.9,0,5.8,0,8.6c0,0.3,0.2,0.6,0.3,0.9c0.5,0.1,0.8,0.1,1.2,0.1c3.5,0,7,0,10.5-0.1
		c0.1,0,0.3-0.1,0.5-0.2c0.1-0.2,0.2-0.4,0.2-0.6c0-3,0-5.9,0-8.9c0-0.2-0.2-0.4-0.3-0.7c-0.3-0.1-0.6-0.2-0.9-0.2
		C124.4,191.8,117.4,191.9,115.8,192.1z"/>
	<path d="M363.1,77c0.9-0.5,1.7-0.3,2.5-0.3c5.7,0,11.4,0,17,0c22.8,0,45.6,0,68.4,0c1,0,2.1-0.1,3.2,0.2c0.1,0.3,0.3,0.7,0.3,1.1
		c0.1,0.7,0,1.4,0,2.2c0,51.6,0,103.2,0,154.8c0,1,0.2,2.1-0.2,2.9c-0.5,0.5-0.9,0.5-1.3,0.5c-0.6,0-1.1,0-1.7,0
		c-9.4,0-18.7,0-28.1,0c-0.9,0-1.8,0.2-2.7-0.3c-0.7-1.8,0.1-3.8-0.5-5.7c-0.3-0.1-0.7-0.2-1.1-0.3c-0.6-0.1-1.1,0-1.7,0
		c-6.2,0-12.5,0-18.7,0c-0.8,0-1.6-0.1-2.4,0.3c-0.6,1.9,0.1,3.8-0.5,5.8c-0.5,0.1-1,0.2-1.4,0.2c-1.2,0-2.4,0-3.6,0
		c-8.3,0-16.6,0-25,0c-0.9,0-1.8,0.2-2.7-0.3c-0.1-0.2-0.2-0.5-0.3-0.8c0-0.7,0-1.4,0-2.2c0-51.8,0-103.5,0-155.3
		C362.9,78.8,362.8,77.8,363.1,77z M382.8,154.1c1-0.5,1.9-0.3,2.7-0.3c15.4,0,30.9,0,46.3,0c0.6,0,1.3,0,1.9,0
		c0.3,0,0.6,0.2,0.9,0.3c0.7,1.9-0.2,3.9,0.6,5.6c0.8,0.4,1.7,0.3,2.4,0.3c4.1,0,8.2,0,12.2,0c0.6,0,1.3,0,1.9,0
		c0.4,0,0.7-0.2,1-0.3c0.3-1.1,0.2-2,0.2-3c0-25,0-50.1,0-75.1c0-0.6,0-1.3,0-1.9c0-0.4,0-0.8-0.5-1.3c-0.7-0.3-1.7-0.1-2.6-0.1
		c-27.4,0-54.9,0-82.3,0c-0.6,0-1.1,0-1.7,0c-0.4,0-0.8,0-1.1,0.3c-0.4,0.4-0.3,0.9-0.3,1.4c0,2.1,0,4.2,0,6.2c0,23.4,0,46.9,0,70.3
		c0,0.7,0,1.4,0,2.2c0,0.4,0,0.8,0.5,1.2c0.2,0,0.6,0.1,1,0.1c5,0,10.1,0,15.1,0c0.4,0,0.8-0.1,1.2-0.2
		C382.9,157.9,382.3,156,382.8,154.1z M396.4,206.4c0.7,0.6,1.4,0.4,2.1,0.4c6.5,0,13.1,0,19.6,0c0.5,0,1,0,1.4-0.1
		c0.2,0,0.4-0.2,0.6-0.3c0.3-0.8,0.2-1.6,0.2-2.4c0-15.3,0-30.5,0-45.8c0-0.6,0-1.1,0-1.7c0-0.4-0.2-0.7-0.3-1.1
		c-0.5-0.1-0.9-0.2-1.3-0.2c-7,0-14.1,0-21.1,0c-0.1,0-0.2,0-0.2,0c-0.4,0-0.8,0.1-1.2,0.5c-0.3,0.8-0.1,1.7-0.1,2.7c0,15,0,30,0,45
		c0,0.6,0,1.3,0,1.9C396.2,205.9,396.3,206.2,396.4,206.4z M394.3,204c-0.8-0.6-1.7-0.3-2.6-0.3c-8.2,0-16.3,0-24.5,0
		c-0.6,0-1.1,0-1.7,0c-0.3,0-0.6,0.2-1,0.3c0,0.7-0.1,1.3-0.1,1.9c0,9.1,0,18.2,0,27.3c0,0.7,0,1.4,0,2.2c0,0.4,0.1,0.8,0.5,1.1
		c0.7,0.3,1.5,0.2,2.3,0.2c8.2,0,16.3,0,24.5,0c0.5,0,1,0,1.4,0s0.7-0.2,1.2-0.3c0.1-0.7,0.1-1.3,0.2-2c0-2,0-4,0-6
		c0-7.3,0-14.6,0-21.8C394.6,205.8,394.7,204.9,394.3,204z M422.2,189.5c0.7,0.5,1.5,0.4,2.2,0.4c8.8,0,17.6,0,26.4,0
		c0.3,0,0.6,0,1,0c0.4-0.1,0.7-0.2,1.1-0.3c0.1-0.4,0.2-0.7,0.2-1c0-8.6,0-17.1,0-25.7c0-0.4-0.2-0.7-0.2-1.1
		c-0.8-0.4-1.5-0.3-2.2-0.3c-3.3,0-6.6,0-9.8,0c-1.9,0-3.8,0-5.8,0c-0.5,0-1,0-1.4-0.6c-0.2-0.7-0.1-1.6-0.1-2.4
		c0-0.9,0.1-1.9-0.3-2.9c-0.3-0.1-0.6-0.2-0.9-0.2c-3,0-5.9,0-8.9,0c-0.4,0-0.7,0.2-1,0.3c-0.4,1-0.2,1.9-0.2,2.7
		c0,8.9,0,17.8,0,26.6c0,1.1,0,2.2,0,3.4C422.1,188.8,422.2,189.2,422.2,189.5z M384,161.1c-1,0.5-1.8,0.4-2.6,0.4
		c-4.6,0-9.1,0-13.7,0c-0.7,0-1.4,0-2.2,0c-0.3,0-0.6,0.2-0.9,0.3c-0.3,0.9-0.2,1.8-0.2,2.7c0,7,0,13.9,0,20.9c0,1,0,2.1,0,3.1
		c0,0.4,0.1,0.8,0.2,1.2c0.7,0.1,1.3,0.2,2,0.2c2.4,0,4.8,0,7.2,0c5.9,0,11.8,0,17.8,0c0.9,0,1.8,0.2,2.6-0.3
		c0.5-0.6,0.3-1.4,0.3-2.1c0-9.9,0-19.8,0-29.8c0-0.3,0-0.6,0-1s0-0.8-0.4-1.2c-0.1-0.1-0.4-0.2-0.6-0.2c-2.8,0-5.6,0-8.4,0
		c-0.3,0-0.6,0.2-0.8,0.3C383.9,157.5,384.4,159.3,384,161.1z M422.4,236.5c1,0.2,1.9,0.2,2.8,0.2c8.3,0,16.6,0,24.9,0
		c0.6,0,1.1,0,1.7,0c0.4,0,0.7-0.2,1.1-0.3c0.3-0.8,0.2-1.5,0.3-2.2c0-2.6,0-5.3,0-7.9c0-2.8,0-5.6,0-8.4c0-0.5,0.1-1.1-0.5-1.7
		c-0.7-0.2-1.6-0.1-2.4-0.1c-8.2,0-16.3,0-24.5,0c-0.7,0-1.4,0-2.2,0c-0.4,0-0.8,0.1-1.1,0.2c-0.1,0.3-0.3,0.5-0.3,0.8
		c0,6.2,0,12.5,0,18.7C422.1,235.9,422.2,236.2,422.4,236.5z M396.4,208.6c-0.1,0.5-0.2,0.9-0.2,1.2c0,6.4,0,12.8,0,19.2
		c0,0.1,0,0.2,0,0.2c0,0.4,0.1,0.8,0.7,1.2c0.6,0,1.4,0.1,2.2,0.1c6.2,0,12.3,0,18.5,0c0.6,0,1.1,0,1.7,0c0.4,0,0.7-0.2,1-0.3
		c0.4-0.9,0.3-1.7,0.3-2.5c0-4.8,0-9.6,0-14.4c0-1.2,0-2.4,0-3.6c0-0.4,0-0.8-0.6-1.2c-0.2,0-0.6-0.1-1-0.1
		C413.2,208.2,398.5,208.3,396.4,208.6z M422.3,203.9c-0.1,0.3-0.2,0.5-0.2,0.8c0,3,0,5.9,0,8.9c0,0.2,0.1,0.4,0.2,0.6
		c0.7,0.5,1.4,0.3,2.1,0.3c8.8,0,17.6,0,26.4,0c0.3,0,0.6,0,1,0c0.4-0.1,0.7-0.2,1.1-0.3c0.3-1.5,0.4-7.6,0.2-9.7
		c0-0.2-0.2-0.4-0.3-0.7c-0.8-0.3-1.7-0.2-2.6-0.2c-7.4,0-14.7,0-22.1,0c-1.4,0-2.9,0-4.3,0C423.2,203.7,422.8,203.8,422.3,203.9z
		 M437.8,191.6c-0.2,1.9-0.3,7.8-0.1,9.8c0,0.1,0.2,0.3,0.3,0.5c0.2,0,0.5,0.2,0.8,0.2c4.4,0,8.8,0,13.2,0c0.3,0,0.6-0.2,0.9-0.2
		c0.1-0.3,0.2-0.5,0.2-0.8c0-2.9,0-5.7,0-8.6c0-0.3-0.2-0.6-0.3-0.8c-1.8-0.3-9.3-0.4-13.7-0.2C438.6,191.5,438.2,191.6,437.8,191.6
		z M379.8,201.9c0.2-1.9,0.3-8,0.1-9.8c0-0.1-0.2-0.3-0.3-0.5c-0.3,0-0.7-0.2-1.1-0.2c-4.2,0-8.5,0-12.7,0c-0.4,0-0.7,0.2-1.1,0.3
		c-0.1,0.3-0.2,0.6-0.2,0.8c0,2.9,0,5.8,0,8.6c0,0.3,0.2,0.6,0.3,0.8c1.7,0.2,10.8,0.4,14,0.2C379.1,202.1,379.4,202,379.8,201.9z
		 M422.3,191.6c-0.1,0.4-0.2,0.5-0.2,0.7c0,3,0,5.9,0,8.9c0,0.3,0.2,0.6,0.3,0.8c1.8,0.2,8.2,0.3,12.1,0.2c0.4,0,0.8-0.1,1.3-0.2
		c0.1-0.5,0.2-0.9,0.3-1.4c0.2-4.8,0.1-7.3-0.3-8.8c-0.1-0.1-0.3-0.2-0.4-0.2c-4,0-8-0.1-12-0.1C423,191.5,422.7,191.6,422.3,191.6z
		 M394.2,191.6c-0.5,0-0.8-0.1-1.2-0.1c-3.4,0-6.9,0-10.3,0c-0.2,0-0.5,0.1-0.8,0.2c-0.1,0.3-0.3,0.6-0.3,0.9c0,2.9,0,5.8,0,8.6
		c0,0.3,0.2,0.6,0.3,0.8c0.3,0.1,0.4,0.2,0.6,0.2c3.7,0,7.4,0,11,0c0.3,0,0.6-0.2,0.9-0.3c0.1-0.5,0.2-0.8,0.2-1.2
		c0-2.8,0-5.6-0.1-8.4C394.5,192.1,394.3,191.9,394.2,191.6z"/>
	<path d="M454.5,530.7c-0.5,0.1-0.7,0.3-0.9,0.3c-29.8,0-59.5,0-89.3,0c-0.3,0-0.6-0.1-1-0.2c-0.1-0.4-0.2-0.8-0.3-1.1
		c0-0.7,0-1.4,0-2.2c0-58.5,0-116.9,0-175.4c0-0.7,0-1.4,0-2.2c0-0.3,0.2-0.6,0.3-0.9c0.6-0.1,1.1-0.1,1.7-0.2c1.5,0,3,0,4.6,0
		c14.8,0,29.6,0,44.4,0c0.8,0,1.6,0,2.4,0c0.3,0,0.6-0.2,0.9-0.3c0.1-0.3,0.2-0.5,0.2-0.8c0-7.2,0-14.4,0-21.6
		c0-0.2-0.1-0.5-0.2-0.8c-0.3-0.1-0.7-0.2-1.1-0.3c-0.7,0-1.4,0-2.2,0c-7.5,0-15,0-22.6,0c-0.9,0-1.8,0.1-2.6-0.1
		c-0.5-0.4-0.5-0.8,0-1.2c2.3-0.3,16.1-0.4,28-0.2c0.6,0,1.1,0.1,1.8,0.1c0.1,0.4,0.3,0.8,0.3,1.1c0,1,0,1.9,0,2.9
		c0,4.4,0,8.8,0,13.2c0,0.8-0.1,1.6,0.2,2.5c0.3,0.1,0.7,0.2,1.1,0.3c0.6,0.1,1.3,0,1.9,0c9.3,0,18.6,0,27.8,0
		c0.9,0,1.8,0.1,2.7-0.2c0.1-0.3,0.3-0.7,0.3-1c0.1-0.6,0-1.3,0-1.9c0-4.9,0-9.8,0-14.6c0-0.7-0.2-1.4,0.4-2.1c0.3,0,0.5,0,0.9,0
		c0.1,0.4,0.2,0.7,0.2,1c0,0.7,0,1.4,0,2.2c0,66.8,0,133.6,0,200.4C454.6,528.4,454.7,529.5,454.5,530.7z M452.7,529.4
		c0.5-1.1,0.3-2.1,0.3-3c0-31.5,0-63,0-94.5c0-0.6,0-1.3,0-1.9c0-0.4-0.1-0.8-0.6-1.2c-0.6,0-1.4-0.1-2.2-0.1c-3.8,0-7.7,0-11.5,0
		c-3,0-6.1,0-9.1,0c-0.5,0-1.1,0.1-1.7-0.4c-0.3-0.5-0.2-1.1-0.2-1.8c0-2.4,0-4.8,0-7.2c0-0.5,0-1-0.5-1.4c-0.1,0-0.4-0.2-0.6-0.2
		c-11.9,0-23.8,0-35.7,0c-0.2,0-0.5,0.1-0.8,0.2c-0.1,0.3-0.2,0.6-0.2,0.9c0,0.7,0,1.4,0,2.2c0,2.1,0,4.2,0,6.2c0,0.5,0,1-0.7,1.4
		c-0.7,0-1.6,0-2.4,0c-5.9,0-11.8,0-17.8,0c-1,0-2.1,0-3.1,0c-0.4,0-0.7,0.2-1.2,0.3c-0.1,0.6-0.2,1-0.2,1.5c0,1.9,0,3.8,0,5.8
		c0,30.1,0,60.1,0,90.2c0,0.6,0,1.3,0,1.9c0,0.4,0.3,0.7,0.4,1c2.1,0.2,58,0.3,85.5,0.2C451.1,529.4,451.8,529.4,452.7,529.4z
		 M452.8,411.2c0.3-1.1,0.2-2,0.2-3c0-19.9,0-39.8,0-59.7c0-0.6,0-1.3,0-1.9c0-0.4,0-0.8-0.5-1.2c-0.7-0.2-1.5-0.1-2.4-0.1
		c-9.4,0-18.9,0-28.3,0c-0.5,0-1,0-1.4,0s-0.8,0-1.3,0.4c0,0.2-0.1,0.6-0.2,1c0,0.8,0,1.6,0,2.4c0,0.4,0,0.8-0.5,1.2
		c-0.8,0.3-1.7,0.1-2.7,0.1c-15.8,0-31.7,0-47.5,0c-0.8,0-1.6,0-2.4,0c-0.4,0-0.7,0.2-1.1,0.3c-0.1,0.6-0.1,1.2-0.1,1.7
		c0,2.2,0,4.3,0,6.5c0,16.4,0,32.8,0,49.2c0,0.7,0,1.4,0,2.2c0,0.4,0.2,0.7,0.3,1c0.9,0.4,1.7,0.2,2.5,0.2c3.7,0,7.4,0,11,0
		c3.2,0,6.4,0,9.6,0c0.5,0,1.1-0.1,1.7,0.4c0.6,1.2-0.3,2.8,0.6,4.1c0.9,0.3,1.8,0.2,2.7,0.2c10.6,0,21.1,0,31.7,0
		c0.6,0,1.3,0,1.9,0c0.4,0,0.7-0.2,1-0.3c0.4-1.1,0.2-2,0.2-3c0-0.4,0-0.8,0.5-1.2c0.7-0.2,1.6-0.1,2.4-0.1c6.5,0,13,0,19.4,0
		C451,411.5,451.9,411.7,452.8,411.2z M452.8,426.9c0.3-1.7,0.4-8.7,0.2-12.6c0-0.3-0.1-0.6-0.2-0.8c-0.8-0.5-1.6-0.3-2.4-0.3
		c-6.2,0-12.3,0-18.5,0c-0.5,0-1,0-1.4,0c-0.4,0.1-0.7,0.2-1,0.3c-0.1,0.2-0.1,0.3-0.1,0.4c0,4.1-0.1,8.2-0.1,12.2
		c0,0.3,0.2,0.6,0.3,0.8c0.3,0.1,0.6,0.2,0.8,0.2c7.2,0,14.4,0,21.6,0C452.2,427.1,452.4,427,452.8,426.9z M388.1,413.4
		c-1.1-0.5-2-0.3-2.9-0.3c-5.9,0-11.8,0-17.7,0c-0.6,0-1.1,0-1.7,0c-0.4,0-0.8,0-1.1,0.4c-0.3,1.6-0.4,8.1-0.2,12.2
		c0,0.4,0.1,0.8,0.2,1.2c0.6,0.1,1.1,0.2,1.7,0.2c2.5,0,5,0,7.4,0c4.1,0,8.2,0,12.2,0c0.6,0,1.3,0.1,1.8-0.3
		c0.1-0.2,0.2-0.3,0.2-0.4c0-3.9,0.1-7.8,0.1-11.7C388.3,414.3,388.2,413.9,388.1,413.4z"/>
	<path d="M362.6,324.9c-0.1-0.6-0.2-1-0.2-1.4c0-14.2,0.1-28.3,0.1-42.5c0-0.1,0.1-0.3,0.3-0.5c0.4-0.1,0.8-0.2,1.3-0.2
		c1.9,0,3.8,0,5.8,0c6.6,0,13.1,0,19.7,0c0.9,0,1.8-0.1,2.7,0.2c0.1,0.3,0.1,0.6,0.2,0.8c-0.2,0.2-0.3,0.3-0.4,0.3
		c-0.9,0.1-1.8,0.1-2.6,0.1c-7.6,0-15.2,0-22.8,0c-0.8,0-1.6-0.2-2.3,0.4c-0.1,0.2-0.2,0.4-0.2,0.7c0,13.2,0,26.4,0,39.6
		c0,0.2,0.1,0.4,0.2,0.6c0.6,0.5,1.2,0.4,1.9,0.4c3.9,0,7.8,0,11.8,0c0.9,0,1.8,0,2.6,0c0.4,0,0.8,0.1,1.2,0.1
		c0.1,0.4,0.1,0.6,0.2,0.9c-0.2,0.2-0.3,0.3-0.4,0.4c-0.6,0.1-1.1,0.1-1.7,0.1c-5,0-10.1,0-15.1,0
		C364.1,325.1,363.4,325,362.6,324.9z"/>
	<text transform="matrix(1 0 0 1 139.3577 45)" class="st1 st2">2nd Floor</text>
	<text transform="matrix(1 0 0 1 390.8763 45)" class="st1 st2">3rd Floor</text>
	<text transform="matrix(1 0 0 1 642.6277 45)" class="st1 st2">4th Floor</text>
</g>
<g id="Layer_4">
	<rect id="Background" width="251.4" height="57.7"/>
	<text id="SpaceLabel" transform="matrix(1 0 0 1 90.5996 18.0363)" class="st3 st1 st4">Space</text>
	<text id="GroupLabel" transform="matrix(1 0 0 1 90.5996 32.9061)" class="st3 st1 st4">Group</text>
	<text id="ResearchAreaLabel" transform="matrix(1 0 0 1 90.5996 47.7758)" class="st3 st1 st4">Research area</text>
	<g>
		<path class="st3" d="M70.5,24.3c1.4,0.2,2.7,0.1,3.9,0.7c0.8,0.4,1.6,0.5,2.5,0.6c1.6,0.3,3.1,0.8,4.6,1.3c1,0.4,1,0.4,2,0.3
			c0,3.9,0,7.7,0,11.7c-5.4,0-10.8,0-16.3,0c0.5-0.3,1-0.6,1.5-0.9v-0.1c-0.4-0.1-0.9,0-1.3-0.2c-0.5-0.2-0.9-0.5-1.3-0.8
			C65.9,36.7,66,36.3,66,36c0-0.4-0.4-0.6-0.6-0.9c0,0-0.2,0-0.3,0c-0.4,0.2-0.8,0.5-1.2,0.7c-0.2,0.1-0.4,0.1-0.6,0
			c-1.2-0.4-2.1-1.3-2.9-2.2c-0.2-0.2-0.4-0.3-0.7-0.2c-0.6,0.3-1,0.1-1.5-0.3c-0.4-0.4-1-0.8-1.5-1.2c-0.2-0.2-0.3-0.3-0.1-0.5
			c0.2-0.3,0.2-0.6-0.1-0.9c-0.1-0.1-0.1-0.3-0.1-0.5c0.1-0.6,0.3-1.2,0.5-1.8c0-0.1,0.2-0.3,0.3-0.4s0.3-0.3,0.4-0.4
			c0.5-0.3,0.8-0.7,0.5-1.4c-0.1-0.2,0.1-0.6,0.1-1c0.2,0.3,0.4,0.5,0.5,0.7c0.3-0.5,0.7-0.9,0.9-1.3c0.1-0.2,0.1-0.5,0-0.7
			s-0.3-0.2-0.6-0.4c0.2-1.1,0.4-2.3,0.7-3.5c1.7,0.8,3.3,1.8,4.6,3c0.4,0.3,0.8,0.6,1.3,0.7c0.2,0.1,0.4,0.3,0.6,0.4
			c0.5,0.5,1,1,1.7,1.2c0.6,0.2,0.6,0.3,0.8,1c-1.2-0.6-2.3-1.2-3.6-1.8c0.8,0.8,1.4,1.8,2.5,2.3c0.8,0.3,1.5,0.6,2.3,0.6
			c1.5,0,2.8,0.4,4.2,0.8c0.7,0.2,1.4,0.4,2,0.5c0,0,0-0.1,0.1-0.1c-0.4-0.3-0.8-0.6-1.1-0.9c-0.1-0.1-0.3-0.3-0.3-0.4
			c-0.1-0.4-0.3-0.6-0.6-0.8c-0.7-0.6-1.5-1-2.5-1.2C71.2,25.2,70.8,24.9,70.5,24.3z"/>
		<path class="st3" d="M58.7,10.4c0.7,0.2,1.4,0.3,2,0.5v-0.1c-0.5-0.3-0.9-0.6-1.4-0.9V9.8c0.3,0.1,0.7,0.1,1,0.2
			c7.6,4.4,15.2,8.8,22.7,13.2c0.3,0.2,0.4,0.4,0.4,0.7c0,0.9,0,1.8,0,2.8c-0.1,0-0.2,0-0.3-0.1c-1.4-0.4-2.7-0.9-4.1-1.3
			c-0.4-0.1-0.7-0.3-1-0.5c-2.9-1.5-5.8-3-8.6-4.6c-0.8-0.4-1.5-1.1-2.2-1.7c-1.9-1.5-3.8-3.1-5.7-4.6c-0.8-0.7-1.8-1.1-2.7-1.7
			c-0.2-0.1-0.3-0.3-0.3-0.5C58.6,11.2,58.6,10.8,58.7,10.4z"/>
		<path class="st3" d="M38.5,29.7c0,0.7,0,1.2,0,1.8c0,0.1-0.2,0.2-0.3,0.3c-1.3,0.8-2.7,1.2-4.3,1.3c-2,0.2-3.9,0.1-5.8-0.6
			c-3.2-1.2-5-3.5-5.7-6.8c-0.4-2.1-0.3-4.2,0.5-6.2c1.2-3.2,3.7-5.1,7-5.8c3-0.7,6-0.3,8.8,0.9c0.1,0,0.2,0.1,0.3,0.1
			c-0.2,0.6-0.4,1.3-0.5,1.9c-0.1,0.3-0.3,0.3-0.5,0.1c-0.3-0.2-0.6-0.5-0.8-0.7c-1.6-1.2-3.4-1.5-5.4-1.3c-3.5,0.4-5.8,2.9-6.5,6.5
			c-0.4,2.3-0.3,4.5,0.7,6.7c1.2,2.7,3.3,4.1,6.2,4.3c2.3,0.1,4.2-0.6,5.9-2.1C38.2,29.9,38.3,29.8,38.5,29.7z"/>
		<path class="st3" d="M13.7,33.2c-1.4,0-2.6-0.3-3.8-1c-0.4-0.2-0.9-0.4-1-0.7c-0.1-0.3,0.1-0.8,0.2-1.2c0.1-0.4,0.2-0.7,0.3-1.1
			c0-0.1,0.1-0.2,0.1-0.2c0.1,0.1,0.2,0.1,0.2,0.2c0.5,0.6,0.8,1.2,1.4,1.7c2.1,1.9,6.1,1.2,6.9-2.1c0.4-1.5,0-2.8-1.3-3.7
			c-0.7-0.5-1.5-0.8-2.2-1.2c-0.8-0.4-1.6-0.7-2.4-1.1c-1.9-1-2.9-2.6-2.7-4.8c0.2-2.2,1.5-3.8,3.6-4.4c1.7-0.5,3.5-0.6,5.2,0.1
			c0.4,0.2,0.8,0.5,1.3,0.7c0.2,0.1,0.2,0.2,0.1,0.4c-0.2,0.6-0.4,1.2-0.6,1.7c0,0.1-0.2,0.2-0.2,0.3c-0.1-0.1-0.2-0.2-0.2-0.3
			c-0.5-1.2-1.4-2-2.7-2.1c-1.5-0.2-2.7,0.2-3.6,1.4c-1,1.4-0.7,3.4,0.8,4.4c0.7,0.5,1.6,0.8,2.4,1.2c0.9,0.4,1.8,0.7,2.6,1.2
			c1.8,1,2.7,2.6,2.6,4.7c-0.1,2.2-1.1,3.9-3.1,4.9C16.2,32.9,15.2,33.1,13.7,33.2z"/>
		<path class="st3" d="M7.6,39c0.8-1.1,1.5-2.1,2.2-3.1c0.1-0.1,0.3-0.2,0.4-0.2c0.8,0,1.5-0.1,2.3-0.1c0.7,0,1.3-0.1,1.9-0.3
			c1.2-0.4,2.4-0.8,3.6-1.1c0.2-0.1,0.4-0.2,0.5-0.4c0.3-1,1-1.7,1.9-2.2c1.1-0.6,2.1-1.3,3.1-2c0.8,1.1,1.8,2,3,2.7
			c-1.1,1.5-2.3,2.7-3.7,3.9c-0.8,0.7-1.6,1.2-2.7,1.1c-1.1-0.1-2,0.3-2.7,1.2c-0.3,0.4-0.7,0.5-1.2,0.5c-2.7,0-5.4,0-8.1,0
			C8,39,7.9,39,7.6,39z"/>
		<path class="st3" d="M41.2,13.8c0.8,0,1.7,0,2.5,0c0,6.4,0,12.7,0,19.1c-0.8,0-1.6,0-2.5,0C41.2,26.5,41.2,20.2,41.2,13.8z"/>
		<path class="st3" d="M40.7,18.9c0,0.5,0,0.9,0,1.4c0,0.8,0,1.5,0,2.3c0,0.3-0.1,0.5-0.3,0.7c-1.2,1-2.3,2.1-3.4,3.2
			c-0.3,0.3-0.5,0.6-0.7,0.9c-0.2,0.4-0.4,0.9-0.6,1.3c-0.1,0.2-0.3,0.4-0.5,0.6c-0.2-0.4-0.3-0.8-0.5-1.1c-0.4,0.1-0.8,0.2-1.2,0.4
			c0-1.2,0-2.4,0-3.7c-0.3,0-0.5,0-0.8,0c0.5-0.6,1-1.2,1.4-1.8c0.1-0.1,0.3-0.1,0.5-0.1c0.8,0,0.9,0,1.1-0.8
			c0.1-0.4,0.4-0.8,0.6-1.1c0.8-1,1.8-1.6,3-1.8C39.8,19.2,40.2,19,40.7,18.9z"/>
		<path class="st3" d="M57,24.7c-0.5,0.4-0.9,0.9-1.4,1.3c-0.2,0.2-0.3,0.4-0.2,0.6c0.2,1.5,0.4,2.9,0.6,4.4c0,0.2-0.1,0.4-0.2,0.5
			c-0.2,0.3-0.5,0.5-0.7,0.7c-0.4,0.4-0.8,0.6-1.4,0.5c-0.9-0.1-1.7,0.2-2.3,0.9c-0.9,0.9-2,1.7-3,2.6c-0.2,0.2-0.4,0.3-0.6,0.4
			c-0.8,0.4-1.6,0.7-2.4,1c-0.4,0.2-0.7,0.4-0.7,0.8c0,0.3-0.2,0.4-0.5,0.4c-0.8,0-1.5,0-2.3,0c0.6-0.4,1.1-1,1.9-1.1
			c0.5-0.1,0.8-0.3,1.1-0.6c2.1-1.8,4.2-3.7,6.3-5.5c0.1-0.1,0.2-0.3,0.3-0.5s0.2-0.4,0.3-0.5c0.6-0.7,1.3-1.3,1.9-2
			c0.2-0.2,0.3-0.4,0.3-0.6c0.2-0.6,0.3-1.3,0.5-1.9c0-0.1,0.1-0.2,0.1-0.3C55.4,25.4,56.1,25,57,24.7C56.9,24.6,56.9,24.7,57,24.7z
			"/>
		<path class="st3" d="M45.1,31.8c1.5-1.7,3-3.3,4.5-5c0.5-0.5,0.9-1.1,1.2-1.7c0.1-0.2,0-0.6,0.1-0.9c0-0.2,0.1-0.4,0.2-0.5
			c1.2-1.1,2.5-2.1,3.7-3.2c0.1-0.1,0.2-0.2,0.4-0.2c0.8-0.1,1.6-0.3,2.5-0.3c-1,0.7-1.9,1.3-2.9,2c0.1,0.1,0.2,0.1,0.3,0.2
			c0.5,0.3,0.5,0.3,0.3,0.9s-0.5,1-1,1.4c-2,1.7-3.9,3.4-5.9,5C47.3,30.4,46.2,31.1,45.1,31.8C45.1,31.9,45.1,31.9,45.1,31.8z"/>
		<path class="st3" d="M55.4,39c0.5-0.6,1-1.1,1.5-1.6c0.1-0.1,0.2-0.1,0.3-0.1c1.8-0.4,3.6-0.9,5.5-1.3c0.1,0,0.3,0,0.4,0.1
			c0.5,0.8,1.1,1.5,1.6,2.3c-0.7,0.3-1.3,0.6-2,0.6c-2.2,0-4.5,0-6.7,0C55.8,39,55.6,39,55.4,39z"/>
		<path class="st3" d="M76.1,43.5c0-1.2,0-2.4,0-3.5c0.3,0,0.5,0,0.8,0c0,2.5,0,5,0,7.6c-0.3,0-0.5,0-0.8,0c0-0.2,0-0.4-0.1-0.7
			c-0.1,0-0.1-0.1-0.2-0.1c-0.1,0.1-0.1,0.3-0.2,0.4c-1,1-2.6,0.7-3.2-0.5c-0.5-0.9-0.4-1.9,0-2.9C73.2,42.6,75,42.1,76.1,43.5z
			 M73.2,45.2c0.1,0.4,0.1,0.8,0.2,1.2c0.2,0.5,0.5,0.9,1,0.9c0.6,0.1,1.1-0.2,1.4-0.7c0.4-0.8,0.5-1.7,0.1-2.6
			c-0.2-0.5-0.6-0.9-1.2-0.9c-0.6,0-1.1,0.3-1.3,0.9C73.3,44.4,73.3,44.8,73.2,45.2z"/>
		<path class="st3" d="M30.5,47.6c-0.4-1.2-0.8-2.4-1.2-3.6c-0.1,0.2-0.1,0.3-0.2,0.4c-0.4,1-0.8,2-1.1,2.9
			c-0.1,0.2-0.2,0.3-0.5,0.3c-0.2,0-0.3-0.1-0.4-0.3c-0.5-1.4-1-2.8-1.5-4.3c0-0.1,0-0.2-0.1-0.3c0.1,0,0.1,0,0.1,0
			c0.7,0,0.7,0,0.9,0.6c0.4,1,0.7,2.1,1.1,3.2c0.1-0.2,0.1-0.4,0.2-0.5c0.3-1,0.6-1.9,1-2.9c0.1-0.2,0.1-0.5,0.5-0.4
			c0.4,0,0.4,0.2,0.5,0.4c0.3,1,0.7,2,1,3c0,0.1,0.1,0.2,0.1,0.4c0.1-0.2,0.1-0.3,0.2-0.5c0.4-1,0.7-1.9,1.1-2.9
			c0.2-0.5,0.2-0.5,0.8-0.5c-0.1,0.1-0.1,0.3-0.1,0.4c-0.6,1.3-1.2,2.6-1.7,4C31.1,47.6,30.9,47.7,30.5,47.6z"/>
		<path class="st3" d="M15,46.5c0.1-0.1,0.1-0.2,0.2-0.4c0.3-1,0.7-1.9,1-2.9c0.2-0.5,0.2-0.5,0.8-0.4c0,0.1-0.1,0.2-0.1,0.3
			c-0.6,1.4-1.2,2.8-1.8,4.2c-0.1,0.3-0.3,0.3-0.5,0.3c-0.3,0-0.3-0.2-0.3-0.3c-0.4-1.1-0.7-2.1-1.1-3.3c-0.1,0.2-0.1,0.3-0.2,0.4
			c-0.4,1-0.8,2-1.1,3c-0.1,0.2-0.2,0.3-0.4,0.3s-0.3-0.1-0.4-0.3c-0.5-1.4-1-2.9-1.5-4.3c0-0.1,0-0.1-0.1-0.3c0.2,0,0.5,0,0.7,0
			c0.1,0,0.2,0.2,0.3,0.3c0.4,1,0.7,2,1.1,3c0,0.1,0.1,0.3,0.2,0.5c0.1-0.2,0.1-0.2,0.2-0.3c0.4-1.1,0.7-2.1,1-3.2
			c0.1-0.2,0.2-0.3,0.4-0.3s0.4,0,0.4,0.3c0.3,1,0.7,2,1,3C14.8,46.2,14.9,46.4,15,46.5C14.9,46.5,15,46.5,15,46.5z"/>
		<path class="st3" d="M17.6,42.8c0.8-0.1,0.8-0.1,1.1,0.6c0.4,1,0.7,2.1,1.1,3.1c0.1-0.1,0.1-0.2,0.1-0.3c0.4-1.1,0.7-2.1,1.1-3.2
			c0.1-0.2,0.2-0.4,0.5-0.3c0.3,0,0.4,0.1,0.5,0.3c0.3,1,0.7,2,1,3.1c0,0.1,0.1,0.2,0.2,0.4c0.1-0.2,0.1-0.2,0.2-0.3
			c0.4-1,0.7-2,1.1-3c0.2-0.6,0.2-0.6,0.9-0.5c-0.1,0.2-0.2,0.5-0.3,0.7c-0.5,1.3-1.1,2.5-1.6,3.8c-0.1,0.3-0.3,0.3-0.5,0.3
			c-0.3,0-0.3-0.2-0.3-0.3c-0.3-0.9-0.6-1.9-0.9-2.8c0-0.1-0.1-0.3-0.2-0.5c-0.1,0.2-0.2,0.3-0.2,0.4c-0.4,1-0.8,2-1.1,2.9
			c-0.1,0.2-0.2,0.2-0.4,0.3c-0.2,0-0.3-0.1-0.4-0.3c-0.5-1.5-1-2.9-1.5-4.4C17.6,42.9,17.6,42.9,17.6,42.8z"/>
		<path class="st3" d="M51.5,13.3c-1.1,0.9-2.1,1.8-3.2,2.7c-0.4,0.4-0.9,0.8-1.4,1.1c-0.8,0.5-1.4,1.2-1.9,2.1
			c-0.2,0.4-0.6,0.5-1,0.7c0-0.9,0-1.7,0-2.5s0-0.8,0.8-1.1c0.6-0.2,1.2-0.5,1.8-0.7c0.7-0.3,1.4-0.6,2-1.1c0,0,0.1-0.1,0.2-0.1
			C49.6,13.9,50.5,13.6,51.5,13.3C51.4,13.3,51.4,13.3,51.5,13.3z"/>
		<path class="st3" d="M61,47.6c-0.3,0-0.5,0-0.8,0c0-2.5,0-5.1,0-7.6c0.3,0,0.5,0,0.8,0c0,1.1,0,2.2,0,3.4c0.1,0,0.2-0.1,0.2-0.1
			c0.5-0.6,1.1-0.7,1.9-0.6c0.6,0.1,1.1,0.5,1.2,1.2c0.1,1.2,0.1,2.5,0.1,3.7c-0.3,0-0.6,0-0.9,0c0-0.8,0-1.5,0-2.2c0-0.3,0-0.7,0-1
			c-0.1-0.8-0.5-1.1-1.2-1.1s-1.2,0.5-1.2,1.2c0,0.9,0,1.8,0,2.7C61,47.3,61,47.4,61,47.6z"/>
		<path class="st3" d="M30,33.6c-0.2,0.7-0.3,1.4-0.5,2.1c-0.4,0.1-0.7,0.1-0.9-0.3c0-0.1-0.1-0.1-0.2-0.2c-0.5-0.7-0.5-0.7-1.2-0.2
			c-0.1,0.1-0.2,0.2-0.2,0.3c0.1,0.5-0.1,0.8-0.5,1.1c-0.2,0.2-0.3,0.3-0.5,0.5c-0.1,0.1-0.2,0.2-0.2,0.4c0,0.3-0.1,0.5-0.4,0.5
			c-0.7,0-1.3,0.6-1.9,0.9c-0.2,0.1-0.3,0.2-0.6,0.3c0-0.1,0-0.3,0.1-0.3c0.4-0.3,0.8-0.7,1.2-1c0.1-0.1,0.2-0.3,0.3-0.5
			c0.1-0.5,0.2-1.1,0.3-1.7c0-0.1,0.2-0.3,0.3-0.3c0.3-0.1,0.5-0.2,0.8-0.2c0.5,0,0.7-0.4,0.9-0.8c0.1-0.4,0.3-0.9,0.4-1.3
			C28.3,33,29.2,33.3,30,33.6z"/>
		<path class="st3" d="M26.2,27.5c0.4-0.4,0.8-0.6,1.4-0.8c1.2-0.3,2.4-0.6,3.7-0.9c0.1,0,0.2,0,0.4-0.1c-1.2,1.4-2.4,2.8-3.6,4.2
			C27.5,29.6,26.5,28.4,26.2,27.5z"/>
		<path class="st3" d="M51.3,47.6c-0.3,0-0.5,0-0.8,0c0-0.2,0-0.4,0-0.5c-0.4,0.2-0.8,0.5-1.2,0.6c-1.1,0.3-2-0.3-2-1.4
			c-0.1-1.1,0-2.3,0-3.5c0.2,0,0.5,0,0.8,0c0,0.7,0,1.5,0,2.2c0,0.4,0,0.8,0.1,1.2c0.1,0.6,0.5,1,1.1,1s1-0.3,1.2-0.9
			c0.1-0.3,0.1-0.6,0.1-0.9c0-0.9,0-1.7,0-2.6c0.3,0,0.6,0,0.8,0C51.3,44.4,51.3,46,51.3,47.6z"/>
		<path class="st3" d="M77.8,42.8c0.3,0,0.5,0,0.8,0c0,0.2,0,0.3,0,0.5c0,0.9,0,1.9,0,2.8s0.8,1.4,1.6,1.1c0.5-0.2,0.7-0.6,0.8-1
			c0.1-0.6,0.1-1.2,0.1-1.7s0-1,0-1.6c0.3,0,0.5,0,0.8,0c0,1.6,0,3.2,0,4.8c-0.2,0-0.5,0-0.8,0c0-0.2,0-0.4,0-0.7
			c-0.1,0.1-0.2,0.2-0.3,0.3c-0.6,0.5-1.3,0.6-2,0.4s-0.9-0.8-1-1.4C77.8,45.1,77.8,43.9,77.8,42.8z"/>
		<path class="st3" d="M30.6,38.9c1.2-0.8,2.4-1.6,3.5-2.4c0.1,0.2,0.2,0.4,0.2,0.6c0.1,0.3,0.2,0.4,0.5,0.3
			c1.2-0.3,2.4-0.5,3.8-0.7c-0.1,0.1-0.2,0.2-0.3,0.2c-0.9,0.6-1.9,1.3-2.8,1.9C35.4,38.9,35.2,39,35,39c-1.4,0-2.8,0-4.2,0
			C30.8,39,30.7,39,30.6,38.9z"/>
		<path class="st3" d="M71.6,45.1c-1.2,0-2.3,0-3.5,0c0,0.7,0.1,1.4,0.8,1.8c0.9,0.6,1.7,0.3,2.5-0.4c0.1,0.4,0,0.6-0.3,0.7
			c-0.7,0.4-1.4,0.5-2.2,0.3c-1.3-0.3-1.9-1.6-1.7-3s1.4-2.2,2.9-1.9C71.1,42.9,71.7,44,71.6,45.1z M70.7,44.7
			c0.1-0.9-0.4-1.7-1.1-1.8c-0.8,0-1.5,0.8-1.5,1.8C69,44.7,69.8,44.7,70.7,44.7z"/>
		<path class="st3" d="M60.4,18.8c0.3-0.2,0.5-0.4,0.8-0.5c0.1-0.1,0.3-0.1,0.5,0c0.7,0.2,1.4,0.4,2.2,0.7c0.1,0,0.2,0.1,0.3,0.2
			c0.7,1,1.4,2,2.1,3.1C63.9,21.7,62.2,20.2,60.4,18.8z"/>
		<path class="st3" d="M55.6,43.9c-0.2-0.7-0.2-0.8,0.4-1c0.2-0.1,0.5-0.2,0.7-0.2c1.3-0.2,2,0.4,2.1,1.8c0,0.7,0,1.5,0,2.2
			c0,0.6,0,0.6,0.6,0.6c0.1,0.3-0.2,0.3-0.3,0.3c-0.5,0.1-0.8,0-1-0.4c-0.5,0.2-0.9,0.5-1.4,0.6c-0.8,0.2-1.4-0.4-1.5-1.1
			c-0.1-0.5,0.1-0.9,0.6-1.1c0.6-0.3,1.3-0.5,2-0.6c0.3-0.1,0.4-0.2,0.4-0.5c0-0.9-0.5-1.4-1.3-1.2c-0.3,0.1-0.5,0.3-0.8,0.5
			C55.8,43.7,55.7,43.8,55.6,43.9z M58,45c-0.6,0.2-1.2,0.3-1.7,0.6c-0.4,0.2-0.5,0.7-0.3,1.2c0.2,0.4,0.6,0.6,1,0.5
			c0.5-0.1,1-0.5,1-0.9C58,46,58,45.6,58,45z"/>
		<path class="st3" d="M36.3,38.9c2.5-1.8,5-3.5,7.5-5.3l0,0c-0.7,0.8-1.4,1.6-2.1,2.4c0,0,0,0.1,0.1,0.1c0.5-0.1,0.9-0.3,1.4-0.4
			l0,0c-0.1,0.1-0.2,0.1-0.2,0.2c-1.5,0.9-2.9,1.9-4.4,2.8c-0.2,0.1-0.5,0.2-0.8,0.2C37.3,39,36.8,39,36.3,38.9L36.3,38.9z"/>
		<path class="st3" d="M42.3,43.7c-0.4-0.2-0.7-0.5-1-0.6c-0.8-0.3-1.5,0.1-1.9,0.9s-0.4,1.6,0,2.3c0.5,1.1,1.8,1.4,2.7,0.6
			c0.1-0.1,0.2-0.2,0.3-0.3c0.1,0.3,0.1,0.5-0.2,0.7c-1.6,0.9-3.5,0.1-3.9-1.5c-0.4-1.7,0.7-3.2,2.5-3.2c0.4,0,0.9,0.1,1.3,0.2
			c0.4,0.1,0.5,0.3,0.3,0.6C42.4,43.6,42.4,43.6,42.3,43.7z"/>
		<path class="st3" d="M54.8,47.3c-0.1,0.1-0.2,0.2-0.2,0.3c-0.8,0.3-1.9,0.3-1.9-1.2c0-0.9,0-1.8,0-2.7c0-0.1,0-0.3,0-0.4
			c-0.2,0-0.4,0-0.6,0c0-0.2,0-0.3,0-0.5c0.2,0,0.4,0,0.6,0c0-0.2,0-0.4,0-0.6c-0.1-0.4,0.1-0.5,0.4-0.6c0.1,0,0.2-0.1,0.4-0.1
			c0,0.5,0,0.9,0,1.4c0.4,0,0.7,0,1,0c0,0.2,0,0.3,0,0.5c-0.3,0-0.7,0-1,0c0,0.4,0,0.8,0,1.1c0,0.6,0,1.2,0,1.8
			C53.5,47.2,53.7,47.4,54.8,47.3z"/>
		<path class="st3" d="M37.4,42.9c-0.1,0.3-0.2,0.5-0.3,0.8c-0.1-0.2-0.2-0.3-0.3-0.4c-0.3-0.3-0.6-0.4-1-0.3
			c-0.3,0.1-0.5,0.3-0.6,0.7c0,0.4,0.1,0.7,0.5,0.9c0.3,0.1,0.6,0.2,0.9,0.4c0.4,0.2,0.9,0.4,0.9,0.9c0.1,0.6-0.1,1.1-0.6,1.5
			c-0.7,0.5-1.7,0.5-2.6,0c0.1-0.2,0.1-0.5,0.2-0.7c0.3,0.2,0.5,0.5,0.8,0.6c0.4,0.3,0.9,0.2,1.2-0.2c0.4-0.5,0.3-1.1-0.2-1.3
			c-0.3-0.1-0.6-0.2-0.9-0.4c-0.7-0.3-1-0.7-1-1.3c0-0.7,0.5-1.2,1.2-1.4C36.2,42.6,36.8,42.6,37.4,42.9z"/>
		<path class="st3" d="M44.2,47.6c-0.3,0-0.5,0-0.8,0c0-1.6,0-3.2,0-4.8c0.3,0,0.5,0,0.8,0C44.2,44.4,44.2,46,44.2,47.6z"/>
		<path class="st3" d="M51.6,38.9c2.1-1.6,4.1-3.1,6.2-4.7c0,0,0,0,0.1,0c-0.1,0.1-0.1,0.1-0.2,0.2c-1.7,1.5-3.3,2.9-5,4.4
			C52.4,39,52,39,51.6,39.1C51.6,39,51.6,38.9,51.6,38.9z"/>
		<path class="st3" d="M45.6,46.5c0.3,0,0.6,0.3,0.6,0.6c0,0.3-0.2,0.6-0.6,0.6c-0.3,0-0.6-0.2-0.6-0.6C45,46.8,45.3,46.5,45.6,46.5
			z"/>
		<path class="st3" d="M66.4,47.1c0,0.3-0.3,0.6-0.6,0.6s-0.6-0.3-0.6-0.6c0-0.3,0.3-0.6,0.6-0.6S66.4,46.7,66.4,47.1z"/>
		<path class="st3" d="M33.1,47.7c-0.3,0-0.6-0.3-0.6-0.6c0-0.3,0.3-0.6,0.6-0.6s0.6,0.3,0.6,0.6C33.7,47.4,33.4,47.7,33.1,47.7z"/>
		<path class="st3" d="M43.7,41.5c-0.3,0-0.5-0.3-0.5-0.6c0-0.3,0.3-0.5,0.6-0.5s0.5,0.3,0.5,0.6C44.3,41.3,44,41.5,43.7,41.5z"/>
		<path class="st3" d="M29.3,30.9c0.7-0.3,1.3-0.7,2-1c0,0,0,0,0.1,0.1c-0.4,0.4-0.9,0.9-1.3,1.2c-0.1,0.1-0.4-0.1-0.7-0.1
			C29.3,31,29.3,30.9,29.3,30.9z"/>
	</g>
</g>
</svg>
