<?xml version="1.0" encoding="utf-8"?>
<!-- Generator: Adobe Illustrator 20.1.0, SVG Export Plug-In . SVG Version: 6.00 Build 0)  -->
<svg version="1.1" id="Layer_x5F_1" xmlns="http://www.w3.org/2000/svg" xmlns:xlink="http://www.w3.org/1999/xlink" x="0px"
	 y="0px" viewBox="0 0 289.7 289.5" style="enable-background:new 0 0 289.7 289.5;" xml:space="preserve">
<g id="Ash7QS.tif">
	<g>
		<path d="M269.8,189.8c3.1,0,6.3,0,9.9,0c0,3.2,0,6.3,0,9.9c3.6,0,6.6,0,9.9,0c0,6.8,0,13,0,19.8c-6.4,0-12.7,0-19.8,0
			c0,3.8,0,7,0,10.3l0.1-0.1c-6.6,0-13.2,0-20.1,0c0,7.2,0,13.7,0,20.1l0.1-0.1c-16.7,0-33.4,0-50.1,0l0.1,0.1c0-3.3,0-6.5,0-10.3
			c-3.8,0-6.8,0-9.8,0c0-6.8,0-13.1,0-19.8c3.3,0,6.3,0,9.4,0c0-6.9,0-13.3,0-20c-6.8,0-13.3,0-19.7,0l0.1,0.1c0-6.6,0-13.2,0-20.1
			c-3.9,0-7,0-10.1,0l0.1,0.1c0-6.7,0-13.4,0-20.1c0,0-0.1,0.1-0.1,0.1c3.4,0,6.8,0,10.1,0l-0.1-0.1c0,3.3,0,6.5,0,9.7
			c10.5,0,20.2,0,29.8,0c0-3.3,0-6.3,0-9.7c-3.3,0-6.4,0-10,0c0-6.9,0-13.3,0-20.1c-3.5,0-6.4,0-9.5,0c0-6.7,0-13.1,0-19.7
			c3.5,0,6.6,0,9.7,0l-0.1-0.1c0,3.2,0,6.5,0,10.2c3.7,0,6.8,0,10.3,0c0,3.5,0,6.6,0,9.8c3.6,0,6.7,0,9.9,0c0,3.2,0,6.5,0,9.8
			c3.6,0,6.6,0,9.6,0c0-3.4,0-6.4,0-9.6c-3.5,0-6.6,0-9.7,0c0-3.3,0-6.5,0-10.3c3.8,0,6.8,0,10.2,0c0-3.5,0-6.4,0-9.5
			c3.4,0,6.4,0,10,0c0,3.3,0,6.4,0,9.8c3.7,0,6.8,0,9.9,0l-0.1-0.1c0,3.1,0,6.3,0,9.9c6.7,0,13.1,0,20,0c0,3.7,0,7,0,10.2l0.1-0.1
			c-6.6,0-13.2,0-20.1,0c0,3.9,0,7,0,10.1l0.1-0.1c-9.9,0-19.8,0-29.7,0c0,3.7,0,6.8,0,10.1c10.1,0,19.9,0,29.7,0l-0.1-0.1
			c0,6.5,0,13.1,0,19.8c-3.7,0.2-6.9,0.4-10.2,0.5c0-3.4,0-6.7,0-9.9c-3.6,0-6.6,0-9.7,0c0,3.5,0,6.6,0,9.7c-3.3,0-6.5,0-10.3,0
			c0-3.8,0-6.8,0-9.8c-3.5,0-6.4,0-9.5,0c0,6.6,0,13,0,19.4c6.7,0,13,0,19.6,0c0-3.5,0-6.6,0-9.7c3.3,0.1,6.7,0.1,10,0.2
			c0,3.2,0,6.5,0,10.1c3.8,0,6.8,0,10.2,0c0,3.4,0,6.5,0,9.4c3.6,0,6.7,0,10.1,0c0-3.3,0-6.3,0-9.7c3.4,0,6.5,0,9.9,0
			c0-3.7,0-6.8,0-10L269.8,189.8z M239.5,239.6c0-10.2,0-20,0-29.5c-10,0-19.6,0-29.3,0c0,10,0,19.7,0,29.5
			C220.1,239.6,229.7,239.6,239.5,239.6z M199.7,180c-3.5,0-6.4,0-9.5,0c0,3.3,0,6.4,0,9.4c3.4,0,6.4,0,9.5,0
			C199.7,186.1,199.7,183.2,199.7,180z"/>
		<path d="M180,29.8c0-3.4,0-6.8,0-10.1c0,0-0.1,0.1-0.1,0.1c6.6,0,13.2,0,20.1,0c0-3.9,0-7,0-10.1l-0.1,0.1c3.1,0,6.3,0,10.1,0
			c0,23.5,0,46.7,0,70c-3.2,0-6.5,0-9.8,0c0,3.6,0,6.6,0,9.6c3.4,0,6.4,0,9.6,0c0-3.5,0-6.6,0-9.7c3.1,0,6.3,0,9.9,0
			c0,3.4,0,6.4,0,10.2c3.7,0,7,0,10.2,0l-0.1-0.1c0,6.6,0,13.2,0,19.7c-3.6,0-6.7,0-10.1,0c0-3.3,0-6.3,0-9.3c-10.1,0-19.8,0-30,0
			c0,3.4,0,6.4,0,9.4c-3.5,0-6.4,0-9.9,0c0-3.3,0-6.4,0-9.4c-3.6,0-6.6,0-10,0c0,3.3,0,6.2,0,9.7c-6.7,0-13.1,0-19.5,0
			c0,3.6,0,6.6,0,10.2c10.1,0,19.8,0,29.4,0c0,3.5,0,6.4,0,9.9c-3.3,0-6.4,0-9.8,0c0,10.3,0,20.1,0,29.9l0.1-0.1
			c-3.3,0-6.5,0-10.2,0c0-3.6,0-6.6,0-10c-3.6,0-6.8,0-9.9,0l0.1,0.1c0-3.3,0-6.5,0-10.3c3.6,0,6.7,0,9.7,0c0-3.5,0-6.4,0-9.9
			c-13.3,0-26.3,0-39.4,0c0-6.9,0-13.3,0-19.5c3.4,0,6.5,0,9.9,0c0,3.3,0,6.3,0,9.3c3.4,0,6.5,0,9.9,0c0-6.8,0-13.3,0-19.7l-0.1,0.1
			c6.6,0,13.2,0,20.1,0c0-3.9,0-7,0-10.1l-0.1,0.1c3.3,0,6.5,0,10.3,0c0-3.8,0-6.8,0-9.8c3.5,0,6.4,0,9.8,0c0,3.3,0,6.3,0,9.4
			c3.6,0,6.6,0,9.9,0c0-6.8,0-13.3,0-19.7c3.3,0,6.5,0,9.7,0c0-6.9,0-13.3,0-20c-6.8,0-13.3,0-19.7,0l0.1,0.1c0-3.4,0-6.8,0-10.1
			l-0.1,0.1c6.6,0,13.2,0,19.7,0c0-3.7,0-6.8,0-10.1c-6.8,0-13.3,0-19.7,0L180,29.8z"/>
		<path d="M120,249.7c-3.4,0.1-6.7,0.1-10.1,0.2c0-3.2,0-6.5,0-9.8c-3.6,0-6.6,0-9.6,0c0,3.4,0,6.4,0,9.6c3.5,0,6.6,0,9.7,0
			c0,13.1,0,26.3,0,39.7c-3.4,0-6.5,0-9.9,0c0-3,0-6,0-9.3c-3.4,0-6.5,0-10.1,0c0,3,0,6,0,9.3c-3.5,0-6.4,0-9.7,0
			c0-16.3,0-32.7,0-49.6c3,0,6,0,9.3,0c0-3.5,0-6.4,0-9.9c-2.9,0-6,0-9.4,0c0-6.9,0-13.3,0-20c6.3,0,12.6,0,19.4,0
			c0,6.3,0,12.7,0,19.4c3.6,0,6.6,0,10.1,0c0-3,0-5.9,0-9.4c6.7,0,13.1,0,19.9,0c0-3.6,0-6.6,0-10c-3,0-5.9,0-9.3,0
			c0-6.7,0-13.1,0-19.9c3,0,6,0,9.4,0c0,3,0,5.9,0,9.4c3.4,0,6.5,0,10.1,0c0,6.9,0,13.3,0,20c6.8,0,13.1,0,19.9,0c0-3,0-6,0-9.6
			c3.8,0,7,0,10.3,0l-0.1-0.1c0,6.6,0,13.2,0,20.3c-3.6,0-6.7,0-10,0c0,3.5,0,6.4,0,9.6c-6.7,0-13.1,0-20,0c0-3.3,0-6.4,0-9.4
			c-6.9,0-13.3,0-20,0c0,6.8,0,13.3,0,19.7L120,249.7z M90.2,260c0,3.4,0,6.5,0,9.4c3.4,0,6.4,0,9.4,0c0-3.3,0-6.2,0-9.4
			C96.5,260,93.6,260,90.2,260z"/>
		<path d="M269.8,229.8c6.5,0,12.9,0,19.7,0c0,10,0,19.7,0,29.7c-3,0-6,0-9.4,0c0,6.7,0,13.1,0,20.1c-3.8,0-7,0-10.3,0l0.1,0.1
			c0-3.3,0-6.5,0-9.7c-3.7,0-6.8,0-10.1,0c0,3.5,0,6.6,0,9.7l0.1-0.1c-3.1,0-6.3,0-10,0c0,3.4,0,6.5,0,9.8c-3.5,0-6.4,0-9.9,0
			c0-2.9,0-6,0-9.6c-3.8,0-7,0-10.3,0c0-3.2,0-6.5,0-9.8c-3.6,0-6.6,0-9.6,0c0,3.4,0,6.4,0,9.6c3.5,0,6.6,0,9.7,0c0,3.1,0,6.2,0,9.7
			c-6.7,0-13,0-19.9,0c0-3,0-6,0-9.7c-3.7,0-7,0-10.2,0l0.1,0.1c0-6.7,0-13.4,0-20.1l-0.1,0.1c16.6,0,33.2,0,50.1,0
			c0-3.9,0-7,0-10.1l-0.1,0.1c3.2,0,6.5,0,10.2,0c0-3.7,0-6.7,0-10.3c3.5,0,6.6,0,9.9,0c0-3.6,0-6.7,0-9.9L269.8,229.8z"/>
		<path d="M0.1,69.4c0-23.3,0-46.2,0-69.4c23.1,0,46.1,0,69.4,0c0,22.9,0,46,0,69.4C46.6,69.4,23.6,69.4,0.1,69.4z M10.3,10
			c0,16.8,0,33.1,0,49.4c16.7,0,33.1,0,49.4,0c0-16.7,0-32.9,0-49.4C43.1,10,26.9,10,10.3,10z"/>
		<path d="M69.6,289.5c-23.3,0-46.2,0-69.4,0c0-23.1,0-46.1,0-69.4c23,0,46,0,69.4,0C69.6,243,69.6,266.1,69.6,289.5z M10.2,279.4
			c16.6,0,33,0,49.4,0c0-16.7,0-33,0-49.3c-16.7,0-33.1,0-49.4,0C10.2,246.7,10.2,263,10.2,279.4z"/>
		<path d="M289.7,0.1c0,23.2,0,46.1,0,69.3c-23.2,0-46.3,0-69.6,0c0-23.1,0-46,0-69.3C243.2,0.1,266.2,0.1,289.7,0.1z M230.3,9.9
			c0,16.9,0,33.2,0,49.6c16.6,0,32.9,0,49.3,0c0-16.6,0-33,0-49.6C263.1,9.9,246.8,9.9,230.3,9.9z"/>
		<path d="M139.8,49.8c6.4,0,12.9,0,19.9,0c0-3.4,0-6.4,0-10c3.8,0,7,0,10.3,0l-0.1-0.1c0,3.3,0,6.5,0,10.1c3.9,0,7,0,10.1,0
			l-0.1-0.1c0,3.4,0.1,6.8,0.1,10.1c-3.3,0-6.5,0-10.3,0c0,3.6,0,6.7,0,9.7c-3.5,0-6.4,0-9.9,0c0-3.3,0-6.4,0-9.3
			c-3.6,0-6.6,0-9.6,0c0,6.7,0,12.9,0,19.7c3.3,0,6.4,0,9.7,0c0,3.7,0,6.8,0,10l0.1-0.1c-6.6,0-13.2,0-20.1,0c0,3.9,0,7,0,10.1
			c0,0,0.1-0.1,0.1-0.1c-6.6,0-13.2,0-20,0c0-3.7,0-6.9,0-10l-0.1,0.1c3.3,0,6.5,0,10.2,0c0-3.7,0-6.8,0-10.3c3.6,0,6.6,0,9.9,0
			c0-10.3,0-20,0-29.8L139.8,49.8z"/>
		<path d="M20,169.7c-3.1,0-6.3,0-10,0c0,13.4,0,26.5,0,39.8c-3.5,0-6.4,0-9.7,0c0-23,0-46,0-69.4c6.3,0,12.7,0,19.4,0
			c0,3,0,5.9,0,9.4c3.4,0,6.5,0,10.1,0c0,3.8,0,7,0,10.3l0.1-0.1c-3.3,0-6.5,0-10.1,0c0,3.9,0,7,0,10.1L20,169.7z"/>
		<path d="M70,99.8c0-3.1,0-6.3,0-10c-3.4,0-6.5,0-9.8,0c0-3.5,0-6.4,0-9.9c9.6,0,19.3,0,29.8,0c0-3.8,0-7,0-10.3l-0.1,0.1
			c3.3,0,6.5,0,10.1,0c0-3.9,0-7,0-10.1l-0.1,0.1c3.4,0,6.8,0,10.1,0l-0.1-0.1c0,3.3,0,6.5,0,10.1c3.9,0,7,0,10.1,0l-0.1-0.1
			c0,6.7,0,13.4,0,20.1l0.1-0.1c-3.4,0-6.8,0.1-10.1,0.1c0-3.3,0-6.5,0-9.7c-3.6,0-6.6,0-9.9,0c0,3.5,0,6.6,0,9.7
			c-6.6,0-13.1,0-20.2,0c0,3.6,0,6.6,0,9.9c-3.6,0-6.8,0-9.9,0L70,99.8z"/>
		<path d="M160,269.7c-6.5,0-12.9,0-20.2,0c0,3.6,0,6.9,0,10.1l0.1-0.1c-3.1,0-6.3,0-10,0c0,3.4,0,6.5,0,9.8c-3.5,0-6.4,0-9.7,0
			c0-6.3,0-12.7,0-19.6c3,0,6,0,9.4,0c0-3.5,0-6.4,0-9.9c-3,0-6,0-9.7,0c0-3.8,0-7,0-10.3c0,0-0.1,0.1-0.1,0.1c6.6,0,13.2,0,20.3,0
			c0,3.6,0,6.6,0,9.9c7,0,13.4,0,19.9,0c0,3.4-0.1,6.8-0.1,10.1L160,269.7z"/>
		<path d="M199.8,279.7c0,3.1,0,6.3,0,9.7c-9.9,0-19.6,0-29.9,0c0-3.2,0-6.5,0-9.7l-0.1,0.1c3.3,0,6.5,0,9.7,0c0-3.7,0-6.8,0-10.1
			c-3.5,0-6.6,0-9.7,0l0.1,0.1c0-3.4-0.1-6.8-0.1-10.1c3.3,0,6.5,0,10,0c0-3.7,0-6.9,0-10c6.7,0,13.4,0.1,20.1,0.1l-0.1-0.1
			c0,3.4,0,6.8,0,10.1c0,0,0.1-0.1,0.1-0.1c-3.3,0-6.5,0-9.7,0c0,7.1,0,13.4,0,20.1c3.5,0,6.6,0,9.7,0L199.8,279.7z"/>
		<path d="M149.9,9.8c3.1,0,6.3,0,9.9,0c0-3.4,0-6.4,0-9.8c13.5,0,26.5,0,40.1,0c0,3.3,0,6.5,0,9.8c0,0,0.1-0.1,0.1-0.1
			c-6.6,0-13.2,0-20.1,0c0,3.9,0,7,0,10.1c0,0,0.1-0.1,0.1-0.1c-6.4,0-12.9,0-19.9,0c0,3.3,0,6.4,0,9.7c-3.6,0-6.6,0-10.1,0
			c0-6.6,0-13.2,0-19.7L149.9,9.8z"/>
		<path d="M120,169.7c-3.1,0-6.3,0-9.9,0c0,3.4,0,6.4,0,10c-3.7,0-7,0-10.2,0c0,0,0.1,0.1,0.1,0.1c0-6.6,0-13.2,0-20.3
			c3.6,0,6.7,0,9.7,0c0-3.5,0-6.4,0-9.9c-3.3,0-6.4,0-9.4,0c0-3.6,0-6.6,0-9.5c10.1,0,19.8,0,29.4,0c0,3.3,0,6.3,0,9.7
			c-3.3,0-6.4,0-9.8,0c0,7,0,13.5,0,19.9L120,169.7z"/>
		<path d="M90,69.7c-3.1,0-6.3,0-9.7,0c0-6.6,0-13,0-19.9c3.1,0,6.1,0,9.4,0c0-3.5,0-6.4,0-9.9c-3,0-6.1,0-9.4,0c0-3.6,0-6.6,0-9.9
			c9.8,0,19.5,0,29.4,0c0,3.1,0,6.1,0,9.5c-3,0-6.1,0-9.8,0c0,7.1,0,13.7,0,20.3c0,0,0.1-0.1,0.1-0.1c-3.3,0-6.5,0-10.1,0
			c0,3.9,0,7,0,10.1L90,69.7z"/>
		<path d="M40,159.8c0-6.5,0-12.9,0-20c3.5,0,6.7,0,10,0l-0.1-0.1c0,3.3,0,6.5,0,10c3.9,0,7,0,10.1,0c0,3.3,0,6.5,0,10.2
			c10.3,0,20,0,29.5,0c0,3.6,0,6.6,0,9.8c-13.5,0-26.6,0-39.7,0l0.1,0.1c0-3.3,0-6.5,0-10.1c-3.9,0-7,0-10.1,0L40,159.8z"/>
		<path d="M0,89.8c0-3.7,0-6.5,0-9.7c16.4,0,32.8,0,49.6,0c0,6.2,0,12.6,0,19.3c-3,0-6.1,0-9.5,0c0-3.1,0-6,0-9.3c-3.4,0-6.4,0-10,0
			c0,3,0,6.1,0,9.4c-3.5,0-6.4,0-9.9,0c0-3,0-6,0-9.6C13.2,89.8,6.8,89.8,0,89.8z"/>
		<path d="M99.8,179.7c0,3.1,0,6.3,0,9.9c3.4,0,6.4,0,9.8,0c0,3.6,0,6.6,0,10.1c-13.3,0-26.6,0-39.8,0l0.1,0.1
			c0-3.4-0.1-6.8-0.1-10.1c3.3,0,6.5,0,10.3,0c0-3.6,0-6.6,0-9.9c7,0,13.4,0,19.9,0L99.8,179.7z"/>
		<path d="M130,49.8c0-3.1,0-6.3,0-9.9c-3.4,0-6.4,0-9.8,0c0-6.9,0-13.3,0-19.9c3.1,0,6,0,9.5,0c0,2.9,0,6,0,9.6c3.6,0,6.6,0,10.2,0
			c0,7.1,0,13.7,0,20.2c0,0,0.1-0.1,0.1-0.1c-3.4,0-6.8,0-10.1,0L130,49.8z"/>
		<path d="M150,179.7c-3.1,0-6.3,0-9.9,0c0-3.2,0-6.3,0-10c-3.7,0-7,0-10.2,0l0.1,0.1c0-3.2,0-6.5,0-10.2c3.6,0,6.6,0,10.1,0
			c0-3.5,0-6.6,0-9.8c3.6,0,6.7,0,9.9,0l-0.1-0.1c0,10,0,20.1,0,30.1L150,179.7z"/>
		<path d="M269.8,159.7c0,10,0,20.1,0,30.1c0,0,0.1-0.1,0.1-0.1c-3.3,0-6.5,0-10.2,0c0-6.9,0-13.3,0-20c-3.6,0-6.8,0-9.9,0
			c0,0,0.1,0.1,0.1,0.1c0-3.4,0-6.8,0-10.1l-0.1,0.1c6.7,0,13.4,0,20.1,0L269.8,159.7z"/>
		<path d="M50,139.8c0-6.5,0-12.9,0-20c6.8,0,13.4,0,20,0l-0.1-0.1c0,3.2,0,6.5,0,10.2c-3.6,0-6.6,0-9.9,0c0,3.6,0,6.8,0,9.9
			c-3.4,0-6.8-0.1-10.1-0.1C49.8,139.7,50,139.8,50,139.8z"/>
		<path d="M150,9.7c-9.8,0-19.6,0-29.7,0c0-3.2,0-6.2,0-9.6c9.6,0,19.3,0,29.6,0c0,3.2,0,6.5,0,9.8C149.9,9.8,150,9.7,150,9.7z"/>
		<path d="M269.8,119.7c0,3.1,0,6.3,0,10c-6.8,0-13.4,0-20,0c0,0,0.1,0.1,0.1,0.1c0-6.7,0-13.4,0-20.1l-0.1,0.1c3.1,0,6.3,0,9.9,0
			c0,3.2,0,6.3,0,10c3.7,0,7,0,10.2,0L269.8,119.7z"/>
		<path d="M110,59.8c0-3.1,0-6.3,0-10c6.8,0,13.4,0,20,0c0,0-0.1-0.1-0.1-0.1c0,6.6,0,13.2,0,20c-3.7,0-6.9,0-10,0
			c0,0,0.1,0.1,0.1,0.1c0-3.3,0-6.5,0-10.1c-3.9,0-7,0-10.1,0L110,59.8z"/>
		<path d="M170,199.7c-3.1,0-6.2,0-9.9,0c0-3.2,0-6.2,0-9.8c-3.5,0-6.6,0-10.1,0c0-3.7,0-7,0-10.2c0,0-0.1,0.1-0.1,0.1
			c6.7,0,13.4,0,20.1,0l-0.1-0.1c0,6.7,0,13.4,0,20.1L170,199.7z"/>
		<path d="M50,189.7c-3.4,0-6.8,0-10.1,0l0.1,0.1c0-6.7,0-13.4,0-20.1c0,0-0.1,0.1-0.1,0.1c3.4,0,6.8,0,10.1,0c0,0-0.1-0.1-0.1-0.1
			c0,6.7,0,13.4,0,20.1L50,189.7z"/>
		<path d="M100.1,19.3c0-6.5,0-12.8,0-19.3c3.2,0,6.3,0,9.6,0c0,6.4,0,12.7,0,19.3C106.7,19.3,103.6,19.3,100.1,19.3z"/>
		<path d="M39.9,189.6c0,6.4,0,12.9,0,19.7c-3.2,0-6.2,0-9.6,0c0-6.3,0-12.6,0-19.6c3.3,0,6.5,0,9.8,0
			C40,189.8,39.9,189.6,39.9,189.6z"/>
		<path d="M239.8,89.8c3.4,0,6.8,0,10.1,0l-0.1-0.1c0,6.7,0,13.4,0,20.1c0,0,0.1-0.1,0.1-0.1c-3.3,0-6.5,0-10,0c0-7.1,0-13.5,0-20
			L239.8,89.8z"/>
		<path d="M0.2,100c3.4,0,6.3,0,9.4,0c0,6.5,0,12.7,0,19.4c-3,0-6.1,0-9.4,0C0.2,113.1,0.2,106.7,0.2,100z"/>
		<path d="M60,199.7c-3.1,0-6.3,0-10,0c0-3.5,0-6.7,0-10c0,0-0.1,0.1-0.1,0.1c3.4,0,6.8-0.1,10.1-0.1c0,3.4-0.1,6.8-0.1,10.1
			L60,199.7z"/>
		<path d="M69.8,199.7c0,3.1,0,6.3,0,9.7c-3.2,0-6.3,0-9.9,0c0-3.2,0-6.5,0-9.7c0,0-0.1,0.1-0.1,0.1c3.4,0,6.8,0,10.1,0L69.8,199.7z
			"/>
		<path d="M170,209.8c0-3.4,0-6.8,0-10.2c0,0-0.1,0.1-0.1,0.1c3.4,0,6.8,0,10.1,0l-0.1-0.1c0,3.3,0,6.5,0,10c-3.7,0-6.9,0-10,0
			L170,209.8z"/>
		<path d="M269.8,279.7c0,3.1,0,6.3,0,9.7c-3.2,0-6.3,0-9.9,0c0-3.2,0-6.5,0-9.7c0,0-0.1,0.1-0.1,0.1c3.4,0,6.8,0,10.1,0
			L269.8,279.7z"/>
		<path d="M139.8,279.8c3.1,0,6.3,0,9.7,0c0,3.2,0,6.2,0,9.6c-3,0-6,0-9.6,0c0-3.3,0-6.5,0-9.8C140,279.7,139.8,279.8,139.8,279.8z"
			/>
		<path d="M170,279.7c-3.1,0-6.3,0-10,0c0-3.5,0-6.7,0-10c0,0-0.1,0.1-0.1,0.1c3.4,0,6.8,0,10.1,0l-0.1-0.1c0,3.4,0,6.8,0,10.1
			L170,279.7z"/>
		<path d="M89.5,19.6c-3.2,0-6,0-9.2,0c0-3.1,0-6.2,0-9.6c2.9,0,6,0,9.2,0C89.5,13.3,89.5,16.4,89.5,19.6z"/>
		<path d="M170,39.8c0-3.1,0-6.3,0-10c3.5,0,6.7,0,10,0c0,0-0.1-0.1-0.1-0.1c0,3.4,0,6.8,0,10.1l0.1-0.1c-3.4,0-6.8,0-10.1,0
			L170,39.8z"/>
		<path d="M230,89.8c0-3.1,0-6.3,0-9.7c3.2,0,6.3,0,9.9,0c0,3.2,0,6.5,0,9.7c0,0,0.1-0.1,0.1-0.1c-3.4,0-6.8,0-10.1,0L230,89.8z"/>
		<path d="M250,89.8c0-3.1,0-6.3,0-9.7c3.2,0,6.2,0,9.6,0c0,3,0,6,0,9.6c-3.3,0-6.5,0-9.8,0C249.8,89.7,250,89.8,250,89.8z"/>
		<path d="M280,89.7c-3.1,0-6.2,0-9.7,0c0-3.2,0-6.2,0-9.6c3,0,6,0,9.6,0c0,3.3,0,6.5,0,9.7L280,89.7z"/>
		<path d="M279.8,89.8c3.1,0,6.3,0,9.7,0c0,3.2,0,6.2,0,9.6c-3,0-6,0-9.6,0c0-3.3,0-6.5,0-9.8C280,89.7,279.8,89.8,279.8,89.8z"/>
		<path d="M70,109.7c-3.1,0-6.3,0-9.7,0c0-3.2,0-6.3,0-9.9c3.2,0,6.5,0,9.7,0c0,0-0.1-0.1-0.1-0.1c0,3.4,0,6.8,0,10.1L70,109.7z"/>
		<path d="M70,119.8c0-3.4,0-6.8,0-10.2c0,0-0.1,0.1-0.1,0.1c3.3,0,6.5,0,10,0c0,3.7,0,6.9,0,10l0.1-0.1c-3.4,0-6.7,0-10.1,0
			L70,119.8z"/>
		<path d="M270,119.8c0-3.1,0-6.3,0-9.7c3.2,0,6.2,0,9.6,0c0,3,0,6,0,9.6c-3.3,0-6.5,0-9.8,0C269.8,119.7,270,119.8,270,119.8z"/>
		<path d="M29.7,120c0,3.1,0,6.1,0,9.4c-3,0-6.1,0-9.5,0c0-3,0-6,0-9.4C23.2,120,26.2,120,29.7,120z"/>
		<path d="M280.3,129.9c3.1,0,6,0,9.3,0c0,3.2,0,6.2,0,9.5c-3,0-5.9,0-9.3,0C280.3,136.6,280.3,133.5,280.3,129.9z"/>
		<path d="M269.8,149.8c3.1,0,6.3,0,9.7,0c0,3.2,0,6.3,0,9.9c-3.2,0-6.5,0-9.7,0c0,0,0.1,0.1,0.1,0.1c0-3.4,0-6.8,0-10.1
			L269.8,149.8z"/>
		<path d="M29.8,159.8c3.4,0,6.8,0,10.2,0c0,0-0.1-0.1-0.1-0.1c0,3.4,0,6.8,0,10.1c0,0,0.1-0.1,0.1-0.1c-3.4,0-6.8,0-10.1,0l0.1,0.1
			c0-3.4,0-6.8,0-10.1L29.8,159.8z"/>
		<path d="M29.8,169.7c0,3.1,0,6.3,0,9.7c-3.2,0-6.3,0-9.9,0c0-3.2,0-6.5,0-9.7c0,0-0.1,0.1-0.1,0.1c3.4,0,6.8,0,10.1,0L29.8,169.7z
			"/>
		<path d="M129.8,169.7c0,3.1,0,6.3,0,9.7c-3.2,0-6.3,0-9.9,0c0-3.2,0-6.5,0-9.7c0,0-0.1,0.1-0.1,0.1c3.4,0,6.8,0,10.1,0
			L129.8,169.7z"/>
		<path d="M280.3,169.9c3.2,0,6.1,0,9.3,0c0,3.2,0,6.3,0,9.6c-3.1,0-6,0-9.3,0C280.3,176.5,280.3,173.5,280.3,169.9z"/>
		<path d="M200,119.8c0-3.1,0-6.3,0-9.7c3.2,0,6.2,0,9.6,0c0,3,0,6,0,9.6c-3.3,0-6.5,0-9.8,0C199.8,119.7,200,119.8,200,119.8z"/>
		<path d="M180,159.8c0-3.1,0-6.3,0-9.7c3.2,0,6.2,0,9.6,0c0,3,0,6,0,9.6c-3.3,0-6.5,0-9.8,0C179.8,159.7,180,159.8,180,159.8z"/>
		<path d="M170,249.7c0,3.4,0,6.8,0,10.1c-3.4,0-6.8,0-10.1,0c0-3.1,0-6.3,0-10.1C163.4,249.7,166.7,249.7,170,249.7z"/>
		<path d="M180,249.8c-3.4,0-6.8,0-10.1,0c0-3.1,0-6.3,0-9.7c3.4,0,6.4,0,10.1,0C180,243.3,180,246.6,180,249.8z"/>
		<path d="M229.7,220.1c0,3.2,0,6.2,0,9.4c-3.1,0-6.1,0-9.4,0c0-2.9,0-6,0-9.4C223.2,220.1,226.2,220.1,229.7,220.1z"/>
		<path d="M79.8,119.8c9.8,0,19.6,0,29.7,0c0,3.2,0,6.2,0,9.6c-9.6,0-19.3,0-29.6,0c0-3.2,0-6.5,0-9.8
			C80,119.7,79.8,119.8,79.8,119.8z"/>
		<path d="M99.8,89.7c3.4,0,6.8,0,10.1,0c0,6.5,0,12.9,0,19.7c-3.4,0-6.4,0-10.1,0C99.8,102.8,99.8,96.2,99.8,89.7z"/>
		<path d="M59.8,149.8c0-3.4,0-6.8,0-10.1c3.1,0,6.3,0,9.7,0c0,3.4,0,6.4,0,10.1C66.3,149.8,63.1,149.8,59.8,149.8z"/>
		<path d="M70,189.8c-3.4,0-6.8,0-10.1,0c0-3.1,0-6.3,0-9.7c3.4,0,6.4,0,10.1,0C70,183.3,70,186.6,70,189.8z"/>
		<path d="M179.8,59.7c3.1,0,6.3,0,10.1,0c0,3.6,0,6.9,0,10.1c-3.1,0-6.3,0-10.1,0C179.8,66.2,179.8,62.9,179.8,59.7z"/>
		<path d="M49.6,49.5c-9.9,0-19.4,0-29.4,0c0-9.8,0-19.5,0-29.5c9.7,0,19.4,0,29.4,0C49.6,29.8,49.6,39.4,49.6,49.5z"/>
		<path d="M20.3,239.9c9.9,0,19.5,0,29.3,0c0,9.9,0,19.6,0,29.6c-9.8,0-19.4,0-29.3,0C20.3,259.8,20.3,250.1,20.3,239.9z"/>
		<path d="M240.3,20c9.9,0,19.5,0,29.4,0c0,9.8,0,19.4,0,29.4c-9.6,0-19.3,0-29.4,0C240.3,39.8,240.3,30.1,240.3,20z"/>
	</g>
</g>
</svg>
