<?xml version="1.0" encoding="utf-8"?>
<!-- Generator: Adobe Illustrator 20.1.0, SVG Export Plug-In . SVG Version: 6.00 Build 0)  -->
<svg version="1.1" id="Layer_1" xmlns="http://www.w3.org/2000/svg" xmlns:xlink="http://www.w3.org/1999/xlink" x="0px" y="0px"
	 viewBox="0 0 75.9 38" style="enable-background:new 0 0 75.9 38;" xml:space="preserve">
<g>
	<path d="M62.9,14.5c1.4,0.2,2.7,0.1,3.9,0.7c0.8,0.4,1.6,0.5,2.5,0.6c1.6,0.3,3.1,0.8,4.6,1.3c1,0.4,1,0.4,2,0.3
		c0,3.9,0,7.7,0,11.7c-5.4,0-10.8,0-16.3,0c0.5-0.3,1-0.6,1.5-0.9v-0.1c-0.4-0.1-0.9,0-1.3-0.2c-0.5-0.2-0.9-0.5-1.3-0.8
		c-0.2-0.2-0.1-0.6-0.1-0.9c0-0.4-0.4-0.6-0.6-0.9c0,0-0.2,0-0.3,0c-0.4,0.2-0.8,0.5-1.2,0.7c-0.2,0.1-0.4,0.1-0.6,0
		c-1.2-0.4-2.1-1.3-2.9-2.2c-0.2-0.2-0.4-0.3-0.7-0.2c-0.6,0.3-1,0.1-1.5-0.3c-0.4-0.4-1-0.8-1.5-1.2c-0.2-0.2-0.3-0.3-0.1-0.5
		c0.2-0.3,0.2-0.6-0.1-0.9c-0.1-0.1-0.1-0.3-0.1-0.5c0.1-0.6,0.3-1.2,0.5-1.8c0-0.1,0.2-0.3,0.3-0.4c0.1-0.1,0.3-0.3,0.4-0.4
		c0.5-0.3,0.8-0.7,0.5-1.4c-0.1-0.2,0.1-0.6,0.1-1c0.2,0.3,0.4,0.5,0.5,0.7c0.3-0.5,0.7-0.9,0.9-1.3c0.1-0.2,0.1-0.5,0-0.7
		s-0.3-0.2-0.6-0.4c0.2-1.1,0.4-2.3,0.7-3.5c1.7,0.8,3.3,1.8,4.6,3c0.4,0.3,0.8,0.6,1.3,0.7c0.2,0.1,0.4,0.3,0.6,0.4
		c0.5,0.5,1,1,1.7,1.2c0.6,0.2,0.6,0.3,0.8,1c-1.2-0.6-2.3-1.2-3.6-1.8c0.8,0.8,1.4,1.8,2.5,2.3c0.8,0.3,1.5,0.6,2.3,0.6
		c1.5,0,2.8,0.4,4.2,0.8c0.7,0.2,1.4,0.4,2,0.5c0,0,0-0.1,0.1-0.1c-0.4-0.3-0.8-0.6-1.1-0.9c-0.1-0.1-0.3-0.3-0.3-0.4
		c-0.1-0.4-0.3-0.6-0.6-0.8c-0.7-0.6-1.5-1-2.5-1.2C63.6,15.4,63.2,15.1,62.9,14.5z"/>
	<path d="M51.1,0.6c0.7,0.2,1.4,0.3,2,0.5V1c-0.5-0.3-0.9-0.6-1.4-0.9V0c0.3,0.1,0.7,0.1,1,0.2C60.3,4.6,67.9,9,75.4,13.4
		c0.3,0.2,0.4,0.4,0.4,0.7c0,0.9,0,1.8,0,2.8c-0.1,0-0.2,0-0.3-0.1c-1.4-0.4-2.7-0.9-4.1-1.3c-0.4-0.1-0.7-0.3-1-0.5
		c-2.9-1.5-5.8-3-8.6-4.6C61,10,60.3,9.3,59.6,8.7c-1.9-1.5-3.8-3.1-5.7-4.6c-0.8-0.7-1.8-1.1-2.7-1.7c-0.2-0.1-0.3-0.3-0.3-0.5
		C51,1.4,51,1,51.1,0.6z"/>
	<path d="M30.9,19.9c0,0.7,0,1.2,0,1.8c0,0.1-0.2,0.2-0.3,0.3c-1.3,0.8-2.7,1.2-4.3,1.3c-2,0.2-3.9,0.1-5.8-0.6
		c-3.2-1.2-5-3.5-5.7-6.8c-0.4-2.1-0.3-4.2,0.5-6.2c1.2-3.2,3.7-5.1,7-5.8c3-0.7,6-0.3,8.8,0.9c0.1,0,0.2,0.1,0.3,0.1
		c-0.2,0.6-0.4,1.3-0.5,1.9c-0.1,0.3-0.3,0.3-0.5,0.1c-0.3-0.2-0.6-0.5-0.8-0.7C28,5,26.2,4.7,24.2,4.9c-3.5,0.4-5.8,2.9-6.5,6.5
		c-0.4,2.3-0.3,4.5,0.7,6.7c1.2,2.7,3.3,4.1,6.2,4.3c2.3,0.1,4.2-0.6,5.9-2.1C30.6,20.1,30.7,20,30.9,19.9z"/>
	<path d="M6.1,23.4c-1.4,0-2.6-0.3-3.8-1c-0.4-0.2-0.9-0.4-1-0.7s0.1-0.8,0.2-1.2c0.1-0.4,0.2-0.7,0.3-1.1c0-0.1,0.1-0.2,0.1-0.2
		c0.1,0.1,0.2,0.1,0.2,0.2c0.5,0.6,0.8,1.2,1.4,1.7c2.1,1.9,6.1,1.2,6.9-2.1c0.4-1.5,0-2.8-1.3-3.7c-0.7-0.5-1.5-0.8-2.2-1.2
		c-0.8-0.4-1.6-0.7-2.4-1.1c-1.9-1-2.9-2.6-2.7-4.8s1.5-3.8,3.6-4.4c1.7-0.5,3.5-0.6,5.2,0.1c0.4,0.2,0.8,0.5,1.3,0.7
		C12.1,4.7,12.1,4.8,12,5c-0.2,0.6-0.4,1.2-0.6,1.7c0,0.1-0.2,0.2-0.2,0.3C11.1,6.9,11,6.8,11,6.7c-0.5-1.2-1.4-2-2.7-2.1
		C6.8,4.4,5.6,4.8,4.7,6c-1,1.4-0.7,3.4,0.8,4.4c0.7,0.5,1.6,0.8,2.4,1.2c0.9,0.4,1.8,0.7,2.6,1.2c1.8,1,2.7,2.6,2.6,4.7
		C13,19.7,12,21.4,10,22.4C8.6,23.1,7.6,23.3,6.1,23.4z"/>
	<path d="M0,29.2c0.8-1.1,1.5-2.1,2.2-3.1c0.1-0.1,0.3-0.2,0.4-0.2c0.8,0,1.5-0.1,2.3-0.1c0.7,0,1.3-0.1,1.9-0.3
		c1.2-0.4,2.4-0.8,3.6-1.1c0.2-0.1,0.4-0.2,0.5-0.4c0.3-1,1-1.7,1.9-2.2c1.1-0.6,2.1-1.3,3.1-2c0.8,1.1,1.8,2,3,2.7
		c-1.1,1.5-2.3,2.7-3.7,3.9c-0.8,0.7-1.6,1.2-2.7,1.1c-1.1-0.1-2,0.3-2.7,1.2c-0.3,0.4-0.7,0.5-1.2,0.5c-2.7,0-5.4,0-8.1,0
		C0.4,29.2,0.3,29.2,0,29.2z"/>
	<path d="M33.6,4c0.8,0,1.7,0,2.5,0c0,6.4,0,12.7,0,19.1c-0.8,0-1.6,0-2.5,0C33.6,16.7,33.6,10.4,33.6,4z"/>
	<path d="M33.1,9.1c0,0.5,0,0.9,0,1.4c0,0.8,0,1.5,0,2.3c0,0.3-0.1,0.5-0.3,0.7c-1.2,1-2.3,2.1-3.4,3.2c-0.3,0.3-0.5,0.6-0.7,0.9
		c-0.2,0.4-0.4,0.9-0.6,1.3c-0.1,0.2-0.3,0.4-0.5,0.6c-0.2-0.4-0.3-0.8-0.5-1.1c-0.4,0.1-0.8,0.2-1.2,0.4c0-1.2,0-2.4,0-3.7
		c-0.3,0-0.5,0-0.8,0c0.5-0.6,1-1.2,1.4-1.8c0.1-0.1,0.3-0.1,0.5-0.1c0.8,0,0.9,0,1.1-0.8c0.1-0.4,0.4-0.8,0.6-1.1
		c0.8-1,1.8-1.6,3-1.8C32.2,9.4,32.6,9.2,33.1,9.1z"/>
	<path d="M49.4,14.9c-0.5,0.4-0.9,0.9-1.4,1.3c-0.2,0.2-0.3,0.4-0.2,0.6c0.2,1.5,0.4,2.9,0.6,4.4c0,0.2-0.1,0.4-0.2,0.5
		c-0.2,0.3-0.5,0.5-0.7,0.7c-0.4,0.4-0.8,0.6-1.4,0.5c-0.9-0.1-1.7,0.2-2.3,0.9c-0.9,0.9-2,1.7-3,2.6c-0.2,0.2-0.4,0.3-0.6,0.4
		c-0.8,0.4-1.6,0.7-2.4,1c-0.4,0.2-0.7,0.4-0.7,0.8c0,0.3-0.2,0.4-0.5,0.4c-0.8,0-1.5,0-2.3,0c0.6-0.4,1.1-1,1.9-1.1
		c0.5-0.1,0.8-0.3,1.1-0.6c2.1-1.8,4.2-3.7,6.3-5.5c0.1-0.1,0.2-0.3,0.3-0.5s0.2-0.4,0.3-0.5c0.6-0.7,1.3-1.3,1.9-2
		c0.2-0.2,0.3-0.4,0.3-0.6c0.2-0.6,0.3-1.3,0.5-1.9c0-0.1,0.1-0.2,0.1-0.3C47.8,15.6,48.5,15.2,49.4,14.9
		C49.3,14.8,49.3,14.9,49.4,14.9z"/>
	<path d="M37.5,22c1.5-1.7,3-3.3,4.5-5c0.5-0.5,0.9-1.1,1.2-1.7c0.1-0.2,0-0.6,0.1-0.9c0-0.2,0.1-0.4,0.2-0.5
		c1.2-1.1,2.5-2.1,3.7-3.2c0.1-0.1,0.2-0.2,0.4-0.2c0.8-0.1,1.6-0.3,2.5-0.3c-1,0.7-1.9,1.3-2.9,2c0.1,0.1,0.2,0.1,0.3,0.2
		c0.5,0.3,0.5,0.3,0.3,0.9s-0.5,1-1,1.4c-2,1.7-3.9,3.4-5.9,5C39.7,20.6,38.6,21.3,37.5,22C37.5,22.1,37.5,22.1,37.5,22z"/>
	<path d="M47.8,29.2c0.5-0.6,1-1.1,1.5-1.6c0.1-0.1,0.2-0.1,0.3-0.1c1.8-0.4,3.6-0.9,5.5-1.3c0.1,0,0.3,0,0.4,0.1
		c0.5,0.8,1.1,1.5,1.6,2.3c-0.7,0.3-1.3,0.6-2,0.6c-2.2,0-4.5,0-6.7,0C48.2,29.2,48,29.2,47.8,29.2z"/>
	<path d="M68.5,33.7c0-1.2,0-2.4,0-3.5c0.3,0,0.5,0,0.8,0c0,2.5,0,5,0,7.6c-0.3,0-0.5,0-0.8,0c0-0.2,0-0.4-0.1-0.7
		c-0.1,0-0.1-0.1-0.2-0.1c-0.1,0.1-0.1,0.3-0.2,0.4c-1,1-2.6,0.7-3.2-0.5c-0.5-0.9-0.4-1.9,0-2.9C65.6,32.8,67.4,32.3,68.5,33.7z
		 M65.6,35.4c0.1,0.4,0.1,0.8,0.2,1.2c0.2,0.5,0.5,0.9,1,0.9c0.6,0.1,1.1-0.2,1.4-0.7c0.4-0.8,0.5-1.7,0.1-2.6
		c-0.2-0.5-0.6-0.9-1.2-0.9s-1.1,0.3-1.3,0.9C65.7,34.6,65.7,35,65.6,35.4z"/>
	<path d="M22.9,37.8c-0.4-1.2-0.8-2.4-1.2-3.6c-0.1,0.2-0.1,0.3-0.2,0.4c-0.4,1-0.8,2-1.1,2.9c-0.1,0.2-0.2,0.3-0.5,0.3
		c-0.2,0-0.3-0.1-0.4-0.3c-0.5-1.4-1-2.8-1.5-4.3c0-0.1,0-0.2-0.1-0.3c0.1,0,0.1,0,0.1,0c0.7,0,0.7,0,0.9,0.6c0.4,1,0.7,2.1,1.1,3.2
		c0.1-0.2,0.1-0.4,0.2-0.5c0.3-1,0.6-1.9,1-2.9c0.1-0.2,0.1-0.5,0.5-0.4c0.4,0,0.4,0.2,0.5,0.4c0.3,1,0.7,2,1,3
		c0,0.1,0.1,0.2,0.1,0.4c0.1-0.2,0.1-0.3,0.2-0.5c0.4-1,0.7-1.9,1.1-2.9c0.2-0.5,0.2-0.5,0.8-0.5c-0.1,0.1-0.1,0.3-0.1,0.4
		c-0.6,1.3-1.2,2.6-1.7,4C23.5,37.8,23.3,37.9,22.9,37.8z"/>
	<path d="M7.4,36.7c0.1-0.1,0.1-0.2,0.2-0.4c0.3-1,0.7-1.9,1-2.9c0.2-0.5,0.2-0.5,0.8-0.4c0,0.1-0.1,0.2-0.1,0.3
		c-0.6,1.4-1.2,2.8-1.8,4.2c-0.1,0.3-0.3,0.3-0.5,0.3c-0.3,0-0.3-0.2-0.3-0.3c-0.4-1.1-0.7-2.1-1.1-3.3c-0.1,0.2-0.1,0.3-0.2,0.4
		c-0.4,1-0.8,2-1.1,3c-0.1,0.2-0.2,0.3-0.4,0.3s-0.3-0.1-0.4-0.3c-0.5-1.4-1-2.9-1.5-4.3c0-0.1,0-0.1-0.1-0.3c0.2,0,0.5,0,0.7,0
		c0.1,0,0.2,0.2,0.3,0.3c0.4,1,0.7,2,1.1,3c0,0.1,0.1,0.3,0.2,0.5c0.1-0.2,0.1-0.2,0.2-0.3c0.4-1.1,0.7-2.1,1-3.2
		C5.5,33.1,5.6,33,5.8,33s0.4,0,0.4,0.3c0.3,1,0.7,2,1,3C7.2,36.4,7.3,36.6,7.4,36.7C7.3,36.7,7.4,36.7,7.4,36.7z"/>
	<path d="M10,33c0.8-0.1,0.8-0.1,1.1,0.6c0.4,1,0.7,2.1,1.1,3.1c0.1-0.1,0.1-0.2,0.1-0.3c0.4-1.1,0.7-2.1,1.1-3.2
		c0.1-0.2,0.2-0.4,0.5-0.3c0.3,0,0.4,0.1,0.5,0.3c0.3,1,0.7,2,1,3.1c0,0.1,0.1,0.2,0.2,0.4c0.1-0.2,0.1-0.2,0.2-0.3
		c0.4-1,0.7-2,1.1-3c0.2-0.6,0.2-0.6,0.9-0.5c-0.1,0.2-0.2,0.5-0.3,0.7c-0.5,1.3-1.1,2.5-1.6,3.8c-0.1,0.3-0.3,0.3-0.5,0.3
		c-0.3,0-0.3-0.2-0.3-0.3c-0.3-0.9-0.6-1.9-0.9-2.8c0-0.1-0.1-0.3-0.2-0.5c-0.1,0.2-0.2,0.3-0.2,0.4c-0.4,1-0.8,2-1.1,2.9
		c-0.1,0.2-0.2,0.2-0.4,0.3c-0.2,0-0.3-0.1-0.4-0.3c-0.5-1.5-1-2.9-1.5-4.4C10,33.1,10,33.1,10,33z"/>
	<path d="M43.9,3.5c-1.1,0.9-2.1,1.8-3.2,2.7c-0.4,0.4-0.9,0.8-1.4,1.1c-0.8,0.5-1.4,1.2-1.9,2.1c-0.2,0.4-0.6,0.5-1,0.7
		c0-0.9,0-1.7,0-2.5s0-0.8,0.8-1.1C37.8,6.3,38.4,6,39,5.8c0.7-0.3,1.4-0.6,2-1.1c0,0,0.1-0.1,0.2-0.1C42,4.1,42.9,3.8,43.9,3.5
		C43.8,3.5,43.8,3.5,43.9,3.5z"/>
	<path d="M53.4,37.8c-0.3,0-0.5,0-0.8,0c0-2.5,0-5.1,0-7.6c0.3,0,0.5,0,0.8,0c0,1.1,0,2.2,0,3.4c0.1,0,0.2-0.1,0.2-0.1
		c0.5-0.6,1.1-0.7,1.9-0.6c0.6,0.1,1.1,0.5,1.2,1.2c0.1,1.2,0.1,2.5,0.1,3.7c-0.3,0-0.6,0-0.9,0c0-0.8,0-1.5,0-2.2c0-0.3,0-0.7,0-1
		c-0.1-0.8-0.5-1.1-1.2-1.1s-1.2,0.5-1.2,1.2c0,0.9,0,1.8,0,2.7C53.4,37.5,53.4,37.6,53.4,37.8z"/>
	<path d="M22.4,23.8c-0.2,0.7-0.3,1.4-0.5,2.1C21.5,26,21.2,26,21,25.6c0-0.1-0.1-0.1-0.2-0.2c-0.5-0.7-0.5-0.7-1.2-0.2
		c-0.1,0.1-0.2,0.2-0.2,0.3c0.1,0.5-0.1,0.8-0.5,1.1c-0.2,0.2-0.3,0.3-0.5,0.5c-0.1,0.1-0.2,0.2-0.2,0.4c0,0.3-0.1,0.5-0.4,0.5
		c-0.7,0-1.3,0.6-1.9,0.9c-0.2,0.1-0.3,0.2-0.6,0.3c0-0.1,0-0.3,0.1-0.3c0.4-0.3,0.8-0.7,1.2-1c0.1-0.1,0.2-0.3,0.3-0.5
		c0.1-0.5,0.2-1.1,0.3-1.7c0-0.1,0.2-0.3,0.3-0.3c0.3-0.1,0.5-0.2,0.8-0.2c0.5,0,0.7-0.4,0.9-0.8c0.1-0.4,0.3-0.9,0.4-1.3
		C20.7,23.2,21.6,23.5,22.4,23.8z"/>
	<path d="M18.6,17.7c0.4-0.4,0.8-0.6,1.4-0.8c1.2-0.3,2.4-0.6,3.7-0.9c0.1,0,0.2,0,0.4-0.1c-1.2,1.4-2.4,2.8-3.6,4.2
		C19.9,19.8,18.9,18.6,18.6,17.7z"/>
	<path d="M43.7,37.8c-0.3,0-0.5,0-0.8,0c0-0.2,0-0.4,0-0.5c-0.4,0.2-0.8,0.5-1.2,0.6c-1.1,0.3-2-0.3-2-1.4c-0.1-1.1,0-2.3,0-3.5
		c0.2,0,0.5,0,0.8,0c0,0.7,0,1.5,0,2.2c0,0.4,0,0.8,0.1,1.2c0.1,0.6,0.5,1,1.1,1s1-0.3,1.2-0.9c0.1-0.3,0.1-0.6,0.1-0.9
		c0-0.9,0-1.7,0-2.6c0.3,0,0.6,0,0.8,0C43.7,34.6,43.7,36.2,43.7,37.8z"/>
	<path d="M70.2,33c0.3,0,0.5,0,0.8,0c0,0.2,0,0.3,0,0.5c0,0.9,0,1.9,0,2.8s0.8,1.4,1.6,1.1c0.5-0.2,0.7-0.6,0.8-1
		c0.1-0.6,0.1-1.2,0.1-1.7s0-1,0-1.6c0.3,0,0.5,0,0.8,0c0,1.6,0,3.2,0,4.8c-0.2,0-0.5,0-0.8,0c0-0.2,0-0.4,0-0.7
		c-0.1,0.1-0.2,0.2-0.3,0.3c-0.6,0.5-1.3,0.6-2,0.4s-0.9-0.8-1-1.4C70.2,35.3,70.2,34.1,70.2,33z"/>
	<path d="M23,29.1c1.2-0.8,2.4-1.6,3.5-2.4c0.1,0.2,0.2,0.4,0.2,0.6c0.1,0.3,0.2,0.4,0.5,0.3c1.2-0.3,2.4-0.5,3.8-0.7
		c-0.1,0.1-0.2,0.2-0.3,0.2c-0.9,0.6-1.9,1.3-2.8,1.9c-0.1,0.1-0.3,0.2-0.5,0.2c-1.4,0-2.8,0-4.2,0C23.2,29.2,23.1,29.2,23,29.1z"/>
	<path d="M64,35.3c-1.2,0-2.3,0-3.5,0c0,0.7,0.1,1.4,0.8,1.8c0.9,0.6,1.7,0.3,2.5-0.4c0.1,0.4,0,0.6-0.3,0.7
		c-0.7,0.4-1.4,0.5-2.2,0.3c-1.3-0.3-1.9-1.6-1.7-3s1.4-2.2,2.9-1.9C63.5,33.1,64.1,34.2,64,35.3z M63.1,34.9
		c0.1-0.9-0.4-1.7-1.1-1.8c-0.8,0-1.5,0.8-1.5,1.8C61.4,34.9,62.2,34.9,63.1,34.9z"/>
	<path d="M52.8,9c0.3-0.2,0.5-0.4,0.8-0.5c0.1-0.1,0.3-0.1,0.5,0c0.7,0.2,1.4,0.4,2.2,0.7c0.1,0,0.2,0.1,0.3,0.2
		c0.7,1,1.4,2,2.1,3.1C56.3,11.9,54.6,10.4,52.8,9z"/>
	<path d="M48,34.1c-0.2-0.7-0.2-0.8,0.4-1c0.2-0.1,0.5-0.2,0.7-0.2c1.3-0.2,2,0.4,2.1,1.8c0,0.7,0,1.5,0,2.2c0,0.6,0,0.6,0.6,0.6
		c0.1,0.3-0.2,0.3-0.3,0.3c-0.5,0.1-0.8,0-1-0.4c-0.5,0.2-0.9,0.5-1.4,0.6c-0.8,0.2-1.4-0.4-1.5-1.1c-0.1-0.5,0.1-0.9,0.6-1.1
		c0.6-0.3,1.3-0.5,2-0.6c0.3-0.1,0.4-0.2,0.4-0.5c0-0.9-0.5-1.4-1.3-1.2c-0.3,0.1-0.5,0.3-0.8,0.5C48.2,33.9,48.1,34,48,34.1z
		 M50.4,35.2c-0.6,0.2-1.2,0.3-1.7,0.6c-0.4,0.2-0.5,0.7-0.3,1.2c0.2,0.4,0.6,0.6,1,0.5c0.5-0.1,1-0.5,1-0.9
		C50.4,36.2,50.4,35.8,50.4,35.2z"/>
	<path d="M28.7,29.1c2.5-1.8,5-3.5,7.5-5.3l0,0c-0.7,0.8-1.4,1.6-2.1,2.4c0,0,0,0.1,0.1,0.1c0.5-0.1,0.9-0.3,1.4-0.4l0,0
		c-0.1,0.1-0.2,0.1-0.2,0.2C33.9,27,32.5,28,31,28.9c-0.2,0.1-0.5,0.2-0.8,0.2C29.7,29.2,29.2,29.2,28.7,29.1L28.7,29.1z"/>
	<path d="M34.7,33.9c-0.4-0.2-0.7-0.5-1-0.6c-0.8-0.3-1.5,0.1-1.9,0.9c-0.4,0.8-0.4,1.6,0,2.3c0.5,1.1,1.8,1.4,2.7,0.6
		c0.1-0.1,0.2-0.2,0.3-0.3c0.1,0.3,0.1,0.5-0.2,0.7c-1.6,0.9-3.5,0.1-3.9-1.5c-0.4-1.7,0.7-3.2,2.5-3.2c0.4,0,0.9,0.1,1.3,0.2
		c0.4,0.1,0.5,0.3,0.3,0.6C34.8,33.8,34.8,33.8,34.7,33.9z"/>
	<path d="M47.2,37.5c-0.1,0.1-0.2,0.2-0.2,0.3c-0.8,0.3-1.9,0.3-1.9-1.2c0-0.9,0-1.8,0-2.7c0-0.1,0-0.3,0-0.4c-0.2,0-0.4,0-0.6,0
		c0-0.2,0-0.3,0-0.5c0.2,0,0.4,0,0.6,0c0-0.2,0-0.4,0-0.6c-0.1-0.4,0.1-0.5,0.4-0.6c0.1,0,0.2-0.1,0.4-0.1c0,0.5,0,0.9,0,1.4
		c0.4,0,0.7,0,1,0c0,0.2,0,0.3,0,0.5c-0.3,0-0.7,0-1,0c0,0.4,0,0.8,0,1.1c0,0.6,0,1.2,0,1.8C45.9,37.4,46.1,37.6,47.2,37.5z"/>
	<path d="M29.8,33.1c-0.1,0.3-0.2,0.5-0.3,0.8c-0.1-0.2-0.2-0.3-0.3-0.4c-0.3-0.3-0.6-0.4-1-0.3c-0.3,0.1-0.5,0.3-0.6,0.7
		c0,0.4,0.1,0.7,0.5,0.9c0.3,0.1,0.6,0.2,0.9,0.4c0.4,0.2,0.9,0.4,0.9,0.9c0.1,0.6-0.1,1.1-0.6,1.5c-0.7,0.5-1.7,0.5-2.6,0
		c0.1-0.2,0.1-0.5,0.2-0.7c0.3,0.2,0.5,0.5,0.8,0.6c0.4,0.3,0.9,0.2,1.2-0.2c0.4-0.5,0.3-1.1-0.2-1.3c-0.3-0.1-0.6-0.2-0.9-0.4
		c-0.7-0.3-1-0.7-1-1.3c0-0.7,0.5-1.2,1.2-1.4C28.6,32.8,29.2,32.8,29.8,33.1z"/>
	<path d="M36.6,37.8c-0.3,0-0.5,0-0.8,0c0-1.6,0-3.2,0-4.8c0.3,0,0.5,0,0.8,0C36.6,34.6,36.6,36.2,36.6,37.8z"/>
	<path d="M44,29.1c2.1-1.6,4.1-3.1,6.2-4.7c0,0,0,0,0.1,0c-0.1,0.1-0.1,0.1-0.2,0.2c-1.7,1.5-3.3,2.9-5,4.4
		c-0.3,0.2-0.7,0.2-1.1,0.3C44,29.2,44,29.1,44,29.1z"/>
	<path d="M38,36.7c0.3,0,0.6,0.3,0.6,0.6s-0.2,0.6-0.6,0.6c-0.3,0-0.6-0.2-0.6-0.6C37.4,37,37.7,36.7,38,36.7z"/>
	<path d="M58.8,37.3c0,0.3-0.3,0.6-0.6,0.6s-0.6-0.3-0.6-0.6s0.3-0.6,0.6-0.6S58.8,36.9,58.8,37.3z"/>
	<path d="M25.5,37.9c-0.3,0-0.6-0.3-0.6-0.6s0.3-0.6,0.6-0.6s0.6,0.3,0.6,0.6C26.1,37.6,25.8,37.9,25.5,37.9z"/>
	<path d="M36.1,31.7c-0.3,0-0.5-0.3-0.5-0.6s0.3-0.5,0.6-0.5s0.5,0.3,0.5,0.6S36.4,31.7,36.1,31.7z"/>
	<path d="M21.7,21.1c0.7-0.3,1.3-0.7,2-1c0,0,0,0,0.1,0.1c-0.4,0.4-0.9,0.9-1.3,1.2c-0.1,0.1-0.4-0.1-0.7-0.1
		C21.7,21.2,21.7,21.1,21.7,21.1z"/>
</g>
</svg>
